<svg width="150" height="150" viewBox="0 0 150 150" fill="none" xmlns="http://www.w3.org/2000/svg">
<path d="M34.3063 108.398L35.2021 107.594L37.0227 109.623L29.2199 116.624L28.329 115.632L35.236 109.434L34.3063 108.398Z" fill="#1D1D1B"/>
<path d="M22.9596 106.531C24.4716 106.971 25.6846 107.295 26.5986 107.505C27.5206 107.708 28.3985 107.807 29.2324 107.801C30.0797 107.798 30.7765 107.604 31.3227 107.222C31.8372 106.861 32.1522 106.451 32.2675 105.993C32.3964 105.536 32.2666 105.031 31.8782 104.477C31.501 103.939 31.0367 103.639 30.4855 103.576C29.9478 103.516 29.3895 103.672 28.8109 104.042L28.0785 102.997C28.9873 102.407 29.8607 102.196 30.6986 102.365C31.5366 102.533 32.2357 103.017 32.7961 103.816C33.3675 104.632 33.5941 105.435 33.4758 106.226C33.363 107.025 32.9108 107.702 32.1192 108.257C31.4621 108.717 30.6822 108.969 29.7795 109.011C28.8902 109.056 28.0333 108.996 27.2088 108.83C26.3922 108.659 25.3994 108.404 24.2303 108.067L27.0931 112.151L26.1907 112.784L22.1878 107.072L22.9596 106.531Z" fill="#1D1D1B"/>
<path d="M27.4454 97.6555L28.5068 97.0882L29.7919 99.4922L20.5464 104.434L19.9175 103.258L28.1016 98.8831L27.4454 97.6555Z" fill="#1D1D1B"/>
<path d="M20.7543 91.0407C22.3097 90.4534 23.6172 90.249 24.6766 90.4275C25.745 90.6027 26.5183 91.3233 26.9964 92.5894C27.4711 93.8464 27.3655 94.8937 26.6795 95.7314C26.0026 96.5657 24.8864 97.2765 23.331 97.8639C21.7484 98.4616 20.4229 98.6728 19.3544 98.4977C18.286 98.3225 17.5144 97.6064 17.0397 96.3494C16.5616 95.0833 16.6655 94.0314 17.3515 93.1937C18.0374 92.3561 19.1717 91.6384 20.7543 91.0407ZM22.8699 96.6431C23.6567 96.346 24.3009 96.0407 24.8025 95.7273C25.3166 95.4195 25.6795 95.0396 25.8911 94.5877C26.1062 94.1448 26.0993 93.6204 25.8705 93.0145C25.6383 92.3996 25.2934 91.9925 24.8359 91.7933C24.3817 91.6032 23.8584 91.558 23.2657 91.6578C22.6856 91.7632 22.0021 91.9645 21.2153 92.2616C20.4014 92.569 19.7374 92.8765 19.2234 93.1843C18.7127 93.5012 18.3498 93.881 18.1348 94.3239C17.9231 94.7758 17.9334 95.3092 18.1656 95.9242C18.3944 96.5301 18.7359 96.9281 19.19 97.1183C19.6476 97.3175 20.1709 97.3627 20.7602 97.2538C21.3528 97.154 22.056 96.9504 22.8699 96.6431Z" fill="#1D1D1B"/>
<path d="M14.7038 83.4498C15.9204 84.4494 16.9075 85.2254 17.6652 85.7779C18.4322 86.3284 19.2002 86.7651 19.969 87.0881C20.7493 87.4185 21.4659 87.5154 22.1187 87.3788C22.7337 87.25 23.1846 86.9976 23.4712 86.6215C23.7694 86.2529 23.8491 85.7375 23.7104 85.0752C23.5757 84.4318 23.2673 83.9729 22.7852 83.6986C22.3145 83.4317 21.7403 83.3544 21.0626 83.4666L20.8012 82.2177C21.8688 82.0337 22.7545 82.1841 23.4585 82.6688C24.1624 83.1535 24.6144 83.8736 24.8145 84.8292C25.0185 85.8038 24.9103 86.6313 24.4898 87.312C24.0714 88.002 23.3891 88.4461 22.4429 88.6442C21.6576 88.8086 20.8417 88.7325 19.9952 88.4159C19.1601 88.1068 18.3963 87.7137 17.7039 87.2364C17.0208 86.7572 16.2085 86.1322 15.2669 85.3615L16.2891 90.2437L15.2105 90.4695L13.7813 83.643L14.7038 83.4498Z" fill="#1D1D1B"/>
<path d="M13.3165 71.3902C13.3613 70.4536 13.6194 69.6095 14.0909 68.8578C14.572 68.1066 15.2145 67.5228 16.0183 67.1064C16.8313 66.7002 17.7303 66.5206 18.7151 66.5677C19.7 66.6149 20.5729 66.8792 21.3337 67.3608C22.1038 67.8525 22.6876 68.495 23.0851 69.2882C23.4923 70.0819 23.6735 70.9471 23.6287 71.8837C23.5834 72.8299 23.3202 73.6786 22.839 74.4298C22.3676 75.1815 21.7302 75.7607 20.9268 76.1674C20.1234 76.5742 19.2245 76.7537 18.23 76.7061C17.2354 76.6585 16.3578 76.3939 15.5969 75.9124C14.8361 75.4308 14.252 74.7931 13.8448 73.9994C13.4473 73.2062 13.2712 72.3364 13.3165 71.3902ZM14.4606 71.4449C14.4269 72.1498 14.5608 72.7901 14.8623 73.3658C15.1633 73.9512 15.6104 74.4178 16.2034 74.7655C16.796 75.1229 17.493 75.3208 18.2944 75.3592C19.1055 75.398 19.8182 75.2676 20.4326 74.9679C21.0561 74.6784 21.5454 74.2615 21.9005 73.7172C22.2556 73.1729 22.4503 72.5434 22.4845 71.8289C22.5187 71.1144 22.385 70.4693 22.0835 69.8935C21.782 69.3178 21.335 68.8512 20.7424 68.4938C20.159 68.1466 19.4618 67.9535 18.6507 67.9147C17.8493 67.8763 17.1368 68.0019 16.5132 68.2914C15.8892 68.5906 15.3997 69.0124 15.0446 69.5567C14.689 70.1107 14.4944 70.7401 14.4606 71.4449Z" fill="#1D1D1B"/>
<path d="M14.7537 60.6169C14.903 59.9668 15.1501 59.4086 15.4952 58.9424C15.8475 58.4877 16.2598 58.1608 16.732 57.9617C17.2136 57.7648 17.724 57.7233 18.2632 57.8372L17.9485 59.208C17.476 59.1491 17.0417 59.2478 16.6457 59.504C16.2569 59.7718 15.989 60.2261 15.8419 60.8667C15.7013 61.4791 15.7418 61.9942 15.9632 62.4121C16.1919 62.8415 16.5466 63.1113 17.0271 63.2216C17.4039 63.3081 17.7339 63.2748 18.017 63.1216C18.3002 62.9684 18.5386 62.7504 18.7325 62.4676C18.9264 62.1848 19.1545 61.7958 19.417 61.3007C19.7358 60.6895 20.0254 60.2055 20.2859 59.8488C20.5441 59.5014 20.8847 59.2275 21.3076 59.027C21.7378 58.8382 22.2591 58.814 22.8715 58.9546C23.4085 59.0779 23.8529 59.3238 24.2048 59.6921C24.5566 60.0605 24.7893 60.5157 24.903 61.0575C25.0144 61.6087 24.9966 62.2047 24.8496 62.8454C24.6376 63.7687 24.2337 64.4694 23.638 64.9476C23.0401 65.4352 22.3509 65.629 21.5704 65.5292L21.8949 64.116C22.2825 64.1554 22.6577 64.0332 23.0204 63.7495C23.3925 63.468 23.6445 63.0398 23.7764 62.4651C23.8997 61.9281 23.859 61.4575 23.6542 61.0535C23.4588 60.6516 23.1115 60.3933 22.6121 60.2787C22.2541 60.1965 21.9393 60.2284 21.6678 60.3743C21.3941 60.5297 21.1625 60.7393 20.973 61.0033C20.7907 61.2788 20.5625 61.6678 20.2885 62.1702C19.9602 62.7792 19.6612 63.261 19.3913 63.6156C19.1309 63.9724 18.7845 64.2499 18.3522 64.4482C17.9293 64.6487 17.4069 64.6775 16.7851 64.5348C16.3046 64.4245 15.8816 64.1935 15.516 63.8417C15.1504 63.49 14.893 63.0342 14.7439 62.4743C14.5947 61.9144 14.598 61.2953 14.7537 60.6169Z" fill="#1D1D1B"/>
<path d="M26.0575 57.8167L16.5433 54.408L16.9883 53.1658L26.5026 56.5746L26.0575 57.8167Z" fill="#1D1D1B"/>
<path d="M22.156 42.7025C22.5392 42.0645 23.0327 41.5715 23.6363 41.2237C24.235 40.8841 24.8891 40.7245 25.5986 40.7448C26.3114 40.7783 27.02 41.0066 27.7244 41.4297C28.4205 41.8478 28.9441 42.3653 29.2952 42.9822C29.6497 43.6124 29.811 44.2731 29.7791 44.9644C29.7556 45.6607 29.5496 46.332 29.1614 46.9783C28.7731 47.6247 28.2772 48.1218 27.6736 48.4696C27.0782 48.8224 26.4258 48.9887 25.7162 48.9684C25.0017 48.9565 24.2923 48.7389 23.5879 48.3158C22.8836 47.8927 22.3567 47.3619 22.0072 46.7235C21.661 46.0983 21.5022 45.4335 21.5308 44.7289C21.5593 44.0243 21.7677 43.3489 22.156 42.7025ZM23.1503 43.2999C22.9064 43.7059 22.7728 44.1443 22.7493 44.6151C22.7259 45.0859 22.84 45.5436 23.0918 45.988C23.3386 46.4407 23.7354 46.8313 24.2823 47.1598C24.8292 47.4884 25.358 47.6594 25.8686 47.6729C26.3792 47.6864 26.8302 47.5739 27.2216 47.3354C27.6212 47.1019 27.943 46.7821 28.1869 46.376C28.4358 45.9617 28.5695 45.5233 28.5879 45.0608C28.6097 44.6115 28.4922 44.1688 28.2355 43.7327C27.9788 43.2965 27.5769 42.9142 27.03 42.5857C26.4748 42.2522 25.9469 42.0704 25.4462 42.0403C24.9406 42.0185 24.4905 42.1202 24.0958 42.3454C23.7094 42.5757 23.3943 42.8938 23.1503 43.2999Z" fill="#1D1D1B"/>
<path d="M34.2933 33.7316C34.9092 34.2607 35.3411 34.8484 35.5889 35.4945C35.844 36.147 35.914 36.7997 35.799 37.4528C35.6777 38.1132 35.3871 38.7111 34.9273 39.2464C34.4738 39.7743 33.9664 40.1349 33.4053 40.3283C32.8441 40.5216 32.3093 40.5656 31.8009 40.4602L32.9008 41.4051L32.0315 42.417L26.0042 37.2391L26.8735 36.2272L27.9953 37.191C27.8134 36.6906 27.7753 36.1417 27.8808 35.5442C27.9873 34.9603 28.2642 34.408 28.7114 33.8874C29.1713 33.3521 29.719 32.9816 30.3546 32.7757C30.9902 32.5699 31.6534 32.547 32.3442 32.7072C33.035 32.8673 33.6847 33.2088 34.2933 33.7316ZM29.8981 38.8256C30.3527 39.2161 30.8274 39.4646 31.3222 39.5711C31.817 39.6775 32.2878 39.6487 32.7346 39.4846C33.1825 39.3341 33.5671 39.0718 33.8883 38.6979C34.2096 38.3239 34.4145 37.9074 34.5031 37.4482C34.5917 36.9891 34.546 36.523 34.3662 36.0499C34.1864 35.5768 33.8692 35.145 33.4146 34.7545C32.9526 34.3576 32.4706 34.1029 31.9685 33.9901C31.4737 33.8837 31.0024 33.9057 30.5545 34.0562C30.114 34.213 29.7331 34.4783 29.4118 34.8523C29.0906 35.2262 28.8856 35.6428 28.7971 36.1019C28.7095 36.5747 28.7557 37.0476 28.9355 37.5207C29.1226 38.0001 29.4435 38.435 29.8981 38.8256ZM36.526 38.4979C36.8559 38.8705 37.0379 39.2372 37.0721 39.5979C37.1 39.9659 36.988 40.2966 36.736 40.5899C36.6164 40.7292 36.4899 40.8245 36.3567 40.8757C36.2245 40.9406 36.0546 41.0049 35.8469 41.0686C35.6854 41.1083 35.548 41.1495 35.4347 41.1924C35.3288 41.2416 35.2348 41.3138 35.153 41.4091C35.0459 41.5338 34.9949 41.6748 34.9999 41.832C35.005 41.9893 35.0751 42.1451 35.2102 42.2994L34.7188 42.8713C34.39 42.5124 34.2116 42.1489 34.1837 41.7808C34.1558 41.4127 34.2679 41.0821 34.5198 40.7888C34.6395 40.6495 34.7686 40.5437 34.9071 40.4715C35.0466 40.4129 35.2207 40.3586 35.4294 40.3085C35.6035 40.2542 35.7404 40.2061 35.84 40.1643C35.9334 40.1298 36.021 40.0649 36.1029 39.9695C36.21 39.8449 36.261 39.7039 36.2559 39.5466C36.2446 39.3967 36.1677 39.2414 36.0253 39.0809L36.526 38.4979Z" fill="#1D1D1B"/>
<path d="M36.3795 28.0058C35.9339 28.377 35.6491 28.7904 35.5253 29.2458C35.4015 29.7013 35.4447 30.1685 35.655 30.6475L34.5632 31.557C34.2292 30.854 34.1266 30.1343 34.2554 29.3978C34.383 28.6751 34.7519 28.0154 35.3622 27.419L34.8982 26.8619C34.4662 27.2344 34.0397 27.4324 33.6189 27.4558C33.1981 27.4793 32.8392 27.3127 32.5422 26.9562C32.2514 26.6071 32.1457 26.2234 32.2249 25.8051C32.3042 25.3868 32.5444 25.0106 32.9455 24.6765L34.2266 23.6092L34.7742 24.2665L33.6936 25.1667C33.4485 25.3709 33.3012 25.5565 33.2516 25.7236C33.1947 25.8969 33.2404 26.0726 33.3889 26.2509C33.5312 26.4217 33.6927 26.4948 33.8734 26.47C34.0467 26.4515 34.2559 26.3401 34.501 26.136L35.058 25.6719L36.0511 26.864C36.6069 26.489 37.193 26.2713 37.8093 26.2108C38.4319 26.1576 39.0433 26.2648 39.6435 26.5322C40.2425 26.8133 40.7864 27.2472 41.2752 27.8339C41.8011 28.4652 42.1327 29.12 42.27 29.7983C42.4135 30.484 42.3707 31.1424 42.1416 31.7736C41.9051 32.411 41.4972 32.971 40.9179 33.4536C40.1677 34.0785 39.3997 34.4101 38.6137 34.4483C37.8204 34.4928 37.0765 34.2569 36.3823 33.7406L37.4741 32.8311C37.8874 33.1158 38.3361 33.2391 38.82 33.2008C39.2965 33.1687 39.7576 32.967 40.2032 32.5958C40.7825 32.1132 41.0834 31.5228 41.1058 30.8248C41.1344 30.1341 40.8455 29.4249 40.2391 28.697C39.6266 27.9618 38.975 27.5421 38.2844 27.438C37.5938 27.3339 36.9588 27.5232 36.3795 28.0058Z" fill="#1D1D1B"/>
<path d="M50.005 22.6843C50.4152 23.3851 50.6324 24.0812 50.6564 24.7729C50.6853 25.4728 50.5391 26.1128 50.2179 26.693C49.8883 27.278 49.419 27.7487 48.81 28.1052C48.2093 28.4569 47.6122 28.6328 47.0187 28.633C46.4252 28.6332 45.9052 28.5008 45.4587 28.2357L46.1913 29.487L45.04 30.161L41.0257 23.3036L42.1769 22.6296L42.9241 23.906C42.9149 23.3737 43.0575 22.8422 43.3517 22.3116C43.6424 21.7941 44.0839 21.362 44.6762 21.0153C45.2852 20.6588 45.9237 20.4866 46.5917 20.4988C47.2597 20.511 47.8943 20.7052 48.4954 21.0814C49.0964 21.4576 49.5997 21.9919 50.005 22.6843ZM44.1914 26.0708C44.4942 26.5881 44.8622 26.9775 45.2954 27.2391C45.7286 27.5008 46.1832 27.6267 46.6591 27.617C47.1316 27.6204 47.5806 27.4976 48.006 27.2485C48.4315 26.9995 48.7608 26.6723 48.9939 26.2669C49.2271 25.8616 49.3357 25.406 49.3196 24.9002C49.3035 24.3943 49.144 23.8828 48.8412 23.3656C48.5336 22.84 48.1607 22.4422 47.7226 22.1722C47.2894 21.9106 46.8366 21.778 46.3641 21.7746C45.8965 21.7795 45.45 21.9065 45.0245 22.1555C44.5991 22.4046 44.2698 22.7318 44.0366 23.1371C43.8 23.5557 43.6897 24.0179 43.7058 24.5237C43.7268 25.0379 43.8886 25.5536 44.1914 26.0708Z" fill="#1D1D1B"/>
<path d="M58.5249 19.4035C58.8149 20.1722 58.9136 20.8995 58.8211 21.5853C58.7319 22.2802 58.4758 22.8883 58.0525 23.4096C57.6202 23.9342 57.0513 24.3297 56.3459 24.5958C55.4324 24.9404 54.5981 25.002 53.843 24.7807C53.0789 24.5627 52.4534 24.0961 51.9667 23.3809L53.2962 22.8793C53.5934 23.2837 53.9769 23.5472 54.4467 23.6696C54.9074 23.7954 55.4091 23.7559 55.9518 23.5512C56.6573 23.285 57.1349 22.8259 57.3848 22.1737C57.6381 21.5306 57.5976 20.7658 57.2632 19.8795C56.9254 18.9841 56.4473 18.374 55.8289 18.0494C55.2105 17.7248 54.5486 17.6956 53.8431 17.9617C53.3004 18.1664 52.896 18.4637 52.6298 18.8534C52.3635 19.2431 52.2513 19.6987 52.293 20.2202L50.9635 20.7218C50.8759 19.887 51.0435 19.1264 51.4664 18.4399C51.8928 17.7625 52.5536 17.2549 53.449 16.9171C54.1545 16.6509 54.8428 16.5721 55.5139 16.6805C56.176 16.7923 56.77 17.0796 57.2959 17.5425C57.8218 18.0053 58.2314 18.6256 58.5249 19.4035Z" fill="#1D1D1B"/>
<path d="M62.6571 23.7289C62.9008 23.6675 63.1283 23.6999 63.3395 23.8261C63.5508 23.9523 63.6871 24.1373 63.7485 24.381C63.8099 24.6247 63.7775 24.8522 63.6513 25.0635C63.5251 25.2747 63.3401 25.411 63.0964 25.4724C62.862 25.5315 62.6439 25.4967 62.4421 25.3681C62.2308 25.2419 62.0945 25.057 62.0331 24.8132C61.9717 24.5695 62.0041 24.342 62.1303 24.1308C62.2472 23.9219 62.4227 23.788 62.6571 23.7289ZM61.7231 22.6334L59.7817 14.9282L61.0612 14.6058L63.0026 22.311L61.7231 22.6334Z" fill="#1D1D1B"/>
<path d="M64.6467 20.8777L66.2932 20.6135L65.2066 13.8416L66.5095 13.6326L67.596 20.4045L68.6125 20.2414L68.7848 21.3152L67.7683 21.4783L67.8579 22.0366C67.9987 22.9147 67.877 23.5902 67.4928 24.0631C67.1005 24.547 66.4032 24.8693 65.4011 25.0301L65.2265 23.942C65.7992 23.8502 66.1864 23.6705 66.3883 23.4032C66.5821 23.1469 66.6377 22.7611 66.555 22.2457L66.4654 21.6873L64.819 21.9515L64.6467 20.8777Z" fill="#1D1D1B"/>
<path d="M71.3418 22.4114C71.5923 22.3921 71.8111 22.4624 71.998 22.6225C72.1848 22.7826 72.288 22.9879 72.3073 23.2385C72.3267 23.4891 72.2563 23.7078 72.0962 23.8947C71.9361 24.0816 71.7308 24.1847 71.4802 24.2041C71.2393 24.2227 71.0302 24.1516 70.8529 23.9907C70.666 23.8307 70.5629 23.6253 70.5436 23.3747C70.5242 23.1242 70.5946 22.9054 70.7547 22.7185C70.9051 22.5324 71.1008 22.43 71.3418 22.4114ZM70.6063 21.1739L69.9944 13.2515L71.31 13.1499L71.9219 21.0723L70.6063 21.1739Z" fill="#1D1D1B"/>
<path d="M75.9246 19.9564L75.9696 15.2731C75.9734 14.8864 75.8938 14.6102 75.7311 14.4442C75.5683 14.288 75.2838 14.2079 74.8779 14.204L73.9064 14.1947L73.9171 13.0782L75.1061 13.0897C75.8407 13.0967 76.3901 13.2712 76.7541 13.613C77.1182 13.9549 77.2965 14.5125 77.2891 15.2858L77.2441 19.969L78.2735 19.9789L78.2631 21.0664L77.2336 21.0565L77.2144 23.0574L75.8949 23.0447L75.9142 21.0438L73.8408 21.0239L73.8512 19.9364L75.9246 19.9564Z" fill="#1D1D1B"/>
<path d="M81.9338 20.1828C81.6526 20.6085 81.2866 20.9224 80.8359 21.1247C80.3755 21.326 79.838 21.3921 79.2232 21.3231L79.3752 19.9686L79.7211 20.0074C81.1908 20.1724 82.0152 19.4576 82.1942 17.8629L82.6762 13.5689L83.9875 13.7161L83.1011 21.6125L81.7898 21.4653L81.9338 20.1828Z" fill="#1D1D1B"/>
<path d="M85.6384 18.3852C85.6994 18.1414 85.778 17.887 85.8741 17.6221L92.0354 19.1627C92.1785 18.3913 92.0695 17.7314 91.7084 17.1827C91.3357 16.6411 90.8117 16.2859 90.1365 16.1171C89.5832 15.9787 89.092 15.9904 88.663 16.1522C88.2222 16.321 87.8728 16.6023 87.6149 16.9962L86.2364 16.6515C86.6279 15.9622 87.1918 15.4605 87.928 15.1464C88.6618 14.8416 89.4883 14.8041 90.4073 15.0339C91.1388 15.2168 91.7542 15.5451 92.2536 16.0187C92.7436 16.49 93.0776 17.0667 93.2558 17.749C93.4316 18.4406 93.4198 19.185 93.2205 19.9821C93.0212 20.7793 92.6871 21.4381 92.2182 21.9585C91.7492 22.479 91.1889 22.8271 90.5371 23.0029C89.8736 23.1858 89.1667 23.1834 88.4165 22.9958C87.685 22.8129 87.0778 22.4917 86.5948 22.0321C86.1119 21.5726 85.7907 21.024 85.6313 20.3862C85.4602 19.7556 85.4626 19.0885 85.6384 18.3852ZM86.8939 18.9831C86.772 19.4708 86.7755 19.915 86.9044 20.316C87.031 20.7263 87.2596 21.0674 87.5901 21.3394C87.909 21.6184 88.2935 21.8142 88.7436 21.9267C89.3907 22.0885 89.9956 22.0206 90.5583 21.7228C91.1116 21.4228 91.5125 20.9152 91.761 20.2001L86.8939 18.9831Z" fill="#1D1D1B"/>
<path d="M101.664 23.5513C101.34 24.3064 100.907 24.899 100.365 25.3292C99.819 25.7682 99.2129 26.0288 98.5465 26.1111C97.8712 26.1896 97.1871 26.0802 96.4941 25.783C95.5968 25.3981 94.9528 24.8642 94.5621 24.1812C94.1625 23.4943 94.0352 22.7245 94.1802 21.8716L95.4861 22.4317C95.4199 22.9293 95.5137 23.385 95.7674 23.7988C96.0123 24.2089 96.4012 24.5283 96.9342 24.7569C97.6272 25.0541 98.2898 25.0543 98.922 24.7575C99.5504 24.4696 100.051 23.8903 100.425 23.0197C100.802 22.1402 100.88 21.3691 100.66 20.7065C100.439 20.0438 99.9822 19.5639 99.2893 19.2667C98.7562 19.038 98.2587 18.9719 97.7966 19.0682C97.3346 19.1645 96.9378 19.4151 96.6064 19.8199L95.3005 19.2597C95.816 18.5973 96.4642 18.1653 97.2448 17.9637C98.0217 17.771 98.8499 17.8633 99.7294 18.2406C100.422 18.5378 100.973 18.9581 101.382 19.5015C101.781 20.0411 102.01 20.66 102.068 21.3581C102.127 22.0562 101.992 22.7873 101.664 23.5513Z" fill="#1D1D1B"/>
<path d="M113.148 30.2636C113.525 30.5816 113.737 30.9822 113.785 31.4652C113.819 31.9494 113.677 32.3798 113.359 32.7565C113.035 33.1405 112.634 33.3527 112.157 33.3929C111.667 33.4343 111.233 33.2959 110.857 32.9779C110.473 32.6536 110.26 32.2462 110.218 31.7558C110.171 31.2728 110.309 30.8393 110.633 30.4552C110.951 30.0785 111.356 29.8695 111.846 29.8281C112.33 29.7941 112.764 29.9393 113.148 30.2636Z" fill="#1D1D1B"/>
<path d="M119.297 46.5767L118.313 47.2693L116.744 45.0399L125.318 39.0071L126.086 40.098L118.496 45.4383L119.297 46.5767Z" fill="#1D1D1B"/>
<path d="M130.339 49.7705C128.89 49.1548 127.724 48.6888 126.841 48.3725C125.95 48.0608 125.09 47.8585 124.261 47.7656C123.42 47.6687 122.705 47.7779 122.117 48.0932C121.563 48.3903 121.202 48.7596 121.033 49.2013C120.851 49.639 120.92 50.156 121.24 50.7523C121.551 51.3315 121.976 51.6847 122.516 51.8119C123.043 51.9352 123.615 51.8473 124.234 51.5484L124.837 52.6729C123.865 53.1506 122.973 53.2563 122.161 52.9899C121.348 52.7235 120.712 52.1601 120.25 51.2997C119.779 50.4224 119.65 49.5979 119.861 48.8263C120.068 48.0462 120.597 47.4277 121.449 46.9707C122.156 46.5914 122.96 46.4342 123.862 46.4991C124.75 46.56 125.594 46.7217 126.393 46.9842C127.183 47.2512 128.139 47.6216 129.26 48.0954L126.902 43.7L127.873 43.179L131.17 49.3249L130.339 49.7705Z" fill="#1D1D1B"/>
<path d="M124.816 58.038L123.694 58.4732L122.708 55.9318L132.482 52.1401L132.965 53.3838L124.313 56.7402L124.816 58.038Z" fill="#1D1D1B"/>
<path d="M130.689 65.4203C129.075 65.8203 127.753 65.8691 126.722 65.567C125.682 65.2671 124.999 64.4604 124.673 63.1468C124.35 61.8426 124.578 60.815 125.358 60.0639C126.129 59.3153 127.321 58.7409 128.935 58.341C130.577 57.934 131.918 57.8805 132.958 58.1803C133.999 58.4802 134.68 59.2822 135.004 60.5864C135.329 61.9 135.102 62.9323 134.322 63.6833C133.542 64.4343 132.331 65.0133 130.689 65.4203ZM129.249 59.6076C128.432 59.81 127.757 60.0372 127.222 60.2893C126.675 60.5344 126.27 60.8688 126.006 61.2926C125.74 61.7071 125.685 62.2286 125.841 62.8572C125.999 63.4953 126.294 63.9402 126.725 64.1919C127.153 64.4343 127.668 64.5408 128.268 64.5115C128.857 64.4752 129.559 64.3559 130.375 64.1536C131.22 63.9443 131.915 63.7171 132.462 63.4721C133.007 63.2176 133.412 62.8832 133.677 62.4687C133.941 62.0449 133.994 61.514 133.835 60.876C133.68 60.2473 133.387 59.8118 132.959 59.5695C132.528 59.3177 132.014 59.2112 131.416 59.2498C130.815 59.2791 130.093 59.3983 129.249 59.6076Z" fill="#1D1D1B"/>
<path d="M135.771 73.6707C134.685 72.5307 133.799 71.6404 133.114 71C132.42 70.3603 131.711 69.8335 130.987 69.4195C130.252 68.9966 129.553 68.8134 128.888 68.8697C128.262 68.9227 127.784 69.1185 127.454 69.4569C127.113 69.7865 126.971 70.2885 127.028 70.9627C127.084 71.6177 127.334 72.1107 127.779 72.4416C128.214 72.7637 128.775 72.9102 129.461 72.8812L129.569 74.1526C128.487 74.2055 127.626 73.9486 126.986 73.3819C126.346 72.8153 125.985 72.0455 125.903 71.0727C125.819 70.0806 126.027 69.2723 126.527 68.6478C127.026 68.0137 127.757 67.6559 128.72 67.5742C129.52 67.5065 130.32 67.6812 131.122 68.0983C131.913 68.5066 132.624 68.9897 133.253 69.5476C133.873 70.1062 134.603 70.8253 135.444 71.7048L135.023 66.7346L136.121 66.6415L136.71 73.5911L135.771 73.6707Z" fill="#1D1D1B"/>
<path d="M135.727 85.8101C135.57 86.7346 135.213 87.5419 134.655 88.2318C134.088 88.9201 133.38 89.4229 132.532 89.7403C131.677 90.0465 130.763 90.1173 129.791 89.9529C128.818 89.7884 127.983 89.4216 127.285 88.8525C126.58 88.2723 126.077 87.5647 125.777 86.7296C125.468 85.893 125.391 85.0124 125.548 84.0878C125.706 83.1538 126.068 82.3426 126.636 81.6543C127.194 80.9643 127.896 80.4655 128.742 80.1577C129.588 79.8498 130.502 79.779 131.484 79.9451C132.466 80.1112 133.305 80.4788 134.003 81.0478C134.701 81.6169 135.205 82.3197 135.514 83.1564C135.814 83.9915 135.885 84.876 135.727 85.8101ZM134.597 85.619C134.715 84.9232 134.659 84.2715 134.428 83.6639C134.199 83.0467 133.811 82.5301 133.264 82.1139C132.718 81.6883 132.05 81.4085 131.259 81.2747C130.458 81.1392 129.735 81.1835 129.089 81.4076C128.436 81.6206 127.9 81.976 127.482 82.474C127.065 82.972 126.796 83.5736 126.677 84.2789C126.558 84.9842 126.613 85.6407 126.844 86.2483C127.074 86.856 127.462 87.3726 128.008 87.7983C128.546 88.2128 129.215 88.4878 130.016 88.6232C130.807 88.7571 131.529 88.7176 132.183 88.5046C132.838 88.2821 133.374 87.9219 133.792 87.4239C134.211 86.9164 134.48 86.3148 134.597 85.619Z" fill="#1D1D1B"/>
<path d="M133.011 96.3316C132.784 96.9591 132.472 97.4835 132.073 97.905C131.669 98.3141 131.221 98.5892 130.728 98.7301C130.226 98.8678 129.714 98.8478 129.193 98.67L129.67 97.3468C130.132 97.462 130.575 97.4162 130.999 97.2093C131.417 96.9901 131.737 96.5713 131.96 95.953C132.173 95.3619 132.195 94.8456 132.025 94.4043C131.85 93.9505 131.53 93.64 131.066 93.4729C130.703 93.3417 130.371 93.3352 130.071 93.4533C129.772 93.5715 129.509 93.7592 129.283 94.0167C129.056 94.2742 128.783 94.633 128.463 95.0931C128.073 95.6615 127.728 96.1073 127.426 96.4302C127.128 96.744 126.757 96.9751 126.313 97.1233C125.863 97.2592 125.343 97.2206 124.752 97.0075C124.234 96.8207 123.822 96.5233 123.517 96.1153C123.212 95.7073 123.035 95.2276 122.988 94.676C122.943 94.1154 123.032 93.5259 123.255 92.9075C123.576 92.0163 124.061 91.3691 124.71 90.9659C125.362 90.5536 126.07 90.4438 126.833 90.6366L126.341 92.0007C125.961 91.9151 125.574 91.9913 125.18 92.2294C124.776 92.4643 124.475 92.8591 124.275 93.4138C124.088 93.9321 124.072 94.4042 124.227 94.8299C124.373 95.2523 124.686 95.5504 125.168 95.7242C125.514 95.8487 125.83 95.8549 126.117 95.7426C126.408 95.6212 126.663 95.4408 126.883 95.2016C127.097 94.9499 127.37 94.5911 127.702 94.1252C128.101 93.56 128.456 93.1176 128.766 92.7979C129.068 92.475 129.445 92.241 129.898 92.0961C130.342 91.9478 130.864 91.9819 131.464 92.1982C131.928 92.3654 132.32 92.6455 132.641 93.0386C132.962 93.4316 133.162 93.915 133.243 94.4888C133.324 95.0626 133.247 95.6768 133.011 96.3316Z" fill="#1D1D1B"/>
<path d="M121.432 97.8341L130.504 102.289L129.922 103.473L120.85 99.0186L121.432 97.8341Z" fill="#1D1D1B"/>
<path d="M123.54 113.245C123.085 113.834 122.537 114.266 121.897 114.541C121.263 114.808 120.595 114.89 119.893 114.787C119.189 114.671 118.511 114.361 117.861 113.859C117.219 113.362 116.759 112.787 116.483 112.133C116.204 111.466 116.121 110.791 116.234 110.108C116.338 109.419 116.621 108.777 117.082 108.18C117.544 107.584 118.094 107.148 118.734 106.873C119.367 106.592 120.034 106.503 120.737 106.606C121.445 106.702 122.124 107.001 122.774 107.503C123.424 108.006 123.885 108.594 124.158 109.269C124.429 109.931 124.509 110.609 124.398 111.306C124.287 112.002 124.001 112.649 123.54 113.245ZM122.623 112.536C122.912 112.161 123.096 111.741 123.175 111.276C123.253 110.812 123.193 110.344 122.995 109.873C122.803 109.395 122.454 108.96 121.949 108.57C121.445 108.18 120.939 107.948 120.434 107.875C119.928 107.802 119.467 107.861 119.051 108.052C118.627 108.238 118.27 108.518 117.98 108.892C117.684 109.275 117.5 109.694 117.428 110.152C117.354 110.595 117.419 111.049 117.623 111.512C117.827 111.975 118.181 112.402 118.686 112.792C119.198 113.188 119.702 113.43 120.195 113.519C120.695 113.599 121.154 113.551 121.572 113.373C121.983 113.19 122.333 112.911 122.623 112.536Z" fill="#1D1D1B"/>
<path d="M110.427 120.712C109.879 120.113 109.52 119.478 109.351 118.807C109.176 118.129 109.184 117.472 109.376 116.838C109.576 116.196 109.935 115.637 110.456 115.161C110.969 114.691 111.516 114.393 112.096 114.268C112.676 114.143 113.213 114.163 113.705 114.329L112.725 113.259L113.709 112.358L119.076 118.219L118.092 119.12L117.093 118.029C117.214 118.547 117.186 119.097 117.01 119.677C116.835 120.244 116.494 120.76 115.988 121.223C115.467 121.7 114.879 122.002 114.224 122.131C113.568 122.259 112.907 122.203 112.24 121.962C111.573 121.72 110.969 121.304 110.427 120.712ZM115.399 116.179C114.994 115.737 114.552 115.433 114.074 115.269C113.595 115.104 113.124 115.076 112.661 115.186C112.199 115.282 111.786 115.496 111.422 115.829C111.058 116.162 110.805 116.551 110.662 116.997C110.52 117.442 110.509 117.91 110.631 118.401C110.754 118.893 111.017 119.359 111.422 119.801C111.833 120.25 112.281 120.561 112.766 120.733C113.245 120.897 113.715 120.932 114.178 120.836C114.634 120.733 115.044 120.515 115.408 120.182C115.771 119.849 116.024 119.46 116.167 119.014C116.31 118.555 116.321 118.08 116.199 117.589C116.07 117.091 115.804 116.621 115.399 116.179ZM108.779 115.713C108.496 115.304 108.359 114.918 108.368 114.556C108.384 114.187 108.535 113.872 108.82 113.611C108.956 113.487 109.093 113.408 109.231 113.373C109.37 113.324 109.546 113.28 109.76 113.242C109.925 113.222 110.067 113.197 110.184 113.168C110.295 113.132 110.397 113.072 110.49 112.987C110.611 112.876 110.679 112.742 110.692 112.585C110.706 112.428 110.655 112.265 110.539 112.096L111.095 111.587C111.379 111.982 111.513 112.365 111.496 112.733C111.48 113.102 111.33 113.417 111.044 113.678C110.909 113.802 110.768 113.892 110.622 113.947C110.477 113.988 110.297 114.022 110.084 114.046C109.905 114.08 109.763 114.111 109.659 114.141C109.562 114.164 109.468 114.218 109.375 114.303C109.254 114.414 109.186 114.547 109.173 114.704C109.166 114.854 109.224 115.018 109.346 115.194L108.779 115.713Z" fill="#1D1D1B"/>
<path d="M107.678 126.162C108.163 125.845 108.494 125.468 108.671 125.03C108.847 124.592 108.858 124.123 108.705 123.623L109.896 122.847C110.145 123.584 110.163 124.311 109.95 125.027C109.738 125.73 109.295 126.342 108.619 126.864L109.015 127.471C109.488 127.151 109.935 127.004 110.355 127.03C110.776 127.056 111.113 127.263 111.366 127.652C111.614 128.033 111.675 128.426 111.547 128.832C111.42 129.238 111.137 129.584 110.7 129.869L109.303 130.78L108.836 130.063L110.014 129.295C110.281 129.121 110.449 128.954 110.518 128.793C110.595 128.628 110.57 128.448 110.443 128.254C110.322 128.067 110.17 127.976 109.987 127.98C109.813 127.978 109.592 128.064 109.325 128.238L108.718 128.634L107.871 127.334C107.275 127.642 106.667 127.79 106.048 127.778C105.424 127.758 104.829 127.581 104.264 127.245C103.702 126.896 103.212 126.402 102.795 125.762C102.347 125.074 102.094 124.385 102.036 123.695C101.974 122.997 102.093 122.348 102.394 121.748C102.703 121.143 103.174 120.634 103.805 120.222C104.623 119.689 105.425 119.449 106.21 119.503C107.003 119.551 107.714 119.872 108.344 120.466L107.153 121.242C106.776 120.911 106.345 120.736 105.859 120.718C105.382 120.694 104.901 120.841 104.415 121.158C103.784 121.569 103.416 122.121 103.312 122.811C103.203 123.494 103.408 124.232 103.925 125.025C104.448 125.827 105.046 126.32 105.719 126.504C106.393 126.688 107.046 126.574 107.678 126.162Z" fill="#1D1D1B"/>
<path d="M93.5219 129.804C93.1999 129.059 93.069 128.342 93.1292 127.652C93.1856 126.954 93.4084 126.336 93.7978 125.8C94.1961 125.259 94.7192 124.849 95.367 124.569C96.0059 124.293 96.6199 124.191 97.2091 124.263C97.7983 124.335 98.2983 124.529 98.7092 124.847L98.1342 123.516L99.3588 122.987L102.51 130.281L101.285 130.81L100.699 129.452C100.643 129.982 100.437 130.492 100.081 130.983C99.7291 131.461 99.2384 131.837 98.6083 132.109C97.9605 132.389 97.3058 132.482 96.6442 132.389C95.9827 132.295 95.3764 132.025 94.8255 131.579C94.2746 131.132 93.8401 130.541 93.5219 129.804ZM99.704 127.15C99.4663 126.599 99.1484 126.168 98.7502 125.856C98.352 125.543 97.9161 125.363 97.4425 125.315C96.974 125.254 96.5134 125.321 96.0608 125.517C95.6083 125.713 95.2416 125.997 94.9609 126.371C94.6802 126.745 94.5171 127.184 94.4716 127.688C94.4261 128.192 94.5222 128.719 94.7598 129.27C95.0014 129.829 95.3231 130.269 95.7251 130.59C96.1233 130.902 96.5567 131.089 97.0253 131.15C97.49 131.202 97.9486 131.13 98.4012 130.935C98.8538 130.739 99.2204 130.454 99.5011 130.08C99.7869 129.694 99.9525 129.248 99.998 128.744C100.04 128.231 99.9417 127.7 99.704 127.15Z" fill="#1D1D1B"/>
<path d="M84.6611 132.058C84.464 131.26 84.452 130.526 84.6251 129.856C84.7958 129.177 85.1221 128.603 85.604 128.136C86.0953 127.666 86.707 127.34 87.439 127.16C88.3868 126.925 89.2225 126.963 89.9461 127.272C90.6791 127.579 91.245 128.116 91.6437 128.884L90.2642 129.225C90.0169 128.788 89.6673 128.481 89.2153 128.304C88.7727 128.125 88.2698 128.104 87.7067 128.244C86.9747 128.424 86.4461 128.824 86.1208 129.442C85.7933 130.05 85.7431 130.815 85.9703 131.734C86.1998 132.663 86.6023 133.326 87.178 133.721C87.7536 134.117 88.4075 134.224 89.1395 134.043C89.7025 133.904 90.1393 133.657 90.4498 133.301C90.7602 132.946 90.9256 132.507 90.9458 131.984L92.3253 131.643C92.3136 132.482 92.0572 133.218 91.556 133.849C91.0526 134.472 90.3363 134.898 89.4072 135.127C88.6752 135.308 87.9824 135.305 87.3288 135.118C86.6846 134.928 86.1288 134.573 85.6613 134.051C85.1939 133.529 84.8605 132.865 84.6611 132.058Z" fill="#1D1D1B"/>
<path d="M81.1049 127.258C80.8555 127.289 80.6337 127.229 80.4395 127.078C80.2452 126.927 80.1325 126.727 80.1014 126.478C80.0702 126.228 80.1302 126.006 80.2813 125.812C80.4323 125.618 80.6326 125.505 80.882 125.474C81.1218 125.444 81.334 125.505 81.5186 125.658C81.7129 125.809 81.8256 126.009 81.8567 126.258C81.8879 126.508 81.8279 126.73 81.6768 126.924C81.5353 127.117 81.3447 127.228 81.1049 127.258ZM81.898 128.46L82.8832 136.344L81.5739 136.508L80.5887 128.623L81.898 128.46Z" fill="#1D1D1B"/>
<path d="M78.7334 129.857L77.0675 129.93L77.3667 136.782L76.0485 136.839L75.7493 129.987L74.7207 130.032L74.6733 128.946L75.7018 128.901L75.6772 128.336C75.6384 127.447 75.8371 126.791 76.2732 126.365C76.7187 125.93 77.4484 125.69 78.4624 125.645L78.5105 126.746C77.9311 126.772 77.5257 126.905 77.2944 127.148C77.0723 127.38 76.9726 127.757 76.9954 128.278L77.0201 128.843L78.686 128.771L78.7334 129.857Z" fill="#1D1D1B"/>
<path d="M72.2705 127.559C72.0193 127.549 71.8103 127.454 71.6433 127.273C71.4763 127.092 71.3978 126.876 71.4078 126.625C71.4178 126.374 71.5131 126.165 71.6939 125.998C71.8746 125.831 72.0906 125.753 72.3417 125.763C72.5832 125.772 72.7826 125.867 72.9399 126.048C73.1069 126.228 73.1854 126.444 73.1754 126.695C73.1654 126.947 73.0701 127.156 72.8893 127.323C72.7182 127.49 72.5119 127.569 72.2705 127.559ZM72.8568 128.874L72.5419 136.814L71.2234 136.761L71.5383 128.822L72.8568 128.874Z" fill="#1D1D1B"/>
<path d="M67.4556 129.455L66.8507 134.1C66.8008 134.483 66.8467 134.767 66.9884 134.951C67.1314 135.126 67.4042 135.239 67.8068 135.292L68.7701 135.417L68.6259 136.524L67.4469 136.371C66.7184 136.276 66.1938 136.037 65.8733 135.654C65.5527 135.271 65.4424 134.696 65.5423 133.929L66.1472 129.285L65.1263 129.152L65.2668 128.074L66.2876 128.206L66.5461 126.222L67.8545 126.393L67.5961 128.377L69.6522 128.645L69.5118 129.723L67.4556 129.455Z" fill="#1D1D1B"/>
<path d="M61.5108 128.514C61.8407 128.124 62.2413 127.856 62.7129 127.709C63.1939 127.564 63.7355 127.562 64.3377 127.703L64.0258 129.03L63.6871 128.951C62.2473 128.612 61.3438 129.224 60.9766 130.786L59.9879 134.993L58.7034 134.691L60.5217 126.955L61.8061 127.257L61.5108 128.514Z" fill="#1D1D1B"/>
<path d="M57.6194 129.858C57.5299 130.093 57.4216 130.336 57.2946 130.588L51.3605 128.325C51.1266 129.073 51.1563 129.742 51.4494 130.329C51.7551 130.912 52.233 131.327 52.8833 131.575C53.4162 131.778 53.9053 131.825 54.3506 131.715C54.8083 131.6 55.1886 131.362 55.4916 131.002L56.8193 131.508C56.3485 132.146 55.7289 132.577 54.9605 132.801C54.1956 133.017 53.3706 132.955 52.4855 132.618C51.781 132.349 51.209 131.95 50.7696 131.42C50.3392 130.894 50.0762 130.282 49.9805 129.583C49.8883 128.875 49.9886 128.138 50.2814 127.37C50.5742 126.602 50.9844 125.988 51.5119 125.527C52.0395 125.066 52.6373 124.787 53.3054 124.69C53.9859 124.588 54.6875 124.674 55.41 124.95C56.1145 125.218 56.6792 125.61 57.104 126.123C57.5288 126.637 57.7824 127.22 57.8647 127.872C57.9595 128.519 57.8778 129.181 57.6194 129.858ZM56.4441 129.115C56.6232 128.645 56.6726 128.204 56.5923 127.79C56.5155 127.368 56.3292 127.002 56.0333 126.693C55.75 126.378 55.3915 126.137 54.958 125.972C54.3348 125.734 53.7261 125.73 53.132 125.959C52.5468 126.191 52.0883 126.647 51.7564 127.327L56.4441 129.115Z" fill="#1D1D1B"/>
<path d="M42.3198 122.822C42.7312 122.11 43.2315 121.573 43.8209 121.211C44.4152 120.84 45.048 120.653 45.7195 120.65C46.3993 120.653 47.0656 120.843 47.7183 121.22C48.5635 121.709 49.1395 122.315 49.4463 123.04C49.7614 123.77 49.7964 124.549 49.5511 125.379L48.321 124.667C48.4458 124.181 48.4068 123.718 48.2041 123.276C48.0097 122.84 47.6614 122.477 47.1593 122.187C46.5066 121.809 45.8488 121.73 45.1858 121.95C44.5276 122.161 43.9614 122.677 43.4872 123.497C43.0081 124.325 42.8387 125.081 42.9791 125.766C43.1194 126.45 43.5159 126.981 44.1686 127.358C44.6707 127.648 45.1569 127.773 45.6271 127.732C46.0973 127.692 46.521 127.49 46.8982 127.128L48.1283 127.839C47.5377 128.435 46.8429 128.787 46.0438 128.895C45.2495 128.994 44.4381 128.804 43.6097 128.325C42.957 127.947 42.4601 127.464 42.119 126.876C41.7863 126.293 41.6325 125.651 41.6577 124.951C41.683 124.251 41.9036 123.541 42.3198 122.822Z" fill="#1D1D1B"/>
</svg>
