<svg width="68" height="115" viewBox="0 0 68 115" fill="none" xmlns="http://www.w3.org/2000/svg">
<path d="M1.86317 106.056C2.83129 105.899 4.18301 105.665 5.82699 105.336C5.99138 102.69 6.32018 100.075 7.48923 98.3062C8.84094 96.2708 11.1608 95.2219 13.4806 94.7678C12.8595 95.9108 12.6038 97.3824 12.3664 98.8541C12.1289 100.341 11.8549 101.86 11.179 103.16C10.9598 103.567 10.6858 103.942 10.3936 104.287C12.476 103.77 14.8323 103.113 17.3714 102.267C17.0426 99.7622 16.9695 97.2259 17.8828 95.3784C18.9423 93.2335 21.0612 91.9027 23.2349 91.1356C22.8147 92.3254 22.7965 93.7345 22.7965 95.1749C22.7965 96.6309 22.7965 98.1026 22.3215 99.4491C22.1571 99.9031 21.938 100.326 21.6822 100.733C22.559 100.388 23.4358 100.044 24.3308 99.6526C25.6278 99.089 26.9612 98.4627 28.2947 97.8052C27.5457 95.4411 27.0343 92.9987 27.6188 91.0886C27.7832 90.5563 28.0024 90.024 28.2947 89.5386C28.5869 89.0533 28.9522 88.6462 29.3358 88.2235C30.0848 87.3937 31.0712 86.7674 32.021 86.2038C31.8383 87.3937 32.0941 88.7401 32.3315 90.1022C32.5873 91.4643 32.8613 92.9047 32.6055 94.2355C32.5142 94.7678 32.3498 95.2688 32.1123 95.7542C34.1399 94.58 36.1675 93.2492 38.1402 91.7931C36.9529 89.6326 36.0031 87.3624 36.1675 85.4053C36.3136 84.3251 36.6424 83.2761 37.2635 82.3993C37.574 81.9609 37.8662 81.5069 38.2316 81.1155C38.5969 80.7084 39.017 80.3483 39.4189 80.0039C39.4554 81.1625 39.9669 82.3993 40.4966 83.6518C41.0446 84.92 41.5013 86.1882 41.5561 87.5346C41.5926 88.1295 41.483 88.6932 41.3186 89.2411C42.5242 88.2078 43.7115 87.1432 44.8258 86.0003C45.3737 85.4367 45.9035 84.8417 46.4332 84.2468C45.7208 83.417 45.0267 82.5559 44.4787 81.6948C43.7846 80.6145 43.3644 79.5499 43.1818 78.4539C43.0174 77.358 43.2914 76.3716 43.5836 75.354C43.748 74.853 43.9855 74.3833 44.2595 73.9292C44.5517 73.4752 44.8075 73.0212 45.118 72.5985C45.4468 73.7257 46.1592 74.8217 46.8899 75.9176C47.6022 77.0135 48.4425 78.2034 48.7165 79.4559C48.8626 80.0665 48.8809 80.7084 48.8078 81.3347C50.2326 79.4559 51.5478 77.4676 52.6803 75.3853C50.7441 73.8823 49.0453 72.2227 48.3694 70.3283C48.205 69.8116 48.1137 69.295 48.0772 68.7783C48.0772 68.2616 48.0406 67.7137 48.132 67.197C48.205 66.6647 48.3146 66.148 48.4973 65.647C48.68 65.146 48.8261 64.6294 49.0453 64.1597C49.575 65.24 50.4518 66.1794 51.3651 67.1187C52.2602 68.0581 53.2466 69.0601 53.8128 70.2343C54.0868 70.8606 54.2147 71.5495 54.2512 72.2384C55.2193 70.0621 56.0231 67.8233 56.6806 65.5374C54.5617 64.4102 52.6438 63.0794 51.6574 61.2946C51.4017 60.8092 51.2007 60.3082 51.0729 59.7759C50.9267 59.2593 50.9267 58.7269 50.8537 58.179C50.7623 57.083 50.8902 55.9714 51.1642 54.9381C51.767 55.9401 52.7899 56.7542 53.8311 57.5527C54.8723 58.3512 55.9683 59.181 56.6806 60.2456C57.0825 60.8405 57.3382 61.4981 57.5209 62.2026C58.0141 59.8698 58.3429 57.5214 58.5438 55.173C56.3701 54.3745 54.2329 53.3098 53.0822 51.6503C52.4976 50.7265 51.9862 49.7402 51.767 48.6912C51.6391 48.1589 51.5843 47.6266 51.5478 47.0943C51.493 46.562 51.4382 46.0453 51.4382 45.5286C52.2419 46.3897 53.3744 47.0317 54.4339 47.6736C55.5116 48.3155 56.6441 48.973 57.5392 49.9281C58.0689 50.4604 58.4525 51.0866 58.7082 51.7599C58.7082 51.1023 58.7447 50.4447 58.7447 49.7872C58.7265 48.065 58.5803 46.3741 58.3611 44.6832C57.3565 44.464 56.3336 44.2135 55.402 43.8378C54.3243 43.415 53.3927 42.8514 52.5524 42.1156C52.1506 41.7398 51.8035 41.3327 51.493 40.8787C51.1825 40.4403 50.9815 39.955 50.6893 39.4853C50.1595 38.5303 49.8307 37.4969 49.5933 36.4949C50.5066 37.1995 51.6574 37.6378 52.8264 38.0606C54.0137 38.4833 55.2559 38.9217 56.224 39.7201C56.845 40.1898 57.3565 40.8161 57.7949 41.4737C57.4844 40.0176 57.119 38.5772 56.6624 37.1838C56.3518 36.2601 56.0048 35.3677 55.6395 34.4753C53.5023 34.4126 51.2921 34.1308 49.6298 33.0036C48.6617 32.4399 47.8214 31.6571 47.1456 30.796C46.8168 30.3576 46.4149 29.9349 46.1044 29.4652C45.7756 29.0112 45.4833 28.5415 45.2459 28.0718C46.2871 28.6198 47.4926 28.839 48.7165 29.0425C49.9586 29.2304 51.1094 29.4965 52.2967 30.0602C52.9543 30.389 53.6302 30.8117 54.1781 31.344C53.2466 29.5748 52.1871 27.8996 51.0546 26.3183C50.7623 25.9112 50.4335 25.5198 50.123 25.1128C48.205 25.3946 46.0679 25.4729 44.223 24.6587C43.1818 24.236 42.1406 23.6098 41.2273 22.8583C40.7889 22.4669 40.2774 22.1068 39.8573 21.6997C39.4189 21.2926 38.9988 20.8699 38.6152 20.4472C39.766 20.8542 40.9715 20.9012 42.1588 20.9482C43.3644 20.9795 44.5152 21.0578 45.7756 21.4179C46.488 21.6214 47.1821 21.9658 47.858 22.3886C46.4149 20.7603 44.8988 19.2573 43.3827 17.8952C43.0356 17.5821 42.6886 17.3003 42.3415 17.0028C40.6245 17.5038 38.6517 17.8482 36.6607 17.2533C35.5464 16.9558 34.3956 16.4392 33.3179 15.7972C32.7882 15.4685 32.2219 15.1397 31.6922 14.7796C31.1625 14.4195 30.651 14.0437 30.1944 13.668C31.4182 13.9655 32.5873 13.9341 33.738 13.8715C34.9071 13.7932 36.0213 13.7619 37.3183 13.9655C38.0306 14.0907 38.7796 14.3412 39.492 14.6543C37.2269 12.8852 35.0532 11.3822 33.0622 10.0983C31.5095 10.7246 29.6829 11.1943 27.6005 10.7403C25.299 10.2862 22.7417 8.97108 20.5862 7.59333C21.8466 7.84383 22.9791 7.7812 24.0934 7.67161C25.2076 7.56201 26.3036 7.45242 27.5823 7.59333C28.3495 7.67161 29.1349 7.87514 29.9386 8.15695C29.6098 7.96908 29.281 7.76555 28.9888 7.57767C27.1256 6.46607 25.6826 5.54234 24.7327 4.86912C23.7829 4.1959 23.2897 3.80449 23.2897 3.80449C23.2897 3.80449 23.9107 4.00802 25.0432 4.4464C26.1575 4.90043 27.7467 5.62063 29.6646 6.71657C29.9569 6.88879 30.2857 7.07667 30.6145 7.26454C30.0482 6.71657 29.5185 6.15294 29.1349 5.58931C28.4773 4.63428 28.1485 3.66358 27.7467 2.75552C27.3631 1.84745 26.8881 0.908068 26.0114 0C28.5321 1.09594 31.1808 2.70855 32.6421 4.4464C33.9572 6.09032 34.0851 7.71858 33.8294 9.19027C35.8387 10.4428 38.0489 11.9145 40.3687 13.668C39.9486 13.1044 39.565 12.5407 39.291 11.9614C38.7978 10.9125 38.6334 9.84784 38.3777 8.86149C38.122 7.85948 37.7932 6.84182 37.026 5.8085C37.6288 6.15294 38.2498 6.51304 38.8526 6.90445C39.4554 7.31151 40.0582 7.70292 40.5697 8.15695C41.6291 9.08068 42.5607 10.0357 43.1452 11.0221C44.1864 12.8852 43.9672 14.5917 43.3827 16.0947C43.7298 16.3922 44.0951 16.6897 44.4421 17.0028C45.9948 18.3805 47.5292 19.9149 49.027 21.5588C48.7348 20.8856 48.4608 20.228 48.3329 19.5861C48.0772 18.4432 48.205 17.3159 48.1502 16.2513C48.1137 15.1867 48.0041 14.0594 47.4196 12.9008C47.9858 13.3235 48.5338 13.7776 49.0818 14.2629C49.6115 14.7483 50.1595 15.2336 50.5979 15.7972C51.4747 16.8932 52.2236 18.0204 52.5707 19.132C53.1552 21.2457 52.4611 22.9679 51.4017 24.4082C51.7122 24.8153 52.041 25.2067 52.3515 25.6294C53.5206 27.2577 54.6165 28.9955 55.5847 30.8273C55.4751 30.0915 55.3837 29.3713 55.4751 28.6668C55.5847 27.4769 56.0596 26.3496 56.2971 25.2693C56.5893 24.1734 56.7902 23.0148 56.5162 21.6997C56.9729 22.232 57.4296 22.7956 57.8497 23.3906C58.2516 23.9855 58.69 24.5648 58.9822 25.2067C59.5667 26.4905 59.9503 27.7744 60.0051 28.9486C59.9503 31.1874 58.6169 32.8 57.0825 34.0212C57.4661 34.9293 57.8314 35.853 58.1602 36.8081C58.6534 38.2484 59.0553 39.7358 59.4023 41.2388C59.4937 40.456 59.6581 39.6888 59.9869 38.9686C60.5349 37.7944 61.2472 36.8237 61.9048 35.7904C62.5442 34.7571 63.1652 33.6298 63.2931 32.2834C63.9141 33.5046 64.4073 34.898 64.7179 36.2444C64.8823 36.9177 64.864 37.6065 64.8457 38.2641C64.8092 38.9217 64.7179 39.5479 64.5535 40.1272C64.2429 41.2858 63.494 42.2095 62.5807 42.961C61.8135 43.6029 60.9184 44.0883 60.0051 44.4953C60.2609 46.2332 60.4435 47.9867 60.4801 49.7559C60.4983 50.4604 60.4801 51.1806 60.4801 51.8851C60.7906 51.1649 61.1742 50.476 61.6308 49.8654C62.4346 48.8321 63.494 48.0023 64.4987 47.1256C65.5398 46.2488 66.4349 45.2781 66.9098 43.9943C67.0742 44.6519 67.2204 45.3251 67.2934 46.014C67.33 46.7029 67.3117 47.3917 67.2569 48.0806C67.1108 49.4271 66.855 50.7579 66.1244 51.7755C64.8457 53.7013 62.6355 54.6876 60.3887 55.2669C60.2609 57.631 59.9869 60.0108 59.5667 62.3749C59.9686 61.7956 60.4435 61.2476 60.9915 60.7779C62.1058 59.8698 63.3296 59.2123 64.5352 58.5078C65.7408 57.7876 66.9281 56.9891 67.7683 55.8305C67.7683 57.13 67.6405 58.5234 67.2934 59.8385C67.1473 60.4961 66.8185 61.1224 66.508 61.7173C66.1792 62.3122 65.7956 62.8446 65.3572 63.3299C63.7863 65.0678 61.2107 65.694 58.7995 65.9289C58.215 68.199 57.4844 70.4379 56.6076 72.6141C57.1008 72.207 57.6305 71.8313 58.215 71.5182C59.5119 70.798 60.9367 70.3596 62.3615 69.8429C63.7863 69.3263 65.2293 68.7157 66.2522 67.6667C66.1426 68.3243 66.0513 69.0131 65.7956 69.6707C65.5581 70.3439 65.2841 71.0015 64.937 71.6278C64.59 72.254 64.2429 72.8646 63.7497 73.3969C63.2748 73.9292 62.7451 74.4146 62.1788 74.806C60.2061 76.2464 57.4844 76.4186 54.9636 76.2151V76.2464C53.9041 78.3287 52.6803 80.3327 51.3286 82.2271C51.84 81.9766 52.388 81.7731 52.9543 81.6009C54.4887 81.1781 56.0231 80.9903 57.6122 80.7554C59.1831 80.5206 60.8088 80.1761 62.124 79.315C61.8683 79.9569 61.5943 80.6302 61.1742 81.2408C60.7723 81.867 60.3339 82.4776 59.8407 83.0412C58.9091 84.1998 57.594 85.0766 56.2788 85.6715C54.9636 86.2664 53.4292 86.3604 51.9679 86.2508C50.8354 86.1568 49.7211 85.922 48.6434 85.6245C48.0954 86.2664 47.5474 86.924 46.9812 87.5346C45.9035 88.6932 44.7527 89.7891 43.5836 90.8381C44.1499 90.6972 44.7344 90.6033 45.3189 90.5406C46.9081 90.3841 48.6252 90.6189 50.2509 90.6659C51.8766 90.7442 53.6119 90.7285 55.1828 90.1649C54.7809 90.7598 54.2695 91.3234 53.7398 91.8871C53.1918 92.435 52.6438 92.983 52.0044 93.4214C50.7075 94.3138 49.3376 95.0497 47.8032 95.3002C45.1728 95.8012 42.5059 94.9244 40.1495 93.7189C38.1402 95.2688 36.0944 96.6936 34.0303 97.9461C34.5966 97.9148 35.1811 97.9304 35.7656 97.993C37.4279 98.1809 39.0353 98.6819 40.6793 99.089C42.3233 99.5117 44.0403 99.8405 45.7391 99.5743C44.6796 100.623 43.3279 101.516 41.9031 102.205C41.1907 102.549 40.4053 102.8 39.6564 102.987C38.8892 103.175 38.122 103.301 37.3365 103.285C34.6148 103.285 32.1306 101.923 29.9934 100.263C28.6052 100.999 27.2352 101.688 25.8835 102.299C24.9519 102.721 24.0386 103.128 23.1253 103.504C23.6915 103.567 24.2578 103.676 24.824 103.833C26.4315 104.287 27.9659 105.101 29.5185 105.79C31.0711 106.494 32.7334 107.152 34.4687 107.199C31.9662 108.874 28.5321 110.001 25.4634 109.469C22.7965 109.015 20.5497 107.246 18.7231 105.226C16.1292 106.166 13.6998 106.933 11.5444 107.528C12.0193 107.669 12.476 107.841 12.9326 108.06C14.4487 108.765 15.8552 109.829 17.28 110.8C18.7048 111.771 20.2392 112.679 21.9562 113.023C19.198 114.323 15.563 114.965 12.549 113.963C10.01 113.133 8.11028 111.066 6.6855 108.78C5.02326 109.156 3.67155 109.438 2.70343 109.626C1.49784 109.845 0.858523 109.97 0.858523 109.97L0 106.338C0 106.338 0.639324 106.244 1.82664 106.04L1.86317 106.056Z" fill="#E2E2E2"/>
</svg>
