<svg width="68" height="115" viewBox="0 0 68 115" xmlns="http://www.w3.org/2000/svg"><path d="M65.8692 106.056C64.9013 105.899 63.55 105.665 61.9064 105.336C61.7421 102.69 61.4134 100.075 60.2446 98.3062C58.8933 96.2708 56.5741 95.2219 54.2549 94.7678C54.8757 95.9108 55.1314 97.3824 55.3688 98.8541C55.6062 100.341 55.8801 101.86 56.5558 103.16C56.7749 103.567 57.0489 103.942 57.341 104.287C55.2592 103.77 52.9035 103.113 50.3652 102.267C50.6939 99.7622 50.7669 97.2259 49.8538 95.3784C48.7947 93.2335 46.6763 91.9027 44.5032 91.1356C44.9232 92.3254 44.9415 93.7345 44.9415 95.1749C44.9415 96.6309 44.9415 98.1026 45.4163 99.4491C45.5807 99.9031 45.7998 100.326 46.0555 100.733C45.1789 100.388 44.3023 100.044 43.4075 99.6526C42.111 99.089 40.7779 98.4627 39.4448 97.8052C40.1935 95.4411 40.7048 92.9987 40.1205 91.0886C39.9561 90.5563 39.737 90.024 39.4448 89.5386C39.1526 89.0533 38.7874 88.6462 38.4039 88.2235C37.6552 87.3937 36.669 86.7674 35.7195 86.2038C35.9021 87.3937 35.6464 88.7401 35.409 90.1022C35.1533 91.4643 34.8794 92.9047 35.1351 94.2355C35.2264 94.7678 35.3907 95.2688 35.6281 95.7542C33.6011 94.58 31.5741 93.2492 29.6019 91.7931C30.7889 89.6326 31.7384 87.3624 31.5741 85.4053C31.428 84.3251 31.0993 83.2761 30.4784 82.3993C30.168 81.9609 29.8758 81.5069 29.5105 81.1155C29.1453 80.7084 28.7253 80.3483 28.3236 80.0039C28.287 81.1625 27.7757 82.3993 27.2461 83.6518C26.6983 84.92 26.2417 86.1882 26.187 87.5346C26.1504 88.1295 26.2417 88.6932 26.4244 89.2411C25.2191 88.2078 24.0321 87.1432 22.9182 86.0003C22.3703 85.4367 21.8407 84.8417 21.3111 84.2468C22.0233 83.417 22.7173 82.5559 23.2651 81.6948C23.9591 80.6145 24.3791 79.5499 24.5617 78.4539C24.726 77.358 24.4521 76.3716 24.1599 75.354C23.9956 74.853 23.7582 74.3833 23.4843 73.9292C23.1921 73.4752 22.9364 73.0212 22.626 72.5985C22.2973 73.7257 21.5851 74.8217 20.8546 75.9176C20.1424 77.0135 19.3024 78.2034 19.0285 79.4559C18.8824 80.0665 18.8641 80.7084 18.9372 81.3347C17.5128 79.4559 16.1979 77.4676 15.0657 75.3853C17.0014 73.8823 18.6998 72.2227 19.3754 70.3283C19.5398 69.8116 19.6311 69.295 19.6676 68.7783C19.6676 68.2616 19.7041 67.7137 19.6128 67.197C19.5398 66.6647 19.4302 66.148 19.2476 65.647C19.065 65.146 18.9189 64.6294 18.6998 64.1597C18.1702 65.24 17.2936 66.1794 16.3805 67.1187C15.4857 68.0581 14.4996 69.0601 13.9335 70.2343C13.6596 70.8606 13.5318 71.5495 13.4952 72.2384C12.5274 70.0621 11.7239 67.8233 11.0665 65.5374C13.1848 64.4102 15.1022 63.0794 16.0884 61.2946C16.344 60.8092 16.5449 60.3082 16.6727 59.7759C16.8188 59.2593 16.8188 58.7269 16.8919 58.179C16.9832 57.083 16.8553 55.9714 16.5814 54.9381C15.9788 55.9401 14.9562 56.7542 13.9152 57.5527C12.8743 58.3512 11.7787 59.181 11.0665 60.2456C10.6647 60.8405 10.409 61.4981 10.2264 62.2026C9.73337 59.8698 9.40466 57.5214 9.20378 55.173C11.3769 54.3745 13.5318 53.3098 14.664 51.6503C15.2483 50.7265 15.7597 49.7402 15.9788 48.6912C16.0884 48.1589 16.1614 47.6266 16.1979 47.0943C16.2527 46.562 16.3075 46.0453 16.3075 45.5286C15.504 46.3897 14.3718 47.0317 13.3126 47.6736C12.2352 48.3155 11.103 48.973 10.2082 49.9281C9.67858 50.4604 9.29509 51.0866 9.03943 51.7599C9.03943 51.1023 9.00291 50.4447 9.00291 49.7872C9.02117 48.065 9.16726 46.3741 9.3864 44.6832C10.3908 44.464 11.4134 44.2135 12.3448 43.8378C13.4222 43.415 14.3535 42.8514 15.1936 42.1156C15.5953 41.7398 15.9423 41.3327 16.2527 40.8787C16.5632 40.4403 16.764 39.955 17.0562 39.4853C17.5858 38.5303 17.9145 37.4969 18.1519 36.4949C17.2388 37.1995 16.0884 37.6378 14.9196 38.0606C13.7326 38.4833 12.4909 38.9217 11.523 39.7201C10.9021 40.1898 10.3908 40.8161 9.95251 41.4737C10.263 40.0176 10.6282 38.5772 11.0847 37.1838C11.3952 36.2601 11.7421 35.3677 12.1074 34.4753C14.244 34.4126 16.4536 34.1308 18.1154 33.0036C19.0832 32.4399 19.9233 31.6571 20.5989 30.796C20.9277 30.3576 21.3294 29.9349 21.6399 29.4652C21.9686 29.0112 22.2607 28.5415 22.4981 28.0718C21.4572 28.6198 20.252 28.839 19.0467 29.0425C17.8049 29.2304 16.6545 29.4965 15.4675 30.0602C14.8101 30.389 14.1344 30.8117 13.5865 31.344C14.5179 29.5748 15.577 27.8996 16.7093 26.3183C17.0014 25.9112 17.3301 25.5198 17.6406 25.1128C19.558 25.3946 21.6946 25.4729 23.539 24.6587C24.58 24.236 25.6209 23.6098 26.5339 22.8583C26.9722 22.4669 27.4835 22.1068 27.9035 21.6997C28.3418 21.2926 28.7618 20.8699 29.1453 20.4472C27.9948 20.8542 26.7896 20.9012 25.6026 20.9482C24.3973 20.9795 23.2469 21.0578 21.9868 21.4179C21.2746 21.6214 20.5807 21.9658 19.905 22.3886C21.3477 20.7603 22.8634 19.2573 24.3791 17.8952C24.726 17.5821 25.073 17.3003 25.42 17.0028C27.1366 17.5038 29.1088 17.8482 31.0993 17.2533C32.2132 16.9558 33.3637 16.4392 34.4411 15.7972C34.9707 15.4685 35.5368 15.1397 36.0664 14.7796C36.596 14.4195 37.1073 14.0437 37.5639 13.668C36.3403 13.9655 35.1716 13.9341 34.0211 13.8715C32.8524 13.7932 31.7384 13.7619 30.4419 13.9655C29.7297 14.0907 28.981 14.3412 28.2688 14.6543C30.5332 12.8852 32.7063 11.3822 34.6968 10.0983C36.249 10.7246 38.0752 11.1943 40.157 10.7403C42.4579 10.2862 45.0145 8.97108 47.1694 7.59333C45.9094 7.84383 44.7771 7.7812 43.6632 7.67161C42.5492 7.56201 41.4536 7.45242 40.1753 7.59333C39.4083 7.67161 38.623 7.87514 37.8195 8.15695C38.1482 7.96908 38.4587 7.76555 38.7691 7.57767C40.6318 6.46607 42.0744 5.54234 43.024 4.86912C43.9736 4.1959 44.4667 3.80449 44.4667 3.80449C44.4667 3.80449 43.8458 4.00802 42.7136 4.4464C41.5996 4.90043 40.0109 5.62063 38.0934 6.71657C37.8013 6.88879 37.4726 7.07667 37.1438 7.26454C37.71 6.71657 38.2395 6.15294 38.623 5.58931C39.2804 4.63428 39.6091 3.66358 40.0109 2.75552C40.3944 1.84745 40.8692 0.908068 41.7457 0C39.2257 1.09594 36.5777 2.70855 35.1168 4.4464C33.802 6.09032 33.6742 7.71858 33.9298 9.19027C31.9211 10.4428 29.7114 11.9145 27.3922 13.668C27.8122 13.1044 28.1957 12.5407 28.4696 11.9614C28.9627 10.9125 29.1271 9.84784 29.3827 8.86149C29.6384 7.85948 29.9671 6.84182 30.7341 5.8085C30.1314 6.15294 29.5105 6.51304 28.9079 6.90445C28.3053 7.31151 27.7027 7.70292 27.1913 8.15695C26.1322 9.08068 25.2008 10.0357 24.6165 11.0221C23.5756 12.8852 23.7947 14.5917 24.3791 16.0947C24.0321 16.3922 23.6669 16.6897 23.3199 17.0028C21.7677 18.3805 20.2337 19.9149 18.7363 21.5588C19.0285 20.8856 19.3024 20.228 19.4302 19.5861C19.6859 18.4432 19.558 17.3159 19.6128 16.2513C19.6494 15.1867 19.7589 14.0594 20.3433 12.9008C19.7772 13.3235 19.2293 13.7776 18.6815 14.2629C18.1519 14.7483 17.6041 15.2336 17.1658 15.7972C16.2892 16.8932 15.5405 18.0204 15.1936 19.132C14.6092 21.2457 15.3031 22.9679 16.3623 24.4082C16.0518 24.8153 15.7231 25.2067 15.4127 25.6294C14.244 27.2577 13.1483 28.9955 12.1804 30.8273C12.29 30.0915 12.3813 29.3713 12.29 28.6668C12.1804 27.4769 11.7056 26.3496 11.4682 25.2693C11.176 24.1734 10.9751 23.0148 11.2491 21.6997C10.7925 22.232 10.336 22.7956 9.91598 23.3906C9.51423 23.9855 9.07596 24.5648 8.78377 25.2067C8.1994 26.4905 7.81591 27.7744 7.76113 28.9486C7.81591 31.1874 9.149 32.8 10.683 34.0212C10.2995 34.9293 9.93424 35.853 9.60554 36.8081C9.11248 38.2484 8.71073 39.7358 8.36376 41.2388C8.27245 40.456 8.1081 39.6888 7.77939 38.9686C7.23155 37.7944 6.51935 36.8237 5.86193 35.7904C5.20452 34.7571 4.60189 33.6298 4.47406 32.2834C3.85317 33.5046 3.36011 34.898 3.04967 36.2444C2.88531 36.9177 2.90358 37.6065 2.92184 38.2641C2.95836 38.9217 3.04967 39.5479 3.21402 40.1272C3.52447 41.2858 4.27319 42.2095 5.18626 42.961C5.95324 43.6029 6.84805 44.0883 7.76113 44.4953C7.50547 46.2332 7.32285 47.9867 7.28633 49.7559C7.26807 50.4604 7.28633 51.1806 7.28633 51.8851C6.97589 51.1649 6.59239 50.476 6.13586 49.8654C5.33235 48.8321 4.27319 48.0023 3.26881 47.1256C2.2279 46.2488 1.33309 45.2781 0.85829 43.9943C0.693936 44.6519 0.529583 45.3251 0.474798 46.014C0.438275 46.7029 0.456537 47.3917 0.511321 48.0806C0.657413 49.4271 0.913074 50.7579 1.64353 51.7755C2.92184 53.7013 5.13148 54.6876 7.37764 55.2669C7.50547 57.631 7.77939 60.0108 8.1994 62.3749C7.79765 61.7956 7.32285 61.2476 6.77501 60.7779C5.66106 59.8698 4.43754 59.2123 3.23228 58.5078C2.02702 57.7876 0.840028 56.9891 0 55.8305C0 57.13 0.12783 58.5234 0.474798 59.8385C0.62089 60.4961 0.949597 61.1224 1.26004 61.7173C1.58875 62.3122 1.97224 62.8446 2.41052 63.3299C3.981 65.0678 6.55587 65.694 8.96639 65.9289C9.55075 68.199 10.2812 70.4379 11.176 72.6141C10.683 72.207 10.1534 71.8313 9.56901 71.5182C8.27245 70.798 6.84805 70.3596 5.42366 69.8429C3.99926 69.3263 2.55661 68.7157 1.53396 67.6667C1.64353 68.3243 1.73484 69.0131 1.9905 69.6707C2.2279 70.3439 2.50182 71.0015 2.84879 71.6278C3.19576 72.254 3.54273 72.8646 4.03579 73.3969C4.51059 73.9292 5.04017 74.4146 5.60627 74.806C7.57851 76.2464 10.2995 76.4186 12.8196 76.2151V76.2464C13.8787 78.3287 15.1022 80.3327 16.4536 82.2271C15.9423 81.9766 15.3944 81.7731 14.8283 81.6009C13.2944 81.1781 11.7604 80.9903 10.1716 80.7554C8.60116 80.5206 6.97589 80.1761 5.66106 79.315C5.91672 79.9569 6.19064 80.6302 6.61066 81.2408C7.01241 81.867 7.45068 82.4776 7.94374 83.0412C8.87508 84.1998 10.1899 85.0766 11.5047 85.6715C12.8196 86.2664 14.3535 86.3604 15.8144 86.2508C16.9467 86.1568 18.0606 85.922 19.138 85.6245C19.6859 86.2664 20.2337 86.924 20.7998 87.5346C21.8773 88.6932 23.0277 89.7891 24.1965 90.8381C23.6304 90.6972 23.046 90.6033 22.4616 90.5406C20.8729 90.3841 19.1563 90.6189 17.531 90.6659C15.9057 90.7442 14.1709 90.7285 12.6004 90.1649C13.0022 90.7598 13.5135 91.3234 14.0431 91.8871C14.5909 92.435 15.1388 92.983 15.7779 93.4214C17.0745 94.3138 18.4441 95.0497 19.9781 95.3002C22.6077 95.8012 25.2739 94.9244 27.6296 93.7189C29.6384 95.2688 31.6837 96.6936 33.7472 97.9461C33.1811 97.9148 32.5967 97.9304 32.0124 97.993C30.3506 98.1809 28.7436 98.6819 27.1 99.089C25.4565 99.5117 23.7399 99.8405 22.0416 99.5743C23.1008 100.623 24.4521 101.516 25.8765 102.205C26.5887 102.549 27.374 102.8 28.1227 102.987C28.8897 103.175 29.6566 103.301 30.4419 103.285C33.1628 103.285 35.6464 101.923 37.783 100.263C39.1709 100.999 40.5405 101.688 41.8918 102.299C42.8232 102.721 43.7362 103.128 44.6493 103.504C44.0832 103.567 43.5171 103.676 42.951 103.833C41.344 104.287 39.81 105.101 38.2578 105.79C36.7056 106.494 35.0438 107.152 33.3089 107.199C35.8108 108.874 39.2439 110.001 42.3118 109.469C44.978 109.015 47.2242 107.246 49.0503 105.226C51.6435 106.166 54.0722 106.933 56.2271 107.528C55.7523 107.669 55.2958 107.841 54.8392 108.06C53.3235 108.765 51.9174 109.829 50.493 110.8C49.0686 111.771 47.5346 112.679 45.8181 113.023C48.5755 114.323 52.2096 114.965 55.2227 113.963C57.7611 113.133 59.6603 111.066 61.0846 108.78C62.7464 109.156 64.0978 109.438 65.0657 109.626C66.2709 109.845 66.9101 109.97 66.9101 109.97L67.7683 106.338C67.7683 106.338 67.1292 106.244 65.9422 106.04L65.8692 106.056Z" fill="#E2E2E2"/></svg>