<svg xmlns="http://www.w3.org/2000/svg" version="1.1" xmlns:xlink="http://www.w3.org/1999/xlink" width="128" height="128"><svg width="128" height="128" viewBox="0 0 128 128" fill="none" xmlns="http://www.w3.org/2000/svg">
<path d="M63.9947 0C48.4271 0 33.2005 5.79768 21.5605 16.1279C10.0562 26.3334 2.46122 40.5764 0.510223 55.8389C-1.48112 71.4277 2.40255 87.4493 11.3544 100.368C20.0496 112.917 33.1858 122.147 47.9723 125.972C53.2019 127.322 58.6001 128 63.9984 128H128V63.9945C127.993 28.7097 99.2851 0 63.9984 0L63.9947 0ZM89.4054 104.296C77.9781 111.128 64.0644 113.401 51.2509 109.782C40.3444 106.705 30.7471 99.6497 24.498 90.2069C18.0472 80.4671 15.4178 68.4867 17.1561 56.939C18.8577 45.659 24.7217 35.2225 33.4058 27.8369C42.2624 20.3047 53.752 16.0619 65.37 16.5423C88.7343 17.5104 101.845 31.8451 109.579 47.6723C91.8625 57.9071 53.0662 80.3534 53.0662 80.3534L44.4811 65.5127L85.0523 42.0506C80.1162 37.331 73.6727 34.3864 66.8699 33.7923C55.1052 32.7582 43.5679 38.8052 37.7296 49.0731C31.9059 59.3006 32.643 72.3445 39.5596 81.8679C46.4761 91.3804 58.5195 96.1036 70.0641 93.8557C81.7334 91.5784 91.3821 82.2456 94.0115 69.7042H111.365C111.365 74.8931 105.736 94.5377 89.4054 104.303V104.296Z" fill="#FFCE00"></path>
</svg><style>@media (prefers-color-scheme: light) { :root { filter: none; } }
@media (prefers-color-scheme: dark) { :root { filter: none; } }
</style></svg>