<svg width="1771" height="503" viewBox="0 0 1771 503" fill="none" xmlns="http://www.w3.org/2000/svg">
<g clip-path="url(#clip0_723_585)">
<path d="M994.27 102.33C988.39 92.53 975.07 89.62 965.5 88.26L963.19 87.93C974.19 103.75 983.76 119.98 991.73 136.21C992.62 134.26 993.33 132.64 993.82 131.29C998.31 119.11 998.44 109.39 994.27 102.33Z" fill="black"/>
<path d="M877.78 230C883.05 243.66 888.58 250.66 895.18 251.96C903.45 253.64 914.38 246.82 930.54 229.9C933.85 226.46 937.42 222.38 941.13 217.66C922.69 218.12 900.48 219.94 875.05 223.1C875.59 224.4 877.77 230 877.77 230" fill="black"/>
<path d="M840.88 154.52C850.61 169.53 859.55 186.49 868.18 206.39C870.55 206.07 873 205.69 875.44 205.32C899.83 201.6 926.86 200.02 953.68 200.8C968.5 179.64 981.45 156.86 988.16 143.58C978.4 124.81 966.07 106.13 950.66 86.6C927.85 84.6 902.14 84.95 876.19 87.64C872.48 96.3 866.66 109.3 858.5 123.46C851.74 135.24 845.88 145.42 840.88 154.52Z" fill="black"/>
<path d="M995.99 45.69C966.5 16.23 927.32 0 885.65 0C850.76 0 817.74 11.21 790.21 32.55C763.96 52.89 744.6 81.52 735.55 113.31C769.19 96.96 813.39 84.17 860.47 77.28C863.77 67.01 866.05 57.38 868.14 48.87C872.42 31.12 875.45 18.29 883.76 16.01C892.59 13.53 906.69 23.24 932.44 49.5L932.47 49.52L932.49 49.54L952.01 72.64C962.87 73.38 972.87 74.68 981.62 76.44L982.69 76.69C990.86 78.32 1007.96 81.79 1014.99 94.34C1019.02 101.58 1019.07 110.73 1015.08 121.59C1010.58 134.04 1005.84 145.29 1000.69 156.1C1005.14 167.03 1008.86 177.96 1011.7 188.71C1011.8 189.23 1011.97 190.07 1012.1 190.95C1012.47 193.55 1010.42 196.12 1010.34 196.23L1009.56 197.25L1009.15 196C1006 184.8 1002 173.69 997.4 162.91C990.44 176.68 982.8 189.47 973.98 201.86C996.67 203.58 1016.48 206.94 1031.49 211.63C1038.23 193.91 1041.71 175.19 1041.71 156.03C1041.71 114.38 1025.48 75.19 996.03 45.71" fill="black"/>
<path d="M825.76 202.38C829.45 207.86 839.76 209.45 859.02 207.48C852.33 190.46 845.18 175.29 837.23 161.26C826.87 180.79 820.99 195.26 825.76 202.38Z" fill="black"/>
<path d="M938.8 72.07C920.18 50.09 909.52 41.54 902.07 42.72C894.31 43.96 889.39 55.86 881.96 73.96L881.7 74.59C901.87 72.42 921.08 71.57 938.8 72.08" fill="black"/>
<path d="M962 217.8C952.91 229.12 942.48 240.76 929.11 254.56C909.71 274.46 898.97 283.54 890.32 281.35C884.33 279.8 879.9 272.79 875.92 258.5C872.53 246.53 868.97 235.03 865.23 224.32L851.02 226.33C819.11 230.95 801.38 228.43 795.14 218.57C786.19 204.55 802.82 176.99 825.55 142.52C820.42 134.96 815.12 127.9 809.31 120.99C808.7 120.34 808.21 119.77 807.86 119.25L807.06 118.28L808.32 118.17C810.41 118.01 812.38 118.68 813.83 120.08C818.96 125.54 824.02 131.4 828.81 137.57L831.03 134.13L841.31 118.56C846.99 109.95 851.69 100.63 855.83 90.31C797.69 99.09 755.82 117.12 738.14 140.01C731.3 148.36 728.69 156.65 730.43 172.02C734.58 207.83 748.91 239.67 775.72 266.79C804.9 296.27 844.18 312.1 885.65 312.1C931.23 312.1 974.42 292.21 1004.1 257.62C1011.24 248.05 1013.39 240.09 1010.41 233.88C1005.89 224.35 989.62 219 962 217.82" fill="black"/>
<path d="M489.75 403.81L514.15 341.21H527.17L551.62 403.81H538.27L531.74 387.09H505.77L499.25 403.81H489.75ZM508.99 378.8H528.49L518.73 353.81L508.99 378.8Z" fill="black"/>
<path d="M562.55 403.81V341.21H575.61V394.9H603.8V403.81H562.55Z" fill="black"/>
<path d="M615.1 403.81V341.22H636.36C642.64 341.22 647.42 342.4 650.7 344.77C653.97 347.15 655.62 350.61 655.62 355.16C655.62 362.71 650.61 368.06 640.6 371.19C652.31 374.02 658.17 379.76 658.17 388.36C658.17 393.34 656.47 397.16 653.04 399.81C649.61 402.46 644.7 403.8 638.31 403.8H615.09L615.1 403.81ZM630.49 367.32C634.11 367.32 636.99 366.42 639.12 364.61C641.26 362.79 642.32 360.33 642.32 357.2C642.32 354.31 641.46 352.34 639.74 351.31C638.03 350.28 634.79 349.75 630.02 349.75H627.42V367.32H630.49ZM627.43 394.91H630.21C635.64 394.91 639.38 394.33 641.44 393.16C643.5 391.99 644.52 389.87 644.52 386.8C644.52 383.73 643.15 381 640.38 378.9C637.63 376.8 634.15 375.74 629.95 375.74H627.43V394.91Z" fill="black"/>
<path d="M671.85 403.81V341.21H711.02V349.75H684.9V367.32H706.38V375.74H684.9V394.9H712.97V403.81H671.85Z" fill="black"/>
<path d="M726.04 403.81V341.21H749.53C762.27 341.21 768.63 346.39 768.63 356.74C768.63 360.62 767.56 364.13 765.42 367.3C763.28 370.47 760.32 372.9 756.56 374.6L776.93 403.82H761.07L745.59 378.2H738.37V403.82H726.03L726.04 403.81ZM738.38 369.64H741.39C750.85 369.64 755.59 365.81 755.59 358.16C755.59 352.55 751.36 349.74 742.92 349.74H738.39V369.64H738.38Z" fill="black"/>
<path d="M803.5 403.81V349.75H781.05V341.21H839.01V349.75H816.56V403.81H803.5Z" fill="black"/>
<path d="M880.67 403.81V341.21H919.84V349.75H893.72V367.32H915.2V375.74H893.72V394.9H921.79V403.81H880.67Z" fill="black"/>
<path d="M947.93 341.22H934.88V403.81H947.93V341.22Z" fill="black"/>
<path d="M965.76 403.81V341.21H977.28L1006.29 383.97V341.21H1016.77V403.81H1005.11L976.26 361.06V403.81H965.76Z" fill="black"/>
<path d="M1030.99 403.21V392.46C1037.74 395.31 1043.53 396.73 1048.33 396.73C1051.69 396.73 1054.34 395.97 1056.28 394.48C1058.21 392.99 1059.18 390.96 1059.18 388.38C1059.18 386.34 1058.58 384.63 1057.39 383.24C1056.18 381.83 1053.89 380.18 1050.48 378.28L1046.28 375.95C1040.65 372.81 1036.67 369.81 1034.35 366.92C1032.03 364.04 1030.87 360.68 1030.87 356.83C1030.87 351.68 1032.77 347.54 1036.58 344.42C1040.38 341.31 1045.41 339.75 1051.66 339.75C1056.66 339.75 1062.31 340.43 1068.59 341.82V351.83C1062.21 349.47 1057.15 348.3 1053.43 348.3C1050.56 348.3 1048.26 348.93 1046.53 350.22C1044.8 351.5 1043.93 353.19 1043.93 355.26C1043.93 356.97 1044.52 358.49 1045.69 359.78C1046.87 361.07 1049.14 362.66 1052.52 364.54L1057.02 367.03C1063.06 370.41 1067.24 373.53 1069.53 376.36C1071.83 379.19 1072.97 382.66 1072.97 386.73C1072.97 392.53 1070.79 397.08 1066.48 400.36C1062.14 403.65 1056.17 405.29 1048.56 405.29C1043.53 405.29 1037.67 404.6 1030.99 403.23" fill="black"/>
<path d="M1101.69 403.81V349.75H1079.23V341.21H1137.21V349.75H1114.74V403.81H1101.69Z" fill="black"/>
<path d="M1148.14 403.81V341.21H1187.31V349.75H1161.19V367.32H1182.68V375.74H1161.19V394.9H1189.26V403.81H1148.14Z" fill="black"/>
<path d="M1215.4 341.22H1202.34V403.81H1215.4V341.22Z" fill="black"/>
<path d="M1233.24 403.81V341.21H1244.75L1273.75 383.97V341.21H1284.25V403.81H1272.57L1243.73 361.06V403.81H1233.24Z" fill="black"/>
<path d="M19.16 502.88C14.16 502.88 7.78 501.8 0 499.61V489.15C8.38 493.04 15.27 494.98 20.67 494.98C24.82 494.98 28.17 493.89 30.7 491.7C33.24 489.53 34.5 486.67 34.5 483.11C34.5 480.19 33.67 477.71 32 475.66C30.34 473.61 27.28 471.33 22.83 468.82L17.7 465.85C11.36 462.23 6.9 458.82 4.3 455.62C1.7 452.42 0.4 448.69 0.4 444.43C0.4 438.7 2.47 433.97 6.64 430.27C10.79 426.56 16.09 424.71 22.53 424.71C28.26 424.71 34.31 425.67 40.69 427.58V437.23C32.84 434.14 26.99 432.6 23.13 432.6C19.47 432.6 16.45 433.58 14.07 435.52C11.69 437.47 10.51 439.91 10.51 442.86C10.51 445.34 11.38 447.54 13.12 449.46C14.86 451.38 18.05 453.64 22.67 456.3L28 459.3C34.44 462.96 38.93 466.41 41.48 469.67C44.03 472.92 45.3 476.82 45.3 481.39C45.3 487.86 42.92 493.06 38.14 496.98C33.35 500.9 27.03 502.86 19.15 502.86" fill="black"/>
<path d="M81.5 502.24C74.47 502.24 68.81 499.81 64.54 494.94C60.26 490.09 58.14 483.65 58.14 475.66C58.14 467.67 60.28 461.18 64.58 456.37C68.88 451.55 74.62 449.14 81.81 449.14C89 449.14 94.7 451.54 99.01 456.34C103.32 461.15 105.48 467.57 105.48 475.58C105.48 483.59 103.31 490.24 99.01 495.04C94.7 499.83 88.86 502.22 81.5 502.22M81.6 496.88C86.76 496.88 90.74 495.02 93.56 491.3C96.38 487.58 97.79 482.32 97.79 475.54C97.79 468.76 96.37 463.81 93.54 460.11C90.71 456.39 86.8 454.55 81.81 454.55C76.82 454.55 72.86 456.4 70.04 460.12C67.22 463.84 65.82 469.01 65.82 475.65C65.82 482.29 67.22 487.45 70.01 491.22C72.8 495 76.67 496.89 81.6 496.89" fill="black"/>
<path d="M140.01 502.25C132.15 502.25 126.07 499.93 121.79 495.33C117.5 490.72 115.36 484.2 115.36 475.73C115.36 467.26 117.54 460.77 121.89 456.13C126.25 451.48 132.4 449.15 140.32 449.15C144.86 449.15 150.16 449.88 156.24 451.35V458.06C149.33 455.69 144 454.52 140.26 454.52C134.78 454.52 130.54 456.37 127.55 460.08C124.55 463.79 123.04 469.03 123.04 475.78C123.04 482.53 124.65 487.31 127.85 491.03C131.06 494.74 135.44 496.61 141 496.61C145.78 496.61 150.89 495.15 156.35 492.22V498.31C151.37 500.92 145.91 502.22 140.01 502.22" fill="black"/>
<path d="M176.74 450.38H169.54V501.02H176.74V450.38Z" fill="black"/>
<path d="M192.64 450.38V501.02H222.3V495.66H199.84V477.35H217.42V471.99H199.84V455.74H220.83V450.38H192.64Z" fill="black"/>
<path d="M233.41 501.02V450.38H250.23C255.23 450.38 259.29 450.93 262.38 452.06C265.47 453.19 268.14 455.08 270.4 457.74C273.97 461.99 275.76 467.58 275.76 474.51C275.76 482.93 273.54 489.46 269.1 494.09C264.65 498.71 258.4 501.03 250.33 501.03H233.42L233.41 501.02ZM240.61 495.66H249.78C256.32 495.66 260.95 493.89 263.67 490.36C266.6 486.59 268.07 481.54 268.07 475.2C268.07 469.24 266.62 464.56 263.74 461.17C262 459.09 259.9 457.67 257.47 456.9C255.04 456.14 251.38 455.76 246.51 455.76H240.61V495.67V495.66Z" fill="black"/>
<path d="M302.82 450.38L282.7 501.02H289.36L294.97 486.99H316.41L321.94 501.02H329.68L309.88 450.38H302.82ZM305.7 459.82L314.29 481.63H297.06L305.7 459.82Z" fill="black"/>
<path d="M339.8 450.38H356.61C361.63 450.38 365.68 450.93 368.76 452.06C371.85 453.19 374.52 455.08 376.78 457.74C380.36 461.99 382.14 467.58 382.14 474.51C382.14 482.93 379.93 489.46 375.48 494.09C371.04 498.71 364.78 501.03 356.72 501.03H339.8V450.38ZM347.01 495.66H356.17C362.72 495.66 367.34 493.89 370.07 490.36C373 486.59 374.46 481.54 374.46 475.2C374.46 469.24 373.02 464.56 370.14 461.17C368.39 459.09 366.29 457.67 363.87 456.9C361.44 456.14 357.78 455.76 352.9 455.76H347.01V495.67V495.66Z" fill="black"/>
<path d="M395.07 450.38V501.02H424.73V495.66H402.27V477.35H419.84V471.99H402.27V455.74H423.27V450.38H395.07Z" fill="black"/>
<path d="M460.8 501.02V450.38H473.87C478.9 450.38 482.76 451.33 485.46 453.25C488.14 455.17 489.48 457.92 489.48 461.51C489.48 467.64 486.05 472 479.2 474.6C487.44 477.13 491.56 481.72 491.56 488.35C491.56 492.47 490.19 495.6 487.47 497.78C484.74 499.95 480.81 501.03 475.67 501.03H460.81L460.8 501.02ZM468.01 472.59H470.26C474.04 472.59 476.97 471.77 479.04 470.13C481.12 468.49 482.16 466.18 482.16 463.2C482.16 458.23 478.37 455.76 470.77 455.76H468.01V472.6V472.59ZM468.01 495.66H469.46C474.63 495.66 477.98 495.32 479.51 494.65C482.42 493.4 483.88 491.07 483.88 487.65C483.88 484.63 482.56 482.12 479.91 480.11C477.26 478.11 473.96 477.1 470 477.1H468.02V495.65L468.01 495.66Z" fill="black"/>
<path d="M503.89 450.38V501.02H533.55V495.66H511.09V477.35H528.67V471.99H511.09V455.74H532.09V450.38H503.89Z" fill="black"/>
<path d="M577.13 450.38V489.49L551.65 450.38H544.66V501.02H550.76V461.93L576.27 501.02H583.22V450.38H577.13Z" fill="black"/>
<path d="M599.21 450.38V501.02H628.86V495.66H606.41V477.35H623.98V471.99H606.41V455.74H627.4V450.38H599.21Z" fill="black"/>
<path d="M639.97 450.38V501.02H647.17V478.08H664.87V472.72H647.17V455.74H668.29V450.38H639.97Z" fill="black"/>
<path d="M687.41 450.38H680.21V501.02H687.41V450.38Z" fill="black"/>
<path d="M724.92 502.25C717.05 502.25 710.97 499.93 706.69 495.33C702.41 490.72 700.26 484.2 700.26 475.73C700.26 467.26 702.45 460.77 706.8 456.13C711.16 451.48 717.3 449.15 725.23 449.15C729.76 449.15 735.06 449.88 741.14 451.35V458.06C734.23 455.69 728.91 454.52 725.15 454.52C719.67 454.52 715.44 456.37 712.45 460.08C709.46 463.79 707.95 469.03 707.95 475.78C707.95 482.53 709.55 487.31 712.76 491.03C715.97 494.74 720.34 496.61 725.9 496.61C730.68 496.61 735.8 495.15 741.26 492.22V498.31C736.27 500.92 730.82 502.22 724.92 502.22" fill="black"/>
<path d="M754.58 450.38V501.02H784.23V495.66H761.77V477.35H779.35V471.99H761.77V455.74H782.77V450.38H754.58Z" fill="black"/>
<path d="M827.81 450.38V489.49L802.34 450.38H795.34V501.02H801.45V461.93L826.94 501.02H833.92V450.38H827.81Z" fill="black"/>
<path d="M843.92 450.38V455.74H861.85V501.02H869.05V455.74H886.99V450.38H843.92Z" fill="black"/>
<path d="M896.98 450.38V501.02H926.63V495.66H904.17V477.35H921.75V471.99H904.17V455.74H925.17V450.38H896.98Z" fill="black"/>
<path d="M969.79 450.38H962.59V501.02H969.79V450.38Z" fill="black"/>
<path d="M995.53 502.25C992.14 502.25 987.8 501.47 982.53 499.93V492.85C988.22 495.54 992.9 496.89 996.57 496.89C999.4 496.89 1001.65 496.15 1003.38 494.67C1005.09 493.19 1005.96 491.24 1005.96 488.83C1005.96 486.85 1005.39 485.17 1004.27 483.77C1003.14 482.38 1001.06 480.83 998.03 479.12L994.55 477.11C990.24 474.65 987.2 472.32 985.43 470.15C983.67 467.97 982.78 465.45 982.78 462.56C982.78 458.66 984.19 455.46 987.01 452.94C989.84 450.42 993.42 449.15 997.81 449.15C1001.69 449.15 1005.79 449.81 1010.12 451.1V457.7C1004.79 455.58 1000.81 454.53 998.2 454.53C995.59 454.53 993.66 455.19 992.05 456.51C990.43 457.83 989.62 459.49 989.62 461.48C989.62 463.17 990.22 464.66 991.41 465.96C992.59 467.25 994.76 468.81 997.91 470.61L1001.54 472.66C1005.92 475.14 1008.98 477.48 1010.7 479.69C1012.44 481.9 1013.31 484.56 1013.31 487.64C1013.31 492.05 1011.67 495.57 1008.44 498.24C1005.2 500.9 1000.9 502.24 995.56 502.24" fill="black"/>
<path d="M1026.22 501.02V450.38H1041.54C1046.41 450.38 1050.13 451.46 1052.72 453.59C1055.31 455.73 1056.61 458.84 1056.61 462.91C1056.61 469.65 1053.2 474.43 1046.39 477.26L1063.2 501.02H1054.41L1040.05 479.55H1033.42V501.02H1026.22ZM1033.42 474.18H1035.72C1044.68 474.18 1049.17 470.65 1049.17 463.56C1049.17 458.35 1045.41 455.74 1037.9 455.74H1033.42V474.18Z" fill="black"/>
<path d="M1087.45 450.38L1067.33 501.02H1073.99L1079.59 486.99H1101.03L1106.55 501.02H1114.3L1094.5 450.38H1087.44H1087.45ZM1090.34 459.82L1098.92 481.63H1081.69L1090.34 459.82Z" fill="black"/>
<path d="M1124.44 450.38V501.02H1154.09V495.66H1131.64V477.35H1149.21V471.99H1131.64V455.74H1152.63V450.38H1124.44Z" fill="black"/>
<path d="M1165.21 450.38V501.02H1195.1V495.66H1172.41V450.38H1165.21Z" fill="black"/>
<path d="M1212.44 450.38H1205.24V501.02H1212.44V450.38Z" fill="black"/>
<path d="M1222.36 450.38V455.74H1240.3V501.02H1247.49V455.74H1265.44V450.38H1222.36Z" fill="black"/>
<path d="M1289.57 450.38L1269.45 501.02H1276.11L1281.72 486.99H1303.16L1308.69 501.02H1316.44L1296.63 450.38H1289.57ZM1292.46 459.82L1301.04 481.63H1283.81L1292.46 459.82Z" fill="black"/>
<path d="M1351.52 450.38H1364.59C1369.63 450.38 1373.48 451.33 1376.18 453.25C1378.86 455.17 1380.2 457.92 1380.2 461.51C1380.2 467.64 1376.79 472 1369.93 474.6C1378.17 477.13 1382.29 481.72 1382.29 488.35C1382.29 492.47 1380.92 495.6 1378.2 497.78C1375.47 499.95 1371.54 501.03 1366.38 501.03H1351.52V450.38ZM1358.73 472.59H1360.99C1364.77 472.59 1367.7 471.77 1369.76 470.13C1371.85 468.49 1372.89 466.18 1372.89 463.2C1372.89 458.23 1369.09 455.76 1361.49 455.76H1358.74V472.6L1358.73 472.59ZM1358.73 495.66H1360.18C1365.35 495.66 1368.7 495.32 1370.23 494.65C1373.14 493.4 1374.6 491.07 1374.6 487.65C1374.6 484.63 1373.28 482.12 1370.64 480.11C1367.98 478.11 1364.68 477.1 1360.72 477.1H1358.74V495.65L1358.73 495.66Z" fill="black"/>
<path d="M1394.62 501.02V450.38H1409.95C1414.81 450.38 1418.53 451.46 1421.11 453.59C1423.71 455.73 1425 458.84 1425 462.91C1425 469.65 1421.59 474.43 1414.78 477.26L1431.59 501.02H1422.79L1408.44 479.55H1401.82V501.02H1394.61H1394.62ZM1401.83 474.18H1404.13C1413.07 474.18 1417.57 470.65 1417.57 463.56C1417.57 458.35 1413.8 455.74 1406.29 455.74H1401.83V474.18Z" fill="black"/>
<path d="M1455.85 450.38L1435.74 501.02H1442.4L1448 486.99H1469.44L1474.96 501.02H1482.71L1462.92 450.38H1455.85ZM1458.74 459.82L1467.33 481.63H1450.09L1458.74 459.82Z" fill="black"/>
<path d="M1502.67 502.25C1499.28 502.25 1494.94 501.47 1489.67 499.93V492.85C1495.36 495.54 1500.03 496.89 1503.69 496.89C1506.52 496.89 1508.79 496.15 1510.51 494.67C1512.23 493.19 1513.1 491.24 1513.1 488.83C1513.1 486.85 1512.53 485.17 1511.4 483.77C1510.27 482.38 1508.18 480.83 1505.15 479.12L1501.67 477.11C1497.36 474.65 1494.32 472.32 1492.55 470.15C1490.78 467.97 1489.91 465.45 1489.91 462.56C1489.91 458.66 1491.31 455.46 1494.13 452.94C1496.95 450.42 1500.55 449.15 1504.91 449.15C1508.8 449.15 1512.92 449.81 1517.24 451.1V457.7C1511.91 455.58 1507.94 454.53 1505.31 454.53C1502.84 454.53 1500.78 455.19 1499.16 456.51C1497.55 457.83 1496.75 459.49 1496.75 461.48C1496.75 463.17 1497.34 464.66 1498.52 465.96C1499.71 467.25 1501.87 468.81 1505.03 470.61L1508.66 472.66C1513.04 475.14 1516.1 477.48 1517.83 479.69C1519.56 481.9 1520.43 484.56 1520.43 487.64C1520.43 492.05 1518.8 495.57 1515.56 498.24C1512.32 500.9 1508.03 502.24 1502.68 502.24" fill="black"/>
<path d="M1540.44 450.38H1533.24V501.02H1540.44V450.38Z" fill="black"/>
<path d="M1556.35 450.38V501.02H1586.24V495.66H1563.54V450.38H1556.35Z" fill="black"/>
<path d="M1596.49 450.38V501.02H1626.15V495.66H1603.69V477.35H1621.27V471.99H1603.69V455.74H1624.68V450.38H1596.49Z" fill="black"/>
<path d="M1644.34 450.38H1637.14V501.02H1644.34V450.38Z" fill="black"/>
<path d="M1660.25 501.02V450.38H1675.57C1680.43 450.38 1684.16 451.46 1686.75 453.59C1689.34 455.73 1690.64 458.84 1690.64 462.91C1690.64 469.65 1687.22 474.43 1680.42 477.26L1697.22 501.02H1688.42L1674.07 479.55H1667.45V501.02H1660.25ZM1667.44 474.18H1669.75C1678.7 474.18 1683.19 470.65 1683.19 463.56C1683.19 458.35 1679.42 455.74 1671.92 455.74H1667.44V474.18Z" fill="black"/>
<path d="M1731.13 426.59L1701.6 501.02H1711.42L1719.61 480.4H1751.14L1759.25 501.02H1770.66L1741.59 426.59H1731.13ZM1735.4 440.48L1748.08 472.57H1722.69L1735.4 440.48Z" fill="black"/>
</g>
<defs>
<clipPath id="clip0_723_585">
<rect width="1770.65" height="502.88" fill="white"/>
</clipPath>
</defs>
</svg>
