<svg width="1309" height="292" viewBox="0 0 1309 292" fill="none" xmlns="http://www.w3.org/2000/svg">
<g clip-path="url(#clip0_723_648)">
<path fill-rule="evenodd" clip-rule="evenodd" d="M559.58 141.1C575.77 134.84 586.37 119.18 586.17 101.82C586.17 66.47 561.09 48.94 526.65 48.94H436.31V241.11H534.51C564.72 241.11 594.33 219.96 594.33 187.63C594.33 149.26 559.58 141.4 559.58 141.1ZM483.43 88.83H518.48C527.92 88.26 536.04 95.45 536.61 104.9C536.65 105.59 536.65 106.28 536.61 106.96C536.42 116.85 528.25 124.71 518.36 124.52C518.1 124.52 517.84 124.5 517.58 124.49H483.44V88.84L483.43 88.83ZM518.79 200.93H483.44V163.16H517.88C535.1 163.16 543.26 170.71 543.26 181.89C543.26 195.79 532.99 200.93 518.79 200.93Z" fill="black"/>
<path fill-rule="evenodd" clip-rule="evenodd" d="M698.26 44.11C642.67 44.11 610.03 88.53 610.03 144.72C610.03 200.91 642.66 245.33 698.26 245.33C753.86 245.33 786.49 201.22 786.49 144.72C786.49 88.52 754.16 44.11 698.26 44.11ZM698.26 199.42C671.07 199.42 657.47 174.95 657.47 144.73C657.47 114.51 671.07 90.34 698.26 90.34C725.45 90.34 739.35 114.81 739.35 144.73C739.35 175.25 725.45 199.42 698.26 199.42Z" fill="black"/>
<path fill-rule="evenodd" clip-rule="evenodd" d="M888.92 124.48L882.27 122.97C865.95 119.65 852.96 115.42 852.96 103.63C852.96 90.94 865.35 85.8 876.23 85.8C891.23 86.04 905.46 92.49 915.51 103.63L945.42 74.02C931.82 58.61 909.77 43.81 875.32 43.81C834.83 43.81 804.01 66.47 804.01 104.24C804.01 138.68 828.79 155.6 859 161.95L865.65 163.46C890.73 168.6 900.09 172.52 900.09 184.61C900.09 196.7 889.82 203.65 874.11 203.65C855.38 203.65 838.46 195.49 825.46 178.87L794.94 209.08C811.86 229.32 833.31 245.04 874.71 245.04C910.67 245.04 949.04 224.49 949.04 182.5C949.64 138.69 916.41 130.23 888.91 124.49L888.92 124.48Z" fill="black"/>
<path fill-rule="evenodd" clip-rule="evenodd" d="M1056.61 199.42C1035.46 199.42 1013.4 181.9 1013.4 143.52C1013.4 109.38 1033.95 90.34 1055.4 90.34C1072.32 90.34 1082.29 98.2 1090.15 111.79L1128.82 86.11C1109.48 56.8 1086.52 44.41 1054.79 44.41C996.78 44.41 965.35 89.43 965.35 143.82C965.35 200.93 1000.1 245.64 1054.18 245.64C1092.25 245.64 1110.38 232.35 1130.02 203.94L1091.04 177.65C1083.18 190.34 1074.72 199.4 1056.6 199.4L1056.61 199.42Z" fill="black"/>
<path fill-rule="evenodd" clip-rule="evenodd" d="M1257.84 48.95V119.65H1199.52V48.95H1149.06V241.11H1199.52V165.27H1257.84V241.11H1308.29V48.95H1257.84Z" fill="black"/>
<path d="M145.63 0C65.2 0 0 65.2 0 145.63C0 226.06 65.2 291.26 145.63 291.26C226.06 291.26 291.26 226.06 291.26 145.63C291.23 65.22 226.05 0.04 145.63 0ZM145.63 277.67C72.71 277.67 13.59 218.55 13.59 145.63C13.59 72.71 72.71 13.6 145.63 13.6C218.55 13.6 277.67 72.72 277.67 145.64C277.6 218.53 218.52 277.6 145.63 277.68V277.67Z" fill="black"/>
<path d="M205.76 54.69H195.79V104.54H95.78V54.69H85.51C35.28 87.84 21.43 155.42 54.58 205.65C62.69 217.95 73.22 228.47 85.51 236.58H95.78V186.73H195.79V236.58H205.76C255.99 203.43 269.84 135.85 236.69 85.62C228.58 73.32 218.05 62.8 205.76 54.69ZM81.88 216.94C42.5 181.94 38.94 121.65 73.94 82.27C76.43 79.47 79.08 76.82 81.88 74.33V216.94ZM195.79 172.83H95.78V118.14H195.79V172.83ZM209.39 74.34C248.69 109.65 251.92 170.13 216.61 209.43C214.33 211.96 211.92 214.37 209.39 216.65V74.34Z" fill="black"/>
</g>
<defs>
<clipPath id="clip0_723_648">
<rect width="1308.29" height="291.27" fill="white"/>
</clipPath>
</defs>
</svg>
