<svg width="1366" height="363" viewBox="0 0 1366 363" fill="none" xmlns="http://www.w3.org/2000/svg">
<g clip-path="url(#clip0_723_658)">
<path d="M462.61 178.85C458.07 174.39 452.87 170.83 447.03 168.19C441.19 165.55 434.62 164.23 427.33 164.23C422.27 164.23 417.67 164.9 413.54 166.24C409.41 167.58 405.87 169.46 402.93 171.88C399.99 174.3 397.7 177.16 396.06 180.48C394.43 183.79 393.6 187.38 393.6 191.25C393.6 195.12 394.44 198.94 396.11 202.25C397.79 205.56 400.15 208.43 403.2 210.85C406.25 213.27 409.96 215.15 414.31 216.49C418.67 217.83 423.52 218.5 428.89 218.5C435.73 218.5 441.91 217.27 447.42 214.81C452.93 212.35 458.06 208.56 462.83 203.42L479.46 212.35C476.12 216.15 472.63 219.42 469.03 222.18C465.41 224.93 461.58 227.21 457.53 228.99C453.47 230.78 449.16 232.08 444.58 232.9C440.01 233.72 435.07 234.13 429.79 234.13C422.57 234.13 415.88 233.29 409.74 231.62C403.6 229.94 397.62 227.32 391.8 223.75C386.34 220.4 382 215.86 378.77 210.12C375.55 204.39 373.94 198.1 373.94 191.24C373.94 185.43 375.12 180.04 377.48 175.05C379.84 170.07 383.34 165.67 387.98 161.87C393.13 157.63 399.21 154.36 406.21 152.04C413.21 149.74 420.76 148.58 428.89 148.58C439.83 148.58 449.52 150.53 457.97 154.44C466.42 158.35 473.93 164.36 480.47 172.48L462.6 178.84L462.61 178.85Z" fill="black"/>
<path d="M577.4 231.89L568.13 214.47H516.32L507.06 231.89H487.19L530.18 151.05H554.41L597.29 231.89H577.4ZM542.12 165.9L524.36 199.07H559.87L542.12 165.9Z" fill="black"/>
<path d="M669.53 166.96C663.72 165.5 657.65 164.78 651.32 164.78C642.84 164.78 636.45 165.55 632.17 167.07C627.88 168.6 625.75 170.67 625.75 173.27C625.75 176.02 628.1 177.96 632.78 179.08C634.72 179.53 636.8 179.86 639.03 180.09C641.27 180.32 643.66 180.48 646.23 180.59C648.8 180.7 651.52 180.82 654.39 180.92C657.25 181.03 660.25 181.24 663.38 181.54C669.7 182.14 675.22 182.99 679.91 184.11C684.6 185.22 688.5 186.73 691.63 188.63C694.76 190.53 697.08 192.9 698.61 195.72C700.13 198.55 700.9 201.94 700.9 205.88C700.9 214.66 696.9 221.51 688.89 226.43C680.89 231.34 669.14 233.8 653.66 233.8C643.54 233.8 634.19 232.61 625.63 230.22C617.07 227.85 608.92 223.97 601.18 218.61L611.9 205.43C618.9 209.67 625.86 212.82 632.78 214.86C639.7 216.9 646.96 217.93 654.56 217.93C662.75 217.93 669.04 216.88 673.44 214.8C677.83 212.72 680.03 209.99 680.03 206.64C680.03 204.85 679.4 203.48 678.13 202.51C676.86 201.54 675.04 200.8 672.66 200.27C670.28 199.75 667.37 199.41 663.95 199.26C660.52 199.11 656.65 198.93 652.33 198.7C644.44 198.4 637.55 197.76 631.68 196.75C625.8 195.74 620.91 194.29 617 192.39C613.09 190.49 610.16 188.11 608.23 185.24C606.29 182.38 605.33 178.93 605.33 174.91C605.33 166.94 609.16 160.63 616.83 155.98C624.5 151.33 635.7 149 650.44 149C670.17 149 686.02 152.95 698.01 160.84L686.84 173.79C681.1 170.66 675.34 168.37 669.53 166.92" fill="black"/>
<path d="M765.78 166.46V231.89H746.14V166.46H707.61V151.05H804.31V166.46H765.78Z" fill="black"/>
<path d="M886.72 231.89L877.45 214.47H825.63L816.36 231.89H796.48L839.47 151.05H863.7L906.58 231.89H886.7H886.72ZM851.43 165.9L833.68 199.07H869.19L851.43 165.9Z" fill="black"/>
<path d="M995.71 231.89L940.88 174.16H940.55V231.89H920.9V151.05H943.78L998.61 208.89H999.06V151.05H1018.72V231.89H995.71Z" fill="black"/>
<path d="M1124.91 231.89V197.16H1066.5V231.89H1046.86V151.16H1066.5V180.64H1124.91V151.16H1144.56V231.89H1124.91Z" fill="black"/>
<path d="M1249.98 231.89L1240.71 214.47H1188.9L1179.63 231.89H1159.75L1202.74 151.05H1226.97L1269.85 231.89H1249.98ZM1214.69 165.9L1196.94 199.07H1232.45L1214.7 165.9H1214.69Z" fill="black"/>
<path d="M1284.15 231.89V151.05H1303.8V216.48H1366V231.89H1284.15Z" fill="black"/>
<path d="M184.55 305.48C184.55 321.26 197.39 334.07 213.16 334.07H327.23V304.84H220.25C216.71 304.84 213.8 301.94 213.8 298.39V236.93H327.23V207.7H184.55V305.48Z" fill="black"/>
<path d="M12.8102 149.98C12.8102 165.76 25.6502 178.57 41.4202 178.57H155.49V149.34H48.5102C44.9702 149.34 42.0602 146.44 42.0602 142.89V81.43H155.49V52.2H12.8102V149.98Z" fill="black"/>
<path d="M12.8202 236.28V305.76C12.8202 306.27 12.9502 306.74 12.9802 307.25C21.8202 296.9 58.2802 257.64 109.38 248.06C87.1602 259.29 30.4302 293.51 -0.00976562 362.15H27.2702C30.6802 352.05 34.5002 342.74 38.6002 334.11C39.5302 334.22 40.4502 334.34 41.4202 334.34H126.92C142.67 334.34 155.51 321.53 155.51 305.77V207.7H41.4202C25.6702 207.7 12.8202 220.51 12.8202 236.28Z" fill="black"/>
<path d="M327.23 81.43V52.2H213.8V0H184.55V149.98C184.55 165.76 197.39 178.57 213.16 178.57H327.23V149.34H220.25C216.71 149.34 213.8 146.44 213.8 142.89V81.43H327.23Z" fill="black"/>
<path d="M382.94 292.63H376.69V288.38H382.94V280.72C382.94 274.31 386.44 271.48 393.03 271.48C393.61 271.48 395.61 271.56 395.95 271.56V275.97H393.7C389.36 275.97 388.03 277.64 388.03 280.88V288.37H396.03V292.62H388.03V331.42H382.94V292.62V292.63ZM405.61 271.89H410.78V279.22H405.61V271.89ZM405.61 288.38H410.78V331.43H405.61V288.38ZM428.34 324.93H428.17V331.42H423V271.88H428.17V295.78H428.34C431.34 290.78 436.09 287.45 442.93 287.45C453.27 287.45 460.69 295.69 460.69 310.02C460.69 323.26 453.94 332.59 442.6 332.59C436.01 332.59 431.68 330.01 428.34 324.93ZM455.44 310.11C455.44 299.37 450.85 291.79 442.27 291.79C432.77 291.79 427.76 299.87 427.76 310.11C427.76 320.35 432.76 328.26 442.35 328.26C451.19 328.26 455.44 320.18 455.44 310.11ZM470.18 288.38H475.35V296.37H475.52C478.19 291.37 482.69 288.04 488.69 288.04C489.36 288.04 489.77 288.12 490.11 288.21V293.29C487.03 292.79 483.61 293.46 480.94 295.37C477.61 297.87 475.35 301.86 475.35 306.94V331.42H470.18V288.37V288.38ZM494.67 320.44C494.67 310.2 502.67 308.12 512.43 306.95C520.93 305.95 524.02 305.45 524.02 301.12V300.29C524.02 294.46 520.35 291.63 513.68 291.63C506.01 291.63 502.01 294.79 501.59 301.21H496.5C497.08 292.88 502.59 287.47 513.68 287.47C523.1 287.47 528.94 291.38 528.94 300.79V324.19C528.94 326.77 529.94 327.85 531.77 327.94C532.35 327.94 532.94 327.77 533.69 327.61H533.94V331.36C533.19 331.69 532.11 332.03 530.44 332.03C526.69 332.03 524.35 330.11 524.1 325.95V325.03H523.85C521.43 328.44 517.01 332.44 508.76 332.44C500.51 332.44 494.67 328.44 494.67 320.45V320.44ZM524.1 315.86V308.12C521.35 309.62 517.1 310.37 512.93 310.95C505.68 311.95 500.09 313.03 500.09 320.44C500.09 326.44 504.59 328.27 509.68 328.27C519.1 328.27 524.1 321.78 524.1 315.86ZM538.56 318.02H543.81C544.56 325.26 549.56 328.18 556.48 328.18C563.4 328.18 567.4 324.85 567.4 319.85C567.4 314.85 564.73 313.52 555.89 311.52C547.14 309.52 540.13 307.44 540.13 299.11C540.13 291.95 546.3 287.45 555.14 287.45C565.4 287.45 570.15 292.61 571.15 300.19H565.98C565.4 294.61 561.56 291.7 555.14 291.7C548.72 291.7 545.3 294.86 545.3 298.86C545.3 303.77 549.39 304.94 557.64 306.85C566.31 308.68 572.56 310.85 572.56 319.76C572.56 327.42 566.39 332.58 556.39 332.58C544.88 332.58 539.05 326.34 538.55 318.01L538.56 318.02ZM598 288.38H603.17V294.96H603.34C606.26 290.63 610.93 287.47 617.76 287.47C625.76 287.47 631.52 292.22 631.52 300.88V331.44H626.35V301.38C626.35 294.89 622.6 291.89 616.51 291.89C609.17 291.89 603.17 297.05 603.17 304.13V331.44H598V288.38ZM640.46 320.44C640.46 310.2 648.46 308.12 658.22 306.95C666.72 305.95 669.81 305.45 669.81 301.12V300.29C669.81 294.46 666.14 291.63 659.47 291.63C651.8 291.63 647.8 294.79 647.38 301.21H642.29C642.87 292.88 648.38 287.47 659.47 287.47C668.89 287.47 674.73 291.38 674.73 300.79V324.19C674.73 326.77 675.73 327.85 677.56 327.94C678.14 327.94 678.73 327.77 679.48 327.61H679.73V331.36C678.98 331.69 677.9 332.03 676.23 332.03C672.48 332.03 670.14 330.11 669.89 325.95V325.03H669.64C667.22 328.44 662.8 332.44 654.55 332.44C646.3 332.44 640.46 328.44 640.46 320.45V320.44ZM669.89 315.86V308.12C667.14 309.62 662.89 310.37 658.72 310.95C651.47 311.95 645.88 313.03 645.88 320.44C645.88 326.44 650.38 328.27 655.47 328.27C664.89 328.27 669.89 321.78 669.89 315.86ZM689.86 324.02V292.63H683.36V288.38H689.86V275.14H695.03V288.38H703.03V292.63H695.03V323.19C695.03 326.27 696.45 327.27 699.2 327.27C700.37 327.27 701.87 326.94 702.62 326.6H702.87V331.01C701.45 331.51 699.95 331.76 698.12 331.76C693.2 331.76 689.87 329.51 689.87 324.02H689.86ZM712.77 318.77V288.38H717.94V318.44C717.94 324.93 721.86 328.1 728.11 328.1C735.45 328.1 740.62 322.6 740.62 315.28V288.38H745.71V331.43H740.62V325.1H740.45C737.45 329.26 733.78 332.43 726.94 332.43C718.6 332.43 712.77 327.43 712.77 318.77ZM757.41 288.38H762.58V296.37H762.75C765.42 291.37 769.92 288.04 775.92 288.04C776.59 288.04 777 288.12 777.34 288.21V293.29C774.26 292.79 770.84 293.46 768.17 295.37C764.84 297.87 762.58 301.86 762.58 306.94V331.42H757.41V288.37V288.38ZM781.9 320.44C781.9 310.2 789.9 308.12 799.66 306.95C808.16 305.95 811.25 305.45 811.25 301.12V300.29C811.25 294.46 807.58 291.63 800.91 291.63C793.24 291.63 789.24 294.79 788.82 301.21H783.73C784.31 292.88 789.82 287.47 800.91 287.47C810.33 287.47 816.17 291.38 816.17 300.79V324.19C816.17 326.77 817.17 327.85 819 327.94C819.58 327.94 820.17 327.77 820.92 327.61H821.17V331.36C820.42 331.69 819.34 332.03 817.67 332.03C813.92 332.03 811.58 330.11 811.33 325.95V325.03H811.08C808.66 328.44 804.24 332.44 795.99 332.44C787.74 332.44 781.9 328.44 781.9 320.45V320.44ZM811.33 315.86V308.12C808.58 309.62 804.33 310.37 800.16 310.95C792.91 311.95 787.32 313.03 787.32 320.44C787.32 326.44 791.82 328.27 796.91 328.27C806.33 328.27 811.33 321.78 811.33 315.86ZM829.12 271.89H834.29V279.22H829.12V271.89ZM829.12 288.38H834.29V331.43H829.12V288.38ZM843.75 318.02H849C849.75 325.26 854.75 328.18 861.67 328.18C868.59 328.18 872.59 324.85 872.59 319.85C872.59 314.85 869.92 313.52 861.08 311.52C852.33 309.52 845.32 307.44 845.32 299.11C845.32 291.95 851.49 287.45 860.33 287.45C870.59 287.45 875.34 292.61 876.34 300.19H871.17C870.59 294.61 866.75 291.7 860.33 291.7C853.91 291.7 850.49 294.86 850.49 298.86C850.49 303.77 854.58 304.94 862.83 306.85C871.5 308.68 877.75 310.85 877.75 319.76C877.75 327.42 871.58 332.58 861.58 332.58C850.07 332.58 844.24 326.34 843.74 318.01L843.75 318.02ZM900.95 310.03C900.95 295.71 909.12 287.46 919.38 287.46C925.97 287.46 930.8 290.54 933.55 295.54H933.72V271.89H938.89V331.43H933.72V325.02H933.55C930.38 329.93 926.05 332.6 919.54 332.6C907.95 332.6 900.95 323.27 900.95 310.03ZM934.13 310.11C934.13 299.54 929.04 291.79 919.71 291.79C911.21 291.79 906.29 299.37 906.29 310.11C906.29 320.19 910.63 328.26 919.71 328.26C928.79 328.26 934.13 320.85 934.13 310.11ZM948.12 320.44C948.12 310.2 956.12 308.12 965.88 306.95C974.38 305.95 977.47 305.45 977.47 301.12V300.29C977.47 294.46 973.8 291.63 967.13 291.63C959.46 291.63 955.46 294.79 955.04 301.21H949.95C950.53 292.88 956.04 287.47 967.13 287.47C976.55 287.47 982.39 291.38 982.39 300.79V324.19C982.39 326.77 983.39 327.85 985.22 327.94C985.8 327.94 986.39 327.77 987.14 327.61H987.39V331.36C986.64 331.69 985.56 332.03 983.89 332.03C980.14 332.03 977.8 330.11 977.55 325.95V325.03H977.3C974.88 328.44 970.46 332.44 962.21 332.44C953.96 332.44 948.12 328.44 948.12 320.45V320.44ZM977.55 315.86V308.12C974.8 309.62 970.55 310.37 966.38 310.95C959.13 311.95 953.54 313.03 953.54 320.44C953.54 326.44 958.04 328.27 963.13 328.27C972.55 328.27 977.55 321.78 977.55 315.86ZM1030.01 271.89H1036.35L1059.03 331.43H1053.03L1046.11 312.7H1020.18L1013.18 331.43H1007.51L1030.02 271.89H1030.01ZM1044.43 308.11L1036.26 285.88C1035.01 282.55 1033.26 277.22 1033.26 277.22H1033.09C1033.09 277.22 1031.51 282.3 1030.17 285.88L1021.83 308.11H1044.43ZM1066.87 288.38H1072.04V294.87H1072.21C1074.96 290.54 1079.13 287.46 1085.3 287.46C1090.55 287.46 1095.05 290.12 1096.81 295.29H1096.98C1099.81 290.38 1104.73 287.46 1110.82 287.46C1118.16 287.46 1123.83 292.21 1123.83 300.87V331.43H1118.74V301.29C1118.74 294.88 1114.9 291.88 1109.65 291.88C1103.31 291.88 1097.98 296.38 1097.98 304.04V331.43H1092.81V301.29C1092.81 294.88 1089.14 291.88 1084.14 291.88C1077.97 291.88 1072.05 297.04 1072.05 304.04V331.43H1066.88V288.38H1066.87ZM1132.47 320.44C1132.47 310.2 1140.47 308.12 1150.23 306.95C1158.73 305.95 1161.82 305.45 1161.82 301.12V300.29C1161.82 294.46 1158.15 291.63 1151.48 291.63C1143.81 291.63 1139.81 294.79 1139.39 301.21H1134.3C1134.88 292.88 1140.39 287.47 1151.48 287.47C1160.9 287.47 1166.74 291.38 1166.74 300.79V324.19C1166.74 326.77 1167.74 327.85 1169.57 327.94C1170.15 327.94 1170.74 327.77 1171.49 327.61H1171.74V331.36C1170.99 331.69 1169.91 332.03 1168.24 332.03C1164.49 332.03 1162.15 330.11 1161.9 325.95V325.03H1161.65C1159.23 328.44 1154.81 332.44 1146.56 332.44C1138.31 332.44 1132.47 328.44 1132.47 320.45V320.44ZM1161.9 315.86V308.12C1159.15 309.62 1154.9 310.37 1150.73 310.95C1143.48 311.95 1137.89 313.03 1137.89 320.44C1137.89 326.44 1142.39 328.27 1147.48 328.27C1156.9 328.27 1161.9 321.78 1161.9 315.86ZM1177.51 327.02L1202.69 293.13V292.88H1179.18V288.38H1209.61V292.04L1183.93 326.6V326.85H1210.36V331.43H1177.51V327.02ZM1215.17 309.95C1215.17 297.13 1222.76 287.38 1235.18 287.38C1247.6 287.38 1255.02 297.12 1255.02 309.95C1255.02 322.78 1247.6 332.52 1235.18 332.52C1222.76 332.52 1215.17 322.78 1215.17 309.95ZM1249.77 309.95C1249.77 299.87 1244.77 291.71 1235.18 291.71C1225.59 291.71 1220.51 299.87 1220.51 309.95C1220.51 320.03 1225.51 328.19 1235.18 328.19C1244.85 328.19 1249.77 320.03 1249.77 309.95ZM1232.09 272.98H1238.26L1245.18 281.81H1239.43L1235.09 275.9H1234.92L1230.5 281.81H1225L1232.09 272.98ZM1264.51 288.38H1269.68V294.96H1269.85C1272.77 290.63 1277.44 287.47 1284.27 287.47C1292.27 287.47 1298.03 292.22 1298.03 300.88V331.44H1292.86V301.38C1292.86 294.89 1289.11 291.89 1283.02 291.89C1275.68 291.89 1269.68 297.05 1269.68 304.13V331.44H1264.51V288.38ZM1309.55 271.89H1314.72V279.22H1309.55V271.89ZM1309.55 288.38H1314.72V331.43H1309.55V288.38ZM1324.53 320.44C1324.53 310.2 1332.53 308.12 1342.29 306.95C1350.79 305.95 1353.88 305.45 1353.88 301.12V300.29C1353.88 294.46 1350.21 291.63 1343.54 291.63C1335.87 291.63 1331.87 294.79 1331.45 301.21H1326.36C1326.94 292.88 1332.45 287.47 1343.54 287.47C1352.96 287.47 1358.8 291.38 1358.8 300.79V324.19C1358.8 326.77 1359.8 327.85 1361.63 327.94C1362.21 327.94 1362.8 327.77 1363.55 327.61H1363.8V331.36C1363.05 331.69 1361.97 332.03 1360.3 332.03C1356.55 332.03 1354.21 330.11 1353.96 325.95V325.03H1353.71C1351.29 328.44 1346.87 332.44 1338.62 332.44C1330.37 332.44 1324.53 328.44 1324.53 320.45V320.44ZM1353.96 315.86V308.12C1351.21 309.62 1346.96 310.37 1342.79 310.95C1335.54 311.95 1329.95 313.03 1329.95 320.44C1329.95 326.44 1334.45 328.27 1339.54 328.27C1348.96 328.27 1353.96 321.78 1353.96 315.86Z" fill="black"/>
</g>
<defs>
<clipPath id="clip0_723_658">
<rect width="1366" height="362.15" fill="white"/>
</clipPath>
</defs>
</svg>
