<svg width="1475" height="205" viewBox="0 0 1475 205" fill="none" xmlns="http://www.w3.org/2000/svg">
<g clip-path="url(#clip0_723_677)">
<path d="M418.63 0.03C394.84 0.03 378.96 10.9 368.4 34.69H364L368.4 4.72H336.08V204.2H370.16V149.85L368.1 126.34H372.5C381.9 145.73 396.88 154.54 419.22 154.54C460.06 154.54 484.14 119.88 484.14 76.39C484.14 32.9 461.23 0 418.63 0V0.03ZM410.41 125.47C386.03 125.47 371.04 104.91 371.04 76.41C371.04 47.91 386.03 29.41 410.41 29.41C434.79 29.41 448.89 47.91 448.89 76.41C448.89 104.91 434.79 125.47 410.41 125.47Z" fill="black"/>
<path d="M74.91 29.4C96.36 29.4 107.81 42.03 110.46 58.19H144.84C143.08 21.46 110.18 0.01 74.33 0.01C33.2 0.01 0 27.04 0 76.4C0 125.76 32.9 154.55 74.33 154.55C113.11 154.55 141.31 132.23 144.84 96.09H110.46C107.81 112.25 96.36 125.17 74.91 125.17C49.94 125.17 35.24 106.08 35.24 76.41C35.24 50.27 49.93 29.41 74.91 29.41V29.4Z" fill="black"/>
<path d="M238.54 0.03C192.41 0.03 163.04 30.87 163.04 76.41C163.04 121.95 192.41 154.56 238.54 154.56C284.67 154.56 314.04 120.77 314.04 76.41C314.04 32.05 284.67 0.03 238.54 0.03ZM238.54 125.17C212.99 125.17 198.29 106.67 198.29 76.41C198.29 46.15 212.98 29.41 238.54 29.41C264.1 29.41 278.79 46.15 278.79 76.41C278.79 106.67 264.1 125.17 238.54 125.17Z" fill="black"/>
<path d="M847.84 65.83L825.8 61.13C809.06 57.6 804.35 51.73 804.35 43.5C804.35 32.63 814.63 28.51 828.14 28.51C846.06 28.51 857.51 35.86 859.57 51.13H892.17C887.78 18.23 863.68 0.01 827.26 0.01C790.84 0.01 769.98 15.87 769.98 44.37C769.98 65.82 782.61 82.26 811.41 88.44L833.73 93.14C855.18 97.54 860.76 102.25 860.76 110.77C860.76 121.94 851.65 126.04 832.85 126.04C814.05 126.04 802.01 119.58 800.25 103.42H767.35C769.7 139.85 798.49 154.54 834.33 154.54C871.94 154.54 895.43 139.85 895.43 109.88C895.43 82.27 877.8 72.27 847.84 65.81H847.85L847.84 65.83Z" fill="black"/>
<path d="M1298.48 0.03C1257.94 0.03 1233.26 22.35 1230.62 58.2H1265C1267.06 40.57 1276.75 28.23 1299.66 28.23C1320.52 28.23 1329.03 37.04 1329.03 46.73C1329.03 60.24 1321.39 63.47 1291.42 67.59C1254.7 72.58 1228.85 81.69 1228.85 111.95C1228.85 144.85 1255.88 154.55 1278.5 154.55C1307 154.55 1324.92 142.8 1333.72 120.76H1338.12L1332.83 149.84H1362.5V58.18C1362.51 24.39 1344.87 0.01 1298.46 0.01H1298.49L1298.48 0.03ZM1328.46 84.34C1328.46 109.89 1313.77 126.64 1287.33 126.64C1274.1 126.64 1263.54 123.41 1263.54 109.9C1263.54 98.73 1272.06 91.98 1294.68 89.92C1313.48 88.16 1323.47 86.1 1328.47 79.05V84.34H1328.46Z" fill="black"/>
<path d="M1140.73 29.4C1162.18 29.4 1173.63 42.03 1176.28 58.19H1210.66C1208.9 21.46 1175.99 0.01 1140.15 0.01C1099.02 0.01 1065.82 27.04 1065.82 76.4C1065.82 125.76 1098.72 154.55 1140.15 154.55C1178.93 154.55 1207.13 132.23 1210.66 96.09H1176.28C1173.63 112.25 1162.18 125.17 1140.73 125.17C1115.76 125.17 1101.06 106.08 1101.06 76.41C1101.06 50.27 1115.75 29.41 1140.73 29.41V29.4Z" fill="black"/>
<path d="M691.55 61.13H687.15L697.14 4.72H667.47V149.84H701.55V81.98C701.55 50.25 720.35 37.04 749.14 37.04H755.02V3.24H749.14C718 3.24 698.02 23.8 691.56 61.11L691.55 61.13Z" fill="black"/>
<path d="M1009.71 84.34C1009.71 108.72 996.2 124.59 976.22 124.59C959.76 124.59 948.61 115.78 948.61 96.09V4.73H914.53V101.09C914.53 135.47 933.03 154.56 966.52 154.56C991.49 154.56 1007.36 142.81 1014.99 120.77H1019.39L1014.1 149.85H1043.77V4.73H1009.69V84.35L1009.71 84.34Z" fill="black"/>
<path d="M574.33 0.03C532.03 0.03 502.06 32.63 502.06 77.88C502.06 123.13 533.49 154.55 576.97 154.55C610.17 154.55 637.78 137.22 644.53 104.32H610.45C604.87 118.72 592.23 125.18 576.96 125.18C553.93 125.18 539.65 110.44 537.57 84.64H645.41V77C645.43 33.82 619.88 0.03 574.33 0.03ZM538.9 61.13C543.57 38.69 557.96 29.4 574.33 29.4C591.66 29.4 605.76 38.8 609.58 61.13H538.89H538.9Z" fill="black"/>
<path d="M1411.31 61.13H1406.91L1416.9 4.72H1387.23V149.84H1421.31V81.98C1421.31 50.25 1440.11 37.04 1468.9 37.04H1474.78V3.24H1468.9C1437.76 3.24 1417.78 23.8 1411.32 61.11L1411.31 61.13Z" fill="black"/>
</g>
<defs>
<clipPath id="clip0_723_677">
<rect width="1474.77" height="204.19" fill="white"/>
</clipPath>
</defs>
</svg>
