<svg width="1478" height="292" viewBox="0 0 1478 292" fill="none" xmlns="http://www.w3.org/2000/svg">
<g clip-path="url(#clip0_723_690)">
<path d="M0 137.59L137.59 0C63.45 4.06 4.07 63.45 0 137.59Z" fill="black"/>
<path d="M291.65 145.7C291.65 145.08 291.62 144.45 291.6 143.82H174.09L147.47 117.2H288.85C286.25 104.05 281.87 91.57 275.99 79.96H150.35L176.97 53.34H258.68C246.35 38.28 231.07 25.75 213.73 16.6C213.41 16.43 213.09 16.27 212.77 16.11C201 10 188.31 5.44 174.96 2.71L2.7 174.95C4.11 181.84 6.02 188.57 8.35 195.08C10.68 201.51 13.44 207.73 16.6 213.72C39.59 257.27 83.95 287.76 135.74 291.27L37.4 192.93L57.52 172.81L173.66 288.95C187.48 286.28 200.59 281.63 212.71 275.36L83.84 146.47L103.96 126.35L237.07 259.46C246.78 251.66 255.48 242.65 262.91 232.64L211.32 181.05H287.31C290.14 169.73 291.64 157.89 291.64 145.69" fill="black"/>
<path d="M368.2 97.31C368.2 86.35 370.13 76.43 374 67.54C377.87 58.64 383.15 51.05 389.86 44.73C396.56 38.43 404.45 33.56 413.54 30.14C422.62 26.73 432.32 25.02 442.63 25.02C452.94 25.02 463.19 26.73 472.6 30.14C482.01 33.56 489.87 38.16 496.19 43.96L467.96 77.99C465.38 74.64 462.16 72.09 458.3 70.35C454.43 68.61 450.1 67.75 445.34 67.75C441.48 67.75 437.87 68.42 434.52 69.78C431.17 71.14 428.24 73.1 425.72 75.67C423.21 78.25 421.24 81.37 419.82 85.05C418.41 88.72 417.7 92.81 417.7 97.32C417.7 101.83 418.44 105.86 419.92 109.4C421.41 112.95 423.4 116.01 425.91 118.58C428.42 121.16 431.36 123.13 434.71 124.49C438.06 125.84 441.6 126.51 445.33 126.51C450.62 126.51 455.16 125.42 458.97 123.23C462.77 121.04 465.77 118.46 467.96 115.49L496.19 149.32C490.01 155.51 482.39 160.44 473.37 164.1C464.35 167.77 454.1 169.62 442.64 169.62C432.34 169.62 422.63 167.88 413.55 164.4C404.46 160.93 396.56 155.99 389.87 149.62C383.17 143.24 377.88 135.63 374.01 126.81C370.15 117.98 368.21 108.15 368.21 97.32" fill="black"/>
<path d="M521.06 96.54C521.06 85.58 522.98 75.69 526.86 66.86C530.72 58.03 536.03 50.53 542.8 44.34C549.58 38.15 557.59 33.38 566.87 30.04C576.16 26.69 586.21 25.02 597.03 25.02C607.85 25.02 617.91 26.69 627.18 30.04C636.46 33.39 644.51 38.16 651.35 44.34C658.18 50.53 663.53 58.04 667.39 66.86C671.25 75.68 673.19 85.58 673.19 96.54C673.19 107.5 671.25 117.48 667.39 126.51C663.53 135.54 658.17 143.23 651.35 149.62C644.52 155.99 636.47 160.92 627.18 164.4C617.9 167.87 607.85 169.62 597.03 169.62C586.21 169.62 576.16 167.87 566.87 164.4C557.59 160.91 549.58 155.99 542.8 149.62C536.03 143.23 530.72 135.53 526.86 126.51C522.98 117.49 521.06 107.5 521.06 96.54ZM569.96 96.54C569.96 101.05 570.64 105.17 572 108.91C573.34 112.65 575.22 115.87 577.6 118.58C579.98 121.28 582.85 123.38 586.21 124.86C589.56 126.34 593.17 127.08 597.03 127.08C600.89 127.08 604.47 126.34 607.76 124.86C611.05 123.38 613.91 121.28 616.37 118.58C618.82 115.87 620.72 112.65 622.07 108.91C623.42 105.17 624.1 101.05 624.1 96.54C624.1 92.03 623.42 88.13 622.07 84.46C620.71 80.79 618.82 77.7 616.37 75.18C613.91 72.67 611.05 70.7 607.76 69.28C604.47 67.87 600.9 67.16 597.03 67.16C593.16 67.16 589.56 67.86 586.21 69.28C582.85 70.7 579.98 72.66 577.6 75.18C575.22 77.7 573.34 80.79 572 84.46C570.64 88.13 569.96 92.16 569.96 96.54Z" fill="black"/>
<path d="M767.13 28.88C773.83 28.88 780.49 29.55 787.13 30.91C793.77 32.27 799.7 34.65 804.92 38.07C810.14 41.48 814.35 46.06 817.58 51.79C820.79 57.53 822.41 64.71 822.41 73.35C822.41 81.99 820.34 89.1 816.24 95.48C812.13 101.86 806.21 106.79 798.51 110.26L833.24 165.75H780.39L754.17 116.84H752.82V165.75H708.15V28.88H767.13ZM752.44 86.68H761.45C762.99 86.68 764.68 86.56 766.53 86.29C768.39 86.04 770.12 85.49 771.71 84.64C773.3 83.81 774.66 82.65 775.75 81.17C776.83 79.69 777.37 77.72 777.37 75.27C777.37 72.82 776.92 70.89 776.03 69.47C775.13 68.06 773.98 66.98 772.57 66.27C771.16 65.57 769.64 65.11 767.97 64.91C766.32 64.73 764.77 64.63 763.37 64.63H752.43V86.67L752.44 86.68Z" fill="black"/>
<path d="M939.34 165.75H893.33V67.73H859.7V28.88H972.98V67.73H939.34V165.75Z" fill="black"/>
<path d="M1014.31 28.88H1108.45V67.16H1057.61V78.95H1105.36V114.71H1057.61V127.47H1111.74V165.75H1014.31V28.88Z" fill="black"/>
<path d="M1142.25 28.88H1194.25L1216.87 113.55H1217.64L1239.29 28.88H1291.29L1241.8 165.75H1190.77L1142.25 28.88Z" fill="black"/>
<path d="M1346.7 28.88H1395.6L1448.96 165.75H1398.9L1391.74 145.65H1348.25L1341.49 165.75H1292.77L1346.71 28.88H1346.7ZM1370.47 76.63L1359.25 110.46H1381.48L1370.47 76.63Z" fill="black"/>
<path d="M1443.6 33.11V49.38H1438.65V33.11H1432.86V28.87H1449.39V33.11H1443.6Z" fill="black"/>
<path d="M1472.54 49.37L1472.66 34.86H1472.57L1467.24 49.37H1463.77L1458.6 34.86H1458.51L1458.63 49.37H1453.96V28.87H1461.01L1465.67 42.02H1465.79L1470.24 28.87H1477.41V49.37H1472.54Z" fill="black"/>
<path d="M424.61 214.15V261.95H414.29V255.07C410.65 260.14 405.01 263.19 397.57 263.19C384.56 263.19 373.76 252.2 373.76 238.06C373.76 223.92 384.56 212.93 397.57 212.93C405.01 212.93 410.65 215.98 414.29 220.95V214.16H424.61V214.15ZM414.29 238.05C414.29 229.16 407.78 222.76 399.2 222.76C390.62 222.76 384.1 229.16 384.1 238.05C384.1 246.94 390.59 253.35 399.2 253.35C407.81 253.35 414.29 246.94 414.29 238.05Z" fill="black"/>
<path d="M488.65 214.16V259.75C488.65 275.14 476.61 282.32 464.08 282.32C453.57 282.32 445.45 278.39 441.44 270.75L450.32 265.59C452.41 269.69 455.97 272.95 464.28 272.95C473.16 272.95 478.51 268.07 478.51 259.76V253.93C474.88 259.09 469.24 262.24 461.87 262.24C448.4 262.24 437.8 251.25 437.8 237.58C437.8 223.91 448.4 212.93 461.87 212.93C469.24 212.93 474.88 216.09 478.51 221.25V214.17H488.64L488.65 214.16ZM478.52 237.57C478.52 228.97 472.03 222.57 463.32 222.57C454.61 222.57 448.12 228.97 448.12 237.57C448.12 246.17 454.61 252.57 463.32 252.57C472.03 252.57 478.52 246.17 478.52 237.57Z" fill="black"/>
<path d="M529.56 213.3V224.48C522.78 224 514.83 227.15 514.83 237.86V261.93H504.52V214.15H514.83V222.17C517.71 215.68 523.53 213.29 529.56 213.29" fill="black"/>
<path d="M539.6 200.39C539.6 196.77 542.57 193.79 546.2 193.79C549.83 193.79 552.79 196.76 552.79 200.39C552.79 204.02 549.83 206.98 546.2 206.98C542.57 206.98 539.6 203.93 539.6 200.39ZM541.04 214.15H551.36V261.94H541.04V214.15Z" fill="black"/>
<path d="M601.83 248.47C601.83 258.03 593.5 263.18 583.19 263.18C573.63 263.18 566.75 258.88 563.69 252.01L572.57 246.85C574.1 251.15 577.93 253.73 583.19 253.73C587.77 253.73 591.31 252.19 591.31 248.38C591.31 239.87 565.61 244.66 565.61 227.53C565.61 218.55 573.35 212.92 583.1 212.92C590.93 212.92 597.43 216.55 600.77 222.86L592.07 227.73C590.36 224.01 587 222.29 583.09 222.29C579.18 222.29 576.11 223.91 576.11 227.35C576.11 236.05 601.82 230.79 601.82 248.47" fill="black"/>
<path d="M610.82 238.05C610.82 223.81 621.61 212.92 636.04 212.92C645.41 212.92 653.54 217.79 657.36 225.25L648.48 230.41C646.37 225.91 641.7 223.05 635.95 223.05C627.54 223.05 621.14 229.46 621.14 238.05C621.14 246.64 627.53 253.05 635.95 253.05C641.7 253.05 646.37 250.09 648.66 245.7L657.55 250.76C653.54 258.31 645.41 263.18 636.04 263.18C621.61 263.18 610.82 252.19 610.82 238.05Z" fill="black"/>
<path d="M667.4 200.39C667.4 196.77 670.36 193.79 673.99 193.79C677.62 193.79 680.59 196.76 680.59 200.39C680.59 204.02 677.63 206.98 673.99 206.98C670.35 206.98 667.4 203.93 667.4 200.39ZM668.83 214.15H679.15V261.94H668.83V214.15Z" fill="black"/>
<path d="M718.35 253.73C724.07 253.73 728.38 251.15 730.67 247.81L739.18 252.77C734.8 259.26 727.62 263.18 718.25 263.18C702.47 263.18 692.26 252.39 692.26 238.05C692.26 223.71 702.48 212.92 717.49 212.92C731.73 212.92 741.48 224.38 741.48 238.15C741.48 239.58 741.28 241.12 741.1 242.45H703.05C704.67 249.9 710.7 253.73 718.35 253.73ZM731.06 234.04C729.62 225.82 723.6 222.29 717.39 222.29C709.65 222.29 704.4 226.87 702.96 234.04H731.06Z" fill="black"/>
<path d="M797.87 232.6V261.95H787.54V233.66C787.54 226.4 783.34 222.57 776.84 222.57C770.34 222.57 764.7 226.58 764.7 236.34V261.96H754.38V214.17H764.7V220.28C767.85 215.31 773.01 212.93 779.52 212.93C790.22 212.93 797.87 220.2 797.87 232.62" fill="black"/>
<path d="M810.11 238.05C810.11 223.81 820.91 212.92 835.34 212.92C844.7 212.92 852.83 217.79 856.65 225.25L847.77 230.41C845.66 225.91 840.99 223.05 835.24 223.05C826.83 223.05 820.43 229.46 820.43 238.05C820.43 246.64 826.83 253.05 835.24 253.05C840.99 253.05 845.66 250.09 847.97 245.7L856.85 250.76C852.84 258.31 844.7 263.18 835.34 263.18C820.9 263.18 810.11 252.19 810.11 238.05Z" fill="black"/>
<path d="M890.78 253.73C896.51 253.73 900.82 251.15 903.1 247.81L911.61 252.77C907.21 259.26 900.06 263.18 890.69 263.18C874.91 263.18 864.69 252.39 864.69 238.05C864.69 223.71 874.91 212.92 889.92 212.92C904.16 212.92 913.91 224.38 913.91 238.15C913.91 239.58 913.71 241.12 913.53 242.45H875.48C877.1 249.9 883.13 253.73 890.78 253.73ZM903.49 234.04C902.05 225.82 896.03 222.29 889.81 222.29C882.07 222.29 876.82 226.87 875.38 234.04H903.49Z" fill="black"/>
</g>
<defs>
<clipPath id="clip0_723_690">
<rect width="1477.41" height="291.27" fill="white"/>
</clipPath>
</defs>
</svg>
