<svg width="996" height="536" viewBox="0 0 996 536" fill="none" xmlns="http://www.w3.org/2000/svg">
<g clip-path="url(#clip0_723_752)">
<path d="M292.44 410.04C285.25 386.51 262.56 369.77 236.31 371.41C209.02 373.12 186.86 395.13 184.97 422.38C182.75 454.51 208.18 481.25 239.86 481.25C261.99 481.25 281.07 468.17 289.8 449.34H272.82C271.88 449.34 271.02 449.79 270.44 450.52C263.33 459.59 252.29 465.41 239.86 465.41C221.07 465.41 205.39 452.06 201.79 434.34H284.22C290.3 434.34 295.14 429.19 294.67 423.13C294.36 418.95 293.71 414.23 292.42 410.02H292.44V410.04ZM201.96 418.19C205.81 400.82 221.32 387.81 239.86 387.81C258.4 387.81 273.92 400.82 277.76 418.19H201.94H201.96Z" fill="black"/>
<path d="M402.38 387.33C391.64 376.63 376.5 370.34 359.91 371.41C332.67 373.16 310.53 395.16 308.66 422.38C306.44 454.51 331.87 481.25 363.55 481.25C377.28 481.25 389.82 476.22 399.46 467.9L406.39 477.81C407.23 479.01 408.61 479.73 410.07 479.73H418.56V330.15H402.37V387.33H402.38ZM363.53 465.42C342.08 465.42 324.7 448.05 324.7 426.61C324.7 405.17 342.09 387.8 363.53 387.8C384.97 387.8 402.36 405.17 402.36 426.61C402.36 448.05 384.97 465.42 363.53 465.42Z" fill="black"/>
<path d="M592.47 330.16H564.95V479.74H592.47V330.16Z" fill="black"/>
<path d="M184.5 373.45H139.32C131.88 373.45 125.84 379.48 125.84 386.92V479.11H142.03V389.63H184.5C184.69 389.63 184.84 389.48 184.84 389.29V373.82C184.84 373.63 184.69 373.48 184.5 373.48V373.45Z" fill="black"/>
<path d="M55.0096 387.65C70.0896 387.65 83.1496 396.24 89.5896 408.8C90.0996 409.8 91.0996 410.46 92.2396 410.46H107.67C100.51 386.9 77.9596 370.04 51.6996 371.58C23.4796 373.22 0.819646 396.61 0.0196463 424.85C-0.860354 455.95 24.0996 481.43 55.0096 481.43C79.7096 481.43 100.6 465.18 107.56 442.79H92.0596C90.9396 442.79 89.9496 443.43 89.4196 444.42C82.7396 457.17 69.1696 465.76 53.6396 465.24C33.8596 464.57 17.4596 448.69 16.2296 428.93C14.8196 406.38 32.7196 387.64 54.9896 387.64H55.0096V387.65Z" fill="black"/>
<path d="M683.97 372.82V429.84C683.97 442.16 674.49 452.77 662.18 453.34C649.03 453.95 638.17 443.49 638.17 430.49V372.83H610.65V430.49C610.83 458.18 633.34 480.58 661.07 480.58C688.8 480.58 711.32 458.19 711.49 430.49V372.83H683.97V372.82Z" fill="black"/>
<path d="M526.07 374.73L521.38 381.43C511 373.38 499.62 371.3 491.76 371.3C461.37 371.3 436.74 395.92 436.74 426.28C436.74 456.64 461.38 481.26 491.76 481.26C503.68 481.26 513.86 476.92 521.4 471.11L526.1 477.83C526.93 479.03 528.31 479.75 529.78 479.75H546.78V372.84H529.75C528.28 372.84 526.9 373.56 526.06 374.76V374.73H526.07ZM492.51 454.84C476.92 454.84 464.28 442.21 464.28 426.63C464.28 411.05 476.92 398.42 492.51 398.42C508.1 398.42 520.74 411.05 520.74 426.63C520.74 442.21 508.1 454.85 492.51 454.85V454.83V454.84Z" fill="black"/>
<path d="M944.24 374.73L939.55 381.43C929.17 373.38 917.79 371.3 909.93 371.3C879.54 371.3 854.91 395.92 854.91 426.28C854.91 456.64 879.55 481.26 909.93 481.26C921.85 481.26 932.04 476.92 939.57 471.11L944.27 477.83C945.11 479.03 946.49 479.75 947.96 479.75H964.95V372.84H947.92C946.45 372.84 945.07 373.56 944.23 374.76V374.73H944.24ZM910.68 454.84C895.09 454.84 882.45 442.21 882.45 426.63C882.45 411.05 895.09 398.42 910.68 398.42C926.27 398.42 938.91 411.05 938.91 426.63C938.91 442.21 926.27 454.85 910.68 454.85V454.83V454.84Z" fill="black"/>
<path d="M817.61 374.13L811.38 380.36C804.85 375.63 795.15 371.29 783.22 371.29C752.83 371.29 728.2 395.91 728.2 426.27C728.2 456.63 752.84 481.25 783.22 481.25C795.3 481.25 805.09 476.67 810.7 472.67V481.2C810.72 495.91 798.78 507.85 784.04 507.85C771.75 507.85 761.43 499.53 758.33 488.23C757.97 486.93 756.81 486.03 755.46 486.03H730.1C732.71 513.51 755.85 535.01 784.03 535.01C813.85 535.01 838.04 510.94 838.22 481.18V372.79H820.77C819.57 372.79 818.44 373.27 817.6 374.11L817.62 374.13H817.61ZM783.96 454.84C768.37 454.84 755.73 442.21 755.73 426.63C755.73 411.05 768.37 398.42 783.96 398.42C799.55 398.42 812.19 411.05 812.19 426.63C812.19 442.21 799.55 454.84 783.96 454.84Z" fill="black"/>
<path d="M994.08 376.2C993.21 374.67 992.01 373.49 990.48 372.61C988.96 371.74 987.29 371.29 985.47 371.29C983.65 371.29 981.97 371.72 980.45 372.61C978.92 373.48 977.72 374.67 976.86 376.2C975.99 377.73 975.54 379.39 975.54 381.21C975.54 383.03 975.97 384.71 976.86 386.22C977.73 387.75 978.92 388.94 980.45 389.81C981.96 390.68 983.64 391.13 985.47 391.13C987.3 391.13 988.97 390.7 990.48 389.81C992.01 388.94 993.21 387.75 994.08 386.22C994.95 384.69 995.4 383.03 995.4 381.21C995.4 379.39 994.96 377.71 994.08 376.2ZM990.97 386.82C989.56 388.27 987.73 388.99 985.47 388.99C983.21 388.99 981.38 388.27 979.97 386.82C978.56 385.37 977.85 383.5 977.85 381.21C977.85 378.92 978.56 377.05 979.97 375.6C981.37 374.15 983.21 373.43 985.47 373.43C987.73 373.43 989.56 374.15 990.97 375.6C992.38 377.05 993.08 378.92 993.08 381.21C993.08 383.5 992.37 385.37 990.97 386.82Z" fill="black"/>
<path d="M987.18 382.38C987.82 382.16 988.32 381.77 988.68 381.21C989.04 380.67 989.22 380.03 989.22 379.31C989.22 378.29 988.9 377.48 988.29 376.87C987.66 376.27 986.85 375.97 985.83 375.97H981.64V386.15H983.96V382.59H984.75L987.24 386.15H989.95L987.18 382.36V382.38ZM986.57 380.28C986.27 380.47 985.79 380.56 985.16 380.56H983.98V378.02H985.16C985.8 378.02 986.27 378.12 986.57 378.33C986.87 378.54 987.02 378.87 987.02 379.32C987.02 379.77 986.87 380.1 986.57 380.28Z" fill="black"/>
<path d="M678.28 37.2001L564.94 57.1601V217.99L678.28 237.97C681.29 238.49 684.06 236.19 684.06 233.12V42.0301C684.06 38.9801 681.31 36.6601 678.28 37.1801V37.2001Z" fill="black"/>
<path d="M564.95 57.1601V32.2601C564.95 29.8201 563.17 27.7601 560.76 27.4001L379.15 0.0601097C376.17 -0.38989 373.49 1.92011 373.49 4.92011V270.21C373.49 273.22 376.17 275.52 379.15 275.07L560.75 247.76C563.16 247.4 564.94 245.34 564.94 242.9V218L474.42 202.05C472.07 201.63 470.35 199.6 470.35 197.2V77.9501C470.35 75.5701 472.07 73.5201 474.42 73.1001L564.94 57.1501V57.1701L564.95 57.1601Z" fill="black"/>
</g>
<defs>
<clipPath id="clip0_723_752">
<rect width="995.4" height="535.03" fill="white"/>
</clipPath>
</defs>
</svg>
