<svg width="1167" height="503" viewBox="0 0 1167 503" fill="none" xmlns="http://www.w3.org/2000/svg">
<g clip-path="url(#clip0_723_1103)">
<path d="M603.92 217.49H562.39C558.844 217.49 555.97 220.364 555.97 223.91V265.44C555.97 268.986 558.844 271.86 562.39 271.86H603.92C607.466 271.86 610.34 268.986 610.34 265.44V223.91C610.34 220.364 607.466 217.49 603.92 217.49Z" fill="black"/>
<path d="M495.18 108.74H453.65C450.104 108.74 447.23 111.614 447.23 115.16V156.69C447.23 160.236 450.104 163.11 453.65 163.11H495.18C498.726 163.11 501.6 160.236 501.6 156.69V115.16C501.6 111.614 498.726 108.74 495.18 108.74Z" fill="black"/>
<path d="M658.29 54.37H616.76C613.214 54.37 610.34 57.2443 610.34 60.79V102.32C610.34 105.866 613.214 108.74 616.76 108.74H658.29C661.836 108.74 664.71 105.866 664.71 102.32V60.79C664.71 57.2443 661.836 54.37 658.29 54.37Z" fill="black"/>
<path d="M603.92 0H562.38C558.84 0 555.96 2.87 555.96 6.42V10.42C555.94 34.7 536.26 54.37 511.97 54.37H508C504.46 54.37 501.58 57.24 501.58 60.79V102.33C501.58 105.87 504.45 108.75 508 108.75H549.54C553.08 108.75 555.96 105.88 555.96 102.33V98.33C555.98 74.05 575.66 54.38 599.94 54.38H603.91C607.45 54.38 610.33 51.51 610.33 47.96V6.42C610.33 2.88 607.46 0 603.91 0H603.92Z" fill="black"/>
<path d="M712.67 108.74H671.13C667.59 108.74 664.71 111.61 664.71 115.16V119.16C664.69 143.43 645.01 163.11 620.73 163.11H616.75C613.21 163.11 610.33 165.98 610.33 169.53V211.07C610.33 214.61 613.2 217.49 616.75 217.49H658.29C661.83 217.49 664.71 214.62 664.71 211.07V207.07C664.73 182.79 684.41 163.12 708.7 163.12H712.67C716.21 163.12 719.09 160.25 719.09 156.7V115.16C719.09 111.62 716.22 108.74 712.67 108.74Z" fill="black"/>
<path d="M603.92 108.74H562.38C558.84 108.74 555.96 111.61 555.96 115.16V119.16C555.94 143.44 536.26 163.11 511.97 163.11H508C504.46 163.11 501.58 165.98 501.58 169.53V211.07C501.58 214.61 504.45 217.49 508 217.49H549.54C553.08 217.49 555.96 214.62 555.96 211.07V207.07C555.98 182.8 575.66 163.12 599.94 163.12H603.91C607.45 163.12 610.33 160.25 610.33 156.7V115.16C610.33 111.62 607.46 108.74 603.91 108.74H603.92Z" fill="black"/>
<path d="M0 419.26C0 403.69 2.13 390.54 6.43 379.78C10.71 369.04 16.85 360.35 24.87 353.74C32.89 347.12 42.76 342.37 54.43 339.5C66.1 336.61 79.26 335.17 93.91 335.17C120.85 335.17 142.21 339.58 158.03 348.38C173.83 357.16 182.82 372.47 185 394.27H140.61C138.9 383.99 134.07 377.22 126.12 373.95C118.19 370.68 107.43 369.05 93.9 369.05C86.73 369.05 80.12 369.64 74.04 370.8C67.98 371.98 62.75 374.03 58.4 377C54.03 379.97 50.64 384.09 48.23 389.38C45.82 394.68 44.62 401.45 44.62 409.7V428.39C44.62 444.59 49.13 455.42 58.17 460.86C67.2 466.32 79.1 469.03 93.91 469.03C106.99 469.03 117.5 467.43 125.43 464.24C133.38 461.07 138.53 454.72 140.85 445.21H185.24C182.75 466.08 173.61 480.91 157.79 489.71C141.99 498.51 120.68 502.9 93.92 502.9C79.26 502.9 66.11 501.49 54.44 498.7C42.77 495.89 32.9 491.31 24.88 484.92C16.86 478.53 10.72 469.94 6.44 459.11C2.14 448.29 0.01 435.01 0.01 419.29L0 419.26Z" fill="black"/>
<path d="M206.48 431.86V338.43H250.39V430.23C250.39 445.82 254.1 456.16 261.49 461.31C268.88 466.44 279.99 469.01 294.78 469.01C309.57 469.01 320.63 466.44 327.95 461.31C335.27 456.16 338.92 445.82 338.92 430.23V338.43H378.63V431.86C378.63 456.95 371.6 475.05 357.49 486.17C343.4 497.31 322.49 502.88 294.78 502.88C267.07 502.88 244.25 497.31 229.14 486.17C214.03 475.05 206.48 456.95 206.48 431.86Z" fill="black"/>
<path d="M409.94 338.43H519.97C539.91 338.43 554.66 343.33 564.24 353.14C573.8 362.97 578.59 376.5 578.59 393.8C578.59 411.1 573.8 425.32 564.24 435.15C554.66 444.96 539.91 449.86 519.97 449.86H453.87V499.61H409.94V338.43ZM533.98 397.3V390.76C533.98 385.46 532.38 381.1 529.19 377.68C526 374.26 520.83 372.53 513.66 372.53H453.87V415.76H513.66C520.83 415.76 526 414.09 529.19 410.72C532.38 407.37 533.98 402.91 533.98 397.3Z" fill="black"/>
<path d="M594.24 417.85C594.24 402.28 596.46 389.2 600.89 378.61C605.32 368.02 611.78 359.49 620.28 353.02C628.76 346.56 639.27 341.98 651.82 339.24C664.35 336.52 678.72 335.15 694.91 335.15C711.1 335.15 725.23 336.52 737.78 339.24C750.31 341.98 760.82 346.56 769.32 353.02C777.8 359.48 784.26 368.02 788.71 378.61C793.14 389.2 795.36 402.28 795.36 417.85C795.36 433.42 793.14 447.37 788.71 458.26C784.26 469.17 777.8 477.92 769.32 484.53C760.82 491.16 750.31 495.86 737.78 498.67C725.23 501.46 710.96 502.87 694.91 502.87C678.86 502.87 664.34 501.46 651.82 498.67C639.27 495.86 628.76 491.16 620.28 484.53C611.78 477.91 605.32 469.17 600.89 458.26C596.46 447.37 594.24 433.89 594.24 417.85ZM750.97 427.21V410.16C750.97 394.9 746.26 384.23 736.85 378.15C727.42 372.09 713.45 369.04 694.91 369.04C676.37 369.04 662.37 372.08 652.86 378.15C643.36 384.23 638.62 394.9 638.62 410.16V427.21C638.62 443.41 643.35 454.41 652.86 460.25C662.36 466.1 676.37 469.01 694.91 469.01C713.45 469.01 727.42 466.1 736.85 460.25C746.26 454.41 750.97 443.41 750.97 427.21Z" fill="black"/>
<path d="M821.52 338.43H865.45V463.87H963.56V499.61H821.52V338.43Z" fill="black"/>
<path d="M1096.93 338.43L1166.31 499.61H1120.52L1105.33 463.87H1023.11L1007.92 499.61H966.82L1036.43 338.43H1096.93ZM1036.67 432.11H1091.8L1064.24 367.17L1036.68 432.11H1036.67Z" fill="black"/>
</g>
<defs>
<clipPath id="clip0_723_1103">
<rect width="1166.31" height="502.88" fill="white"/>
</clipPath>
</defs>
</svg>
