<svg width="1426" height="315" viewBox="0 0 1426 315" fill="none" xmlns="http://www.w3.org/2000/svg">
<g clip-path="url(#clip0_723_935)">
<path d="M154.91 314.98C69.5 314.98 0 244.34 0 157.5C0 70.66 69.5 0 154.91 0C240.32 0 309.8 70.66 309.8 157.5C309.8 244.34 240.32 314.98 154.91 314.98ZM154.32 95.39C154.52 95.39 166.9 108.87 166.9 119.67C166.9 131.36 157.94 134.15 154.91 134.15C154.76 134.15 154.58 134.15 154.38 134.12H154.26C154.07 134.14 153.87 134.15 153.73 134.15C150.71 134.15 141.74 131.37 141.74 119.67C141.74 108.87 154.09 95.39 154.31 95.39H154.32ZM37.68 166.26H51.81V139.72H75.55V128.61H51.81V113.86H76.33V102.77H37.68V166.26ZM167.12 97.3H182.02L164.71 33.81H145.66L127.7 97.3H141.51L145.48 83.11H163.54L167.12 97.3ZM160.93 72.37H147.94L153.99 44.75H154.98L160.93 72.37ZM226.37 134.51C226.37 153.16 234.88 167.34 252.83 167.34C270.78 167.34 279.43 153.16 279.43 134.51C279.43 115.86 270.84 101.68 252.83 101.68C234.82 101.68 226.37 115.86 226.37 134.51ZM241.42 134.51C241.42 122.33 244.37 112.42 252.83 112.42C261.29 112.42 264.4 122.33 264.4 134.51C264.4 146.69 261.34 156.62 252.83 156.62C244.32 156.62 241.42 146.7 241.42 134.51ZM148.31 297.41C149.13 291.27 149.95 281.41 149.95 269.86C149.95 266.69 149.95 268.79 149.95 267.91C149.95 251.66 149.36 246.17 138.68 242.56C122.2 237.01 115.45 218.31 119.07 195.01L63.92 52.4C35.23 78.11 17.13 115.68 17.13 157.5C17.13 232.5 75.42 293.91 148.3 297.41H148.31ZM154.85 206.49C132.9 201.29 124.76 180.95 124.76 162.9L76.47 42.39C73.32 44.61 70.25 46.98 67.3 49.44C77.92 75.03 125.59 190.04 125.65 190.21C134.08 210.88 149.43 204.02 153.15 221.09C154.04 225.22 154.1 227.03 154.1 227.03H155.75C155.75 227.03 155.78 225.22 156.7 221.09C160.41 204.03 175.72 210.88 184.17 190.21C184.23 190.05 231.9 75.03 242.51 49.44C239.55 46.98 236.5 44.61 233.34 42.39L185.06 162.9C185.06 180.95 176.9 201.28 154.95 206.49H154.85ZM154.82 170.11C145.51 168 133.92 158.6 132.41 146.51C131.87 141.91 131.43 140.62 132.09 131.48L89.77 34.08C86.37 35.95 83.05 37.98 79.79 40.13C92.44 69.05 131.13 157.36 131.15 157.47C137.28 170.58 148.02 170.83 151.72 178.64C153.95 183.27 154.15 187.42 154.18 187.75H155.6C155.63 187.42 155.86 183.27 158.06 178.64C161.79 170.83 172.53 170.58 178.63 157.47C178.67 157.37 217.36 69.05 230 40.13C226.78 37.98 223.44 35.95 220.01 34.08L177.74 131.48C178.41 140.62 177.96 141.9 177.38 146.51C175.87 158.6 164.27 168 155.02 170.11H154.82ZM155.4 153.57L156.05 148.26C158.72 135.92 167.53 137.46 173.64 125.35C173.67 125.3 173.74 125.17 173.74 125.17C173.92 124.72 203.86 59.42 216.35 32.15C197.85 22.74 176.98 17.42 154.91 17.42C132.84 17.42 111.97 22.74 93.45 32.15C105.94 59.42 135.86 124.72 136.1 125.17C136.1 125.17 136.16 125.3 136.2 125.35C142.28 137.46 151.06 135.92 153.74 148.26L154.39 153.57H155.42H155.4ZM292.68 157.5C292.68 115.68 274.54 78.11 245.91 52.4L190.71 195.01C194.37 218.31 187.59 237.01 171.1 242.56C160.42 246.17 159.84 251.65 159.84 267.91C159.84 268.79 159.84 266.69 159.84 269.86C159.84 281.41 160.7 291.27 161.48 297.41C234.41 293.91 292.68 232.5 292.68 157.5ZM60.67 198.87C60.67 198.87 62.7 203.27 64.36 206.39C66 209.51 68.25 213.29 68.25 213.29L64.61 215.44C64.61 215.44 61.86 210.77 59.32 205.36C58.63 205.72 54.27 208.04 53.55 208.4C53.97 209.18 58.44 217.93 58.44 217.93L54.76 220.08C54.76 220.08 50.24 211.13 49.84 210.38C49.06 210.77 39.66 215.7 39.66 215.7L37.41 211.16L60.41 198.99L60.67 198.86V198.87ZM75.2 222.85L78.4 226.77L58.28 243.88L55.02 239.96L74.97 223.02L75.21 222.85H75.2ZM93.85 240.78L97.83 243.68L92.67 271.88L88.1 269.21C88.1 269.21 89.25 263.46 89.39 262.9C89.16 262.72 86.5 261.11 83.92 259.26C81.3 257.35 78.75 255.21 78.5 255.05C78 255.35 72.95 258.38 72.95 258.38L69.05 254.99L93.59 240.93L93.85 240.78ZM82.21 252.76C82.68 253.17 84.38 254.57 86.14 255.85C87.94 257.12 89.74 258.33 90.26 258.57C90.52 257.4 92.35 248.12 92.73 246.4C91.24 247.31 83.26 252.13 82.2 252.77L82.21 252.76ZM110.43 251.16C110.43 251.16 114.68 253.31 120.71 255.41C124.83 256.86 128.33 257.99 131.75 258.76L130.56 262.82C130.56 262.82 127.29 262.23 121.96 260.57C121.66 261.46 114.74 281.57 114.74 281.57L110.01 279.9C110.01 279.9 116.9 259.76 117.2 258.89C112.24 257 108.78 255.13 108.78 255.13L110.43 251.17V251.16ZM193.28 256.52C195 257.44 196.25 259.07 196.93 261.38C197.23 262.36 197.4 263.29 197.4 264.2C197.4 267.92 194.84 270.85 190.21 272.33C190.21 272.33 187.87 273.07 187.18 273.27C187.44 274.12 190.21 283.15 190.21 283.15L185.61 284.36L177.81 258.67L184.78 256.47C188.27 255.37 191.16 255.38 193.29 256.51L193.28 256.52ZM183.53 261.37C183.75 262.16 185.68 268.43 185.91 269.2C186.87 268.91 188.97 268.23 188.97 268.23C189.66 268.02 191.3 267.36 192.09 265.84C192.35 265.34 192.48 264.78 192.48 264.21C192.48 263.77 192.39 263.31 192.25 262.83C191.95 261.91 191.4 261.2 190.58 260.76C189.16 259.99 187.26 260.19 186.07 260.55C186.07 260.55 184.17 261.16 183.52 261.37H183.53ZM208.91 245.34L231.65 262.28L227.61 265.17C227.61 265.17 223.04 261.64 222.59 261.29C222.32 261.44 219.98 263.13 217.45 264.65C215.06 266.12 212.49 267.41 212.23 267.56C212.34 268.16 213.23 273.84 213.23 273.84L208.88 275.95L205.06 247.6L208.9 245.34H208.91ZM211.53 263.28C212.21 262.95 213.97 261.97 215.72 260.89C217.29 259.93 218.54 259.13 219.17 258.61C218.25 257.9 211.15 252.42 209.67 251.25C209.97 253.14 211.34 262.1 211.52 263.27L211.53 263.28ZM234.9 221.99L254.73 239.98L251.15 244.24C251.15 244.24 232.55 238.72 229.73 237.95C231.82 239.98 243.36 252.35 243.36 252.35L239.88 255.55L221.19 236.24L225.58 232.25C225.58 232.25 243.52 237.69 246.34 238.45C244.24 236.42 231.86 225.6 231.86 225.6L234.87 221.99H234.9ZM243.96 208.57L266.93 222.11L264.59 226.21L241.5 212.62L243.95 208.56L243.96 208.57ZM253.92 186.15L257.86 188.23L257.47 188.69C256.19 190.28 255.61 191.09 255.01 192.87C254.71 193.68 254.35 195.24 254.95 196.41C255.24 197.03 255.77 197.49 256.52 197.73C258.27 198.33 259.78 196.78 261.52 194.98C263.95 192.48 266.95 189.39 271.8 191.04C276.73 192.75 278.41 197.21 276.37 203.29C275.76 205.15 274.62 206.73 273.59 208.19L273.35 208.51L269.28 206.58L269.68 206.1C270.16 205.51 271.87 203.49 272.5 201.48C273.11 199.72 273.05 196.73 270.42 195.83C268.23 195.07 266.59 196.78 264.67 198.79C262.35 201.28 259.68 204.08 255.28 202.56C253.35 201.89 251.9 200.64 251.09 198.98C250.1 196.94 250.06 194.35 250.98 191.64C251.57 189.82 252.57 187.93 253.72 186.47L253.94 186.15H253.92Z" fill="black"/>
<path d="M412.69 55.92C412.69 80.91 403.83 91.05 391.24 91.05C376.19 91.05 370.28 75.11 370.28 56.91C370.28 38.71 377.46 23.16 392.12 23.16C408.16 23.16 412.68 40.77 412.68 55.93L412.69 55.92ZM383.66 57.1C383.66 72.15 386.51 79.83 391.73 79.83C396.95 79.83 399.21 69.99 399.21 56.51C399.21 44.9 397.44 34.37 391.63 34.37C386.51 34.37 383.66 42.83 383.66 57.1Z" fill="black"/>
<path d="M420.25 56.61C420.25 51.79 420.05 46.57 419.86 42.15H431.08L431.77 49.14H432.07C434.23 44.02 438.07 41.37 441.61 41.37C442.89 41.37 443.58 41.37 444.36 41.57V54.36C443.57 54.16 442.69 54.16 441.61 54.16C438.86 54.16 435.22 56.03 433.74 61.05C433.45 62.13 433.25 63.8 433.25 65.87V90.27H420.26V56.62L420.25 56.61Z" fill="black"/>
<path d="M484.4 42.15C484.2 46.48 483.91 51.6 483.91 57.4V84.85C483.91 95.18 482.04 100.89 478.11 104.63C474.57 107.97 469.55 109.94 462.46 109.94C458.03 109.94 453.9 109.15 450.46 107.68L452.82 97.74C455.28 98.82 458.33 99.81 462.07 99.81C468.57 99.81 471.12 95.48 471.12 88.1V85.15H470.92C469.25 88.2 465.9 89.97 462.26 89.97C451.44 89.97 447.21 78.16 447.21 66.65C447.21 50.61 454.49 41.36 463.44 41.36C467.28 41.36 470.43 43.33 472.3 46.97H472.5L473.19 42.15H484.41H484.4ZM471.12 59.66C471.12 58.38 470.92 57.1 470.63 56.12C470.04 54.05 468.66 52.18 466.5 52.18C461.87 52.18 460 58.48 460 66.35C460 75.31 462.56 79.83 466.2 79.83C467.87 79.83 469.54 78.94 470.53 76.39C470.92 75.31 471.12 73.83 471.12 72.55V59.66Z" fill="black"/>
<path d="M514.4 90.26L513.71 85.54H513.51C510.85 89.28 507.11 91.05 502.88 91.05C495.6 91.05 490.19 84.95 490.19 76.39C490.19 63.8 501.31 58.58 512.23 58.48V57.4C512.23 53.66 509.97 50.9 505.44 50.9C501.6 50.9 498.45 51.89 495.6 53.66L493.24 45C495.9 43.43 501.5 41.36 508.2 41.36C522.86 41.36 525.22 51.59 525.22 61.33V79.24C525.22 83.08 525.42 87.01 526.01 90.26H514.4ZM512.63 66.85C508.3 66.95 502.4 68.33 502.4 75.02C502.4 79.84 505.06 81.61 507.03 81.61C509.1 81.61 511.46 80.33 512.34 77.48C512.54 76.79 512.64 76 512.64 75.22V66.86L512.63 66.85Z" fill="black"/>
<path d="M534.37 56.61C534.37 51.3 534.08 46.67 533.98 42.15H545.1L545.69 47.66H545.89C548.45 43.82 552.58 41.36 557.6 41.36C566.75 41.36 570.39 48.64 570.39 59.37V90.27H557.5V60.16C557.5 56.03 556.52 52.19 552.78 52.19C550.62 52.19 548.85 53.67 547.96 56.52C547.57 57.51 547.27 59.08 547.27 60.95V90.27H534.38V56.62L534.37 56.61Z" fill="black"/>
<path d="M592.32 29.36C592.42 33.49 589.46 36.35 585.53 36.35C581.99 36.35 579.03 33.5 579.13 29.36C579.03 25.03 582.18 22.37 585.72 22.37C589.46 22.37 592.31 25.03 592.31 29.36H592.32ZM579.43 90.26V42.14H592.32V90.26H579.43Z" fill="black"/>
<path d="M598.61 82.2L610.42 60.75C611.99 58 614.06 54.85 614.94 52.98V52.68H600.08V42.15H629.01V50.91L617.49 71.57C615.82 74.42 613.95 77.48 612.87 79.44V79.73H629.4V90.26H598.6V82.19L598.61 82.2Z" fill="black"/>
<path d="M657.45 90.26L656.76 85.54H656.56C653.9 89.28 650.17 91.05 645.93 91.05C638.65 91.05 633.24 84.95 633.24 76.39C633.24 63.8 644.36 58.58 655.28 58.48V57.4C655.28 53.66 653.02 50.9 648.49 50.9C644.65 50.9 641.5 51.89 638.65 53.66L636.29 45C638.95 43.43 644.55 41.36 651.25 41.36C665.91 41.36 668.27 51.59 668.27 61.33V79.24C668.27 83.08 668.46 87.01 669.06 90.26H657.45ZM655.68 66.85C651.35 66.95 645.44 68.33 645.44 75.02C645.44 79.84 648.1 81.61 650.07 81.61C652.14 81.61 654.5 80.33 655.39 77.48C655.58 76.79 655.68 76 655.68 75.22V66.85Z" fill="black"/>
<path d="M704.18 89.38C702.8 90.07 699.85 90.76 696.41 90.85L694.44 94.59C697.98 95.18 701.13 97.84 701.13 101.77C701.13 108.07 695.72 110.33 690.21 110.33C687.56 110.33 684.6 109.54 682.83 108.56L684.7 103.05C686.28 103.84 688.15 104.43 689.82 104.43C691.49 104.43 692.97 103.74 692.97 101.97C692.97 100 690.71 98.72 686.28 98.33L689.92 90.07C681.16 87.71 675.75 79.74 675.75 66.65C675.75 51.79 684.51 41.46 697.79 41.46C700.84 41.46 703.59 42.15 704.88 42.74L703.21 52.87C702.13 52.48 700.55 51.98 698.39 51.98C692.19 51.98 688.55 57.89 688.55 66.25C688.55 74.61 692.19 80.32 698.19 80.32C700.06 80.32 701.73 80.03 703.11 79.34L704.19 89.38H704.18Z" fill="black"/>
<path d="M732.22 90.26L731.53 85.54H731.33C728.67 89.28 724.94 91.05 720.7 91.05C713.42 91.05 708.01 84.95 708.01 76.39C708.01 63.8 719.13 58.58 730.05 58.48V57.4C730.05 53.66 727.79 50.9 723.26 50.9C719.42 50.9 716.27 51.89 713.42 53.66L711.06 45C713.72 43.43 719.32 41.36 726.02 41.36C740.68 41.36 743.04 51.59 743.04 61.33V79.24C743.04 83.08 743.23 87.01 743.83 90.26H732.22ZM714.8 35.46C714.8 29.06 717.06 23.85 721.78 23.85C724.24 23.85 725.91 24.83 727.49 25.62C728.67 26.41 729.85 27.19 731.13 27.19C732.41 27.19 733.2 26.7 733.2 23.55H738.91C738.91 31.42 736.25 34.77 732.02 34.77C730.15 34.77 728.28 33.88 726.8 33.19C725.23 32.4 724.34 31.52 722.96 31.52C721.78 31.52 720.8 32.9 720.7 35.46H714.8ZM730.45 66.85C726.12 66.95 720.21 68.33 720.21 75.02C720.21 79.84 722.87 81.61 724.84 81.61C726.91 81.61 729.27 80.33 730.16 77.48C730.35 76.79 730.45 76 730.45 75.22V66.85Z" fill="black"/>
<path d="M787.31 66.06C787.31 86.13 776.19 91.05 768.91 91.05C757.4 91.05 750.51 82 750.51 66.35C750.51 49.03 759.56 41.36 769.11 41.36C780.43 41.36 787.32 50.9 787.32 66.06H787.31ZM763.3 66.06C763.3 74.33 764.58 81.21 769.21 81.21C773.34 81.21 774.42 73.14 774.42 66.06C774.42 59.47 773.34 51.1 769.01 51.1C764.29 51.1 763.3 59.46 763.3 66.06Z" fill="black"/>
<path d="M845.16 22.17V75.99C845.16 80.62 845.36 85.83 845.56 90.26H834.44L833.75 84.85H833.56C831.79 88.2 827.95 91.05 823.52 91.05C813.29 91.05 808.56 79.73 808.56 66.25C808.56 49.52 815.84 41.36 824.01 41.36C828.24 41.36 830.9 43.43 832.08 46.18H832.28V22.17H845.17H845.16ZM832.27 60.65C832.27 59.76 832.27 58.78 832.17 57.8C831.68 54.85 830.1 52.19 827.54 52.19C823.01 52.19 821.34 58.78 821.34 66.56C821.34 75.71 823.8 80.53 827.44 80.53C829.02 80.53 830.89 79.64 831.87 76.3C832.16 75.61 832.26 74.53 832.26 73.35V60.66L832.27 60.65Z" fill="black"/>
<path d="M875.75 90.26L875.06 85.54H874.86C872.2 89.28 868.47 91.05 864.23 91.05C856.95 91.05 851.54 84.95 851.54 76.39C851.54 63.8 862.66 58.58 873.58 58.48V57.4C873.58 53.66 871.32 50.9 866.79 50.9C862.95 50.9 859.8 51.89 856.95 53.66L854.59 45C857.25 43.43 862.85 41.36 869.55 41.36C884.21 41.36 886.57 51.59 886.57 61.33V79.24C886.57 83.08 886.76 87.01 887.36 90.26H875.75ZM873.98 66.85C869.65 66.95 863.74 68.33 863.74 75.02C863.74 79.84 866.4 81.61 868.37 81.61C870.44 81.61 872.8 80.33 873.69 77.48C873.88 76.79 873.98 76 873.98 75.22V66.85Z" fill="black"/>
<path d="M895.33 78.65C897.2 79.83 900.74 81.21 903.99 81.21C907.24 81.21 909.2 79.73 909.2 76.88C909.2 74.42 907.82 72.85 903.59 70.39C895.72 65.96 893.85 60.94 893.85 56.51C893.85 47.85 900.05 41.36 909.69 41.36C913.72 41.36 916.87 42.34 919.43 43.53L917.17 52.98C915.3 51.9 913.04 51.01 910.48 51.01C907.24 51.01 905.66 52.98 905.66 55.14C905.66 57.3 906.74 58.49 911.27 61.14C918.36 65.18 921.01 70.19 921.01 75.7C921.01 85.54 913.92 90.85 903.99 90.85C899.95 90.85 895.23 89.77 892.97 88.1L895.33 78.65Z" fill="black"/>
<path d="M944.42 90.26V23.95H956.23L966.46 49.93C968.43 55.05 971.67 63.61 973.55 69.31H973.75C973.35 62.32 972.47 50.81 972.47 38.61V23.95H983.79V90.27H971.98L961.85 65.08C959.69 59.47 956.64 51.11 955.16 45.11H954.96C955.25 51.8 955.75 62.04 955.75 75.32V90.28H944.44L944.42 90.26Z" fill="black"/>
<path d="M1015.55 90.26L1014.86 85.54H1014.66C1012 89.28 1008.27 91.05 1004.03 91.05C996.75 91.05 991.34 84.95 991.34 76.39C991.34 63.8 1002.46 58.58 1013.38 58.48V57.4C1013.38 53.66 1011.12 50.9 1006.59 50.9C1002.75 50.9 999.6 51.89 996.75 53.66L994.39 45C997.05 43.43 1002.65 41.36 1009.35 41.36C1024.01 41.36 1026.37 51.59 1026.37 61.33V79.24C1026.37 83.08 1026.56 87.01 1027.16 90.26H1015.55ZM1013.78 66.85C1009.45 66.95 1003.54 68.33 1003.54 75.02C1003.54 79.84 1006.2 81.61 1008.17 81.61C1010.24 81.61 1012.6 80.33 1013.49 77.48C1013.68 76.79 1013.78 76 1013.78 75.22V66.85Z" fill="black"/>
<path d="M1062.28 89.38C1060.9 90.07 1057.95 90.76 1054.51 90.85L1052.54 94.59C1056.08 95.18 1059.23 97.84 1059.23 101.77C1059.23 108.07 1053.82 110.33 1048.31 110.33C1045.66 110.33 1042.7 109.54 1040.93 108.56L1042.8 103.05C1044.38 103.84 1046.25 104.43 1047.92 104.43C1049.59 104.43 1051.07 103.74 1051.07 101.97C1051.07 100 1048.81 98.72 1044.38 98.33L1048.02 90.07C1039.26 87.71 1033.85 79.74 1033.85 66.65C1033.85 51.79 1042.61 41.46 1055.89 41.46C1058.94 41.46 1061.69 42.15 1062.98 42.74L1061.31 52.87C1060.23 52.48 1058.65 51.98 1056.49 51.98C1050.29 51.98 1046.65 57.89 1046.65 66.25C1046.65 74.61 1050.29 80.32 1056.29 80.32C1058.16 80.32 1059.83 80.03 1061.21 79.34L1062.29 89.38H1062.28Z" fill="black"/>
<path d="M1102.42 66.06C1102.42 86.13 1091.3 91.05 1084.02 91.05C1072.51 91.05 1065.62 82 1065.62 66.35C1065.62 49.03 1074.67 41.36 1084.22 41.36C1095.54 41.36 1102.43 50.9 1102.43 66.06H1102.42ZM1072.02 35.46C1072.02 29.06 1074.19 23.85 1079 23.85C1081.36 23.85 1083.04 24.83 1084.61 25.62C1085.89 26.41 1086.97 27.19 1088.25 27.19C1089.53 27.19 1090.32 26.7 1090.42 23.55H1096.13C1096.13 31.42 1093.38 34.77 1089.24 34.77C1087.27 34.77 1085.4 33.88 1084.03 33.19C1082.36 32.4 1081.57 31.52 1080.19 31.52C1078.91 31.52 1077.92 32.9 1077.92 35.46H1072.02ZM1078.41 66.06C1078.41 74.33 1079.69 81.21 1084.32 81.21C1088.45 81.21 1089.53 73.14 1089.53 66.06C1089.53 59.47 1088.45 51.1 1084.12 51.1C1079.4 51.1 1078.41 59.46 1078.41 66.06Z" fill="black"/>
<path d="M1120.42 70.78C1120.61 78.26 1124.94 81.01 1130.65 81.01C1134.29 81.01 1137.54 80.22 1139.8 79.44L1141.57 88.69C1138.23 89.97 1133.2 90.86 1128.28 90.86C1115.2 90.86 1108.01 82.2 1108.01 67.15C1108.01 51.01 1116.38 41.37 1127.3 41.37C1137.63 41.37 1143.64 49.54 1143.64 64.1C1143.64 67.54 1143.54 69.41 1143.24 70.79H1120.41L1120.42 70.78ZM1131.94 61.73C1131.94 55.53 1130.36 50.71 1126.53 50.71C1122.3 50.71 1120.62 56.91 1120.53 61.73H1131.95H1131.94Z" fill="black"/>
<path d="M1150.52 78.65C1152.39 79.83 1155.93 81.21 1159.18 81.21C1162.43 81.21 1164.39 79.73 1164.39 76.88C1164.39 74.42 1163.01 72.85 1158.78 70.39C1150.91 65.96 1149.04 60.94 1149.04 56.51C1149.04 47.85 1155.24 41.36 1164.88 41.36C1168.91 41.36 1172.06 42.34 1174.62 43.53L1172.36 52.98C1170.49 51.9 1168.23 51.01 1165.67 51.01C1162.43 51.01 1160.85 52.98 1160.85 55.14C1160.85 57.3 1161.93 58.49 1166.46 61.14C1173.55 65.18 1176.2 70.19 1176.2 75.7C1176.2 85.54 1169.11 90.85 1159.18 90.85C1155.14 90.85 1150.42 89.77 1148.16 88.1L1150.52 78.65Z" fill="black"/>
<path d="M1212.11 23.95V67.05C1212.11 76.79 1215.06 79.74 1218.41 79.74C1222.15 79.74 1224.81 77.08 1224.81 67.05V23.95H1237.7V64.78C1237.7 81.8 1231.31 91.05 1218.51 91.05C1204.63 91.05 1199.22 81.5 1199.22 64.88V23.95H1212.11Z" fill="black"/>
<path d="M1247.62 56.61C1247.62 51.3 1247.32 46.67 1247.22 42.15H1258.34L1258.93 47.66H1259.13C1261.69 43.82 1265.82 41.36 1270.84 41.36C1279.99 41.36 1283.63 48.64 1283.63 59.37V90.27H1270.74V60.16C1270.74 56.03 1269.75 52.19 1266.02 52.19C1263.85 52.19 1262.08 53.67 1261.2 56.52C1260.81 57.51 1260.51 59.08 1260.51 60.95V90.27H1247.62V56.61Z" fill="black"/>
<path d="M1305.57 29.36C1305.67 33.49 1302.71 36.35 1298.78 36.35C1295.24 36.35 1292.28 33.5 1292.38 29.36C1292.28 25.03 1295.43 22.37 1298.98 22.37C1302.72 22.37 1305.57 25.03 1305.57 29.36ZM1292.68 90.26V42.14H1305.57V90.26H1292.68Z" fill="black"/>
<path d="M1349.55 22.17V75.99C1349.55 80.62 1349.75 85.83 1349.95 90.26H1338.83L1338.14 84.85H1337.95C1336.18 88.2 1332.34 91.05 1327.91 91.05C1317.68 91.05 1312.95 79.73 1312.95 66.25C1312.95 49.52 1320.23 41.36 1328.4 41.36C1332.63 41.36 1335.29 43.43 1336.47 46.18H1336.67V22.17H1349.56H1349.55ZM1336.66 60.65C1336.66 59.76 1336.66 58.78 1336.56 57.8C1336.07 54.85 1334.49 52.19 1331.93 52.19C1327.4 52.19 1325.73 58.78 1325.73 66.56C1325.73 75.71 1328.19 80.53 1331.83 80.53C1333.41 80.53 1335.28 79.64 1336.26 76.3C1336.55 75.61 1336.65 74.53 1336.65 73.35V60.66L1336.66 60.65Z" fill="black"/>
<path d="M1380.14 90.26L1379.45 85.54H1379.25C1376.59 89.28 1372.86 91.05 1368.62 91.05C1361.34 91.05 1355.93 84.95 1355.93 76.39C1355.93 63.8 1367.05 58.58 1377.97 58.48V57.4C1377.97 53.66 1375.71 50.9 1371.18 50.9C1367.34 50.9 1364.19 51.89 1361.34 53.66L1358.98 45C1361.64 43.43 1367.24 41.36 1373.94 41.36C1388.6 41.36 1390.96 51.59 1390.96 61.33V79.24C1390.96 83.08 1391.15 87.01 1391.75 90.26H1380.14ZM1378.37 66.85C1374.04 66.95 1368.13 68.33 1368.13 75.02C1368.13 79.84 1370.79 81.61 1372.76 81.61C1374.83 81.61 1377.19 80.33 1378.08 77.48C1378.27 76.79 1378.37 76 1378.37 75.22V66.85Z" fill="black"/>
<path d="M1399.71 78.65C1401.58 79.83 1405.12 81.21 1408.37 81.21C1411.62 81.21 1413.58 79.73 1413.58 76.88C1413.58 74.42 1412.2 72.85 1407.97 70.39C1400.1 65.96 1398.23 60.94 1398.23 56.51C1398.23 47.85 1404.43 41.36 1414.07 41.36C1418.1 41.36 1421.25 42.34 1423.81 43.53L1421.55 52.98C1419.68 51.9 1417.42 51.01 1414.86 51.01C1411.62 51.01 1410.04 52.98 1410.04 55.14C1410.04 57.3 1411.12 58.49 1415.65 61.14C1422.74 65.18 1425.39 70.19 1425.39 75.7C1425.39 85.54 1418.3 90.85 1408.37 90.85C1404.33 90.85 1399.61 89.77 1397.35 88.1L1399.71 78.65Z" fill="black"/>
<path d="M372.24 155.34C372.24 149.54 372.04 144.62 371.85 140.09H383.07L383.76 145.6H383.96C385.93 141.66 389.57 139.3 394 139.3C404.63 139.3 408.96 150.71 408.96 164.1C408.96 181.22 401.38 188.99 393.32 188.99C389.38 188.99 386.73 186.53 385.35 184.27H385.15V207.1H372.26V155.34H372.24ZM385.13 170.59C385.13 172.26 385.33 173.74 385.82 174.72C386.8 177.67 388.48 178.46 389.95 178.46C394.48 178.46 396.05 171.77 396.05 164.19C396.05 155.04 393.88 150.12 390.05 150.12C388.08 150.12 386.21 151.99 385.72 154.25C385.23 155.23 385.13 156.51 385.13 157.69V170.59Z" fill="black"/>
<path d="M437.87 188.2L437.18 183.48H436.98C434.32 187.22 430.58 188.99 426.35 188.99C419.07 188.99 413.66 182.89 413.66 174.33C413.66 161.74 424.78 156.52 435.7 156.42V155.34C435.7 151.6 433.44 148.85 428.91 148.85C425.07 148.85 421.92 149.83 419.07 151.6L416.71 142.94C419.37 141.37 424.97 139.3 431.67 139.3C446.33 139.3 448.69 149.53 448.69 159.27V177.18C448.69 181.02 448.89 184.95 449.48 188.2H437.87ZM436.1 164.78C431.77 164.88 425.87 166.26 425.87 172.95C425.87 177.77 428.53 179.54 430.5 179.54C432.57 179.54 434.93 178.26 435.81 175.41C436.01 174.72 436.11 173.93 436.11 173.15V164.79L436.1 164.78Z" fill="black"/>
<path d="M457.73 154.55C457.73 149.73 457.53 144.51 457.34 140.09H468.56L469.25 147.08H469.55C471.71 141.96 475.55 139.31 479.09 139.31C480.37 139.31 481.06 139.31 481.84 139.51V152.3C481.05 152.1 480.17 152.1 479.09 152.1C476.34 152.1 472.7 153.97 471.22 158.99C470.93 160.07 470.73 161.74 470.73 163.81V188.21H457.74V154.56L457.73 154.55Z" fill="black"/>
<path d="M508.3 188.2L507.61 183.48H507.41C504.75 187.22 501.01 188.99 496.78 188.99C489.5 188.99 484.09 182.89 484.09 174.33C484.09 161.74 495.21 156.52 506.13 156.42V155.34C506.13 151.6 503.87 148.85 499.34 148.85C495.5 148.85 492.35 149.83 489.5 151.6L487.14 142.94C489.8 141.37 495.4 139.3 502.1 139.3C516.76 139.3 519.12 149.53 519.12 159.27V177.18C519.12 181.02 519.32 184.95 519.91 188.2H508.3ZM506.54 164.78C502.21 164.88 496.31 166.26 496.31 172.95C496.31 177.77 498.97 179.54 500.94 179.54C503.01 179.54 505.37 178.26 506.25 175.41C506.45 174.72 506.55 173.93 506.55 173.15V164.79L506.54 164.78Z" fill="black"/>
<path d="M565.46 188.2L564.77 183.48H564.57C561.91 187.22 558.17 188.99 553.94 188.99C546.66 188.99 541.25 182.89 541.25 174.33C541.25 161.74 552.37 156.52 563.29 156.42V155.34C563.29 151.6 561.03 148.85 556.5 148.85C552.66 148.85 549.51 149.83 546.66 151.6L544.3 142.94C546.96 141.37 552.56 139.3 559.26 139.3C573.92 139.3 576.28 149.53 576.28 159.27V177.18C576.28 181.02 576.48 184.95 577.07 188.2H565.46ZM563.69 164.78C559.36 164.88 553.46 166.26 553.46 172.95C553.46 177.77 556.12 179.54 558.09 179.54C560.16 179.54 562.52 178.26 563.4 175.41C563.6 174.72 563.7 173.93 563.7 173.15V164.79L563.69 164.78Z" fill="black"/>
<path d="M612.78 173.05L609.83 188.2H597.33L611.69 121.88H627.14L640.03 188.2H627.53L624.68 173.05H612.77H612.78ZM623.51 163.01L621.35 149.14C620.66 145.1 619.77 138.51 619.18 134.09H618.89C618.2 138.52 617.21 145.4 616.53 149.24L614.07 163.02H623.51V163.01Z" fill="black"/>
<path d="M646.13 120.11H659.02V188.2H646.13V120.11Z" fill="black"/>
<path d="M681.16 127.29C681.26 131.42 678.3 134.28 674.37 134.28C670.83 134.28 667.87 131.43 667.97 127.29C667.87 122.96 671.02 120.3 674.57 120.3C678.31 120.3 681.16 122.96 681.16 127.29ZM668.27 188.2V140.08H681.16V188.2H668.27Z" fill="black"/>
<path d="M690.21 154.55C690.21 149.24 689.91 144.61 689.81 140.09H701.03L701.62 145.7H701.82C704.28 142.06 708.32 139.31 713.33 139.31C718.74 139.31 722.18 141.77 723.86 145.8H724.06C725.24 143.93 727.01 142.16 728.88 140.98C730.85 139.9 733.21 139.31 735.67 139.31C744.23 139.31 748.07 146.1 748.07 157.71V188.21H735.28V159.87C735.28 154.36 734.69 149.93 730.76 149.93C728.49 149.93 726.82 151.51 725.94 154.36C725.74 155.05 725.55 156.43 725.55 157.7V188.2H712.76V157.99C712.76 154.55 712.36 149.92 708.33 149.92C706.36 149.92 704.39 151.4 703.51 154.25C703.22 155.14 703.02 156.51 703.02 157.89V188.2H690.23V154.55H690.21Z" fill="black"/>
<path d="M767.83 168.72C768.02 176.2 772.35 178.95 778.06 178.95C781.7 178.95 784.95 178.16 787.21 177.38L788.98 186.63C785.64 187.91 780.61 188.79 775.69 188.79C762.61 188.79 755.42 180.13 755.42 165.08C755.42 148.94 763.79 139.3 774.71 139.3C785.04 139.3 791.05 147.47 791.05 162.03C791.05 165.47 790.95 167.34 790.65 168.72H767.82H767.83ZM779.34 159.67C779.34 153.47 777.76 148.65 773.93 148.65C769.7 148.65 768.02 154.85 767.93 159.67H779.35H779.34Z" fill="black"/>
<path d="M798.32 154.55C798.32 149.24 798.02 144.61 797.92 140.09H809.04L809.63 145.6H809.83C812.39 141.76 816.52 139.3 821.54 139.3C830.69 139.3 834.33 146.58 834.33 157.31V188.21H821.44V158.1C821.44 153.97 820.45 150.13 816.72 150.13C814.55 150.13 812.78 151.61 811.9 154.46C811.51 155.45 811.21 157.02 811.21 158.89V188.21H798.32V154.55Z" fill="black"/>
<path d="M858.53 127.1V140.09H867.97V149.24H858.53V171.18C858.53 176.79 860.89 178.17 863.45 178.17C864.73 178.17 865.71 178.07 866.79 177.88L866.89 187.92C865.12 188.41 862.46 188.8 859.02 188.8C855.28 188.8 852.03 187.92 849.77 185.75C847.11 183.19 845.64 179.55 845.64 171.97V149.24H839.93V140.09H845.64V130.15L858.53 127.1Z" fill="black"/>
<path d="M895.52 188.2L894.83 183.48H894.63C891.97 187.22 888.24 188.99 884 188.99C876.72 188.99 871.31 182.89 871.31 174.33C871.31 161.74 882.43 156.52 893.35 156.42V155.34C893.35 151.6 891.09 148.85 886.56 148.85C882.72 148.85 879.57 149.83 876.72 151.6L874.36 142.94C877.02 141.37 882.62 139.3 889.32 139.3C903.98 139.3 906.34 149.53 906.34 159.27V177.18C906.34 181.02 906.53 184.95 907.13 188.2H895.52ZM893.75 164.78C889.42 164.88 883.51 166.26 883.51 172.95C883.51 177.77 886.17 179.54 888.14 179.54C890.21 179.54 892.57 178.26 893.46 175.41C893.65 174.72 893.75 173.93 893.75 173.15V164.78Z" fill="black"/>
<path d="M942.25 187.32C940.87 188.01 937.92 188.7 934.48 188.79L932.51 192.53C936.05 193.12 939.2 195.78 939.2 199.71C939.2 206.01 933.79 208.27 928.28 208.27C925.63 208.27 922.67 207.48 920.9 206.5L922.77 200.99C924.35 201.78 926.22 202.37 927.89 202.37C929.56 202.37 931.04 201.68 931.04 199.91C931.04 197.94 928.78 196.66 924.35 196.27L927.99 188.01C919.23 185.65 913.82 177.68 913.82 164.59C913.82 149.73 922.58 139.4 935.86 139.4C938.91 139.4 941.66 140.09 942.95 140.68L941.28 150.81C940.2 150.42 938.62 149.92 936.46 149.92C930.26 149.92 926.62 155.83 926.62 164.19C926.62 172.55 930.26 178.26 936.26 178.26C938.13 178.26 939.8 177.97 941.18 177.28L942.26 187.32H942.25Z" fill="black"/>
<path d="M970.29 188.2L969.6 183.48H969.4C966.74 187.22 963.01 188.99 958.77 188.99C951.49 188.99 946.08 182.89 946.08 174.33C946.08 161.74 957.2 156.52 968.12 156.42V155.34C968.12 151.6 965.86 148.85 961.33 148.85C957.49 148.85 954.34 149.83 951.49 151.6L949.13 142.94C951.79 141.37 957.39 139.3 964.09 139.3C978.75 139.3 981.11 149.53 981.11 159.27V177.18C981.11 181.02 981.3 184.95 981.9 188.2H970.29ZM952.88 133.4C952.88 127 955.14 121.79 959.86 121.79C962.32 121.79 963.99 122.77 965.57 123.56C966.75 124.35 967.93 125.13 969.21 125.13C970.49 125.13 971.28 124.64 971.28 121.49H976.99C976.99 129.36 974.33 132.71 970.1 132.71C968.23 132.71 966.36 131.82 964.88 131.13C963.31 130.34 962.42 129.46 961.04 129.46C959.86 129.46 958.88 130.84 958.78 133.4H952.88ZM968.52 164.78C964.19 164.88 958.28 166.26 958.28 172.95C958.28 177.77 960.94 179.54 962.91 179.54C964.98 179.54 967.34 178.26 968.23 175.41C968.42 174.72 968.52 173.93 968.52 173.15V164.78Z" fill="black"/>
<path d="M1025.39 164C1025.39 184.07 1014.27 188.99 1006.99 188.99C995.48 188.99 988.59 179.94 988.59 164.29C988.59 146.97 997.64 139.3 1007.19 139.3C1018.51 139.3 1025.4 148.85 1025.4 164H1025.39ZM1001.38 164C1001.38 172.27 1002.66 179.15 1007.29 179.15C1011.42 179.15 1012.5 171.08 1012.5 164C1012.5 157.41 1011.42 149.04 1007.09 149.04C1002.37 149.04 1001.38 157.4 1001.38 164Z" fill="black"/>
<path d="M383.07 266.66C383.27 274.14 387.6 276.89 393.3 276.89C396.94 276.89 400.19 276.1 402.45 275.32L404.22 284.57C400.88 285.85 395.86 286.74 390.94 286.74C377.85 286.74 370.67 278.08 370.67 263.03C370.67 246.89 379.03 237.25 389.96 237.25C400.29 237.25 406.29 245.42 406.29 259.98C406.29 263.42 406.19 265.29 405.9 266.67H383.07V266.66ZM394.58 257.61C394.58 251.41 393 246.59 389.17 246.59C384.94 246.59 383.27 252.79 383.17 257.61H394.59H394.58Z" fill="black"/>
<path d="M450.75 286.14L450.06 281.42H449.86C447.2 285.16 443.46 286.93 439.23 286.93C431.95 286.93 426.54 280.83 426.54 272.27C426.54 259.68 437.66 254.46 448.58 254.36V253.28C448.58 249.54 446.32 246.78 441.79 246.78C437.95 246.78 434.8 247.77 431.95 249.54L429.59 240.88C432.25 239.31 437.85 237.24 444.55 237.24C459.21 237.24 461.57 247.47 461.57 257.21V275.12C461.57 278.96 461.77 282.89 462.36 286.14H450.75ZM448.99 262.72C444.66 262.82 438.76 264.2 438.76 270.89C438.76 275.71 441.42 277.48 443.39 277.48C445.46 277.48 447.82 276.2 448.7 273.35C448.9 272.66 449 271.87 449 271.09V262.73L448.99 262.72Z" fill="black"/>
<path d="M498.07 270.99L495.12 286.14H482.62L496.99 219.82H512.44L525.33 286.14H512.83L509.98 270.99H498.07ZM508.8 260.95L506.63 247.08C505.94 243.04 505.06 236.45 504.46 232.03H504.17C503.48 236.46 502.5 243.34 501.81 247.18L499.35 260.96H508.8V260.95Z" fill="black"/>
<path d="M566.65 238.03C566.45 242.36 566.16 247.48 566.16 253.28V280.73C566.16 291.06 564.29 296.77 560.36 300.51C556.82 303.85 551.8 305.82 544.71 305.82C540.28 305.82 536.15 305.03 532.71 303.56L535.07 293.62C537.53 294.7 540.58 295.69 544.32 295.69C550.82 295.69 553.37 291.36 553.37 283.98V281.03H553.17C551.5 284.08 548.15 285.85 544.51 285.85C533.69 285.85 529.46 274.04 529.46 262.53C529.46 246.49 536.74 237.24 545.69 237.24C549.53 237.24 552.68 239.21 554.55 242.85H554.75L555.44 238.03H566.66H566.65ZM553.36 255.54C553.36 254.26 553.16 252.98 552.87 252C552.28 249.93 550.9 248.06 548.74 248.06C544.11 248.06 542.24 254.36 542.24 262.23C542.24 271.19 544.8 275.71 548.44 275.71C550.11 275.71 551.78 274.82 552.77 272.27C553.16 271.19 553.36 269.71 553.36 268.43V255.54Z" fill="black"/>
<path d="M575 252.49C575 247.67 574.8 242.45 574.61 238.03H585.83L586.52 245.02H586.81C588.98 239.9 592.81 237.25 596.36 237.25C597.64 237.25 598.33 237.25 599.11 237.45V250.24C598.32 250.04 597.44 250.04 596.36 250.04C593.61 250.04 589.97 251.91 588.49 256.93C588.2 258.01 588 259.68 588 261.75V286.15H575.01V252.5L575 252.49Z" fill="black"/>
<path d="M616.92 225.23C617.02 229.36 614.06 232.22 610.13 232.22C606.59 232.22 603.63 229.37 603.73 225.23C603.63 220.9 606.78 218.24 610.33 218.24C614.07 218.24 616.92 220.9 616.92 225.23ZM604.03 286.14V238.02H616.92V286.14H604.03Z" fill="black"/>
<path d="M652.63 285.35C651.35 285.94 648.1 286.73 644.46 286.73C632.26 286.73 624.29 278.27 624.29 262.53C624.29 247.67 633.05 237.34 646.33 237.34C649.38 237.34 652.13 238.03 653.42 238.62L651.75 248.75C650.67 248.36 649.09 247.86 646.93 247.86C640.73 247.86 637.09 253.77 637.09 262.13C637.09 270.49 640.73 276.2 646.73 276.2C648.6 276.2 650.18 275.91 651.55 275.22L652.63 285.35Z" fill="black"/>
<path d="M693.85 271.48C693.85 276.6 694.05 281.61 694.25 286.14H683.13L682.44 281.02H682.25C679.99 284.27 676.05 286.92 671.13 286.92C661.98 286.92 658.24 280.13 658.24 267.14V238.02H671.23V265.77C671.23 272.07 672.41 276.1 676.05 276.1C678.22 276.1 679.59 274.43 680.18 272.85C680.67 271.87 680.97 270.39 680.97 268.72V238.02H693.86V271.47L693.85 271.48Z" fill="black"/>
<path d="M703.1 218.05H715.99V286.14H703.1V218.05Z" fill="black"/>
<path d="M740.38 225.04V238.03H749.82V247.18H740.38V269.12C740.38 274.73 742.74 276.11 745.3 276.11C746.58 276.11 747.56 276.01 748.64 275.82L748.74 285.86C746.97 286.35 744.31 286.74 740.87 286.74C737.13 286.74 733.88 285.86 731.62 283.69C728.96 281.13 727.49 277.49 727.49 269.91V247.18H721.78V238.03H727.49V228.09L740.38 225.04Z" fill="black"/>
<path d="M791.05 271.48C791.05 276.6 791.25 281.61 791.45 286.14H780.33L779.64 281.02H779.45C777.19 284.27 773.25 286.92 768.33 286.92C759.18 286.92 755.44 280.13 755.44 267.14V238.02H768.43V265.77C768.43 272.07 769.61 276.1 773.25 276.1C775.42 276.1 776.79 274.43 777.38 272.85C777.87 271.87 778.17 270.39 778.17 268.72V238.02H791.06V271.47L791.05 271.48Z" fill="black"/>
<path d="M800.19 252.49C800.19 247.67 799.99 242.45 799.8 238.03H811.02L811.71 245.02H812C814.17 239.9 818 237.25 821.55 237.25C822.83 237.25 823.52 237.25 824.3 237.45V250.24C823.51 250.04 822.63 250.04 821.55 250.04C818.8 250.04 815.16 251.91 813.68 256.93C813.39 258.01 813.19 259.68 813.19 261.75V286.15H800.2V252.5L800.19 252.49Z" fill="black"/>
<path d="M850.76 286.14L850.07 281.42H849.87C847.21 285.16 843.48 286.93 839.24 286.93C831.96 286.93 826.55 280.83 826.55 272.27C826.55 259.68 837.67 254.46 848.59 254.36V253.28C848.59 249.54 846.33 246.78 841.8 246.78C837.96 246.78 834.81 247.77 831.96 249.54L829.6 240.88C832.26 239.31 837.86 237.24 844.56 237.24C859.22 237.24 861.58 247.47 861.58 257.21V275.12C861.58 278.96 861.77 282.89 862.37 286.14H850.76ZM848.99 262.72C844.66 262.82 838.75 264.2 838.75 270.89C838.75 275.71 841.41 277.48 843.38 277.48C845.45 277.48 847.81 276.2 848.7 273.35C848.89 272.66 848.99 271.87 848.99 271.09V262.72Z" fill="black"/>
</g>
<defs>
<clipPath id="clip0_723_935">
<rect width="1425.39" height="314.98" fill="white"/>
</clipPath>
</defs>
</svg>
