<svg width="1366" height="456" viewBox="0 0 1366 456" fill="none" xmlns="http://www.w3.org/2000/svg">
<g clip-path="url(#clip0_723_715)">
<path d="M1337.49 195.3C1319.52 163.75 1262.56 174.11 1232.89 172.12L1233.07 313.28C1242.33 313.22 1251.59 313.23 1260.85 313.3L1260.8 269.29C1300.21 269.7 1301.44 276.71 1313.72 312.91L1321.91 313.2L1343.91 313.26C1338.21 297.5 1331.09 272.53 1319.29 261.51C1343.72 246.48 1351.56 219.99 1337.49 195.29V195.3ZM1306.23 242.08C1292.99 253.21 1278.02 251.41 1261.21 251.64C1260.37 232.68 1260.59 209.79 1261.09 190.79C1275.39 190.72 1294.01 189.15 1305.16 198.69C1311.12 203.8 1314.78 211.1 1315.3 218.94C1315.88 228.61 1312.36 235.06 1306.23 242.07V242.08Z" fill="black"/>
<path d="M521.44 218.62C544 205.42 576.96 202.23 597.62 221.65C613.14 236.24 611.8 260.78 611.78 280.57L611.7 313.26C600.45 313.42 588.86 313.22 577.58 313.16C577.51 298.97 580.89 245.27 571.51 239.46C536.64 217.87 539.57 262.77 539.67 275.38C539.74 288.26 539.72 301.15 539.63 314.03C528.4 314.33 516.3 314.14 505 314.17C505.12 295.58 505.57 276.79 505 258.23C504.53 242.91 500.17 237.22 485.67 233.46C468.06 237.69 466.16 249.34 466.19 265.34C466.22 281.32 466.39 297.33 466.36 313.31L432.35 313.24C432.7 271.66 421.16 217.01 475.67 208.58C494.52 207.83 505.67 207.63 521.45 218.62H521.44Z" fill="black"/>
<path d="M1047.61 149.99C1060.36 118.74 1089.79 76.1695 1113.29 51.9095C1137.26 27.1695 1170.73 5.53955 1205.52 1.33955C1222.66 -0.73045 1251.35 0.20955 1269.89 0.21955L1366 0.0295497C1365.64 30.5795 1352.38 43.2695 1325.93 56.8895C1306.3 66.9995 1299.41 78.8696 1276.19 86.3596C1261.43 91.1196 1246.15 90.7996 1233.23 94.7296L1232.28 94.1496C1236.5 90.2196 1238.27 76.7095 1238.63 70.9995C1264.22 70.9495 1290.7 68.5995 1315.18 60.7995C1319.94 50.5995 1321.4 43.5395 1323.69 32.7095C1299.95 32.4295 1276.21 32.3295 1252.46 32.4195C1237.16 32.3795 1215.96 31.6895 1201.51 33.4995C1167.09 37.7996 1132.93 61.2395 1108.49 85.1796C1090.58 102.73 1067.6 130.96 1053.66 152.36L1048.88 151.68L1047.61 149.98V149.99Z" fill="black"/>
<path d="M1223.95 211.01C1221.94 199.47 1215.29 189.26 1205.54 182.77C1182.77 167.29 1141.31 173.61 1113.29 172.4L1113.12 313.16L1141.85 313.3C1141.75 298.43 1141.57 283.56 1141.28 268.7C1151.32 268.75 1170.42 269.28 1179.51 267.77C1209.11 262.37 1229.65 242.77 1223.94 211.01H1223.95ZM1186.65 242.29C1174.55 252.81 1157.44 251.38 1141.8 251.92C1141.9 231.57 1141.7 211.21 1141.18 190.86C1155.2 190.72 1175.79 189.14 1186.61 199.32C1199.96 211.88 1198.59 229.27 1186.64 242.3L1186.65 242.29Z" fill="black"/>
<path d="M1043.72 255.72C1040.5 225.41 1013.29 203.47 982.98 206.74C952.75 210.01 930.88 237.14 934.1 267.37C937.31 297.6 964.39 319.52 994.63 316.37C1024.95 313.21 1046.94 286.03 1043.72 255.72ZM1008.91 279.59C1006.02 286.01 1001.06 288.76 994.57 290.69C988.37 290.87 982.79 291.18 977.03 288.07C962.57 280.26 962.17 255.61 969.26 242.72C972.89 236.13 977.27 234.09 984.22 232.3C1012.13 228.39 1017.9 259.57 1008.91 279.58V279.59Z" fill="black"/>
<path d="M422.55 256.09C419.54 225.9 392.69 203.82 362.48 206.7C332.09 209.6 309.85 236.65 312.88 267.02C315.91 297.4 343.05 319.52 373.42 316.37C403.6 313.23 425.56 286.28 422.55 256.09ZM387.37 280.27C383.66 287.03 379.47 288.9 372.56 290.81C365.63 290.74 360.42 291.32 354.26 287.12C341.09 278.16 340.97 252.55 349.63 240.43C353.92 234.43 358.54 233.14 365.4 232.23C391.3 228.26 396.77 263.12 387.37 280.26V280.27Z" fill="black"/>
<path d="M0.99 170.92C39.01 169.94 80.76 170.8 119.08 170.8L119.03 199.36C92.9 200.11 64.1 199.57 37.68 199.62L37.85 226.9C46.48 226.85 99.83 225.74 103.07 227.69L103.34 230.89L103.28 255.38C81.58 255.72 59.43 255.55 37.69 255.61L37.74 313.22C25.64 313.38 13.26 313.25 1.13 313.26C0.6 266.11 1.28 218.22 0.99 170.92Z" fill="black"/>
<path d="M728.97 272.18C728.98 264.12 729.2 257.24 727.53 249.27C720.72 216.72 695.21 206.13 664.98 208.61C632.03 215.27 612.54 241.83 619.63 275.37C622.28 288.35 630.1 299.7 641.29 306.8C659.69 318.46 679.11 316.48 699.27 312.77C699.24 305.01 699.11 296.98 699.22 289.24C696.07 289.96 692.92 290.67 689.76 291.35C668.94 294.16 659.32 291.33 648.6 272.58C675.39 272.1 702.18 271.97 728.97 272.18ZM649.25 252.68C649.88 251.18 650.55 249.68 651.26 248.21C655.89 238.74 659.75 236.19 669.15 232.94C686.85 232 693.43 236.04 699.35 252.94L681.24 252.99C670.57 253.01 659.91 252.91 649.25 252.69V252.68Z" fill="black"/>
<path d="M161.15 208.58C111.92 217.96 95.57 275.3 136.52 306.61C151.46 318.03 176.46 316.23 194.34 312.99L194.41 289.36L187.14 291.17C167.35 294.31 153.66 292.32 144.97 272.31L192.94 272.21C202.25 272.21 215.77 272.57 224.63 271.57C226.72 229.9 203.75 204.36 161.16 208.58H161.15ZM176.41 252.99L145.09 252.9C149.59 241.52 153.24 236.81 165.23 232.9C182.57 231.92 188.86 237.09 195.22 252.88L176.42 252.99H176.41Z" fill="black"/>
<path d="M1037 365.03C1036.81 394.45 1036.83 423.87 1037.05 453.29C1060.8 453.52 1081.77 455.64 1101.63 439.72C1110.13 431.5 1115.03 422.95 1114.88 410.99C1114.27 364.04 1069.99 365.07 1037 365.03ZM1088.99 419.51C1087.88 422.05 1084.62 425.62 1082.76 427.78C1075.16 434.64 1068.44 435.59 1058.8 437.38L1058.84 381.35C1078.48 381.68 1098.33 398.14 1088.99 419.51Z" fill="black"/>
<path d="M285.93 208.63C293.56 208.04 301.24 208.39 308.9 208.57V231.16C307.66 231.11 306.42 231.07 305.18 231.05C252.86 230.17 247.35 293.98 308.85 292.2C308.69 298.45 310.5 308.67 307.91 313.79C307.1 315.4 303.8 315.52 301.64 315.92C283.34 316.36 267.65 314.42 252.38 303.25C241.21 295.14 233.78 282.87 231.75 269.22C229.91 255.85 233.49 242.3 241.68 231.57C252.85 216.86 268.26 211.05 285.93 208.62V208.63Z" fill="black"/>
<path d="M854.6 208.66C862.65 208.02 869.58 208.35 877.61 208.6L877.74 231.02C875.58 230.98 873.42 230.99 871.26 231.02C819.96 232.23 819.32 295.61 877.63 292.12C877.65 296.25 877.81 300.44 877.92 304.57C878.15 313.45 878.36 314.23 870.85 315.95C839.72 316.54 806.5 305.51 800.91 270.58C798.64 256.94 802.03 242.96 810.29 231.88C821.34 217.15 836.97 211.09 854.6 208.67V208.66Z" fill="black"/>
<path d="M789.62 206.98C792.34 206.6 799.21 206.76 802.31 206.77V230.79C767.53 232.74 771.58 245.39 771.74 273.67L771.81 313.25L752.51 313.27H737.78C737.75 300.89 736.76 251.9 738.64 242.76C739.98 236.06 742.98 229.8 747.37 224.56C758.62 211.22 773.24 208.24 789.63 206.99L789.62 206.98Z" fill="black"/>
<path d="M1068.96 142.97C1088.14 116.53 1132.32 93.7395 1165.01 94.3495C1186.9 94.7695 1210.63 93.4896 1232.29 94.1496L1233.24 94.7296C1221.45 126.37 1170.29 123.56 1143.18 124.78C1119.49 125.85 1095.77 136.47 1076.11 149.26C1062.68 159.61 1055.84 166.15 1043.73 177.92C1047.67 169.72 1062.85 149.75 1068.96 142.96V142.97Z" fill="black"/>
<path d="M1068.96 142.97L1068.65 143.7C1066.83 147.94 1064.71 149.75 1064.37 153.59C1068.07 154.76 1072.14 149.99 1076.11 149.26C1062.68 159.61 1055.84 166.15 1043.73 177.92C1047.67 169.72 1062.85 149.75 1068.96 142.96V142.97Z" fill="black"/>
<path d="M419.76 362.69C426.9 362.91 430.33 363.49 437.43 364.79C437.6 371.2 437.57 377.9 437.64 384.34C427.28 382.03 416.55 376.72 409.67 387.18C408.13 401.96 444.39 396.03 456.97 416.45C460.12 421.58 460.92 427.82 459.17 433.58C451.58 458.27 420.84 458.03 400.68 451.57C392.75 448.39 388.96 445.99 382.31 440.68C387.1 436.03 390.93 431.23 396.23 426.21C405.57 433.21 434.65 447.79 436.58 426.77C431.28 414.11 387.78 420.1 386.9 393.69C386.17 371.44 400.79 364.69 419.76 362.7V362.69Z" fill="black"/>
<path d="M645.88 384.52C641.64 385.1 641.68 384.35 639.25 387.02C637.66 391.77 638.97 396.54 638.7 402.02C655.58 401.27 660.11 398.16 668.96 413.73C655.92 411.38 637.95 408.87 626.83 417.38C607.96 431.83 619.55 449.71 638.51 454.69C644.14 455.04 645.63 455.07 651.11 454.31C656.33 453.59 664.77 448.46 668.01 449.16C667.98 450.5 667.99 451.74 668.26 453.05C672.54 453.97 684.47 453.37 689.42 453.27C689.83 417.9 697.81 377.61 645.88 384.53V384.52ZM656.94 440.12C649.52 440.93 639.7 440.5 640.57 430.51C643.15 425.89 645.54 425.16 650.54 423.68C656.99 423.72 668.35 423.62 667.7 432.61C664.97 437.1 661.77 438.56 656.94 440.13V440.12Z" fill="black"/>
<path d="M508.24 438.66C494.12 440.47 488.97 438.74 481.13 426.35L535.09 426.15C533.94 396.68 521.93 381.58 490.98 384.38C480.37 386.67 472.15 390.83 466.09 400.11C455.88 415.73 459.97 439.48 476.35 449.25C488.51 456.5 501.01 455.29 514.35 453.7C514.69 448.65 515.92 442.81 513.42 438.82C511.38 437.98 510.42 438.34 508.25 438.65L508.24 438.66ZM482.06 411.99C486.06 404.23 487.56 402.69 495.56 400.13C507.33 399.8 509.89 404.55 515.2 413.71L502.21 413.94C495.24 413.94 488.16 413.81 481.18 413.73C481.47 413.15 481.77 412.56 482.07 411.98L482.06 411.99Z" fill="black"/>
<path d="M27.14 389.89C27.36 376.09 47.53 382.45 55.21 384.22L55.18 364.58C34.36 361.74 10.37 360.92 4.64 387.09C-2.46 419.54 51.19 413.84 54.46 428.87C48.99 446.52 22.75 432.49 13.28 426.39C8.76 431.19 4.33 436.07 0 441.04C9.7 448.04 17.88 452.38 29.91 454.39C48.12 457.43 71.05 453.8 76.98 433.16C77.02 426.99 76.59 424.44 75.53 418.29C64.31 396.86 34.31 402.93 27.15 389.88L27.14 389.89Z" fill="black"/>
<path d="M98.78 426.29L152.56 426.03C152.56 415.3 151.51 405.94 144.79 396.95C132.95 380.98 106.51 379.84 91.52 391.77C82.53 398.92 79.32 407.43 78.18 418.49C78.31 423.26 79.05 426.83 79.9 431.51C87.59 455.3 111.25 456.97 132.2 453.06L132.26 438.02C115.97 440.11 108.28 441.74 98.77 426.3L98.78 426.29ZM113.22 400.16C125.17 399.72 127.5 404.35 132.65 413.83L120.19 414.03C113.05 413.97 105.62 414.08 98.55 413.37C103.37 405.5 104.59 402.85 113.22 400.17V400.16Z" fill="black"/>
<path d="M1023.58 375.18C1009.4 361.61 980.46 364.89 961.82 364.99C961.62 370.94 961.57 378.25 960.8 384.04V453.36L981.72 453.29L981.78 427.15C996.51 427.17 1012.46 427.69 1023.73 416.85C1035.32 406.25 1034.74 385.88 1023.58 375.19V375.18ZM1004.61 407.35C998.24 412.55 989.69 411.42 981.76 411.21V380.73C999.12 380.23 1020.16 387.14 1004.61 407.34V407.35Z" fill="black"/>
<path d="M958.43 382.94C957.9 377.21 958.23 370.87 958.38 365.06L889.28 365C889.06 394.4 889.02 423.8 889.18 453.2L910.78 453.31L910.88 417.41L949.37 417.35L949.31 399.16C936.49 399.14 923.42 399.25 910.63 399.07L910.75 383.34C922.14 383.33 948.23 383.98 958.45 382.92L958.43 382.94Z" fill="black"/>
<path d="M891.68 210.09C902.53 210.31 913.95 210.1 924.84 210.09L924.79 313.32L891.72 313.22L891.68 210.09Z" fill="black"/>
<path d="M566.68 384.42C619.41 380.6 612.02 413.3 611.65 453.19C604.19 453.31 596.54 453.25 589.06 453.27C588.97 439.51 591.73 413.73 584.74 403.93C557.06 391.07 564.31 437.71 564.25 453.33L540.91 453.31C540.59 424.89 533.73 394.55 566.68 384.43V384.42Z" fill="black"/>
<path d="M727.65 383.49C732.6 383.05 737.62 383.36 742.59 383.54C742.95 388.11 742.84 393.77 742.87 398.44C702.76 402.62 705.76 439.2 742.89 438.52C743.06 443.74 744.83 452.91 739.47 454.99C708.53 455.59 680.05 436.4 697.09 401.01C702.18 390.43 716.66 385.91 727.65 383.49Z" fill="black"/>
<path d="M180.08 402.29C182.69 397.78 190.34 398.01 195.12 398.01V383.36C176.42 382.89 161.98 384.64 155.28 405.11C156.19 408.48 157.24 413.03 158.53 416.17L159.6 416.83C171.53 424.2 191.29 424.13 194.39 432.83C192.48 441.34 180.28 438.55 173.87 436.98C168.65 435.75 163.57 433.95 158.73 431.63C158.61 437.71 158.37 443.87 158.74 449.92C177.44 455.81 209.89 460.64 217.18 435.52C217.58 434.16 217.95 432.79 218.29 431.41C217.78 428.36 216.64 424.62 215.8 421.58C206.07 408.45 184.04 410.5 180.07 402.28L180.08 402.29Z" fill="black"/>
<path d="M243.65 410.06C247.93 402.18 261.38 399.55 269.84 398.18L269.33 383.61C267.8 383.5 266.28 383.42 264.75 383.37C238.68 382.52 219.22 393.87 218.75 421.6L220.06 428.97C227.78 448.13 240.32 453.2 260.56 455.76C263.92 456.19 266.37 455.23 268.74 452.95C270.1 448.79 269.63 442.94 269.55 438.39C254.29 438.67 232.17 431.21 243.66 410.06H243.65Z" fill="black"/>
<path d="M856.75 365L878.56 365.05C878.05 393.86 878.51 424.3 878.5 453.23L856.75 453.26V365Z" fill="black"/>
<path d="M682.63 160.54C687.27 161.28 706.55 170.33 711.25 172.54C703.73 177.84 694.12 187.84 685.74 194.38C681.49 197.28 665.24 196.16 659.2 196.01C665.02 186.04 675.94 170.6 682.64 160.54H682.63Z" fill="black"/>
<path d="M891.88 172.47L924.85 172.64L924.76 195.93C913.73 196.11 902.69 196.08 891.65 195.84C891.65 188.05 891.73 180.26 891.88 172.47Z" fill="black"/>
<path d="M1047.61 149.99L1048.88 151.69L1053.66 152.37C1046.69 163.62 1039.79 174.9 1032.94 186.23C1036.44 174.54 1042.62 161.13 1047.6 150L1047.61 149.99Z" fill="black"/>
</g>
<defs>
<clipPath id="clip0_723_715">
<rect width="1366" height="455.86" fill="white"/>
</clipPath>
</defs>
</svg>
