<svg width="1412" height="324" viewBox="0 0 1412 324" fill="none" xmlns="http://www.w3.org/2000/svg">
<g clip-path="url(#clip0_723_1022)">
<path d="M565.14 126.11H482.77L482.99 153.13H518.68L518.54 198.2C508.05 200.82 486.54 200.49 476.25 196.6C449.42 186.03 437.15 165.76 437.15 137.08C437.15 93.23 454.34 62.01 506.4 62.01C516.48 62.01 530.94 63.58 550.44 69.48L553.86 42.24C536.76 37.14 518.53 33.26 493.05 33.26C400.73 33.26 383.89 91.35 383.89 141.94C383.89 184.19 418.13 228.31 487.09 228.31C514.5 228.31 545.7 222.27 565.19 214.17L565.14 126.11Z" fill="black"/>
<path d="M778.92 17.18L778.87 225.44H826.05V17.18H778.92Z" fill="black"/>
<path d="M833.03 83.53C843.52 94.45 855.67 111.18 866.51 131.73C878.24 153.93 887.64 179.27 892.61 203.96C894.38 212.86 895.23 220.34 895.97 225.43H925.55C955.16 196.02 989.01 140.29 989.03 83.53H958.51C958.36 101.81 953.52 140.86 928.01 180.44C927.56 177.49 926.66 169.74 925.34 163.14C919.72 135.14 907.04 107.5 887.74 83.53H833.03Z" fill="black"/>
<path d="M1184.05 225.43H1229.88C1230.51 190.1 1231.69 164.25 1239.24 142C1241.62 135.91 1252.14 111.12 1270.16 111.12C1273.77 111.12 1282.2 112.26 1284.08 121.61C1284.88 125.63 1285.03 131.36 1284.86 136.31V225.42H1331.98V133.36C1332.05 125.47 1331.88 117.86 1330.74 112.1C1325.59 86.45 1300.11 80.64 1285.92 80.64C1250.41 80.64 1233.72 108.45 1227.55 125.38L1227.66 83.52H1183.93L1184.05 225.43Z" fill="black"/>
<path d="M1411.54 83.53H1364.1V225.43H1411.54V83.53Z" fill="black"/>
<path d="M1411.54 17.18H1364.1V56.18H1411.54V17.18Z" fill="black"/>
<path fill-rule="evenodd" clip-rule="evenodd" d="M745.28 90.56C719.72 83.02 697.04 80.65 683.33 80.65C605.22 80.65 582.92 142.34 590.93 182.26C596.41 209.63 616.66 228.3 645.37 228.3C665.13 228.3 687.03 220.34 701.47 181.99L701.69 225.43H745.19L745.27 90.56H745.28ZM640.85 179.32C635.61 153.2 648.12 103.08 685.88 103.08C688.49 103.08 692.95 103.08 699.37 104.58C698.38 129.49 694.82 152.04 686.84 171.94C681.17 186.79 673.02 197.83 660.92 197.83C652.65 197.83 643.5 192.46 640.92 179.6L640.85 179.31V179.32Z" fill="black"/>
<path fill-rule="evenodd" clip-rule="evenodd" d="M1046.02 179.32C1040.78 153.2 1053.29 103.08 1091.06 103.08C1093.64 103.08 1098.12 103.08 1104.54 104.58C1103.56 129.49 1100 152.04 1092.01 171.94C1086.35 186.79 1078.19 197.83 1066.09 197.83C1057.83 197.83 1048.65 192.46 1046.07 179.61L1046.01 179.32H1046.02ZM1150.45 90.56C1124.91 83.02 1102.22 80.65 1088.51 80.65C1010.39 80.65 988.09 142.34 996.1 182.26C1001.59 209.63 1021.84 228.3 1050.55 228.3C1070.3 228.3 1092.21 220.34 1106.66 181.99L1106.85 225.43H1150.37L1150.44 90.56H1150.45Z" fill="black"/>
<path d="M209.18 316.63C194.32 321.11 178.56 323.52 162.24 323.52C145.92 323.52 130.17 321.11 115.31 316.63L115.41 248.88C115.53 223.08 136.48 202.2 162.31 202.2C188.14 202.2 209.04 223.08 209.17 248.88L209.19 316.63H209.18Z" fill="black"/>
<path d="M38.89 266.76C27.09 252.97 17.57 237.16 10.9 219.94H68.01C72.33 219.94 75.91 220.46 77.31 223.59C77.92 224.95 77.66 226.44 76.89 227.95C76.12 229.46 74.96 230.73 74.32 231.34L38.89 266.77V266.76Z" fill="black"/>
<path d="M98.53 310.62C80.83 303.06 64.74 292.42 50.93 279.41L86.33 244.01C87.77 242.51 91.94 239.46 95.23 241.11C97.75 242.37 98.54 246.17 98.54 250.48V310.62H98.53Z" fill="black"/>
<path d="M273.54 279.41C259.74 292.42 243.65 303.06 225.95 310.62V250.48C225.95 246.18 226.74 242.37 229.25 241.11C232.54 239.46 236.71 242.51 238.15 244.01L273.54 279.41Z" fill="black"/>
<path d="M313.59 219.94C306.92 237.16 297.4 252.97 285.6 266.76L250.17 231.34C249.53 230.73 248.37 229.46 247.59 227.95C246.81 226.44 246.56 224.95 247.17 223.59C248.57 220.46 252.15 219.94 256.47 219.94H313.59Z" fill="black"/>
<path fill-rule="evenodd" clip-rule="evenodd" d="M179.89 0C261.11 8.88 324.49 77.7 324.49 161.28C324.49 175.73 322.6 189.74 319.05 203.08H263.98C217.1 203.07 179.89 165.42 179.89 118.53V0Z" fill="black"/>
<path fill-rule="evenodd" clip-rule="evenodd" d="M144.77 118.53C144.77 165.42 106.8 203.07 59.91 203.07H5.43C1.88 189.74 0 175.73 0 161.28C0 77.77 63.66 9.01 144.77 0.03V118.53Z" fill="black"/>
</g>
<defs>
<clipPath id="clip0_723_1022">
<rect width="1411.55" height="323.52" fill="white"/>
</clipPath>
</defs>
</svg>
