<svg width="1316" height="318" viewBox="0 0 1316 318" fill="none" xmlns="http://www.w3.org/2000/svg">
<g clip-path="url(#clip0_723_768)">
<path d="M576.6 163.33H538.72C525.99 163.33 519.62 157.72 519.62 146.5C519.62 142.18 520.21 138.4 521.4 135.16C522.58 131.93 523.61 129.77 524.48 128.69H591.49C606.81 128.69 614.47 136.03 614.47 150.71V253.01C612.75 253.44 609.61 253.93 605.09 254.46C600.55 255 595.11 255.6 588.73 256.25C582.37 256.9 575.3 257.43 567.53 257.87C559.75 258.3 551.67 258.52 543.25 258.52C524.47 258.52 507.21 256.04 491.45 251.07C475.69 246.11 462.15 238.77 450.82 229.06C439.49 219.35 430.64 207.21 424.28 192.64C417.91 178.07 414.73 161.18 414.73 141.97C414.73 123.84 417.85 107.55 424.11 93.09C430.37 78.63 439.01 66.33 450.02 56.18C461.03 46.03 474.02 38.27 489.02 32.87C504.01 27.48 520.26 24.77 537.74 24.77C546.59 24.77 554.57 25.31 561.7 26.39C568.82 27.47 575.07 28.82 580.47 30.43C585.87 32.05 590.45 33.73 594.23 35.45C598 37.18 600.97 38.8 603.13 40.31C607.02 42.89 609.87 45.65 611.71 48.56C613.54 51.47 614.46 54.44 614.46 57.46C614.46 60.27 613.86 62.92 612.68 65.4C611.49 67.88 610.09 70.14 608.47 72.19C606.85 74.25 605.18 76.03 603.45 77.53C601.72 79.05 600.22 80.24 598.92 81.1C596.54 78.72 593.47 76.24 589.69 73.65C585.92 71.06 581.38 68.74 576.09 66.68C570.8 64.64 564.93 62.91 558.45 61.5C551.97 60.1 544.85 59.39 537.08 59.39C524.99 59.39 513.98 61.29 504.05 65.06C494.13 68.84 485.49 74.29 478.15 81.41C470.81 88.53 465.15 97.23 461.15 107.47C457.16 117.72 455.16 129.22 455.16 141.95C455.16 156.2 457.32 168.49 461.63 178.85C465.95 189.21 472.1 197.68 480.09 204.26C488.07 210.85 497.51 215.75 508.41 218.99C519.31 222.23 531.44 223.85 544.83 223.85C552.81 223.85 559.72 223.64 565.55 223.2C571.37 222.77 575.04 222.34 576.56 221.9V163.31L576.6 163.33Z" fill="black"/>
<path d="M683.43 163.98C688.39 164.2 693.14 164.31 697.67 164.31H711.27C723.14 164.31 732.75 163.55 740.08 162.04C747.41 160.54 753.14 158.59 757.24 156.21C761.34 153.84 764.04 151.14 765.34 148.11C766.64 145.09 767.28 141.96 767.28 138.73C767.28 130.53 763.98 124.38 757.4 120.27C750.81 116.18 742.67 114.12 732.95 114.12C724.96 114.12 717.95 115.53 711.91 118.33C705.87 121.14 700.79 124.86 696.69 129.5C692.59 134.14 689.41 139.48 687.14 145.53C684.88 151.58 683.63 157.72 683.42 163.98M797.07 240.71C795.34 241.78 792.64 243.29 788.97 245.24C785.29 247.18 780.71 249.02 775.21 250.74C769.71 252.47 763.34 253.97 756.11 255.28C748.87 256.57 740.94 257.22 732.31 257.22C720.22 257.22 708.95 255.38 698.48 251.72C688.01 248.05 678.84 242.61 670.96 235.37C663.08 228.14 656.88 219.3 652.35 208.83C647.82 198.36 645.55 186.33 645.55 172.74C645.55 159.15 647.77 147.97 652.19 137.29C656.61 126.61 662.76 117.44 670.65 109.78C678.52 102.12 687.81 96.18 698.49 91.97C709.17 87.76 720.88 85.65 733.61 85.65C744.83 85.65 754.76 87.11 763.39 90.02C772.02 92.94 779.3 96.82 785.24 101.68C791.17 106.54 795.65 112.2 798.68 118.68C801.7 125.15 803.22 132.06 803.22 139.4C803.22 146.74 801.81 153.8 799 159.96C796.19 166.11 791.23 171.4 784.11 175.82C776.98 180.24 767.38 183.7 755.29 186.17C743.21 188.65 727.88 189.89 709.32 189.89C705 189.89 700.95 189.84 697.18 189.73C693.41 189.62 689.36 189.46 685.04 189.24C686.77 200.25 692.11 209.15 701.07 215.95C710.02 222.75 722.81 226.15 739.44 226.15C745.04 226.15 750.23 225.72 754.98 224.85C759.72 223.99 763.99 222.91 767.77 221.61C771.54 220.31 774.78 219.02 777.48 217.73C780.17 216.43 782.17 215.46 783.47 214.81L797.07 240.71Z" fill="black"/>
<path d="M831.7 61.36C831.7 55.32 833.42 50.95 836.88 48.24C840.33 45.55 845.08 44.2 851.13 44.2C855.01 44.2 858.63 44.69 861.97 45.66C865.32 46.63 867.52 47.33 868.61 47.77V90.18H915.56C922.68 90.18 927.7 91.63 930.61 94.54C933.52 97.45 934.97 101.72 934.97 107.33C934.97 111 934.44 114.4 933.35 117.53C932.27 120.66 931.41 122.88 930.77 124.17H868.61V196.37C868.61 201.98 869.37 206.57 870.87 210.13C872.38 213.69 874.49 216.55 877.19 218.7C879.89 220.87 883.01 222.38 886.58 223.24C890.15 224.11 893.87 224.54 897.75 224.54C904.01 224.54 909.83 223.57 915.23 221.63C920.63 219.69 924.51 217.86 926.89 216.13L941.78 240.73C940.06 242.03 937.63 243.64 934.5 245.59C931.38 247.53 927.54 249.37 923.01 251.1C918.48 252.83 913.4 254.28 907.79 255.47C902.18 256.65 896.03 257.25 889.34 257.25C870.34 257.25 856 252.34 846.28 242.52C836.57 232.7 831.71 219.81 831.71 203.84V61.36H831.7Z" fill="black"/>
<path d="M1070.61 180.17C1068.45 179.74 1064.41 179.09 1058.47 178.23C1052.53 177.37 1043.63 176.93 1031.76 176.93C1017.09 176.93 1006.4 179.14 999.71 183.57C993.02 188 989.67 194.96 989.67 204.45C989.67 208.33 990.38 211.9 991.78 215.13C993.18 218.37 995.61 221.13 999.07 223.39C1002.52 225.65 1007.22 227.38 1013.15 228.57C1019.08 229.76 1026.47 230.35 1035.32 230.35C1045.24 230.35 1053.13 229.98 1058.96 229.22C1064.78 228.46 1068.66 227.87 1070.61 227.44V180.17ZM1107.2 252.03C1105.03 252.47 1101.64 252.95 1096.99 253.49C1092.35 254.02 1086.9 254.56 1080.64 255.11C1074.38 255.64 1067.37 256.13 1059.6 256.56C1051.83 256.99 1043.74 257.21 1035.32 257.21C1018.49 257.21 1004.73 255.75 994.05 252.84C983.36 249.93 974.95 246.04 968.79 241.18C962.64 236.32 958.43 230.71 956.17 224.35C953.9 217.98 952.77 211.46 952.77 204.76C952.77 195.92 954.11 188.15 956.82 181.46C959.51 174.77 963.94 169.16 970.09 164.63C976.24 160.09 984.28 156.7 994.21 154.43C1004.14 152.17 1016.23 151.03 1030.47 151.03C1038.67 151.03 1046.44 151.3 1053.78 151.84C1061.11 152.38 1066.62 152.87 1070.28 153.29C1070.28 145.74 1069.04 139.49 1066.56 134.51C1064.08 129.55 1060.68 125.67 1056.36 122.86C1052.04 120.05 1046.85 118.11 1040.81 117.03C1034.77 115.95 1028.07 115.41 1020.74 115.41C1008.43 115.41 998.57 116.81 991.12 119.62C983.67 122.42 978.77 124.8 976.39 126.74C975.09 125.66 973.32 123.62 971.05 120.59C968.79 117.57 967.65 113.9 967.65 109.58C967.65 106.56 968.45 103.6 970.08 100.68C971.7 97.77 974.56 95.18 978.66 92.91C982.75 90.65 988.26 88.87 995.17 87.57C1002.07 86.27 1010.81 85.63 1021.39 85.63C1034.12 85.63 1045.72 86.88 1056.19 89.35C1066.66 91.84 1075.66 95.77 1083.22 101.16C1090.78 106.56 1096.66 113.68 1100.87 122.53C1105.08 131.38 1107.19 142.07 1107.19 154.58V252.02L1107.2 252.03Z" fill="black"/>
<path d="M1227.94 224.2C1235.28 224.2 1242.02 222.85 1248.18 220.15C1254.33 217.46 1259.62 213.74 1264.04 208.99C1268.45 204.25 1271.86 198.63 1274.24 192.16C1276.61 185.69 1277.8 178.68 1277.8 171.12C1277.8 163.56 1276.61 156.93 1274.24 150.55C1271.86 144.18 1268.46 138.68 1264.04 134.05C1259.61 129.41 1254.33 125.74 1248.18 123.04C1242.03 120.34 1235.28 118.99 1227.94 118.99C1220.6 118.99 1213.86 120.29 1207.71 122.88C1201.56 125.47 1196.27 129.03 1191.85 133.56C1187.43 138.1 1183.97 143.55 1181.49 149.92C1179.01 156.28 1177.77 163.35 1177.77 171.12C1177.77 178.89 1179.01 185.69 1181.49 192.16C1183.97 198.63 1187.36 204.25 1191.69 208.99C1196.01 213.74 1201.24 217.46 1207.39 220.15C1213.54 222.86 1220.39 224.2 1227.95 224.2M1141.18 178.88C1141.18 163.77 1143.34 150.44 1147.65 138.9C1151.97 127.35 1158.02 117.64 1165.79 109.76C1173.56 101.88 1182.94 95.89 1193.95 91.79C1204.96 87.7 1217.15 85.64 1230.53 85.64C1242.84 85.64 1254.16 87.81 1264.52 92.12C1274.88 96.44 1283.89 102.37 1291.55 109.92C1299.21 117.47 1305.2 126.55 1309.52 137.11C1313.83 147.69 1315.99 159.13 1315.99 171.43C1315.99 183.73 1313.89 195.44 1309.67 205.91C1305.46 216.39 1299.64 225.39 1292.19 232.95C1284.75 240.51 1276.01 246.38 1265.97 250.59C1255.94 254.8 1244.98 256.91 1233.12 256.91C1221.26 256.91 1209.91 254.53 1200.42 249.79C1190.92 245.04 1183.47 239.22 1178.08 232.3V317.44H1141.18V178.88Z" fill="black"/>
<path d="M283.59 0H188.95C144.28 0 102.09 12.12 66.96 35.07C23.15 63.67 0 101.31 0 143.91V286.5C0 295.27 7.1 302.38 15.87 302.38H85.01C92.33 302.38 98.26 296.45 98.26 289.13V219.41C98.26 210.86 91.69 203.48 83.15 203.1C74.09 202.71 66.61 209.93 66.61 218.91V270.67C66.61 270.67 66.58 270.73 66.56 270.73H31.7C31.7 270.73 31.65 270.7 31.65 270.67V143.9C31.65 112.06 49.35 84.36 84.27 61.55C114.24 41.99 150.44 31.64 188.95 31.64H267.76C267.76 31.64 267.81 31.66 267.81 31.7V151.18C267.81 184.52 255.55 212.63 231.4 234.83C231.36 234.86 231.3 234.83 231.3 234.79V91.51C231.3 82.96 224.74 75.59 216.19 75.21C207.13 74.81 199.65 82.04 199.65 91.02V274.5C199.65 282.44 208 287.54 215.11 284.01C227.71 277.75 239.41 269.97 249.9 260.77C281.73 232.85 299.46 192.19 299.46 149.86V15.87C299.46 7.1 292.36 0 283.59 0Z" fill="black"/>
<path d="M149.73 297.94C141.28 297.94 134.43 291.09 134.43 282.64V143.81C134.43 135.36 141.28 128.51 149.73 128.51C158.18 128.51 165.03 135.36 165.03 143.81V282.64C165.03 291.09 158.18 297.94 149.73 297.94Z" fill="black"/>
</g>
<defs>
<clipPath id="clip0_723_768">
<rect width="1316" height="317.43" fill="white"/>
</clipPath>
</defs>
</svg>
