<svg width="1315" height="470" viewBox="0 0 1315 470" fill="none" xmlns="http://www.w3.org/2000/svg">
<g clip-path="url(#clip0_723_1281)">
<path d="M123.92 455C120.49 455 117.31 454.35 114.36 453.04C111.41 451.73 108.84 449.95 106.66 447.69C104.47 445.43 102.76 442.78 101.52 439.74C100.28 436.7 99.66 433.44 99.66 429.97C99.66 426.5 100.28 423.25 101.52 420.23C102.76 417.21 104.46 414.57 106.62 412.31C108.78 410.05 111.35 408.27 114.33 406.96C117.3 405.65 120.5 405 123.92 405C127.34 405 130.54 405.65 133.52 406.96C136.49 408.27 139.07 410.05 141.26 412.31C143.45 414.57 145.16 417.21 146.4 420.23C147.64 423.25 148.26 426.5 148.26 429.97C148.26 433.44 147.64 436.7 146.4 439.74C145.16 442.78 143.45 445.44 141.26 447.69C139.07 449.95 136.49 451.73 133.52 453.04C130.55 454.35 127.35 455 123.92 455ZM123.92 448.58C126.53 448.58 128.9 448.08 131.02 447.08C133.14 446.08 134.94 444.73 136.44 443.01C137.94 441.3 139.09 439.31 139.9 437.05C140.71 434.79 141.11 432.4 141.11 429.88C141.11 427.36 140.71 424.9 139.9 422.64C139.09 420.38 137.94 418.39 136.44 416.68C134.94 414.97 133.13 413.63 131.02 412.65C128.9 411.68 126.53 411.19 123.92 411.19C121.31 411.19 118.95 411.68 116.86 412.65C114.77 413.63 112.97 414.97 111.47 416.68C109.97 418.39 108.82 420.38 108.01 422.64C107.2 424.9 106.8 427.31 106.8 429.88C106.8 432.45 107.2 434.79 108.01 437.05C108.82 439.31 109.97 441.3 111.47 443.01C112.97 444.72 114.77 446.08 116.86 447.08C118.95 448.08 121.31 448.58 123.92 448.58Z" fill="black"/>
<path d="M187.23 406.2C190.46 406.2 193.14 406.65 195.25 407.56C197.37 408.46 199.05 409.61 200.31 410.98C201.57 412.36 202.45 413.91 202.95 415.62C203.45 417.33 203.7 419 203.7 420.61C203.7 422.99 203.29 425.08 202.49 426.89C201.68 428.7 200.56 430.21 199.14 431.42C197.71 432.63 196.01 433.55 194.04 434.17C192.06 434.79 189.91 435.1 187.58 435.1H178.95V453.79H172.17V406.2H187.23ZM187.52 429.25C190.47 429.25 192.74 428.5 194.33 427C195.92 425.5 196.72 423.42 196.72 420.76C196.72 418.1 195.9 415.92 194.26 414.37C192.62 412.83 190.37 412.05 187.52 412.05H178.96V429.24H187.52V429.25Z" fill="black"/>
<path d="M226.26 406.2H256.23V412.26H233.11V426.1H250.52V432.23H233.11V447.64H257.94V453.78H226.26V406.19V406.2Z" fill="black"/>
<path d="M280.39 406.2H295.59C298.63 406.2 301.2 406.62 303.3 407.45C305.39 408.28 307.09 409.35 308.4 410.66C309.71 411.97 310.66 413.45 311.26 415.12C311.85 416.78 312.15 418.47 312.15 420.18C312.15 423.22 311.44 425.91 310.01 428.24C308.58 430.57 306.37 432.31 303.38 433.45L314.51 453.78H306.8L296.6 434.3H287.04V453.78H280.4V406.19L280.39 406.2ZM296.16 428.53C299.16 428.53 301.4 427.79 302.9 426.32C304.4 424.85 305.15 422.87 305.15 420.4C305.15 417.79 304.34 415.75 302.73 414.3C301.11 412.85 298.88 412.12 296.03 412.12H287.04V428.53H296.17H296.16Z" fill="black"/>
<path d="M352.95 406.2H359.94L378.56 453.79H370.93L366.01 440.52H346.46L341.54 453.79H334.34L352.96 406.2H352.95ZM363.93 434.74L356.22 413.84L348.44 434.74H363.93Z" fill="black"/>
<path d="M437.9 445.44C437.38 446.29 436.57 447.27 435.48 448.36C434.39 449.46 433.06 450.49 431.49 451.46C429.92 452.44 428.11 453.26 426.07 453.92C424.02 454.59 421.76 454.92 419.29 454.92C415.77 454.92 412.56 454.3 409.66 453.06C406.76 451.82 404.26 450.1 402.17 447.89C400.08 445.68 398.45 443.06 397.28 440.04C396.11 437.02 395.53 433.73 395.53 430.16C395.53 426.59 396.11 423.43 397.28 420.38C398.44 417.34 400.07 414.67 402.17 412.39C404.26 410.11 406.77 408.31 409.7 407C412.62 405.69 415.87 405.04 419.44 405.04C421.96 405.04 424.22 405.35 426.22 405.97C428.22 406.59 429.96 407.36 431.46 408.29C432.96 409.22 434.24 410.23 435.31 411.32C436.38 412.42 437.25 413.46 437.91 414.46L433.06 418.6C432.49 417.79 431.81 416.95 431.03 416.07C430.25 415.19 429.3 414.39 428.21 413.68C427.12 412.97 425.86 412.37 424.43 411.9C423 411.43 421.36 411.19 419.51 411.19C416.89 411.19 414.55 411.69 412.48 412.69C410.41 413.69 408.65 415.04 407.2 416.76C405.75 418.47 404.65 420.47 403.88 422.75C403.12 425.03 402.74 427.46 402.74 430.03C402.74 432.6 403.14 435.01 403.92 437.27C404.7 439.53 405.81 441.49 407.24 443.15C408.67 444.82 410.4 446.12 412.45 447.07C414.5 448.02 416.78 448.5 419.3 448.5C421.44 448.5 423.28 448.23 424.83 447.68C426.37 447.14 427.68 446.48 428.75 445.72C429.82 444.96 430.7 444.19 431.39 443.4C432.08 442.62 432.66 441.96 433.14 441.44L437.92 445.44H437.9ZM411.22 464.63C412.03 464.92 412.87 465.15 413.75 465.34C414.63 465.53 415.55 465.62 416.5 465.62C419.5 465.62 420.99 464.72 420.99 462.91C420.99 462.24 420.67 461.71 420.03 461.31C419.39 460.9 418.38 460.7 417 460.7C415.24 460.7 413.55 460.98 411.94 461.55C412.08 460.88 412.21 460.21 412.33 459.52C412.45 458.83 412.55 458.15 412.65 457.49C413.5 457.25 414.39 457.04 415.29 456.85C416.19 456.66 417.36 456.56 418.79 456.56C421.36 456.56 423.31 457.18 424.64 458.42C425.97 459.66 426.64 461.11 426.64 462.77C426.64 463.91 426.39 464.92 425.89 465.8C425.39 466.68 424.71 467.41 423.86 467.98C423.01 468.55 422.03 468.99 420.93 469.3C419.84 469.61 418.7 469.77 417.51 469.77C415.46 469.77 413.84 469.61 412.62 469.3C411.41 468.99 410.68 468.79 410.44 468.69C410.58 468.02 410.73 467.35 410.87 466.66C411.02 465.97 411.13 465.29 411.23 464.63H411.22Z" fill="black"/>
<path d="M481.51 455C478.09 455 474.9 454.35 471.95 453.04C469 451.73 466.43 449.95 464.24 447.69C462.05 445.43 460.34 442.78 459.1 439.74C457.86 436.7 457.25 433.44 457.25 429.97C457.25 426.5 457.87 423.25 459.1 420.23C460.34 417.21 462.04 414.57 464.2 412.31C466.36 410.05 468.93 408.27 471.91 406.96C474.88 405.65 478.08 405 481.51 405C484.94 405 488.13 405.65 491.11 406.96C494.08 408.27 496.66 410.05 498.85 412.31C501.04 414.57 502.75 417.21 503.99 420.23C505.22 423.25 505.84 426.5 505.84 429.97C505.84 433.44 505.22 436.7 503.99 439.74C502.75 442.78 501.04 445.44 498.85 447.69C496.66 449.95 494.08 451.73 491.11 453.04C488.14 454.35 484.94 455 481.51 455ZM481.51 448.58C484.13 448.58 486.49 448.08 488.61 447.08C490.73 446.08 492.53 444.73 494.03 443.01C495.53 441.3 496.68 439.31 497.49 437.05C498.3 434.79 498.7 432.4 498.7 429.88C498.7 427.36 498.29 424.9 497.49 422.64C496.68 420.38 495.53 418.39 494.03 416.68C492.53 414.97 490.72 413.63 488.61 412.65C486.49 411.68 484.13 411.19 481.51 411.19C478.89 411.19 476.54 411.68 474.45 412.65C472.36 413.63 470.56 414.97 469.07 416.68C467.58 418.39 466.42 420.38 465.61 422.64C464.8 424.9 464.4 427.31 464.4 429.88C464.4 432.45 464.81 434.79 465.61 437.05C466.42 439.31 467.57 441.3 469.07 443.01C470.57 444.72 472.36 446.08 474.45 447.08C476.54 448.08 478.9 448.58 481.51 448.58ZM468.09 396.86C468.99 395.91 470.17 395 471.62 394.11C473.07 393.23 474.7 392.79 476.51 392.79C477.6 392.79 478.54 392.96 479.33 393.29C480.12 393.62 480.85 393.98 481.54 394.36C482.23 394.74 482.92 395.1 483.61 395.43C484.3 395.76 485.12 395.93 486.07 395.93C487.45 395.93 488.6 395.66 489.53 395.11C490.46 394.56 491.32 393.96 492.13 393.29C492.61 393.96 493.09 394.63 493.59 395.32C494.09 396.01 494.58 396.71 495.06 397.42C494.15 398.37 492.99 399.3 491.56 400.2C490.13 401.1 488.52 401.56 486.71 401.56C485.62 401.56 484.69 401.39 483.93 401.06C483.17 400.73 482.43 400.35 481.72 399.92C481.01 399.49 480.29 399.11 479.58 398.78C478.87 398.45 478.04 398.28 477.08 398.28C475.7 398.28 474.54 398.55 473.58 399.1C472.63 399.65 471.75 400.25 470.94 400.92L468.09 396.85V396.86Z" fill="black"/>
<path d="M529.76 406.2H559.72V412.26H536.6V426.1H554.01V432.23H536.6V447.64H561.43V453.78H529.75V406.19L529.76 406.2Z" fill="black"/>
<path d="M587.38 442.23C588.04 442.99 588.8 443.76 589.63 444.55C590.46 445.33 591.4 446.04 592.45 446.65C593.5 447.27 594.66 447.77 595.95 448.15C597.24 448.53 598.64 448.72 600.16 448.72C603.3 448.72 605.75 448.01 607.51 446.58C609.27 445.15 610.15 443.23 610.15 440.8C610.15 438.18 609.15 436.22 607.15 434.91C605.15 433.6 602.27 432.55 598.52 431.74C596.47 431.31 594.62 430.72 592.96 429.96C591.29 429.2 589.85 428.25 588.64 427.11C587.43 425.97 586.49 424.65 585.82 423.15C585.15 421.65 584.82 419.95 584.82 418.05C584.82 416.29 585.15 414.62 585.82 413.06C586.49 411.49 587.49 410.11 588.82 408.92C590.15 407.73 591.82 406.78 593.81 406.07C595.81 405.36 598.11 405 600.73 405C603.06 405 605.07 405.25 606.76 405.75C608.45 406.25 609.89 406.86 611.08 407.57C612.27 408.28 613.22 409.02 613.93 409.78C614.64 410.54 615.19 411.16 615.57 411.64L611.01 415.85C610.73 415.52 610.3 415.08 609.72 414.53C609.15 413.98 608.42 413.45 607.54 412.92C606.66 412.4 605.64 411.96 604.47 411.6C603.3 411.24 601.96 411.06 600.44 411.06C598.92 411.06 597.61 411.26 596.52 411.67C595.43 412.08 594.52 412.6 593.81 413.24C593.1 413.88 592.57 414.61 592.24 415.42C591.9 416.23 591.74 417.04 591.74 417.85C591.74 419.04 591.99 420.05 592.49 420.88C592.99 421.71 593.71 422.45 594.67 423.09C595.62 423.73 596.8 424.28 598.2 424.73C599.6 425.18 601.21 425.62 603.02 426.05C604.78 426.48 606.5 427.04 608.19 427.73C609.88 428.42 611.39 429.35 612.72 430.51C614.05 431.68 615.11 433.1 615.9 434.79C616.68 436.48 617.07 438.53 617.07 440.96C617.07 443.01 616.64 444.88 615.79 446.6C614.94 448.31 613.76 449.8 612.26 451.06C610.76 452.32 608.99 453.29 606.95 453.98C604.9 454.67 602.69 455.01 600.32 455.01C598.08 455.01 596.05 454.75 594.22 454.23C592.39 453.71 590.72 453.04 589.23 452.23C587.73 451.42 586.42 450.53 585.31 449.55C584.19 448.58 583.28 447.61 582.56 446.66L587.41 442.24L587.38 442.23Z" fill="black"/>
<path d="M669.71 406.2H684.76C688 406.2 690.67 406.65 692.79 407.56C694.91 408.46 696.59 409.61 697.85 410.98C699.11 412.36 699.99 413.91 700.49 415.62C700.99 417.33 701.24 419 701.24 420.61C701.24 422.99 700.83 425.08 700.03 426.89C699.22 428.7 698.1 430.21 696.68 431.42C695.25 432.63 693.55 433.55 691.58 434.17C689.61 434.79 687.46 435.1 685.12 435.1H676.49V453.79H669.71V406.2ZM685.05 429.25C688 429.25 690.27 428.5 691.86 427C693.45 425.5 694.25 423.42 694.25 420.76C694.25 418.1 693.43 415.92 691.79 414.37C690.15 412.82 687.9 412.05 685.05 412.05H676.49V429.24H685.05V429.25Z" fill="black"/>
<path d="M746.82 455C743.4 455 740.21 454.35 737.26 453.04C734.31 451.73 731.74 449.95 729.56 447.69C727.37 445.43 725.66 442.78 724.42 439.74C723.19 436.7 722.57 433.44 722.57 429.97C722.57 426.5 723.19 423.25 724.42 420.23C725.66 417.21 727.36 414.57 729.52 412.31C731.68 410.05 734.25 408.27 737.23 406.96C740.2 405.65 743.4 405 746.82 405C750.24 405 753.44 405.65 756.42 406.96C759.39 408.27 761.97 410.05 764.16 412.31C766.35 414.57 768.06 417.21 769.3 420.23C770.54 423.25 771.15 426.5 771.15 429.97C771.15 433.44 770.53 436.7 769.3 439.74C768.07 442.78 766.35 445.44 764.16 447.69C761.97 449.95 759.39 451.73 756.42 453.04C753.44 454.35 750.25 455 746.82 455ZM746.82 448.58C749.44 448.58 751.8 448.08 753.92 447.08C756.04 446.08 757.84 444.73 759.34 443.01C760.84 441.3 761.99 439.31 762.8 437.05C763.61 434.79 764.01 432.4 764.01 429.88C764.01 427.36 763.6 424.9 762.8 422.64C761.99 420.38 760.84 418.39 759.34 416.68C757.84 414.97 756.03 413.63 753.92 412.65C751.8 411.68 749.44 411.19 746.82 411.19C744.2 411.19 741.85 411.68 739.76 412.65C737.67 413.63 735.87 414.97 734.37 416.68C732.87 418.39 731.72 420.38 730.91 422.64C730.1 424.9 729.7 427.31 729.7 429.88C729.7 432.45 730.1 434.79 730.91 437.05C731.72 439.31 732.87 441.3 734.37 443.01C735.87 444.72 737.66 446.08 739.76 447.08C741.85 448.08 744.21 448.58 746.82 448.58Z" fill="black"/>
<path d="M795.08 406.2H810.28C813.32 406.2 815.89 406.62 817.99 407.45C820.08 408.28 821.78 409.35 823.09 410.66C824.4 411.97 825.35 413.45 825.95 415.12C826.54 416.78 826.84 418.47 826.84 420.18C826.84 423.22 826.13 425.91 824.7 428.24C823.27 430.57 821.06 432.31 818.07 433.45L829.2 453.78H821.49L811.29 434.3H801.73V453.78H795.09V406.19L795.08 406.2ZM810.85 428.53C813.85 428.53 816.09 427.79 817.59 426.32C819.09 424.85 819.84 422.87 819.84 420.4C819.84 417.79 819.03 415.75 817.42 414.3C815.8 412.85 813.57 412.12 810.72 412.12H801.73V428.53H810.86H810.85Z" fill="black"/>
<path d="M864.44 412.2H847.39V406.21H888.27V412.2H871.29V453.79H864.44V412.2Z" fill="black"/>
<path d="M909.81 406.2H916.66V434.02C916.66 436.16 916.85 438.12 917.23 439.9C917.61 441.68 918.26 443.22 919.19 444.5C920.12 445.79 921.35 446.77 922.9 447.46C924.44 448.15 926.41 448.5 928.79 448.5C931.17 448.5 933.06 448.15 934.6 447.46C936.15 446.77 937.38 445.79 938.31 444.5C939.24 443.21 939.89 441.68 940.27 439.9C940.65 438.12 940.84 436.16 940.84 434.02V406.2H947.69V435.66C947.69 438.37 947.31 440.9 946.55 443.26C945.79 445.61 944.63 447.66 943.09 449.39C941.55 451.13 939.58 452.49 937.21 453.49C934.83 454.49 932.02 454.99 928.79 454.99C925.56 454.99 922.75 454.49 920.37 453.49C917.99 452.49 916.02 451.12 914.45 449.39C912.88 447.66 911.71 445.61 910.95 443.26C910.19 440.9 909.81 438.37 909.81 435.66V406.2Z" fill="black"/>
<path d="M992.32 406.2L1010.94 453.79H1003.3L998.38 440.52H978.83L973.91 453.79H966.7L985.32 406.2H992.32ZM996.32 434.74L988.61 413.84L980.83 434.74H996.32ZM990.47 391.72H998.6L991.04 402.42H985.26L990.47 391.72Z" fill="black"/>
<path d="M1032.25 406.2H1047.45C1050.49 406.2 1053.06 406.62 1055.16 407.45C1057.25 408.28 1058.95 409.35 1060.26 410.66C1061.57 411.97 1062.52 413.45 1063.11 415.12C1063.71 416.78 1064 418.47 1064 420.18C1064 423.22 1063.29 425.91 1061.86 428.24C1060.43 430.57 1058.22 432.31 1055.23 433.45L1066.36 453.78H1058.65L1048.45 434.3H1038.89V453.78H1032.25V406.19V406.2ZM1048.01 428.53C1051.01 428.53 1053.26 427.79 1054.75 426.32C1056.25 424.85 1057 422.87 1057 420.4C1057 417.79 1056.19 415.75 1054.57 414.3C1052.95 412.85 1050.72 412.12 1047.87 412.12H1038.88V428.53H1048.01Z" fill="black"/>
<path d="M1089.18 406.2H1096.03V453.79H1089.18V406.2Z" fill="black"/>
<path d="M1135.88 406.2H1142.87L1161.49 453.79H1153.86L1148.94 440.52H1129.39L1124.47 453.79H1117.26L1135.88 406.2ZM1146.87 434.74L1139.16 413.84L1131.38 434.74H1146.87Z" fill="black"/>
<path d="M1185.11 442.23C1185.78 442.99 1186.52 443.76 1187.36 444.55C1188.19 445.33 1189.13 446.04 1190.18 446.65C1191.22 447.27 1192.39 447.77 1193.68 448.15C1194.96 448.53 1196.37 448.72 1197.89 448.72C1201.03 448.72 1203.48 448.01 1205.24 446.58C1207 445.15 1207.88 443.23 1207.88 440.8C1207.88 438.18 1206.88 436.22 1204.88 434.91C1202.88 433.6 1200 432.55 1196.25 431.74C1194.2 431.31 1192.35 430.72 1190.68 429.96C1189.02 429.2 1187.58 428.25 1186.36 427.11C1185.15 425.97 1184.21 424.65 1183.54 423.15C1182.87 421.65 1182.54 419.95 1182.54 418.05C1182.54 416.29 1182.88 414.62 1183.54 413.06C1184.21 411.49 1185.2 410.11 1186.54 408.92C1187.88 407.73 1189.54 406.78 1191.53 406.07C1193.53 405.36 1195.83 405 1198.45 405C1200.78 405 1202.79 405.25 1204.48 405.75C1206.17 406.25 1207.6 406.86 1208.8 407.57C1209.99 408.28 1210.94 409.02 1211.65 409.78C1212.36 410.54 1212.91 411.16 1213.29 411.64L1208.72 415.85C1208.43 415.52 1208.01 415.08 1207.44 414.53C1206.87 413.98 1206.14 413.45 1205.26 412.92C1204.38 412.4 1203.36 411.96 1202.19 411.6C1201.02 411.24 1199.68 411.06 1198.16 411.06C1196.64 411.06 1195.33 411.26 1194.23 411.67C1193.13 412.08 1192.23 412.6 1191.52 413.24C1190.81 413.88 1190.28 414.61 1189.95 415.42C1189.62 416.23 1189.45 417.04 1189.45 417.85C1189.45 419.04 1189.7 420.05 1190.2 420.88C1190.7 421.71 1191.43 422.45 1192.38 423.09C1193.33 423.73 1194.51 424.28 1195.91 424.73C1197.31 425.18 1198.92 425.62 1200.73 426.05C1202.49 426.48 1204.21 427.04 1205.9 427.73C1207.59 428.42 1209.1 429.35 1210.43 430.51C1211.76 431.68 1212.82 433.1 1213.6 434.79C1214.38 436.48 1214.78 438.53 1214.78 440.96C1214.78 443.01 1214.35 444.88 1213.49 446.6C1212.64 448.31 1211.46 449.8 1209.96 451.06C1208.46 452.32 1206.69 453.29 1204.64 453.98C1202.59 454.67 1200.38 455.01 1198 455.01C1195.77 455.01 1193.73 454.75 1191.9 454.23C1190.07 453.71 1188.4 453.04 1186.91 452.23C1185.41 451.42 1184.1 450.53 1182.99 449.55C1181.87 448.58 1180.96 447.61 1180.24 446.66L1185.09 442.24L1185.11 442.23Z" fill="black"/>
<path d="M127.68 259.02H50.63V201.15H0V349.63H50.63V289.96H127.68V349.63H178.31V201.15H127.68V259.02Z" fill="black"/>
<path d="M337.17 201.15H286.32L192.44 349.63H246.6L265.69 315.62H355.46L375.15 349.63H432.1L338.02 202.47L337.18 201.16L337.17 201.15ZM283.45 284.48L310.01 238.1L337.41 284.48H283.45Z" fill="black"/>
<path d="M611.88 284.56C617.62 282.04 622.46 278.83 626.27 275.01C630.12 271.17 632.98 266.82 634.77 262.08C636.54 257.4 637.45 252.38 637.44 247.15C637.44 241.62 636.15 233.02 631.68 225.82C630.18 223.42 628.44 221.02 626.3 218.82C624.17 216.62 621.67 214.58 618.9 212.78C615.81 210.67 612.33 208.89 608.54 207.49C604.84 206.12 600.96 205.01 596.9 204.17C592.95 203.49 588.95 202.91 585.02 202.46C580.98 201.99 576.82 201.68 572.56 201.54H570.87C570.49 201.54 570.16 201.5 569.87 201.43L563.01 201.34C562.6 201.34 562.19 201.32 561.77 201.26C561.12 201.18 560.47 201.14 559.82 201.14H446.01V349.62H496.64V293.54H545.57L592.7 349.62H651.11L596.94 289.19C602.51 288.02 607.52 286.46 611.88 284.55V284.56ZM496.64 232.3H546.24C546.24 232.3 558.76 232.72 563.21 233.18C567.7 233.64 572 234.26 575.92 235.02C579.49 235.8 582.14 237.21 583.77 239.21C585.39 241.19 586.21 244 586.21 247.55C586.21 251.1 585.41 253.74 583.84 255.73C582.24 257.75 579.79 259.23 576.65 260.1C572.96 261 568.96 261.68 564.78 262.12C560.59 262.57 550.27 262.6 550.27 262.6H496.63V232.29L496.64 232.3Z" fill="black"/>
<path d="M856.19 291.51C853.58 287.6 849.67 284.04 844.57 280.92C841.29 278.91 837.43 277.05 833.06 275.34C836.87 273.57 840.28 271.68 843.27 269.71C848.02 266.56 851.87 263.11 854.69 259.43C857.65 255.58 859.42 251.18 859.94 246.36C860.44 241.69 859.84 236.52 858.08 230.82C855.8 224.84 852.36 219.81 847.85 215.87C843.36 211.95 837.53 209.22 830.66 207.2C814.31 202.39 796.41 201.18 778.47 201.18L665.24 201.15V349.63H791.19C798.46 349.63 805.61 349.16 812.46 348.21C819.3 347.27 825.98 345.91 832.37 344.14C838.95 342.18 844.55 339.25 849.02 335.42C853.58 331.51 856.85 326.52 858.74 320.56C860.42 314.96 861.1 309.69 860.74 304.91C860.37 300 858.84 295.49 856.19 291.51ZM803.93 252.83C802.76 254.58 801.14 255.9 799.01 256.87C796.46 257.96 793.52 258.76 790.26 259.26C786.93 259.76 783.19 259.95 779.05 259.83H715.87V232.51L779.05 232.7C783.1 232.7 786.82 232.99 790.1 233.55C793.34 234.11 796.35 234.96 799.06 236.07C801.41 237.03 803.05 238.31 804.07 239.98C805.12 241.7 805.65 243.85 805.65 246.36C805.65 248.87 805.09 251.11 803.94 252.84L803.93 252.83ZM715.87 290.77L779.65 290.96C783.72 290.96 787.51 291.25 790.92 291.82C794.24 292.37 797.15 293.2 799.56 294.29C801.72 295.26 803.34 296.61 804.51 298.41C805.68 300.21 806.24 302.38 806.24 305.02C806.24 307.66 805.67 309.83 804.51 311.63C803.34 313.43 801.73 314.78 799.56 315.75C797.14 316.84 794.25 317.63 790.96 318.12C787.59 318.62 783.81 318.81 779.65 318.68H715.87V290.77Z" fill="black"/>
<path d="M1093.38 259.12C1092.83 256.48 1092.13 253.87 1091.31 251.36C1090.51 248.91 1089.62 246.47 1088.6 243.94C1086.12 238.76 1082.9 233.93 1079.02 229.59C1075.15 225.27 1070.54 221.39 1065.3 218.08C1060.1 214.78 1054.04 211.94 1047.28 209.64C1040.57 207.36 1033.08 205.54 1025.11 204.27C1021.77 203.63 1018.38 203.1 1015.06 202.71C1011.86 202.33 1008.44 202 1004.88 201.74C1001.37 201.49 997.77 201.32 994.18 201.25C988.48 201.15 983.04 201.1 977.53 201.25C975.38 201.32 973.24 201.42 970.91 201.56C968.79 201.81 966.55 201.7 964.67 201.93C961.26 202.19 958.03 202.52 955.08 202.9L945.95 204.06C937.73 205.36 930.13 207.2 923.37 209.55C916.56 211.91 910.47 214.79 905.27 218.08C900.05 221.39 895.41 225.22 891.49 229.47C887.55 233.74 884.23 238.53 881.61 243.7L881.37 244.34C880.23 246.49 879.25 248.79 878.47 251.17C877.63 253.73 877 256.45 876.6 259.12C876.32 260.45 876.08 261.81 875.88 263.2C875.68 264.58 875.5 265.93 875.37 267.27C875.23 268.72 875.13 270.1 875.06 271.41C874.99 272.73 874.96 274.12 874.96 275.57C874.96 278.35 875.1 281.15 875.37 283.88C875.64 286.65 876.06 289.38 876.63 292.11C877.3 294.82 878.01 297.44 878.75 299.91C879.52 302.47 880.47 304.93 881.57 307.17C884.06 312.49 887.28 317.42 891.14 321.81C895.02 326.22 899.79 330.14 905.27 333.44C910.49 336.75 916.59 339.56 923.42 341.79C930.14 344 937.74 345.72 946.16 346.91C949.11 347.16 952.11 347.48 955.08 347.85C958.03 348.23 961.18 348.56 964.46 348.82C967.54 349.08 970.65 349.28 973.74 349.41C976.86 349.54 980.04 349.6 983.21 349.6C984.97 349.6 986.72 349.57 988.5 349.51C990.18 349.44 991.87 349.42 993.79 349.41C995.34 349.29 996.95 349.19 998.64 349.13C1000.4 349.07 1002.16 348.97 1003.81 348.84C1007.23 348.71 1010.62 348.44 1013.89 348.06L1023.8 346.9C1032.06 345.72 1039.68 344.01 1046.46 341.8C1053.35 339.57 1059.55 336.76 1064.92 333.44C1070.15 330.12 1074.82 326.22 1078.82 321.84C1082.83 317.43 1086.13 312.49 1088.63 307.15C1089.73 304.77 1090.71 302.25 1091.54 299.66C1092.36 297.09 1093.06 294.38 1093.6 291.63C1094.14 288.99 1094.56 286.26 1094.83 283.5C1095.1 280.74 1095.24 277.87 1095.24 275C1095.24 272.38 1095.1 269.71 1094.83 267.06C1094.55 264.39 1094.06 261.68 1093.4 259.13L1093.38 259.12ZM1040.22 275.57C1040.22 277.21 1040.1 278.89 1039.85 280.54L1039.06 285.88C1038.8 287.48 1038.48 289.12 1038.1 290.78C1037.73 292.36 1037.24 293.94 1036.6 295.55C1035.62 298.26 1034.29 300.82 1032.65 303.16C1031.01 305.5 1028.99 307.72 1026.7 309.7C1024.25 311.7 1021.33 313.47 1018 314.95C1014.61 316.46 1010.71 317.72 1006.43 318.69C1004.76 319.06 1003.06 319.37 1001.38 319.61L996.48 320.3L990.36 320.74C986.77 320.98 982.77 320.96 979.43 320.74L974.04 320.37C972.07 320.12 970.19 319.86 968.41 319.61C966.74 319.37 965.12 319.06 963.55 318.69C959.13 317.72 955.18 316.46 951.78 314.95C948.47 313.48 945.63 311.72 943.33 309.74C940.99 307.73 938.98 305.51 937.33 303.16C935.68 300.81 934.36 298.25 933.42 295.64C932.88 293.96 932.31 292.25 931.71 290.51C931.16 288.93 930.77 287.37 930.53 285.9C930.27 284.15 930.04 282.39 929.85 280.63C929.66 278.94 929.57 277.24 929.57 275.56C929.57 273.88 929.66 272.21 929.85 270.59C930.04 268.91 930.27 267.25 930.54 265.59C930.66 264.76 930.82 263.93 931 263.1C931.18 262.27 931.4 261.43 931.65 260.6L931.72 260.28C931.77 259.99 931.84 259.67 931.94 259.34L933.36 255.85C934.47 253.11 935.88 250.52 937.54 248.14C939.19 245.79 941.2 243.57 943.6 241.51C945.75 239.55 948.51 237.82 951.79 236.35C955.18 234.84 959.14 233.58 963.62 232.59C965.16 232.22 966.79 231.88 968.51 231.57C970.2 231.27 972 231.06 974.07 230.92C975.82 230.68 977.59 230.52 979.34 230.46C982.86 230.34 986.69 230.33 990.47 230.46C992.23 230.52 994.07 230.68 996.14 230.94C997.87 231.06 999.61 231.27 1001.29 231.57C1003.04 231.88 1004.75 232.22 1006.51 232.61C1010.76 233.45 1014.62 234.67 1017.98 236.23C1021.32 237.78 1024.26 239.58 1026.66 241.55C1029 243.57 1031.02 245.79 1032.66 248.13C1034.3 250.47 1035.63 253.03 1036.64 255.82C1037.25 257.35 1037.75 258.93 1038.11 260.51C1038.48 262.12 1038.8 263.83 1039.07 265.6L1039.86 270.66C1040.1 272.25 1040.23 273.89 1040.23 275.53L1040.22 275.57Z" fill="black"/>
<path d="M1275.22 284.56C1280.96 282.04 1285.8 278.83 1289.61 275.01C1293.46 271.17 1296.32 266.82 1298.11 262.08C1299.88 257.4 1300.79 252.38 1300.78 247.15C1300.78 241.62 1299.49 233.02 1295.02 225.82C1293.52 223.42 1291.78 221.02 1289.64 218.82C1287.51 216.62 1285.01 214.58 1282.24 212.78C1279.15 210.67 1275.67 208.89 1271.88 207.49C1268.18 206.12 1264.3 205.01 1260.24 204.17C1256.29 203.49 1252.29 202.91 1248.36 202.46C1244.32 201.99 1240.16 201.68 1235.9 201.54H1234.21C1233.83 201.54 1233.5 201.5 1233.21 201.43L1226.35 201.34C1225.94 201.34 1225.53 201.32 1225.11 201.26C1224.46 201.18 1223.81 201.14 1223.16 201.14H1109.35V349.62H1159.98V293.54H1208.91L1256.04 349.62H1314.45L1260.28 289.19C1265.85 288.02 1270.86 286.46 1275.22 284.55V284.56ZM1159.99 232.3H1209.59C1209.59 232.3 1222.11 232.72 1226.56 233.18C1231.05 233.64 1235.35 234.26 1239.27 235.02C1242.84 235.8 1245.49 237.21 1247.12 239.21C1248.74 241.19 1249.56 244 1249.56 247.55C1249.56 251.1 1248.76 253.74 1247.19 255.73C1245.59 257.75 1243.14 259.23 1240 260.1C1236.31 261 1232.31 261.68 1228.13 262.12C1223.94 262.57 1213.62 262.6 1213.62 262.6H1159.98V232.29L1159.99 232.3Z" fill="black"/>
<path d="M206.68 107.08C206.56 107.15 206.44 107.21 206.32 107.28C206.53 107.18 206.63 107.12 206.68 107.08Z" fill="black"/>
<path d="M178.31 156.19C545.64 18.5 991.41 50.49 1016.08 52.39C987.07 86.96 972.3 119.89 971.19 152.26C971.15 153.57 971.12 154.88 971.12 156.19H999.66C999.66 155.01 999.69 153.83 999.74 152.65C1000.6 131.83 1009.02 110.13 1025.25 87.1C1025.31 87.01 1025.38 86.92 1025.44 86.83C1046.34 57.24 1077.25 31.9 1109.34 3.69002C509.98 -28.11 178.31 156.19 178.31 156.19Z" fill="black"/>
<path d="M206.68 107.08C294.38 58.28 402.92 30.53 402.92 30.53L396.74 50.43C404.02 48.22 411.52 46 419.21 43.79L427.83 11.38C355.96 20.96 242.1 78.23 206.31 106.96C205.05 107.58 206.99 106.86 206.67 107.08H206.68Z" fill="black"/>
</g>
<defs>
<clipPath id="clip0_723_1281">
<rect width="1314.46" height="469.77" fill="white"/>
</clipPath>
</defs>
</svg>
