<svg width="1343" height="316" viewBox="0 0 1343 316" fill="none" xmlns="http://www.w3.org/2000/svg">
<g clip-path="url(#clip0_723_778)">
<path d="M597.489 177.88H532.899V121H504.289V262H532.899V204.74H597.489V262H626.099V121H597.489V177.88Z" fill="black"/>
<path d="M758.649 201.7C758.649 224.63 747.269 236.87 726.599 236.87C705.929 236.87 694.359 224.28 694.359 200.73V121.08H665.749V201.7C665.749 241.36 687.789 264.11 726.209 264.11C764.629 264.11 787.249 240.94 787.249 200.54V121H758.649V201.7Z" fill="black"/>
<path d="M1089.28 217.96L1057.27 120.98H1033.92L1001.91 217.96L970.769 121.06H940.319L989.449 262H1013.15L1045.21 169.42L1077.26 262H1101.15L1150.17 121.06H1120.5L1089.28 217.96Z" fill="black"/>
<path d="M1201.45 201.32H1253.49V175.64H1201.45V146.78H1276.99V121.1H1173.23V261.91H1279.7V236.23H1201.45V201.32Z" fill="black"/>
<path d="M1342.04 120.99H1313.82V261.8H1342.04V120.99Z" fill="black"/>
<path d="M908.329 232.57L920.989 261.92H950.969L889.099 121H863.869L801.749 261.92H830.949L843.789 232.57H908.329ZM875.999 156.68L897.699 207.15H854.449L876.009 156.68H875.999Z" fill="black"/>
<path d="M388.479 124.92C390.799 88.8902 354.539 55.5502 354.539 55.5502C354.539 55.5502 287.299 136.99 238.299 243.96C238.039 244.52 237.949 245.46 238.529 245.95C238.929 246.29 239.659 246.51 240.409 246.14C258.779 237.03 335.129 197.69 367.299 167.02C367.299 167.02 387.409 150.86 388.479 124.92ZM302.769 43.6402C302.769 43.6402 294.359 12.2502 260.249 3.95023C260.249 3.95023 250.429 1.46023 239.989 -0.00976562C239.989 -0.00976562 201.869 49.0702 220.399 234.27C220.499 235.24 221.019 235.59 221.459 235.71C222.149 235.89 222.819 235.64 223.279 234.99C235.499 217.33 291.249 134.69 302.569 84.4402C302.569 84.4402 308.709 60.1102 302.779 43.6302L302.769 43.6402ZM250.499 272.31C250.289 272.71 250.119 273.72 250.889 274.27C263.199 283.1 300.529 309.2 318.529 314.28C318.529 314.28 351.789 325.62 380.679 275.98C380.679 275.98 284.009 272.61 251.859 271.49C251.409 271.47 250.759 271.79 250.499 272.3V272.31ZM414.919 162.22C414.919 162.22 305.549 220.95 249.009 259.05C248.599 259.33 248.069 259.89 248.349 260.9C248.499 261.44 249.009 261.92 249.689 261.92C269.929 261.95 346.569 262.04 348.499 261.68C348.499 261.68 358.409 261.29 370.659 256.59C370.659 256.59 397.909 247.92 412.069 216.97C412.069 216.97 424.699 191.72 414.929 162.23L414.919 162.22ZM169.619 259.05C113.079 220.95 3.7093 162.22 3.7093 162.22C-6.0607 191.71 6.5693 216.96 6.5693 216.96C20.7293 247.91 47.9793 256.58 47.9793 256.58C60.2293 261.28 70.1393 261.67 70.1393 261.67C72.0693 262.03 148.709 261.94 168.949 261.91C169.629 261.91 170.139 261.43 170.289 260.89C170.569 259.88 170.039 259.32 169.629 259.04L169.619 259.05ZM166.769 271.5C134.629 272.62 37.9493 275.99 37.9493 275.99C66.8393 325.62 100.099 314.29 100.099 314.29C118.089 309.22 155.429 283.12 167.739 274.28C168.519 273.72 168.339 272.72 168.129 272.32C167.869 271.8 167.209 271.49 166.769 271.51V271.5ZM158.379 3.96023C124.269 12.2602 115.859 43.6502 115.859 43.6502C109.929 60.1302 116.069 84.4602 116.069 84.4602C127.389 134.71 183.129 217.35 195.359 235.01C195.819 235.66 196.479 235.91 197.179 235.73C197.619 235.61 198.149 235.26 198.239 234.29C216.769 49.0802 178.639 0.000234375 178.639 0.000234375C168.199 1.47023 158.379 3.96023 158.379 3.96023ZM64.0893 55.5602C64.0893 55.5602 27.8293 88.9002 30.1493 124.92C31.2193 150.86 51.3293 167.02 51.3293 167.02C83.4993 197.7 159.859 237.03 178.219 246.14C178.969 246.51 179.699 246.29 180.099 245.95C180.679 245.46 180.589 244.52 180.329 243.96C131.329 137 64.0893 55.5602 64.0893 55.5602Z" fill="black"/>
</g>
<defs>
<clipPath id="clip0_723_778">
<rect width="1342.04" height="315.4" fill="white"/>
</clipPath>
</defs>
</svg>
