<svg width="623" height="712" viewBox="0 0 623 712" fill="none" xmlns="http://www.w3.org/2000/svg">
<g clip-path="url(#clip0_723_1120)">
<path d="M150.659 382.77V386.7H88.9894V382.77H94.0794C100.019 382.77 104.339 381.04 107.029 377.57C108.729 375.31 109.579 369.86 109.579 361.22V268.22C109.579 260.93 109.119 256.12 108.199 253.78C107.489 252.01 106.039 250.49 103.849 249.21C100.739 247.51 97.4794 246.66 94.0794 246.66H88.9894V242.73H150.659V246.66H145.459C139.589 246.66 135.309 248.4 132.619 251.86C130.849 254.13 129.969 259.58 129.969 268.21V361.21C129.969 368.5 130.429 373.31 131.349 375.65C132.059 377.42 133.539 378.94 135.809 380.22C138.849 381.92 142.069 382.77 145.469 382.77H150.669H150.659Z" fill="black"/>
<path d="M256.369 313.24C266.349 315.36 273.809 318.76 278.769 323.43C285.629 329.94 289.069 337.9 289.069 347.32C289.069 354.47 286.799 361.32 282.279 367.86C277.749 374.41 271.539 379.18 263.649 382.19C255.759 385.2 243.709 386.7 227.509 386.7H159.579V382.77H164.989C170.999 382.77 175.319 380.86 177.939 377.04C179.569 374.56 180.379 369.29 180.379 361.22V268.22C180.379 259.3 179.349 253.68 177.299 251.34C174.539 248.23 170.439 246.67 164.989 246.67H159.579V242.74H221.779C233.379 242.74 242.689 243.59 249.699 245.29C260.309 247.84 268.419 252.35 274.009 258.83C279.599 265.31 282.389 272.76 282.389 281.18C282.389 288.4 280.199 294.86 275.809 300.55C271.419 306.25 264.949 310.48 256.389 313.24H256.369ZM200.759 307.5C203.379 308 206.369 308.37 209.729 308.61C213.089 308.86 216.789 308.98 220.819 308.98C231.149 308.98 238.919 307.87 244.119 305.64C249.319 303.41 253.299 300 256.059 295.39C258.819 290.79 260.199 285.77 260.199 280.31C260.199 271.89 256.769 264.7 249.899 258.76C243.039 252.82 233.019 249.84 219.859 249.84C212.779 249.84 206.419 250.62 200.749 252.18V307.49L200.759 307.5ZM200.759 376.3C208.969 378.21 217.069 379.17 225.069 379.17C237.879 379.17 247.639 376.29 254.359 370.52C261.079 364.75 264.439 357.62 264.439 349.13C264.439 343.54 262.919 338.16 259.879 332.99C256.839 327.82 251.879 323.75 245.019 320.78C238.159 317.81 229.659 316.32 219.549 316.32C215.159 316.32 211.409 316.39 208.299 316.53C205.189 316.67 202.669 316.92 200.759 317.27V376.3Z" fill="black"/>
<path d="M346.379 307.5H378.009C386.219 307.5 391.699 306.26 394.459 303.78C398.139 300.53 400.189 294.79 400.619 286.58H404.549V336.69H400.619C399.629 329.68 398.639 325.19 397.649 323.21C396.379 320.73 394.289 318.79 391.389 317.37C388.489 315.96 384.029 315.25 378.019 315.25H346.389V362.71C346.389 369.08 346.669 372.95 347.239 374.33C347.809 375.71 348.799 376.81 350.209 377.62C351.619 378.43 354.309 378.84 358.279 378.84H382.689C390.829 378.84 396.729 378.27 400.409 377.14C404.089 376.01 407.629 373.78 411.029 370.45C415.419 366.06 419.909 359.45 424.509 350.6H428.759L416.339 386.7H305.419V382.77H310.509C313.909 382.77 317.129 381.96 320.169 380.33C322.429 379.2 323.969 377.5 324.789 375.23C325.599 372.97 326.009 368.33 326.009 361.32V267.79C326.009 258.66 325.089 253.03 323.249 250.91C320.699 248.08 316.459 246.66 310.509 246.66H305.419V242.73H416.339L417.929 274.26H413.789C412.299 266.69 410.659 261.49 408.849 258.65C407.049 255.82 404.369 253.66 400.839 252.17C398.009 251.11 393.019 250.58 385.869 250.58H346.379V307.5Z" fill="black"/>
<path d="M478.209 250.6V307.19H504.429C510.439 307.19 514.849 305.86 517.649 303.21C520.439 300.56 522.299 295.3 523.219 287.44H527.149V336.17H523.219C523.149 330.58 522.419 326.47 521.039 323.85C519.659 321.23 517.749 319.27 515.309 317.96C512.869 316.65 509.239 316 504.429 316H478.209V361.23C478.209 368.52 478.669 373.33 479.589 375.67C480.299 377.44 481.779 378.96 484.049 380.24C487.159 381.94 490.419 382.79 493.809 382.79H499.009V386.72H437.239V382.79H442.329C448.269 382.79 452.589 381.06 455.279 377.59C456.979 375.33 457.829 369.88 457.829 361.24V268.24C457.829 260.95 457.369 256.14 456.449 253.8C455.739 252.03 454.289 250.51 452.099 249.23C449.059 247.53 445.799 246.68 442.339 246.68H437.249V242.75H544.349L545.729 274.39H542.019C540.179 267.67 538.039 262.73 535.599 259.58C533.159 256.43 530.149 254.15 526.579 252.73C523.009 251.32 517.469 250.61 509.969 250.61H478.229L478.209 250.6Z" fill="black"/>
<path d="M622.769 329.87C621.919 332.27 622.479 334.8 622.119 337.26C621.099 344.31 620.579 351.41 619.469 358.46C618.129 367 616.389 375.43 614.519 383.86C612.309 393.81 609.339 403.53 606.119 413.16C603.109 422.19 599.629 431.08 595.629 439.74C594.829 441.47 594.019 443.2 593.359 444.99C592.819 446.47 591.929 447.07 590.359 447.06C583.729 447.01 577.089 447.03 570.459 447.03C460.819 447 351.179 447.1 241.549 446.85C215.849 446.79 190.149 446.9 164.459 446.55C121.669 445.96 78.8794 446.35 36.0894 446.26C33.2294 446.26 31.8694 445.04 30.6994 442.73C27.7094 436.83 24.7594 430.91 22.2494 424.79C19.4594 417.96 16.8594 411.07 14.5694 404.05C12.9694 399.16 11.4694 394.24 10.0494 389.3C8.7394 384.73 7.7494 380.06 6.7294 375.4C5.7894 371.13 4.7794 366.85 4.2094 362.52C3.7994 359.36 3.0494 356.27 2.7594 353.1C2.3794 348.99 1.7594 344.9 1.2394 340.8C1.1494 340.11 0.9894 339.42 0.9194 338.72C-0.1506 327.67 0.0493995 316.59 0.0493995 305.51C0.0493995 302.45 -0.1406 299.36 0.1494 296.33C0.6394 291.34 0.8994 286.33 1.4094 281.34C1.8194 277.29 2.4494 273.26 2.8494 269.21C3.1394 266.24 3.7194 263.29 4.2494 260.35C5.0294 256.04 5.8194 251.74 6.7094 247.46C7.4194 244.04 8.2394 240.65 9.0894 237.26C9.8694 234.19 10.7294 231.13 11.5994 228.08C13.2794 222.15 15.1594 216.29 17.1494 210.45C19.4294 203.76 22.0194 197.2 24.6594 190.65C26.5594 185.94 28.7794 181.35 30.8594 176.71C31.3194 175.68 32.0894 175.12 33.2594 175.18C33.8994 175.21 34.5394 175.18 35.1694 175.18C219.749 175.18 404.329 175.18 588.909 175.13C591.389 175.13 592.879 175.73 593.959 178.09C597.339 185.49 600.629 192.92 603.429 200.58C605.399 205.95 607.269 211.36 608.979 216.81C610.609 222.01 612.129 227.27 613.309 232.61C614.469 237.88 615.929 243.08 616.959 248.37C617.889 253.1 618.629 257.87 619.389 262.63C619.929 266.02 620.349 269.44 620.759 272.84C621.419 278.33 622.219 283.82 622.349 289.36C622.379 290.5 622.189 291.67 622.749 292.74V329.86L622.769 329.87ZM502.809 411.31V411.39H556.759C559.879 411.39 561.956 409.937 562.989 407.03C563.079 406.79 563.219 406.57 563.289 406.33C564.479 402.25 565.699 398.18 566.819 394.08C567.709 390.84 568.499 387.57 569.299 384.3C570.159 380.78 571.049 377.27 571.769 373.73C572.689 369.26 573.479 364.76 574.279 360.26C574.789 357.38 575.439 354.49 575.629 351.59C575.879 347.58 576.769 343.67 577.089 339.67C577.579 333.59 578.519 327.52 578.659 321.43C578.899 310.72 578.709 300 578.729 289.29C578.729 287.5 578.559 285.73 578.259 283.96C577.509 279.57 577.449 275.1 576.969 270.67C576.579 267.13 575.969 263.61 575.429 260.12C574.339 253.04 572.699 246.06 570.879 239.11C568.819 231.22 566.179 223.57 563.249 215.97C562.209 213.26 560.769 212.75 558.159 212.75C463.969 212.58 369.789 213.15 275.599 212.43C242.319 212.17 209.039 212.52 175.749 212.12C144.509 211.74 113.249 212.06 82.0094 211.94C76.4094 211.92 70.7994 211.72 65.1894 211.7C64.0994 211.7 63.2594 211.85 62.7494 213.04C59.9594 219.46 57.5994 226.05 55.3394 232.66C54.0294 236.5 53.0594 240.46 51.8894 244.35C49.9994 250.62 48.6594 257.04 47.4194 263.45C46.1594 269.99 45.2394 276.62 44.6194 283.26C43.9094 290.86 43.1494 298.47 43.3494 306.14C43.5094 312.19 43.1094 318.28 43.5794 324.3C44.2094 332.28 44.8594 340.27 46.0094 348.21C46.7694 353.43 47.4994 358.66 48.5594 363.81C49.8694 370.21 51.3594 376.58 53.0894 382.89C55.3694 391.24 57.9694 399.47 61.1294 407.53C62.3094 410.55 62.2894 410.56 65.4994 410.56C112.629 410.57 159.759 410.5 206.879 410.62C264.719 410.76 322.549 410.26 380.389 410.97C402.769 411.25 425.139 410.87 447.529 411.26C465.949 411.59 484.379 411.33 502.809 411.33V411.31Z" fill="black"/>
<path d="M323.129 0.000234375C324.339 0.740234 325.689 0.700234 327.029 0.700234C335.129 0.670234 343.159 1.53023 351.199 2.43023C355.049 2.86023 358.869 3.55023 362.729 3.92023C367.059 4.34023 371.319 5.49023 375.619 6.29023C380.429 7.19023 385.169 8.38024 389.929 9.52024C395.429 10.8302 400.859 12.4002 406.229 14.1302C411.539 15.8502 416.819 17.6602 422.039 19.6302C430.909 22.9802 439.579 26.7802 448.079 30.9902C454.929 34.3802 461.619 38.0802 468.189 41.9702C477.999 47.7902 487.419 54.2102 496.549 61.0602C513.789 74.0002 529.479 88.6302 543.859 104.65C551.559 113.23 558.779 122.22 565.459 131.64C570.069 138.14 574.479 144.75 578.509 151.63C579.629 153.55 579.459 153.87 577.239 153.88C569.269 153.9 561.299 153.89 553.319 153.89C546.299 153.89 539.289 153.86 532.269 153.91C530.679 153.92 529.569 153.49 528.539 152.15C518.609 139.17 507.799 126.97 495.959 115.7C483.329 103.68 469.739 92.8402 455.099 83.3502C445.429 77.0802 435.359 71.4802 424.939 66.5802C416.489 62.6002 407.859 59.0602 398.999 56.0402C393.049 54.0102 387.079 52.0702 381.019 50.4702C376.119 49.1702 371.169 48.0402 366.199 46.9702C359.299 45.4902 352.329 44.4302 345.349 43.4802C341.459 42.9502 337.519 42.3102 333.589 42.2302C325.819 42.0702 318.039 41.2502 310.269 41.7602C304.119 42.1602 297.959 41.9102 291.799 43.0002C287.969 43.6802 283.989 43.9902 280.079 44.4302C275.039 45.0002 270.059 46.0802 265.029 46.8202C260.999 47.4102 257.049 48.3802 253.089 49.2602C248.259 50.3202 243.479 51.5702 238.699 52.8702C233.979 54.1502 229.309 55.5602 224.689 57.1302C219.819 58.7802 214.989 60.5602 210.209 62.4502C205.779 64.2102 201.379 66.0202 197.059 68.0402C188.009 72.2802 179.179 76.9302 170.629 82.1202C163.539 86.4202 156.629 90.9602 149.989 95.9102C142.059 101.81 134.469 108.1 127.259 114.88C118.379 123.24 110.089 132.13 102.659 141.8C99.9794 145.28 97.3294 148.8 95.0494 152.56C94.2594 153.85 93.1594 153.88 91.9294 153.88C81.7294 153.88 71.5194 153.88 61.3194 153.88C55.8994 153.88 50.4794 153.88 45.0594 153.87C44.3194 153.87 43.3994 154.11 42.9794 153.28C42.5894 152.5 43.4494 152.04 43.7894 151.48C51.3194 139.26 59.6894 127.63 68.6294 116.41C76.1394 106.99 84.2494 98.0902 92.7394 89.5302C101.909 80.2902 111.569 71.6002 121.839 63.5902C131.139 56.3402 140.779 49.5802 150.879 43.4802C159.439 38.3102 168.179 33.4902 177.159 29.0802C185.779 24.8402 194.659 21.2202 203.619 17.8302C209.009 15.7902 214.559 14.1702 220.049 12.4202C225.439 10.7002 230.919 9.27023 236.389 7.92023C241.859 6.57023 247.349 5.26023 252.959 4.50023C258.309 3.77023 263.609 2.64023 268.959 2.02023C274.329 1.40023 279.699 0.620234 285.129 0.700234C287.859 0.740234 290.599 0.680234 293.269 -0.00976562H323.119L323.129 0.000234375Z" fill="black"/>
<path d="M69.1794 468.35C76.7694 468.35 84.3594 468.38 91.9494 468.33C93.4994 468.32 94.5194 468.81 95.4794 470.07C105.869 483.61 117.569 495.94 130.129 507.47C141.269 517.69 153.089 527.08 165.599 535.57C173.769 541.11 182.179 546.26 190.889 550.93C197.459 554.45 204.159 557.68 210.989 560.62C217.449 563.41 224.059 565.87 230.729 568.15C237.169 570.35 243.739 572.09 250.309 573.78C254.099 574.76 258.019 575.35 261.869 576.12C267.679 577.28 273.559 577.9 279.399 578.71C283.859 579.33 288.409 579.35 292.919 579.69C299.909 580.23 306.929 580.19 313.949 580.08C321.459 579.95 328.919 579.09 336.399 578.37C340.269 578 344.119 577.49 347.949 576.93C352.649 576.24 357.359 575.46 362.009 574.38C365.219 573.63 368.459 573.01 371.669 572.2C375.479 571.23 379.289 570.32 383.079 569.27C387.429 568.06 391.699 566.64 395.989 565.29C401.079 563.69 406.069 561.79 411.029 559.82C419.009 556.65 426.829 553.12 434.459 549.2C452.759 539.78 469.839 528.5 485.529 515.16C499.409 503.36 512.019 490.34 523.249 475.97C525.129 473.56 527.049 471.17 528.879 468.73C529.639 467.71 530.559 467.25 531.799 467.26C546.979 467.27 562.159 467.26 577.329 467.27C578.019 467.27 578.819 467.14 579.219 467.88C579.649 468.68 578.849 469.14 578.529 469.72C574.459 477.02 569.919 484.01 565.029 490.78C560.619 496.88 555.989 502.79 551.199 508.59C545.389 515.63 539.119 522.25 532.699 528.7C524.919 536.51 516.639 543.8 508.039 550.71C498.889 558.06 489.399 564.92 479.499 571.22C469.339 577.68 458.829 583.51 448.019 588.81C441.739 591.89 435.319 594.67 428.909 597.45C423.499 599.79 417.879 601.66 412.299 603.59C406.419 605.62 400.519 607.65 394.529 609.33C390.079 610.58 385.619 611.86 381.069 612.76C377.529 613.46 374.059 614.53 370.529 615.26C366.179 616.16 361.799 616.89 357.429 617.68C355.369 618.05 353.289 618.34 351.219 618.66C342.729 619.98 334.199 620.83 325.649 621.67C312.399 622.96 299.159 622.45 285.939 622.08C280.059 621.92 274.099 620.95 268.199 619.9C263.589 619.07 258.959 618.24 254.299 617.59C250.859 617.11 247.469 616.18 244.079 615.35C240.869 614.56 237.719 613.57 234.509 612.8C229.259 611.54 224.119 609.89 218.979 608.25C211.169 605.76 203.509 602.86 195.929 599.75C189.049 596.92 182.329 593.75 175.659 590.45C166.469 585.9 157.559 580.82 148.879 575.38C138.889 569.11 129.309 562.26 120.079 554.9C112.659 548.97 105.489 542.75 98.6394 536.18C89.2894 527.23 80.3894 517.86 72.1194 507.88C67.8094 502.68 63.5994 497.4 59.5294 492.02C54.3094 485.11 49.3994 477.97 44.6994 470.69C44.3494 470.15 43.5394 469.65 44.0794 468.86C44.5394 468.19 45.3594 468.4 46.0294 468.39C53.7494 468.38 61.4594 468.39 69.1794 468.39V468.35Z" fill="black"/>
<path d="M201.629 685.9V701.53C201.629 704.58 201.819 706.5 202.209 707.29C202.599 708.08 203.289 708.71 204.279 709.18C205.269 709.65 207.089 709.89 209.739 709.89V711.43H179.989V709.89C182.689 709.89 184.529 709.65 185.489 709.16C186.449 708.68 187.129 708.04 187.519 707.27C187.909 706.5 188.099 704.58 188.099 701.53V664.94C188.099 661.89 187.909 659.97 187.519 659.18C187.129 658.39 186.449 657.76 185.469 657.29C184.489 656.82 182.659 656.58 179.989 656.58V655.04H205.509C213.919 655.04 219.949 656.48 223.599 659.37C227.259 662.25 229.079 665.86 229.079 670.18C229.079 673.84 227.899 676.97 225.539 679.58C223.179 682.19 219.929 683.96 215.779 684.9C212.989 685.57 208.269 685.9 201.619 685.9H201.629ZM201.629 658.29V682.66C202.579 682.71 203.299 682.74 203.789 682.74C207.299 682.74 210.009 681.74 211.909 679.73C213.809 677.72 214.759 674.61 214.759 670.4C214.759 666.19 213.809 663.15 211.909 661.21C210.009 659.27 207.169 658.3 203.399 658.3H201.629V658.29Z" fill="black"/>
<path d="M257.029 705.69C252.109 709.88 247.689 711.97 243.769 711.97C241.469 711.97 239.549 711.24 238.029 709.79C236.499 708.33 235.739 706.51 235.739 704.32C235.739 701.35 237.059 698.69 239.709 696.32C242.359 693.95 248.129 690.8 257.019 686.86V682.95C257.019 680.01 256.849 678.16 256.519 677.4C256.189 676.64 255.559 675.97 254.639 675.4C253.719 674.83 252.679 674.55 251.529 674.55C249.659 674.55 248.119 674.95 246.909 675.76C246.159 676.26 245.789 676.84 245.789 677.51C245.789 678.09 246.189 678.81 246.999 679.67C248.089 680.86 248.639 682.01 248.639 683.12C248.639 684.48 248.109 685.64 247.059 686.59C246.009 687.55 244.629 688.03 242.939 688.03C241.129 688.03 239.609 687.5 238.379 686.45C237.159 685.4 236.549 684.16 236.549 682.75C236.549 680.75 237.369 678.85 239.009 677.03C240.649 675.21 242.939 673.82 245.869 672.85C248.809 671.88 251.859 671.39 255.019 671.39C258.849 671.39 261.879 672.17 264.109 673.74C266.339 675.31 267.789 677 268.449 678.83C268.849 679.99 269.049 682.67 269.049 686.85V701.94C269.049 703.71 269.119 704.83 269.269 705.29C269.409 705.75 269.629 706.09 269.919 706.31C270.209 706.53 270.539 706.64 270.909 706.64C271.659 706.64 272.419 706.13 273.199 705.1L274.499 706.1C273.059 708.15 271.569 709.64 270.029 710.57C268.489 711.5 266.739 711.96 264.779 711.96C262.479 711.96 260.679 711.44 259.379 710.4C258.079 709.36 257.289 707.79 257.009 705.68L257.029 705.69ZM257.029 702.66V689.65C253.549 691.62 250.959 693.72 249.259 695.97C248.139 697.47 247.579 698.98 247.579 700.5C247.579 701.77 248.059 702.9 248.999 703.87C249.719 704.62 250.729 704.99 252.019 704.99C253.459 704.99 255.129 704.21 257.029 702.66Z" fill="black"/>
<path d="M295.709 672.56V681.37C298.389 677.35 300.729 674.68 302.749 673.37C304.759 672.05 306.709 671.4 308.579 671.4C310.189 671.4 311.479 671.88 312.439 672.83C313.399 673.79 313.889 675.14 313.889 676.88C313.889 678.74 313.419 680.18 312.489 681.21C311.549 682.24 310.419 682.75 309.099 682.75C307.569 682.75 306.249 682.28 305.129 681.34C304.009 680.4 303.349 679.87 303.139 679.76C302.849 679.59 302.519 679.51 302.149 679.51C301.309 679.51 300.519 679.81 299.779 680.42C298.599 681.36 297.709 682.71 297.099 684.45C296.179 687.14 295.719 690.1 295.719 693.35V702.29L295.759 704.62C295.759 706.2 295.859 707.21 296.059 707.66C296.409 708.41 296.919 708.95 297.589 709.3C298.269 709.65 299.409 709.86 301.019 709.94V711.44H279.219V709.94C280.979 709.8 282.159 709.34 282.779 708.55C283.399 707.76 283.709 705.68 283.709 702.29V680.79C283.709 678.57 283.589 677.16 283.359 676.55C283.069 675.77 282.649 675.21 282.109 674.85C281.559 674.49 280.599 674.24 279.219 674.1V672.56H295.709Z" fill="black"/>
<path d="M340.489 705.69C335.569 709.88 331.149 711.97 327.239 711.97C324.939 711.97 323.019 711.24 321.499 709.79C319.969 708.33 319.209 706.51 319.209 704.32C319.209 701.35 320.529 698.69 323.179 696.32C325.829 693.95 331.599 690.8 340.489 686.86V682.95C340.489 680.01 340.319 678.16 339.989 677.4C339.659 676.64 339.029 675.97 338.109 675.4C337.189 674.83 336.149 674.55 334.999 674.55C333.129 674.55 331.589 674.95 330.379 675.76C329.629 676.26 329.259 676.84 329.259 677.51C329.259 678.09 329.659 678.81 330.469 679.67C331.559 680.86 332.109 682.01 332.109 683.12C332.109 684.48 331.579 685.64 330.529 686.59C329.479 687.55 328.099 688.03 326.409 688.03C324.599 688.03 323.079 687.5 321.859 686.45C320.639 685.4 320.029 684.16 320.029 682.75C320.029 680.75 320.849 678.85 322.489 677.03C324.129 675.21 326.419 673.82 329.349 672.85C332.289 671.88 335.339 671.39 338.499 671.39C342.329 671.39 345.359 672.17 347.589 673.74C349.819 675.31 351.269 677 351.929 678.83C352.329 679.99 352.529 682.67 352.529 686.85V701.94C352.529 703.71 352.599 704.83 352.749 705.29C352.889 705.75 353.109 706.09 353.399 706.31C353.689 706.53 354.019 706.64 354.389 706.64C355.139 706.64 355.899 706.13 356.679 705.1L357.979 706.1C356.539 708.15 355.049 709.64 353.509 710.57C351.969 711.5 350.219 711.96 348.259 711.96C345.959 711.96 344.159 711.44 342.859 710.4C341.569 709.36 340.769 707.79 340.489 705.68V705.69ZM340.489 702.66V689.65C337.009 691.62 334.419 693.72 332.719 695.97C331.599 697.47 331.039 698.98 331.039 700.5C331.039 701.77 331.509 702.9 332.459 703.87C333.179 704.62 334.189 704.99 335.479 704.99C336.919 704.99 338.589 704.21 340.489 702.66Z" fill="black"/>
<path d="M378.909 677.59C380.979 675.43 382.969 673.86 384.869 672.87C386.769 671.89 388.809 671.39 390.999 671.39C393.619 671.39 395.789 672.09 397.519 673.49C399.249 674.89 400.399 676.63 400.979 678.71C401.439 680.29 401.669 683.33 401.669 687.82V702.95C401.669 705.94 401.949 707.81 402.509 708.54C403.069 709.28 404.239 709.74 406.029 709.93V711.43H385.609V709.93C387.139 709.74 388.229 709.13 388.889 708.1C389.349 707.41 389.579 705.69 389.579 702.94V685.64C389.579 682.45 389.449 680.44 389.189 679.61C388.929 678.78 388.489 678.13 387.869 677.68C387.249 677.22 386.569 676.99 385.819 676.99C383.339 676.99 381.039 678.69 378.909 682.11V702.94C378.909 705.85 379.189 707.69 379.749 708.47C380.309 709.25 381.349 709.73 382.879 709.93V711.43H362.459V709.93C364.159 709.76 365.369 709.24 366.089 708.35C366.579 707.74 366.819 705.94 366.819 702.94V680.99C366.819 678.05 366.539 676.22 365.979 675.5C365.419 674.78 364.239 674.31 362.459 674.09V672.55H378.909V677.59Z" fill="black"/>
<path d="M433.879 705.69C428.959 709.88 424.539 711.97 420.619 711.97C418.319 711.97 416.399 711.24 414.879 709.79C413.349 708.33 412.589 706.51 412.589 704.32C412.589 701.35 413.909 698.69 416.559 696.32C419.209 693.95 424.979 690.8 433.869 686.86V682.95C433.869 680.01 433.699 678.16 433.369 677.4C433.039 676.64 432.409 675.97 431.489 675.4C430.569 674.83 429.529 674.55 428.379 674.55C426.509 674.55 424.969 674.95 423.759 675.76C423.009 676.26 422.639 676.84 422.639 677.51C422.639 678.09 423.039 678.81 423.849 679.67C424.939 680.86 425.489 682.01 425.489 683.12C425.489 684.48 424.959 685.64 423.909 686.59C422.859 687.55 421.489 688.03 419.789 688.03C417.979 688.03 416.459 687.5 415.229 686.45C414.009 685.4 413.389 684.16 413.389 682.75C413.389 680.75 414.209 678.85 415.849 677.03C417.489 675.21 419.779 673.82 422.719 672.85C425.659 671.88 428.709 671.39 431.869 671.39C435.699 671.39 438.729 672.17 440.959 673.74C443.189 675.31 444.639 677 445.299 678.83C445.699 679.99 445.899 682.67 445.899 686.85V701.94C445.899 703.71 445.969 704.83 446.119 705.29C446.259 705.75 446.479 706.09 446.769 706.31C447.059 706.53 447.389 706.64 447.759 706.64C448.509 706.64 449.269 706.13 450.049 705.1L451.339 706.1C449.899 708.15 448.409 709.64 446.869 710.57C445.329 711.5 443.579 711.96 441.629 711.96C439.329 711.96 437.529 711.44 436.229 710.4C434.929 709.36 434.139 707.79 433.859 705.68L433.879 705.69ZM433.879 702.66V689.65C430.399 691.62 427.809 693.72 426.109 695.97C424.989 697.47 424.419 698.98 424.419 700.5C424.419 701.77 424.899 702.9 425.849 703.87C426.569 704.62 427.579 704.99 428.869 704.99C430.309 704.99 431.979 704.21 433.879 702.66ZM443.809 653.14L429.519 667.57H425.809L430.819 653.14H443.819H443.809Z" fill="black"/>
</g>
<defs>
<clipPath id="clip0_723_1120">
<rect width="622.77" height="711.97" fill="white"/>
</clipPath>
</defs>
</svg>
