<svg width="773" height="657" viewBox="0 0 773 657" fill="none" xmlns="http://www.w3.org/2000/svg">
<g clip-path="url(#clip0_723_995)">
<path fill-rule="evenodd" clip-rule="evenodd" d="M619.28 143.48C754.78 209.22 810.73 371.14 744.21 505.05C677.68 638.97 513.85 694.26 378.33 628.51C376.28 627.51 374.23 626.49 372.22 625.44C499.76 683.36 651.55 630.51 713.76 505.27C776.97 378.01 723.81 224.17 595.05 161.7C489.72 110.6 366.38 136.47 290.38 217.24C289.32 216.44 288.31 215.61 287.31 214.73C365.93 119.75 503.02 87.07 619.28 143.47" fill="black"/>
<path d="M25.9703 575.19C26.7103 575.19 27.0603 575.12 27.3003 574.58C27.4003 574.38 27.6803 572.83 27.8403 571.94C28.0203 570.93 27.4803 570.93 26.7303 570.93H11.3003L14.2103 554.62H32.4803C33.3603 554.62 33.6603 554.48 33.8403 553.87C33.9403 553.67 34.2003 552.18 34.3603 551.3C34.5303 550.35 34.0003 550.28 33.2503 550.28H9.70026C8.55026 550.28 8.26026 550.75 8.06026 551.9L0.0602578 596.85C-0.149742 598 0.180258 598.06 1.19026 598.06H24.7403C25.5503 598.06 26.0403 598 26.2203 596.98L26.6103 594.81C26.8003 593.73 26.4003 593.73 25.5203 593.73H7.24026L10.5403 575.19H25.9703ZM63.4503 573.37C64.1603 569.38 65.3703 562.21 52.5203 562.21C51.7703 562.21 45.4103 562.21 40.4603 564.58C37.9603 565.73 37.3303 566.94 36.8703 569.52L32.0103 596.79C31.8103 597.94 32.1103 598.15 33.0703 598.07H36.3903C37.3403 598.07 37.8403 597.94 38.0503 596.72L42.5003 571.75C42.8003 570.05 43.6403 565.72 50.8803 565.72C58.8003 565.72 57.8903 570.79 57.3303 573.98L53.2803 596.71C53.0603 597.93 53.4503 598.06 54.5303 598.06H58.2503C59.0203 597.93 59.1903 597.32 59.3003 596.71L63.4603 573.36L63.4503 573.37ZM100.3 565.92C100.87 565.78 101.08 565.72 101.17 565.25C101.2 565.05 101.41 563.15 100.66 563.15C100.26 563.15 94.8103 564.1 93.7903 564.1C92.1703 564.1 91.3503 563.76 89.9003 563.15C88.5603 562.68 87.2303 562.2 84.7903 562.2C77.6203 562.2 71.7703 566.93 70.5503 573.77C70.2103 575.67 70.2603 577.7 70.8703 579.59C71.8303 582.57 73.4703 583.65 74.6203 584.39C72.4403 586.01 67.6903 589.46 67.1803 592.37C66.6003 595.62 69.8403 596.43 71.5803 596.9C67.2103 599.42 63.4703 602.53 62.8203 606.19C62.2403 609.43 64.2603 612.14 68.3203 613.29C69.7403 613.7 71.6403 614.04 74.4103 614.04C89.3003 614.04 95.7603 605.51 96.5803 600.91C97.9003 593.52 90.1503 592.91 87.2103 592.71L80.0403 592.31C76.1503 592.11 73.2103 591.9 73.6003 589.73C73.8403 588.38 75.1703 586.96 77.0703 585.47C78.3103 585.74 79.4103 586.01 81.1003 586.01C86.4403 586.01 93.8603 582.76 95.3303 574.5C96.0503 570.44 95.0303 568.61 94.3203 567.26L100.31 565.91L100.3 565.92ZM74.4503 597.46C76.1203 597.6 83.3803 597.87 84.8603 597.94C87.0003 598.07 91.4503 598.56 90.7503 602.48C89.9703 606.88 83.0103 609.86 77.8003 609.86C73.0003 609.86 68.3503 608.24 69.1103 603.98C69.6103 601.2 71.9503 599.44 74.4603 597.47M89.7903 572.49C89.7803 573.3 89.7103 574.12 89.5603 574.93C88.5903 580.41 84.9403 582.24 81.9703 582.24C78.4503 582.24 75.1603 579.06 76.2403 572.97C77.2503 567.28 81.2303 565.46 84.2803 565.46C85.8403 565.46 87.0303 566 87.8403 566.75C88.1703 567.15 89.7503 568.57 89.7903 572.5M99.7303 596.85C99.5203 598 99.7203 598.06 100.8 598.06H104.25C105.13 598.06 105.56 597.93 105.75 596.85L114.56 547.39C114.74 546.37 114.48 546.31 113.46 546.31H110.08C109.2 546.31 108.72 546.38 108.54 547.39L99.7303 596.85ZM125.56 564.3C125.75 563.22 125.52 563.01 124.43 563.01H120.91C119.76 563.01 119.69 563.42 119.53 564.3L113.73 596.84C113.56 597.79 113.51 598.05 114.53 598.05H118.18C119.19 598.05 119.55 597.99 119.75 596.84L125.55 564.3H125.56ZM128.2 553.27C128.43 551.25 127.11 549.89 125.22 549.89C123.05 549.89 121.23 551.38 120.86 553.48C120.52 555.38 121.58 557 123.89 557C126.2 557 127.87 555.17 128.21 553.28M141.78 576.96C139.54 575.87 136.56 574.38 137.23 570.59C137.58 568.63 139.53 565.65 143.18 565.65C146.43 565.65 147.22 568.01 147.74 569.3C148.14 570.45 148.55 571.6 150.3 571.6C151.66 571.6 152.97 570.65 153.26 569.03C153.64 566.86 151.64 562.19 143.92 562.19C136.2 562.19 132.34 566.79 131.49 571.59C130.38 577.81 134.65 580.05 139.73 582.68C142.46 584.1 145.69 585.73 144.95 589.86C144.51 592.36 142.41 595.01 138.82 595.01C135.23 595.01 134.29 593.11 133.61 591.62C133.33 590.88 133.15 590.41 133 590.07C132.71 589.46 132.1 588.3 130.61 588.3C129.26 588.3 127.66 589.32 127.32 591.22C126.97 593.18 128.6 598.88 137.66 598.88C139.35 598.88 143.03 598.74 146.32 596.23C148.68 594.4 150.34 591.56 150.84 588.72C151.97 582.36 147.64 580.06 144.44 578.3L141.77 576.95L141.78 576.96ZM177.23 596.72C177 598 177.27 598 178.41 598.07H181.79C183.01 598.07 183.15 597.67 183.36 596.45L187.36 573.98C187.79 571.2 189.26 562.2 178.7 562.2C172.61 562.2 168.94 565.31 167.52 566.47L170.9 547.52C171.08 546.51 170.85 546.3 169.83 546.3H166.25C165.29 546.37 164.96 546.7 164.81 547.52L156.06 596.65C155.88 597.66 156.01 598.07 157.03 598.07H160.62C161.7 598.07 161.98 597.67 162.2 596.45L166.86 570.26C169.53 568.16 172.61 566.47 175.72 566.47C178.36 566.47 180.42 567.82 181.13 569.92C181.72 571.55 181.4 573.37 181.14 574.79L177.23 596.72ZM236.17 570.12C231.45 567.75 227.59 565.86 228.52 560.65C229.22 556.72 232.88 553.27 237.34 553.27C241.8 553.27 243.06 556.11 244.04 558.21C244.57 559.43 245.18 560.57 246.87 560.57C248.56 560.57 250.02 559.22 250.33 557.46C250.93 554.08 246.44 549.28 238.39 549.28C229.8 549.28 223.41 554.76 222.12 562C220.69 570.05 226.93 573.36 229.4 574.65L232.74 576.4C237.52 578.84 241.79 581.07 240.75 586.89C239.96 591.29 236.16 594.81 231.15 594.81C225.47 594.81 224.13 590.54 223.49 588.45C223 587.03 222.45 585.54 220.49 585.54C218.94 585.54 217.11 586.69 216.72 588.86C216.2 591.77 219.02 599.09 229.92 599.09C238.72 599.09 245.88 593.46 247.3 585.48C248.83 576.89 242.47 573.44 239.39 571.75L236.16 570.12H236.17ZM275.63 571.61C275.98 572.69 276.76 573.64 278.11 573.64C279.12 573.64 281 572.96 281.39 570.79C281.86 568.16 279.13 562.2 271.35 562.2C261.67 562.2 254.86 570.05 252.93 580.88C251.11 591.09 255 598.89 264 598.89C273 598.89 278.25 590.69 278.77 587.78C279.03 586.29 277.91 586.16 277.64 586.16C276.83 586.16 276.47 586.63 275.34 588.05C273.94 589.81 271.06 593.46 266.33 593.46C261.25 593.46 257.03 588.66 258.81 578.71C260.24 570.66 265.19 566.06 269.86 566.06C273.85 566.06 274.71 568.83 275.64 571.61M304.11 596.72C303.88 598 304.15 598 305.29 598.07H308.67C309.89 598.07 310.03 597.67 310.25 596.45L314.25 573.98C314.68 571.2 316.15 562.2 305.59 562.2C299.5 562.2 295.83 565.31 294.41 566.47L297.78 547.52C297.96 546.51 297.73 546.3 296.71 546.3H293.12C292.16 546.37 291.83 546.7 291.69 547.52L282.94 596.65C282.76 597.66 282.89 598.07 283.91 598.07H287.5C288.58 598.07 288.86 597.67 289.08 596.45L293.74 570.26C296.42 568.16 299.49 566.47 302.6 566.47C305.24 566.47 307.3 567.82 308.01 569.92C308.6 571.55 308.27 573.37 308.02 574.79L304.11 596.72ZM350.2 580.34C351.39 572.48 348.63 562.2 338 562.2C328.18 562.2 320.91 571.13 319.22 580.6C317.6 589.67 321.31 598.89 331.53 598.89C341.75 598.89 348.72 589.4 350.2 580.34ZM343.86 579.86C342.6 589.2 337.62 594.75 332.55 594.75C327.48 594.75 324.01 589.13 325.7 579.66C327.13 571.61 331.58 565.99 336.93 565.99C341.46 565.99 345.12 570.52 343.86 579.86ZM385.45 580.34C386.64 572.48 383.88 562.2 373.25 562.2C363.44 562.2 356.16 571.13 354.47 580.6C352.86 589.67 356.56 598.89 366.78 598.89C377 598.89 383.97 589.4 385.44 580.34M379.11 579.86C377.85 589.2 372.87 594.75 367.79 594.75C362.71 594.75 359.25 589.13 360.94 579.66C362.37 571.61 366.83 565.99 372.17 565.99C376.7 565.99 380.36 570.52 379.11 579.86ZM388.74 596.85C388.54 598 388.73 598.06 389.81 598.06H393.26C394.14 598.06 394.57 597.93 394.76 596.85L403.57 547.39C403.75 546.37 403.49 546.31 402.47 546.31H399.09C398.22 546.31 397.73 546.38 397.55 547.39L388.73 596.85H388.74Z" fill="black"/>
<path fill-rule="evenodd" clip-rule="evenodd" d="M587.48 530.24C589.42 535.9 589.81 536.7 596.01 536.7H638.01C640.16 536.7 644.2 536.7 644.98 532.39C645.32 530.51 644.8 528.89 644.02 527.28L618.74 459.97L662.6 406.4C664.29 404.52 665.39 402.9 665.68 401.28C666.41 397.24 662.37 397.24 659.41 397.24H635.18C629.8 397.24 629.48 397.51 624.69 403.16L604.26 426.86L596.42 403.16C594.21 397.51 593.19 397.24 587.8 397.24H549.03C547.15 397.24 542.83 397.24 542.06 401.55C541.77 403.16 542.11 404.24 543.36 407.74L566.3 471.55L518.72 527.81C517.4 529.16 516.35 530.5 516.01 532.39C515.38 535.9 518.19 536.7 521.16 536.7H549.96C554.54 536.7 555.67 536.43 559.77 531.58L580.44 506.54L587.47 530.23L587.48 530.24Z" fill="black"/>
<path fill-rule="evenodd" clip-rule="evenodd" d="M536.44 403.7C537.46 398.04 534.65 397.24 530.34 397.24H491.03C485.11 397.24 484.62 399.93 483.58 404.24L467.69 492.27C466.33 499.81 464.9 506.27 457.09 506.27C448.47 506.27 449.64 499.81 451 492.27L467.03 403.43C468.05 397.78 464.92 397.24 460.88 397.24H422.92C419.42 397.24 415.82 397.78 414.85 403.16L398.23 495.23C393.86 519.46 398.36 540.78 451.39 540.78C476.16 540.78 503.5 534 512.56 521.08C515.81 516.5 517 511.39 518.26 504.38L536.44 403.69V403.7Z" fill="black"/>
<path fill-rule="evenodd" clip-rule="evenodd" d="M327.79 529.7C326.72 535.63 328.68 536.7 334.07 536.7H371.49C376.34 536.7 378.95 535.62 380.02 529.7L411.99 353.1C412.96 347.71 411.01 346.64 405.89 346.64H368.2C364.43 346.64 360.88 346.91 359.81 352.83L327.79 529.7Z" fill="black"/>
<path fill-rule="evenodd" clip-rule="evenodd" d="M315.46 457.82C320.03 457.82 322.65 456.74 323.72 450.82L328.04 426.87C329.01 421.48 327.59 420.41 321.62 420.68H287.16L293.72 384.33H338.41C343.79 384.33 345.36 381.64 346.13 377.33L350.5 353.11C351.57 347.18 347.9 346.65 343.59 346.65H250.44C245.86 346.65 243.73 348 242.54 353.11L210.86 528.63C210.06 534.56 210.48 536.71 217.21 536.71H258.94C264.05 536.71 266.4 535.63 267.52 529.45L280.45 457.84H315.45L315.46 457.82Z" fill="black"/>
<path fill-rule="evenodd" clip-rule="evenodd" d="M86.0903 403.7C87.0103 398.59 85.9103 397.24 80.7903 397.24H40.4103C34.2703 396.97 33.0903 400.47 32.4103 404.24L9.86026 529.16C9.08026 533.46 8.50026 536.7 14.1503 536.7H55.3403C58.5703 536.7 62.1703 536.16 63.2903 529.97L86.0803 403.71L86.0903 403.7Z" fill="black"/>
<path fill-rule="evenodd" clip-rule="evenodd" d="M217.3 427.93C218.37 422.01 220.53 408.54 204.58 399.93C197.23 395.89 186.48 394.27 176.35 393.74C171.82 393.47 167.02 393.2 162.45 393.2C149.25 393.2 124.74 394.82 107.08 403.16C96.4603 408.28 94.6403 413.93 93.0303 422.81L73.8403 529.15C72.9703 534 73.0203 536.69 78.9403 536.69H116.63C120.94 536.69 124.71 536.69 125.78 530.77L142.06 440.58C143.86 430.62 145.7 420.39 156.47 420.39C166.16 420.39 164.88 429 163.17 438.43L146.7 529.69C145.73 535.08 146.99 537 151.9 536.69H190.13C195.51 536.69 197.81 535.88 198.88 529.96L217.3 427.93Z" fill="black"/>
<path fill-rule="evenodd" clip-rule="evenodd" d="M92.1103 346.26H46.5803C44.5703 346.26 42.6503 347.75 42.3303 349.56L35.7603 385.96C35.4303 387.77 36.8103 389.25 38.8203 389.25H84.3503C86.3603 389.25 88.2803 387.77 88.6003 385.96L95.1703 349.56C95.5003 347.75 94.1203 346.26 92.1103 346.26Z" fill="black"/>
<path fill-rule="evenodd" clip-rule="evenodd" d="M577.8 326.45C619.55 325.52 646.84 344.59 659.73 383.71C658.73 342.41 677.81 315.12 716.99 301.78C675.62 302.79 648.32 283.72 635.06 244.52C636 285.9 616.92 313.2 577.79 326.45" fill="black"/>
<path fill-rule="evenodd" clip-rule="evenodd" d="M242.12 220.26C273.37 220.78 293.23 235.84 301.73 265.47C302.18 234.56 317.24 214.7 346.94 205.86C315.97 205.41 296.11 190.35 287.33 160.65C286.83 191.63 271.77 211.49 242.12 220.26Z" fill="black"/>
<path fill-rule="evenodd" clip-rule="evenodd" d="M263.88 176.17C269.88 176.4 274.56 181.46 274.32 187.46C274.09 193.46 269.03 198.13 263.03 197.9C257.03 197.67 252.35 192.61 252.58 186.61C252.81 180.6 257.87 175.93 263.87 176.16" fill="black"/>
<path fill-rule="evenodd" clip-rule="evenodd" d="M679.75 255.07C687.77 255.07 694.28 261.58 694.28 269.6C694.28 277.62 687.77 284.13 679.75 284.13C671.73 284.13 665.22 277.62 665.22 269.6C665.22 261.58 671.73 255.07 679.75 255.07Z" fill="black"/>
<path fill-rule="evenodd" clip-rule="evenodd" d="M413.34 281.53C445 303.36 455.07 332.32 443.57 368.46C465.1 337.11 494.07 327.04 530.5 338.23C499.08 316.67 489.01 287.71 500.26 251.3C478.64 282.69 449.67 292.76 413.33 281.53" fill="black"/>
<path fill-rule="evenodd" clip-rule="evenodd" d="M456.41 249.54C463.6 251.19 468.08 258.35 466.43 265.54C464.78 272.72 457.61 277.21 450.43 275.56C443.25 273.91 438.76 266.75 440.41 259.56C442.06 252.38 449.22 247.9 456.41 249.55" fill="black"/>
<path fill-rule="evenodd" clip-rule="evenodd" d="M440.88 43.44C504.92 77.54 562.29 68.62 613.08 16.67C578.93 80.78 587.85 138.15 639.85 188.86C575.69 154.78 518.31 163.7 467.66 215.64C501.68 151.55 492.77 94.18 440.88 43.44Z" fill="black"/>
<path fill-rule="evenodd" clip-rule="evenodd" d="M524.71 0C538.36 0 549.43 11.07 549.43 24.72C549.43 38.37 538.36 49.44 524.71 49.44C511.06 49.44 499.99 38.37 499.99 24.72C499.99 11.07 511.06 0 524.71 0Z" fill="black"/>
<path fill-rule="evenodd" clip-rule="evenodd" d="M680.14 406.03C680.63 405.96 681.01 405.91 681.72 405.91C682.8 405.91 685.83 405.91 685.83 409.52C685.83 411.76 684.29 412.97 682.13 413.18C681.76 413.2 681.58 413.2 680.14 413.18V406.03ZM677.75 421.84C677.75 422.24 677.88 422.25 678.22 422.25H679.67C680.03 422.25 680.14 422.16 680.14 421.73V415.18C680.14 414.91 680.11 414.29 680.8 414.29C681.49 414.29 681.87 414.85 682.1 415.21L686.25 421.85C686.417 422.117 686.657 422.25 686.97 422.25H687.72C686.03 423.37 684 424.04 681.84 424.04C675.95 424.04 671.16 419.25 671.16 413.36C671.16 407.47 675.95 402.69 681.84 402.69C687.73 402.69 692.51 407.48 692.51 413.36C692.51 416.55 691.1 419.41 688.87 421.37L683.93 413.99C686.69 413.29 688.29 411.57 688.29 409.2C688.29 406.99 687.05 405.95 686.79 405.75C685.43 404.58 683.35 404.5 681.99 404.5C680.7 404.5 678.68 404.66 678.12 404.85C677.8 404.98 677.73 405.1 677.73 405.62V421.83L677.75 421.84ZM681.85 400.85C688.73 400.85 694.35 406.48 694.35 413.36C694.35 420.24 688.73 425.87 681.85 425.87C674.97 425.87 669.34 420.24 669.34 413.36C669.34 406.48 674.96 400.85 681.85 400.85Z" fill="black"/>
</g>
<defs>
<clipPath id="clip0_723_995">
<rect width="772.24" height="656.22" fill="white"/>
</clipPath>
</defs>
</svg>
