<svg width="1509" height="283" viewBox="0 0 1509 283" fill="none" xmlns="http://www.w3.org/2000/svg">
<g clip-path="url(#clip0_723_789)">
<path d="M387.88 181.15C387.88 181.15 401.43 186.04 416.6 186.04C432.77 186.04 442.87 183.82 448.49 178.08C453.17 173.38 455.03 165.5 454.8 153.85V76.48H478.7V157.19C478.35 192.95 461.09 208.2 420.96 208.2C401.45 208.2 387.88 205.08 387.88 205.08V181.15ZM492.84 154.76C492.84 179.38 508.88 208.2 554.11 208.2C599.34 208.2 615.4 179.38 615.4 154.76C615.4 120.28 592.48 99.68 554.11 99.68C515.74 99.68 492.84 120.28 492.84 154.76ZM554.11 187.04C540.15 187.04 516.66 182.7 516.66 153.66C516.66 132.84 530.33 120.88 554.11 120.88C577.89 120.88 591.51 132.84 591.51 153.66C591.51 182.7 568.08 187.04 554.11 187.04ZM715.53 102.15V143.37H653.41V102.15H629.55V205.77H653.41V164.57H715.53V205.77H739.39V102.15H715.53ZM1095.01 164.57H1150.07V143.37H1095.01V123.36H1166.22V102.16H1071.16V205.78H1166.22V184.6H1095.01V164.57ZM1206.02 164.57H1261.12V143.37H1206.02V123.36H1277.23V102.16H1182.13V205.78H1277.23V184.6H1206.02V164.57ZM1437.49 164.57H1492.63V143.37H1437.49V123.36H1508.74V102.16H1413.68V205.78H1508.74V184.6H1437.49V164.57ZM952.09 97.76V184.42H985.83C1004.14 184.42 1034.89 178.75 1034.89 140.68C1034.89 113.38 1017.01 97.76 985.83 97.76H952.09ZM985.83 76.35C1031.57 76.35 1058.91 100.93 1058.91 141.99C1058.91 171.45 1039.77 205.76 985.83 205.76H928.14V76.35H985.83ZM1402.71 205.76H1373.83L1345.03 167.86H1316.99V205.76H1293.11V102.14H1360.62C1383.87 102.14 1397.68 114.58 1397.68 135.4C1397.68 147.87 1390.78 161.9 1372.68 166.27L1402.7 205.76H1402.71ZM1361.94 146.71C1366.86 146.71 1375.14 145.14 1375.14 134.89C1375.14 127.54 1370.32 123.35 1361.94 123.35H1318.31V146.65L1361.94 146.71ZM868.7 205.76V102.14H844.8V172.06L782.51 102.14H758.83V205.76H782.71V135.13L844.79 205.76H868.7Z" fill="black"/>
<path d="M272.17 44.65C236.27 28.09 195.82 19.31 155.21 19.31C114.6 19.31 74.11 28.13 38.11 44.8C26.21 75.58 20.17 107.96 20.17 141.06C20.17 174.16 26.21 206.55 38.09 237.32C74.1 254.01 114.59 262.81 155.22 262.81C195.85 262.81 236.1 254.08 271.97 237.56C264.39 223.19 252.06 210.79 251.41 210.18C249.83 209.63 217.82 200.08 206.81 194.3C198.06 189.73 188.86 178.61 187.82 177.32C179.07 176.75 170.31 176.73 161.27 177.81C150.13 179.2 137.76 181.42 125.92 179.52C119.19 178.42 112.68 176.28 105.8 173.99C95.35 170.54 84.55 166.97 72.25 167.01C73.98 170.36 84.44 189.87 99.37 194.85C99.51 194.87 103.98 195.89 105.69 197.18L112.85 208.59L112.08 209.41C111.75 209.27 78.6 192.86 56.73 165.65L55.77 160.22C69.19 155.04 83.04 154 96.4 152.77C96.4 152.77 99.67 152.48 100.2 152.42C102.02 136.11 106.47 121.83 112.87 109.06C113.83 107.13 111.91 106.87 111.91 106.87C106.81 105.81 93.34 103.07 93.34 103.07L91.55 97.45C104.95 92.41 121.24 87.77 132.13 85.39C133.52 82.97 134.23 80.86 134.23 79.02C134.23 77.57 133.77 76.34 132.88 75.29C127.63 69.07 107.07 71.57 85.06 80.12L84.68 78.7C88.4 75.71 93.85 71.99 99.12 69.57C97.22 63.06 88.73 60.12 88.64 60.08L89.58 59.36C96.77 60.23 102.52 63.24 105.04 67.45C111.04 65.61 113.12 65.13 117.99 64.75C117.43 54.6 107.78 47.72 107.67 47.65L108.77 46.99C117.9 50.29 124.61 56.82 126.79 64.5C131.26 64.62 132.81 64.78 136.55 66.34C137.86 63.3 138.39 60.36 138.39 57.65C138.39 47.84 131.82 40.69 131.72 40.6L132.93 40.01C144.39 45.89 147.41 56 147.41 65.01C147.41 73.36 144.82 80.73 143.96 82.98C143.96 82.98 156.78 80.4 166.57 79.14L167.1 79.7C166.49 80.56 161.98 86.04 150.52 92.42L140.88 91.25C140.1 93.68 134.72 110.95 134.69 123.76V123.8C134.69 128.48 136.01 132.13 138.63 134.67C143.27 139.17 151.03 139.42 156.46 139.23C193.4 137.84 209.64 143.1 212.16 144.02C212.35 143.25 212.79 141.41 212.79 138.62C212.79 133.16 210.34 124.19 201.94 113.67L203.18 113.08C203.4 113.22 225.41 125.28 228.08 143.85L218.45 147.79C227.12 156.94 230.15 168 232.57 176.94C234.32 183.39 235.82 188.96 238.98 191.7C242.94 195.11 258.94 203.46 259.08 203.56C259.08 203.56 263.71 209.56 275.15 229.39C285.1 201.13 290.14 171.46 290.14 141.09C290.14 107.94 284.09 75.51 272.16 44.68L272.17 44.65Z" fill="black"/>
<path d="M288.35 30.49C248.62 10.99 202.86 0 155.22 0C107.58 0 61.74 11.06 21.9 30.66C7.78 64.82 0 102.06 0 141.09C0 180.12 7.78 217.33 21.88 251.45C61.73 271.08 107.42 282.12 155.22 282.12C203.02 282.12 248.64 271.12 288.38 251.63C302.54 217.45 310.34 180.15 310.34 141.09C310.34 102.03 302.53 64.69 288.36 30.5L288.35 30.49ZM278.97 243.26C241.84 260.77 199.34 270.59 155.21 270.59C111.08 270.59 68.53 260.71 31.32 243.1C18.81 211.42 11.96 177.03 11.96 141.15C11.96 105.27 18.81 70.73 31.39 39C68.6 21.42 111 11.55 155.21 11.55C199.42 11.55 241.78 21.37 278.89 38.84C291.48 70.63 298.38 105.1 298.38 141.15C298.38 177.2 291.5 211.56 278.97 243.27V243.26Z" fill="black"/>
</g>
<defs>
<clipPath id="clip0_723_789">
<rect width="1508.74" height="282.12" fill="white"/>
</clipPath>
</defs>
</svg>
