<svg width="1486" height="564" viewBox="0 0 1486 564" fill="none" xmlns="http://www.w3.org/2000/svg">
<g clip-path="url(#clip0_723_796)">
<path d="M578.7 291.24H552.2V504.36H674.49V478.75H578.7V291.24Z" fill="black"/>
<path d="M747.48 368.98C709.42 368.98 678.47 399.94 678.47 437.99C678.47 476.04 710.07 507.57 747.48 507.57C784.89 507.57 816.48 475.7 816.48 437.99C816.48 400.28 785.53 368.98 747.48 368.98ZM790.85 437.99C790.85 462.45 770.98 483.11 747.47 483.11C723.96 483.11 704.08 462.44 704.08 437.99C704.08 413.54 723.14 393.44 747.47 393.44C771.8 393.44 790.85 413.01 790.85 437.99Z" fill="black"/>
<path d="M851.29 317.74C842.29 317.74 834.69 325.08 834.69 333.76C834.69 343.07 841.98 350.36 851.29 350.36C860.6 350.36 867.6 342.91 867.6 333.76C867.6 325.23 859.98 317.74 851.29 317.74Z" fill="black"/>
<path d="M838.48 501.81C838.81 514.61 835.41 525.32 828.92 531.98C824.19 536.83 818.09 539.3 810.82 539.3H808.16L808.53 563.76H811.11C826.61 563.76 839.13 559.02 848.34 549.66C858.97 538.86 864.42 522.29 864.1 501.73V371.01H838.47V501.81H838.48Z" fill="black"/>
<path d="M995.07 387.89C982.75 375.79 966.43 368.97 949.36 368.97C911.31 368.97 880.36 399.93 880.36 437.98C880.36 476.03 911.96 507.56 949.36 507.56C966.39 507.56 982.71 500.57 995.07 488.17V504.94H1019.82V371.01H995.07V387.89ZM993.9 437.99C993.9 462.03 972.81 483.11 948.78 483.11C924.75 483.11 905.98 462.87 905.98 437.99C905.98 413.11 924.77 393.44 948.78 393.44C972.79 393.44 993.9 413.84 993.9 437.99Z" fill="black"/>
<path d="M1141.69 459.45C1133.81 474.04 1119.19 483.11 1103.53 483.11C1080.02 483.11 1060.15 462.44 1060.15 437.99C1060.15 413.54 1079.2 393.44 1103.53 393.44C1119.62 393.44 1133.88 402.07 1141.69 416.52L1142.44 417.9H1169.59L1168.29 414.36C1158.31 387.21 1132.27 368.97 1103.52 368.97C1065.47 368.97 1034.52 399.93 1034.52 437.98C1034.52 476.03 1066.12 507.57 1103.52 507.57C1132.86 507.57 1159.01 489.07 1168.59 461.55L1169.8 458.07H1142.43L1141.68 459.44L1141.69 459.45Z" fill="black"/>
<path d="M1247.82 368.98C1209.76 368.98 1178.81 399.94 1178.81 437.99C1178.81 476.04 1210.41 507.57 1247.82 507.57C1285.23 507.57 1316.82 475.7 1316.82 437.99C1316.82 400.28 1285.87 368.98 1247.82 368.98ZM1291.19 437.99C1291.19 462.45 1271.33 483.11 1247.81 483.11C1224.29 483.11 1204.42 462.44 1204.42 437.99C1204.42 413.54 1223.48 393.44 1247.81 393.44C1272.14 393.44 1291.19 413.01 1291.19 437.99Z" fill="black"/>
<path d="M1357.44 384.68V371.02H1332.69V504.37H1357.44V430.99C1357.44 405.18 1378.57 393.43 1398.2 393.43H1400.82V368.97H1398.2C1382.74 368.97 1368.5 374.5 1357.44 384.67" fill="black"/>
<path d="M1482.87 368.98C1467.41 368.98 1453.16 374.51 1442.12 384.68V371.03H1417.36V504.37H1442.12V431C1442.12 405.19 1463.24 393.44 1482.87 393.44H1485.49V368.98H1482.87Z" fill="black"/>
<path d="M496.18 388.96C491.02 370.89 480.43 357.53 464.73 349.23C433.24 332.63 393.39 343.77 381.92 347.58C346.97 359.23 310.37 387.51 278.94 414.07C238.68 389.85 197 353.43 154.99 305.74C179.97 253.15 193.72 195.5 193.72 143.17C193.72 48.87 158.83 0.7 90.0096 0H89.3696C58.9896 0 33.3396 14.91 17.1096 42.03C-6.05043 80.72 -5.66043 137.9 18.0596 181.04C18.3796 181.63 53.0296 243.24 110.26 311.98C67.1696 405.02 67.8396 468.62 112.24 501.04C128.93 513.23 146.14 519.16 164.86 519.16C202.65 519.16 239.6 495.39 283.25 459.52C332.84 484.18 381.11 492.19 426.79 483.36C454.55 477.96 476.54 464.06 488.7 444.25C498.93 427.57 501.59 407.94 496.18 388.96ZM456.67 424.58C450.09 435.32 436.93 443.09 419.63 446.45C386.85 452.81 351.76 448.19 315.27 432.73C337.21 414.79 367.43 392.03 393.81 383.24C409.32 378.06 432.61 374.78 447.2 382.47C453.58 385.83 457.78 391.34 460.04 399.29C462.53 408 461.33 416.99 456.67 424.58ZM137.53 343.22C174.47 383.51 211.65 415.84 248.17 439.43C192.54 483.08 162.47 491.19 134.41 470.71C102.71 447.55 117.94 389.73 137.53 343.22ZM49.3596 61.33C55.8296 50.51 67.9496 37.62 88.9396 37.57H89.6296C135.62 38.04 156.14 70.61 156.14 143.16C156.14 184.54 146.22 230.68 128.14 273.74C80.5296 214.34 51.2496 163.41 50.9796 162.93C33.6696 131.42 32.9896 88.69 49.3596 61.33Z" fill="black"/>
</g>
<defs>
<clipPath id="clip0_723_796">
<rect width="1485.49" height="563.76" fill="white"/>
</clipPath>
</defs>
</svg>
