<svg width="1365" height="221" viewBox="0 0 1365 221" fill="none" xmlns="http://www.w3.org/2000/svg">
<g clip-path="url(#clip0_723_809)">
<path d="M1172.61 16.33C1173.84 16.02 1174.83 15.46 1175.56 14.67C1176.38 13.77 1176.8 12.6 1176.8 11.18C1176.8 7.73 1174.52 5.97 1170.02 5.97H1163.95V24.25H1166.7V16.62H1169.75L1174.32 24.1L1174.41 24.25H1177.56L1172.6 16.33H1172.61ZM1166.69 8.21H1169.67C1171.17 8.21 1172.29 8.45 1173.02 8.92C1173.71 9.37 1174.05 10.11 1174.05 11.17C1174.05 12.23 1173.7 13.02 1172.98 13.55C1172.24 14.1 1171.13 14.37 1169.68 14.37H1166.7V8.21H1166.69Z" fill="black"/>
<path d="M1169.54 1.82C1176.76 1.82 1182.63 7.69 1182.63 14.91C1182.63 22.13 1176.76 28 1169.54 28C1162.32 28 1156.45 22.13 1156.45 14.91C1156.45 7.69 1162.32 1.82 1169.54 1.82ZM1169.54 0C1161.31 0 1154.63 6.68 1154.63 14.91C1154.63 23.14 1161.31 29.82 1169.54 29.82C1177.77 29.82 1184.45 23.14 1184.45 14.91C1184.45 6.68 1177.77 0 1169.54 0Z" fill="black"/>
<path d="M50.57 9.94L0 197.59H119.62L130.4 156H85.48L124.5 9.94H50.57Z" fill="black"/>
<path d="M699.22 10.2L682.02 197.84H605.79L612.46 157.03H591.15L575.75 197.84H499.51L583.46 10.2H699.23H699.22ZM629.93 52.55C629.93 52.55 602.72 115.95 604.52 116.21C606.32 116.47 620.71 116.21 620.71 116.21L629.93 52.55Z" fill="black"/>
<path d="M695.64 197.84L746.72 10.2H840.15V86.82L881.48 10.2H974.66L924.61 197.84H858.38L886.47 94.07L831.43 197.84C831.43 197.84 789.59 198.35 789.33 197.84C789.07 197.33 789.59 95.68 789.59 95.68L761.61 197.84H695.64Z" fill="black"/>
<path d="M220.53 8.66H309.86C309.86 8.66 352.73 5.58 342.2 45.11C331.68 84.64 311.04 160.88 311.04 160.88C311.04 160.88 302.67 199.6 265.7 198.83C228.74 198.06 172.27 198.83 172.27 198.83C172.27 198.83 130.94 199.9 142.24 159.85C153.53 119.81 175.61 40.49 175.61 40.49C175.61 40.49 181.25 12.35 220.53 8.66ZM244.12 60.51L221.28 143.42C221.28 143.42 216.66 155.99 226.67 156.25C236.68 156.51 238.22 150.09 240.53 143.42C242.84 136.74 262.61 61.79 262.61 61.79C262.61 61.79 265.95 52.04 256.45 50.75C246.96 49.46 244.13 60.5 244.13 60.5" fill="black"/>
<path d="M367.13 10.2H493.61C493.61 10.2 522.39 9.57 525.25 30.73C528.11 51.9 514.47 75.65 513.44 76.93C512.41 78.22 505.48 92.08 481.61 97.21C481.61 97.21 503.69 104.4 501.63 122.62C499.58 140.85 484.43 197.83 484.43 197.83H409.73L427.52 126.73C427.52 126.73 428.87 120.31 422.2 120.05C415.52 119.8 410.9 119.8 410.9 119.8L390.47 197.83H316.54L367.13 10.2ZM429.19 52.55L422.01 79.25C422.01 79.25 431.23 79.76 434.45 79.25C437.67 78.73 440.75 78.48 444.34 67.69C447.93 56.91 444.45 53.06 441.82 52.55C439.2 52.04 429.19 52.55 429.19 52.55Z" fill="black"/>
<path d="M1059.86 0.46L1321.98 220.26H1359.87L1329.98 197.93L1364.1 198L1305.82 158.85L1276.54 158.88L1241.92 133.09H1268.3L1223.5 103.01H1201.98L1177.26 84.84H1196.53L1167.41 65.22H1150.57L1133.79 52.89H1149.1L1129.69 39.82H1116L1101.56 29.2H1113.94L1102.3 21.36H1090.88L1080.96 14.07H1091.48L1085.66 10.14H1075.63L1062.44 0.46H1059.86Z" fill="black"/>
<path d="M1049.91 133.09H1199.24L1166.03 103.01H1046.28L1049.91 133.09Z" fill="black"/>
<path d="M1041.73 65.23L1044.09 84.84H1145.97L1124.31 65.23H1041.73Z" fill="black"/>
<path d="M1038.67 39.81L1040.25 52.89H1110.7L1096.26 39.81H1038.67Z" fill="black"/>
<path d="M1036.45 21.36L1037.39 29.2H1084.54L1075.88 21.36H1036.45Z" fill="black"/>
<path d="M1035.1 10.15L1035.57 14.07H1067.83L1063.49 10.15H1035.1Z" fill="black"/>
<path d="M1252.74 181.55L1227.67 158.84H1053.01L1055.74 181.55L1057.87 198.08H1270.4L1252.74 181.55Z" fill="black"/>
<path d="M1028.22 0.46L1026.9 10.14H1016.88L1015.86 14.07H1026.37L1025.38 21.36H1013.97L1011.93 29.2H1024.31L1022.87 39.82H1009.17L1005.78 52.89H1021.09L1019.41 65.22H1002.57L997.48 84.84H1016.75L1014.28 103.01H992.76L984.57 133.09H1010.19L1007.59 158.84H977.31L967.1 197.93H1003.64L1001.37 220.5H1037.84L1030.8 0.46H1028.22Z" fill="black"/>
</g>
<defs>
<clipPath id="clip0_723_809">
<rect width="1364.1" height="220.5" fill="white"/>
</clipPath>
</defs>
</svg>
