<svg width="1473" height="424" viewBox="0 0 1473 424" fill="none" xmlns="http://www.w3.org/2000/svg">
<g clip-path="url(#clip0_723_829)">
<path d="M224.9 129.98C224.81 111.9 215.76 102.85 197.77 102.85H0.96L1.08 296.14H48.57L48.43 143.55H89.11L89.25 296.14H136.72V143.55H163.71C172.76 143.55 177.27 147.98 177.27 156.83V157.12L177.41 296.14H224.88V129.98H224.9Z" fill="black"/>
<path d="M316.31 102.84L245.1 296.13H299.35L343.44 176.49L372.46 255.43H329.88V296.13H441.77L370.56 102.84H316.31Z" fill="black"/>
<path d="M611.32 269V207.96C611.32 189.88 602.27 180.85 584.19 180.85H523.17C514.12 180.85 509.58 176.32 509.58 167.28V157.11C509.58 148.06 514.11 143.54 523.17 143.54H611.32V102.84H489.24C471.16 102.84 462.11 111.89 462.11 129.97V194.39C462.11 210.22 471.16 218.13 489.24 218.13H550.28C559.31 218.13 563.84 222.65 563.84 231.7V241.87C563.84 250.92 559.31 255.43 550.28 255.43H462.1L489.23 296.13H585.79C602.79 296.13 611.31 287.08 611.31 269H611.32Z" fill="black"/>
<path d="M726.73 296.13V143.54H774.21V102.84H631.66L631.79 143.54H679.28V296.13H726.73Z" fill="black"/>
<path d="M916.49 143.54L943.62 102.84H794.42V296.13H918.53L943.62 255.43H841.9V218.13H916.49V180.85H841.9V143.54H916.49Z" fill="black"/>
<path d="M1086.04 214.75C1104.03 214.75 1113.06 205.7 1113.17 187.62V129.98C1113.17 111.9 1104.12 102.85 1086.04 102.85H963.96V296.14H1011.43V143.53H1052.13C1061.17 143.53 1065.7 148.06 1065.7 157.11V167.28C1065.7 176.22 1061.17 180.74 1052.13 180.85H1021.6L1069.07 296.14H1119.94L1083.99 214.76H1086.04V214.75Z" fill="black"/>
<path d="M63.05 341.67C59.56 338.34 55.58 335.77 51.05 333.94C46.52 332.11 41.81 331.18 36.89 331.18C31.97 331.18 27.31 332.1 22.77 333.94C18.25 335.77 14.24 338.35 10.82 341.67C7.28 345.12 4.63 349.01 2.75 353.4C0.9 357.81 0 362.43 0 367.39C0 372.35 0.91 376.9 2.75 381.26C4.64 385.62 7.29 389.51 10.82 392.96C14.27 396.36 18.29 398.95 22.8 400.78C27.3 402.63 31.97 403.54 36.88 403.54C41.79 403.54 46.45 402.63 50.98 400.78C55.53 398.95 59.55 396.35 63.04 392.96C66.52 389.55 69.17 385.65 71 381.3C72.81 376.96 73.7 372.28 73.7 367.39C73.7 362.5 72.81 357.75 71 353.36C69.17 348.97 66.52 345.11 63.04 341.66L63.05 341.67ZM63.05 378.24C61.63 381.67 59.56 384.75 56.86 387.45C54.12 390.15 51.05 392.25 47.67 393.69C44.22 395.1 40.65 395.83 36.89 395.83C33.13 395.83 29.46 395.1 26.13 393.69C22.72 392.31 19.64 390.21 16.87 387.45C14.15 384.66 12.09 381.58 10.67 378.19C9.32 374.83 8.57 371.19 8.57 367.4C8.57 363.61 9.32 359.88 10.7 356.41C12.14 352.94 14.2 349.85 16.87 347.13C19.52 344.43 22.56 342.36 25.97 340.94C29.42 339.53 33.03 338.84 36.89 338.84C40.75 338.84 44.27 339.53 47.7 340.94C51.08 342.36 54.15 344.42 56.86 347.13C59.53 349.8 61.57 352.87 63.01 356.36C64.41 359.83 65.16 363.54 65.16 367.4C65.16 371.26 64.47 374.87 63.05 378.25V378.24Z" fill="black"/>
<path d="M118.95 336.17C117.23 334.94 115.16 334.07 112.73 333.56C110.33 333 106.63 332.74 101.58 332.74H87.11V401.69H95.14V370.77H101.58C106.69 370.77 110.38 370.51 112.78 369.94C115.16 369.44 117.23 368.53 118.95 367.27C121.15 365.69 122.88 363.59 124.14 360.83C125.37 358.07 125.96 355.05 125.96 351.76C125.96 348.47 125.37 345.39 124.14 342.64C122.88 339.9 121.15 337.73 118.95 336.17ZM113.46 360.83C111.03 362.48 106.31 363.3 99.25 363.3H95.14V340.25H99.25C106.16 340.25 110.89 341.12 113.36 342.9C115.89 344.7 117.11 347.81 117.11 352.2C117.11 356.34 115.89 359.17 113.45 360.83H113.46Z" fill="black"/>
<path d="M136.09 401.69H172.49V394.1H144.29V367.64H172.49V360H144.29V340.26H172.49V332.74H136.09V401.69Z" fill="black"/>
<path d="M229.47 399.61L204.77 368.84H206.25C212.35 368.84 216.96 367.4 220.12 364.45C223.31 361.48 224.87 357.23 224.87 351.52C224.87 348.28 224.3 345.3 223.14 342.65C222 339.95 220.44 337.77 218.39 336.18C216.77 334.95 214.85 334.05 212.72 333.53C210.55 333.01 207.19 332.75 202.59 332.75H186.35V401.7H194.39V368.85H195.58L220.72 401.7H237.45L246.38 380.58H273.35L282.31 401.7H291.2L259.83 329.99L229.46 399.62L229.47 399.61ZM194.39 362.76V339.66H200.65C206.94 339.66 211.21 340.57 213.38 342.33C215.64 344.11 216.74 347.22 216.74 351.68C216.74 355.75 215.67 358.61 213.5 360.29C211.33 361.94 207.06 362.76 200.65 362.76H194.39ZM248.87 373.51L259.84 348.16L270.81 373.51H248.87Z" fill="black"/>
<path d="M331.62 331.09C326.55 331.09 321.88 331.9 317.61 333.61C313.33 335.32 309.43 337.82 305.93 341.22C302.28 344.79 299.58 348.73 297.81 353.08C296.05 357.44 295.16 362.25 295.16 367.55C295.16 373.67 296.48 379.25 299.14 384.34C301.81 389.42 305.61 393.69 310.66 397.21C313.66 399.27 316.88 400.84 320.35 401.94C322.64 402.67 324.96 403.11 327.32 403.34V401.69H330.91V403.54C330.91 403.54 330.97 403.54 331 403.54C335.2 403.54 339.27 402.88 343.21 401.65C347.14 400.37 350.84 398.49 354.29 396.02V385.12C351.18 388.73 347.73 391.43 343.94 393.28C340.19 395.09 336.1 396.02 331.71 396.02C327.02 396.02 322.66 394.97 318.64 392.82C314.58 390.7 311.21 387.7 308.43 383.79C306.85 381.51 305.69 379.01 304.91 376.34C304.11 373.62 303.72 370.67 303.72 367.47C303.72 363.4 304.38 359.65 305.71 356.29C307.01 352.91 309 349.85 311.63 347.13C314.17 344.46 317.18 342.4 320.64 340.94C324.13 339.48 327.68 338.75 331.31 338.75C335.86 338.75 339.97 339.57 343.72 341.31C347.43 343.02 350.95 345.65 354.28 349.22V338.57C350.6 335.99 346.92 334.11 343.17 332.92C339.45 331.69 335.59 331.09 331.61 331.09H331.62Z" fill="black"/>
<path d="M327.32 411.05C327.69 411.05 328.03 411.05 328.39 411.01H329.81C332 411.01 333.6 411.33 334.59 411.95C335.64 412.65 336.12 413.68 336.12 415.03C336.12 416.38 335.66 417.29 334.7 417.93C333.72 418.57 332.32 418.89 330.44 418.89C329.23 418.89 327.61 418.76 325.56 418.43C323.57 418.08 321.35 417.67 318.82 417.06V421.77C321.26 422.47 323.51 423.02 325.54 423.39C327.62 423.74 329.41 423.89 331 423.89C334.82 423.89 337.75 423.16 339.77 421.65C341.78 420.08 342.77 417.94 342.77 415.04C342.77 412.14 341.88 410.15 340.08 408.68C338.3 407.26 335.69 406.55 332.25 406.55H330.9V403.56C329.69 403.56 328.5 403.48 327.31 403.36V411.06L327.32 411.05Z" fill="black"/>
<path d="M428.13 341.67C424.68 338.34 420.68 335.77 416.13 333.94C411.6 332.11 406.88 331.18 401.97 331.18C397.06 331.18 392.41 332.1 387.87 333.94C383.35 335.77 379.37 338.35 375.9 341.67C372.4 345.12 369.71 349.01 367.84 353.4C366.03 357.81 365.09 362.43 365.09 367.39C365.09 372.35 366.03 376.9 367.84 381.26C369.71 385.62 372.39 389.51 375.9 392.96C379.4 396.36 383.38 398.95 387.89 400.78C392.42 402.63 397.1 403.54 401.97 403.54C406.84 403.54 411.56 402.63 416.07 400.78C420.62 398.95 424.66 396.35 428.13 392.96C431.63 389.55 434.28 385.65 436.09 381.3C437.92 376.96 438.83 372.28 438.83 367.39C438.83 362.5 437.92 357.75 436.09 353.36C434.27 348.97 431.63 345.11 428.13 341.66V341.67ZM428.13 378.24C426.71 381.67 424.68 384.75 421.98 387.45C419.23 390.15 416.15 392.25 412.75 393.69C409.34 395.1 405.76 395.83 401.97 395.83C398.18 395.83 394.58 395.1 391.21 393.69C387.81 392.31 384.72 390.21 381.97 387.45C379.23 384.66 377.19 381.58 375.78 378.19C374.37 374.83 373.68 371.19 373.68 367.4C373.68 363.61 374.37 359.88 375.81 356.41C377.22 352.94 379.28 349.85 381.96 347.13C384.61 344.43 387.65 342.36 391.08 340.94C394.49 339.53 398.14 338.84 401.96 338.84C405.78 338.84 409.36 339.53 412.78 340.94C416.21 342.36 419.25 344.42 421.97 347.13C424.64 349.8 426.68 352.87 428.11 356.36C429.53 359.83 430.26 363.54 430.26 367.4C430.26 371.26 429.57 374.87 428.13 378.25V378.24Z" fill="black"/>
<path d="M394.03 321.27C394.73 320.74 395.58 320.46 396.54 320.46C396.88 320.46 397.25 320.51 397.64 320.55C398.03 320.68 398.42 320.75 398.85 320.89L403.38 322.12C403.97 322.26 404.52 322.4 405.07 322.48C405.62 322.57 406.09 322.64 406.48 322.64C408.88 322.64 410.85 321.79 412.43 320.12C414.03 318.43 415.13 315.99 415.74 312.77H411.6C411.17 313.96 410.59 314.81 409.84 315.38C409.09 315.94 408.21 316.2 407.19 316.2C406.91 316.2 406.58 316.2 406.25 316.13C405.89 316.08 405.38 315.93 404.65 315.75L400.03 314.38C399.64 314.23 399.23 314.15 398.75 314.09C398.3 314.05 397.81 314 397.24 314C394.89 314 392.93 314.83 391.36 316.47C389.79 318.16 388.72 320.54 388.17 323.65H392.3C392.76 322.62 393.33 321.83 394.04 321.26L394.03 321.27Z" fill="black"/>
<path d="M452.22 401.69H488.58V394.1H460.42V367.64H488.58V360H460.42V340.26H488.58V332.74H452.22V401.69Z" fill="black"/>
<path d="M527.61 363.39L517.76 359.09C514.58 357.72 512.23 356.1 510.74 354.31C509.23 352.55 508.46 350.42 508.46 347.95C508.46 345.09 509.44 342.65 511.41 340.77C513.35 338.89 515.89 337.94 518.99 337.94C521.39 337.94 523.56 338.56 525.46 339.92C527.4 341.18 529.12 343.21 530.64 345.88L537.47 341.52C535.73 338.12 533.38 335.49 530.36 333.77C527.34 331.95 523.74 331.1 519.58 331.1C513.96 331.1 509.29 332.7 505.66 335.9C502 339.14 500.18 343.21 500.18 348.04C500.18 352.27 501.32 355.88 503.54 358.9C505.8 361.94 509.21 364.38 513.76 366.3L522.17 369.87C525.76 371.45 528.43 373.39 530.2 375.65C531.96 377.94 532.87 380.58 532.87 383.7C532.87 387.45 531.61 390.58 529.05 392.96C526.51 395.29 523.17 396.48 519.08 396.48C515.58 396.48 512.7 395.41 510.37 393.28C508.08 391.11 506.42 387.95 505.39 383.78L497.96 387.44C499.26 392.53 501.75 396.53 505.39 399.27C509.09 402.06 513.62 403.45 519.08 403.45C525.73 403.45 531.1 401.51 535.12 397.62C539.16 393.78 541.17 388.64 541.17 382.33C541.17 377.97 540.01 374.21 537.77 371.06C535.48 367.9 532.09 365.32 527.62 363.39H527.61Z" fill="black"/>
<path d="M612.41 336.17C610.63 334.94 608.57 334.07 606.17 333.56C603.79 333 600.09 332.74 595.02 332.74H580.56V401.69H588.54V370.77H595.01C600.09 370.77 603.81 370.51 606.18 369.94C608.56 369.44 610.62 368.53 612.4 367.27C614.6 365.69 616.31 363.59 617.54 360.83C618.76 358.07 619.41 355.05 619.41 351.76C619.41 348.47 618.77 345.39 617.54 342.64C616.31 339.9 614.6 337.73 612.4 336.17H612.41ZM606.89 360.83C604.47 362.48 599.72 363.3 592.7 363.3H588.54V340.25H592.7C599.6 340.25 604.29 341.12 606.8 342.9C609.29 344.7 610.56 347.81 610.56 352.2C610.56 356.34 609.31 359.17 606.9 360.83H606.89Z" fill="black"/>
<path d="M689.39 341.67C685.94 338.34 681.92 335.77 677.39 333.94C672.86 332.11 668.13 331.18 663.24 331.18C658.35 331.18 653.65 332.1 649.16 333.94C644.61 335.77 640.63 338.35 637.16 341.67C633.66 345.12 630.97 349.01 629.13 353.4C627.3 357.81 626.39 362.43 626.39 367.39C626.39 372.35 627.3 376.9 629.13 381.26C630.98 385.62 633.66 389.51 637.16 392.96C640.66 396.36 644.65 398.95 649.18 400.78C653.68 402.63 658.36 403.54 663.24 403.54C668.12 403.54 672.8 402.63 677.36 400.78C681.88 398.95 685.93 396.35 689.4 392.96C692.89 389.55 695.54 385.65 697.38 381.3C699.17 376.96 700.1 372.28 700.1 367.39C700.1 362.5 699.17 357.75 697.38 353.36C695.53 348.97 692.88 345.11 689.4 341.66L689.39 341.67ZM689.39 378.24C687.98 381.67 685.94 384.75 683.24 387.45C680.5 390.15 677.43 392.25 674 393.69C670.59 395.1 667.01 395.83 663.24 395.83C659.47 395.83 655.82 395.1 652.47 393.69C649.09 392.31 646.02 390.21 643.24 387.45C640.52 384.66 638.44 381.58 637.05 378.19C635.64 374.83 634.93 371.19 634.93 367.4C634.93 363.61 635.64 359.88 637.06 356.41C638.47 352.94 640.55 349.85 643.23 347.13C645.88 344.43 648.9 342.36 652.35 340.94C655.76 339.53 659.41 338.84 663.23 338.84C667.05 338.84 670.65 339.53 674.02 340.94C677.45 342.36 680.53 344.42 683.23 347.13C685.88 349.8 687.96 352.87 689.37 356.36C690.79 359.83 691.54 363.54 691.54 367.4C691.54 371.26 690.81 374.87 689.39 378.25V378.24Z" fill="black"/>
<path d="M733.38 368.84C739.44 368.84 744.07 367.4 747.23 364.45C750.38 361.48 751.98 357.23 751.98 351.52C751.98 348.28 751.37 345.3 750.27 342.65C749.13 339.95 747.55 337.77 745.49 336.18C743.87 334.95 741.99 334.05 739.84 333.53C737.67 333.01 734.31 332.75 729.69 332.75H713.49V401.7H721.47V368.85H722.66L747.82 401.7H758.22L731.91 368.85H733.38V368.84ZM721.47 362.76V339.66H727.75C734.03 339.66 738.29 340.57 740.53 342.33C742.72 344.11 743.86 347.22 743.86 351.68C743.86 355.75 742.79 358.61 740.61 360.29C738.46 361.94 734.19 362.76 727.76 362.76H721.47Z" fill="black"/>
<path d="M757.63 340.57H777.14V401.69H785.44V340.57H804.86V332.74H757.63V340.57Z" fill="black"/>
<path d="M858.86 375.68C858.86 382.65 857.38 387.77 854.4 391.03C851.43 394.28 846.79 395.94 840.44 395.94C834.09 395.94 829.43 394.28 826.48 391.03C823.49 387.78 822.02 382.65 822.02 375.68V332.74H813.72V375.68C813.72 385 815.94 392 820.37 396.61C824.83 401.25 831.54 403.55 840.45 403.55C849.36 403.55 856.08 401.26 860.54 396.61C864.96 392 867.19 385 867.19 375.68V332.74H858.87V375.68H858.86Z" fill="black"/>
<path d="M908.25 309.47L898.63 325.86H904.29L917.73 309.47H908.25Z" fill="black"/>
<path d="M882.9 401.69L891.86 380.57H918.79L927.75 401.69H936.66L905.28 329.98L874 401.69H882.9ZM894.31 373.51L905.28 348.16L916.27 373.51H894.31Z" fill="black"/>
<path d="M963.67 368.84C969.73 368.84 974.35 367.4 977.52 364.45C980.68 361.48 982.27 357.23 982.27 351.52C982.27 348.28 981.7 345.3 980.58 342.65C979.42 339.95 977.84 337.77 975.81 336.18C974.19 334.95 972.27 334.05 970.12 333.53C967.97 333.01 964.59 332.75 959.97 332.75H943.77V401.7H951.79V368.85H952.98L978.12 401.7H988.52L962.19 368.85H963.66L963.67 368.84ZM951.79 362.76V339.66H958.05C964.34 339.66 968.58 340.57 970.8 342.33C973.04 344.11 974.16 347.22 974.16 351.68C974.16 355.75 973.07 358.61 970.89 360.29C968.76 361.94 964.47 362.76 958.05 362.76H951.79Z" fill="black"/>
<path d="M1003.72 332.74H995.52V401.69H1003.72V332.74Z" fill="black"/>
<path d="M1019.79 401.69L1028.77 380.57H1055.73L1064.65 401.69H1073.54L1042.19 329.98L1010.91 401.69H1019.79ZM1031.2 373.51L1042.19 348.16L1053.16 373.51H1031.2Z" fill="black"/>
<path d="M1105.77 363.39L1095.92 359.09C1092.77 357.72 1090.41 356.1 1088.91 354.31C1087.42 352.55 1086.65 350.42 1086.65 347.95C1086.65 345.09 1087.63 342.65 1089.6 340.77C1091.54 338.89 1094.08 337.94 1097.16 337.94C1099.58 337.94 1101.75 338.56 1103.65 339.92C1105.57 341.18 1107.28 343.21 1108.82 345.88L1115.65 341.52C1113.91 338.12 1111.54 335.49 1108.52 333.77C1105.52 331.95 1101.92 331.1 1097.76 331.1C1092.13 331.1 1087.46 332.7 1083.82 335.9C1080.17 339.14 1078.34 343.21 1078.34 348.04C1078.34 352.27 1079.46 355.88 1081.72 358.9C1083.96 361.94 1087.38 364.38 1091.94 366.3L1100.35 369.87C1103.94 371.45 1106.57 373.39 1108.37 375.65C1110.16 377.94 1111.04 380.58 1111.04 383.7C1111.04 387.45 1109.79 390.58 1107.23 392.96C1104.67 395.29 1101.35 396.48 1097.25 396.48C1093.75 396.48 1090.83 395.41 1088.52 393.28C1086.24 391.11 1084.57 387.95 1083.56 383.78L1076.13 387.44C1077.43 392.53 1079.88 396.53 1083.56 399.27C1087.24 402.06 1091.79 403.45 1097.25 403.45C1103.9 403.45 1109.23 401.51 1113.29 397.62C1117.31 393.78 1119.32 388.64 1119.32 382.33C1119.32 377.97 1118.18 374.21 1115.91 371.06C1113.62 367.9 1110.26 365.32 1105.76 363.39H1105.77Z" fill="black"/>
<path d="M1422.26 6.67C1359.96 2.72 1295.84 0 1231.35 0H1229.45C1223.32 0 1217.18 0.04 1211.07 0.09C829.29 3.68 426.76 96.42 430.87 95.59C663.61 49.3 955.12 28.5 1211.06 28.5C1266.02 28.5 1320.82 29.78 1374.6 32.41C1313.11 72.54 1201.33 159.49 1181.97 270.94L1141.41 295.72L1208.07 295.52L1208.37 286.63C1223.86 143.2 1425.96 34.47 1428.01 33.37L1472.34 9.86L1422.25 6.66L1422.26 6.67Z" fill="black"/>
</g>
<defs>
<clipPath id="clip0_723_829">
<rect width="1472.35" height="423.88" fill="white"/>
</clipPath>
</defs>
</svg>
