<svg width="1232" height="557" viewBox="0 0 1232 557" fill="none" xmlns="http://www.w3.org/2000/svg">
<g clip-path="url(#clip0_723_876)">
<path d="M507.99 284.75C503.34 284.1 420.25 331.39 420.25 331.39C420.25 331.39 553.76 359.18 748.01 417.45C748.01 417.45 786.75 362.63 813.68 332.49C813.68 332.49 701.33 311.53 507.99 284.75Z" fill="black"/>
<path d="M354.05 279.17C419.74 267.84 487.98 281.02 487.98 281.02C487.98 281.02 380.17 332.43 279.02 395.96C279.02 395.96 194.29 370.54 132.23 364.24C132.23 364.24 289.8 290.32 354.05 279.18V279.17Z" fill="black"/>
<path d="M586.29 390.2C586.29 390.2 649.15 407.09 736 436.37C736 436.37 680.9 517.85 661.18 556.38C661.18 556.38 606.08 524.51 502.01 478.75C502.01 478.75 524.16 455.17 586.29 390.2Z" fill="black"/>
<path d="M302.91 404.04C302.91 404.04 344.58 374.51 402.7 342C402.7 342 469.6 355.41 567.42 384.44L479.95 468.86C479.95 468.86 428.6 447.37 385.19 431.66C341.78 415.96 302.9 404.03 302.9 404.03L302.91 404.04Z" fill="black"/>
<path d="M304.78 275.14L301.98 276.92L234.16 278.3L232.38 276.15L244.77 212.94L252.9 169.87L270.54 84.06L209.09 211.2L179.43 275.13L176.59 276.91L120.78 277.97L118.36 275.81L109.49 84.06L99.94 121.87L85.47 179.75L62.51 275.13L60.05 276.91C33.55 276.91 26.12 277.27 1.74 278.29L0 276.14L21.54 198.42L45.92 108.41L66.4 30.03L68.5 27.89C112.68 27.89 122.92 27.89 165.3 26.83L167.42 28.93L169.2 84.8L170.6 110.58L174.12 179.37L218.61 84.06C224.27 72.39 241.59 34.96 244.05 30.04L246.51 27.9C287.85 27.9 298.07 27.9 342.59 26.84L344.33 28.94L330.92 108.09L315.39 203.4L304.78 275.15V275.14Z" fill="black"/>
<path d="M508.61 238.07C499.44 252.29 490.19 259.63 478.52 266.08C478.52 266.08 477.76 266.49 476.4 266.93C475.51 267.14 475 267.31 473.94 267.22C445.05 262.94 432.12 262.9 418.99 262.64C406.13 262.34 385.85 262.21 364.2 266.16C363.48 266.2 362.8 266.16 362.12 265.95C361.48 265.78 360.59 265.21 360.59 265.21C342.36 252.29 332.71 232.64 332.71 203.1C332.71 173.56 342.94 140.63 362.03 117.63C387.07 88.31 420.3 84.07 443.59 84.07C466.88 84.07 485.64 89.69 493.75 94.28C528.68 112.67 528.68 152.93 528.68 161.39C528.68 174.12 527.64 186.47 524.84 198.44C520.92 214.04 514.59 228.82 508.61 238.07ZM458.06 150.82C458.06 137.01 452.42 128.2 441.47 128.2C427.7 128.2 420.63 143.01 418.89 146.19C410.02 163.14 403.65 198.43 403.65 212.94C403.65 218.99 403.65 237.36 420.29 237.36C438.64 237.36 448.51 212.6 454.19 183.27C457.71 166.34 458.05 152.57 458.05 150.81L458.06 150.82Z" fill="black"/>
<path d="M521.62 260.31L534.39 215.79L537.51 214.71C543.2 221.1 558 238.41 585.93 238.41C596.88 238.41 610.63 234.84 610.63 223.9C610.63 214.4 602.18 210.17 588.75 203.4L581.35 199.54C565.1 190.69 546.04 180.08 546.04 150.82C546.04 134.91 552.36 119.72 563.31 107.73C576.04 93.96 597.94 84.07 631.47 84.07C660.11 84.07 675.3 90.39 694.37 98.5L696.13 101.72C690.12 120.81 688.72 126.46 683.74 146.19L680.22 146.89C677.39 143.38 674.57 139.86 671.01 136.68C662.9 129.96 649.85 125.37 638.58 125.37C621.27 125.37 617.02 133.5 617.02 138.1C617.02 145.84 626.19 150.47 635.02 154.69L642.06 158.2C662.2 168.85 683.73 180.82 683.73 213.35C683.73 234.16 673.85 247.57 667.86 254.32C644.2 280.76 608.87 281.5 593.68 281.5C553.41 281.5 534.01 270.53 522.34 263.83L521.6 260.31H521.62Z" fill="black"/>
<path d="M895.67 157.16C889.66 181.88 883.66 206.98 879.07 231.64C876.26 245.79 873.79 260.31 871.67 274.79L869.53 276.91L804.2 278.29L802.44 276.14L805.26 259.91C791.13 274.04 772.07 281.1 752.28 281.1C735.71 281.1 724.76 274.77 719.09 270.51C695.78 252.82 695.06 222.47 695.06 211.57C695.06 168.46 715.91 136.99 731.42 121.86C765.71 88.29 809.84 87.91 842.74 87.55H909.81L911.96 90.37L895.69 157.14L895.67 157.16ZM832.1 133.83C821.18 133.51 806.66 133.15 793.93 143.78C784.08 152.23 769.95 173.78 769.95 205.19C769.95 223.25 778.08 233.81 792.21 233.81C799.96 233.81 805.26 230.27 810.57 226.39L832.11 133.83H832.1Z" fill="black"/>
<path d="M983.64 208.36C976.19 242.99 975.11 250.38 971.25 275.14L969.15 276.92L893.91 278.3L892.48 275.82C904.49 230.96 906.63 223.24 916.15 180.83L919.67 165.97C927.09 132.11 928.15 125.38 931.68 97.14L934.14 94.27C969.83 89.69 978.29 88.31 1010.06 82.26L1012.23 84.81L987.85 187.95L983.65 208.36H983.64ZM1016.08 58.27L1013.29 60.77L943.74 71.02L941.23 68.5L953.24 11.99L956.08 9.53L1027.03 0L1029.17 2.46L1016.08 58.26V58.27Z" fill="black"/>
<path d="M1151.39 220.76C1144.32 246.18 1143.65 250.76 1139.02 271.26L1136.18 273.72C1123.16 277.98 1110.76 281.5 1092.73 281.5C1033.44 281.5 1004.44 246.17 1004.44 194.57C1004.44 142.97 1041.19 84.07 1116.45 84.07C1149.29 84.07 1163.74 93.25 1172.57 98.5L1173.33 101.38L1159.51 149.01L1155.97 149.41C1147.51 138.84 1137.95 132.77 1124.54 132.77C1100.52 132.77 1077.9 155.01 1077.9 192.48C1077.9 212.25 1087.45 231.63 1113.94 231.63C1130.91 231.63 1140.8 224.6 1147.82 219.34L1151.38 220.74L1151.39 220.76Z" fill="black"/>
<path d="M1231.88 106.12C1231.88 118.85 1221.59 129.14 1208.86 129.14C1196.13 129.14 1185.82 118.85 1185.82 106.12C1185.82 93.39 1196.14 83.08 1208.86 83.08C1221.58 83.08 1231.88 93.39 1231.88 106.12ZM1188.13 106.12C1188.13 117.75 1197.15 127.11 1208.95 127.11C1220.75 127.11 1229.57 117.71 1229.57 106.04C1229.57 94.37 1220.74 85.1 1208.95 85.1C1197.16 85.1 1188.13 94.22 1188.13 106.12ZM1200.48 92.5H1210.74C1216.89 92.5 1219.58 95.07 1219.58 100.01C1219.58 104.45 1216.42 106.59 1212.6 107.22L1220.67 119.72H1218.12L1209.92 107.18H1202.83V119.72H1200.47V92.49L1200.48 92.5ZM1202.83 105.12H1208.6C1212.74 105.12 1217.26 104.71 1217.26 99.96C1217.26 95.76 1213.59 94.51 1210.34 94.51H1202.83V105.12Z" fill="black"/>
</g>
<defs>
<clipPath id="clip0_723_876">
<rect width="1231.88" height="556.39" fill="white"/>
</clipPath>
</defs>
</svg>
