<svg width="1223" height="320" viewBox="0 0 1223 320" fill="none" xmlns="http://www.w3.org/2000/svg">
<g clip-path="url(#clip0_723_860)">
<path fill-rule="evenodd" clip-rule="evenodd" d="M847.851 286.43H919.351C920.591 286.43 921.601 287.44 921.601 288.68V314.97C921.601 316.21 920.591 317.22 919.351 317.22H812.901C811.661 317.22 810.651 316.21 810.651 314.97V134.74C810.651 133.5 811.661 132.49 812.901 132.49H843.351C844.591 132.49 845.601 133.5 845.601 134.74V284.18C845.601 285.42 846.611 286.43 847.851 286.43Z" fill="black"/>
<path fill-rule="evenodd" clip-rule="evenodd" d="M1075.81 263.13C1075.81 293.92 1058.06 319.99 1005.91 319.99C953.761 319.99 936.011 293.92 936.011 263.13V186.58C936.011 155.79 953.761 129.72 1005.91 129.72C1058.06 129.72 1075.81 155.79 1075.81 186.58V263.13ZM970.961 261.19C970.961 278.66 979.831 289.21 1005.91 289.21C1031.99 289.21 1040.86 278.67 1040.86 261.19V188.52C1040.86 171.05 1031.98 160.51 1005.91 160.51C979.841 160.51 970.961 171.05 970.961 188.52V261.19Z" fill="black"/>
<path fill-rule="evenodd" clip-rule="evenodd" d="M1128.78 260.08C1128.78 278.11 1136.55 288.65 1160.95 288.65C1169.73 288.65 1178.75 287.93 1187.56 286.71C1188.69 286.55 1189.52 285.58 1189.52 284.44V232.64C1189.52 231.4 1190.53 230.39 1191.77 230.39H1220.28C1221.52 230.39 1222.53 231.4 1222.53 232.64V309.9C1222.53 310.94 1221.85 311.85 1220.85 312.13C1201.8 317.37 1179.54 319.98 1160.68 319.98C1115.47 319.98 1093.83 300.84 1093.83 264.23V185.46C1093.83 147.46 1116.02 129.71 1164 129.71C1178.41 129.71 1198.73 131.25 1215.06 135.32C1216.12 135.59 1216.86 136.7 1216.72 137.79L1213.38 164.04C1213.22 165.3 1212.07 166.1 1210.83 165.85C1194.66 162.59 1178.45 161.32 1161.22 161.32C1136.81 161.32 1128.77 171.31 1128.77 190.17V260.07L1128.78 260.08Z" fill="black"/>
<path d="M774.751 266.82H661.931C660.688 266.82 659.681 267.827 659.681 269.07V314.99C659.681 316.233 660.688 317.24 661.931 317.24H774.751C775.993 317.24 777.001 316.233 777.001 314.99V269.07C777.001 267.827 775.993 266.82 774.751 266.82Z" fill="black"/>
<path d="M774.751 199.66H661.931C660.688 199.66 659.681 200.667 659.681 201.91V247.76C659.681 249.003 660.688 250.01 661.931 250.01H774.751C775.993 250.01 777.001 249.003 777.001 247.76V201.91C777.001 200.667 775.993 199.66 774.751 199.66Z" fill="black"/>
<path d="M774.751 132.43H661.931C660.688 132.43 659.681 133.437 659.681 134.68V180.59C659.681 181.833 660.688 182.84 661.931 182.84H774.751C775.993 182.84 777.001 181.833 777.001 180.59V134.68C777.001 133.437 775.993 132.43 774.751 132.43Z" fill="black"/>
<path d="M774.751 67.22H661.931C660.688 67.22 659.681 68.2274 659.681 69.47V115.32C659.681 116.563 660.688 117.57 661.931 117.57H774.751C775.993 117.57 777.001 116.563 777.001 115.32V69.47C777.001 68.2274 775.993 67.22 774.751 67.22Z" fill="black"/>
<path d="M774.751 0H661.931C660.688 0 659.681 1.00736 659.681 2.25V48.16C659.681 49.4026 660.688 50.41 661.931 50.41H774.751C775.993 50.41 777.001 49.4026 777.001 48.16V2.25C777.001 1.00736 775.993 0 774.751 0Z" fill="black"/>
<path fill-rule="evenodd" clip-rule="evenodd" d="M115.641 293.31H74.4305C73.4805 293.31 72.6305 292.71 72.3105 291.82L42.7905 209.01C41.9505 206.66 38.4905 207.22 38.4205 209.71L35.7405 314.98C35.7105 316.2 34.7105 317.17 33.4905 317.17H2.25054C0.970542 317.17 -0.0594583 316.1 0.000541737 314.82L8.12054 134.59C8.17054 133.39 9.16054 132.44 10.3705 132.44H45.7505C46.7005 132.44 47.5405 133.03 47.8605 133.92L92.9205 257.82C93.6405 259.79 96.4305 259.79 97.1505 257.82L142.211 133.92C142.531 133.03 143.381 132.44 144.321 132.44H179.701C180.901 132.44 181.891 133.39 181.951 134.59L190.071 314.82C190.131 316.1 189.101 317.17 187.821 317.17H156.591C155.371 317.17 154.371 316.2 154.341 314.98L151.651 209.71C151.591 207.22 148.121 206.66 147.281 209.01L117.761 291.82C117.441 292.72 116.591 293.31 115.641 293.31Z" fill="black"/>
<path fill-rule="evenodd" clip-rule="evenodd" d="M339.631 132.43C340.871 132.43 341.881 133.44 341.881 134.68V263.62C341.881 292.75 325.521 319.93 273.651 319.93C221.781 319.93 205.421 292.75 205.421 263.62V134.68C205.421 133.44 206.431 132.43 207.671 132.43H238.121C239.361 132.43 240.371 133.44 240.371 134.68V260.85C240.371 278.88 248.971 289.14 273.661 289.14C298.351 289.14 306.941 278.88 306.941 260.85V134.68C306.941 133.44 307.951 132.43 309.191 132.43H339.641H339.631Z" fill="black"/>
<path fill-rule="evenodd" clip-rule="evenodd" d="M396.271 286.37H467.771C469.011 286.37 470.021 287.38 470.021 288.62V314.91C470.021 316.15 469.011 317.16 467.771 317.16H361.321C360.081 317.16 359.071 316.15 359.071 314.91V134.68C359.071 133.44 360.081 132.43 361.321 132.43H391.771C393.011 132.43 394.021 133.44 394.021 134.68V284.12C394.021 285.36 395.031 286.37 396.271 286.37Z" fill="black"/>
<path fill-rule="evenodd" clip-rule="evenodd" d="M484.691 163.22H437.601C436.361 163.22 435.351 162.21 435.351 160.97V134.68C435.351 133.44 436.361 132.43 437.601 132.43H571.231C572.471 132.43 573.481 133.44 573.481 134.68V160.97C573.481 162.21 572.471 163.22 571.231 163.22H524.141C522.901 163.22 521.891 164.23 521.891 165.47V314.91C521.891 316.15 520.881 317.16 519.641 317.16H489.191C487.951 317.16 486.941 316.15 486.941 314.91V165.47C486.941 164.23 485.931 163.22 484.691 163.22Z" fill="black"/>
<path d="M623.641 132.43H593.191C591.948 132.43 590.941 133.437 590.941 134.68V314.91C590.941 316.153 591.948 317.16 593.191 317.16H623.641C624.883 317.16 625.891 316.153 625.891 314.91V134.68C625.891 133.437 624.883 132.43 623.641 132.43Z" fill="black"/>
</g>
<defs>
<clipPath id="clip0_723_860">
<rect width="1222.53" height="319.99" fill="white"/>
</clipPath>
</defs>
</svg>
