<svg width="1371" height="369" viewBox="0 0 1371 369" fill="none" xmlns="http://www.w3.org/2000/svg">
<g clip-path="url(#clip0_723_1040)">
<path d="M56.5801 45.3499C56.5801 45.3499 90.9301 67.1499 110.3 103.25C122.63 126.15 125.49 146.62 127.47 153.23C165.78 153.89 182.07 171.28 204.09 210.91C208.93 219.5 214 228.52 218.84 236.89C211.79 226.1 203.87 214.21 196.82 204.75C180.97 183.17 160.49 162.92 129.01 162.26C121.74 162.04 119.54 162.04 116.68 162.04C113.82 162.04 110.08 162.04 98.6301 161.82C132.54 180.75 135.18 227.65 156.75 258.03C176.56 285.99 193.96 309.33 244.16 319.02C251.21 320.34 267.94 322.98 275.64 322.54C265.29 313.73 257.15 301.4 247.9 285.77C238.21 267.5 230.29 248.12 224.12 228.31C214.87 198.15 205.41 160.94 200.56 141.12C191.09 101.05 175.02 64.2799 127.69 49.9699C113.38 45.7899 86.0801 45.1299 69.7901 45.1299C61.8601 45.1299 56.5801 45.3499 56.5801 45.3499Z" fill="black"/>
<path d="M294.14 45.3498L241.3 248.34C252.09 275.42 262.22 297.88 278.51 312.85L336.63 90.4798L337.07 88.7198C337.73 86.0798 337.95 83.4398 337.95 80.7898C337.73 59.4298 318.8 45.7798 294.14 45.3398" fill="black"/>
<path d="M96.6501 170.41L57.6801 319.02H111.84L134.08 233.16C123.95 204.76 113.82 182.74 96.6501 170.41Z" fill="black"/>
<path d="M498.89 319.02H461.46C454.63 319.02 450.67 317.26 450.01 313.52C449.13 309.78 449.79 304.49 451.55 297.45C443.84 304.72 435.26 310.44 425.57 314.84C414.56 320.12 400.91 322.77 384.4 322.77C365.03 322.77 351.6 318.81 344.11 311.1C336.84 303.39 333.32 293.27 333.98 280.72C334.42 273.89 335.3 267.07 336.62 260.24C338.16 252.97 339.7 245.71 341.68 238.66L371.18 125.28C373.38 124.84 375.8 124.4 378.01 124.18C382.19 123.74 386.38 123.52 390.56 123.52C394.96 123.52 399.15 123.96 403.33 124.84C407.29 125.5 410.82 127.26 414.12 129.68C417.2 132.1 419.4 135.62 420.28 139.59C421.38 145.09 420.94 150.82 419.18 156.1L398.26 236.24C396.72 242.62 395.4 248.13 394.52 253.19C393.64 257.59 393.64 262 394.3 266.18C395.18 269.92 397.38 273.01 400.68 274.77C404.2 276.75 409.49 277.85 416.53 277.85C426.22 278.07 435.68 275.87 444.27 271.69C452.64 267.51 457.7 262.22 459.24 256.06L493.15 125.5C495.35 125.06 497.77 124.62 499.98 124.4C504.16 123.96 508.35 123.74 512.53 123.74C516.93 123.74 521.12 124.18 525.3 125.28C529.26 126.16 532.79 127.92 535.87 130.56C538.95 133.42 540.93 137.16 541.81 141.13C542.69 146.85 542.47 152.58 540.71 158.08L498.88 319.02H498.89Z" fill="black"/>
<path d="M555.47 289.52C555.03 283.8 555.25 278.07 556.35 272.35C557.45 266.41 558.55 260.24 560.31 254.3L609.63 64.5198L616.01 63.6398C617.99 63.4198 620.19 63.1998 622.39 62.9798C624.59 62.7598 626.79 62.7598 628.99 62.7598C633.39 62.7598 637.58 63.1998 641.76 64.0798C645.72 64.7398 649.25 66.4998 652.33 68.9198C655.41 71.5598 657.39 75.0798 658.27 79.0498C659.37 84.5498 658.93 90.2798 657.17 95.5598L649.68 124.18L707.36 124.4L696.57 166.23L638.89 166.01L616.21 253.42C611.15 272.57 616.65 282.04 632.28 282.04C636.24 282.04 639.99 281.38 643.73 280.28C647.25 279.18 650.78 277.86 654.3 276.32C657.16 275 660.02 273.46 662.67 271.7C665.09 270.16 666.63 268.84 667.73 267.96C669.93 273.02 671.69 278.31 673.23 283.59C674.33 287.55 674.33 291.74 673.23 295.92C671.91 300.1 669.49 303.63 666.18 306.27C661.78 310.01 656.93 313.32 651.65 315.74C645.05 318.82 638 321.24 630.95 322.57C622.8 324.33 614.44 325.21 606.07 325.21C588.9 325.21 576.35 321.91 568.64 315.3C560.71 308.92 555.87 299.67 555.43 289.54" fill="black"/>
<path d="M792.81 145.31C795.67 142.45 798.53 139.59 801.62 137.16C809.55 130.78 818.57 125.93 828.48 122.85C833.76 121.31 839.05 120.43 844.55 120.43C848.07 120.43 851.38 120.65 854.9 121.31C858.2 121.75 861.5 122.85 864.37 124.39C870.31 127.25 872.96 134.08 870.75 140.24C868.55 147.51 865.25 154.33 860.84 160.72C856.44 167.55 851.59 174.37 846.53 180.75C843.23 177.23 839.26 174.15 834.86 171.94C830.02 169.74 824.51 168.64 819.23 168.86C810.86 168.86 802.72 171.28 795.89 176.13C789.51 180.09 784.88 186.48 782.68 193.74L749.88 319.45H693.96L744.38 125.93L749.44 125.05C751.2 124.83 753.18 124.61 755.38 124.39C757.58 124.17 760.22 124.17 763.31 124.17C770.8 123.95 778.28 125.71 784.89 129.23C790.39 132.75 793.48 138.92 792.82 145.3" fill="black"/>
<path d="M905.76 322.32C903.34 322.98 900.7 323.42 898.05 323.64C894.09 323.86 889.9 324.08 885.72 324.08C874.93 324.08 867.01 321.88 861.28 317.25C855.78 312.63 854.68 303.6 858.2 289.95L900.91 126.37C903.11 125.93 905.53 125.49 907.74 125.27C911.92 124.83 916.11 124.61 920.29 124.61C924.69 124.61 928.88 125.05 933.06 125.93C937.02 126.59 940.55 128.35 943.85 130.77C946.93 133.19 949.13 136.71 950.01 140.68C951.11 146.18 950.67 151.91 948.91 157.19L905.76 322.31V322.32ZM974.23 60.9898C972.03 69.5798 966.96 77.0598 959.92 82.1298C953.32 87.4098 945.17 90.2798 936.58 90.2798C927.99 90.2798 921.61 87.6398 917.21 82.1298C912.81 76.6198 911.93 69.5798 914.13 60.7698C916.33 52.1798 921.4 44.6998 928.44 39.1898C935.04 33.9098 943.41 30.8198 952 30.8198C959.27 30.3798 966.31 33.4598 970.93 39.1898C975.33 45.1298 976.43 52.1798 974.23 60.9898Z" fill="black"/>
<path d="M1056.79 285.55C1063.17 285.55 1069.34 284.89 1075.5 283.35C1080.78 282.03 1085.85 280.05 1090.91 277.85C1095.31 275.87 1099.5 273.45 1103.46 270.8C1107.2 268.16 1110.51 265.74 1113.59 263.75C1116.23 268.81 1118.21 274.1 1119.75 279.6C1121.51 284.66 1121.95 290.17 1121.07 295.45C1119.53 301.39 1114.69 306.9 1106.54 311.74C1097.95 316.8 1088.71 320.55 1079.02 322.97C1066.47 326.27 1053.48 327.81 1040.49 327.59C1028.16 327.59 1015.61 326.05 1003.72 322.53C992.71 319.67 982.58 313.5 974.88 305.36C967.17 297.21 962.33 286.21 959.69 272.34C957.27 258.47 958.81 241.08 964.31 220.16C968.27 204.31 974.88 189.34 983.9 175.69C992.05 163.8 1001.95 153.45 1013.4 144.87C1023.97 136.94 1035.86 131 1048.41 127.04C1060.08 123.3 1072.19 121.54 1084.52 121.32C1099.93 121.32 1112.26 123.74 1121.73 128.59C1130.54 132.77 1137.8 139.6 1142.87 147.96C1147.49 156.33 1150.14 166.01 1150.36 175.7C1150.58 186.71 1149.26 197.72 1146.4 208.5L1144.86 214.22C1144.2 216.42 1143.54 218.62 1142.88 221.27L1140.68 228.54C1140.02 230.52 1139.36 232.28 1138.7 234.04L1017.83 233.82C1014.97 248.79 1016.51 261.34 1022.01 271.25C1027.29 280.28 1038.96 285.34 1056.8 285.56M1096.86 202.33C1100.16 189.34 1100.6 178.55 1097.52 170.41C1094.66 162.26 1086.51 158.08 1073.3 158.08C1062.07 157.86 1051.28 162.04 1043.14 169.75C1034.55 177.46 1028.39 188.24 1024.87 202.33H1096.86Z" fill="black"/>
<path d="M1210.46 320.78L1154.1 320.56L1204.52 127.04L1209.58 126.16C1211.34 125.94 1213.32 125.72 1215.52 125.5C1217.72 125.28 1220.36 125.28 1223.45 125.28C1230.94 125.06 1238.42 126.6 1245.03 129.9C1250.75 132.98 1253.18 138.49 1252.74 146.41C1260.45 139.14 1269.03 133.42 1278.72 129.02C1289.73 123.74 1303.38 121.09 1319.89 121.09C1339.26 121.09 1352.69 125.05 1360.18 132.76C1367.45 140.47 1370.97 150.59 1370.31 163.14C1369.87 169.97 1368.99 176.79 1367.67 183.62C1366.13 190.89 1364.59 198.15 1362.61 205.2L1332.67 320.57L1276.75 320.35L1306.03 207.41C1307.57 201.47 1308.89 195.74 1309.77 190.68C1310.65 186.28 1310.65 181.87 1309.99 177.47C1309.11 173.73 1306.91 170.64 1303.61 168.88C1300.09 166.9 1294.8 165.8 1287.76 165.8C1278.07 165.58 1268.61 167.78 1260.02 171.96C1251.65 176.14 1246.59 181.43 1245.05 187.59L1210.48 320.79L1210.46 320.78Z" fill="black"/>
</g>
<defs>
<clipPath id="clip0_723_1040">
<rect width="1370.38" height="368.34" fill="white"/>
</clipPath>
</defs>
</svg>
