<svg width="784" height="667" viewBox="0 0 784 667" fill="none" xmlns="http://www.w3.org/2000/svg">
<path d="M200.165 561.8C168.205 534.89 163.165 496.2 149.705 462.56C141.295 440.69 126.155 422.19 111.015 403.69C131.195 460.88 119.425 501.25 168.205 541.62C159.795 538.26 151.385 531.53 144.655 526.48C105.965 494.52 48.775 489.48 25.235 437.33C31.965 476.02 62.235 509.66 94.195 531.52C126.155 551.7 166.525 550.02 200.165 561.8ZM284.265 581.98C289.315 580.3 296.035 580.3 302.765 578.62C279.215 575.26 257.355 566.85 240.525 551.71C215.295 528.16 193.425 504.61 166.515 486.11C195.105 543.3 205.205 566.85 252.295 576.94C252.295 576.94 238.835 575.26 232.115 573.58C181.655 563.49 121.105 576.94 84.095 534.89C99.235 561.8 127.825 583.67 154.745 593.76C198.475 607.22 243.895 592.08 284.265 581.99M351.545 578.62C270.805 578.62 228.755 649.27 149.705 602.17C188.395 649.27 250.625 652.63 301.085 620.67C321.265 607.21 339.775 588.71 365.005 588.71C403.695 588.71 445.745 629.08 481.065 666.08C487.795 661.03 492.835 655.99 497.885 650.94C460.885 615.62 407.055 578.61 351.545 578.61M124.475 499.56C124.475 499.56 114.385 481.06 111.015 469.28C99.245 423.87 105.965 368.36 85.785 324.63C89.145 349.86 79.055 371.73 77.375 395.28C74.015 427.24 85.785 449.11 94.195 464.24C94.195 464.24 82.425 449.1 77.375 440.69C53.835 403.69 5.055 378.46 1.685 333.04C-5.045 432.28 63.925 459.19 124.475 499.56ZM100.925 205.21C107.655 191.75 111.015 174.93 114.385 159.8C111.025 166.53 107.655 173.26 102.615 178.3C70.655 205.21 52.155 220.35 43.745 262.4L47.105 225.4C50.465 188.4 30.285 148.03 52.155 116.07C30.285 139.62 18.515 169.9 18.515 200.17C18.515 240.54 42.065 269.13 43.745 307.82C50.475 267.45 84.115 238.86 100.935 205.22M89.155 131.2C104.295 117.74 122.795 105.97 136.255 89.15C151.395 68.97 164.845 45.42 185.035 26.91C158.125 38.68 127.845 48.78 109.345 77.37C99.255 94.19 97.575 114.37 89.165 131.2M55.515 211.94C62.245 198.48 74.015 185.03 85.795 174.94C116.075 153.07 146.345 124.48 148.035 87.47C131.215 127.84 79.075 134.57 67.295 176.62C67.295 176.62 74.025 151.39 75.705 146.34C84.115 117.75 82.435 84.1 111.025 65.6C55.515 77.37 52.155 137.93 55.515 183.34C55.515 193.43 57.195 201.84 55.515 211.93M63.925 407.05C63.925 407.05 60.565 375.09 65.605 361.64C79.065 321.27 92.515 277.54 90.835 235.49C77.375 285.95 35.325 302.77 53.835 371.73C47.105 358.27 45.425 343.14 40.375 329.68C30.285 292.68 1.685 260.72 10.095 216.98C-3.365 255.67 -3.365 285.94 10.095 326.31C18.505 356.59 48.785 378.45 63.925 407.05Z" fill="black"/>
<path d="M583.675 561.8C615.635 534.89 620.675 496.2 634.135 462.56C642.545 440.69 657.685 422.19 672.825 403.69C652.645 460.88 664.415 501.25 615.635 541.62C624.045 538.26 632.455 531.53 639.185 526.48C677.875 494.52 735.065 489.48 758.605 437.33C751.875 476.02 721.605 509.66 689.645 531.52C657.685 551.7 617.315 550.02 583.675 561.8ZM499.565 581.98C494.515 580.3 487.795 580.3 481.065 578.62C504.615 575.26 526.475 566.85 543.305 551.71C568.535 528.16 590.405 504.61 617.315 486.11C588.725 543.3 578.625 566.85 531.535 576.94C531.535 576.94 544.995 575.26 551.715 573.58C602.175 563.49 662.725 576.94 699.735 534.89C684.595 561.8 656.005 583.67 629.085 593.76C585.355 607.22 539.935 592.08 499.565 581.99M432.285 578.62C513.025 578.62 555.075 649.27 634.125 602.17C595.435 649.27 533.205 652.63 482.745 620.67C462.565 607.21 444.055 588.71 418.825 588.71C380.135 588.71 338.085 629.08 302.765 666.08C296.035 661.03 290.995 655.99 285.945 650.94C322.945 615.62 376.775 578.61 432.285 578.61M659.365 499.56C659.365 499.56 669.455 481.06 672.825 469.28C684.595 423.87 677.875 368.36 698.055 324.63C694.695 349.86 704.785 371.73 706.465 395.28C709.825 427.24 698.055 449.11 689.645 464.24C689.645 464.24 701.415 449.1 706.465 440.69C730.015 403.69 778.795 378.45 782.155 333.04C788.885 432.28 719.915 459.19 659.365 499.56ZM682.915 205.21C676.185 191.75 672.825 174.93 669.455 159.8C672.815 166.53 676.185 173.26 681.225 178.3C713.185 205.21 731.685 220.35 740.095 262.4L736.735 225.4C733.375 188.4 753.555 148.03 731.685 116.07C753.555 139.62 765.325 169.9 765.325 200.17C765.325 240.54 741.775 269.13 740.095 307.82C733.365 267.45 699.725 238.86 682.905 205.22M694.685 131.2C679.545 117.74 661.045 105.97 647.585 89.15C632.445 68.97 618.995 45.42 598.805 26.91C625.715 38.68 655.995 48.78 674.495 77.37C684.585 94.19 686.265 114.37 694.675 131.2M728.325 211.94C721.595 198.48 709.825 185.03 698.045 174.94C667.765 153.07 637.495 124.48 635.805 87.47C652.625 127.84 704.765 134.57 716.545 176.62C716.545 176.62 709.815 151.39 708.135 146.34C699.725 117.75 701.405 84.1 672.815 65.6C728.325 77.37 731.685 137.93 728.325 183.34C728.325 193.43 726.645 201.84 728.325 211.93M719.915 407.05C719.915 407.05 723.275 375.09 718.235 361.64C704.775 321.27 691.325 277.54 693.005 235.49C706.465 285.95 748.515 302.77 730.005 371.73C736.735 358.27 738.415 343.14 743.465 329.68C753.555 292.68 782.155 260.72 773.745 216.98C787.205 255.67 787.205 285.94 773.745 326.31C765.335 356.59 735.055 378.45 719.915 407.05Z" fill="black"/>
<path d="M391.915 555.07C238.885 555.07 114.375 430.57 114.375 277.53C114.375 124.49 238.885 0 391.915 0C544.945 0 669.455 124.5 669.455 277.54C669.455 430.58 544.955 555.08 391.915 555.08V555.07ZM391.915 6.73C242.595 6.73 121.105 128.21 121.105 277.54C121.105 426.87 242.585 548.35 391.915 548.35C541.245 548.35 662.725 426.87 662.725 277.54C662.725 128.21 541.245 6.73 391.915 6.73Z" fill="black"/>
<path d="M391.915 497.88C270.415 497.88 171.565 399.03 171.565 277.53C171.565 156.03 270.415 57.19 391.915 57.19C513.415 57.19 612.265 156.04 612.265 277.54C612.265 399.04 513.415 497.89 391.915 497.89V497.88ZM391.915 63.92C274.125 63.92 178.295 159.75 178.295 277.54C178.295 395.33 274.125 491.16 391.915 491.16C509.705 491.16 605.535 395.33 605.535 277.54C605.535 159.75 509.705 63.92 391.915 63.92Z" fill="black"/>
<path d="M391.915 445.74C299.165 445.74 223.715 370.29 223.715 277.54C223.715 184.79 299.165 109.34 391.915 109.34C484.665 109.34 560.115 184.79 560.115 277.54C560.115 370.29 484.665 445.74 391.915 445.74ZM391.915 116.06C302.875 116.06 230.435 188.5 230.435 277.54C230.435 366.58 302.875 439.02 391.915 439.02C480.955 439.02 553.395 366.58 553.395 277.54C553.395 188.5 480.955 116.06 391.915 116.06Z" fill="black"/>
<path d="M391.915 388.55C330.705 388.55 280.905 338.75 280.905 277.54C280.905 216.33 330.705 166.53 391.915 166.53C453.125 166.53 502.925 216.33 502.925 277.54C502.925 338.75 453.125 388.55 391.915 388.55ZM391.915 173.25C334.415 173.25 287.625 220.03 287.625 277.54C287.625 335.05 334.405 381.83 391.915 381.83C449.425 381.83 496.205 335.05 496.205 277.54C496.205 220.03 449.425 173.25 391.915 173.25Z" fill="black"/>
<path d="M391.915 336.41C359.455 336.41 333.045 310 333.045 277.54C333.045 245.08 359.455 218.67 391.915 218.67C424.375 218.67 450.785 245.08 450.785 277.54C450.785 310 424.375 336.41 391.915 336.41ZM391.915 225.39C363.165 225.39 339.775 248.78 339.775 277.53C339.775 306.28 363.165 329.67 391.915 329.67C420.665 329.67 444.055 306.28 444.055 277.53C444.055 248.78 420.665 225.39 391.915 225.39Z" fill="black"/>
<path d="M395.285 551.71H388.555V333.05H395.285V551.71ZM582.975 473.35L428.225 318.6L432.985 313.84L587.735 468.59L582.975 473.35ZM200.865 473.35L196.105 468.59L350.855 313.84L355.615 318.6L200.865 473.35ZM666.085 280.9H447.425V274.17H666.085V280.9ZM336.415 280.9H117.745V274.17H336.405V280.9H336.415ZM432.985 241.23L428.225 236.47L582.975 81.72L587.735 86.48L432.985 241.23ZM350.855 241.23L196.105 86.48L200.865 81.72L355.615 236.47L350.855 241.23ZM395.285 222.03H388.555V3.36H395.285V222.03Z" fill="black"/>
<path d="M378.635 345.15C379.305 343.8 380.655 338.42 382.335 340.1C384.015 341.78 385.025 340.1 385.025 340.1C385.025 340.1 385.865 340.94 385.365 342.62C385.025 344.3 384.525 345.98 383.515 346.32C382.505 346.49 381.665 347.16 380.315 347.33C379.305 347.5 378.635 345.14 378.635 345.14V345.15ZM392.425 342.97C392.765 342.63 393.265 344.32 394.105 343.98C394.945 343.81 395.285 345.49 394.445 345.49C393.605 345.49 393.605 346.5 393.605 347C393.605 347.5 393.605 348.51 392.935 349.19C392.265 349.86 391.755 349.36 390.915 349.02C390.075 348.52 389.735 348.52 388.565 348.52C387.555 348.52 388.395 350.2 388.395 350.2C388.395 350.2 384.025 350.03 384.865 349.36C385.705 348.69 386.545 348.52 385.875 348.01C385.205 347.51 385.875 347.17 385.875 346.33C385.875 345.49 387.895 345.83 387.385 345.32C386.715 344.65 387.385 342.29 388.395 343.64L389.065 342.13C388.395 341.46 388.895 341.29 387.555 340.78C386.375 340.28 387.385 337.75 387.385 337.75L387.555 336.07C387.895 333.88 392.095 333.72 392.435 335.57C392.605 337.42 392.435 338.77 392.435 338.77L393.615 339.27C393.615 339.27 393.445 340.62 392.435 340.62C391.425 340.62 392.435 341.29 391.765 341.97L392.435 342.98L392.425 342.97ZM547.335 240.7C546.155 241.88 543.635 242.38 543.635 242.38L542.795 245.58L541.445 246.76C541.445 246.76 541.785 247.6 541.445 249.62C541.105 251.64 538.585 252.82 538.585 252.82L537.405 254.17C537.405 254.17 530.675 254.51 529.835 254.17C527.315 252.99 528.995 249.63 530.675 249.96C532.355 250.3 530.335 245.08 530.335 245.08L532.525 244.74C532.525 244.74 532.865 239.69 533.705 239.69C534.545 239.69 533.365 238.01 532.355 237.17C531.175 236.33 529.835 233.47 528.655 233.81C527.475 234.15 523.105 233.81 523.105 233.81L522.265 235.49L519.235 235.99C519.235 235.99 519.575 238.18 518.895 238.85C517.215 240.87 510.825 245.07 513.515 238.01L514.355 236.33V233.81L509.305 233.47C509.305 233.47 506.785 232.63 506.785 231.45C506.785 230.27 506.445 228.93 506.445 228.93L500.555 222.37L493.495 221.53L492.995 220.18L488.785 219.68C483.735 217.16 479.195 219.34 480.035 223.72C480.875 227.93 482.225 229.61 479.535 229.61C476.675 229.61 476.175 227.42 476.175 227.42C476.175 227.42 473.985 226.58 473.985 227.76C473.985 228.94 473.145 231.12 473.985 232.3C474.825 233.48 472.805 235.16 471.965 234.32C471.125 233.48 468.935 230.96 469.445 230.11C469.955 229.26 465.575 223.89 469.945 223.05C474.485 222.21 469.605 219.69 471.295 219.01L473.485 217.83H475.675L477.025 216.65L473.325 216.15L471.135 215.81L466.925 215.47C462.715 218.33 461.875 221.69 461.875 221.69C459.685 225.9 454.305 220.01 456.325 217.65C458.345 215.3 450.105 217.31 448.755 218.49C447.405 219.67 443.205 218.99 443.205 218.99C442.365 221.51 438.495 218.65 439.505 216.97C440.685 215.29 440.685 214.11 440.685 214.11L439.335 213.77L437.655 216.97C433.785 216.97 432.605 219.16 433.445 220.67C434.285 222.02 432.265 220.33 431.765 222.35C431.265 224.37 432.105 224.37 433.785 225.21C435.465 226.05 432.945 226.05 434.125 227.4C435.305 228.75 438.665 227.4 436.645 229.42C434.625 231.44 430.755 230.6 430.755 230.6C430.415 233.12 425.205 232.62 424.535 231.78C424.035 230.94 419.825 225.89 419.825 225.89L414.445 225.55C413.945 221.51 416.965 223.53 418.145 220.5C419.325 217.3 419.825 212.26 419.825 212.26C419.825 212.26 415.285 211.92 415.115 213.44C414.775 214.79 412.085 215.79 412.085 215.79C412.085 215.79 409.895 216.63 410.735 217.81C411.575 218.99 409.055 219.49 409.055 219.49C409.055 219.49 409.555 221.34 408.715 222.01C406.525 224.36 400.805 222.35 399.965 221.51L396.605 220.16L393.245 217.97L389.375 219.65L388.195 220.83H383.985L383.645 224.19L391.215 225.03L391.715 232.09L388.685 231.08H386.665L385.825 229.4L384.145 229.06V235.28L385.825 236.63L387.175 237.98L390.035 238.32L390.535 241.68L397.595 242.02L398.435 243.37L402.645 243.71L410.715 251.95L410.215 254.47L408.865 255.31C409.365 257.33 405.165 256.15 405.165 256.15V257.83L407.185 258.17L409.205 259.35L412.065 254.47C415.095 252.45 416.605 255.31 416.775 256.99C417.115 258.67 415.425 258.34 415.425 258.34V262.38L417.105 262.88C419.965 266.24 415.925 268.26 415.925 268.26L415.085 271.12C414.245 273.64 411.215 273.14 411.215 273.14L410.035 274.82L406.675 275.66L413.235 276.5C413.905 274.15 415.585 273.64 416.435 274.82C417.285 276 417.275 278.02 417.275 278.02L418.955 278.36L418.615 281.56L420.295 282.06V291.14L422.315 293.33C425.675 291.98 425.675 294.17 423.995 295.35C422.315 296.53 423.495 301.57 423.495 301.57L422.145 302.92V305.27L420.465 306.45V309.65C417.605 308.3 414.245 308.81 413.405 309.65C410.885 307.97 405.495 308.47 405.495 309.99C407.175 312.18 403.475 312.85 403.475 312.85L401.455 315.04C402.805 317.9 400.105 318.24 400.105 318.24V323.62L396.745 326.82L397.085 334.22C397.085 336.24 401.295 336.41 402.135 335.4C402.975 334.22 406.345 337.75 406.345 337.75H408.865L409.365 332.7L407.685 331.86V323.62L410.545 320.42C413.905 319.24 412.735 327.82 412.735 328.66C413.075 331.86 414.415 331.52 415.765 330.85C418.625 329.67 416.265 334.05 414.085 333.71C411.905 333.37 413.245 336.57 413.245 336.57L414.595 337.07L412.075 339.09L409.885 341.61L407.025 340.77L403.665 340.43L402.485 338.41L400.465 338.07L400.125 342.11L398.775 343.79L395.415 347.15C399.955 347.15 394.915 350.35 393.735 350.35C396.255 351.19 393.395 353.71 387.005 351.7V353.72L384.815 354.06L386.835 356.25L389.025 356.59L388.185 361.47C388.185 365.17 378.935 362.65 378.095 361.81L377.755 366.86L376.075 367.2L376.415 370.56L376.075 375.44L379.105 374.94V376.96L386.675 377.3L397.605 365.69L403.995 364.34C404.495 361.48 407.355 364.84 407.355 364.84C410.215 364.5 410.715 366.52 410.715 366.52L414.415 367.02C417.445 367.86 415.595 368.2 415.765 369.37C416.105 371.05 417.445 370.55 417.445 370.55L417.945 366.85L419.625 367.19L417.945 365.17L414.915 363.82L411.555 362.47C409.365 359.27 412.055 359.95 414.415 360.28H418.115C418.115 360.28 422.325 366 422.325 367.34C422.325 368.68 424.345 369.02 424.345 369.02L426.865 368.68L427.705 370.7H430.225L431.065 372.38H436.115L436.455 369.86L431.745 369.02L431.405 366.16L428.045 365.32C426.865 360.44 428.885 359.1 430.235 361.28L431.915 361.62L431.415 357.41L433.435 356.91L432.935 351.02L431.255 350.52V348.5L438.315 348.84C437.815 345.14 438.655 343.46 438.655 343.46H440.675L441.015 344.81L449.595 345.65L455.655 338.75C455.315 338.25 456.325 337.91 455.655 337.24C454.815 336.4 453.635 337.24 452.295 336.4C450.945 335.56 452.295 330.68 451.955 329.67C451.615 328.49 456.665 326.81 455.825 329.33C454.985 331.85 455.825 333.03 455.825 333.03C459.525 329.67 462.555 333.37 462.215 334.21C461.875 335.05 464.235 335.89 465.575 335.05C466.925 334.21 468.605 337.57 468.095 339.26C467.585 340.95 462.545 340.61 462.205 338.92C461.865 337.24 461.025 337.74 460.525 338.58C460.025 339.42 457.495 339.93 455.985 339.08C455.645 338.91 455.645 338.74 455.485 338.58L449.425 345.48H449.765C453.125 347.5 451.445 350.02 450.265 350.53C449.085 351.04 447.235 351.03 447.235 351.03L446.735 352.21L439.505 352.71L439.005 355.57C435.305 355.07 433.955 358.93 434.795 360.95C435.635 362.97 434.795 364.65 434.795 364.65L437.825 366L441.695 364.82C442.195 361.96 444.725 361.46 447.075 359.77C449.265 358.09 452.965 362.97 451.785 365.15C450.605 367.34 450.605 368.35 450.605 368.35L450.945 370.87L448.085 372.05L445.895 373.23L445.555 374.58H437.985L436.635 375.93L432.935 376.27L431.755 377.95L429.235 378.29C429.235 378.29 425.025 380.31 426.715 382.5C428.395 384.85 419.655 384.52 417.805 381.32C417.305 384.18 414.105 381.66 414.105 381.66L411.075 380.82L410.735 376.61C410.235 373.75 404.845 373.75 405.185 375.77C405.525 377.79 395.095 376.61 395.095 376.61L391.735 378.29L388.705 380.14L388.365 381.49L383.315 381.99L381.125 383.17L380.285 381.49H378.095L375.905 384.69C370.015 385.03 364.465 388.39 364.975 389.74C365.485 391.09 362.785 392.6 362.785 392.6L360.265 393.44L358.585 395.96L355.225 397.14L354.725 403.03L353.045 404.21V406.73L351.025 407.23V408.58L348.165 408.92L349.845 413.13L352.035 414.31C355.905 414.81 354.225 419.69 354.225 419.69L356.415 420.03L357.595 423.23L359.785 427.77C360.625 431.13 363.145 430.29 364.325 430.12C365.505 429.78 366.515 433.48 366.515 433.48L377.615 433.82C377.615 433.82 377.115 435 378.965 435.5C380.985 436 393.765 436.68 394.275 435.84C393.775 433.32 401.335 432.64 404.365 435C407.395 437.19 411.595 435.84 411.595 435.84L415.805 440.89L418.665 447.11L423.375 448.46L426.735 449.3L427.915 454.18L430.435 454.52L431.275 457.72C434.305 459.91 430.435 464.78 430.435 464.78V471L432.625 472.18L432.285 474.53L435.985 478.23L440.195 478.57L450.795 489.84L459.205 492.36L460.555 496.9L462.745 496.56L464.425 495.21L471.155 494.87L474.515 491.67L478.215 491.17L509.335 464.76L506.475 463.08V456.86C511.525 453.16 511.855 446.6 506.975 446.09C503.445 445.59 504.955 441.88 508.325 441.21L510.345 440.37V437.85L516.735 431.96V427.42L502.775 415.81C496.555 413.62 502.775 400 506.985 400.17C511.195 400.51 506.645 379.14 506.645 379.14L504.455 377.96L504.955 371.06H501.925L496.875 377.62L495.525 382.16C495.025 388.05 477.695 387.04 476.855 386.2C476.015 385.36 470.125 382.84 470.125 382.84C470.125 382.84 465.585 379.14 464.745 380.32C463.905 381.5 460.035 378.97 460.035 379.82C460.035 380.67 456.335 377.8 456.335 377.8L450.785 375.78L454.995 374.94L454.155 371.58L461.385 375.28C462.225 376.46 465.925 376.12 465.925 376.12L467.105 377.47C467.105 377.47 469.295 377.13 470.805 378.82C472.155 380.5 479.555 379.16 479.555 379.16L481.575 380.84L484.605 382.02L493.355 382.36L493.695 376.98L495.375 375.3L495.035 371.94L497.055 370.26V367.4L498.735 366.9L499.075 360.68L500.425 360.34V346.72L496.215 342.68C495.875 344.03 491.505 344.03 491.505 344.03C491.505 344.03 490.325 346.05 489.485 346.05C488.645 346.05 490.665 348.57 489.985 350.26C489.485 351.94 487.125 351.94 487.125 351.94L482.915 353.12L481.735 354.47H477.195L476.695 350.77L481.745 349.42L484.605 348.07L485.955 345.21C486.295 342.35 489.655 342.69 489.655 342.69C489.655 342.69 496.045 337.31 496.385 334.78C496.725 332.26 498.905 325.19 502.775 325.19H510.005C512.865 324.01 512.025 320.31 512.025 320.31L515.725 319.81L516.225 321.83C516.225 321.83 521.275 322.33 521.775 321.49C522.275 320.65 523.455 318.63 524.805 319.47C526.155 320.31 530.695 317.45 530.695 317.45C531.035 315.43 537.925 316.27 537.925 316.27L538.765 313.75C538.765 313.75 534.055 307.19 533.215 307.19C532.375 307.19 527.835 303.15 527.325 304.67C522.785 303.49 523.115 297.27 523.115 297.27L521.435 293.23C521.435 290.88 517.225 286.17 516.385 286.67C512.175 283.47 515.205 279.94 516.385 279.61C517.565 279.28 520.255 275.4 520.255 275.4L521.605 271.36L526.315 270.01L526.815 266.31L524.295 265.97C524.295 265.97 527.155 260.92 528.505 260.92C529.855 260.92 539.105 260.92 539.945 260.42C540.785 259.92 542.465 255.37 542.465 254.53C542.465 253.69 544.655 253.35 545.495 253.18C546.335 252.84 548.355 250.66 548.855 249.48C550.365 246.62 548.515 239.56 547.345 240.73L547.335 240.7ZM624.885 331.36C624.715 330.86 624.545 330.35 624.045 330.18C622.865 329.68 620.685 330.52 619.675 331.19L620.685 332.54C621.695 331.87 623.205 331.53 623.375 331.7V331.53L624.885 331.36ZM632.115 365.17L630.435 365C630.265 366.35 630.605 368.03 631.945 368.2L632.285 366.52C632.285 366.52 632.115 365.85 632.115 365.17ZM638.335 358.44C638.835 360.12 639.345 361.8 639.345 361.97L640.855 361.3C640.855 361.3 640.185 359.62 639.845 357.94L638.335 358.44ZM642.035 357.1V356.76C642.035 356.26 641.865 355.58 641.535 354.91L640.025 355.75C640.195 356.09 640.195 356.59 640.365 356.93C640.365 357.43 640.535 357.94 640.865 358.28C641.205 358.45 641.535 358.62 642.045 358.45L641.705 356.77C641.705 356.94 641.875 356.94 642.045 357.11L642.035 357.1ZM627.735 369.21C628.915 368.54 630.425 367.02 630.255 370.22C630.085 373.42 628.745 372.41 627.735 373.42C626.725 374.43 626.055 370.22 627.735 369.21ZM560.295 391.07L560.465 388.55L563.155 388.89L562.985 391.24L560.295 391.07ZM560.455 396.62C560.115 395.11 558.435 394.6 558.265 394.6L557.765 396.28C557.935 396.28 558.105 396.45 558.265 396.62L558.605 398.13C558.435 398.3 558.265 398.47 558.265 398.63L559.445 399.81C560.285 398.46 560.625 397.62 560.455 396.61V396.62ZM351.385 449.1L349.705 450.61L348.865 451.28L349.705 451.95L351.725 453.3L352.735 451.95L351.555 451.11L352.395 450.44L351.385 449.09V449.1ZM371.225 469.46L370.555 470.97L372.235 471.81L371.735 472.48L372.915 473.66L375.105 471.47L374.095 470.8L371.235 469.45L371.225 469.46ZM294.025 104.45L295.705 106.13L294.525 107.31L292.845 105.63L294.025 104.45ZM344.825 157.44L346.505 158.79L345.495 160.14L343.815 158.79L344.825 157.44ZM338.435 158.62L338.775 161.82H342.985C344.665 161.82 341.635 159.8 341.635 159.8C341.635 159.8 338.275 160.14 338.435 158.62ZM430.605 79.56L427.745 79.22L427.575 80.9L429.925 81.07L431.775 83.93L433.125 82.92L431.275 79.89L430.935 79.55H430.595L430.605 79.56ZM438.175 20.02L437.335 21.53L439.525 22.88L440.025 23.22L440.365 22.88L443.565 20.86L442.555 19.51L440.035 21.19L438.185 20.01L438.175 20.02ZM453.145 28.09L451.795 26.58L450.615 27.93L453.135 30.45L453.635 29.95L456.495 27.6L455.315 26.25L453.125 28.1L453.145 28.09ZM360.295 87.13C360.125 86.12 365.845 85.95 366.685 86.79C367.525 87.63 367.025 89.14 369.545 89.14C372.065 89.14 370.895 90.82 370.725 91.66C370.385 92.5 367.695 92.16 367.365 91.32C367.035 90.48 362.825 90.14 362.825 90.14C362.825 90.14 360.635 88.46 360.305 87.11L360.295 87.13ZM392.425 83.93C396.795 85.28 398.315 84.27 398.645 83.09C398.975 81.91 399.145 81.74 400.835 81.41C402.525 81.08 400.495 77.71 398.815 78.05C397.135 78.39 395.455 77.55 395.115 76.03C394.775 74.68 392.085 70.98 391.755 73.84C391.425 76.7 389.735 76.7 390.075 78.72C390.575 80.57 391.425 83.6 392.425 83.93ZM420.175 36C419.505 33.48 415.965 39.2 419.675 40.21C423.375 41.39 426.905 40.21 426.905 40.21L427.745 38.53L441.705 38.87C442.885 37.69 443.385 36.01 443.385 36.01C443.385 36.01 446.745 34.83 448.095 35.51C449.445 36.01 448.435 31.47 446.915 32.15C445.565 32.65 442.705 32.49 442.705 32.49H437.655C437.315 30.47 432.945 31.31 432.605 32.49C432.435 33.5 430.755 33.84 430.755 33.84L424.365 34.34C423.695 36.02 420.495 37.2 420.155 36.02L420.175 36ZM420.685 49.96L416.985 46.26V43.06L415.805 41.88L414.625 37.84L410.925 36.66L407.225 38.01L403.355 40.53L399.145 41.03L396.955 43.55L405.865 44.39L407.545 47.25L413.935 47.75L418.145 51.96C422.015 53.64 422.855 51.96 420.665 49.94L420.685 49.96ZM433.635 77.21L434.815 74.52L436.325 75.36L435.145 77.88L433.635 77.21ZM517.235 74.35C516.735 72.16 522.785 70.14 524.295 71.83C525.645 73.51 529.675 73.85 530.185 82.26C530.355 85.29 525.135 79.06 525.135 79.06L520.925 77.71C518.575 77.21 517.395 75.86 517.225 74.35H517.235ZM487.795 81.75C486.955 84.27 486.615 87.64 485.275 87.64C483.935 87.64 484.435 91.34 484.435 91.34C484.435 91.34 488.135 91.34 489.145 91.68C490.325 92.02 490.325 94.88 490.325 94.88C494.535 94.54 496.215 100.26 495.705 101.78C495.205 103.13 497.385 103.13 497.385 103.13C497.385 103.13 497.385 107.67 496.885 108.85C496.385 110.03 500.585 110.87 501.595 112.55C502.775 114.23 501.095 119.95 500.245 120.29C499.395 120.63 502.435 121.47 502.265 122.81C501.925 124.16 503.105 122.81 503.445 125.16C503.785 127.35 504.285 132.22 504.285 132.22L508.155 132.56C508.655 128.86 515.895 128.69 517.065 129.2C521.775 130.88 525.475 138.28 525.475 139.97C525.475 141.66 522.445 141.99 522.445 141.99L522.945 150.23C527.655 151.58 531.695 158.47 531.015 159.65C530.515 160.83 534.375 160.49 534.375 160.49C534.875 155.44 539.755 157.13 539.925 158.81C540.265 160.49 541.105 164.19 541.105 164.19L542.455 166.71L544.475 168.73L547.505 168.39L548.345 170.07L552.045 170.57C552.045 170.57 555.075 173.93 555.405 174.78C555.735 175.63 559.945 175.28 560.955 175.62C562.135 175.96 563.815 176.8 563.985 178.14C564.325 179.49 566.005 181.84 566.005 181.84C566.005 181.84 569.365 182.68 569.705 183.86C570.045 185.04 571.385 187.56 571.385 187.56L574.245 189.91L574.585 192.43L577.615 192.77L578.455 196.13L583.505 195.79L586.365 193.77C590.065 191.75 592.585 189.23 592.755 188.05C593.095 186.87 593.595 182.67 596.455 183.51C599.315 184.35 597.295 177.29 597.295 177.29C597.295 177.29 593.425 174.43 593.595 173.08C593.935 171.73 589.725 168.87 589.895 167.7C590.235 166.52 586.195 164.34 586.535 163.16C586.875 161.98 584.515 158.95 584.515 158.95L580.305 154.91L579.805 152.39L576.445 152.05L569.715 143.81L570.055 141.46L568.035 141.12V137.92L566.015 136.74L562.985 136.4L556.765 129.67L556.265 126.47H553.235L553.735 120.58C555.755 118.06 554.575 113.18 554.575 113.18C554.575 113.18 550.705 115.2 548.685 114.36C546.665 113.52 549.525 111.5 549.525 111.5V109.31L547.845 107.63C547.845 107.63 543.135 108.13 542.795 107.29C542.455 106.45 541.615 102.75 541.615 102.75L541.275 97.87L539.255 97.03L538.915 95.35L535.885 95.69V92.33L534.205 91.83L532.525 90.99L532.185 87.63L525.965 87.29L523.945 84.43L521.755 81.07L514.695 80.57L513.015 78.89L510.155 78.39L508.135 77.55L507.295 78.9L501.915 79.24L501.575 80.92C499.225 82.1 488.115 80.92 487.785 81.76L487.795 81.75ZM436.325 80.06C436.825 80.9 440.195 81.74 440.195 81.74C442.385 81.74 443.895 83.42 443.895 84.26C443.895 85.1 446.925 84.76 446.925 84.76L447.265 82.74L445.075 79.88L443.055 78.53C443.055 78.53 440.025 78.19 440.025 77.35C440.025 76.68 436.825 79.2 436.325 80.04V80.06ZM436.325 89.65L434.135 89.15V91.67L437.165 92.01L436.325 89.66V89.65ZM467.445 120.94V118.75C467.445 118.75 467.105 116.56 465.765 116.56C464.425 116.56 461.895 114.88 462.405 113.7C462.915 112.52 457.695 111.35 457.695 111.35C457.695 111.35 452.985 106.81 454.665 107.31C456.345 107.81 455.505 105.29 455.505 105.29C455.505 105.29 452.145 105.79 451.295 105.63C450.455 105.29 450.795 102.77 450.795 102.77C450.795 102.77 447.435 101.93 447.435 102.77C447.435 103.61 448.615 103.61 449.115 105.29C449.615 106.97 449.455 109.83 451.975 110.34C454.495 110.84 455.005 111.52 455.335 112.69C455.665 113.86 458.695 114.04 458.695 114.04L460.885 115.22L467.445 120.94ZM469.625 128.51C469.285 127.33 468.785 123.46 470.465 123.63C472.145 123.97 470.965 123.63 472.985 124.47C475.005 125.31 475.175 123.12 475.175 123.12H478.205L482.075 126.32L481.575 128.84L478.715 129.18C477.365 126.99 474.505 127.83 475.015 129.68C475.515 131.7 473.665 135.4 472.495 135.57C471.315 135.91 467.785 135.91 467.955 134.22C468.455 132.54 469.635 128.5 469.635 128.5L469.625 128.51ZM515.715 167.19L517.735 160.97C514.875 160.47 515.545 157.27 515.545 157.27C515.205 154.75 511.335 151.89 509.995 152.73C508.645 153.57 509.155 146.84 509.155 146.84C509.155 146.84 511.675 145.16 512.855 146C514.035 146.84 503.265 131.87 501.085 133.22C498.895 134.57 493.855 131.87 494.025 129.18C494.365 126.66 483.935 118.08 483.935 118.08C483.935 118.08 480.575 115.89 480.065 117.58C479.555 119.27 478.385 120.44 480.065 121.28C481.745 122.12 481.415 119.93 483.425 121.78C485.445 123.8 488.975 126.32 487.635 128C486.295 129.68 484.605 130.35 484.605 130.35L486.625 132.7H489.655L490.155 137.58C490.155 137.58 493.515 139.26 494.365 141.28C495.215 143.3 495.205 144.48 494.365 145.49C493.525 146.67 491.845 148.69 492.175 150.54C492.515 152.56 494.695 153.4 494.695 153.4L496.885 153.74L498.565 154.58V158.28C500.755 157.78 504.455 160.8 504.115 162.82C503.775 164.84 504.615 163.66 507.475 165.68C510.335 167.7 509.495 168.03 511.345 169.38C513.195 170.56 514.875 169.72 515.715 167.19ZM451.465 203.53C451.465 204.37 450.965 205.55 452.645 205.88C454.325 206.22 457.355 204.7 457.695 206.38C458.035 208.06 458.035 209.24 460.215 210.08C462.405 210.92 463.915 211.26 465.595 211.26C467.275 211.26 470.975 210.76 470.975 210.76C470.975 210.76 475.015 211.43 475.685 212.11C478.715 215.31 480.735 216.15 481.575 214.63C482.415 213.28 481.235 210.09 481.075 208.91C480.735 207.73 476.865 202.35 475.525 203.53C474.175 204.71 473.845 203.53 471.315 204.37C468.795 205.21 463.405 204.71 463.245 203.53C462.905 202.35 459.035 201.85 459.035 200.67C459.035 199.49 456.175 198.15 456.515 199.83C456.855 201.51 454.495 202.35 453.995 201.85C453.155 201.18 451.475 203.53 451.475 203.53H451.465ZM437.505 206.55L437.165 208.57L440.195 208.91C440.195 208.91 441.545 210.09 441.545 210.93C441.545 211.77 443.565 212.61 444.575 212.61C445.755 212.61 448.785 210.26 448.785 210.26C448.785 210.26 450.135 206.22 449.125 206.56C447.945 206.9 445.765 208.58 445.425 206.9C445.085 205.22 441.725 206.06 441.725 206.06L437.515 206.56L437.505 206.55ZM423.035 209.75L423.875 209.58L424.375 211.09L423.535 211.43L423.035 209.75ZM424.045 207.06L425.725 206.72L426.225 209.24L424.715 209.58L424.045 207.06ZM428.755 207.39L428.925 209.07L434.985 208.9V207.22L428.765 207.39H428.755ZM483.255 206.05L486.115 205.71L486.285 207.39L483.425 207.73L483.255 206.05ZM490.655 212.27L491.495 210.25L493.005 210.92L492.165 212.94L490.655 212.27ZM515.045 183.85L517.905 183.68L518.075 185.36L515.215 185.53L515.045 183.85ZM519.755 185.53H521.435V186.88H519.755V185.53ZM524.795 161.64L523.115 161.81L522.775 159.29L524.455 159.12L524.795 161.64ZM523.115 196.97H524.795V198.99H523.115V196.97ZM526.815 197.98L528.325 198.65L527.485 200.5L525.975 199.66L526.815 197.98ZM518.575 175.6C520.255 175.6 518.075 182.16 522.445 181.49C526.985 180.99 522.785 183.51 526.145 183.68C529.505 184.02 528.665 181.16 529.845 179.14C531.025 177.12 530.345 175.94 528.495 175.44C527.148 175.107 526.308 174.153 525.975 172.58C525.475 170.39 523.115 169.72 523.115 169.72L522.275 166.36L518.575 168.55L514.875 173.43C514.875 177.47 516.895 175.62 518.575 175.62V175.6ZM529.505 191.08C531.695 189.9 536.565 189.9 536.235 188.22C535.905 186.54 539.095 186.03 539.095 186.03L539.935 189.39L542.455 191.07L542.795 194.27C542.795 194.27 543.635 193.77 540.605 194.61C537.575 195.45 539.425 196.8 539.425 196.8L532.695 197.14L531.855 194.28L529.505 191.08ZM493.345 214.8C494.695 214.46 498.055 214.3 498.725 215.14C499.225 215.98 496.705 217.16 496.705 217.16L493.345 217.66C492.335 216.31 491.995 215.14 493.345 214.8ZM511.345 212.27C512.855 213.78 502.935 213.45 502.935 212.27C502.935 211.09 503.775 207.22 506.295 208.06C508.815 208.9 509.155 203.01 509.155 203.01C509.155 203.01 506.965 203.35 508.815 202.17C510.835 200.99 508.815 199.31 507.975 198.47C507.135 197.63 506.295 196.12 506.295 196.12H510.165C511.845 194.94 512.355 189.56 512.355 189.56C515.715 190.74 517.405 188.38 517.405 188.38C517.405 188.38 517.905 190.06 519.085 191.58C520.265 192.93 516.225 193.6 517.735 194.44C519.085 195.28 519.755 197.8 519.085 198.65C518.585 199.49 515.385 198.99 515.385 197.81C515.385 196.63 514.205 199.16 515.385 200.67C516.565 202.02 514.035 204.03 513.365 204.03C512.865 204.03 509.155 204.53 512.185 206.38C515.215 208.06 518.575 207.22 518.575 207.22C518.575 207.22 521.095 206.88 521.935 208.4C522.775 209.75 521.595 210.08 520.255 210.08C518.915 210.08 512.185 209.58 512.185 209.58C512.185 209.58 510.505 211.43 511.345 212.27ZM543.975 180.15C543.135 178.97 542.295 178.13 541.115 177.63C539.935 177.13 539.095 176.45 538.085 176.45C536.905 176.45 535.895 175.27 536.405 173.93C536.915 172.59 535.565 171.91 535.565 170.73C535.565 169.55 536.405 169.55 537.755 170.39C539.105 171.23 538.935 171.57 539.945 172.91C541.125 174.26 541.625 175.77 542.805 175.43C543.985 175.09 544.825 177.95 545.835 177.11C547.015 176.27 546.675 179.13 546.675 179.13L543.985 180.14L543.975 180.15ZM541.285 182.84C542.125 184.02 543.805 184.86 543.805 186.04C543.805 187.22 543.305 188.06 544.985 188.23C546.665 188.57 547.845 187.89 548.345 189.41C548.845 190.76 548.845 193.11 548.685 194.29C548.345 195.47 549.025 197.15 550.365 197.15C551.705 197.15 552.045 197.49 552.045 198.33C552.045 199.17 553.725 195.13 553.725 195.13C552.375 193.95 551.205 191.43 551.205 191.43C551.205 191.43 549.855 187.39 549.855 186.89C549.855 186.39 547.835 185.71 546.995 185.54C546.155 185.2 544.805 182.68 544.805 182.68L541.275 182.85L541.285 182.84ZM559.445 228.76L558.265 226.24C558.265 226.24 558.265 224.05 558.765 222.88C559.265 221.7 557.585 220.69 556.745 220.36C555.905 220.02 556.245 217.84 555.905 216.66C555.565 215.48 553.715 214.64 553.715 214.64C553.715 214.64 553.215 210.43 553.215 209.59C553.215 208.75 550.695 207.57 551.535 206.73C552.375 205.89 552.885 204.71 553.725 204.21C554.565 203.71 552.885 199.67 554.225 200.51C555.575 201.35 555.575 202.86 556.245 203.87C556.745 205.05 555.905 208.92 557.425 209.76C558.775 210.6 557.085 213.46 559.445 213.46C561.635 213.46 560.285 218.84 560.285 218.84C560.285 218.84 559.785 222.88 561.125 223.05C562.475 223.39 561.625 230.11 561.625 230.11L559.435 228.76H559.445ZM560.295 250.45L561.135 248.77L562.645 249.61L561.805 251.29L560.295 250.45ZM562.145 241.2L563.825 241.37L563.655 243.72L561.975 243.38L562.145 241.19V241.2ZM558.605 231.78L556.415 231.44L551.365 232.28L548.505 237.66C548.505 237.66 549.855 238.5 551.025 240.52C552.195 242.54 552.705 254.14 549.345 256.16C545.985 258.18 549.685 257 549.685 257L549.185 263.22C550.025 266.08 551.375 264.57 552.215 263.22C553.055 261.87 553.895 261.54 555.075 260.02C556.255 258.67 557.935 255.98 558.105 254.13C558.445 252.11 559.785 249.08 558.945 248.24C558.105 247.4 559.785 243.36 559.785 243.36C559.785 243.36 560.965 241.01 559.785 238.82C558.605 236.47 560.125 233.94 560.965 232.93L558.615 231.75L558.605 231.78ZM546.325 202.85H542.115C542.115 202.85 543.465 203.35 539.595 199.65C535.725 195.95 533.205 200.49 533.205 200.49L528.665 200.99V205.53L526.475 206.37L526.815 209.23L529.845 208.89C529.845 208.89 529.845 212.25 530.685 210.91C531.525 209.56 538.595 211.25 537.915 214.61C537.745 215.96 544.975 219.66 544.135 224.2C547.835 224.7 546.995 228.41 546.995 228.41L551.705 228.91L553.055 226.05L554.405 226.39V224.71L551.375 223.87L550.875 214.79L548.855 213.44L549.355 211.09L547.165 210.25L548.345 206.55L546.325 202.85ZM535.905 272.49L537.585 271.82L536.915 270.47L536.575 269.46L535.735 269.96L533.715 271.14L531.865 269.96L531.025 271.47L533.215 272.82L533.715 273.16L534.055 272.82L535.735 271.98L535.905 272.48V272.49ZM543.305 268.79L546.335 269.29L546.675 267.61L543.645 267.11L543.305 268.79ZM537.585 305.12C536.405 303.44 543.135 300.58 544.315 303.94C545.495 307.3 544.315 306.8 543.135 306.46C542.125 306.12 539.265 307.3 537.585 305.11V305.12ZM508.655 359.79H510.675V365.17H508.655V359.79ZM521.605 411.76C521.105 413.95 519.085 415.12 517.905 414.28C516.725 413.44 519.255 415.63 519.925 416.8C520.425 417.98 522.115 417.98 522.785 416.8C523.285 415.62 523.125 413.1 523.625 411.92C524.125 410.91 521.945 410.57 521.605 411.75V411.76ZM527.825 423.2L530.345 424.38L530.685 429.26C534.045 432.62 544.985 429.76 544.985 428.92C544.985 428.08 544.485 418.49 544.485 418.49L543.135 417.14L542.795 410.08C543.975 406.38 537.415 401 536.905 402.17C536.405 403.35 532.695 402.51 532.695 403.52C532.695 404.7 530.505 410.25 531.515 412.27C532.695 414.29 530.675 414.29 530.335 416.31C529.995 417.99 527.135 421.36 527.815 423.21L527.825 423.2ZM449.105 362.48L448.265 361.13L445.915 362.48L446.925 363.99L449.115 362.48H449.105ZM406.385 368.03C405.035 369.38 405.375 370.55 406.385 371.56ZM415.135 374.93L416.985 371.73L415.475 371.23L413.455 372.58L414.295 373.42L415.135 374.93ZM413.445 286.28C414.625 288.8 414.285 292.5 418.495 295.36C419.845 296.37 417.655 298.22 416.305 297.38C414.955 296.54 410.925 290.32 410.925 290.32V286.62C411.765 284.43 412.945 285.27 413.445 286.28ZM398.645 301.08C399.315 303.6 399.145 297.04 400.325 297.38C401.505 297.72 400.665 293.34 400.665 293.34L395.615 297.04C397.965 297.38 398.305 299.9 398.645 301.08ZM383.505 319.25C383.165 322.61 378.965 323.79 378.965 323.79L375.935 322.95L374.255 321.6L373.915 317.56L376.435 317.22L376.935 318.9L383.495 319.24L383.505 319.25ZM378.965 284.94V280.9L378.465 277.2L374.255 275.18L371.225 278.04L370.725 282.08V284.6L367.865 285.1L367.365 292.84L365.175 293.68L365.515 296.54L359.455 298.22L358.955 301.92L356.765 303.27L355.585 306.63L354.235 314.87C354.235 314.87 356.755 319.75 358.105 317.39C359.455 315.2 361.805 314.87 361.805 314.87L362.645 312.85L370.215 313.19C370.715 309.99 374.425 311.17 374.425 312.69C374.425 314.04 377.285 313.03 377.285 313.03L379.305 309.83H382.335L382.675 306.47L384.025 305.63V300.58C388.565 299.23 387.895 294.86 387.895 294.86L389.075 293.51L388.575 291.49C386.385 290.65 387.395 288.63 388.915 289.14C390.265 289.64 386.895 286.62 386.895 286.62C385.215 287.97 383.865 284.94 383.865 284.94H378.965ZM366.185 273.33L363.995 273.83L358.945 278.71L358.605 280.9L357.255 282.92L355.575 287.13L349.685 287.47L348.505 292.52L349.345 296.89L354.395 298.91L354.895 296.05L356.575 295.21L356.915 292.35L358.095 290.33L359.775 288.31L360.275 286.12L363.135 284.44L366.495 283.77L367.845 282.09L368.345 278.73L368.685 276.21L369.865 274.36L373.225 273.01V267.63H371.545L371.205 265.61L368.175 265.27L367.505 266.78H366.155L365.815 268.97H367.495L367.835 270.82L366.655 271.83L366.155 273.34L366.185 273.33ZM277.375 307.48C277.375 308.15 276.875 308.66 276.195 308.66C275.515 308.66 275.015 308.16 275.015 307.48C275.015 306.8 275.515 306.3 276.195 306.3C276.875 306.3 277.375 306.8 277.375 307.48ZM277.205 339.94C277.205 340.61 276.705 341.12 276.025 341.12C275.345 341.12 274.845 340.62 274.845 339.94C274.845 339.26 275.345 338.76 276.025 338.76C276.705 338.76 277.205 339.26 277.205 339.94ZM274.175 335.23C274.845 335.23 275.355 334.73 275.355 334.05C275.355 333.37 274.855 332.87 274.175 332.87C273.495 332.87 272.995 333.37 272.995 334.05C272.995 334.73 273.495 335.23 274.175 335.23ZM270.815 341.96L268.465 342.3V344.32L270.815 343.98V341.96ZM273.335 327.49L271.315 327.83L271.145 330.02L273.335 330.36V327.49ZM272.835 312.19L273.005 310.17L268.795 313.03L266.105 311.35V318.08L270.475 324.14L272.155 320.1L272.825 317.58L270.805 316.74L271.145 312.53L272.825 312.19H272.835ZM271.145 288.3L266.095 287.8L266.435 289.82H267.785C269.975 293.86 268.125 303.44 268.125 303.44C268.125 303.44 264.765 303.78 264.255 302.09C263.755 300.41 262.235 305.79 263.415 306.63C264.595 307.47 268.465 306.63 268.795 309.83C269.135 313.03 271.315 307.81 271.315 307.81L271.145 288.3ZM383.845 232.12H380.815L380.315 225.9L381.995 224.72V221.52H372.235L371.895 218.32L373.245 217.48L371.055 216.64L369.375 218.83L368.875 221.35L366.015 221.85V223.2H363.995V226.9L356.085 233.46L340.445 232.96C339.265 235.48 336.575 232.62 336.575 232.62C336.075 230.94 332.035 232.62 332.035 232.62C332.035 235.82 326.655 231.27 326.655 231.27L316.895 224.21C311.345 219.16 302.935 225.56 302.595 227.07C302.935 231.11 296.205 227.91 296.205 227.91C296.205 227.91 290.655 226.23 289.815 228.41C288.975 230.59 285.275 230.09 285.275 230.09L284.775 231.27L281.915 231.77L281.415 233.45L278.055 233.95L286.465 233.61C288.655 233.27 285.625 238.49 284.275 238.15L280.405 238.49L279.055 239.84H275.355L273.675 242.19L268.295 241.85C268.295 241.85 265.265 244.37 265.435 245.21C265.775 246.05 264.935 248.57 264.085 248.57C263.235 248.57 261.565 251.09 262.065 251.93C262.565 252.77 260.385 255.63 260.385 255.63L259.885 258.49L258.205 258.99V266.73L254.845 269.08V272.44L249.795 277.82L250.295 282.36L246.085 286.9L246.585 291.44L244.065 292.28L243.565 294.3L242.385 300.19L245.245 300.53C246.595 300.03 246.425 304.23 245.245 304.74C244.065 305.24 241.035 306.42 242.725 307.6C244.405 308.78 238.185 308.44 238.185 306.76C238.185 305.08 234.825 303.56 233.975 304.24C233.135 304.74 231.785 301.72 231.785 301.72C228.755 298.52 219.165 302.06 219.165 302.06L217.815 306.6C214.785 307.1 212.765 312.32 212.765 312.32C210.245 313.16 208.225 316.36 209.065 317.2C209.905 318.04 207.715 318.38 207.715 318.38V324.6L206.365 326.62L206.705 333.35C208.385 333.35 208.055 336.55 208.055 336.55C205.195 336.89 205.865 340.59 205.865 340.59L199.975 342.61L198.795 344.29L191.565 343.95L189.545 345.97L187.525 343.95H173.565L173.065 342.6L170.205 342.1L169.865 338.9L165.655 339.24L164.815 340.92L160.275 341.26C160.615 344.12 155.735 348.32 155.225 347.15C154.725 345.97 151.525 342.94 153.035 342.27C154.385 341.77 158.085 341.09 158.085 341.09V339.07L147.655 338.73L146.475 340.41L142.265 340.75V345.29L140.245 345.79C138.895 346.63 140.585 349.83 140.585 349.83C142.605 351.85 140.245 354.88 140.245 354.88C138.565 356.56 141.595 359.76 141.595 359.76C143.785 360.26 140.245 361.95 140.245 361.95C140.745 364.81 142.435 365.65 142.435 365.65C140.755 368.51 143.615 369.86 143.615 369.86L143.955 374.74L145.975 375.92V379.12L147.155 381.14H151.695L151.355 374.08C147.485 369.54 154.715 368.36 155.055 370.04C155.395 371.72 158.415 372.56 158.415 372.56C158.915 376.77 163.795 379.29 165.145 375.08C166.495 370.87 167.665 373.4 168.505 375.42C169.345 377.44 174.725 382.32 174.725 382.32H178.935L179.435 386.36C184.145 386.02 185.655 386.7 187.505 393.09C189.525 399.65 194.735 401.33 194.735 401.33L198.605 400.99C198.605 397.63 202.475 401.49 202.475 403.34C202.475 405.02 210.045 411.58 210.045 411.58L217.615 413.26L224.675 418.98L230.055 418.48H232.245C233.595 413.6 240.315 418.82 240.995 420.5C241.495 422.18 246.045 425.04 246.545 423.7C247.045 422.35 250.245 423.2 250.755 427.4C251.265 431.6 253.275 430.76 253.275 430.76L269.255 430.42L274.805 425.54L289.105 425.2C296.335 424.86 291.965 414.94 290.455 414.94C287.935 412.92 291.295 404.68 291.295 404.68L270.945 385.67C266.235 385.67 270.445 378.77 270.445 378.77C274.145 376.42 269.605 372.88 269.605 372.88C270.105 369.52 267.585 365.48 267.585 365.48C262.535 362.12 263.885 355.56 263.885 355.56V351.02C259.675 346.98 265.565 346.48 265.565 346.48C267.585 343.12 264.215 340.59 264.215 340.59L263.875 336.89L259.335 336.39L258.835 323.1L248.745 308.63C246.725 308.13 248.245 304.59 248.245 304.59C250.765 303.24 247.745 299.71 247.745 299.71L247.405 293.49L253.295 292.99L254.645 290.8H257.505L257.165 283.4C258.515 279.7 261.875 281.72 261.875 281.72L265.745 282.06L267.935 277.85L268.435 274.49L265.405 274.15C262.045 272.13 263.725 264.73 263.725 264.73C269.105 256.82 275.165 261.37 275.165 261.37L279.035 261.03C284.925 265.07 279.535 272.3 279.535 272.3C278.355 273.98 279.035 279.36 279.035 279.36L280.385 288.44L276.685 291.64C273.655 293.32 273.655 297.36 277.025 298.2C279.215 298.54 278.375 303.92 275.005 300.22C269.955 300.22 277.865 304.76 275.505 303.58C280.555 306.1 279.375 301.39 279.375 301.39L286.105 296.01C288.625 293.99 293.165 300.22 293.165 301.06C293.165 301.9 304.265 301.4 304.265 301.4C307.295 303.42 308.475 308.46 308.475 308.46C311.505 304.42 318.065 308.12 313.185 310.48C317.725 313.34 317.725 315.86 317.725 315.86C321.425 314.68 321.425 317.54 321.425 318.38C321.425 319.22 322.605 314.17 322.605 314.17C318.395 310.97 328.155 309.96 325.465 315.52L323.785 318.04L326.645 320.23L326.985 326.79C333.205 326.29 331.525 318.55 331.525 318.55L334.385 318.05C334.385 315.53 336.405 316.87 336.405 316.87C334.385 307.28 340.945 305.6 340.945 305.6C344.645 304.76 344.815 297.02 344.815 297.02C342.295 295.84 343.635 291.97 346.495 295.34C349.355 298.7 344.815 288.44 344.815 288.44L342.625 286.42L339.595 286.08L339.255 282.88H334.205L333.365 286.92L331.515 287.76L331.015 286.58L330.175 289.78H325.125L324.785 286.42L327.815 285.58L328.995 283.9L329.835 279.36H333.535L338.245 278.01C338.585 273.13 341.105 274.31 341.105 274.31L345.315 277.67L345.655 279.35L343.975 280.19L343.635 282.54L344.475 285.74H346.665C347.505 281.2 353.395 281.2 355.075 284.06L356.755 280.02C352.885 278 356.755 274.97 357.765 276.32C358.945 277.67 361.465 272.62 361.465 272.62C361.465 272.62 363.485 275.14 361.465 271.78C359.445 268.42 362.815 266.73 362.815 266.73C362.315 263.37 366.515 263.87 366.515 263.87L366.855 259.33L362.985 258.99C362.145 263.03 358.775 259.49 360.465 258.65C362.145 257.81 363.825 256.13 363.825 256.13V253.27L365.505 252.77L365.845 249.91H370.055L373.755 248.23L374.595 246.88L378.465 246.54L384.015 241.49L383.515 239.3C380.155 239.3 383.515 236.78 383.515 236.78L383.855 232.07L383.845 232.12ZM231.955 487.28L229.765 483.92L233.125 484.42L236.655 487.45L238.165 491.15L236.145 492.33L234.965 490.65L232.275 489.81L231.935 487.29L231.955 487.28ZM170.225 402.17L171.575 406.04L173.595 407.55L175.445 411.76L174.435 413.78L171.235 410.92L169.045 407.72L167.865 405.2L166.015 400.15L170.225 402.17ZM153.405 387.04H152.055V389.9H154.245V393.6H155.925L155.585 389.39L153.395 388.55V387.04H153.405ZM373.415 214.12L375.095 213.78L375.435 215.46L373.755 215.8L373.415 214.12ZM375.435 213.11L375.935 211.43L378.125 212.1L377.785 213.78L375.435 213.11ZM379.475 211.43L379.645 209.75L377.795 209.41L377.455 211.09L379.475 211.43ZM382.335 207.73H384.525V209.41H382.335V207.73ZM396.625 209.75L396.795 208.07L398.815 208.24L398.475 209.92L396.625 209.75ZM402.175 210.93L402.345 209.25L400.325 208.91L400.155 210.59L402.175 210.93ZM404.195 211.1H406.385V212.78H404.195V211.1ZM406.725 213.95V215.97L408.405 215.8V213.78L406.725 213.95Z" fill="black"/>
</svg>
