<svg width="374" height="758" viewBox="0 0 374 758" fill="none" xmlns="http://www.w3.org/2000/svg">
<g clip-path="url(#clip0_723_1417)">
<path d="M227.09 134.5V135.13C222.52 139.88 217.46 144.83 213.08 149.71C213.38 150.32 213.86 150.82 214.46 151.15C214.46 149.96 215.27 148.9 215.4 147.71C216.59 146.02 218.4 147.08 219.97 147.71C222.32 147.6 224.67 147.77 226.98 148.21C228.79 149.09 228.98 151.34 230.61 152.28C230.79 152.6 230.84 152.97 230.75 153.32C230.66 153.67 230.43 153.97 230.11 154.16C230.61 157.91 232.42 153.16 234.3 154.16C235.05 154.47 236.11 154.16 236.68 155.22C237.25 156.28 238.87 156.47 238.99 157.97C239.12 159.47 238.05 158.91 237.55 159.28C237.99 160.78 235.99 161.72 236.67 163.35C239.55 163.91 239.67 160.53 240.99 159.03C240.45 156.41 239.52 153.88 238.24 151.52C236.55 151.21 235.55 149.27 233.92 148.89C230.73 147.64 234.42 145.64 233.92 143.76C231.95 140.46 229.66 137.36 227.1 134.5H227.09Z" fill="black"/>
<path d="M245.73 187.68C243.81 194.34 240.87 200.67 237.03 206.45C235.34 208.51 233.78 211.45 231.59 212.71L236.16 216.71V215.71C236.16 215.4 236.16 214.4 237.22 214.52C239.41 214.52 239.47 216.77 240.72 217.96C240.72 219.9 242.1 221.4 241.53 223.15C253.66 210.22 260.76 193.38 261.55 175.67L262.24 174.86C257.74 175.3 253.04 174.86 248.35 174.86L247.29 174.48C247.31 177.5 247.08 180.51 246.6 183.49L248.23 185.3C248.44 185.65 248.53 186.07 248.47 186.48C248.41 186.89 248.22 187.27 247.92 187.55C247.58 187.79 247.18 187.92 246.76 187.92C246.34 187.92 245.94 187.79 245.6 187.55" fill="black"/>
<path d="M228.28 234.85L228.97 233.91C232.11 231.7 235.04 229.21 237.73 226.47H238.11C237.48 226.47 236.73 226.91 236.04 226.47C235.45 226.14 234.98 225.64 234.69 225.04C234.4 224.44 234.3 223.76 234.41 223.09L228.15 216.83L227.77 215.89C227.25 217.01 226.48 217.99 225.52 218.77C225.52 219.52 225.52 220.71 226.27 221.27C227.02 221.83 230.84 223.21 231.28 225.59C230.47 227.78 226.27 229.78 228.9 231.85C229.71 233.04 227.71 233.48 228.02 234.48" fill="black"/>
<path d="M192.5 208.57C193.81 208.57 192.94 210.2 193.88 210.7C195.94 210.01 197.45 212.45 199.13 210.7C199.13 208.32 201.63 208.57 203.07 207.95C204.51 207.32 207.89 204.82 207.64 201.69L207.26 201.25C205.7 201.25 204.95 202.44 203.76 203.38C202.57 204.32 201.7 201.88 200.57 202.44C200.57 202.44 200.57 202.82 201.07 202.88C201.57 202.94 201.45 204.01 201.07 204.32C199.38 205.88 198.57 203.57 196.94 203.76V204.32C196.94 204.7 196.94 205.26 196.38 205.01C195.38 203.38 193.31 204.01 192.31 202.57C191.68 202.19 191.06 202.57 190.62 203.07C190.18 203.57 188.68 203.07 189.06 204.26C187.87 204.7 187.68 206.01 186.81 206.82C185.25 206.82 184.56 208.32 183.12 208.26C183.12 208.26 183.12 209.07 183.56 209.14C184.5 209.43 185.5 209.43 186.44 209.14C187.94 206.76 190.44 208.76 192.7 207.89" fill="black"/>
<path d="M183.55 252.8L184.05 252.05L182.49 252.43C163.46 251.54 145.4 243.76 131.69 230.53V231.09L121.43 241.41C136.24 254.87 154.74 263.59 174.54 266.43C177.86 266.62 181.16 267.04 184.42 267.68L183.67 266.43L183.54 252.79L183.55 252.8Z" fill="black"/>
<path d="M192.68 154.02C193.81 154.65 194.43 153.46 195.43 153.21C196.77 153.54 197.94 154.34 198.75 155.46C199.63 155.84 200.5 155.46 201.31 155.02C201.81 150.83 207 151.45 208.57 147.58L207.63 147.96C207.19 147.4 206.19 147.96 206.25 146.71C207.12 145.76 208.13 144.96 209.25 144.33C204.86 141.53 200.07 139.42 195.05 138.07C193.05 137.57 190.98 137.57 188.79 136.88C189.24 140.28 189.49 143.71 189.54 147.14L193.11 148.33C194.17 146.64 196.43 146.27 197.43 144.64C198.12 144.08 198.87 144.64 199.37 145.2C199.41 146.56 199.2 147.92 198.74 149.2C197.36 151.89 194.17 152.27 192.48 154.2" fill="black"/>
<path d="M224.71 204.38C224.71 206.01 222.9 206.76 223.15 208.38C222.78 208.71 222.34 208.96 221.87 209.12C221.4 209.27 220.89 209.32 220.4 209.26C216.38 207.74 212.17 206.77 207.89 206.38C207.7 206.46 207.54 206.6 207.44 206.78C207.34 206.96 207.3 207.17 207.33 207.38C209.08 208.32 211.27 208.32 213.21 209.13C215.15 209.94 216.03 211.69 218.15 211.01C220.27 210.33 222.97 211.64 224.41 209.76C224.41 207.88 225.79 206.57 226.6 204.94H227.16C227.9 206.08 228.39 207.35 228.6 208.69C229.98 207.19 231.1 205.5 232.35 204C235.71 199.37 238.17 194.15 239.61 188.61C238.27 188.61 236.93 188.85 235.67 189.3C234.23 189.3 232.48 190.05 231.23 189.3C229.98 188.55 230.48 189.3 230.54 189.86C230.6 190.42 229.54 191.55 228.41 191.24C227.28 190.93 227.47 189.86 227.16 189.18C227.26 189.7 227.26 190.23 227.16 190.74C226.34 191.77 225.62 192.88 225.03 194.06C224.03 195.25 222.28 194.81 221.21 195.75C221.21 198.19 218.39 197.69 216.89 198.44C216.89 198.44 216.89 198.75 217.27 199C217.63 199.14 218.03 199.17 218.41 199.08C218.79 198.99 219.13 198.79 219.4 198.5C221.53 199.06 221.09 196.44 222.28 195.5C223.47 194.56 224.28 194.5 225.41 195.19C226.4 196.66 226.83 198.44 226.6 200.19C225.41 201.38 225.97 203.38 225.16 204.76" fill="black"/>
<path d="M201.63 199.25C202.82 198 205.38 198.06 205.51 196.25C203.76 196.25 202.82 196.94 201.63 197.88C201.63 198.32 200.94 199.01 201.63 199.26V199.25Z" fill="black"/>
<path d="M189.3 247.42C193.25 246.53 197.27 245.96 201.31 245.73C200.46 245.54 199.69 245.08 199.12 244.42C196.74 244.42 195.68 241.86 194.93 239.98C194.18 238.1 195.43 237.54 195.99 236.41C194.99 234.35 191.92 235.85 190.11 235.1C189.61 234.72 189.3 234.1 188.55 234.04L189.3 235.1C189.56 239.27 189.56 243.45 189.3 247.61" fill="black"/>
<path d="M242.04 229.47C240.66 232.22 237.54 233.97 235.22 235.73C231.97 238.98 226.71 239.67 225.02 244.36C223.33 245.92 222.71 248.43 220.27 249.36C219.39 251.74 216.83 251.55 215.39 253.3C211.2 257.05 208.51 250.92 204.75 250.17L197.12 251.55C194.53 251.99 191.89 251.99 189.3 251.55C189.68 256.76 189.68 261.98 189.3 267.19L190.3 266.63C213.64 265.66 235.85 256.31 252.86 240.29L242.35 230.28L242.04 229.47Z" fill="black"/>
<path d="M233.35 174.23L234.85 175.79C236.41 176.79 235.35 179.04 237.04 179.92C238.73 180.8 239.67 183.17 240.48 184.86C240.71 184.41 240.86 183.92 240.92 183.42C241.67 180.67 241.55 177.6 242.42 174.91C239.38 175.35 236.29 175.12 233.35 174.22V174.23Z" fill="black"/>
<path d="M204.94 120.3C199.71 118.71 194.35 117.58 188.93 116.92L189.43 118.05V131.5H190.74C198.9 132.42 206.66 135.58 213.14 140.63L213.45 141.69C215.7 138.56 219.08 135.87 221.71 132.87L224.21 131.43L223.02 130.93C217.7 126.42 211.62 122.9 205.06 120.55" fill="black"/>
<path d="M181.42 207.32C181.8 206.01 181.42 204.32 181.92 203.19C182.42 202.06 183.73 202.13 184.74 202.31C184.88 202.29 185.02 202.23 185.13 202.15C185.25 202.06 185.34 201.95 185.4 201.82C185.46 201.69 185.49 201.55 185.48 201.4C185.48 201.26 185.43 201.12 185.36 200.99C183.92 200.99 184.55 199.11 184.05 198.24C183.55 197.36 184.93 197.8 184.74 197.18C184.55 196.55 185.24 195.49 184.43 194.62C184.43 194.62 184.81 194.18 185.06 193.99C182.06 195.3 178.8 193.43 176.18 192.24C174.93 191.49 172.99 190.74 172.68 189.17C169.93 192.75 166.86 196.06 163.48 199.05C168.62 203.36 174.82 206.21 181.43 207.31L181.42 207.32Z" fill="black"/>
<path d="M112.61 175.92L113.74 185.12C114.64 188.53 115.26 192 115.62 195.5C116.18 194.75 115.62 193.25 117.18 193.12C116.62 191.99 118.24 191.06 117.18 190.12C117.28 187.65 118.31 185.3 120.06 183.55C122.56 183.55 122.75 180.11 125.31 179.98C126.62 179.98 127.37 181.67 127.94 182.23C126.61 180.13 126.16 177.59 126.69 175.16L125.56 175.66C120.95 175.75 116.33 175.58 111.73 175.16L112.61 175.91V175.92Z" fill="black"/>
<path d="M169.6 185.8L167.91 184.99C167.53 186.24 166.81 187.36 165.85 188.24C167.04 187.43 167.85 185.86 169.42 185.74" fill="black"/>
<path d="M128.56 226.9C126.85 225.49 125.3 223.89 123.93 222.15C123.06 221.92 122.24 221.52 121.52 220.97C120.8 220.42 120.2 219.74 119.74 218.96C119.24 218.4 119.74 217.4 119.11 217.02L118.55 217.77C116.8 218.58 116.17 216.83 114.98 216.08C113.79 215.33 114.17 212.26 112.04 212.83C111.29 212.83 111.04 211.89 110.54 211.39C108.6 211.39 108.1 209.45 107.04 208.39C107.04 208.83 107.04 209.45 106.41 209.77C104.47 210.21 103.72 207.77 102.41 206.77C102.03 206.77 101.78 207.33 101.28 207.21C100.1 206.12 99.38 204.62 99.28 203.02C97.59 201.21 98.34 198.27 98.65 196.01C98.96 195.38 99.78 195.07 99.65 194.32C99.52 193.57 101.21 193.19 102.21 193.13C102.65 193.34 103.01 193.66 103.27 194.07C103.9 193.63 105.33 194.07 104.77 192.69C105.74 192.02 106.85 191.59 108.02 191.44C108.67 192.55 109.43 193.6 110.27 194.57L109.58 193.44C108.25 188.49 107.43 183.42 107.14 178.3C107.14 177.99 106.51 177.86 107.14 177.55C107.07 176.61 107.07 175.67 107.14 174.73L105.83 175.23L91.94 175.17C92.75 190.52 97.03 205.5 104.45 218.96C108.4 225.52 112.81 231.79 117.65 237.73L127.6 227.47L128.54 226.91L128.56 226.9Z" fill="black"/>
<path d="M182.36 233.41C170.64 232.76 159.4 228.54 150.14 221.34C150.14 222.53 152.08 223.28 151.64 224.78C151.2 226.28 149.01 226.16 147.64 226.16C144.76 225.66 142.7 227.85 140.01 228.16C137.32 228.47 136.69 225.91 134.5 226.16C147.71 238.36 164.72 245.65 182.67 246.8L184.11 247.74L183.48 246.05V232.91L182.35 233.41H182.36Z" fill="black"/>
<path d="M144.51 110.61C141.38 112.74 138.25 115.55 135.38 117.43C138.99 120.25 142.36 123.37 145.45 126.75L145.76 127.69C154.1 119.94 164.47 114.71 175.66 112.61C178.24 112.02 180.9 111.83 183.54 112.05C183.2 107.26 183.2 102.45 183.54 97.66C169.63 98.4 156.18 102.9 144.63 110.67" fill="black"/>
<path d="M158.34 183.55H156.65C156.65 180.73 153.46 182.42 152.27 180.92C153.65 183.48 154.4 186.43 155.84 189.05C157.28 191.68 158.78 193.12 159.66 195.31C160.88 193.54 162.29 191.9 163.85 190.43C163.94 189.75 163.78 189.06 163.41 188.49C162.91 187.43 163.41 185.93 162.53 185.05C161.22 185.49 162.97 186.8 162.53 187.55C162.41 187.61 162.28 187.64 162.15 187.64C162.02 187.64 161.89 187.61 161.77 187.55C161.65 187.49 161.55 187.4 161.48 187.29C161.4 187.18 161.36 187.05 161.34 186.92C160.78 186.78 160.27 186.5 159.85 186.11C159.43 185.72 159.13 185.22 158.96 184.67C159.9 184.11 158.96 183.86 158.46 183.36" fill="black"/>
<path d="M132.63 162.65C132.44 165.14 132.02 167.61 131.38 170.03C133.43 169.5 135.58 169.5 137.64 170.03C136.45 169.47 137.64 167.97 136.76 167.21C135.88 166.46 136.45 164.39 137.64 163.58C137.64 161.58 139.64 160.51 139.89 158.64C140.14 156.76 142.83 157.95 143.96 156.89C145.09 155.83 143.96 155.76 143.96 155.26C144.96 153.88 146.52 153.95 147.71 153.2C148.55 151.79 149.71 150.59 151.09 149.7C154.03 149.7 154.09 145.63 156.91 145.51C153.05 142.3 149.37 138.88 145.9 135.25C139.19 143.09 134.63 152.53 132.64 162.65H132.63Z" fill="black"/>
<path d="M131.69 121.62L126.31 128.44C117.78 140.62 112.84 154.95 112.05 169.79H125.75L127 170.29C126.5 169.98 126.62 169.35 126.44 168.85C127.18 154.86 132.81 141.58 142.33 131.31C138.57 128.08 135.05 124.56 131.82 120.8L131.69 121.61V121.62Z" fill="black"/>
<path d="M134.57 182.86C134.57 181.92 133.32 181.67 133.51 180.8C133.7 179.92 133.51 175.98 136.01 175.17C135.22 175.44 134.38 175.54 133.55 175.47C132.72 175.39 131.91 175.14 131.19 174.73L131.94 175.92C132.57 179.13 132.8 182.41 132.63 185.68C133.19 184.74 133.32 183.43 134.57 182.86Z" fill="black"/>
<path d="M139.69 175.17L139.31 177.8C138.68 179.36 136.75 178.24 135.87 179.24C134.99 180.24 135.87 181.3 136.5 182.12C135.06 185.31 139.63 186.31 139.57 189.19C140.95 190.94 139.57 193.57 141.38 195.45C141.82 198.7 140.94 203.08 143.76 205.65L144.26 208.72C144.82 210.85 141.7 210.35 142.13 212.22C142.69 212.22 142.82 212.72 142.88 212.91C146.87 208.28 151.15 203.91 155.7 199.84L153.82 197.96C150.2 192.78 147.59 186.96 146.13 180.82L144.69 180.13C144.37 181.57 144.14 183.04 144 184.51L143.5 185.14C142.44 185.14 141.81 184.26 140.94 183.7C140.06 183.14 140.13 182.26 140.94 181.82C141.15 181.79 141.36 181.79 141.57 181.85C141.77 181.9 141.97 182 142.13 182.13C142.57 181.57 142.13 180.82 142.63 180.13C143.13 179.44 141.75 177.82 142.63 176.75C143.57 176.75 144.26 177.81 144.63 178.44C145 179.07 146.38 177.94 147.13 177.63C147.88 177.32 148.32 175.63 147.13 175.13C147.63 173.2 147.63 171.18 147.13 169.25C146.57 167.62 144.75 167.87 143.38 168.06C139.38 169.37 144.07 172.38 143.07 174.88C142.51 176.32 141.01 174.88 139.94 175.57" fill="black"/>
<path d="M173.79 214.77C174.83 213.67 176.12 212.83 177.54 212.33C173.1 213.21 169.16 210.08 165.4 208.33C163.27 206.7 160.46 205.39 159.14 203.01C156.16 206.72 152.83 210.14 149.19 213.21C150.75 213.21 151.63 214.96 152.88 215.71C160.39 221.4 169.1 225.29 178.34 227.1L175.96 225.97C174.15 223.97 171.58 221.53 171.52 218.71C173.33 218.08 173.08 216.15 173.71 214.77" fill="black"/>
<path d="M243.61 117.11C244.61 117.11 244.92 118.55 245.61 119.3C249.24 121.24 250.24 125.18 253.43 127.37C255.18 131.06 259.31 133.94 259.69 138.26C264.27 147.97 266.85 158.5 267.26 169.23L266.82 169.79C267.26 169.79 267.68 169.64 268.01 169.35H282.4C281.46 167.97 281.84 165.91 281.59 164.22C279.44 142.54 270.15 122.19 255.19 106.35C252.11 110.09 248.81 113.64 245.31 116.99L243.62 117.12L243.61 117.11Z" fill="black"/>
<path d="M107.29 169.91L106.91 167.97C107.73 152.56 112.91 137.69 121.86 125.12C123.75 122.3 126 119.73 128.55 117.49C125.3 114.49 121.92 111.23 118.54 107.61L118.16 106.36C104.17 121.38 95.26 140.42 92.7 160.79C92.14 163.79 92.7 167.05 91.89 169.86C97.01 169.48 102.16 169.48 107.28 169.86" fill="black"/>
<path d="M132.38 113.92V113.23C146.22 100.19 164.31 92.6 183.3 91.83L182.86 90.64V78.69L183.3 77.25C163.95 78.01 145.28 84.54 129.69 96.02C126.69 98.08 124 101.27 120.87 103.09H121.31C125.29 106.27 128.98 109.81 132.32 113.66" fill="black"/>
<path d="M183.55 137.07C175.49 137.76 167.95 141.31 162.28 147.08H163.41C164.6 148.27 166.54 148.02 167.41 149.64C168.29 151.27 166.6 150.39 166.6 151.14C166.6 151.89 167.23 151.14 167.41 151.77C167.6 152.4 168.16 151.21 168.54 150.83C168.92 150.45 169.98 152.02 171.17 152.02C171.36 151.86 171.58 151.74 171.82 151.67C172.06 151.6 172.31 151.58 172.55 151.61C172.8 151.64 173.03 151.72 173.25 151.84C173.46 151.96 173.65 152.13 173.8 152.33C174.61 151.64 176.3 152.33 176.55 151.02C178.11 149.39 177.24 146.83 179.55 145.77C180.3 146.21 179.55 146.96 179.55 147.65C181.05 148.34 182.8 146.4 184.05 147.65C183.16 144.09 182.91 140.41 183.3 136.76" fill="black"/>
<path d="M0 373.73H373.67V0H0V373.73ZM320.62 194.62C315.37 202.06 309.05 209.01 304.23 216.58C305.27 210.32 304.88 203.9 303.1 197.81C298.72 185.52 295.8 172.75 294.4 159.77V154.64C297.47 168.34 310.92 177.79 310.04 193.11C310.06 196.55 309.56 199.96 308.54 203.24L309.1 202.55C310.62 194.92 312.71 187.41 315.36 180.09C319.8 169.96 325.31 159.76 323.05 147.56C326.1 155.11 327.45 163.24 327 171.38C326.55 179.51 324.3 187.44 320.43 194.61H320.62V194.62ZM312.36 117.11C316.78 123.59 319.49 131.08 320.25 138.89C321 146.7 319.78 154.57 316.68 161.78C314.28 167.71 312.58 173.91 311.61 180.24C311.17 179.11 311.11 177.61 310.67 176.36C307.23 162.97 294.47 153.4 289.27 140.76C287.56 136.58 286.26 132.24 285.39 127.81C291.02 138.13 304.72 143.51 308.47 154.84C309.57 157.95 310.38 161.15 310.91 164.41C311 164.41 311.09 164.38 311.16 164.32C311.23 164.26 311.27 164.18 311.29 164.09C309.84 152.28 309.99 140.33 311.73 128.56C312.13 122.53 310.67 116.52 307.54 111.36C309.79 112.67 310.79 115.18 312.36 117.12V117.11ZM306.1 114.8C308.48 125.25 305.04 135.51 307.23 146.08C301.54 134.88 289.46 129.56 281.14 120.62C276.66 115.29 273.84 108.76 273.01 101.85C277.76 113.36 290.65 115.93 298.03 125.56C300.02 127.94 301.66 130.6 302.91 133.44C299.35 124 296.46 114.32 294.28 104.47C292.67 100.05 289.74 96.23 285.9 93.52C290.84 94.99 295.31 97.74 298.84 101.5C302.37 105.26 304.83 109.89 305.99 114.92L306.12 114.79L306.1 114.8ZM280.08 90.9C286.6 97.35 290.97 105.65 292.59 114.67L293.78 117.49C283.04 109.71 273.87 99.96 266.75 88.78L258.49 80.4C266.14 82.69 273.35 86.24 279.82 90.91H280.07L280.08 90.9ZM141.26 82.77C155.37 75.85 170.84 72.18 186.55 72.01C205.35 72.11 223.74 77.5 239.62 87.57C255.5 97.64 268.22 111.97 276.32 128.94C287.05 150.67 289.39 175.6 282.89 198.94C275.76 224.53 258.75 246.24 235.61 259.3C212.47 272.35 185.09 275.68 159.5 268.54C133.91 261.41 112.2 244.4 99.14 221.26C86.09 198.12 82.76 170.74 89.9 145.15C93.7 131.75 100.23 119.28 109.06 108.52C117.9 97.76 128.86 88.93 141.26 82.59V82.78V82.77ZM112.61 81.64C105.84 88.32 99.86 95.75 94.78 103.79C89.66 109.19 84.16 114.23 78.33 118.87C81.33 112.61 81.46 105.29 85.65 99.6C91.91 89.09 102.85 85.46 112.8 81.52L112.61 81.65V81.64ZM72.76 103.91C76.07 99.63 80.68 96.53 85.9 95.09C76.08 101.85 76.7 113.86 73.39 124.12C72.39 127.87 70.64 131.31 69.76 135.13H70.07C71.89 130.62 74.64 126.55 78.14 123.18C85.21 116.92 95.53 112.67 98.97 103.1C98.97 116.43 87.71 126.87 77.14 134.38C72.62 137.97 68.88 142.44 66.13 147.52C66.13 144.14 66.63 140.76 66.13 137.2C64.94 125.63 64.13 112.18 72.39 103.73L72.77 103.92L72.76 103.91ZM52.8 143.89C52.85 132.79 56.92 122.08 64.25 113.74C64.25 113.74 64.63 113.43 64.88 113.74C57.25 125.25 63.57 139.76 63.19 152.84L62.19 166.23C62.19 166.23 62.19 166.73 62.69 166.61C63.13 165.11 63.25 163.48 63.57 161.98C65.32 151.16 74.71 143.21 82.96 136.02C84.69 134.19 86.09 132.08 87.09 129.76C86.38 135.24 84.84 140.57 82.52 145.59C76.26 158.1 64.32 168.24 62.19 182.5C61.19 168.86 51.87 158.6 52.81 144.15V143.9L52.8 143.89ZM47.04 160.84C47.62 157.01 48.63 153.25 50.04 149.64C46.97 165.15 57.42 176.35 60.86 189.87C61.83 195.01 63.12 200.09 64.74 205.07H65.18C60.05 190.74 67.43 177.42 74.88 166.22C76.58 163.09 77.84 159.75 78.63 156.27C78.85 163.22 78.25 170.17 76.82 176.98C75.01 185.55 72.32 193.62 70 202C68.72 207.42 68.59 213.04 69.62 218.52L68.81 217.64C63.37 207.63 52.67 199.75 49.48 188.8C46.35 179.7 45.45 169.98 46.85 160.46L47.04 160.84ZM46.36 190.87C47.55 207.32 65.13 215.89 73.51 229.72C75.25 232.7 77.35 235.45 79.77 237.92C79.33 236.23 77.71 234.73 77.14 232.92C74.22 226.88 73.09 220.13 73.89 213.46C74.7 205.01 78.21 197.19 76.89 188.44C84.08 204.08 81.89 223.47 85.9 240.36C87.26 243.94 88.81 247.45 90.53 250.87C75.89 240.61 55.62 231.04 49.05 212.71C46.51 205.8 45.65 198.38 46.55 191.06L46.36 190.87ZM55.43 228.9C63.69 247.67 84.4 249.17 98.35 260.62C100.78 262.81 103.49 264.66 106.42 266.13C102.93 263.25 99.86 259.9 97.29 256.18C89.16 244.86 92.04 229.03 85.9 216.89C91.56 223.15 96.34 230.16 100.1 237.72C105.04 250.23 106.98 263.81 118.49 273.07C105.98 269 91.4 270.13 80.45 262.5C74.19 258.91 68.74 254.07 64.43 248.28C60.12 242.49 57.06 235.87 55.43 228.84V228.9ZM76.7 263.75C89.96 278.89 111.61 273.82 129.31 277.76C131.72 278.48 134.24 278.8 136.75 278.7C134.62 277.39 131.68 277.51 129.43 276.32C115.54 271.44 113.48 256.43 105.97 246.35C115.46 253.36 124.35 261.14 132.56 269.62C138.92 274.79 146.54 278.18 154.64 279.44C152.7 280.13 150.2 279.94 148.38 280.5C133.87 284.07 117.73 289.88 102.34 284.69C91.64 281.13 82.7 273.64 77.32 263.73H76.69L76.7 263.75ZM256.49 298.85C241.54 304.42 225.96 298.54 214.26 289.72C209.57 286.72 205.38 282.4 199.25 282.78C197.14 282.66 195.03 282.88 192.99 283.41C204.57 288.87 215.15 296.26 224.27 305.24C222.54 307.15 220.63 308.88 218.58 310.43C209.74 300.28 199.15 291.8 187.3 285.41C185.23 285.91 183.25 286.71 181.42 287.79C171.58 293.82 162.91 301.57 155.83 310.69L149.57 305.75C158.75 296.41 169.53 288.8 181.41 283.29C170.02 279.72 162.64 289.23 154.01 294.05C148.78 297.83 142.73 300.3 136.35 301.25C129.97 302.21 123.46 301.63 117.35 299.55C110.65 297.25 104.68 293.18 100.08 287.79C105.23 290.94 111.04 292.84 117.06 293.37C123.07 293.89 129.13 293.01 134.74 290.8C149.32 284.54 164.46 276.41 182.03 280.29C184.78 280.29 187.47 283.04 190.1 280.73C203.3 277.61 217.19 279.37 229.2 285.67L240.77 290.3C246.34 292.33 252.29 293.05 258.18 292.41C264.07 291.77 269.73 289.78 274.74 286.61C270.01 292.35 263.8 296.67 256.79 299.12L256.48 298.87L256.49 298.85ZM272.76 283.39C255.99 289.65 239.1 281.95 222.71 279.32L219.58 278.94C227.54 277.64 235 274.2 241.16 268.99C249.51 260.14 258.57 251.98 268.25 244.59C260.81 254.1 260.05 267.67 247.79 273.81C244.55 275.31 241.2 276.58 237.78 277.63C242.13 277.26 246.46 276.61 250.73 275.69C267.18 273.13 286.01 275.69 297.52 261.74C292.25 271.83 283.28 279.49 272.5 283.14L272.75 283.39H272.76ZM281.83 266C273.26 268.31 264.13 269.07 255.81 271.88C269.89 259.81 269.07 241.1 278.52 226.84C281.4 222.72 284.49 218.76 287.78 214.95C282.09 226.46 284.53 241.35 277.96 252.49C275.31 257.2 271.88 261.43 267.83 265C269.14 265 270.27 263.81 271.4 263.06C282.1 252.36 296.05 249.42 307.62 240.73C312.38 237.16 316.13 232.42 318.51 226.97C316.32 244.67 298.74 261.25 282.16 266.51L281.85 266.01L281.83 266ZM303.35 236.41C296.72 240.73 289.96 244.79 283.58 249.67V249.11C293.34 232.84 288.58 210.57 294.59 192.81L296.84 186.87C295.59 197.94 300.47 207.39 300.09 218.53C299.66 225.01 297.5 231.25 293.83 236.61H294.39C298.77 230.11 303.49 223.84 308.53 217.84C317.16 209.46 325.98 200.89 327.3 189.25C330.18 208.64 319.35 225.66 303.28 236.61" fill="black"/>
<path d="M267.38 175.17L266.57 174.54L267.07 175.92C266.33 191.91 260.82 207.32 251.24 220.15C249.57 222.49 247.59 224.59 245.36 226.41C249.34 229.73 253.06 233.35 256.5 237.23L256.88 236.48C272.14 219.8 281 198.26 281.9 175.67L282.46 174.48L281.71 174.79L267.38 175.17Z" fill="black"/>
<path d="M182.86 117.36C170.58 118.37 158.93 123.28 149.64 131.37C153.33 134.48 156.86 137.78 160.21 141.25L160.96 140.19C165.49 136.63 170.64 133.96 176.16 132.31C178.62 131.59 181.17 131.27 183.73 131.37C183.17 126.51 183.17 121.59 183.73 116.73L182.85 117.36H182.86Z" fill="black"/>
<path d="M189.05 90.52C189.1 90.08 189.27 89.67 189.55 89.33C190.24 88.95 190.8 89.33 191.11 90.02C191.42 90.71 191.49 91.9 191.11 92.33C191.74 92.33 191.99 91.95 192.55 91.95C203.56 92.79 214.24 96.06 223.83 101.52C225.77 100.58 228.27 99.33 230.09 101.02C232.53 100.14 232.97 103.08 234.91 103.4C236.21 104.09 237.36 105.05 238.26 106.22C239.17 107.38 239.81 108.73 240.16 110.16C240.6 111.04 242.04 111.72 242.22 112.66C244.26 109.37 246.79 106.42 249.73 103.9L251.42 103.21C236.97 89.37 218.42 80.59 198.56 78.19C195.31 77.97 192.07 77.55 188.86 76.94C189.33 81.52 189.33 86.13 188.86 90.7L189.05 90.51V90.52ZM233.72 97.41C234.22 97.49 234.69 97.7 235.09 98.02C235.48 98.34 235.79 98.75 235.98 99.22C235.98 100.35 237.04 101.28 235.98 102.16C233.29 102.85 233.04 99.85 230.98 99.09C230.83 98.89 230.71 98.65 230.65 98.41C230.59 98.16 230.57 97.91 230.61 97.65C231.55 96.52 232.42 98.4 233.49 97.65L233.74 97.4L233.72 97.41ZM190.68 88.58C191.06 87.77 192.24 88.08 192.81 88.58L200.19 84.83C201.62 84.73 203.05 84.95 204.39 85.45C205.73 85.96 206.94 86.75 207.95 87.77V88.15C207.16 88.98 206.16 89.57 205.06 89.87C203.96 90.17 202.79 90.16 201.7 89.84C198.38 90.47 193.82 92.4 191.19 88.96C191.19 88.96 190.75 88.4 191.19 88.15" fill="black"/>
<path d="M189.05 111.98C190.95 111.6 192.91 111.6 194.81 111.98C204.5 113.23 213.72 116.94 221.59 122.74C220.47 121.8 219.68 120.53 219.34 119.11C219.42 119.05 219.52 119.02 219.62 119.02C219.72 119.02 219.82 119.05 219.9 119.11C219.9 117.61 218.4 116.8 218.15 115.36C218.27 115.19 218.43 115.06 218.62 114.98C218.81 114.9 219.02 114.88 219.22 114.92C220.83 116.49 222.3 118.21 223.6 120.05C224.73 119.61 225.6 120.05 226.42 120.93C227.24 121.81 226.98 123.62 228.05 124.62C228.05 127.56 231.87 129.19 231.62 132.13C231.62 132.82 232.56 132.13 232.87 132.63L235.87 136.32C235.66 136.65 235.58 137.06 235.66 137.44C235.74 137.82 235.97 138.17 236.3 138.38C237.68 138.94 238.43 137.25 239.74 137.5C241.05 137.75 239.74 139.88 239.74 141.07C240.49 141.07 241.43 140.51 241.99 141.07C242.55 141.63 241.11 142.82 240.68 143.57C240.24 144.32 241.56 144.38 242.37 144.63C243.18 144.88 243.81 145.69 243.56 146.44C246.06 149 242.81 151.82 244 154.57C244.27 155.42 244.29 156.33 244.07 157.19C243.85 158.05 243.39 158.84 242.74 159.45C242.74 161.64 240.74 162.95 239.99 164.83L237.43 165.33C236.12 166.64 238.56 168.27 237.43 169.15H243L242.19 168.9C241.77 167.74 241.62 166.5 241.75 165.28C241.88 164.05 242.29 162.88 242.95 161.83C243.44 159.83 244.33 157.96 245.58 156.32C245.58 156.32 246.58 155.57 246.89 156.32C247.04 158.08 246.74 159.84 246.01 161.45C247.23 163.98 247.77 166.78 247.57 169.58C252.45 169.27 257.33 169.2 262.15 169.27L261.71 168.27C261.27 159.36 259.14 150.62 255.45 142.5C254.45 142.5 253.7 143.38 252.45 143.06C252.26 143 252.09 142.87 251.99 142.7C251.89 142.53 251.85 142.32 251.89 142.12C250.19 139.92 248.35 137.83 246.38 135.86C243.88 135.86 242.69 133.17 240.12 132.92C237.56 132.67 239.43 128.79 236.49 129.67C235.74 129.41 235.06 128.98 234.51 128.4C233.97 127.82 233.57 127.12 233.36 126.35C233.5 125.02 233.31 123.68 232.82 122.44C232.33 121.2 231.55 120.09 230.54 119.22C228.73 118.59 227.98 120.97 226.22 120.6C224.47 120.22 225.66 118.79 225.34 117.97C225.03 117.16 224.15 116.66 224.28 115.66C226.66 112.59 221.46 112.59 222.59 109.4C222.28 107.21 220.09 106.33 218.9 104.58C211.25 101.07 203.11 98.75 194.75 97.7C192.63 97.8 190.51 97.5 188.49 96.82L188.99 97.76V111.71" fill="black"/>
<path d="M184.05 159.4C182.53 161.4 180.28 162.72 177.79 163.09C177.16 163.9 177.29 165.65 175.73 165.53C175.23 166.59 173.54 167.22 174.23 168.85C173.75 170.71 173.45 172.62 173.35 174.54C170.41 176.42 171.29 172.16 169.78 171.22L169.28 172.1C168.65 172.1 168.28 172.1 167.9 171.47C167.52 170.84 166.65 171.16 166.27 171.47C165.89 171.78 164.64 173.47 164.89 174.97C165.14 176.47 163.08 175.53 163.26 176.47C164.97 176.39 166.66 176.16 168.33 175.78C169.46 176.09 170.39 175.22 171.52 175.15C172.65 175.09 172.4 175.78 172.21 176.4H172.65C173.03 176.14 173.32 175.76 173.47 175.32C173.62 174.88 173.62 174.4 173.47 173.96C173.47 172.96 174.72 172.96 175.41 172.65C176.1 172.34 175.41 173.59 175.41 174.09C177.66 174.97 174.91 176.59 174.6 177.78C174.29 178.97 174.6 180.85 172.72 180.6C172.63 180.58 172.54 180.54 172.46 180.48C172.38 180.42 172.32 180.35 172.27 180.27C172.22 180.19 172.19 180.1 172.18 180C172.17 179.91 172.18 179.81 172.21 179.72H171.9C171.92 180.18 172.05 180.63 172.29 181.03C172.53 181.42 172.87 181.75 173.27 181.98C174.65 180.79 174.71 178.85 176.71 178.6C178.71 178.35 176.27 175.85 177.84 174.97C180.4 174.97 183.16 173.78 185.22 175.91C185.22 176.79 184.72 177.16 185.22 177.91C184.85 179.14 184.26 180.28 183.47 181.29C183.57 181.62 183.56 181.98 183.47 182.31C183.37 182.64 183.18 182.94 182.91 183.17C182.22 186.17 178.78 184.73 176.65 185.8C179.82 188.14 183.74 189.21 187.66 188.8C189.79 188.8 188.85 186.05 189.91 184.86C190.66 181.36 193.85 183.73 195.79 182.8C196.63 181.37 197.2 179.8 197.48 178.17C196.87 177.78 196.41 177.2 196.16 176.52C195.91 175.84 195.89 175.1 196.1 174.41C195.29 173.28 195.35 171.22 193.54 171.03C193.41 170.85 193.34 170.63 193.34 170.4C193.34 170.17 193.41 169.96 193.54 169.77C193.54 168.71 194.6 168.33 194.92 167.52C193.73 166.77 194.04 165.14 194.17 164.2C192.23 164.7 191.98 162.2 190.54 161.64C190.54 160.51 188.98 160.26 187.98 160.08C185.6 161.27 185.16 158.27 183.41 157.58C183.41 157.08 182.78 156.27 183.41 155.83C184.04 155.39 185.47 155.83 186.54 155.83L185.66 155.39C184.85 154.51 183.16 155.39 182.09 155.39C183.09 156.39 182.65 158.21 183.28 159.46" fill="black"/>
<path d="M87.58 427.09C82.65 427.06 77.73 427.48 72.88 428.34V475.45C77.11 476.38 81.44 476.8 85.77 476.7C104.54 476.7 116.11 467.38 116.11 451.05C116.11 434.72 104.85 427.09 87.58 427.09Z" fill="black"/>
<path d="M0 566.29H181.42V384.87H0V566.29ZM122.43 475.45C117.49 480.03 111.67 483.57 105.33 485.85C98.99 488.13 92.25 489.1 85.52 488.72C81.32 488.85 77.12 488.49 73.01 487.66V536.14H57.31V416.53C67.2 414.76 77.23 413.92 87.28 414.03C102.73 414.03 113.99 417.6 121.19 424.04C124.68 427.19 127.45 431.06 129.3 435.38C131.16 439.7 132.06 444.37 131.95 449.07C132.28 453.89 131.61 458.72 129.97 463.27C128.33 467.81 125.77 471.97 122.44 475.47L122.43 475.45Z" fill="black"/>
<path d="M271.45 617.46C265.3 617.36 259.16 617.89 253.12 619.02V714.67C258.37 715.35 263.66 715.6 268.95 715.42C302.29 715.42 320.44 696.65 320.44 664.06C320.44 635.22 304.42 617.45 271.46 617.45L271.45 617.46Z" fill="black"/>
<path d="M192.31 757.72H373.73V576.3H192.31V757.72ZM319.55 710.55C308.04 721.87 289.4 728 265.87 728C256.34 728.14 246.81 727.66 237.34 726.56V607.7C248.38 606.03 259.52 605.17 270.68 605.14C293.14 605.14 309.09 610.21 319.73 620.09C325.61 625.7 330.2 632.52 333.17 640.08C336.14 647.64 337.43 655.76 336.93 663.88C337.29 672.48 335.94 681.05 332.96 689.12C329.97 697.19 325.41 704.58 319.54 710.87" fill="black"/>
<path d="M0 757.66H181.42V576.55H0V757.66ZM135.13 677.39C135.13 714.55 115.55 729.63 89.4 729.63C63.25 729.63 45.92 715.62 45.92 677.96V606.83H61.75V678.65C61.75 705.55 73.76 717.06 89.9 717.06C107.67 717.06 119.37 705.24 119.37 678.65V606.83H135.13V677.4V677.39Z" fill="black"/>
<path d="M192.31 566.29H373.73V384.87H192.31V566.29ZM237.73 415.21H255L293.6 476.46C301.69 489.03 308.88 502.16 315.12 515.75H315.68C314.24 499.61 313.87 484.91 313.87 466.2V415.21H328.57V536.2H312.81L274.15 474.83C265.8 461.88 258.29 448.4 251.69 434.48H251.19C252.07 449.74 252.25 464.26 252.25 484.53V536.2H237.74V415.21H237.73Z" fill="black"/>
</g>
<defs>
<clipPath id="clip0_723_1417">
<rect width="373.73" height="757.72" fill="white"/>
</clipPath>
</defs>
</svg>
