<svg width="1354" height="387" viewBox="0 0 1354 387" fill="none" xmlns="http://www.w3.org/2000/svg">
<g clip-path="url(#clip0_723_892)">
<path fill-rule="evenodd" clip-rule="evenodd" d="M395.24 130.03C406.63 130.03 413.57 124.08 413.57 115V114.67C413.57 104.77 406.64 99.48 395.08 99.48H380.06V130.02H395.25L395.24 130.03ZM348.02 72.57H397.55C426.77 72.57 445.6 87.59 445.6 113.19V113.52C445.6 140.76 424.63 155.13 395.9 155.13H380.05V188.15H348.02V72.57Z" fill="black"/>
<path fill-rule="evenodd" clip-rule="evenodd" d="M542.87 130.36C542.87 113.69 530.82 99.16 513.15 99.16C495.48 99.16 483.92 113.36 483.92 130.03V130.36C483.92 147.04 495.97 161.57 513.48 161.57C530.99 161.57 542.87 147.37 542.87 130.7V130.36ZM451.07 130.69V130.36C451.07 97.17 477.82 70.26 513.48 70.26C549.14 70.26 575.56 96.85 575.56 130.03V130.36C575.56 163.55 548.81 190.46 513.15 190.46C477.49 190.46 451.07 163.88 451.07 130.69Z" fill="black"/>
<path fill-rule="evenodd" clip-rule="evenodd" d="M641.3 128.05C652.2 128.05 658.47 122.77 658.47 114.34V114.01C658.47 104.93 651.87 100.3 641.13 100.3H620.16V128.04H641.29L641.3 128.05ZM588.14 72.57H642.79C660.46 72.57 672.67 77.19 680.43 85.12C687.2 91.73 690.67 100.64 690.67 112.03V112.36C690.67 130.03 681.26 141.75 666.9 147.86L694.47 188.15H657.49L634.21 153.15H620.17V188.15H588.14V72.57Z" fill="black"/>
<path fill-rule="evenodd" clip-rule="evenodd" d="M730.97 100.64H696.3V72.57H797.68V100.64H763V188.14H730.97V100.64Z" fill="black"/>
<path fill-rule="evenodd" clip-rule="evenodd" d="M890.49 130.36C890.49 113.69 878.44 99.16 860.77 99.16C843.1 99.16 831.54 113.36 831.54 130.03V130.36C831.54 147.04 843.59 161.57 861.1 161.57C878.61 161.57 890.49 147.37 890.49 130.7V130.36ZM798.69 130.69V130.36C798.69 97.17 825.43 70.26 861.1 70.26C896.77 70.26 923.18 96.85 923.18 130.03V130.36C923.18 163.55 896.43 190.46 860.77 190.46C825.11 190.46 798.69 163.88 798.69 130.69Z" fill="black"/>
<path fill-rule="evenodd" clip-rule="evenodd" d="M926.18 170.98L944.01 149.68C955.4 158.76 968.12 163.55 981.49 163.55C990.08 163.55 994.7 160.58 994.7 155.62V155.29C994.7 150.5 990.9 147.86 975.22 144.23C950.62 138.62 931.63 131.69 931.63 107.91V107.58C931.63 86.11 948.63 70.6 976.38 70.6C996.02 70.6 1011.38 75.88 1023.93 85.95L1007.91 108.57C997.34 101.14 985.79 97.18 975.55 97.18C967.79 97.18 964 100.49 964 104.61V104.94C964 110.22 967.96 112.53 983.97 116.17C1010.56 121.95 1027.06 130.54 1027.06 152.16V152.49C1027.06 176.1 1008.41 190.13 980.33 190.13C959.86 190.13 940.38 183.69 926.18 170.98Z" fill="black"/>
<path fill-rule="evenodd" clip-rule="evenodd" d="M393.1 286.03C412.25 286.03 424.96 275.46 424.96 256.81V256.48C424.96 237.99 412.25 227.26 393.1 227.26H380.05V286.04H393.1V286.03ZM348.02 198.86H392.6C433.88 198.86 457.81 222.64 457.81 255.99V256.32C457.81 289.67 433.54 314.44 391.93 314.44H348.02V198.86Z" fill="black"/>
<path fill-rule="evenodd" clip-rule="evenodd" d="M558.06 256.97V256.64C558.06 239.97 546.01 225.44 528.34 225.44C510.67 225.44 499.11 239.64 499.11 256.31V256.64C499.11 273.32 511.17 287.85 528.67 287.85C546.17 287.85 558.06 273.64 558.06 256.97ZM466.26 256.97V256.64C466.26 223.45 493.01 196.54 528.67 196.54C564.33 196.54 590.75 223.12 590.75 256.31V256.64C590.75 289.83 564 316.74 528.34 316.74C492.68 316.74 466.26 290.16 466.26 256.97Z" fill="black"/>
<path fill-rule="evenodd" clip-rule="evenodd" d="M692.16 256.32C703.55 256.32 710.49 250.37 710.49 241.3V240.97C710.49 231.06 703.56 225.78 692 225.78H676.97V256.33H692.16V256.32ZM644.95 198.86H694.48C723.7 198.86 742.53 213.89 742.53 239.48V239.81C742.53 267.05 721.56 281.42 692.83 281.42H676.98V314.44H644.95V198.86Z" fill="black"/>
<path fill-rule="evenodd" clip-rule="evenodd" d="M808.42 268.86L795.54 236.01L782.5 268.86H808.42ZM811.22 198.04L860.42 314.44H826.08L817.66 293.8H773.08L764.82 314.44H731.13L780.33 198.04H811.22Z" fill="black"/>
<path fill-rule="evenodd" clip-rule="evenodd" d="M920.72 254.33C931.62 254.33 937.89 249.05 937.89 240.63V240.3C937.89 231.22 931.29 226.59 920.56 226.59H899.59V254.33H920.72ZM867.55 198.86H922.2C939.87 198.86 952.09 203.49 959.84 211.41C966.61 218.01 970.08 226.93 970.08 238.32V238.65C970.08 256.31 960.67 268.04 946.3 274.15L973.87 314.44H936.89L913.61 279.44H899.58V314.44H867.55V198.86Z" fill="black"/>
<path fill-rule="evenodd" clip-rule="evenodd" d="M1048.21 268.86L1035.33 236.01L1022.29 268.86H1048.21ZM1051.01 198.04L1100.21 314.44H1065.87L1057.45 293.8H1012.87L1004.61 314.44H970.92L1020.12 198.04H1051.01Z" fill="black"/>
<path fill-rule="evenodd" clip-rule="evenodd" d="M1107.34 198.86H1137.23L1184.78 259.95V198.86H1216.48V314.44H1188.41L1139.04 251.04V314.44H1107.34V198.86Z" fill="black"/>
<path fill-rule="evenodd" clip-rule="evenodd" d="M1292.45 160.55L1321.68 169.97L1297.41 191.1H1275.28L1292.45 160.55ZM1300.87 268.86L1287.99 236.01L1274.95 268.86H1300.87ZM1303.67 198.04L1352.87 314.44H1318.53L1310.11 293.8H1265.53L1257.27 314.44H1223.59L1272.79 198.04H1303.67Z" fill="black"/>
<path d="M209.32 74.18H108.12V89.76H209.32V74.18Z" fill="black"/>
<path fill-rule="evenodd" clip-rule="evenodd" d="M16.57 154.98L95.51 154.38V90.24H16.57V154.98ZM0 171.69V73.69H112.08V170.84L0 171.69Z" fill="black"/>
<path fill-rule="evenodd" clip-rule="evenodd" d="M210.06 90.14V155.1L286.73 154.5V90.15H210.06V90.14ZM193.7 171.58V73.79H303.08V170.72L193.7 171.58Z" fill="black"/>
<path fill-rule="evenodd" clip-rule="evenodd" d="M16.11 170.73C20.23 241.88 79.42 298.5 151.59 298.5C223.76 298.5 282.95 241.88 287.07 170.73H16.11ZM151.59 314.37C68.01 314.37 0 246.37 0 162.79V154.86H303.17V162.79C303.17 246.37 235.17 314.37 151.59 314.37Z" fill="black"/>
<path fill-rule="evenodd" clip-rule="evenodd" d="M111.98 15.87V162.11C111.98 221.41 137.83 268.72 149.22 286.69C182.31 247.48 193.07 166.92 193.91 160.27V15.87H111.98ZM147.22 311.09L141.9 304.13C140.03 301.68 96.12 243.33 96.12 162.11V0H209.79L209.74 161.67C209.26 165.84 197.36 264.19 153.62 305.1L147.22 311.09Z" fill="black"/>
<path fill-rule="evenodd" clip-rule="evenodd" d="M39.06 252.35L33.2 237.6C38.2 235.61 157.07 189.39 266.81 237.02L260.5 251.58C156.89 206.62 40.22 251.89 39.06 252.35Z" fill="black"/>
<path fill-rule="evenodd" clip-rule="evenodd" d="M351.82 356H357.02V380.83H372.56V385.56H351.82V356Z" fill="black"/>
<path fill-rule="evenodd" clip-rule="evenodd" d="M423.64 370.86V370.78C423.64 365.04 419.46 360.26 413.59 360.26C407.72 360.26 403.62 364.95 403.62 370.69V370.78C403.62 376.52 407.8 381.29 413.67 381.29C419.54 381.29 423.63 376.6 423.63 370.86H423.64ZM398.17 370.86V370.78C398.17 362.46 404.59 355.49 413.67 355.49C422.75 355.49 429.08 362.37 429.08 370.69V370.78C429.08 379.1 422.66 386.07 413.58 386.07C404.5 386.07 398.16 379.19 398.16 370.87L398.17 370.86Z" fill="black"/>
<path fill-rule="evenodd" clip-rule="evenodd" d="M457.27 370.86V370.78C457.27 362.5 463.6 355.49 472.52 355.49C477.67 355.49 480.84 356.93 483.88 359.5L480.58 363.43C478.3 361.49 476.06 360.26 472.3 360.26C466.85 360.26 462.71 365.03 462.71 370.69V370.78C462.71 376.86 466.72 381.34 472.76 381.34C475.55 381.34 478.08 380.45 479.9 379.1V373.57H472.34V369.05H484.92V381.46C482.01 383.95 477.83 386.06 472.59 386.06C463.34 386.06 457.26 379.47 457.26 370.86H457.27Z" fill="black"/>
<path fill-rule="evenodd" clip-rule="evenodd" d="M520.46 347.43L525.1 349.46L519.69 353.56H515.72L520.45 347.44L520.46 347.43ZM515.18 356H520.37V385.56H515.18V356Z" fill="black"/>
<path fill-rule="evenodd" clip-rule="evenodd" d="M549.5 381.26L552.62 377.54C555.45 379.99 558.28 381.38 561.95 381.38C565.16 381.38 567.19 379.9 567.19 377.66V377.57C567.19 375.46 566.01 374.32 560.52 373.05C554.23 371.53 550.68 369.67 550.68 364.23V364.15C550.68 359.08 554.9 355.58 560.77 355.58C565.08 355.58 568.5 356.89 571.5 359.3L568.71 363.23C566.05 361.24 563.39 360.18 560.68 360.18C557.64 360.18 555.87 361.74 555.87 363.69V363.78C555.87 366.06 557.22 367.07 562.88 368.42C569.13 369.94 572.38 372.18 572.38 377.08V377.17C572.38 382.7 568.03 385.99 561.82 385.99C557.3 385.99 553.04 384.43 549.49 381.26H549.5Z" fill="black"/>
<path fill-rule="evenodd" clip-rule="evenodd" d="M608.35 360.81H598.97V356H622.95V360.81H613.58V385.56H608.35V360.81Z" fill="black"/>
<path d="M657.14 356H651.95V385.56H657.14V356Z" fill="black"/>
<path fill-rule="evenodd" clip-rule="evenodd" d="M686.94 370.86V370.78C686.94 362.37 693.23 355.49 702.19 355.49C707.63 355.49 710.93 357.39 713.76 360.09L710.42 363.94C708.06 361.74 705.52 360.26 702.14 360.26C696.48 360.26 692.39 364.9 692.39 370.69V370.78C692.39 376.56 696.49 381.29 702.14 381.29C705.77 381.29 708.1 379.81 710.63 377.45L713.96 380.83C710.88 384.04 707.5 386.06 701.97 386.06C693.35 386.06 686.94 379.35 686.94 370.86Z" fill="black"/>
<path fill-rule="evenodd" clip-rule="evenodd" d="M760.52 373.82L755.41 361.99L750.34 373.82H760.52ZM753.09 355.79H757.91L770.91 385.56H765.42L762.42 378.43H748.44L745.4 385.56H740.08L753.09 355.79Z" fill="black"/>
<path d="M840.54 356H835.35V385.56H840.54V356Z" fill="black"/>
<path fill-rule="evenodd" clip-rule="evenodd" d="M871.65 356H876.46L892.3 376.44V356H897.41V385.56H893.06L876.76 364.53V385.56H871.65V356Z" fill="black"/>
<path fill-rule="evenodd" clip-rule="evenodd" d="M935.47 360.81H926.1V356H950.08V360.81H940.71V385.56H935.47V360.81Z" fill="black"/>
<path fill-rule="evenodd" clip-rule="evenodd" d="M978.78 356H1000.7V360.64H983.97V368.33H998.8V372.97H983.97V380.92H1000.91V385.56H978.78V356Z" fill="black"/>
<path fill-rule="evenodd" clip-rule="evenodd" d="M1030.28 356H1035.47V380.83H1051.01V385.56H1030.28V356Z" fill="black"/>
<path d="M1085.12 356H1079.92V385.56H1085.12V356Z" fill="black"/>
<path fill-rule="evenodd" clip-rule="evenodd" d="M1114.91 370.86V370.78C1114.91 362.5 1121.25 355.49 1130.15 355.49C1135.3 355.49 1138.47 356.93 1141.51 359.5L1138.22 363.43C1135.94 361.49 1133.7 360.26 1129.94 360.26C1124.49 360.26 1120.35 365.03 1120.35 370.69V370.78C1120.35 376.86 1124.36 381.34 1130.4 381.34C1133.19 381.34 1135.72 380.45 1137.54 379.1V373.57H1129.98V369.05H1142.57V381.46C1139.66 383.95 1135.47 386.06 1130.24 386.06C1120.99 386.06 1114.91 379.47 1114.91 370.86Z" fill="black"/>
<path fill-rule="evenodd" clip-rule="evenodd" d="M1172.53 356H1194.44V360.64H1177.72V368.33H1192.54V372.97H1177.72V380.92H1194.66V385.56H1172.53V356Z" fill="black"/>
<path fill-rule="evenodd" clip-rule="evenodd" d="M1224.03 356H1228.84L1244.68 376.44V356H1249.79V385.56H1245.43L1229.13 364.53V385.56H1224.03V356Z" fill="black"/>
<path fill-rule="evenodd" clip-rule="evenodd" d="M1287.85 360.81H1278.47V356H1302.46V360.81H1293.09V385.56H1287.85V360.81Z" fill="black"/>
<path fill-rule="evenodd" clip-rule="evenodd" d="M1331.15 356H1353.07V360.64H1336.35V368.33H1351.17V372.97H1336.35V380.92H1353.28V385.56H1331.15V356Z" fill="black"/>
</g>
<defs>
<clipPath id="clip0_723_892">
<rect width="1353.28" height="386.07" fill="white"/>
</clipPath>
</defs>
</svg>
