<svg width="1039" height="531" viewBox="0 0 1039 531" fill="none" xmlns="http://www.w3.org/2000/svg">
<g clip-path="url(#clip0_723_1060)">
<path fill-rule="evenodd" clip-rule="evenodd" d="M307.839 475.74H630.379L620.329 530.72H297.789L307.839 475.74ZM390.579 0H713.119L703.059 54.97H380.519L390.579 0ZM697.669 84.58L687.619 139.55H365.079L375.109 84.58H697.669ZM874.389 353.8H1009.33L1015.66 319.14H929.109L935.889 282.08H1015.95L1021.97 249.1H941.909L948.369 213.71H1032.43L1038.5 180.5H906.059L874.399 353.81L874.389 353.8ZM791.859 286.65H744.229L782.349 214.44L791.859 286.65ZM708.739 353.8L727.429 319.86H798.009L804.279 353.8H859.889L820.719 180.49H760.119L659.109 353.8H708.739ZM568.509 255.11L576.189 212.98H596.899C617.359 212.98 625.369 218.28 622.589 233.44C619.599 249.81 610.149 255.11 588.209 255.11H568.509ZM501.319 353.8L532.979 180.49H614.039C658.679 180.49 678.359 195.65 672.989 225.02C668.639 248.84 650.859 264.25 622.639 268.59C643.099 268.59 651.909 276.29 653.899 294.1C655.179 306.13 651.659 326.83 654.709 353.79H601.089C600.939 331.4 603.189 315.04 603.039 304.93C602.759 291.45 596.609 286.89 581.889 286.89H562.679L550.449 353.8H501.319ZM382.589 322.27L390.199 280.64H409.409C432.609 280.64 442.429 286.9 439.839 301.09C437.019 316.51 425.249 322.27 401.799 322.27H382.589ZM395.649 250.78L402.779 211.79H421.979C442.679 211.79 451.679 218.53 449.389 231.04C446.909 244.76 436.059 250.78 414.849 250.78H395.649ZM328.689 353.8H410.499C457.389 353.8 483.699 338.16 489.499 306.38C493.899 282.31 481.309 269.32 453.539 264.26C480.289 258.48 495.389 245.48 499.069 225.26C504.739 194.22 481.069 180.5 427.689 180.5H360.359L328.689 353.81V353.8ZM171.799 353.8L203.469 180.49H335.909L329.839 213.7H245.789L239.329 249.09H319.379L313.349 282.07H233.299L226.519 319.13H313.079L306.729 353.79H171.799V353.8ZM51.1492 297.95H1.25923C-5.68077 335.99 16.2192 356.69 65.3592 356.69C119.739 356.69 151.569 336.71 157.939 301.8C162.699 275.81 150.249 260.64 119.079 252.47C84.5392 243.56 65.3492 242.12 68.2092 226.48C70.0892 216.12 80.6792 208.66 95.3892 208.66C110.099 208.66 116.729 216.12 114.089 230.56L163.839 231.29L164.369 228.41C170.479 194.95 148.959 177.61 100.819 177.61C52.6792 177.61 21.5692 200.49 16.3492 229.12C10.5692 260.65 28.0492 271.49 67.0192 282.08C92.9392 289.06 108.219 290.01 105.369 305.67C103.119 317.94 92.2092 324.43 72.7492 324.43C56.5392 324.43 48.0692 314.81 50.9392 299.16L51.1492 297.95ZM645.829 391.15L635.779 446.13H313.239L323.279 391.15H645.829Z" fill="black"/>
</g>
<defs>
<clipPath id="clip0_723_1060">
<rect width="1038.49" height="530.72" fill="white"/>
</clipPath>
</defs>
</svg>
