<svg width="976" height="572" viewBox="0 0 976 572" fill="none" xmlns="http://www.w3.org/2000/svg">
<g clip-path="url(#clip0_723_1315)">
<path d="M837.44 87.33C787.84 53.17 727.98 26.24 662.3 10.15C646.04 6.32 629.72 2.7 612.83 0.25C612.23 0.13 611.5 0.12 610.88 0C586.9 17.71 564.81 37.24 544.95 58.23C566.98 55.02 589.44 52.96 612.37 52.14C692.5 49.2 768.68 62.32 837.44 87.34" fill="black"/>
<path d="M524.49 247.53C555.64 224.5 589.75 203.92 626.57 186.54C717.26 143.73 812.2 125.68 901.79 129.59C824.66 95.55 736.15 77.62 642.58 81C596.45 82.69 551.91 89.48 509.69 100.65C488.66 128.92 471.26 159.32 458.04 191.3C478.39 211.32 500.58 230.18 524.49 247.53Z" fill="black"/>
<path d="M428.71 336.75C453.32 307.84 481.55 281.05 512.83 256.66C491.21 241.15 470.99 224.47 452.2 206.83C437.13 248.05 428.85 291.66 428.7 336.76" fill="black"/>
<path d="M451.79 169.56C462.22 147.95 473.74 127.29 486.2 107.61C459.63 115.81 433.95 125.6 409.55 137.18C421.13 151.95 433.65 166.2 446.95 180.02C448.53 176.5 450.12 173.02 451.79 169.56Z" fill="black"/>
<path d="M975.59 524.02C974.48 524.02 973.38 524.05 972.23 524.05C926.2 524.05 892.82 494.6 892.82 453.99V453.09C892.82 414.26 926.26 383.84 968.96 383.84C971.23 383.84 973.46 383.92 975.59 384.04V337.39C973.61 337.3 971.57 337.3 969.5 337.3C885.9 337.3 822.78 387.42 822.78 453.99V454.86C822.78 519.77 886.74 570.64 968.44 570.64C970.93 570.64 973.22 570.59 975.6 570.52V524.02H975.59Z" fill="black"/>
<path d="M130.11 426.25C80.75 415.74 73.81 410.66 73.81 395.07V394.36C73.81 382.85 86.48 373.72 110.51 373.72C122.79 373.72 138.81 377.04 150.05 381.21V331.45C139.6 329.65 123.54 327.57 111.35 327.57C53.03 327.57 11.44 356.07 11.44 399.17V399.82C11.44 446.93 48.52 460.16 106.04 472.37C153.76 482.55 158.26 489.31 158.26 502.56V503.23C158.26 517.13 142.75 525.59 117.05 525.59C84.41 525.59 62.8 514.41 37.12 496.78L0 533.74C34.26 559.16 72.6 571.72 115.84 571.72C177.42 571.72 220.67 545.28 220.67 498.14V497.48C220.67 456.1 187.99 438.79 130.11 426.24" fill="black"/>
<path d="M273.99 447.26C278.93 422.2 295.77 405.84 321.64 405.84C347.51 405.84 364.32 422.55 368.03 447.26H273.99ZM321.64 361.56C257.58 361.56 212.85 407.35 212.85 462.84V463.56C212.85 523.1 261.69 564.12 327.79 564.12C329.7 564.12 335.83 563.87 337.73 563.83V519.47C336.16 519.55 330.23 519.84 328.58 519.84C300.67 519.84 280.97 506.78 274.79 481.73H426.6C426.96 476.62 427.39 473.36 427.39 467.88V467.23C427.39 412.02 395.1 361.56 321.64 361.56Z" fill="black"/>
<path d="M625.37 457.51C625.37 404.88 593.19 363.79 525.11 363.79C457.03 363.79 424.76 404.88 424.76 457.51V560.54H487.82V453.7C488.98 434.24 496.64 411.23 525.11 411.23C553.58 411.23 561.79 434.24 562.91 453.7V560.54H625.37V457.51Z" fill="black"/>
<path d="M727.94 362.67C725.17 362.67 715.63 362.7 713.03 362.79V409.87C725.17 409.98 741.82 412.05 749.25 415.92C760.14 421.68 765.78 431.34 766.06 444.43C751.2 442.71 734.35 441.51 719.74 441.13C660.15 439.58 630.7 459.31 624.79 490.84C624.68 491.44 624.58 492.03 624.46 492.62C624.43 492.83 624.41 493.03 624.37 493.24C623.89 496.25 623.64 499.41 623.64 502.77V503.48C623.64 542.02 657.72 563.08 699.14 563.08C729.54 563.08 750.49 553.23 765.65 538.35V560.77H825.98V446.53C825.98 393.85 796.03 362.68 727.93 362.68M766.27 491.29C760.85 519.74 731.49 524.01 724.82 524.34C677.33 526.86 675.64 494.38 691.6 484.5C713.06 471.19 766.46 478.66 766.46 478.66C766.46 480.62 766.95 485.45 766.26 491.3" fill="black"/>
</g>
<defs>
<clipPath id="clip0_723_1315">
<rect width="975.59" height="571.73" fill="white"/>
</clipPath>
</defs>
</svg>
