<svg width="1011" height="551" viewBox="0 0 1011 551" fill="none" xmlns="http://www.w3.org/2000/svg">
<g clip-path="url(#clip0_723_1072)">
<path d="M118.48 503.37C118.48 512.41 116.55 519.93 112.7 525.93C108.85 531.93 103.85 536.75 97.7002 540.38C91.5402 544.01 84.6202 546.61 76.9102 548.17C69.2102 549.72 61.4902 550.5 53.7902 550.5C44.9002 550.5 36.0102 549.98 27.1202 548.95C18.2202 547.92 9.47023 546.21 0.880234 543.84L1.99023 512.5C9.40023 515.91 17.0702 518.32 25.0002 519.72C32.9202 521.13 40.8902 521.83 48.8902 521.83C51.5602 521.83 54.4102 521.61 57.4502 521.16C60.4902 520.72 63.2602 519.91 65.7902 518.72C68.3002 517.53 70.4102 515.9 72.1202 513.82C73.8202 511.75 74.6802 509.08 74.6802 505.83C74.6802 503.31 73.7102 501.12 71.7902 499.27C69.8602 497.41 67.4902 495.76 64.6702 494.27C61.8502 492.79 58.9602 491.57 56.0002 490.61C53.0302 489.64 50.4402 488.79 48.2202 488.05L32.8802 482.94C22.9502 479.53 14.9902 474.68 8.99023 468.38C2.98023 462.08 -0.00976562 453.45 -0.00976562 442.48C-0.00976562 433.44 2.13023 425.99 6.43023 420.13C10.7302 414.28 16.1802 409.69 22.7702 406.35C29.3602 403.01 36.6302 400.68 44.5602 399.34C52.4802 398 60.1502 397.34 67.5702 397.34C81.8002 397.34 96.1002 399.04 110.47 402.44L109.36 432.9C103.29 430.53 97.0202 428.78 90.5702 427.67C84.1302 426.56 77.6402 426 71.1202 426C68.6002 426 65.7402 426.15 62.5602 426.44C59.3702 426.74 56.3702 427.41 53.5602 428.44C50.7302 429.49 48.3302 430.96 46.3402 432.89C44.3302 434.81 43.3402 437.33 43.3402 440.44C43.3402 442.81 44.1502 444.86 45.7902 446.55C47.4202 448.26 49.4502 449.7 51.9002 450.89C54.3502 452.08 56.8602 453.11 59.4502 454C62.0502 454.89 64.3802 455.64 66.4602 456.23L82.6902 461.33C88.1802 463.11 93.1402 465.12 97.5902 467.34C102.03 469.56 105.81 472.3 108.93 475.56C112.05 478.83 114.41 482.72 116.04 487.24C117.67 491.76 118.49 497.13 118.49 503.35" fill="black"/>
<path d="M139.83 548.05V399.77H250.98V428.45H182.73V458.91H248.31V487.36H182.73V519.38H252.75V548.05H139.83Z" fill="black"/>
<path d="M387.25 503.37C387.25 512.41 385.32 519.93 381.47 525.93C377.62 531.93 372.62 536.75 366.47 540.38C360.32 544.01 353.39 546.61 345.68 548.17C337.98 549.72 330.26 550.5 322.56 550.5C313.67 550.5 304.78 549.98 295.89 548.95C286.99 547.92 278.24 546.21 269.65 543.84L270.76 512.5C278.17 515.91 285.84 518.32 293.77 519.72C301.69 521.13 309.66 521.83 317.66 521.83C320.33 521.83 323.18 521.61 326.22 521.16C329.26 520.72 332.03 519.91 334.56 518.72C337.07 517.53 339.18 515.9 340.89 513.82C342.59 511.75 343.45 509.08 343.45 505.83C343.45 503.31 342.48 501.12 340.56 499.27C338.63 497.41 336.26 495.76 333.44 494.27C330.62 492.79 327.73 491.57 324.78 490.61C321.8 489.64 319.22 488.79 316.99 488.05L301.65 482.94C291.72 479.53 283.76 474.68 277.76 468.38C271.75 462.08 268.76 453.45 268.76 442.48C268.76 433.44 270.91 425.99 275.2 420.13C279.5 414.28 284.95 409.69 291.54 406.35C298.13 403.01 305.4 400.68 313.33 399.34C321.26 398 328.92 397.34 336.34 397.34C350.57 397.34 364.86 399.04 379.25 402.44L378.13 432.9C372.06 430.53 365.79 428.78 359.34 427.67C352.9 426.56 346.41 426 339.89 426C337.37 426 334.51 426.15 331.33 426.44C328.14 426.74 325.14 427.41 322.33 428.44C319.51 429.49 317.1 430.96 315.11 432.89C313.1 434.81 312.11 437.33 312.11 440.44C312.11 442.81 312.92 444.86 314.56 446.55C316.19 448.26 318.22 449.7 320.67 450.89C323.12 452.08 325.63 453.11 328.22 454C330.82 454.89 333.15 455.64 335.23 456.23L351.46 461.33C356.95 463.11 361.91 465.12 366.36 467.34C370.8 469.56 374.58 472.3 377.7 475.56C380.82 478.83 383.18 482.72 384.81 487.24C386.44 491.76 387.26 497.13 387.26 503.35" fill="black"/>
<path d="M525.52 544.5C519.3 546.57 512.81 548.09 506.06 549.06C499.32 550.02 492.69 550.5 486.16 550.5C474.01 550.5 462.79 548.91 452.49 545.73C442.19 542.55 433.26 537.76 425.7 531.39C418.15 525.02 412.21 517.05 407.92 507.5C403.62 497.93 401.47 486.78 401.47 474.04C401.47 462.03 403.73 451.29 408.25 441.81C412.77 432.32 418.92 424.32 426.71 417.8C434.49 411.28 443.49 406.28 453.72 402.8C463.95 399.32 474.76 397.57 486.17 397.57C492.55 397.57 499.07 398.05 505.74 399.01C512.41 399.97 518.86 401.2 525.08 402.67L523.74 433.79C519.14 432.17 514.29 430.8 509.18 429.68C504.07 428.57 499.07 428.01 494.17 428.01C487.2 428.01 480.84 429.08 475.05 431.23C469.28 433.38 464.34 436.46 460.27 440.46C456.19 444.46 453.01 449.32 450.71 455.02C448.41 460.73 447.26 467.06 447.26 474.03C447.26 488.55 451.34 499.85 459.49 507.92C467.64 516.01 478.9 520.04 493.28 520.04C504.1 520.04 514.4 518.04 524.18 514.04L525.52 544.49V544.5Z" fill="black"/>
<path d="M644.01 474.03C644.01 468.84 643.61 463.44 642.79 457.8C641.98 452.17 640.38 447.02 638.02 442.35C635.65 437.68 632.42 433.83 628.35 430.79C624.27 427.76 618.97 426.24 612.45 426.24C605.93 426.24 601.07 427.79 597 430.9C592.92 434.02 589.7 437.94 587.33 442.68C584.96 447.43 583.33 452.58 582.44 458.13C581.55 463.69 581.1 468.99 581.1 474.03C581.1 479.07 581.58 484.37 582.54 489.93C583.51 495.49 585.14 500.64 587.44 505.37C589.74 510.12 592.92 514.04 597 517.16C601.08 520.27 606.23 521.82 612.45 521.82C618.67 521.82 624.27 520.3 628.35 517.26C632.42 514.23 635.65 510.38 638.02 505.71C640.38 501.04 641.98 495.89 642.79 490.26C643.61 484.63 644.01 479.22 644.01 474.03ZM689.81 474.03C689.81 486.18 688.03 497 684.47 506.49C680.92 515.97 675.81 523.97 669.14 530.49C662.46 537.02 654.36 541.98 644.8 545.39C635.23 548.79 624.46 550.49 612.45 550.49C587.99 550.49 569.02 543.94 555.53 530.82C542.04 517.71 535.3 498.77 535.3 474.03C535.3 462.02 537.08 451.28 540.64 441.8C544.2 432.32 549.3 424.31 555.97 417.79C562.65 411.27 570.72 406.27 580.21 402.79C589.69 399.31 600.44 397.56 612.44 397.56C624.44 397.56 635.45 399.23 645 402.56C654.56 405.89 662.68 410.83 669.34 417.34C676.01 423.87 681.08 431.86 684.57 441.35C688.05 450.83 689.8 461.73 689.8 474.03" fill="black"/>
<path d="M812.74 474.03C812.74 468.84 812.33 463.44 811.52 457.8C810.71 452.17 809.11 447.02 806.74 442.35C804.37 437.68 801.15 433.83 797.08 430.79C793 427.76 787.7 426.24 781.18 426.24C774.66 426.24 769.8 427.79 765.73 430.9C761.65 434.02 758.43 437.94 756.06 442.68C753.69 447.43 752.06 452.58 751.17 458.13C750.28 463.69 749.83 468.99 749.83 474.03C749.83 479.07 750.31 484.37 751.27 489.93C752.24 495.49 753.87 500.64 756.17 505.37C758.47 510.12 761.65 514.04 765.73 517.16C769.81 520.27 774.96 521.82 781.18 521.82C787.4 521.82 793 520.3 797.08 517.26C801.15 514.23 804.37 510.38 806.74 505.71C809.11 501.04 810.71 495.89 811.52 490.26C812.33 484.63 812.74 479.22 812.74 474.03ZM858.53 474.03C858.53 486.18 856.75 497 853.19 506.49C849.64 515.97 844.52 523.97 837.85 530.49C831.18 537.02 823.07 541.98 813.51 545.39C803.95 548.79 793.17 550.49 781.17 550.49C756.71 550.49 737.74 543.94 724.25 530.82C710.76 517.71 704.02 498.77 704.02 474.03C704.02 462.02 705.8 451.28 709.35 441.8C712.91 432.32 718.02 424.31 724.69 417.79C731.36 411.27 739.44 406.27 748.93 402.79C758.41 399.31 769.16 397.56 781.16 397.56C793.16 397.56 804.17 399.23 813.72 402.56C823.28 405.89 831.4 410.83 838.06 417.34C844.73 423.87 849.8 431.86 853.29 441.35C856.77 450.83 858.52 461.73 858.52 474.03" fill="black"/>
<path d="M966.35 449.02C966.35 444.89 965.53 441.42 963.9 438.62C962.27 435.82 960.08 433.65 957.34 432.09C954.6 430.54 951.53 429.43 948.12 428.78C944.7 428.12 941.23 427.78 937.67 427.78H922.56V471.13H934.34C938.34 471.13 942.27 470.91 946.12 470.47C949.97 470.03 953.38 469.03 956.35 467.48C959.32 465.94 961.73 463.69 963.57 460.74C965.43 457.79 966.36 453.88 966.36 449.02M1010.14 448.68C1010.14 456.98 1008.88 464.24 1006.36 470.47C1003.84 476.69 1000.25 481.88 995.58 486.03C990.91 490.18 985.35 493.33 978.9 495.48C972.46 497.64 965.38 498.71 957.67 498.71H922.76V548.05H879.86V399.78H958.11C965.52 399.78 972.41 400.85 978.79 403C985.16 405.15 990.68 408.33 995.34 412.56C1000.01 416.78 1003.64 421.93 1006.24 428C1008.83 434.08 1010.13 440.98 1010.13 448.68" fill="black"/>
<path d="M355.58 192.42C319.88 216.92 293.27 240.9 279.46 261.28C277.75 264.33 276.31 268.05 277.12 272.27C278.11 277.78 283.87 280.15 283.87 280.15C284.19 277.98 285.06 275.9 285.99 274.23C299.52 254.28 325.4 230.87 359.99 206.89C358.28 202.17 356.83 197.34 355.57 192.43" fill="black"/>
<path d="M740.67 65.21C738.44 60.61 733.84 58.89 729.47 58.47C704.38 56.08 671.47 59.67 633.41 68.66C636.15 72.76 638.69 76.98 641.03 81.32C679.74 72.13 712.76 68.52 736.04 71.43C739.53 71.88 741.75 73.02 741.75 73.02C741.92 71.1 741.99 67.89 740.68 65.21" fill="black"/>
<path d="M540.51 248.81C502.24 266.23 465.11 279.73 430.88 289.6C452.9 301.66 478.15 308.57 505.04 308.57C579.28 308.57 641.26 256.12 656 186.28C622.26 208.25 582.51 229.7 540.51 248.81Z" fill="black"/>
<path d="M761.17 63.63C772.97 112.51 668.71 188.84 545.88 244.69C405.03 308.72 278.49 321.16 262.26 285.42C262.02 284.84 261.79 284.25 261.57 283.65C261.57 283.65 259.77 309.93 293.83 316.91C345.64 327.29 443.41 311.65 553.15 261.72C652.72 216.41 735.87 158.89 762.81 109.41C775.21 86.66 765.82 67.05 761.16 63.63" fill="black"/>
<path d="M501.3 175.56L526.57 175.51L568.17 175.47L556.94 92.26L501.3 175.56Z" fill="black"/>
<path d="M505.05 0C419.84 0 350.78 69.05 350.78 154.28C350.78 204.02 374.34 248.24 410.89 276.47C448.52 266.98 491.08 251.64 537.65 230.68C581.64 210.89 624.89 185.82 659.17 161.38C659.26 159.01 659.37 156.64 659.37 154.27C659.36 69.05 590.26 0 505.05 0ZM585.64 189.61C585.21 190.1 584.61 190.38 584.08 190.38L538.94 190.3L529.64 225.25C529.64 225.25 529.6 225.35 529.6 225.39L529.53 225.61L529.48 225.57C528.98 226.84 527.66 227.84 526.36 227.84H515.2C513.89 227.84 513.14 226.85 513.31 225.61C513.28 225.61 513.23 225.61 513.23 225.61L513.31 225.28L522.61 190.32L463.51 190.37L454.2 225.31C454.2 225.39 454.16 225.42 454.16 225.47L454.12 225.68C454.12 225.68 454.04 225.68 454.04 225.63C453.53 226.9 452.24 227.89 450.94 227.89L439.78 227.92C438.47 227.92 437.68 226.91 437.86 225.68H437.81L437.89 225.35L447.14 190.47L401.99 190.54C401.43 190.54 401.01 190.26 400.83 189.81C400.62 189.36 400.7 188.76 401.06 188.25L487.85 62.8C488.29 62.17 488.99 61.73 489.7 61.73C490.36 61.73 490.89 62.17 490.96 62.8L502.63 134.33L489.89 152.75L481.53 92.39L425.89 175.62L485.24 175.57L563.31 62.7C563.71 62.1 564.46 61.65 565.12 61.65C565.84 61.65 566.31 62.09 566.39 62.7L586.22 188.1C586.31 188.64 586.09 189.2 585.66 189.63" fill="black"/>
</g>
<defs>
<clipPath id="clip0_723_1072">
<rect width="1010.14" height="550.49" fill="white"/>
</clipPath>
</defs>
</svg>
