<svg width="1233" height="304" viewBox="0 0 1233 304" fill="none" xmlns="http://www.w3.org/2000/svg">
<g clip-path="url(#clip0_723_1264)">
<path d="M160.14 1.40982C136.4 -2.05018 111.94 0.879821 89.68 9.81982C103.25 23.6898 116.65 37.8298 128.78 52.9298C131.98 56.9098 135.68 61.2698 138.46 64.8998C148.91 78.7298 158.76 92.8098 167.76 107.58C170.51 112.09 173.53 114.26 176.16 113.96C180.17 113.49 183.4 107.22 183.47 94.7498C183.64 63.5998 174.05 29.4198 160.14 1.40982Z" fill="black"/>
<path d="M131.31 94.0198C105.88 71.2398 69.9 54.7998 36.65 46.9198C18.15 67.3698 5.51 92.7598 0 119.76C20.75 117.22 41.6 114.9 62.25 114.2C67.58 114.02 73.64 113.75 78.41 113.74C96.18 113.87 113.74 114.68 131.35 116.75C136.6 117.37 140.19 116.18 141.63 113.67C143.82 109.84 141.13 102.81 131.31 94.0098V94.0198Z" fill="black"/>
<path d="M119.69 143.39C118.08 139.06 110.91 136.78 97.78 139.55C63.42 146.8 27.78 167.38 1.47 190.69C8.07 217.31 21.61 242.1 40.88 261.66C50.64 243.87 60.92 226.25 72.18 209.64C75.17 205.23 78.52 200.17 81.35 196.26C92.17 181.6 103.43 167.5 115.71 154.1C119.43 150.04 120.74 146.24 119.68 143.39H119.69Z" fill="black"/>
<path d="M148.34 253.96C147.01 249.5 145.44 244.31 144.34 240.1C140.18 223.42 136.76 206.74 134.4 189.75C133.65 184.37 131.62 181.02 128.85 180.18C124.63 178.9 118.5 183.49 112.76 195.7C98.77 225.48 92.79 263.25 95.08 296.26C118.47 303.11 141.19 306.32 165.43 301.8C159.15 285.97 153.12 270.03 148.33 253.95L148.34 253.96Z" fill="black"/>
<path d="M222.69 220.23C219.02 218.78 214.74 217.24 211.34 215.79C197.44 210.16 184.18 203.06 171.31 195.47C167.09 192.98 163.48 192.66 161.21 194.38C157.75 197 157.37 204.58 162.47 215.75C173.84 240.63 194.84 265.02 217.98 280.18C236.16 267.9 251.4 251.51 262.53 232.63C249.04 229.21 235.6 225.33 222.69 220.24V220.23Z" fill="black"/>
<path d="M280.63 117.54C269.8 126.45 239.87 147.28 236.75 149.16C224.38 156.94 211.24 163.44 197.93 169.34C193.6 171.26 191.14 173.98 190.92 176.81C190.59 181.13 195.66 185.87 206.24 188.21C230.08 193.48 258.59 190.6 281.62 181.63C284.62 159.41 284.38 139.65 280.63 117.54Z" fill="black"/>
<path d="M213.65 21.0798C212.66 37.7298 211.46 54.4098 209.21 70.6998C208.6 75.1198 207.91 80.2598 207.21 84.3198C204.34 100.19 200.88 115.81 196.44 131.28C195.04 136.16 195.41 139.92 197.26 141.88C200.09 144.86 206.54 143.62 214.92 136.29C234.97 118.75 251.03 92.4898 259.89 67.1698C248.11 48.6298 232.31 32.7098 213.66 21.0798H213.65Z" fill="black"/>
<path d="M1158.91 47.9498L1130.14 251.12H1093.53V228.41C1075.4 245.74 1056.55 254.52 1037.46 254.52C1024.06 254.52 1014.15 250.65 1007.17 242.69C996.4 230.4 993.24 208.69 997.51 176.33C1005.94 115.66 1028.58 103.48 1062.39 103.48C1075.75 103.48 1091.06 104.68 1104.66 106.7L1112.98 47.9498H1158.91ZM1079.96 136.94C1054.46 136.94 1049.02 140.18 1043.98 177.42C1041.4 196.51 1040.64 208.41 1044.43 212.74C1046 214.53 1048.65 215.28 1052.68 215.1C1066.61 214.82 1077.68 207.47 1091.96 194.84L1100.04 136.94H1079.96ZM666.38 103.48C640.4 103.48 622.62 108.88 610.42 120.46C598.37 131.91 591.25 149.39 587.33 177.16C583.41 204.75 586.76 224.22 597.57 236.68C607.99 248.69 625.67 254.52 651.64 254.52C664.4 254.52 683.14 253.36 700.02 247.81L701.21 247.42L705.97 213.48L702.93 213.99C691.19 215.67 676.41 216.51 659.01 216.51C646.97 216.51 640.98 215.03 637.63 211.24C633.48 206.54 632.7 197.39 634.94 179.66C638.95 146.78 649.16 141.48 672.05 141.48C681.33 141.48 715.97 142.08 715.97 142.08L720.47 109.88C720.47 109.88 701.06 103.48 666.38 103.48ZM977.9 119.43C984.88 127.48 987.22 138.76 985.06 153.92C980.6 184.5 959.15 192.1 925.99 194.45L886.57 197.42C887.63 213.99 896.27 217.09 912.53 217.09C926.55 217.09 960.34 215.44 965.86 214.03L968.08 213.46L968.34 215.74C969.7 227.74 973.7 241 973.73 241.13L974.25 242.86L972.59 243.56C954.66 251.08 926.39 254.51 907.7 254.51C881.22 254.51 863.01 248.51 852.02 236.15C840.83 223.56 836.98 203.9 840.26 176.06C846.85 121.78 867.79 103.46 923.29 103.46C950.72 103.46 968.58 108.68 977.89 119.42M919.42 165.81C932.8 164.74 939.02 162.12 940.57 149.43C940.95 145 940.5 142.31 939.08 140.76C936.99 138.48 932.06 138.03 924.78 138.03C923.44 138.03 922 138.05 920.48 138.07C898.97 138.07 893.66 145.41 889.45 168.67L919.42 165.81ZM845.35 107.44H836.49C819.67 107.44 803.21 115.77 781.99 135.16V107.44H745.66L725.55 251.11H771.53L782.67 168.48C788.46 161.1 804.57 152.41 816.55 152.41H826.36L826.7 150.84C826.74 150.65 830.89 132.19 843.58 110.46L845.34 107.45L845.35 107.44ZM362.67 100.93C358.82 130.58 369.19 148.11 397.33 159.55L434.5 174.34C446.3 178.66 448.9 180.86 447.38 192.54C445.08 207.6 439.23 211.63 413.24 211.63H350.1L344.48 251.08H415.08C470.08 251.08 488.55 238.12 494.13 195.59C497.57 168.75 492.92 149.49 459.15 136.39L424.02 123.01C410.41 117.93 407.9 115.89 409.7 103.97C411.78 90.6898 416.68 87.8198 426.87 87.0998H502.22L507.84 47.6498H440.59C394.82 47.6498 368.85 56.1398 362.68 100.92M508.17 251.12H553.86L573.97 107.45H528.28L508.17 251.12ZM576.81 87.1198L582.33 47.6698H536.65L531.13 87.1198H576.82H576.81ZM1203.82 251.12L1223.93 107.45H1178.24L1158.13 251.12H1203.82ZM1226.78 87.1198L1232.3 47.6698H1186.62L1181.1 87.1198H1226.79H1226.78Z" fill="black"/>
</g>
<defs>
<clipPath id="clip0_723_1264">
<rect width="1232.3" height="303.91" fill="white"/>
</clipPath>
</defs>
</svg>
