<svg width="1628" height="407" viewBox="0 0 1628 407" fill="none" xmlns="http://www.w3.org/2000/svg">
<g clip-path="url(#clip0_723_1327)">
<path d="M367.15 249.44C365.91 247.43 366.58 245.52 368.68 243.71L392.64 224.81C394.93 223 396.84 223.09 398.27 225C404.29 232.83 412.59 236.74 422.14 236.74C431.69 236.74 434.65 233.49 435.32 230.15C436.08 226.9 436.85 223.18 418.52 217.26C404.87 212.87 383.58 202.27 389.59 174.3C393.79 154.54 409.74 133.82 444.11 133.82C463.3 133.82 478.39 141.65 488.32 152.25C489.85 153.97 489.56 155.88 487.37 157.88L464.84 178.41C462.64 180.42 460.73 180.51 459.02 178.89C454.44 174.5 447.09 169.63 438.11 169.63C431.81 169.63 429.52 172.21 428.75 175.74C428.08 179.18 432.95 180.9 444.89 185.77C468.38 195.13 480.41 206.68 475.54 229.4C470 255.37 446.9 273.13 415.49 273.13C394.68 273.13 377.78 264.92 367.18 249.45L367.15 249.44Z" fill="black"/>
<path d="M511.99 266.72C511.42 269.3 509.79 270.73 507.12 270.73H475.71C473.04 270.73 471.99 269.3 472.56 266.72L499.39 140.59C499.87 138.01 501.59 136.58 504.26 136.58H535.67C538.34 136.58 539.3 138.01 538.82 140.59L511.99 266.72Z" fill="black"/>
<path d="M560.49 266.72C559.92 269.3 558.2 270.73 555.62 270.73H525.35C522.68 270.73 521.63 269.3 522.2 266.72L549.03 140.59C549.6 138.01 551.23 136.58 553.9 136.58H584.36C586.46 136.58 587.7 137.25 588.56 139.25L615.58 203.6L629.04 140.59C629.61 138.01 631.33 136.58 633.91 136.58H664.27C666.85 136.58 667.99 138.01 667.42 140.59L640.59 266.72C640.02 269.3 638.3 270.73 635.72 270.73H609.08C606.98 270.73 605.64 269.87 604.88 268.06L574.9 198.65L560.48 266.73L560.49 266.72Z" fill="black"/>
<path d="M653.95 270.73C651.56 270.73 650.32 269.11 650.8 266.72L677.63 140.59C678.11 138.2 680.21 136.58 682.5 136.58H726.42C770.24 136.58 794.88 166.18 786.57 205.42C778.17 244.76 743.41 270.73 701.98 270.73H653.95ZM697.39 232.92H711.33C728.61 232.92 743.41 219.74 747.04 202.56C750.67 185.47 741.02 174.39 723.74 174.39H709.8L697.39 232.92Z" fill="black"/>
<path d="M789.14 218.99L805.85 140.6C806.33 138.02 808.05 136.59 810.62 136.59H842.13C844.8 136.59 845.76 138.02 845.28 140.6L829.81 213.16C826.66 227.96 832.39 237.03 843.65 237.03C854.91 237.03 864.85 227.96 868 213.16L883.47 140.6C883.95 138.02 885.76 136.59 888.34 136.59H919.85C922.43 136.59 923.48 138.02 923 140.6L906.29 218.99C899.7 250.21 873.16 273.7 835.83 273.7C798.5 273.7 782.55 250.21 789.14 218.99Z" fill="black"/>
<path d="M903.04 249.44C901.8 247.43 902.47 245.52 904.57 243.71L928.53 224.81C930.82 223 932.73 223.09 934.16 225C940.18 232.83 948.48 236.74 958.03 236.74C967.58 236.74 970.54 233.49 971.21 230.15C971.97 226.9 972.74 223.18 954.41 217.26C940.76 212.87 919.47 202.27 925.48 174.3C929.68 154.54 945.63 133.82 980 133.82C999.19 133.82 1014.28 141.65 1024.21 152.25C1025.74 153.97 1025.45 155.88 1023.26 157.88L1000.73 178.41C998.53 180.42 996.62 180.51 994.91 178.89C990.33 174.5 982.98 169.63 974 169.63C967.7 169.63 965.41 172.21 964.64 175.74C963.97 179.18 968.84 180.9 980.78 185.77C1004.27 195.13 1016.3 206.68 1011.43 229.4C1005.89 255.37 982.79 273.13 951.38 273.13C930.57 273.13 913.67 264.92 903.07 249.45L903.04 249.44Z" fill="black"/>
<path d="M1298.21 266.72C1297.64 269.3 1295.92 270.73 1293.34 270.73H1263.07C1260.4 270.73 1259.35 269.3 1259.92 266.72L1286.75 140.59C1287.32 138.01 1288.95 136.58 1291.62 136.58H1322.08C1324.18 136.58 1325.42 137.25 1326.28 139.25L1353.3 203.6L1366.76 140.59C1367.33 138.01 1369.05 136.58 1371.63 136.58H1401.99C1404.57 136.58 1405.71 138.01 1405.14 140.59L1378.31 266.72C1377.74 269.3 1376.02 270.73 1373.44 270.73H1346.8C1344.7 270.73 1343.36 269.87 1342.6 268.06L1312.62 198.65L1298.2 266.73L1298.21 266.72Z" fill="black"/>
<path d="M1420.89 266.91C1420.32 269.39 1418.69 270.73 1416.21 270.73H1397.97C1395.49 270.73 1394.44 269.39 1395.01 266.91L1421.84 140.4C1422.41 137.92 1424.04 136.58 1426.52 136.58H1474.74C1503.38 136.58 1517.7 154.91 1512.26 180.69C1506.44 207.9 1485.05 226.14 1455.83 226.14H1429.48L1420.89 266.91ZM1434.54 202.56H1458.89C1472.35 202.56 1483.43 193.87 1486.2 180.89C1488.87 168.38 1481.43 160.08 1468.06 160.08H1443.62L1434.55 202.57L1434.54 202.56Z" fill="black"/>
<path d="M1509.2 270.73C1506.72 270.73 1505.67 269.39 1506.24 266.91L1533.07 140.4C1533.64 137.92 1535.27 136.58 1537.75 136.58H1589.31C1616.9 136.58 1631.61 154.53 1625.97 181.07C1622.06 199.5 1610.69 211.81 1595.99 218.69L1609.07 266.24C1609.74 268.82 1608.21 270.73 1605.25 270.73H1586.15C1584.05 270.73 1582.71 269.78 1582.33 267.87L1571.64 225.38C1569.54 225.57 1567.34 225.67 1565.15 225.67H1540.8L1532.11 266.92C1531.54 269.4 1529.91 270.74 1527.43 270.74H1509.19L1509.2 270.73ZM1545.77 202.66H1572.89C1586.26 202.66 1597.05 193.78 1599.81 181.18C1602.58 167.72 1594.75 160.08 1582.15 160.08H1554.84L1545.77 202.66Z" fill="black"/>
<path d="M1020 203.02C1013.13 241.98 1038.14 273.09 1078.16 273.09C1094.13 273.09 1109.83 268.09 1122.99 259.43C1125.39 257.79 1125.85 255.77 1124.76 253.75L1110.63 229.7C1109.45 227.68 1107.56 227.49 1105.11 228.83C1099.23 232.2 1091.9 234.99 1084.88 234.99C1069.01 234.99 1057.12 221.1 1060.31 203.02C1063.5 184.93 1080.28 171.05 1096.16 171.05C1103.18 171.05 1109.52 173.84 1114.22 177.21C1116.2 178.56 1118.15 178.36 1120.05 176.34L1142.67 152.29C1144.47 150.27 1144.73 148.25 1142.9 146.61C1132.79 137.95 1118.85 132.95 1102.88 132.95C1062.86 132.95 1026.88 164.06 1020.01 203.02H1020Z" fill="black"/>
<path d="M1126.16 202.89C1133.03 163.93 1168.99 132.95 1209.01 132.95C1249.03 132.95 1273.97 163.93 1267.1 202.89C1260.25 241.76 1224.09 273.31 1184.26 273.31C1144.43 273.31 1119.31 241.76 1126.16 202.89ZM1226.77 202.98C1229.98 184.8 1218.07 171.04 1202.29 171.04C1186.51 171.04 1169.64 184.89 1166.45 202.98C1163.21 221.35 1175.2 235.21 1190.98 235.21C1206.76 235.21 1223.53 221.36 1226.77 202.98Z" fill="black"/>
<path d="M287.29 240.56L120.29 406.94V290.67L178.42 232.54V174.41H259.88C294.41 174.41 311.7 216.16 287.28 240.57L287.29 240.56Z" fill="black"/>
<path d="M11.43 166.38L178.43 0V116.27L120.3 174.4V232.53H38.83C4.29998 232.53 -12.99 190.78 11.43 166.37V166.38Z" fill="black"/>
</g>
<defs>
<clipPath id="clip0_723_1327">
<rect width="1627.16" height="406.94" fill="white"/>
</clipPath>
</defs>
</svg>
