<svg width="1240" height="433" viewBox="0 0 1240 433" fill="none" xmlns="http://www.w3.org/2000/svg">
<path fill-rule="evenodd" clip-rule="evenodd" d="M374.44 162.11C374.44 162.11 374.99 146.63 389.92 146.63H477.8V187.53H423.91C423.91 187.53 421.42 187.53 421.42 189.74V200.8C421.42 200.8 421.42 203.01 423.91 203.01H452.93V243.91H423.91C423.91 243.91 421.42 243.91 421.42 246.68V296.98H374.44V162.11Z" fill="black"/>
<path fill-rule="evenodd" clip-rule="evenodd" d="M672.34 240.59H643.32C640.83 240.59 640.83 242.8 640.83 242.8V253.85C640.83 256.06 643.32 256.06 643.32 256.06H697.21V296.96H609.33C594.41 296.96 593.86 281.48 593.86 281.48V162.1C593.86 162.1 594.41 146.62 609.33 146.62H697.21V187.52H643.32C643.32 187.52 640.83 187.52 640.83 189.73V200.79C640.83 200.79 640.83 203 643.32 203H672.34V240.59Z" fill="black"/>
<path fill-rule="evenodd" clip-rule="evenodd" d="M809.69 243.91H755.52C755.52 243.91 753.02 243.91 753.02 246.68V296.98H706.05V162.12C706.05 162.12 706.6 146.64 721.52 146.64H825.43V228.16C825.43 244.19 809.68 243.91 809.68 243.91H809.69ZM784.54 200.94V189.74C784.54 187.6 782.26 187.53 782.26 187.53H755.52C755.52 187.53 753.02 187.53 753.02 189.74V200.8C753.02 200.8 753.02 203.01 755.52 203.01H782.26C784.54 203.01 784.54 200.94 784.54 200.94Z" fill="black"/>
<path fill-rule="evenodd" clip-rule="evenodd" d="M504.42 283.32C449.43 236.34 546.18 175.51 546.18 175.51C550.74 173.99 551.29 178.14 551.29 178.14C551.29 178.14 554.33 173.44 558.48 178.14C558.48 178.14 585.46 301.12 516.48 284.96C515.96 291.25 516.04 296.69 516.05 296.97H584.47L568.17 146.63H541.36C536.39 146.63 529.34 156.79 529.34 156.79L428.05 296.97H503.34C504.05 283.58 504.39 283.29 504.43 283.32H504.42Z" fill="black"/>
<path fill-rule="evenodd" clip-rule="evenodd" d="M551.3 178.14C553.32 180.61 548.89 178.91 551.3 178.14Z" fill="black"/>
<path fill-rule="evenodd" clip-rule="evenodd" d="M503.34 296.97C503.34 296.97 503.34 297 503.34 297.02H516.05C516.05 297.02 516.05 296.98 516.05 296.97H503.34Z" fill="black"/>
<path fill-rule="evenodd" clip-rule="evenodd" d="M377.01 340.08H372.36V317.86H388.18V321.79H377.01V326.81H386.79V330.74H377.01V340.08Z" fill="black"/>
<path fill-rule="evenodd" clip-rule="evenodd" d="M406.38 321.79H394.59V326.47H405.42V330.4H394.59V336.15H406.91V340.08H390.04V317.86H406.38V321.79Z" fill="black"/>
<path fill-rule="evenodd" clip-rule="evenodd" d="M418.45 321.7C420.43 321.7 423.55 322.22 423.55 328.79C423.55 332.44 422.28 336.25 418.5 336.25H413.98V321.7H418.45ZM409.44 340.08H419.07C426.41 340.08 428.3 333.21 428.3 328.44C428.3 324.24 426.75 317.86 419.26 317.86H409.45V340.08H409.44Z" fill="black"/>
<path fill-rule="evenodd" clip-rule="evenodd" d="M446.9 321.79H435.1V326.47H445.94V330.4H435.1V336.15H447.42V340.08H430.55V317.86H446.9V321.79Z" fill="black"/>
<path fill-rule="evenodd" clip-rule="evenodd" d="M454.51 327.64V321.7H460.3C463.02 321.7 463.55 323.42 463.55 324.6C463.55 326.8 462.37 327.63 459.96 327.63H454.51V327.64ZM449.96 340.08H454.51V331.38H459.31C462.74 331.38 462.93 332.56 462.93 335.59C462.93 337.87 463.11 339.03 463.42 340.08H468.56V339.49C467.57 339.12 467.57 338.32 467.57 335.06C467.57 330.92 466.58 330.23 464.75 329.43C466.95 328.69 468.18 326.59 468.18 324.13C468.18 322.21 467.1 317.85 461.19 317.85H449.96V340.08Z" fill="black"/>
<path fill-rule="evenodd" clip-rule="evenodd" d="M479.86 322.87H479.92L482.67 331.66H477.01L479.86 322.87ZM475.77 335.5H483.97L485.4 340.08H490.44L482.61 317.86H477.26L469.34 340.08H474.23L475.78 335.5H475.77Z" fill="black"/>
<path fill-rule="evenodd" clip-rule="evenodd" d="M500.11 340.08L498.93 341.78C499.3 341.69 499.48 341.65 499.86 341.65C500.72 341.65 502.55 342.11 502.55 344.07C502.55 345.86 500.97 347.13 498.71 347.13C497.53 347.13 496.85 346.97 495.15 346.35L495.83 344.87C496.63 345.11 497.56 345.36 498.21 345.36C498.86 345.36 499.66 344.93 499.66 344.16C499.66 343.44 499.07 343.04 498.46 343.04C498.12 343.04 497.62 343.17 497.22 343.29L496.57 342.68L498.27 340.08H500.11ZM504.84 325.13C504.47 323.8 503.75 321.29 499.92 321.29C497.69 321.29 494.41 322.78 494.41 329.06C494.41 333.05 495.99 336.64 499.92 336.64C502.49 336.64 504.28 335.18 504.84 332.46H509.48C508.55 337.3 505.4 340.67 499.82 340.67C493.91 340.67 489.67 336.68 489.67 329.01C489.67 321.34 494.16 317.28 499.88 317.28C506.54 317.28 509.23 321.86 509.47 325.14H504.83L504.84 325.13Z" fill="black"/>
<path fill-rule="evenodd" clip-rule="evenodd" d="M518.98 322.87H519.04L521.8 331.66H516.14L518.99 322.87H518.98ZM522.7 311.51C522.58 312.04 522.26 312.74 521.25 312.74C520.82 312.74 520.38 312.62 519.33 312.23C518.28 311.82 517.81 311.64 517.1 311.64C515.71 311.64 514.84 312.28 514.25 313.08C513.69 313.89 513.48 314.82 513.35 315.44H515.33C515.39 315.1 515.7 314.11 516.79 314.11C517.32 314.11 518 314.41 518.99 314.73C519.55 314.91 520.66 315.22 521.34 315.22C523.91 315.22 524.56 312.43 524.72 311.5H522.71L522.7 311.51ZM514.89 335.5H523.09L524.52 340.08H529.57L521.74 317.86H516.39L508.46 340.08H513.35L514.9 335.5H514.89Z" fill="black"/>
<path fill-rule="evenodd" clip-rule="evenodd" d="M533.37 328.98C533.37 322.75 536.9 321.21 539.41 321.21C541.92 321.21 545.45 322.75 545.45 328.98C545.45 335.21 541.92 336.74 539.41 336.74C536.9 336.74 533.37 335.19 533.37 328.98ZM528.73 328.98C528.73 339.41 536.47 340.67 539.41 340.67C542.35 340.67 550.09 339.4 550.09 328.98C550.09 318.56 542.35 317.27 539.41 317.27C536.47 317.27 528.73 318.54 528.73 328.98Z" fill="black"/>
<path fill-rule="evenodd" clip-rule="evenodd" d="M564.48 321.7H568.94C570.92 321.7 574.04 322.22 574.04 328.79C574.04 332.44 572.77 336.25 568.99 336.25H564.48V321.7ZM559.93 340.08H569.56C576.89 340.08 578.78 333.21 578.78 328.44C578.78 324.24 577.23 317.86 569.74 317.86H559.93V340.08Z" fill="black"/>
<path fill-rule="evenodd" clip-rule="evenodd" d="M588.25 322.87H588.31L591.07 331.66H585.4L588.25 322.87ZM584.16 335.5H592.37L593.79 340.08H598.83L591 317.86H585.64L577.72 340.08H582.61L584.16 335.5Z" fill="black"/>
<path fill-rule="evenodd" clip-rule="evenodd" d="M616.72 322.87H616.78L619.54 331.66H613.87L616.72 322.87ZM620.84 335.5L622.26 340.08H627.3L619.47 317.86H614.11L606.19 340.08H611.08L612.62 335.5H620.84Z" fill="black"/>
<path fill-rule="evenodd" clip-rule="evenodd" d="M637.89 328.11H647.18V340.08H644.09L643.62 337.3C642.45 338.66 640.74 340.67 636.69 340.67C631.34 340.67 626.47 336.84 626.47 329.03C626.47 322.96 629.84 317.24 637.33 317.27C644.14 317.27 646.83 321.7 647.08 324.76H642.44C642.44 323.9 640.86 321.11 637.58 321.11C634.3 321.11 631.21 323.4 631.21 329.1C631.21 335.16 634.52 336.74 637.68 336.74C638.7 336.74 642.11 336.34 643.06 331.85H637.89V328.11Z" fill="black"/>
<path fill-rule="evenodd" clip-rule="evenodd" d="M654.86 327.64V321.7H660.64C663.36 321.7 663.89 323.42 663.89 324.6C663.89 326.8 662.72 327.63 660.3 327.63H654.86V327.64ZM650.3 340.08H654.85V331.38H659.64C663.08 331.38 663.27 332.56 663.27 335.59C663.27 337.87 663.46 339.03 663.76 340.08H668.9V339.49C667.91 339.12 667.91 338.32 667.91 335.06C667.91 330.92 666.92 330.23 665.09 329.43C667.28 328.69 668.53 326.59 668.53 324.13C668.53 322.21 667.44 317.85 661.53 317.85H650.3V340.08Z" fill="black"/>
<path fill-rule="evenodd" clip-rule="evenodd" d="M675.68 340.08H671.04V317.86H675.68V340.08Z" fill="black"/>
<path fill-rule="evenodd" clip-rule="evenodd" d="M692.95 325.13C692.58 323.8 691.87 321.29 688.03 321.29C685.8 321.29 682.52 322.78 682.52 329.06C682.52 333.05 684.1 336.64 688.03 336.64C690.6 336.64 692.39 335.18 692.95 332.46H697.59C696.66 337.3 693.51 340.67 687.93 340.67C682.02 340.67 677.78 336.68 677.78 329.01C677.78 321.34 682.27 317.28 687.99 317.28C694.65 317.28 697.34 321.86 697.59 325.14H692.95V325.13Z" fill="black"/>
<path fill-rule="evenodd" clip-rule="evenodd" d="M717.69 332.31C717.69 338.16 714.16 340.66 708.55 340.66C706.51 340.66 703.47 340.17 701.49 337.97C700.29 336.61 699.82 334.81 699.76 332.58V317.85H704.49V332.27C704.49 335.38 706.29 336.73 708.45 336.73C711.63 336.73 712.93 335.18 712.93 332.49V317.85H717.67V332.31H717.69Z" fill="black"/>
<path fill-rule="evenodd" clip-rule="evenodd" d="M725.64 336.05H736.69V340.08H720.99V317.86H725.64V336.05Z" fill="black"/>
<path fill-rule="evenodd" clip-rule="evenodd" d="M744.95 340.08H740.3V321.79H733.59V317.86H751.67V321.79H744.95V340.08Z" fill="black"/>
<path fill-rule="evenodd" clip-rule="evenodd" d="M770.98 332.31C770.98 338.16 767.45 340.66 761.85 340.66C759.8 340.66 756.77 340.17 754.79 337.97C753.59 336.61 753.12 334.81 753.05 332.58V317.85H757.79V332.27C757.79 335.38 759.59 336.73 761.76 336.73C764.94 336.73 766.25 335.18 766.25 332.49V317.85H770.99V332.31H770.98Z" fill="black"/>
<path fill-rule="evenodd" clip-rule="evenodd" d="M778.84 327.64V321.7H784.62C787.34 321.7 787.87 323.42 787.87 324.6C787.87 326.8 786.69 327.63 784.28 327.63H778.84V327.64ZM774.29 340.08H778.85V331.38H783.64C787.07 331.38 787.26 332.56 787.26 335.59C787.26 337.87 787.45 339.03 787.76 340.08H792.9V339.49C791.9 339.12 791.9 338.32 791.9 335.06C791.9 330.92 790.91 330.23 789.09 329.43C791.28 328.69 792.52 326.59 792.52 324.13C792.52 322.21 791.44 317.85 785.53 317.85H774.29V340.08Z" fill="black"/>
<path fill-rule="evenodd" clip-rule="evenodd" d="M804.19 322.87H804.25L807.01 331.66H801.34L804.19 322.87ZM808.31 335.5L809.73 340.08H814.77L806.94 317.86H801.58L793.66 340.08H798.55L800.1 335.5H808.31Z" fill="black"/>
<path fill-rule="evenodd" clip-rule="evenodd" d="M376.92 357.07H381.38C383.36 357.07 386.49 357.6 386.49 364.16C386.49 367.81 385.22 371.61 381.44 371.61H376.92V357.06V357.07ZM372.36 375.46H381.99C389.33 375.46 391.22 368.58 391.22 363.82C391.22 359.61 389.67 353.23 382.18 353.23H372.37V375.46H372.36Z" fill="black"/>
<path fill-rule="evenodd" clip-rule="evenodd" d="M397.13 364.35C397.13 358.12 400.66 356.58 403.16 356.58C405.66 356.58 409.2 358.12 409.2 364.35C409.2 370.58 405.67 372.12 403.16 372.12C400.65 372.12 397.13 370.57 397.13 364.35ZM392.49 364.35C392.49 374.77 400.22 376.05 403.17 376.05C406.12 376.05 413.85 374.77 413.85 364.35C413.85 353.93 406.11 352.65 403.17 352.65C400.23 352.65 392.49 353.91 392.49 364.35Z" fill="black"/>
<path fill-rule="evenodd" clip-rule="evenodd" d="M440.03 357.17H428.23V361.84H439.07V365.76H428.23V371.52H440.55V375.46H423.68V353.24H440.03V357.17Z" fill="black"/>
<path fill-rule="evenodd" clip-rule="evenodd" d="M446.4 368.61C446.43 369.86 447.05 372.2 451.11 372.2C453.3 372.2 455.75 371.68 455.75 369.32C455.75 367.59 454.08 367.13 451.73 366.56L449.35 366.01C445.76 365.18 442.29 364.37 442.29 359.48C442.29 357 443.62 352.64 450.83 352.64C457.64 352.64 459.47 357.1 459.5 359.81H455.04C454.92 358.83 454.54 356.47 450.49 356.47C448.73 356.47 446.62 357.12 446.62 359.14C446.62 360.86 448.04 361.24 448.97 361.45L454.39 362.79C457.42 363.53 460.21 364.76 460.21 368.76C460.21 375.45 453.4 376.04 451.45 376.04C443.34 376.04 441.95 371.36 441.95 368.6H446.41L446.4 368.61Z" fill="black"/>
<path fill-rule="evenodd" clip-rule="evenodd" d="M471.93 375.46H467.29V357.17H460.58V353.24H478.65V357.17H471.93V375.46Z" fill="black"/>
<path fill-rule="evenodd" clip-rule="evenodd" d="M485.8 358.24H485.87L488.63 367.03H482.96L485.8 358.24ZM481.71 370.87H489.91L491.33 375.46H496.38L488.55 353.23H483.2L475.28 375.46H480.17L481.72 370.87H481.71Z" fill="black"/>
<path fill-rule="evenodd" clip-rule="evenodd" d="M502.67 357.07H507.13C509.11 357.07 512.24 357.6 512.24 364.16C512.24 367.81 510.97 371.61 507.2 371.61H502.68V357.06L502.67 357.07ZM498.12 375.46H507.75C515.08 375.46 516.97 368.58 516.97 363.82C516.97 359.61 515.43 353.23 507.93 353.23H498.12V375.46Z" fill="black"/>
<path fill-rule="evenodd" clip-rule="evenodd" d="M522.88 364.35C522.88 358.12 526.41 356.58 528.92 356.58C531.43 356.58 534.96 358.12 534.96 364.35C534.96 370.58 531.43 372.12 528.92 372.12C526.41 372.12 522.88 370.57 522.88 364.35ZM518.24 364.35C518.24 374.77 525.97 376.05 528.91 376.05C531.85 376.05 539.59 374.77 539.59 364.35C539.59 353.93 531.85 352.65 528.91 352.65C525.97 352.65 518.24 353.91 518.24 364.35Z" fill="black"/>
<path fill-rule="evenodd" clip-rule="evenodd" d="M553.98 357.07H558.44C560.42 357.07 563.55 357.6 563.55 364.16C563.55 367.81 562.28 371.61 558.5 371.61H553.98V357.06V357.07ZM549.43 375.46H559.06C566.39 375.46 568.28 368.58 568.28 363.82C568.28 359.61 566.73 353.23 559.24 353.23H549.43V375.46Z" fill="black"/>
<path fill-rule="evenodd" clip-rule="evenodd" d="M574.19 364.35C574.19 358.12 577.72 356.58 580.23 356.58C582.74 356.58 586.27 358.12 586.27 364.35C586.27 370.58 582.74 372.12 580.23 372.12C577.72 372.12 574.19 370.57 574.19 364.35ZM569.56 364.35C569.56 374.77 577.3 376.05 580.24 376.05C583.18 376.05 590.92 374.77 590.92 364.35C590.92 353.93 583.18 352.65 580.24 352.65C577.3 352.65 569.56 353.91 569.56 364.35Z" fill="black"/>
<path fill-rule="evenodd" clip-rule="evenodd" d="M605.39 363.59V357.06H609.07C611.95 357.06 613.16 357.96 613.16 360.13C613.16 361.11 613.16 363.59 609.69 363.59H605.39ZM605.39 367.43H610.72C616.69 367.43 617.81 362.36 617.81 360.34C617.81 355.99 615.21 353.23 610.91 353.23H600.75V375.46H605.39V367.43Z" fill="black"/>
<path fill-rule="evenodd" clip-rule="evenodd" d="M625.79 358.24H625.85L628.61 367.03H622.95L625.8 358.24H625.79ZM621.7 370.87H629.91L631.33 375.46H636.37L628.54 353.23H623.18L615.26 375.46H620.15L621.7 370.87Z" fill="black"/>
<path fill-rule="evenodd" clip-rule="evenodd" d="M642.66 363.01V357.07H648.45C651.17 357.07 651.7 358.81 651.7 359.98C651.7 362.17 650.52 363.01 648.11 363.01H642.66ZM638.11 375.46H642.66V366.75H647.46C650.9 366.75 651.08 367.93 651.08 370.96C651.08 373.25 651.27 374.39 651.58 375.46H656.72V374.87C655.73 374.5 655.73 373.69 655.73 370.44C655.73 366.29 654.74 365.61 652.92 364.8C655.11 364.06 656.35 361.95 656.35 359.51C656.35 357.59 655.27 353.23 649.36 353.23H638.13V375.46H638.11Z" fill="black"/>
<path fill-rule="evenodd" clip-rule="evenodd" d="M668.01 358.24H668.07L670.83 367.03H665.16L668.01 358.24ZM672.12 370.87L673.55 375.46H678.59L670.76 353.23H665.4L657.48 375.46H662.37L663.91 370.87H672.12Z" fill="black"/>
<path fill-rule="evenodd" clip-rule="evenodd" d="M693.88 353.24H698.22V375.46H693.57L684.5 359.61H684.44V375.46H680.11V353.24H685L693.82 368.7H693.88V353.24Z" fill="black"/>
<path fill-rule="evenodd" clip-rule="evenodd" d="M710.22 358.24H710.29L713.04 367.03H707.37L710.22 358.24ZM716.13 346.49H711.37L708.46 351H711.58L716.13 346.49ZM714.34 370.87L715.77 375.46H720.81L712.98 353.23H707.62L699.7 375.46H704.59L706.13 370.87H714.34Z" fill="black"/>
<path fill-rule="evenodd" clip-rule="evenodd" d="M374.44 395.2V399.94H825.44V395.2H374.44Z" fill="black"/>
<path fill-rule="evenodd" clip-rule="evenodd" d="M562.07 227.16C562.07 232.61 561.81 238.11 561.22 243.45C545.78 243.8 529.81 251.09 523.16 254.51C524.54 248.9 526.28 242.62 528.44 235.82C530.15 234.93 545.74 226.99 562.05 224.67C562.05 225.5 562.07 226.32 562.07 227.16ZM522.18 258.61C525.74 256.65 543.86 247.18 560.83 246.62C560.48 249.12 560.05 251.57 559.52 253.94C543.75 254.15 527.4 261.81 520.85 265.24C521.25 263.12 521.69 260.91 522.19 258.6L522.18 258.61ZM541.05 202.88L541.17 202.64C541.17 202.64 545.28 199.86 559.9 196.33C560.55 201.24 561.16 206.89 561.57 212.92C548.54 214.64 538.31 218.8 533.55 221.04C535.75 215.14 538.19 209.3 541.05 202.88ZM532.07 225.08C532.19 225.01 544.69 218.39 561.76 216.08C561.86 217.86 561.93 219.67 561.99 221.49C548.36 223.36 535.49 228.91 529.81 231.62C530.53 229.48 531.28 227.3 532.07 225.08ZM552.62 179.02L552.95 178.61C553.33 178.19 553.96 177.65 554.66 177.63C556.09 177.6 556.63 178 557.04 178.95C557.35 180.46 558.4 185.74 559.47 193.18C551.16 195.17 546.05 196.94 543.06 198.19C545.92 191.98 549.08 185.58 552.62 179.02ZM546.82 176.99C547.48 176.78 548.33 176.62 548.9 176.97C549.21 177.16 549.41 177.47 549.54 177.76C547.83 179.72 542.66 185.86 536.33 195.45L531.78 187.93C539.82 181.53 546.02 177.51 546.83 176.99H546.82ZM532.27 201.8L526.48 192.28C527.43 191.46 528.37 190.69 529.29 189.93L534.41 198.39C533.71 199.49 532.99 200.62 532.27 201.8ZM524.05 194.37L530.43 204.85C527.98 209.01 525.45 213.6 522.97 218.56L513.95 203.91C517.31 200.47 520.73 197.28 524.05 194.36V194.37ZM509.42 252.59L495.18 228.74C499.37 220.7 505.32 213.09 511.7 206.28L521.32 221.92C516.96 231.02 512.8 241.31 509.41 252.6L509.42 252.59ZM489.1 250.86C489.1 249.98 489.13 249.09 489.2 248.19C489.6 242.77 491.16 237.38 493.53 232.13L508.22 256.74C507.53 259.25 506.87 261.79 506.26 264.4C504.54 271.49 503.66 276.91 503.23 280.05C493.89 271.28 489.11 261.49 489.11 250.86H489.1ZM517.67 296.96L517.62 294.95C517.62 294.83 517.56 291.99 517.94 286.9C531.59 289.69 542.51 287.19 550.4 279.44C576.37 253.95 560.7 180.9 560.02 177.8L559.74 177.05L559.36 176.41C557.71 174.54 556.25 174.34 554.42 174.48C553.37 174.56 552.5 174.95 551.81 175.43C551.5 175.02 551.1 174.61 550.58 174.29C549.25 173.47 547.61 173.37 545.68 174.01L545.5 174.07L545.34 174.17C543.03 175.62 488.8 210.13 486.04 247.95C485.06 261.29 490.71 273.4 502.78 283.96C502.34 287.54 501.98 291.18 501.74 294.89L501.64 296.95L504.91 296.98L505.06 293.41C505.93 281.28 508.02 269.82 510.85 259.19C515.51 242.29 524.47 218.45 541.54 193.72C529.87 217.98 523.21 239.55 519.43 256.48C515.32 273.92 514.61 284.59 514.6 284.81C514.6 284.81 514.18 292.57 514.16 293.74L513.99 296.98L517.66 296.95L517.67 296.96ZM548.19 277.19C541.03 284.21 530.93 286.34 518.21 283.67C518.58 279.76 519.18 274.9 520.13 269.22C523.71 267.23 541.78 257.64 558.74 257.12C556.59 265.17 553.25 272.21 548.19 277.18V277.19Z" fill="black"/>
<path fill-rule="evenodd" clip-rule="evenodd" d="M16.12 217.61C59.86 217.61 95.45 253.19 95.45 296.92H104.57C104.57 248.15 64.89 208.48 16.13 208.48V217.6L16.12 217.61Z" fill="black"/>
<path fill-rule="evenodd" clip-rule="evenodd" d="M15.91 199.34C69.41 199.72 112.71 243.35 112.71 296.93H121.84C121.84 238.39 74.35 190.7 15.91 190.22V199.34Z" fill="black"/>
<path fill-rule="evenodd" clip-rule="evenodd" d="M15.8 180.01C79.35 181.09 130.71 233.12 130.71 296.93H139.84C139.84 228.09 84.39 171.97 15.8 170.89V180.01Z" fill="black"/>
<path fill-rule="evenodd" clip-rule="evenodd" d="M15.82 162.03C89.88 162.41 150.01 222.79 150.01 296.94H159.14C159.14 217.75 94.9 153.28 15.81 152.91V162.03H15.82Z" fill="black"/>
<path fill-rule="evenodd" clip-rule="evenodd" d="M16.12 144.72C100.04 144.72 168.31 213 168.31 296.94H177.44C177.44 207.97 105.07 135.6 16.12 135.6V144.73V144.72Z" fill="black"/>
<path fill-rule="evenodd" clip-rule="evenodd" d="M168.3 296.92H177.42C177.42 253.19 213.01 217.61 256.75 217.61V208.49C207.98 208.49 168.3 248.16 168.3 296.93V296.92Z" fill="black"/>
<path fill-rule="evenodd" clip-rule="evenodd" d="M150.03 296.92H159.15C159.15 243.11 202.93 199.33 256.75 199.33V190.21C197.91 190.21 150.03 238.08 150.03 296.92Z" fill="black"/>
<path fill-rule="evenodd" clip-rule="evenodd" d="M130.7 296.93H139.83C139.83 232.45 192.28 180 256.76 180V170.88C187.25 170.88 130.71 227.43 130.71 296.94L130.7 296.93Z" fill="black"/>
<path fill-rule="evenodd" clip-rule="evenodd" d="M112.73 296.94H121.85C121.85 222.55 182.36 162.03 256.75 162.03V152.91C177.34 152.91 112.73 217.53 112.73 296.94Z" fill="black"/>
<path fill-rule="evenodd" clip-rule="evenodd" d="M95.43 296.94H104.55C104.55 213 172.83 144.72 256.75 144.72V135.59C167.79 135.59 95.42 207.97 95.42 296.93L95.43 296.94Z" fill="black"/>
<path fill-rule="evenodd" clip-rule="evenodd" d="M47.96 329.79H46.6C45.76 323.06 39.73 316.04 32.56 316.04C28.4 316.04 24.17 318.08 24.17 322.69C24.17 332.88 51.2 333.34 51.2 350.03C51.2 359.46 42.97 365.43 34.06 365.43C30.13 365.43 27.65 364.67 24.16 363.16C23.41 362.86 22.2 362.48 21.37 362.48C19.64 362.48 18.13 363.91 17.6 365.43H16.25V346.55H17.6C18.73 354.62 25.08 362.86 33.76 362.86C38.06 362.86 42.82 360.29 42.82 355.53C42.82 343.98 16.17 344.43 16.17 327.52C16.17 319.06 23.42 313.17 31.5 313.17C35.13 313.17 37.46 313.84 40.64 315.43C41.69 315.96 42.83 316.56 44.03 316.56C46.07 316.56 46.21 314.74 46.6 313.17H47.96V329.79Z" fill="black"/>
<path fill-rule="evenodd" clip-rule="evenodd" d="M72.07 337.56C80.76 337.56 81.5 332.58 82.71 325.71H84.07V352.14H82.71C81.5 345.26 80.75 340.29 72.07 340.29V353.72C72.07 360.07 72.07 361.43 77.28 361.43C84.36 361.43 93.28 361.43 97.06 348.45H98.42L96.16 364.3H52.97V362.94C60.07 362.94 60.07 360.98 60.07 354.86V323.76C60.07 317.64 60.07 315.67 52.97 315.67V314.32H94.8V329.11H93.45C91.26 317.94 86.12 317.18 76.23 317.18H72.08V337.57L72.07 337.56Z" fill="black"/>
<path fill-rule="evenodd" clip-rule="evenodd" d="M142.09 344.96V321.85C142.09 317.7 140.05 315.65 134.99 315.65V314.3H151.97V315.65C146.91 315.65 144.87 317.7 144.87 321.85V365.42H143.67L109.99 323.96H109.84V356.74C109.84 360.89 111.87 362.93 116.94 362.93V364.29H99.95V362.93C105.01 362.93 107.04 360.89 107.04 356.74V320.27C104.62 317.17 103.41 315.66 99.79 315.66V314.31H117.45L141.92 344.96H142.09Z" fill="black"/>
<path fill-rule="evenodd" clip-rule="evenodd" d="M176.72 347.3H161.63L169.25 330.16L176.71 347.3H176.72ZM177.86 350.02L181.18 357.57C181.64 358.7 181.94 359.23 181.94 360.51C181.94 362.93 178.17 362.93 176.06 362.93V364.29H200.29V362.93C196.06 362.93 194.25 358.25 192.82 355L174.48 313.25H173.72L156.27 352.36C154.46 356.36 152.27 362.55 147.13 362.93V364.29H163.82V362.93C160.05 362.7 157.18 362.4 157.18 358.78C157.18 357.34 157.85 355.83 158.61 354.03L160.35 350.03H177.86V350.02Z" fill="black"/>
<path fill-rule="evenodd" clip-rule="evenodd" d="M221.2 317.17H226.03C232.98 317.17 236.45 320.5 236.45 328.42C236.45 334.54 233.74 338.92 224.83 338.92H221.21V317.17H221.2ZM221.2 341.49H224.6L240.68 364.29H256.38V362.93C253.45 362.93 252.39 361.42 250.42 358.63L237.51 340.66C243.71 339.44 248.84 334.84 248.84 328.35C248.84 318.68 241.43 314.31 230.11 314.31H202.48V315.66C209.58 315.66 209.58 317.63 209.58 323.75V354.85C209.58 360.97 209.58 362.93 202.48 362.93V364.29H228.3V362.93C221.21 362.93 221.21 360.97 221.21 354.85V341.49H221.2Z" fill="black"/>
<path fill-rule="evenodd" clip-rule="evenodd" d="M0 116.83V389.37H272.56V116.83H0ZM266.37 123.02V383.19H6.19V123.02H266.37Z" fill="black"/>
<path fill-rule="evenodd" clip-rule="evenodd" d="M54.85 401.54H55.74C59.96 401.54 61.79 403.98 61.79 408.06C61.79 412.14 60.29 415 55.83 415H54.84V401.53L54.85 401.54ZM54.85 416.79H56.63C66.21 416.79 69.49 412.61 69.49 408.15C69.49 402.56 64.53 399.75 57.86 399.75H43.22V400.6C47.62 400.6 47.62 401.81 47.62 405.62V424.95C47.62 428.75 47.62 429.97 43.22 429.97V430.81H59.27V429.97C54.85 429.97 54.85 428.75 54.85 424.95V416.79Z" fill="black"/>
<path fill-rule="evenodd" clip-rule="evenodd" d="M81.94 420.26H72.56L77.29 409.61L81.94 420.26ZM82.64 421.95L84.7 426.64C84.99 427.35 85.16 427.67 85.16 428.47C85.16 429.97 82.81 429.97 81.49 429.97V430.81H96.57V429.97C93.94 429.97 92.82 427.06 91.92 425.05L80.53 399.1H80.05L69.22 423.41C68.09 425.9 66.73 429.75 63.55 429.98V430.82H73.92V429.98C71.57 429.84 69.79 429.66 69.79 427.4C69.79 426.51 70.21 425.56 70.68 424.45L71.76 421.96H82.66L82.64 421.95Z" fill="black"/>
<path fill-rule="evenodd" clip-rule="evenodd" d="M109.56 401.54H112.58C116.89 401.54 119.05 403.61 119.05 408.53C119.05 412.34 117.36 415.05 111.82 415.05H109.57V401.54H109.56ZM109.56 416.65H111.67L121.68 430.82H131.44V429.98C129.61 429.98 128.95 429.04 127.73 427.31L119.7 416.14C123.55 415.39 126.74 412.53 126.74 408.49C126.74 402.48 122.14 399.76 115.11 399.76H97.94V400.61C102.35 400.61 102.35 401.82 102.35 405.63V424.96C102.35 428.76 102.35 429.98 97.94 429.98V430.82H113.98V429.98C109.56 429.98 109.56 428.76 109.56 424.96V416.65Z" fill="black"/>
<path fill-rule="evenodd" clip-rule="evenodd" d="M150.78 420.26H141.39L146.13 409.61L150.77 420.26H150.78ZM151.48 421.95L153.55 426.64C153.83 427.35 154.02 427.67 154.02 428.47C154.02 429.97 151.67 429.97 150.35 429.97V430.81H165.41V429.97C162.79 429.97 161.66 427.06 160.77 425.05L149.37 399.1H148.91L138.07 423.41C136.94 425.9 135.58 429.75 132.38 429.98V430.82H142.75V429.98C140.41 429.84 138.62 429.66 138.62 427.4C138.62 426.51 139.04 425.56 139.51 424.45L140.58 421.96H151.47L151.48 421.95Z" fill="black"/>
<path fill-rule="evenodd" clip-rule="evenodd" d="M192.73 418.8H192.82V404.45C192.82 401.87 191.55 400.6 188.4 400.6V399.75H198.97V400.6C195.82 400.6 194.55 401.87 194.55 404.45V431.52H193.8L172.88 405.76H172.77V426.12C172.77 428.7 174.04 429.96 177.19 429.96V430.8H166.64V429.96C169.77 429.96 171.05 428.69 171.05 426.12V403.45C169.54 401.53 168.8 400.59 166.55 400.59V399.74H177.53L192.73 418.79V418.8Z" fill="black"/>
<path fill-rule="evenodd" clip-rule="evenodd" d="M214.7 420.26H205.3L210.05 409.61L214.7 420.26ZM215.39 421.95L217.46 426.64C217.74 427.35 217.93 427.67 217.93 428.47C217.93 429.97 215.58 429.97 214.27 429.97V430.81H229.33V429.97C226.71 429.97 225.59 427.06 224.69 425.05L213.28 399.1H212.81L201.98 423.41C200.85 425.9 199.5 429.75 196.3 429.98V430.82H206.67V429.98C204.33 429.84 202.54 429.66 202.54 427.4C202.54 426.51 202.98 425.56 203.44 424.45L204.52 421.96H215.39V421.95ZM219.81 389.29H212.91L210.23 397.22H212.2L219.81 389.29Z" fill="black"/>
<path fill-rule="evenodd" clip-rule="evenodd" d="M52.67 15.45C49.4 13.91 44.94 12.54 38.67 12.54C31.94 12.54 26.49 13.54 26.49 18.63C26.49 27.63 51.13 24.26 51.13 43.54C51.13 61.09 34.86 65.63 20.13 65.63C13.59 65.63 6.04 64.09 0.49 62.36L4.49 49.45C7.85 51.63 14.58 53.08 20.13 53.08C25.68 53.08 33.68 52.08 33.68 45.54C33.68 35.36 9.04 39.18 9.04 21.27C9.03 4.91 23.4 0 37.31 0C45.13 0 52.5 0.82 56.77 2.82L52.68 15.46L52.67 15.45Z" fill="black"/>
<path fill-rule="evenodd" clip-rule="evenodd" d="M70.49 1.09H87.59L74.4 64.55H57.31L70.49 1.09Z" fill="black"/>
<path fill-rule="evenodd" clip-rule="evenodd" d="M138.5 15.45C135.23 13.91 130.77 12.54 124.5 12.54C117.77 12.54 112.32 13.54 112.32 18.63C112.32 27.63 136.96 24.26 136.96 43.54C136.96 61.09 120.69 65.63 105.96 65.63C99.42 65.63 91.87 64.09 86.32 62.36L90.32 49.45C93.69 51.63 100.41 53.08 105.96 53.08C111.51 53.08 119.51 52.08 119.51 45.54C119.51 35.36 94.87 39.18 94.87 21.27C94.87 4.9 109.24 0 123.15 0C130.97 0 138.33 0.82 142.61 2.82L138.52 15.46L138.5 15.45Z" fill="black"/>
<path fill-rule="evenodd" clip-rule="evenodd" d="M164.04 13.64H148.22L150.95 1.09H199.77L197.04 13.64H181.23L170.41 64.55H153.23L164.04 13.64Z" fill="black"/>
<path fill-rule="evenodd" clip-rule="evenodd" d="M206.59 1.09H251.23L248.78 13.09H220.86L217.95 26.18H244.41L241.78 38.18H215.41L212.32 52.55H241.32L238.87 64.55H192.95L206.59 1.09Z" fill="black"/>
<path fill-rule="evenodd" clip-rule="evenodd" d="M261.5 1.09H288.05L289.05 43.73H289.23L309.14 1.09H336.24L322.78 64.55H306.24L317.78 12.55H317.6L292.69 64.55H276.69L274.32 12.55H274.14L263.14 64.55H247.68L261.5 1.09Z" fill="black"/>
<path fill-rule="evenodd" clip-rule="evenodd" d="M361.79 39L375.25 14.18H375.43L378.16 39H361.79ZM329.23 64.55H347.6L355.14 51H379.78L381.51 64.55H398.6L388.24 1.09H366.97L329.24 64.55H329.23Z" fill="black"/>
<path fill-rule="evenodd" clip-rule="evenodd" d="M445.42 1.09H487.88L485.52 13.09H459.7L456.51 27H481.43L478.97 39H454.42L449.06 64.55H431.97L445.42 1.09Z" fill="black"/>
<path fill-rule="evenodd" clip-rule="evenodd" d="M522.25 39H505.89L519.34 14.18H519.52L522.25 39ZM473.34 64.55H491.71L499.25 51H523.89L525.62 64.55H542.71L532.34 1.09H511.07L473.34 64.55Z" fill="black"/>
<path fill-rule="evenodd" clip-rule="evenodd" d="M562.8 1.09H607.44L604.99 13.09H577.07L574.17 26.18H600.62L597.99 38.18H571.62L568.53 52.55H597.53L595.08 64.55H549.16L562.8 1.09Z" fill="black"/>
<path fill-rule="evenodd" clip-rule="evenodd" d="M631.44 13.09H636.44C640.99 13.09 645.17 14.36 645.17 20.45C645.17 28 639.07 30.36 632.35 30.36H627.8L631.43 13.08L631.44 13.09ZM603.62 64.55H620.53L625.26 42.36H633.9C649.17 42.36 662.09 34.36 662.09 18.54C662.09 2.72 648.09 1.08 634.18 1.08H617.27L603.64 64.54L603.62 64.55Z" fill="black"/>
<path fill-rule="evenodd" clip-rule="evenodd" d="M1231.72 258.03L1230.8 249.76L1229.42 241.96L1227.59 234.61L1225.75 227.26L1220.24 212.57L1213.81 198.8L1210.14 191.91L1206.01 185.48L1201.41 179.51L1196.82 173.54L1191.77 167.58L1186.72 162.07L1175.69 151.97L1169.73 147.37L1163.76 142.78L1157.33 138.65L1150.9 134.98L1144.02 131.31L1137.13 128.09L1130.24 125.34L1122.89 123.04L1115.54 120.75L1107.74 118.91L1100.39 117.54L1092.58 116.62L1084.32 116.16L1076.51 115.7L1068.25 116.16L1060.44 116.62L1052.63 117.54L1044.83 118.91L1037.47 120.75L1030.12 123.04L1022.78 125.34L1015.89 128.09L1009 131.31L1002.12 134.98L995.69 138.65L989.73 142.78L983.76 147.37L977.79 151.97L971.82 157.02L961.26 167.58L956.66 173.54L951.61 179.51L947.48 185.48L943.35 191.91L939.68 198.8L936 205.69L932.78 212.57L930.03 219.92L925.43 234.61L924.05 241.96L922.67 249.76L921.3 258.03L920.84 265.84V281.91L921.3 290.17L922.67 297.99L925.43 313.6L930.03 328.3L932.78 335.65L936 342.53L939.68 349.43L943.35 355.85L951.61 368.71L956.66 374.68L961.26 380.19L966.77 385.7L971.82 391.22L977.79 395.81L983.76 400.86L989.73 404.99L995.69 409.13L1002.12 413.26L1015.89 419.7L1022.78 422.45L1030.12 425.2L1044.83 428.88L1052.63 430.26L1060.44 431.63L1068.25 432.09H1084.32L1092.58 431.63L1100.39 430.26L1107.74 428.88L1115.54 427.04L1122.89 425.2L1130.24 422.45L1137.13 419.7L1150.9 413.26L1157.33 409.13L1163.76 404.99L1169.73 400.86L1175.69 395.81L1181.21 391.22L1186.72 385.7L1196.82 374.68L1201.41 368.71L1206.01 362.28L1210.14 355.85L1213.81 349.43L1220.24 335.65L1223 328.3L1225.75 320.95L1227.59 313.6L1229.42 305.79L1230.8 297.99L1231.72 290.17L1232.63 281.91V265.84L1231.72 258.03ZM1225.75 281.91L1225.3 289.25L1224.38 297.06L1223 304.4L1221.17 311.75L1219.32 319.1L1217.03 325.99L1214.28 332.88L1211.06 339.77L1207.84 346.19L1204.16 352.63L1200.49 358.6L1196.35 364.56L1191.76 370.54L1187.17 376.05L1182.11 381.1L1177.07 386.15L1171.56 390.75L1165.59 395.34L1160.08 399.47L1153.66 403.6L1147.69 407.28L1141.26 410.49L1134.37 413.71L1127.94 416.47L1120.6 418.76L1113.71 420.61L1106.37 422.44L1099.02 423.81L1091.67 424.73L1084.32 425.19L1076.51 425.65L1068.7 425.19L1061.35 424.73L1053.54 423.81L1046.2 422.44L1039.31 420.61L1031.96 418.76L1025.07 416.47L1018.18 413.71L1011.75 410.49L1005.32 407.28L998.89 403.6L992.92 399.47L987.41 395.34L981.9 390.75L976.39 386.15L966.29 376.05L961.7 370.54L957.11 364.56L952.97 358.6L948.85 352.63L945.63 346.19L941.96 339.77L939.21 332.88L936.45 325.99L934.16 319.1L931.86 311.75L929.1 297.06L928.18 289.25L927.72 281.91L927.26 274.1L928.18 258.48L929.1 251.14L930.48 243.33L931.86 235.99L934.16 229.1L936.45 221.75L939.21 214.86L941.96 208.43L945.63 202L948.85 195.58L952.97 189.15L957.11 183.18L966.29 172.16L976.39 162.06L981.9 157.01L987.41 152.42L992.92 148.29L998.89 144.62L1011.75 137.28L1018.18 134.52L1025.07 131.77L1031.96 129.47L1039.31 127.18L1046.2 125.35L1053.54 123.97L1061.35 123.05L1068.7 122.6H1084.31L1091.66 123.05L1099.01 123.97L1106.36 125.35L1113.7 127.18L1120.59 129.47L1127.93 131.77L1134.36 134.52L1141.25 137.28L1147.68 140.95L1153.65 144.62L1160.07 148.29L1165.58 152.42L1171.55 157.01L1177.06 162.06L1182.1 167.11L1187.16 172.16L1196.34 183.18L1200.48 189.15L1204.15 195.58L1207.83 202L1214.27 214.86L1217.02 221.75L1219.31 229.1L1221.16 235.99L1222.99 243.33L1224.37 251.14L1225.29 258.48L1225.74 266.3L1226.2 274.1L1225.74 281.91H1225.75Z" fill="black"/>
<path fill-rule="evenodd" clip-rule="evenodd" d="M963.56 224.05L966.77 218.09C968.61 219 970.44 219.46 972.28 219C973.66 218.55 975.03 217.62 976.42 215.79C977.79 213.96 978.26 212.12 978.26 210.74C978.26 208.91 977.34 207.99 976.42 207.07C975.95 206.61 975.04 206.61 974.58 206.61C973.66 206.61 972.74 207.07 971.82 207.54C970.9 208.46 969.53 209.37 967.23 211.67C964.47 213.97 962.18 215.35 959.88 215.81C957.58 216.73 954.83 216.27 952.99 214.44C951.16 213.52 950.25 211.68 949.78 210.31C948.87 208.47 948.87 206.63 949.32 204.34C949.78 202.5 950.7 200.21 952.54 197.91C954.83 194.24 957.59 192.4 960.35 191.48C963.1 191.02 965.86 191.48 968.15 193.32L964.48 199.28C963.11 198.36 961.72 198.36 960.35 198.82C959.42 198.82 958.05 199.74 957.13 201.58C955.75 203.41 955.3 204.79 955.3 206.17C955.3 207.09 955.75 208.01 956.22 208.46C956.68 208.92 957.59 209.38 958.52 208.92C959.44 208.46 961.28 207.54 964.03 204.78C966.78 202.48 968.62 201.11 970.46 200.19C971.84 199.27 973.68 199.27 975.52 199.27C976.89 199.27 978.73 200.19 980.57 201.57C981.95 202.48 983.33 204.32 983.79 206.16C984.71 208 984.71 210.29 984.25 212.58C983.79 214.42 982.87 216.71 981.03 219.47C978.28 223.15 975.53 225.44 972.77 225.9C970.02 226.82 966.8 225.9 963.59 224.06L963.56 224.05Z" fill="black"/>
<path fill-rule="evenodd" clip-rule="evenodd" d="M992.49 203.39L970.91 176.3L975.95 171.71L997.54 198.34L992.49 203.39Z" fill="black"/>
<path fill-rule="evenodd" clip-rule="evenodd" d="M1002.59 193.29L985.6 162.52L990.65 158.85L1014.07 171.71L1002.59 151.5L1008.1 147.83L1025.55 178.6L1019.58 182.26L996.62 169.87L1007.64 189.61L1002.59 193.29Z" fill="black"/>
<path fill-rule="evenodd" clip-rule="evenodd" d="M1055.39 150.59C1054.47 147.37 1053.55 144.62 1052.18 142.78C1050.8 140.94 1049.42 139.1 1047.59 138.19C1045.75 136.81 1043.92 136.36 1042.08 136.36H1040.24C1038.86 136.36 1037.48 136.82 1035.65 137.28L1023.25 140.49L1031.97 175.39L1040.23 172.64L1044.36 171.72C1047.12 170.8 1048.96 170.34 1050.33 169.42C1052.17 168.05 1053.08 166.67 1054.01 165.29C1055.38 163.45 1055.84 161.16 1056.3 158.41C1056.3 156.11 1055.84 153.35 1055.38 150.6L1055.39 150.59ZM1048.51 162.52C1048.05 163.44 1047.13 163.9 1046.22 164.82C1045.3 165.28 1043.92 165.74 1042.08 166.2L1040.24 166.66L1037.02 167.58L1031.51 144.62L1034.26 143.7C1037.02 143.24 1038.86 142.78 1039.77 142.78H1040.23C1041.61 142.78 1042.52 142.78 1043.44 143.24C1044.36 144.15 1045.28 145.07 1046.2 146.45C1047.12 147.37 1047.57 149.67 1048.49 151.96C1048.95 154.72 1049.41 157.01 1049.41 158.85C1049.41 160.23 1048.96 161.61 1048.49 162.52H1048.51Z" fill="black"/>
<path fill-rule="evenodd" clip-rule="evenodd" d="M1065.04 167.58L1061.83 132.21L1068.71 131.76L1071.92 167.11L1065.04 167.58Z" fill="black"/>
<path fill-rule="evenodd" clip-rule="evenodd" d="M1101.77 156.09L1108.2 159.31C1106.37 162.98 1104.53 165.74 1101.77 167.11C1099.47 168.95 1096.26 169.41 1092.58 168.95C1087.99 168.03 1084.78 166.2 1082.03 162.52C1079.73 158.85 1078.81 154.25 1079.73 148.74C1080.65 142.77 1082.49 138.18 1085.7 135.43C1088.91 132.67 1093.05 131.76 1097.64 132.22C1101.77 133.14 1104.98 134.51 1107.29 137.73C1108.66 139.57 1109.58 141.86 1110.04 144.62L1103.15 145.54C1102.69 143.24 1102.23 141.86 1100.85 140.49C1099.93 139.57 1098.56 138.65 1096.72 138.2C1093.97 138.2 1092.13 138.66 1090.29 140.49C1088.45 141.87 1087.07 145.08 1086.61 149.22C1086.15 153.35 1086.61 157.02 1087.53 158.86C1088.91 161.15 1090.75 162.53 1093.5 162.53C1095.34 162.99 1096.72 162.53 1098.1 161.61C1099.47 160.69 1100.85 158.85 1101.77 156.1V156.09Z" fill="black"/>
<path fill-rule="evenodd" clip-rule="evenodd" d="M1135.29 143.24L1130.7 147.83L1109.12 170.33L1116 173.08L1121.52 167.11L1130.7 171.24L1133.91 172.62L1133.45 181.34L1140.34 184.56L1141.71 146.45L1135.28 143.24H1135.29ZM1134.38 166.19L1130.71 164.35L1125.66 162.52L1130.71 157.47L1135.3 152.42L1134.38 166.19Z" fill="black"/>
<path fill-rule="evenodd" clip-rule="evenodd" d="M1145.86 190.07L1163.3 166.65L1155.03 160.22L1158.71 155.63L1179.83 173.08L1176.62 177.67L1168.35 171.24L1151.36 194.67L1145.86 190.07Z" fill="black"/>
<path fill-rule="evenodd" clip-rule="evenodd" d="M1198.66 194.67C1196.83 192.37 1194.99 190.53 1193.16 189.16C1191.78 188.24 1189.95 187.78 1188.11 187.78C1186.74 187.32 1185.81 187.32 1184.9 187.32C1183.98 187.78 1183.06 187.78 1182.6 187.78C1179.85 188.7 1177.1 190.08 1174.34 191.91C1170.21 195.59 1167.92 199.26 1167 203.85C1166.54 208.44 1167.46 212.57 1170.67 216.7C1173.88 221.3 1177.56 223.59 1181.69 224.05H1184.9C1188.11 223.59 1191.33 222.22 1194.54 219.46C1198.67 216.25 1201.42 212.12 1201.89 207.53C1202.81 202.93 1201.42 198.8 1198.67 194.67H1198.66ZM1195.9 205.69C1195.44 208.44 1193.61 211.2 1190.39 213.49C1188.55 215.33 1186.25 216.24 1184.88 216.7C1183.5 216.7 1182.58 217.16 1181.67 217.16C1178.91 216.7 1177.08 215.32 1175.24 213.03C1173.87 210.73 1172.95 208.44 1173.41 205.69C1174.33 202.93 1175.7 200.18 1178.91 197.88C1181.22 196.05 1183.05 195.13 1184.88 194.67C1185.8 194.67 1186.72 194.21 1187.63 194.67C1189.93 194.67 1192.22 196.05 1194.07 198.34C1195.44 200.64 1196.36 203.39 1195.9 205.69Z" fill="black"/>
<path fill-rule="evenodd" clip-rule="evenodd" d="M1014.07 364.1C1013.15 362.71 1010.86 360.88 1008.1 358.59L1000.3 353.08L995.71 349.87L975.04 378.8L981.01 382.93L989.74 370.99L990.65 371.45C991.57 372.82 992.49 373.28 992.95 374.2C993.41 374.66 993.87 375.58 993.87 376.5C994.33 377.41 994.33 379.71 993.87 382.93V392.57L1000.3 397.17L1000.76 397.63L1001.22 389.36C1001.68 386.14 1001.68 383.84 1001.22 382.01C1001.22 381.09 1000.76 379.71 1000.3 378.34C1000.3 378.34 1000.3 377.88 999.84 377.41C999.84 377.41 1000.3 377.41 1000.3 377.88C1003.06 378.8 1005.35 379.25 1007.65 378.8C1009.95 378.34 1011.78 376.96 1013.16 375.12C1014.54 373.28 1015.46 371.45 1015.46 369.61C1015.46 367.77 1015 365.94 1014.08 364.1H1014.07ZM1007.19 370.99C1006.26 371.91 1005.81 372.37 1004.89 372.82H1002.59C1002.13 372.82 1001.21 372.37 1000.29 371.45C999.37 370.99 998.45 370.53 997.07 369.16L992.48 366.4L997.99 359.05L1000.29 360.43L1002.59 362.27C1004.89 364.11 1006.26 365.03 1006.72 365.49C1007.64 366.4 1008.09 367.33 1008.09 368.24C1008.09 369.15 1007.63 370.08 1007.18 371L1007.19 370.99Z" fill="black"/>
<path fill-rule="evenodd" clip-rule="evenodd" d="M1028.3 370.99L1035.19 373.28L1029.22 391.65C1028.3 394.4 1027.38 396.23 1027.38 397.16C1027.38 398.53 1027.38 399.91 1028.3 401.29C1029.22 402.2 1030.6 403.13 1032.43 404.05C1034.27 404.5 1036.11 404.5 1037.02 404.5C1038.4 404.05 1039.32 403.13 1039.78 401.74C1040.7 400.83 1041.16 398.99 1042.08 396.23L1048.51 377.87L1055.4 380.16L1049.43 397.62C1048.05 401.74 1046.68 404.5 1045.76 406.34C1044.85 407.71 1043.92 408.63 1042.54 409.55C1041.17 410.47 1039.33 410.93 1037.49 410.93C1035.66 411.39 1033.36 410.93 1030.61 410.02C1027.39 408.63 1025.1 407.71 1023.72 406.34C1022.34 404.96 1021.42 403.58 1020.96 402.21C1020.04 400.38 1020.04 399 1020.04 397.62C1020.5 395.32 1020.96 392.56 1022.33 388.89L1028.3 370.98V370.99Z" fill="black"/>
<path fill-rule="evenodd" clip-rule="evenodd" d="M1093.05 409.56C1091.21 406.81 1089.83 404.51 1088.91 403.59C1087.99 402.67 1086.61 401.75 1085.24 400.84C1088 400.39 1090.29 399 1092.13 397.17C1093.51 395.79 1094.43 393.49 1094.43 390.74C1094.43 388.44 1093.51 386.6 1092.59 385.23C1091.67 383.38 1090.3 382.46 1088.46 381.55C1086.62 381.09 1083.87 380.63 1080.19 381.09H1065.04L1065.49 416.9L1072.84 416.45L1072.38 401.75H1073.75C1075.59 401.75 1076.97 401.75 1077.43 402.21C1078.35 402.21 1078.8 402.67 1079.73 403.13V403.58C1080.65 404.05 1081.57 405.88 1083.86 408.63L1088.91 416.45H1097.63L1093.04 409.55L1093.05 409.56ZM1079.73 395.79H1077.89L1072.38 396.24V387.07H1082.94C1084.31 387.07 1085.24 387.52 1085.69 388.44C1086.61 388.9 1087.07 390.28 1087.07 391.2C1087.07 392.12 1086.61 393.03 1086.15 393.95C1085.69 394.87 1085.23 395.33 1084.31 395.33C1083.39 395.79 1082.02 395.79 1079.72 395.79H1079.73Z" fill="black"/>
<path fill-rule="evenodd" clip-rule="evenodd" d="M1123.36 376.5L1120.14 372.82L1112.79 375.12L1111.41 413.23L1118.3 410.93L1118.76 402.2L1123.35 400.83L1132.06 397.62L1137.58 404.5L1144.93 401.74L1123.35 376.49L1123.36 376.5ZM1123.36 394.41L1118.77 395.79L1119.23 382.01L1123.36 387.07L1127.95 392.57L1123.36 394.41Z" fill="black"/>
<path fill-rule="evenodd" clip-rule="evenodd" d="M1160.55 392.57L1138.97 364.56L1144.48 360.43L1162.38 383.38L1176.62 372.37L1180.3 376.96L1160.55 392.57Z" fill="black"/>
<path fill-rule="evenodd" clip-rule="evenodd" d="M1156.88 280.08C1156.42 280.08 1155.96 280.08 1155.5 279.62H1154.12C1153.66 279.16 1153.2 279.16 1152.75 279.16C1151.37 278.7 1149.99 278.24 1148.61 277.78C1139.43 275.02 1132.07 277.31 1121.98 279.62C1108.2 285.13 1083.87 294.31 1082.95 292.94C1082.49 291.56 1093.97 283.75 1106.83 268.15C1110.96 262.63 1117.39 257.58 1122.44 251.15C1127.95 242.43 1132.54 235.54 1134.38 222.22C1135.3 216.7 1135.75 211.65 1136.67 206.6C1131.16 209.82 1127.03 210.28 1122.9 212.11C1111.42 217.16 1102.7 228.18 1096.73 238.28C1082.96 266.75 1080.2 286.95 1077.45 287.41C1075.61 286.95 1088.01 244.25 1087.55 228.64C1087.09 219.45 1083.88 211.64 1080.67 203.85C1079.75 202.01 1078.83 199.72 1077.91 197.41C1075.61 193.74 1076.07 190.52 1074.24 187.77C1072.4 189.61 1071.03 192.83 1068.27 197.41C1067.36 198.79 1065.97 201.55 1065.06 202.92C1060.93 211.18 1055.87 221.29 1056.8 231.39C1054.04 253.43 1071.95 285.12 1069.19 286.95C1066.9 286.49 1056.8 252.51 1047.15 237.82C1040.26 225.88 1030.16 221.75 1021.89 218.08C1018.68 216.7 1016.38 213.95 1014.09 212.11C1013.63 213.03 1014.55 224.97 1015.01 227.26C1017.3 238.29 1017.3 246.55 1024.65 256.2C1051.74 284.66 1065.97 290.64 1065.06 292.94C1065.06 294.31 1042.1 281 1033.84 276.41C1023.28 270.43 1009.96 269.06 1000.32 268.59C998.94 268.59 998.02 268.59 996.65 269.05H994.35C992.05 269.51 990.67 269.97 989.3 270.43C989.3 271.35 990.67 272.27 990.67 273.65C991.13 274.1 991.59 275.48 991.59 275.94C994.8 283.29 1002.61 291.56 1015.01 298.91C1039.8 313.6 1063.68 297.53 1062.76 302.57C1057.71 304.41 1040.72 314.97 1033.83 321.86C1025.57 330.12 1017.76 341.15 1015.46 346.66C1015 347.57 1014.08 348.5 1014.08 348.95C1013.16 350.79 1012.24 352.16 1012.24 353.08C1017.29 351.71 1021.43 352.16 1026.48 349.87C1038.42 345.28 1050.36 335.64 1057.24 325.99C1062.21 318.75 1065.42 317.68 1072.09 304.1L1072.4 305.32V309.46L1072.86 311.29V316.34L1073.32 318.18V331.04L1072.86 332.88V336.55L1072.4 338.38V342.52L1071.94 344.36L1071.48 346.66V348.5L1070.1 355.38L1069.63 357.67L1069.17 360.42L1072.84 360.88L1073.3 358.59L1073.76 355.83L1075.14 348.94V347.11L1075.6 344.81V342.51L1076.06 340.68V338.85L1076.52 336.54V331.03L1076.98 329.19V320.01L1076.52 318.17V310.82L1076.06 308.98V307.15L1075.6 305.31V304.02C1075.75 304.33 1075.91 304.62 1076.06 304.85C1076.52 305.31 1082.49 319.09 1089.38 329.19C1095.35 338.84 1109.13 347.1 1121.06 350.77C1121.52 350.77 1122.44 351.23 1122.9 351.23C1124.28 351.69 1125.2 352.14 1125.66 352.14C1127.5 352.61 1129.8 354.44 1131.63 354.44C1132.55 353.06 1131.63 352.61 1131.17 347.1C1130.71 346.17 1130.25 345.26 1130.25 344.34C1129.8 344.34 1129.8 343.89 1129.8 343.42C1126.58 337.45 1118.78 327.35 1108.21 318.16C1093.98 305.3 1083.42 303.01 1082.96 301.17C1083.42 296.58 1133.01 313.11 1153.68 289.68C1155.51 287.85 1157.35 286.47 1157.81 286.02C1159.19 284.64 1160.57 284.18 1162.4 282.8V282.34C1161.02 281.42 1159.19 280.97 1156.89 280.05L1156.88 280.08Z" fill="black"/>
<path fill-rule="evenodd" clip-rule="evenodd" d="M666.94 64.4H1239.44V52.29H671.5L666.94 64.4Z" fill="black"/>
</svg>
