<svg width="1319" height="313" viewBox="0 0 1319 313" fill="none" xmlns="http://www.w3.org/2000/svg">
<path d="M156.49 298.12C88.39 298.12 57.11 262.98 57.11 156.12C57.11 49.26 88.39 14.12 156.49 14.12H343.12C411.22 14.12 442.5 49.26 442.5 156.12C442.5 262.98 411.23 298.12 343.12 298.12H156.49ZM119.42 312.25H380.18C459.27 312.25 499.6 262.38 499.6 156.12C499.6 49.86 459.27 0 380.18 0H119.42C40.33 0 0 49.87 0 156.13C0 262.39 40.33 312.26 119.42 312.26V312.25ZM298.78 220.11C298.16 220.13 297.64 220.63 297.57 221.28C297.5 221.93 297.9 222.54 298.5 222.7L381.84 245.36C381.94 245.39 382.07 245.4 382.17 245.4C382.86 245.4 383.42 244.81 383.42 244.08V218.54C383.42 218.18 383.28 217.84 383.04 217.59C382.8 217.34 382.46 217.19 382.13 217.22L298.77 220.1L298.78 220.11ZM381.87 148.12L257.43 118.7C251.28 117.06 246.52 115.12 243.28 112.94C238.86 109.36 236.56 104.83 236.81 100.16C237.21 92.65 244.35 86.43 254.24 85.01L381.86 59.15C382.86 58.93 383.55 58.02 383.55 56.93C383.55 55.66 382.64 54.66 381.4 54.66V54.73L381.25 54.64L99.34 88.32L99.3 88.98L99.24 88.32C98.15 88.43 97.32 89.4 97.32 90.59C97.32 91.47 97.77 92.25 98.49 92.63L98.98 92.79V92.81L225.31 122.76C236.32 124.79 244.29 132.6 243.84 140.93C243.52 147.11 238.67 152.49 231.17 154.97C230.97 155.04 230.76 155.1 230.55 155.16L230.25 155.25C230.05 155.31 229.87 155.36 229.71 155.4L99.29 181.74C98.18 181.81 97.33 182.78 97.33 184.01C97.33 185.24 98.27 186.29 99.42 186.29C99.56 186.29 99.68 186.27 99.77 186.25L381.82 152.56L382.01 152.33L382.05 152.47C382.94 152.17 383.54 151.3 383.54 150.3C383.54 149.22 382.84 148.31 381.87 148.1V148.12ZM381.32 159.73H381.17L99.26 194.96H99.16V194.98C98.12 195.11 97.32 196.08 97.32 197.23C97.32 198.2 97.8 198.99 98.57 199.31L98.78 199.37L381.14 257.6L381.4 257.55V257.61C382.55 257.61 383.49 256.59 383.49 255.35C383.49 254.32 382.86 253.42 381.96 253.15L254.95 218.73L254.92 218.7C247.46 216.45 242.46 210.82 242.78 205.01C243.08 199.26 248.33 194.52 255.9 193.19L381.91 164.24L382.01 164.11L382.03 164.18C382.9 163.88 383.5 162.99 383.5 162C383.5 160.75 382.56 159.74 381.33 159.74L381.32 159.73Z" fill="black"/>
<path d="M585.02 71.26C588.09 74.15 591.76 76.68 596.04 78.85C600.32 81.02 605.04 82.89 610.22 84.45L624.49 88.42L636.23 92.48C639.48 93.74 642.07 95.07 644 96.46C645.93 97.85 647.34 99.5 648.25 101.43C649.16 103.36 649.6 105.65 649.6 108.29C649.6 112.51 648.54 115.94 646.44 118.59C644.33 121.24 641.17 123.2 636.95 124.46C632.74 125.72 627.19 126.35 620.33 126.35C617.32 126.35 614.4 126.2 611.57 125.9C608.72 125.59 605.88 125.14 603.08 124.55L597.59 123.34L592.15 97.09H575.89L577.52 140.63L578.06 140.81L593.49 138.95L601.45 140.27L613.64 141.53L625.38 141.89C637.18 141.89 646.97 140.41 654.73 137.46C662.5 134.51 668.25 130.21 671.98 124.55C675.71 118.89 677.58 111.97 677.58 103.77C677.58 98.71 676.86 94.26 675.41 90.4C673.97 86.54 671.77 83.17 668.82 80.28C665.87 77.39 662.14 74.83 657.62 72.6C653.1 70.37 647.83 68.42 641.81 66.73L625.91 62.03C622.18 60.95 618.89 59.86 616.06 58.78C613.23 57.7 610.85 56.46 608.92 55.08C606.99 53.7 605.55 52.07 604.58 50.2C603.62 48.33 603.13 46.08 603.13 43.43C603.13 39.82 604.09 36.81 606.02 34.4C607.95 31.99 610.96 30.15 615.05 28.89C619.14 27.63 624.38 26.99 630.77 26.99C634.62 26.99 638.51 27.32 642.42 27.98C645.43 28.49 648.71 29.2 652.26 30.1L657.51 55.71H673.77L672.32 12.71L671.78 12.35L655.88 14.54C653.51 14.06 651.14 13.63 648.75 13.25C644.84 12.65 641.01 12.2 637.28 11.9C633.55 11.6 629.88 11.45 626.26 11.45C615.42 11.45 606.24 12.89 598.71 15.79C591.18 18.68 585.4 22.81 581.37 28.16C577.34 33.52 575.32 39.99 575.32 47.58C575.32 52.64 576.16 57.13 577.85 61.04C579.5 64.9 581.93 68.37 584.99 71.25L585.02 71.26ZM730.57 128.89L720.63 127.08V79.91C724.16 76.38 727.48 73.61 730.57 71.71C734.18 69.48 737.68 68.37 741.05 68.37C743.1 68.37 744.81 68.76 746.2 69.54C747.59 70.32 748.7 71.53 749.54 73.16C750.38 74.79 750.8 76.93 750.8 79.57V127.08L740.86 128.89V139.91H784.22V128.89L774.46 127.08V79.6C777.82 76.34 781.01 73.72 784.04 71.8C787.65 69.51 791.15 68.37 794.52 68.37C796.57 68.37 798.31 68.73 799.76 69.45C801.21 70.17 802.35 71.35 803.19 72.97C804.03 74.6 804.45 76.79 804.45 79.56V127.07L794.69 128.88V139.9H840.94V128.88L828.11 127.07V73.23C828.11 67.45 827.09 62.78 825.04 59.23C822.99 55.68 820.19 53.03 816.64 51.28C813.09 49.53 809.08 48.66 804.63 48.66C800.66 48.66 796.65 49.44 792.62 51.01C788.59 52.57 784.64 54.89 780.79 57.97C778.32 59.94 775.88 62.19 773.46 64.68C772.94 62.66 772.24 60.82 771.31 59.23C769.2 55.68 766.4 53.03 762.91 51.28C759.42 49.53 755.44 48.66 750.99 48.66C747.01 48.66 743.01 49.47 738.98 51.1C734.95 52.73 731 55.01 727.15 57.96C724.29 60.15 721.45 62.73 718.66 65.69V49.2L718.3 48.84L684.16 55.16V66.36H696.99V127.06L684.16 128.87V139.89H730.59V128.87L730.57 128.89ZM851.7 116.06C851.7 121.84 852.69 126.63 854.68 130.42C856.67 134.22 859.41 137.08 862.9 139C866.39 140.93 870.55 141.89 875.37 141.89C879.82 141.89 884.07 141.11 888.11 139.54C892.15 137.98 896.06 135.66 899.85 132.58C902.53 130.41 905.16 127.95 907.74 125.21L908.43 139.9H942.57V128.88L929.74 127.07V49.04L929.38 48.68L893.25 55V66.38H906.08V111.16C903.07 114.09 900.06 116.58 897.05 118.59C893.44 121 889.7 122.2 885.85 122.2C883.8 122.2 881.99 121.78 880.43 120.94C878.87 120.1 877.63 118.77 876.91 117.15C876.13 115.46 875.74 113.36 875.74 110.83V49.05L875.38 48.69L838.89 55.01V66.39H851.72V116.07L851.7 116.06ZM1003.07 128.89L985.73 127.08V81.16C988.96 77.99 992.15 75.59 995.3 74.06C999.15 72.19 1003.07 71.26 1007.04 71.26C1008.97 71.26 1010.77 71.44 1012.46 71.8C1014.15 72.16 1015.89 72.7 1017.7 73.43H1020.23V50.49C1018.78 49.89 1017.4 49.43 1016.07 49.14C1014.75 48.84 1013.18 48.69 1011.37 48.69C1007.88 48.69 1004.38 49.5 1000.89 51.13C997.4 52.76 993.99 55.31 990.68 58.81C988.28 61.34 985.96 64.43 983.72 68.03V49.24L983.36 48.88L949.22 55.2V66.4H962.05V127.1L949.22 128.91V139.93H1003.06V128.91L1003.07 128.89ZM1185.65 20.68H1167.04L1162.29 50.98L1144.82 53.38V65.85H1161.8V117.52C1161.8 121.74 1162.37 125.35 1163.51 128.36C1164.65 131.37 1166.28 133.87 1168.39 135.86C1170.5 137.85 1173.03 139.35 1175.98 140.38C1178.93 141.41 1182.33 141.92 1186.19 141.92C1192.21 141.92 1197.93 140.89 1203.35 138.85C1208.77 136.81 1213.89 134.21 1218.71 131.08V117.17H1218.17C1214.19 119.58 1210.43 121.51 1206.88 122.95C1203.33 124.4 1199.98 125.12 1196.85 125.12C1193.12 125.12 1190.32 124.16 1188.45 122.23C1186.58 120.3 1185.65 117.17 1185.65 112.84V65.87H1216.72L1218.89 51.06V50.7H1185.65V20.68ZM1043.39 127.08L1030.56 128.89V139.91H1084.4V128.89L1067.24 127.08V65.84H1090.37L1092.36 51.03V50.67H1067.24V39.29C1067.24 35.44 1067.81 32.36 1068.96 30.07C1070.11 27.78 1071.7 26.1 1073.75 25.01C1075.8 23.92 1078.15 23.39 1080.8 23.39C1083.01 23.38 1085.21 23.74 1087.3 24.47C1089.35 25.19 1091.03 26.16 1092.36 27.36H1095.07V10.02C1093.02 9.42 1090.58 8.91 1087.76 8.48C1084.93 8.06 1082.01 7.85 1079 7.85C1072.38 7.85 1066.38 9.02 1061.02 11.37C1055.66 13.72 1051.38 17.42 1048.2 22.48C1045.02 27.54 1043.41 33.98 1043.41 41.81V50.95L1026.43 53.19V65.84H1043.41V127.08H1043.39ZM1148.51 128.89L1135.5 127.08V48.68L1135.14 48.32L1099.01 54.64V65.84H1111.84V127.08L1099.01 128.89V139.91H1148.51V128.89ZM1110.94 32.15C1113.71 34.5 1117.2 35.67 1121.42 35.67C1125.64 35.67 1129.28 34.5 1131.99 32.15C1134.7 29.8 1136.05 26.64 1136.05 22.67C1136.05 18.7 1134.7 15.51 1131.99 13.09C1129.28 10.67 1125.76 9.48 1121.42 9.48C1117.08 9.48 1113.71 10.69 1110.94 13.09C1108.17 15.5 1106.78 18.69 1106.78 22.67C1106.78 26.65 1108.16 29.81 1110.94 32.15ZM732.58 183.41V171.67H690.49V183.41L704.58 185.22L684.56 259.38L659.78 171.67H635.75V177.63L643.48 202.02L622.95 260.27L601.78 185.22L616.05 183.41V171.67H564.56V183.41L576.12 185.22L609.18 298.13H624.71L651.32 226.56L673.85 298.13H689.39L721.36 185.22L732.56 183.41H732.58ZM782.35 211.95C776.75 208.58 769.79 206.89 761.48 206.89C755.46 206.89 749.8 208.04 744.5 210.32C739.2 212.61 734.54 215.86 730.5 220.08C726.47 224.29 723.33 229.36 721.1 235.26C718.87 241.16 717.76 247.85 717.76 255.31C717.76 264.82 719.5 272.89 723 279.52C726.5 286.15 731.49 291.23 737.99 294.79C744.49 298.35 752.2 300.12 761.11 300.12C768.34 300.12 774.99 299.13 781.07 297.14C787.15 295.15 792.96 292.29 798.5 288.56V274.65H798.14C792.96 277.78 787.84 280.1 782.78 281.61C777.72 283.11 772.73 283.87 767.79 283.87C762.01 283.87 757.22 282.76 753.43 280.53C749.64 278.3 746.8 274.81 744.94 270.05C743.75 267.02 742.99 263.46 742.55 259.48H799.04V250.99C799.04 241.48 797.65 233.44 794.88 226.87C792.11 220.31 787.93 215.34 782.33 211.96L782.35 211.95ZM747.03 228.94C748.59 226.41 750.49 224.54 752.72 223.34C754.97 222.13 757.48 221.51 760.04 221.54C763.65 221.54 766.66 222.6 769.07 224.7C771.48 226.81 773.28 230.18 774.49 234.82C775.25 237.73 775.76 241.23 776.05 245.3L742.33 246.96C742.52 243.78 742.87 240.91 743.42 238.43C744.26 234.63 745.47 231.47 747.04 228.94H747.03ZM870.83 251.25C867.46 248.78 862.88 246.77 857.1 245.2L847.53 242.49C844.16 241.41 841.51 240.35 839.58 239.33C837.65 238.3 836.27 237.16 835.42 235.9C834.58 234.63 834.16 233.16 834.16 231.47C834.16 228.46 835.54 226.11 838.32 224.42C841.09 222.73 844.82 221.89 849.52 221.89C851.69 221.89 853.88 222.04 856.11 222.34C858.34 222.64 860.55 223.13 862.7 223.79C864.87 224.45 866.95 225.21 868.93 226.05C870.83 226.84 872.62 227.88 874.26 229.12H876.97V211.6C874.8 210.64 872.18 209.82 869.11 209.16L859.26 207.53C855.77 207.11 852.33 206.9 848.96 206.9C841.01 206.9 834.17 208.01 828.45 210.24C822.73 212.47 818.3 215.63 815.17 219.72C812.04 223.82 810.47 228.69 810.47 234.35C810.47 240.01 812.25 245.46 815.8 249.98C819.35 254.5 825.16 257.9 833.23 260.19L842.62 262.54C846.35 263.62 849.27 264.74 851.38 265.88C853.49 267.03 854.96 268.32 855.81 269.76C856.66 271.2 857.07 272.89 857.07 274.82C857.07 278.19 855.72 280.78 853.01 282.59C850.3 284.4 846.17 285.3 840.64 285.3C837.51 285.3 834.29 285 830.97 284.4C827.65 283.8 824.47 282.93 821.4 281.78C818.33 280.63 815.53 279.22 813 277.53H810.47V295.05C812.75 296.01 815.47 296.85 818.6 297.58C821.73 298.3 825.16 298.9 828.9 299.39C832.73 299.88 836.6 300.12 840.46 300.11C849.01 300.11 856.27 298.94 862.23 296.59C868.19 294.24 872.77 290.9 875.96 286.56C879.15 282.22 880.75 277.05 880.75 271.02C880.75 266.81 879.94 263.07 878.31 259.82C876.69 256.57 874.18 253.71 870.81 251.24L870.83 251.25ZM927.44 178.9H908.83L904.08 209.2L886.61 211.6V224.07H903.59V275.74C903.59 279.96 904.16 283.57 905.3 286.58C906.44 289.59 908.07 292.09 910.18 294.08C912.29 296.07 914.82 297.57 917.77 298.6C920.72 299.62 924.12 300.14 927.98 300.14C934 300.14 939.72 299.11 945.14 297.07C950.56 295.02 955.68 292.43 960.5 289.3V275.39H959.96C955.98 277.8 952.22 279.73 948.67 281.17C945.12 282.61 941.77 283.34 938.64 283.34C934.91 283.34 932.11 282.38 930.24 280.45C928.37 278.52 927.44 275.39 927.44 271.06V224.09H958.51L960.68 209.28V208.92H927.44V178.9ZM1029.87 206.9C1026.38 206.9 1022.88 207.71 1019.39 209.34C1015.9 210.97 1012.49 213.52 1009.18 217.02C1006.78 219.55 1004.46 222.64 1002.22 226.24V207.45L1001.86 207.09L967.72 213.41V224.61H980.55V285.31L967.72 287.12V298.14H1021.56V287.12L1004.22 285.31V239.39C1007.45 236.22 1010.64 233.82 1013.79 232.29C1017.64 230.42 1021.56 229.49 1025.53 229.49C1027.46 229.49 1029.26 229.67 1030.95 230.03C1032.64 230.39 1034.38 230.93 1036.19 231.66H1038.72V208.72C1037.27 208.12 1035.89 207.66 1034.56 207.37C1033.23 207.08 1031.67 206.92 1029.86 206.92L1029.87 206.9ZM1120.85 218.73C1117.3 214.94 1112.93 212.02 1107.75 209.97C1102.57 207.92 1096.73 206.9 1090.23 206.9C1081.2 206.9 1073.16 208.83 1066.11 212.68C1059.06 216.53 1053.55 222.07 1049.58 229.3C1045.61 236.53 1043.62 245.32 1043.62 255.68C1043.62 262.67 1044.58 268.9 1046.51 274.38C1048.44 279.86 1051.18 284.5 1054.73 288.29C1058.28 292.08 1062.65 295.01 1067.83 297.05C1073.01 299.1 1078.85 300.12 1085.35 300.12C1094.38 300.12 1102.42 298.19 1109.47 294.34C1116.51 290.49 1122.05 284.92 1126.09 277.63C1130.13 270.34 1132.14 261.58 1132.14 251.34C1132.14 244.36 1131.15 238.13 1129.16 232.64C1127.17 227.16 1124.4 222.52 1120.85 218.73ZM1106.04 267.96C1105.14 271.82 1103.78 275.01 1101.98 277.54C1100.17 280.07 1098.03 281.94 1095.57 283.14C1093.1 284.34 1090.36 284.94 1087.35 284.94C1083.38 284.94 1079.95 283.8 1077.05 281.51C1074.16 279.22 1071.96 275.7 1070.46 270.94C1068.96 266.18 1068.2 260.13 1068.2 252.78C1068.2 247.6 1068.65 243.06 1069.55 239.14C1070.45 235.22 1071.81 232.01 1073.62 229.47C1075.43 226.93 1077.53 225.07 1079.94 223.87C1082.35 222.66 1085.12 222.06 1088.25 222.06C1092.34 222.06 1095.81 223.21 1098.64 225.49C1101.47 227.77 1103.64 231.3 1105.14 236.06C1106.64 240.82 1107.4 246.87 1107.4 254.22C1107.4 259.52 1106.95 264.09 1106.05 267.95L1106.04 267.96ZM1201.64 282.95C1198.21 283.91 1194.62 284.39 1190.89 284.39C1185.83 284.39 1181.34 283.19 1177.43 280.78C1173.52 278.37 1170.44 274.82 1168.22 270.12C1165.99 265.42 1164.88 259.46 1164.88 252.24C1164.88 247.42 1165.45 243.18 1166.59 239.5C1167.73 235.82 1169.39 232.73 1171.56 230.2C1173.73 227.67 1176.38 225.77 1179.51 224.51C1182.64 223.25 1186.07 222.61 1189.81 222.61C1193.55 222.61 1196.95 223.12 1200.02 224.15C1203.09 225.17 1205.89 226.65 1208.42 228.58H1210.95V210.7C1208.9 209.86 1206.68 209.17 1204.27 208.62C1201.71 208.05 1199.11 207.63 1196.5 207.36C1193.73 207.06 1190.72 206.91 1187.47 206.91C1178.32 206.91 1170.18 208.93 1163.08 212.96C1155.98 216.99 1150.4 222.66 1146.37 229.94C1142.34 237.23 1140.32 245.69 1140.32 255.32C1140.32 262.31 1141.34 268.57 1143.39 274.11C1145.44 279.65 1148.36 284.35 1152.15 288.2C1155.92 292.04 1160.44 295.05 1165.43 297.05C1170.49 299.1 1176.03 300.12 1182.05 300.12C1185.78 300.12 1189.43 299.79 1192.98 299.13C1196.39 298.51 1199.75 297.6 1203.01 296.42C1205.97 295.36 1208.82 294 1211.5 292.36V278.99H1211.14C1208.25 280.68 1205.09 282 1201.66 282.97L1201.64 282.95ZM1277.55 244.73L1303.55 222.49L1316.81 220.09V208.89H1271.47V220.09L1282.4 221.79L1255.93 243.94H1255.57V166.26L1255.21 165.9L1219.08 172.04V183.06H1231.91V285.31L1219.08 287.12V298.14H1266.23V287.12L1255.57 285.31V253.33H1255.93L1292.24 298.13H1318.62V291.45L1277.55 244.74V244.73Z" fill="black"/>
</svg>
