<svg width="1049" height="183" viewBox="0 0 1049 183" fill="none" xmlns="http://www.w3.org/2000/svg">
<path fill-rule="evenodd" clip-rule="evenodd" d="M43.58 113.69H98.57C104.55 113.69 105.8 117.67 105.8 120.24V126.79C105.8 130.27 103.57 133.46 98.65 133.46H2.9V180.6H119.17C150.68 180.6 168.29 152 168.29 133.1V106.97C168.29 80.09 142.56 62.23 116.56 62.23H65.24C59.26 62.23 58.02 58.25 58.02 55.67V51.13C58.02 47.66 60.25 44.45 65.17 44.45H160.92V0.12H52.73C13.47 0.12 0 28.24 0 46.42V71.92C0 91.42 17.39 113.69 43.58 113.69Z" fill="black"/>
<path fill-rule="evenodd" clip-rule="evenodd" d="M293.81 182.5C344.5 182.5 361.48 156.41 361.48 124.43V0H300.8V118.06C300.8 126.8 297.34 133.52 285.44 133.52H260.06C248.15 133.52 244.35 127.09 244.35 118.06V0H184.01C184.01 9.9 184.01 115.71 184.01 124.44C184.01 153.69 204.91 182.51 253.43 182.51H293.81V182.5Z" fill="black"/>
<path fill-rule="evenodd" clip-rule="evenodd" d="M383.97 0H443.75V133.56H515.31V180.59H383.97V0Z" fill="black"/>
<path fill-rule="evenodd" clip-rule="evenodd" d="M862.94 0.32V180.59H918.91V113.49H923.89L979.32 180.59H1048.18C1048.18 180.59 995.54 118.55 990.2 112.1C1001.43 112.1 1029.86 95.96 1029.86 63.62V48.28C1029.86 35.33 1020.24 0.32 973.09 0.32H862.94ZM917.3 44.23V71.64H960.78C968.38 71.64 973.03 68.21 973.03 58.7C973.03 52.59 972.52 44.22 959.61 44.22H917.31L917.3 44.23Z" fill="black"/>
<path fill-rule="evenodd" clip-rule="evenodd" d="M606.77 45.14H527.24V0.32H681.13V44.95L602.38 133.47H683.75V180.59H526.25V133.47L606.77 45.14Z" fill="black"/>
<path fill-rule="evenodd" clip-rule="evenodd" d="M700.69 0.32V180.59H847.52V133.47H758.51V109.93H828.89V65.83H758.51V44.46H842.6V0.32H700.69Z" fill="black"/>
</svg>
