<svg width="1264" height="353" viewBox="0 0 1264 353" fill="none" xmlns="http://www.w3.org/2000/svg">
<path d="M669.74 164.21C626.38 164.21 600.55 140.22 600.55 93.18V0.92H635.61V92.25C635.61 118.08 648.53 131.92 670.67 131.92C692.81 131.92 704.8 119 704.8 93.17V0.92H740.78V91.33C740.78 140.22 713.1 165.13 669.75 165.13M881 164.21L799.82 59.97V164.21H763.84V0.92H797.97L875.46 101.47V0.92H912.36V164.2H880.99M193.73 351.48H161.44L124.54 245.39L87.64 351.48H56.27L0 188.19H38.75L72.88 297.97L109.78 188.19H141.15L177.13 297.97L211.26 188.19H249.08L193.73 351.47M376.39 270.3C376.39 242.62 356.09 220.48 327.5 220.48C301.01 219.97 279.12 241.02 278.61 267.51C278.6 268.13 278.6 268.75 278.61 269.37C278.61 297.05 298.91 320.11 327.5 320.11C356.09 320.11 376.39 297.05 376.39 270.29V270.3ZM327.49 351.48C277.67 351.48 241.7 314.58 241.7 270.3C241.67 224.45 278.83 187.25 324.68 187.23C325.62 187.23 326.56 187.24 327.49 187.28C377.31 187.28 413.28 224.18 413.28 269.38C413.31 315.23 376.15 352.43 330.3 352.45C329.36 352.45 328.42 352.44 327.49 352.4V351.48ZM556.28 351.48V244.47L510.15 314.58H509.23L464.03 245.39V351.48H428.97V188.2H467.72L510.16 257.39L553.52 188.2H592.27V351.48H556.29M616.24 351.48V188.2H738.93V219.57H651.29V252.78H728.78V285.07H651.29V320.13H740.77V351.5H616.23M881 351.48L799.82 247.24V351.48H763.84V188.2H797.97L875.46 288.75V188.2H912.36V351.48H880.99M516.61 150.37C505.54 144.83 492.62 139.3 479.71 143.91C472.5 141.64 464.78 141.64 457.57 143.91C446.5 149.45 430.82 156.83 418.82 148.52L426.2 154.06C434.5 159.6 444.65 158.67 453.88 154.98C460.34 152.21 465.87 142.99 476.02 145.75C467.72 149.44 460.34 154.98 453.88 161.43L457.57 164.2C464.03 156.82 471.41 150.36 479.71 146.67C488.01 150.36 495.39 157.74 501.85 164.2L505.54 160.51C498.93 154.52 491.47 149.55 483.4 145.75H490.78C499.08 149.44 505.54 155.9 514.77 157.74C524 158.66 533.22 154.97 539.68 148.51L535.07 150.36C529.1 152.47 522.59 152.47 516.62 150.36L516.61 150.37ZM423.43 119.93C428.04 126.39 428.04 133.77 435.42 138.38L444.65 142.07L435.42 141.15C423.43 139.3 411.43 141.15 403.13 131.92C406.82 138.38 412.36 143.91 419.74 146.68C432.66 151.29 444.65 143.91 456.64 142.99C442.8 142.99 434.5 126.38 423.43 119.93ZM535.06 119.93C527.68 124.54 521.22 132.85 514.76 138.38L501.84 142.99C511.07 142.99 520.29 147.6 529.52 147.6C540.59 147.6 550.74 140.22 556.27 130.99C547.97 140.22 535.97 139.29 524.9 140.22L514.75 142.07C526.74 140.22 530.43 127.31 535.05 119.01V119.93H535.06ZM480.63 112.54V121.77C483.4 119.92 486.17 119.92 488.93 119.92C487.08 118.07 485.24 119 485.24 116.23C484.32 116.23 485.24 114.38 485.24 112.54H480.63ZM440.96 109.78L433.58 117.16C446.5 127.31 461.26 133.77 476.94 134.69V124.54C463.1 124.54 451.11 119 440.96 109.78ZM517.53 108.86C516.01 110.75 514.13 112.31 511.99 113.47C505.53 116.24 504.61 122.7 498.15 125.46C495.38 127.31 493.54 123.61 491.69 122.69C488 123.61 484.31 124.54 480.62 123.61V134.68C498.15 133.76 512.91 127.3 524.9 116.23L517.52 108.85L517.53 108.86ZM453.88 103.32C453.88 103.32 455.73 104.24 454.8 105.17C452.95 107.02 450.19 105.17 447.42 107.94L442.81 106.09C451.9 114.61 463.6 119.81 476.02 120.85H476.94V111.62C467.71 111.62 460.33 107.93 453.88 102.39V103.32ZM409.6 99.63L411.45 104.24C413.3 115.31 414.22 127.3 423.44 133.76L415.14 128.22C405.91 121.76 393 118.99 387.46 107.92C389.31 117.15 395.76 123.6 402.22 129.14C410.52 136.52 421.59 135.6 431.74 138.37C428.05 135.6 426.2 132.83 424.36 129.14C420.67 118.07 417.9 107.92 409.6 99.62V99.63ZM507.38 99.63C502.77 103.32 510.15 103.32 510.15 106.09C510.15 107.01 506.46 108.86 508.3 110.7V111.62L514.76 106.08H511.99C511.99 103.31 509.22 101.47 507.38 99.62V99.63ZM548.89 98.71L543.35 106.09C535.97 115.32 536.89 129.15 526.74 137.46L544.27 134.69C556.26 131 569.18 119.01 571.95 107.01C569.18 112.55 564.57 116.24 559.96 119C551.66 122.69 543.35 127.3 536.9 132.84C547.97 124.54 545.2 109.78 549.82 98.71H548.89ZM460.33 90.41L452.95 97.79C459.41 102.4 466.79 106.09 473.25 107.02C470.48 107.02 469.56 104.25 468.64 102.41C468.64 100.56 470.49 100.56 469.56 98.72L473.25 96.87H471.4C466.79 95.95 463.1 94.1 460.33 90.41ZM493.54 89.48L491.69 90.4H488.92V91.32H486.15C486.15 94.09 485.23 90.4 483.38 91.32C483.38 89.47 481.53 91.32 480.61 91.32C480.61 91.32 480.61 93.17 478.76 93.17C478.76 94.09 476.91 93.17 476.91 95.02H483.37C483.37 96.87 486.14 95.02 487.06 95.94L487.98 95.02C489.83 95.02 492.59 93.17 493.52 91.33V89.48H493.54ZM489.85 87.64C489.85 87.64 491.7 87.64 492.62 85.79C490.77 85.79 488.93 86.71 489.85 87.64ZM469.56 81.18L463.1 87.64C466.79 90.41 470.48 92.25 475.09 93.18L476.01 90.41H477.86V83.95C476.01 85.8 474.17 83.95 472.32 83.95L469.55 81.18H469.56ZM511.07 81.18C509.22 79.33 509.22 82.1 508.3 82.1L507.38 81.18L504.61 84.87C501.84 83.95 502.76 87.64 500 86.72C500 88.57 501.85 86.72 501.85 86.72H502.77C502.77 84.87 504.62 83.95 505.54 84.87L506.46 88.56V90.41C504.61 92.26 505.54 95.02 502.77 95.02L493.54 93.17C495.39 94.09 498.15 94.09 500 95.94H505.54L506.46 91.33L508.31 94.1C511.08 89.49 514.77 85.8 515.69 80.26H511.08V81.18H511.07ZM403.14 81.18L402.22 92.25C399.45 99.63 401.3 107.93 404.99 114.39L402.22 110.7C396.68 100.55 383.77 95.02 381.92 83.02L382.84 95.01C387.45 108.85 402.21 116.23 412.36 122.69C404.98 110.7 408.67 93.17 403.13 80.25V81.17L403.14 81.18ZM493.54 81.18C492.62 82.1 495.39 82.1 495.39 83.95V82.1L493.54 80.25V81.18ZM555.35 79.34C548.89 92.26 553.5 109.78 546.12 122.7L547.04 120.85C561.8 113.47 579.33 100.55 576.56 81.18C576.56 83.03 575.64 85.79 573.79 87.64C568.25 96.87 559.03 104.25 554.42 113.47H553.5V111.62C560.88 102.39 555.35 90.4 555.34 79.33L555.35 79.34ZM465.87 78.41L464.95 80.26L466.8 78.41H465.87ZM455.72 75.65L460.33 84.88L463.1 82.11V81.19L462.18 78.42V80.27L459.41 78.42L458.49 76.57L455.72 75.65ZM428.05 71.03L429.9 84.87V83.95C430.82 82.1 430.82 79.34 432.67 77.49C434.52 77.49 434.52 74.72 437.28 74.72L438.2 76.57V70.11H427.13L428.05 71.03ZM413.29 71.03C414.21 87.64 420.67 102.4 431.74 114.39L439.12 107.01L435.43 103.32C433.58 103.32 432.66 101.47 432.66 100.55L428.97 98.7C428.97 98.7 428.97 96.85 427.12 96.85C427.12 95.93 424.35 95.93 424.35 94.08L423.43 95L420.66 93.15C417.89 93.15 419.74 90.38 417.89 89.46L418.81 83.92H421.58L422.5 83C424.35 81.15 425.27 83 426.19 84.85C424.58 80.11 423.95 75.08 424.35 70.09C420.67 70.46 416.96 70.46 413.28 70.09V71.01L413.29 71.03ZM440.96 71.03C440.96 73.8 441.88 75.64 440.96 78.41C440.96 77.49 443.73 76.56 441.88 74.72C442.8 74.72 441.88 71.95 443.73 71.03H440.96ZM521.22 74.72C519.37 77.49 523.07 77.49 521.22 79.33C521.22 80.25 521.22 79.33 520.3 79.33C518.45 85.79 514.76 92.25 511.07 97.78C511.07 97.78 511.99 99.63 513.84 99.63V97.79C516.61 97.79 516.61 101.48 517.53 103.33C523.99 95.95 527.68 88.57 529.52 79.34C530.44 76.57 529.52 72.88 531.37 70.11H521.22V74.72ZM534.13 71.03C534.13 84.87 528.59 97.78 520.29 106.09L527.67 113.47C535.97 104.24 541.51 93.17 544.28 80.26L545.2 71.03H534.13ZM511.07 71.03L512.92 72.88C512.92 74.73 516.61 75.65 516.61 77.49L517.53 71.03H511.07ZM448.34 66.42C446.49 66.42 448.34 69.19 448.34 71.03H446.49C446.49 73.8 445.57 73.8 443.72 73.8C443.72 75.65 444.64 76.57 443.72 77.49C445.57 79.34 447.41 81.18 446.49 83.95C448.34 85.8 447.41 88.56 448.34 90.41L450.19 94.1L448.34 95.95V96.87L457.57 87.64C454.31 83.98 452.08 79.53 451.11 74.72H450.19L449.27 77.49C448.35 77.49 447.42 77.49 447.42 75.64H448.34V71.95L450.19 73.8L452.04 72.88V67.34L449.27 66.42H448.34ZM476.02 57.2C476.94 59.05 477.87 60.89 476.02 60.89C476.02 62.74 473.25 62.74 472.33 64.58C469.56 64.58 470.48 69.19 469.56 71.04C467.71 71.04 468.64 69.19 467.71 68.27V69.19C464.02 67.34 464.94 71.96 463.1 71.96H468.64L469.56 70.11H471.41V72.88C471.41 72.88 471.41 75.65 469.56 74.73V75.65L471.41 73.8C472.33 73.8 473.26 72.88 472.33 71.95H477.87C478.79 73.8 477.87 74.72 477.87 75.64L476.95 77.49L472.34 78.41C474.19 80.26 476.95 81.18 479.72 81.18C482.49 81.18 480.64 77.49 482.49 76.57H486.18V70.11C486.18 69.19 486.18 67.34 484.33 67.34V65.49C486.18 65.49 484.33 63.64 484.33 62.72C482.48 62.72 482.48 59.03 479.72 59.95C478.8 59.95 476.95 59.03 476.95 57.18H478.8H476.03L476.02 57.2ZM383.77 53.51C381 61.81 381 71.96 383.77 79.34C385.62 88.57 393.92 94.1 398.53 100.56V91.33C400.38 80.26 404.99 70.11 404.07 58.12C403.15 67.35 394.84 72.88 394.84 81.18V92.25L392.99 86.71C392.07 74.72 382.84 66.41 383.76 53.5L383.77 53.51ZM573.8 52.58C575.65 62.73 569.19 71.03 566.42 80.26C565.5 83.03 566.42 87.64 563.65 90.41L564.57 85.8C566.42 73.81 555.34 67.35 553.5 57.2V64.58C554.42 76.57 562.73 86.72 560.88 99.64L567.34 90.41C576.57 81.18 579.33 64.58 573.8 52.59V52.58ZM476.94 45.2C471.4 45.2 465.87 47.97 462.18 51.66L465.87 53.51V54.43C465.87 56.28 465.87 54.43 466.79 54.43H469.56C469.56 56.28 471.41 54.43 471.41 54.43C471.41 54.43 473.26 54.43 472.33 52.58L474.18 50.73C474.18 54.42 476.95 50.73 476.95 52.58V45.2H476.94ZM480.63 45.2V51.66L483.4 52.58L487.09 49.81L488.01 50.73C488.01 54.42 485.24 55.34 483.4 57.19C486.17 54.42 487.09 59.04 488.94 57.19C488.94 54.42 493.55 55.34 494.48 52.58H492.63C492.63 50.73 494.48 50.73 494.48 49.81C490.22 47.37 485.52 45.8 480.64 45.2H480.63ZM452.03 42.44C449.51 45.24 447.34 48.34 445.57 51.67L441.88 66.43H445.57V63.66C445.57 61.81 446.49 58.12 450.18 58.12C451.1 58.12 450.18 56.27 450.18 56.27C452.95 56.27 453.87 53.5 455.72 52.58C457.57 52.58 457.57 49.81 459.41 49.81L452.03 42.43V42.44ZM507.38 42.44L498.15 52.59L499.07 53.51C499.07 53.51 499.07 50.74 500.92 50.74H507.38L510.15 54.43V56.28H512.92C514.77 56.28 514.77 57.2 515.69 58.13V59.05C515.69 60.9 513.84 60.9 514.77 61.82H515.69C518.46 59.97 516.61 57.21 515.69 55.36C515.69 53.51 512.92 52.59 512 51.67V49.82C512 47.05 509.23 45.21 508.31 42.44H507.38ZM442.81 33.21C433.58 42.44 428.97 54.43 428.05 66.42H438.2C438.2 57.19 442.81 47.97 449.27 40.59L441.89 33.21H442.81ZM481.55 30.44V39.67C488.01 40.59 494.47 43.36 498.16 47.05L505.54 40.59C499.08 35.05 490.78 31.36 481.55 31.36V30.44ZM477.86 30.44C468.63 30.44 461.25 35.05 454.8 39.67L461.26 47.05C465.87 43.36 471.41 40.59 477.87 40.59V30.44H477.86ZM394.84 27.68C391.17 32.25 388.64 37.62 387.46 43.36C385.61 55.35 392.07 64.58 393.92 74.73C395.77 61.81 410.53 53.51 411.45 38.75C406.84 47.05 396.69 50.74 394.84 59.97V64.58H393.92V58.12C395.77 47.97 390.23 36.9 395.77 27.68H394.84ZM563.66 26.75C568.27 33.21 565.51 43.36 565.51 51.66V62.73V58.12C562.74 48.89 552.59 45.2 548.9 37.82C548.9 40.59 548.9 42.43 550.75 45.2C554.44 55.35 564.59 62.73 566.43 73.8C567.35 62.73 575.66 55.35 571.97 42.43C571.05 36.89 568.28 31.36 563.67 26.75H563.66ZM431.74 23.99C420.84 35.56 414.31 50.56 413.29 66.43H424.36V57.2C427.13 47.97 431.74 38.75 439.12 31.37L431.74 23.99ZM526.75 23.99L519.37 30.45V32.3C523.06 34.15 523.98 36.91 526.75 38.76C526.75 40.61 529.52 42.45 529.52 45.22C533.21 51.68 534.13 59.06 535.06 66.44H544.29C543.37 48.91 536.91 35.07 525.84 23.08L526.76 24L526.75 23.99ZM443.73 30.44L451.11 37.82C457.57 31.36 466.79 26.75 476.94 26.75V17.52C464.75 18.05 453.07 22.59 443.73 30.44ZM510.15 16.61V18.46C512 18.46 512 21.23 513.84 20.31V17.54C512.92 16.62 511.07 17.54 510.15 17.54V16.61ZM480.63 16.61V26.76C488.93 26.76 496.31 29.53 502.77 34.14L501.85 32.29V29.52L504.62 32.29C509.23 32.29 506.47 37.83 510.16 39.67V41.52C512.01 41.52 512.93 42.44 512.93 44.29C512.93 46.14 515.7 44.29 516.62 44.29V47.06C517.54 47.06 516.62 47.98 516.62 48.91L518.47 49.83V55.37C520.32 57.22 518.47 59.06 518.47 60.91C516.62 60.91 516.62 64.6 513.86 63.68V66.45H517.55C515.7 63.68 518.47 60.91 519.4 57.22H521.25V66.45H530.48C530.31 60.13 529.06 53.89 526.79 48H524.02L520.33 43.39L517.56 42.47C514.79 42.47 515.71 38.78 513.87 39.7L511.1 36.93L510.18 32.32H507.41C506.49 33.24 505.56 32.32 505.56 31.4C504.64 30.48 505.56 29.55 505.56 27.71C503.71 26.79 504.64 23.1 501.87 22.17L488.03 17.56H480.65V16.64L480.63 16.61ZM397.6 23.99C392.99 32.29 397.6 42.44 395.75 51.67C397.6 47.98 401.29 44.29 404.98 42.44C411.44 36.9 417.9 29.52 418.82 21.22C414.21 30.45 401.29 32.29 398.52 43.36C403.13 34.13 400.37 22.14 409.59 15.68C404.98 16.6 400.36 20.29 398.52 24.91L397.6 23.99ZM547.97 14.76C555.35 18.45 554.43 26.75 557.2 33.21L559.05 42.44C555.36 31.37 543.37 30.45 538.75 20.3L540.6 25.84C543.37 37.83 557.21 40.6 562.74 50.75C560.89 43.37 563.66 35.07 561.82 27.69C559.97 21.23 554.44 15.7 547.98 13.85V14.77L547.97 14.76ZM488.93 8.3L484.32 10.15C484.32 10.15 481.55 10.15 482.47 11.07L485.24 12.92C488.01 11.07 491.7 12.92 494.47 11.07C493.55 8.3 490.78 8.3 488.93 8.3ZM428.05 6.46C421.59 8.31 415.13 11.07 410.52 15.69C406.83 21.23 405.91 26.76 404.06 31.37L409.6 26.76C417.9 21.22 419.75 12 428.05 6.46ZM529.52 5.54L534.13 10.15C539.67 17.53 546.12 25.83 552.58 30.45C552.58 27.68 551.66 23.99 549.81 21.22C547.04 11.99 536.89 8.3 529.51 5.54H529.52ZM433.58 22.14L441.88 29.52C451.11 20.29 463.1 14.76 476.94 13.84V5.54C460.33 5.54 446.5 12 433.58 23.07V22.14ZM480.63 3.69V12.92H481.55V14.77C486.16 14.77 490.78 14.77 495.39 16.62C500 16.62 503.69 22.16 508.31 19.39C509.23 21.24 511.08 19.39 512 22.16C513.85 22.16 514.77 24.01 515.69 24.93L517.54 28.62C519.39 25.85 521.23 23.08 524 22.16C514.79 13.49 503.25 7.72 490.79 5.55L481.56 3.7H480.64L480.63 3.69ZM539.67 36.9C552.74 60.28 550.94 89.14 535.06 110.7C517.47 133.91 487.36 143.82 459.41 135.61C423.09 125.48 401.86 87.83 411.99 51.51C416.9 33.91 428.66 19 444.65 10.14C463.1 -1.85 490.78 -2.78 510.15 8.29C522.14 13.83 534.14 24.9 539.67 35.97V36.9ZM1130.08 47.05C1151.17 46.43 1172.16 43.96 1192.81 39.67V0.92H1130.08V47.05ZM1250 47.05C1239.85 53.51 1227.86 58.12 1215.87 61.81V109.78C1235.01 94.46 1250.73 75.28 1262 53.51V39.67L1250.01 47.97M1192.81 124.54V70.11C1173.44 73.8 1152.22 76.57 1130.08 77.49V140.22C1152.22 138.37 1173.44 132.84 1192.81 123.61M1215.87 0V30.44C1232.41 25.35 1248 17.56 1262 7.38V0H1215.87Z" fill="black"/>
<path d="M1098.71 0.92H1036.9V38.74C1055.35 43.35 1076.57 46.12 1098.71 47.97V0M1012.92 30.44V0.92H966.79V8.3C981.11 18.17 996.61 26.23 1012.92 32.29M1098.71 78.41C1077.49 78.41 1056.27 74.72 1036.9 71.03V123.61C1055.35 132.84 1076.57 139.29 1098.71 141.14V78.41ZM1012.92 102.4V59.04C996.31 54.43 979.71 47.05 966.79 39.67V51.66C978.78 70.11 994.47 88.56 1012.92 101.48M1036.9 299.82V270.3H1098.71V240.78H1036.9V211.26H1098.71V162.37C1047.41 158.05 999.95 133.48 966.79 94.1V352.4H1097.79V300.74H1035.98" fill="black"/>
<path d="M1130.08 162.36V213.1H1190.04V241.7H1130.08V271.22H1190.04V300.74H1130.08V351.48H1263.84V94.1C1230.63 134.04 1182.76 158.97 1131 163.29" fill="black"/>
</svg>
