<svg width="1213" height="260" viewBox="0 0 1213 260" fill="none" xmlns="http://www.w3.org/2000/svg">
<g clip-path="url(#clip0_723_1250)">
<path d="M246.96 168.43V105.13C246.96 105.13 246.96 103.55 245.18 103.55C243.6 103.55 243.6 105.13 243.6 105.13V168.43C243.6 168.43 243.6 169.85 245.34 169.85C247.08 169.85 246.96 168.43 246.96 168.43Z" fill="black"/>
<path d="M0 259.84H1212.28V0H0V259.84ZM107.81 169.85C109.39 169.85 109.39 168.59 109.39 168.59V99.83H113.81V168.43C113.81 168.43 114.17 173.74 108.14 173.74C102.11 173.74 102.15 168.43 102.15 168.43V99.83H106.56V168.27C106.56 168.27 106.2 169.85 107.82 169.85M260.94 184.67H92.26V177.58H260.94V184.67ZM129.92 173.74V99.83H133.45L137.86 139.31V99.83H141.59V173.74H137.86L133.45 129.31V173.74H129.92ZM167.74 132.39V136.44H162.96V169.85H169.32V173.74H158.03V99.83H167.75V103.55H162.97V132.39H167.75H167.74ZM189.58 169.77C190.71 169.85 190.71 168.43 190.71 168.43V151.38C190.71 144.21 183.83 128.58 183.83 119.31V105.18C183.83 105.18 183.83 100.04 189.66 99.88C195.49 99.71 195.33 105.18 195.33 105.18V121.78H190.75V105.18C190.75 105.18 190.75 103.6 189.5 103.6C188.25 103.6 188.45 105.18 188.45 105.18V121.78C188.45 127.24 195.33 143.77 195.33 152.48V168.48C195.33 168.48 195.33 173.78 189.5 173.78C183.67 173.78 183.83 168.48 183.83 168.48V149.93H188.45V168.48C188.45 168.48 188.45 169.69 189.58 169.77ZM217.23 103.55C215.65 103.55 215.65 105.13 215.65 105.13V168.43C215.65 168.43 215.93 169.85 217.23 169.85C218.65 169.85 218.65 168.43 218.65 168.43V149.88H223.07V168.43C223.07 168.43 223.07 173.74 217.23 173.74C211.39 173.74 211.56 168.43 211.56 168.43V105.13C211.56 105.13 211.56 99.83 217.23 99.83C222.9 99.83 223.07 105.13 223.07 105.13V121.73H218.65V105.13C218.65 105.13 218.65 103.55 217.23 103.55ZM239.18 168.43V105.13C239.18 105.13 239.18 99.83 245.38 99.83C251.58 99.83 251.22 105.13 251.22 105.13V168.43C251.22 168.43 251.22 173.74 245.02 173.74C239.18 173.74 239.18 168.43 239.18 168.43ZM92.26 88.45H260.94V95.54H92.26V88.45ZM105.86 83.91L176.57 62.32L246.23 83.91H225.74L176.58 68.89L126.36 83.91H105.86ZM92.26 76.3L176.58 50.3L260.94 76.3V83.91L176.06 58.27L92.27 83.91V76.3H92.26ZM82.7 189.61H270.13V196.65H82.7V189.61ZM279.32 208.73H73.87V201.64H279.32V208.73ZM1204.96 252.51H353.15V7.33H1204.96V252.51Z" fill="black"/>
<path d="M1011.74 157.45C1006.36 162.8 999.22 165.75 991.61 165.75C975.89 165.75 963.1 152.95 963.1 137.24C963.1 121.53 975.86 108.73 991.61 108.73C999.14 108.73 1006.23 111.65 1011.62 116.95L1012.35 117.68L1025.31 90.1L1024.82 89.73C1015.02 82.81 1003.48 79.12 991.45 79.12C959.54 79.12 933.62 105.08 933.62 136.95C933.62 168.82 959.58 194.78 991.45 194.78C1003.43 194.78 1014.94 191.14 1024.74 184.21L1025.22 183.84L1012.47 156.7L1011.74 157.43V157.45Z" fill="black"/>
<path d="M1093.86 165.84C1078.19 165.84 1065.43 153.08 1065.43 137.41C1065.43 121.74 1078.18 108.98 1093.86 108.98C1109.54 108.98 1122.29 121.74 1122.29 137.41C1122.29 153.08 1109.53 165.84 1093.86 165.84ZM1093.7 79.38C1061.87 79.38 1035.95 105.3 1035.95 137.13C1035.95 168.96 1061.87 194.88 1093.7 194.88C1125.53 194.88 1151.45 168.96 1151.45 137.13C1151.45 105.3 1125.57 79.38 1093.7 79.38Z" fill="black"/>
<path d="M461.97 82.82V142.51C461.97 147.37 462.45 154.91 468.04 160.01C470.47 162.2 474.84 165.11 482.62 165.11C489.18 165.11 494.29 162.92 497.44 160.01C502.54 155.15 503.26 147.86 503.26 142.51V82.82H538.21V145.92C538.21 158.32 537 169.94 526.06 180.63C513.67 192.78 495.49 194.72 482.61 194.72C469.73 194.72 451.3 192.77 438.91 180.63C428.95 170.91 427.01 160.02 427.01 148.11V82.83H461.96L461.97 82.82Z" fill="black"/>
<path d="M565.36 82.82H600.31V95.7C611 82.09 623.6 79.9 633.8 79.9C643.28 79.9 655.67 81.6 664.86 90.83C675.06 101.04 675.79 113.88 675.79 122.62V191.06H640.84V135.49C640.84 128.45 640.6 119.49 635.01 113.9C632.33 111.23 627.96 109.04 621.69 109.04C614.4 109.04 609.78 111.96 607.11 114.87C601.28 120.7 600.31 128.48 600.31 135.48V191.08H565.36V82.79V82.82Z" fill="black"/>
<path d="M781.62 122.14C781.38 121.17 779.68 114.36 774.58 109.5C770.69 105.86 765.11 103.43 758.06 103.43C749.07 103.43 743.72 107.07 740.32 110.47C737.64 113.39 735.22 117.27 734.24 122.14H781.62ZM733.07 143C733.07 148.83 735.26 156.61 739.63 161.47C744.98 167.3 752.26 168.27 757.57 168.27C762.88 168.27 768.02 167.3 771.67 165.11C772.15 164.87 776.29 162.19 779.2 156.12L812.21 159.52C807.35 174.79 797.63 182.81 791.35 186.69C780.9 193.01 769.24 194.71 757.13 194.71C740.89 194.71 726.55 191.8 713.92 179.16C704.45 169.69 697.64 155.39 697.64 137.41C697.64 121.9 703.23 105.86 714.16 94.69C727.28 81.57 743.52 79.14 755.67 79.14C767.82 79.14 785.27 81.32 798.64 95.42C811.51 109.03 813.95 126 813.95 139.36V143H733.07Z" fill="black"/>
<path d="M902.03 110.48C896.68 107.32 889.64 104.41 882.87 104.41C879.23 104.41 875.09 105.38 872.91 107.56C871.69 108.78 870.72 110.72 870.72 112.42C870.72 114.85 872.42 116.3 874.12 117.28C876.55 118.74 880.19 119.47 884.57 120.93L893.8 123.84C899.87 125.79 906.19 128.21 911.74 133.32C918.06 139.15 920.25 145.71 920.25 153.98C920.25 168.32 913.94 177.51 909.07 182.37C898.38 193.06 885.25 194.72 873.88 194.72C859.3 194.72 843.54 191.56 829.45 179.21L844.27 155.68C847.67 158.6 852.53 162 856.18 163.7C861.04 166.13 866.14 167.1 870.76 167.1C872.95 167.1 878.54 167.1 881.7 164.67C883.89 162.97 885.35 160.3 885.35 157.63C885.35 155.68 884.62 153.26 881.46 151.31C879.03 149.85 875.87 148.88 870.77 147.43L862.02 144.75C855.71 142.8 849.15 139.4 844.53 134.79C839.42 129.44 836.75 123.37 836.75 115.11C836.75 104.66 840.88 95.95 847.2 90.12C856.92 81.13 870 79.19 879.96 79.19C895.96 79.19 907.13 83.32 915.89 88.42L902.04 110.49L902.03 110.48Z" fill="black"/>
</g>
<defs>
<clipPath id="clip0_723_1250">
<rect width="1212.29" height="259.84" fill="white"/>
</clipPath>
</defs>
</svg>
