<svg width="1173" height="535" viewBox="0 0 1173 535" fill="none" xmlns="http://www.w3.org/2000/svg">
<path fill-rule="evenodd" clip-rule="evenodd" d="M200.673 154.72C199.203 154.04 198.073 155.28 198.073 155.28L196.023 156.86C196.023 156.86 195.463 157.67 195.913 158.12C196.363 158.57 197.503 157.56 197.503 157.56L199.533 156.41L200.793 155.83C200.793 155.83 202.133 155.4 200.663 154.72H200.673ZM253.943 128.17C253.783 131.67 253.383 135.14 252.733 138.58C253.193 139.74 255.413 141.28 255.603 142.49C255.793 143.75 253.553 145.41 252.773 144.24C252.513 143.82 252.143 143.47 251.703 143.24C248.553 155.52 242.343 166.81 233.653 176.06L239.823 182.24C239.983 181.65 240.033 181.04 239.953 180.43C239.613 178.27 240.313 177.59 240.763 177.59C241.213 177.59 243.973 177.66 244.823 180.32C245.123 181.27 245.293 180.27 245.853 181.96C245.553 182.85 246.173 184.66 246.173 184.66C246.173 184.66 246.543 185.42 246.763 186.21C246.903 186.68 246.713 187.18 246.503 188.1C261.913 171.85 270.883 150.55 271.733 128.18H253.943V128.17ZM230.993 201.31C234.573 198.87 237.983 196.18 241.193 193.28L240.663 192.75C239.953 192.85 239.353 192.78 239.043 192.42C238.603 191.78 238.313 191.05 238.193 190.28L228.853 180.93C228.033 182.04 226.873 182.96 226.873 182.96L226.773 185.28C232.693 188.08 234.053 190.52 233.963 191.79C233.873 193.06 229.793 196.54 229.793 197.62C229.793 198.7 231.333 199.57 231.233 200.64C231.203 200.98 231.123 201.17 230.993 201.32V201.31ZM180.923 201.73V217.73C185.673 217.56 190.403 217.03 195.073 216.15C192.413 213.95 191.313 213.96 190.703 213.6C189.723 213.02 188.833 211.4 187.863 208.87C186.883 206.34 189.713 206.16 189.033 204.31C188.353 202.46 182.523 203.14 182.523 203.14C182.523 203.14 183.363 204.25 180.933 201.73H180.923ZM174.083 200.31C156.833 199.64 140.313 193.19 127.183 181.99C127.883 182.7 128.623 183.4 129.353 184.04C132.943 187.16 133.323 188.98 133.133 190.62C132.933 192.25 125.083 192.08 125.083 192.08L124.893 192.17C122.173 193.48 118.053 194.3 116.433 194.02C115.433 193.84 115.023 193.29 114.353 192.75L113.623 193.48C130.273 208.46 151.693 217.05 174.083 217.75V200.31ZM101.243 134.67C100.953 132.51 100.763 130.34 100.663 128.16H82.8733C83.1933 136.84 84.7233 145.22 87.3033 153.14C87.3833 153.13 87.4533 153.1 87.5233 153.06C88.2033 152.67 87.6233 152.28 87.9133 151.33C88.2133 150.37 89.0633 151.42 89.3533 150.75C89.6433 150.07 89.0633 149.77 89.0633 149.09C89.0633 148.41 89.9333 148.21 90.0333 147.63C90.1333 147.05 89.6433 148.02 89.4533 146.57C89.2633 145.11 90.2333 143.37 90.2333 143.18C90.2333 142.99 90.8233 141.76 91.6033 140.12C92.3833 138.48 95.4233 137.66 96.4533 136.57C96.6633 136.34 97.2633 134.43 99.0833 134.15C99.8433 134.02 100.633 134.21 101.253 134.68L101.243 134.67ZM100.653 121.32C101.453 103.33 108.713 86.24 121.083 73.16L108.623 60.71C92.8633 77.05 83.6933 98.64 82.8733 121.33H100.653V121.32ZM125.993 68.39C139.303 56.58 156.303 49.74 174.083 49.04V31.6C151.653 32.29 130.203 40.92 113.543 55.94L125.993 68.39ZM180.923 49.06C195.233 49.72 208.513 54.25 219.733 61.6C219.183 60.67 218.683 59.51 218.533 59.23C218.243 58.67 219.493 58.26 219.493 58.26C217.453 55.46 217.063 54.25 217.743 53.67C218.423 53.09 220.463 54.76 221.543 56.51C222.613 58.26 224.073 59.9 224.933 60.09C225.793 60.28 227.733 60.22 228.183 61.91C228.643 63.57 229.313 63.91 229.803 66.32C229.873 66.66 229.973 66.99 230.103 67.3L235.263 62.15C234.753 60.74 233.723 59.59 232.383 58.93L228.643 60.19C228.643 60.19 227.293 60.89 226.833 59.96C226.383 59.04 226.383 57.23 226.383 57.23C226.383 57.23 224.913 56.33 224.913 55.54C224.913 54.75 225.703 52.36 225.143 51.46C224.583 50.56 223.433 49.88 223.433 49.88C223.433 49.88 222.873 46.81 222.303 45.46C221.743 44.11 218.673 41.49 218.673 41.49C218.673 41.49 218.633 41.25 218.593 40.88C206.803 35.23 193.983 32.08 180.923 31.62V49.07V49.06ZM234.053 73.74C236.663 76.56 239.043 79.57 241.193 82.75C241.793 82.56 242.373 82.06 243.033 81.68C244.203 81.02 244.823 81.72 245.213 83.18C245.603 84.64 242.953 84.48 243.843 85.91C244.153 86.41 246.253 85.72 246.553 85.91C246.843 86.1 247.123 87.09 246.343 87.97C245.803 88.57 245.253 88.83 245.163 89.34C245.403 89.79 245.643 90.24 245.873 90.69C246.853 91.11 248.633 90.23 248.633 91.78C248.633 93.62 250.053 94.92 250.253 96.48C250.393 97.53 249.933 98.08 249.493 98.99C250.193 100.89 250.803 102.81 251.343 104.78C251.823 104.44 252.413 104.17 252.973 104.33C253.003 104.38 252.973 104.67 252.973 104.67C252.973 104.67 253.193 106.47 253.093 107.26C253.013 107.81 252.883 109.31 252.623 110.2C252.803 111.14 252.973 112.09 253.123 113.04C253.443 114.07 253.613 115.48 253.773 116.77L253.613 116.82C253.773 118.3 253.883 119.8 253.953 121.31H271.733C271.333 109.83 268.773 98.52 264.183 87.98C263.893 87.94 263.593 87.91 263.293 87.91C263.293 87.91 261.803 88.93 260.673 88.93C259.543 88.93 258.983 87.46 258.983 87.46C258.983 87.46 253.993 80.87 253.213 80.32C253.213 80.32 252.403 79.41 250.373 79.19C248.343 78.97 248.683 78.06 248.683 78.06C248.683 78.06 246.293 76.95 244.493 76.37L243.023 73.42C243.023 73.42 243.143 72.41 242.913 72.07C242.693 71.74 239.283 71.62 239.283 71.62C239.283 71.62 237.773 70.86 237.003 70.1L234.073 73.03C234.163 73.26 234.173 73.51 234.083 73.74H234.053ZM303.693 124.67C303.693 193.52 247.093 249.34 177.293 249.34C107.493 249.34 50.9033 193.52 50.9033 124.67C50.9033 55.82 107.493 0 177.293 0C247.093 0 303.693 55.81 303.693 124.68V124.67ZM177.613 103.61H177.293C175.743 103.61 174.223 103.77 172.783 104.07C173.143 104.23 173.513 104.45 173.303 105.03C172.913 106.1 174.083 108.81 174.083 108.81C172.343 112 166.213 113 166.213 113C165.143 113.78 165.633 115.12 164.283 115.9C162.943 116.68 162.433 117.16 161.753 118.14C161.073 119.12 161.263 120.07 160.873 121.24C160.483 122.41 161.363 123 161.063 123.77C160.773 124.55 160.383 127.06 159.893 127.75C159.413 128.43 158.353 127.45 157.673 127.26C156.993 127.07 156.603 123.68 156.213 123.19C156.113 123.06 156.023 123.1 155.923 123.2C155.793 125.14 155.923 127.08 156.323 128.98C157.183 128.66 157.003 128.34 157.283 128.33C159.413 128.2 158.063 129.69 159.033 129.69C160.003 129.69 160.583 129.26 160.683 127.31C160.783 125.36 162.543 125.25 163.123 125.34C163.703 125.44 163.203 126.76 163.493 127.15C163.783 127.55 164.463 127.24 164.463 128.4C164.463 129.56 162.253 130.96 161.963 132.79C161.673 134.62 161.153 135 160.373 135.12C159.283 135.27 159.493 133.06 158.883 134.11C158.433 134.87 160.283 137.05 160.283 137.05C161.213 136.35 161.913 135.4 162.323 134.32C162.723 133.45 163.593 133.57 164.573 132.98C165.543 132.4 165.623 129.49 165.523 128.81C165.433 128.13 166.613 128.28 171.283 128.05C176.233 127.81 175.713 129.3 175.443 130.64C175.173 131.99 176.103 130.35 176.103 131.81C176.103 133.27 174.373 134.63 173.883 135.88C173.393 137.13 174.563 137.25 173.983 137.83C173.403 138.41 173.103 139.1 173.103 139.1C170.583 142.02 170.383 140.27 168.833 140.95C167.293 141.63 165.523 141.33 165.523 141.33C165.213 141.45 164.903 141.55 164.593 141.66C169.183 144.99 174.903 146.37 180.503 145.52C181.003 143.11 181.823 139.15 183.693 138.13C185.833 136.96 187.963 138.71 189.033 138.23C190.103 137.74 190.393 136.78 190.693 136.09C190.983 135.41 191.663 133.47 191.183 132.12C190.693 130.75 189.723 131.34 189.423 130.36C189.133 129.38 191.243 129.37 190.203 128.04C188.623 126.03 188.943 124.55 188.363 124.06C187.783 123.58 187.383 124.16 186.703 123.28C186.023 122.4 187.003 121.72 187.093 120.75C187.183 119.77 188.753 119.58 188.553 118.72C188.353 117.86 187.483 118.62 187.283 117.55C187.093 116.48 187.973 114.92 187.973 114.92C187.973 114.92 185.463 114.95 185.173 114.08C184.883 113.2 183.323 111.04 181.563 110.17C179.803 109.3 176.973 109.88 176.973 109.88C176.563 108.52 174.483 107.08 174.483 107.08C172.843 104.86 173.903 105.13 174.773 104.16C175.643 103.19 177.383 104.26 177.673 103.96C177.763 103.85 177.723 103.73 177.603 103.6L177.613 103.61ZM251.023 56.07C255.003 60.24 258.623 64.74 261.843 69.52C262.713 70.41 264.263 71.88 264.533 72.98C264.673 73.52 264.713 73.88 264.813 74.21L265.633 75.62C265.743 75.75 265.863 75.89 266.003 76.05C267.353 77.53 267.713 78.28 268.623 80.11C268.983 80.87 269.193 81.7 269.243 82.54C274.973 94.7 278.163 107.9 278.603 121.33H296.823C295.963 91.12 283.563 63.73 263.793 43.32L251.033 56.08L251.023 56.07ZM183.503 24.88C198.403 25.77 212.433 29.83 224.903 36.4L228.403 34.94C228.403 34.94 227.253 34.71 228.963 35.06C230.673 35.39 230.113 35.17 232.143 35.85C234.173 36.53 234.273 35.85 235.083 36.19C235.893 36.53 236.113 37.9 237.133 38.69C238.143 39.48 237.923 38.81 239.273 39.48C240.623 40.16 242.343 42.17 242.793 43.09C243.243 44.01 244.033 42.64 244.823 47.28C244.823 47.28 246.403 48.96 247.333 50.1L258.873 38.55C237.553 18.95 209.873 7.71 180.923 6.91V21.58C181.093 21.44 181.363 21.44 181.763 21.7C183.013 22.49 183.573 22.38 183.453 23.73C183.423 24.09 183.463 24.49 183.503 24.87V24.88ZM108.693 51.09C126.653 34.79 149.843 25.45 174.083 24.75V6.88C145.093 7.58 117.333 18.75 95.9433 38.33L108.693 51.09ZM76.0133 121.32C76.8633 95.98 87.2633 73.03 103.783 55.86L91.0233 43.11C71.1433 63.53 58.6633 91.01 57.7933 121.32H76.0133ZM103.853 193.55C101.673 191.3 99.6033 188.94 97.6433 186.49C95.8733 185.83 95.9333 185.3 94.1033 183.83C92.0533 182.19 93.2133 180.61 92.3733 180.23C91.9733 180.05 91.9633 180.91 91.7733 181.21C91.5833 181.5 90.6033 181.64 89.4333 181.25C88.2633 180.85 87.1833 179.21 87.1833 179.21C85.1533 177.76 85.4833 175.86 85.0933 175.29C84.7033 174.71 83.4333 175.29 82.7733 175.09C82.1033 174.9 82.0933 173.73 81.4133 173.36C80.7333 172.99 79.6533 173.26 79.6533 173.26C79.2633 172.5 77.4333 169.85 77.1433 169.66C77.1433 169.66 77.1133 171.45 75.5533 171.45C73.9933 171.45 71.9033 168.12 71.2233 167.74C70.5433 167.35 70.1633 168.46 69.1933 167.8C68.2133 167.14 67.3333 163.74 67.2333 163.16C67.1333 162.58 66.4633 161.72 66.0833 160.75C65.6933 159.78 66.2233 154.78 66.4733 154.18C66.9833 152.95 67.4333 154.24 67.8233 152.29C68.2133 150.34 69.3433 150.48 70.2133 150.39C71.0833 150.3 71.4233 150.65 71.8133 151.34C72.2133 152.02 73.4433 151.43 74.0333 151.14C74.6133 150.85 74.0233 150.03 74.1233 149.55C74.2133 149.06 75.5033 149.29 76.3733 148.8C77.2433 148.32 78.6033 148.03 78.9133 148.86L79.0233 149.16C77.2733 142.29 76.2633 135.25 76.0233 128.17H57.8033C58.7033 158.46 71.2033 185.91 91.0933 206.32L103.833 193.55H103.853ZM174.083 224.6C149.873 223.9 126.713 214.58 108.773 198.33L96.0133 211.08C117.393 230.62 145.123 241.77 174.083 242.47V224.6ZM246.043 198.12C240.393 203.27 234.193 207.76 227.533 211.51L227.363 212.05C226.093 215.54 223.293 218.46 222.603 219.62C221.923 220.79 221.533 220.02 220.073 221.18C218.623 222.35 219.493 223.21 217.753 223.89C216.023 224.57 214.933 225.06 214.933 225.06C214.933 225.06 210.013 230.19 205.003 224.76C204.133 224.08 202.473 223.83 201.523 222.72L200.843 221.94C194.313 223.47 187.643 224.35 180.933 224.58V242.45C209.843 241.66 237.503 230.45 258.803 210.89L246.043 198.12ZM278.583 128.17C277.703 153.39 267.353 176.23 250.953 193.35L263.713 206.11C283.493 185.72 295.913 158.36 296.803 128.17H278.583ZM236.723 121.32H247.093C246.963 118.48 246.643 115.68 246.173 112.94C245.703 113.72 245.403 114.43 244.653 115.23C243.583 116.4 242.403 115.7 241.223 116.28C240.053 116.86 240.933 117.94 240.743 118.72C240.553 119.5 241.813 119.2 241.323 120.35C240.833 121.5 239.583 120.84 238.903 120.84C238.423 120.84 237.583 120.19 236.723 121.32ZM216.283 90.81C217.143 91.78 217.973 92.78 218.763 93.81C219.043 93.63 219.593 93.44 220.853 93.67C222.973 94.06 226.203 94.56 227.753 94.76C229.743 95.03 230.353 98.71 231.423 99.2C232.493 99.69 232.303 100.07 232.393 101.14C232.493 102.21 231.523 101.92 231.713 102.7C231.913 103.48 232.593 104.24 233.363 103.46C234.143 102.68 235.563 101.55 237.633 101.92C241.053 102.53 239.863 104.53 241.213 104.93C242.553 105.32 242.093 105.61 242.573 106.19C243.063 106.78 242.373 107.56 241.593 107.85C240.813 108.15 240.813 108.71 240.813 109.29C240.813 109.87 240.053 110.65 239.963 111.14C239.863 111.63 239.283 113.29 239.963 113.29C240.643 113.29 241.303 113.97 241.893 113.19C242.473 112.41 245.143 109.78 245.103 108.34V107.96C244.383 105.17 243.503 102.43 242.443 99.75C242.183 99.22 241.833 98.73 241.413 98.33C240.143 97.35 235.683 95.14 234.923 93.97C234.163 92.8 235.113 92.51 235.873 91.75C236.433 91.18 237.113 89.89 236.843 88.66C236.443 88.01 236.023 87.37 235.593 86.74C234.153 84.88 232.743 83 231.373 81.1C230.563 80.12 229.723 79.16 228.853 78.23L216.263 90.82L216.283 90.81ZM180.923 73.54C192.163 74.29 202.853 78.67 211.393 86.01L223.973 73.43C212.033 62.86 196.853 56.69 180.923 55.91V73.54ZM143.423 85.83C152.043 78.52 162.803 74.19 174.083 73.52V55.9C158.113 56.58 142.853 62.7 130.843 73.24L143.423 85.82V85.83ZM134.813 95.2C135.953 93.59 137.193 92.06 138.513 90.6L125.923 78.01C114.833 89.8 108.303 105.16 107.503 121.32H115.273C114.983 121.03 114.303 119.87 114.503 119.01C114.693 118.16 114.013 115.02 114.203 114.53C114.393 114.04 115.183 113.48 115.563 112.89C115.963 112.31 115.563 111.43 115.833 111.04C116.113 110.65 116.803 109.77 117.393 109.09C117.973 108.41 117.823 106.61 119.483 105.84C121.143 105.06 121.463 105.99 122.633 105.8C123.803 105.61 123.703 104.14 123.703 104.14C123.703 104.14 123.263 103.63 123.933 102.48C124.613 101.33 128.753 100.36 128.753 100.36C128.753 100.36 128.653 99.29 131.183 97.27C132.773 95.99 134.063 95.43 134.783 95.2H134.813ZM125.483 121.32C125.533 120.57 125.593 119.82 125.673 119.09C125.033 118.77 124.323 118.61 123.613 118.63C121.733 118.63 120.103 119.77 120.213 121.33H125.483V121.32ZM113.343 128.17H107.513C107.733 132.49 108.353 136.7 109.333 140.77C110.313 140.32 110.183 139.78 110.273 139.13C110.373 138.45 111.273 138.6 111.573 138.02C111.863 137.44 111.763 137.44 111.463 137.14C111.173 136.85 110.223 136.16 110.023 135.11C109.833 134.06 110.583 133.16 110.983 131.99C111.383 130.82 110.923 130.46 111.503 129.4C112.073 128.39 111.703 129.41 113.343 128.16V128.17ZM138.583 158.83C132.563 152.21 128.393 144.12 126.503 135.37C126.353 135.29 126.233 135.17 126.143 135.02C125.383 133.68 124.203 134.15 124.203 134.15C124.203 134.15 123.713 137.93 123.713 138.12C123.713 138.31 123.383 140.25 122.503 140.15C121.623 140.05 121.273 139.09 121.273 139.09C121.273 139.09 119.893 139.23 119.693 138.75C119.503 138.26 118.363 137.05 119.543 135.98C120.713 134.91 120.613 137.05 121.473 135.89C122.333 134.72 120.383 129.85 121.873 129.7C122.843 129.6 124.303 131.92 124.693 132.02C125.093 131.98 125.493 131.86 125.853 131.68C125.693 130.52 125.573 129.35 125.493 128.18H117.813C117.443 129.02 117.653 131.86 116.923 132.31C116.143 132.79 113.313 131.8 113.003 133.62C112.573 136.21 113.943 135.06 113.943 136.9C113.943 138.74 113.043 137.56 113.633 139.3C114.213 141.06 117.013 141.62 117.513 143.66C118.003 145.7 118.783 146.66 118.973 147.15C119.163 147.63 117.803 148.7 118.673 150.17C119.553 151.63 120.413 153.99 120.213 154.77C120.023 155.55 120.033 157.92 120.913 161.62C121.793 165.32 121.873 162.89 123.143 165.3C123.803 166.55 123.923 167.92 123.863 169.04C124.563 169.85 125.273 170.64 126.003 171.42L138.583 158.84V158.83ZM165.603 174.62C157.453 172.77 149.873 168.98 143.503 163.58L130.923 176.16C140.823 184.82 152.963 190.53 165.943 192.61C163.853 191.47 162.403 190.65 162.343 190.51C162.153 190.02 161.563 188.88 159.613 186.54C157.663 184.2 158.083 182.57 158.083 182.57C159.443 182.08 159.813 181.3 159.813 181.3C159.813 181.3 160.603 177.79 162.383 176.37C163.193 175.71 164.333 175.13 165.613 174.62H165.603ZM205.913 167.46C205.143 167.96 204.373 168.43 203.573 168.89C203.633 168.93 203.703 168.95 203.763 168.98C205.203 169.47 210.663 170.15 212.213 171.51C213.773 172.87 216.683 173.36 216.683 173.36C218.673 173.12 219.993 173.02 220.893 172.98L218.623 170.71C217.143 170.29 215.883 169.65 215.713 169.57C213.423 168.42 213.963 170.05 211.833 168.89C210.363 168.07 207.513 167.65 205.913 167.47V167.46ZM245.363 140.31C246.293 136.38 246.883 132.32 247.093 128.16H236.553C237.273 128.91 238.143 129.4 238.623 129.88C239.693 130.95 239.303 132.19 239.503 133.27C239.693 134.34 240.593 134.23 242.323 135.87C244.063 137.51 243.863 139 244.643 139.97C244.813 140.2 245.083 140.33 245.363 140.31ZM218.433 155.97C218.043 156.47 217.643 156.96 217.233 157.44C217.353 157.38 217.463 157.32 217.573 157.24C218.543 156.58 219.203 157.71 219.883 156.66C220.563 155.61 220.563 154.71 221.153 153.83C221.733 152.96 223.593 152.76 224.733 152.85C225.883 152.95 225.803 152.46 226.483 154.51C227.163 156.56 226.943 158.35 226.943 158.35C227.483 158.78 225.943 160.39 225.813 163.72C225.733 165.51 224.823 164.37 224.933 166.64L224.613 166.99L225.863 168.25C225.993 168.03 226.133 167.77 226.283 167.42C227.063 165.69 228.133 164.79 228.713 165.67C229.083 166.23 229.533 168.04 229.923 169.94C236.323 162.73 241.133 154.25 244.043 145.06L243.553 145.2C242.853 145.2 240.493 145.77 238.313 146.04C236.163 146.32 234.203 146.3 234.203 146.3C234.203 146.3 232.973 145.2 232.493 145.89C232.013 146.57 231.623 148.6 229.783 148.21C227.943 147.82 228.913 145.89 228.333 145.69C227.753 145.5 228.423 146.48 227.753 147.52C227.073 148.57 225.223 151.22 224.933 151.81C224.633 152.39 220.953 152.57 220.463 153.45C220.073 154.16 219.423 155.38 218.433 155.97ZM203.323 145.73L208.413 150.82C208.603 149.77 207.733 147.76 207.733 147.76L205.423 146.69L204.513 146.11L204.973 144.99L204.393 144.75L203.313 145.74L203.323 145.73ZM200.303 162.88C201.063 162.44 201.813 161.97 202.543 161.48C201.783 161.42 200.873 161.65 200.583 162.4C200.513 162.57 200.413 162.73 200.303 162.88ZM148.363 158.73C154.653 163.91 162.383 167.45 170.903 168.64L170.953 169.49C172.473 170.52 174.513 170.25 175.723 168.88C176.963 167.71 176.693 168.57 177.573 168.39C177.573 168.39 178.413 166.99 179.283 165.8C180.123 165.41 180.493 164.24 180.843 164.12L180.923 168.94C186.813 168.48 192.553 166.88 197.823 164.22C196.853 164.1 195.603 162.62 195.283 162.53C194.673 162.38 195.723 164.33 195.823 164.81C195.913 165.3 193.173 166.18 192.943 165.8C192.043 164.32 190.613 164.11 190.583 164.42C190.363 166.83 189.313 166.18 189.313 166.18C186.983 162.79 186.213 164.95 185.043 163.69C183.873 162.43 183.293 162.97 183.293 162.97C182.443 162.88 181.753 163.78 180.923 164.1C180.493 164.25 180.113 165.42 179.283 165.81C178.413 167.01 177.573 168.4 177.573 168.4C176.703 168.57 176.963 167.72 175.723 168.89C174.513 170.27 172.473 170.53 170.953 169.5C170.953 169.21 170.933 168.93 170.903 168.65C170.853 167.95 170.763 167.35 170.783 166.79C170.913 163.54 171.413 162.61 171.543 162.4C171.923 161.8 173.063 162.08 174.063 162.12V158.09L173.943 157.53C173.883 157.29 173.923 157.04 174.063 156.84V152.42C169.023 151.86 164.223 149.96 160.173 146.92L148.353 158.74L148.363 158.73ZM149.573 130.11C149.483 129.68 149.413 129.25 149.343 128.82C148.833 129.36 147.213 129.14 147.403 129.88C147.483 130.16 148.393 130.2 149.573 130.11ZM133.643 135.79C135.423 142.54 138.773 148.76 143.423 153.97L155.253 142.14C154.743 141.52 154.273 140.88 153.823 140.22C153.783 140.22 153.743 140.23 153.703 140.25C152.653 140.74 153.413 142.18 152.823 142.67C152.183 143.19 151.683 143.86 151.373 144.62C151.073 145.4 149.133 147.23 148.183 146.28C147.223 145.33 147.943 140.87 146.623 140.75C146.043 140.7 146.333 141.14 146.623 142.87C146.913 144.61 145.753 143.75 145.173 143.45C144.583 143.16 144.193 142.87 142.753 141.6C141.323 140.33 142.363 139.48 142.363 139.48C142.363 139.48 141.193 138.5 140.803 138.6C140.413 138.69 140.613 139.48 139.633 139.09C138.653 138.69 138.653 136.94 138.653 136.94C138.653 136.94 137.703 136.97 135.243 136.2C134.713 136.05 134.183 135.91 133.643 135.8V135.79ZM174.083 80.38C164.613 81.03 155.593 84.63 148.283 90.69L155.083 97.49C156.293 97.64 156.073 98.64 157.393 99.02C158.763 99.41 158.663 98.73 159.713 98.63C160.763 98.54 160.103 99.21 160.493 99.8C160.883 100.38 161.663 99.41 161.663 99.41C162.733 98.73 162.443 99.89 163.803 99.31C165.173 98.73 164.383 97.95 165.053 97.09C165.723 96.23 165.533 95.73 165.533 94.75C165.533 93.77 166.803 92.81 167.293 92.14C167.783 91.47 168.363 91.56 168.853 92.31C169.333 93.07 168.273 93.57 168.563 94.16C168.793 94.63 170.833 93.94 174.093 93.46V80.38H174.083ZM205.423 89.96C198.383 84.42 189.863 81.1 180.933 80.41V93.41C183.653 93.87 185.643 94.74 185.643 94.74C185.643 94.74 186.093 94.61 186.133 94.55C187.673 91.76 189.713 92.14 190.303 91.75C190.883 91.35 190.693 90.77 191.473 89.99C192.253 89.21 193.503 90.18 193.693 90.87C193.883 91.55 193.983 94.45 192.343 96.89C191.443 98.2 190.153 98.8 188.983 99.24C191.043 100.16 192.973 101.32 194.733 102.69L196.003 101.42C196.123 101.03 196.223 100.76 196.223 100.76C196.223 100.76 196.763 100.41 197.563 99.86L203.233 94.19C203.043 94.17 202.863 94.1 202.733 93.97C202.063 93.39 200.293 93.19 203.683 90.97C204.343 90.54 204.923 90.21 205.433 89.97L205.423 89.96ZM212.553 96.99C212.183 96.54 211.813 96.09 211.423 95.65L210.193 96.89C210.833 97.68 212.053 98.98 211.733 98.42C211.413 97.88 212.113 98.02 212.553 96.99ZM233.843 31.41C234.633 30.73 234.873 31.64 235.783 31.86C236.683 32.08 236.683 31.28 238.033 31.86C239.383 32.44 239.723 33.46 239.843 34.36C239.953 35.26 240.543 36.05 240.773 36.73C241.003 37.4 239.283 38.31 238.263 37.74C237.253 37.18 236.123 35.37 236.123 35.37L233.393 33.34C233.393 33.34 233.053 32.09 233.843 31.41ZM182.673 20.09C182.673 20.09 183.353 19.08 184.023 19.3C184.703 19.53 186.273 19.64 186.273 19.64L190.243 18.17L193.423 16.82L194.663 16.14C194.663 16.14 199.213 15.22 203.613 18.84L204.823 19.83L203.613 18.5C203.613 18.5 207.033 21.59 204.823 19.83L204.413 20.98C204.413 20.98 201.573 22.7 200.563 22.92C199.543 23.15 197.853 22.7 197.853 22.7L195.463 22.36L190.373 23.71C190.373 23.71 187.083 24.07 185.273 22.7C184.513 22.09 183.723 21.52 182.903 20.98L182.663 20.08L235.453 75.29C236.153 76.01 238.213 78.62 239.093 79.6C239.243 79.77 239.353 79.98 239.393 80.2C238.153 78.51 236.833 76.88 235.453 75.3L182.663 20.09H182.673Z" fill="black"/>
<path fill-rule="evenodd" clip-rule="evenodd" d="M242.323 256.42C243.023 256.5 252.193 254.64 266.453 253.11C280.713 251.58 286.443 252.2 296.763 249.6C308.123 246.72 313.843 240.71 316.803 237.42C316.803 237.42 317.583 237.06 317.353 237.77C317.123 238.47 310.063 252.05 293.633 260.28C277.203 268.51 259.663 266.48 255.393 265.59C251.133 264.71 244.913 262.81 238.523 261.08C232.143 259.34 223.813 257.65 219.863 257.82C219.863 257.82 219.343 257.01 220.713 256.8C222.823 256.48 230.893 254.69 235.983 252.42C244.993 248.37 252.463 239.47 258.423 233.85C264.383 228.24 274.233 218.28 279.963 215.75C279.963 215.75 280.433 215.79 279.963 216.42C279.503 217.05 275.273 222.82 273.023 228.42C270.773 234.01 267.993 239.88 263.763 244.63C259.513 249.38 253.633 253.52 242.303 255.99C242.303 255.98 241.603 256.37 242.303 256.43L242.323 256.42ZM343.973 194C343.893 194.08 342.053 210.99 325.753 225.74C313.443 236.89 303.063 241.09 297.243 242.52C291.633 243.91 285.273 244.67 279.993 245.71C274.713 246.74 266.863 248.8 265.303 249.59C265.303 249.59 264.753 249.79 265.073 249.27C265.373 248.76 267.463 247.96 273.233 240.32C278.993 232.67 283.913 215.25 283.913 215.25C283.913 215.25 286.813 206.24 289.793 200.1C292.783 193.95 302.273 180.5 304.113 179.13C304.113 179.13 304.963 178.66 304.893 179.2C304.813 179.75 302.683 183.43 301.423 189.33C299.343 199.05 298.853 209.17 297.623 213.05C296.383 216.93 294.353 224.06 289.533 230.03C284.043 236.82 284.073 235.98 279.783 239.94C278.933 240.49 279.943 240.33 279.943 240.33C279.943 240.33 284.353 237.8 287.523 235.37C290.683 232.94 294.273 229.78 300.323 226.13C306.373 222.48 312.843 220.88 324.703 213.92C336.563 206.96 340.903 199.21 343.353 194.01C343.353 194 343.893 192.94 343.973 194ZM316.123 143.46C316.123 143.46 315.373 148.83 315.933 152.7C316.493 156.57 320.713 172.52 320.513 181.12C320.303 189.72 318.243 197.19 312.923 204.91L313.323 205.14C313.323 205.14 322.383 192.4 326.703 186.8C331.033 181.19 340.153 172.74 344.543 167.85C349.033 162.87 352.863 155.77 354.473 146.15H354.783C354.783 146.15 357.133 160.7 351.123 174.45C345.113 188.19 338.763 193.3 334.433 197.34C330.103 201.39 317.253 209.99 310.883 213.65C304.523 217.31 299.653 221.35 299.653 221.35C299.653 221.35 299.193 221.23 299.183 221C299.183 220.77 304.163 211.56 305.463 205.96C306.773 200.37 307.913 191.1 308.283 184.06C308.643 177.02 310.813 151.46 315.543 143.51L316.133 143.47L316.123 143.46ZM313.833 103.69C313.673 103.14 312.973 102.6 312.893 103.78C312.813 104.95 312.773 116.19 316.263 130.31C318.533 139.52 324.423 159 325.163 161.71C326.423 166.35 326.153 176.88 325.073 180.67C325.073 180.67 325.153 181.76 325.703 181.13C326.243 180.51 331.963 170.96 335.193 167.39C338.423 163.82 346.193 154.22 348.363 149.17C350.533 144.12 355.403 133.15 354.663 117.43C353.983 103.2 349.863 94.73 349.863 94.73C349.863 94.73 349.243 94.33 349.393 94.88C349.553 95.43 350.423 101.86 349.573 107.6C348.733 113.36 347.493 117.13 344.143 124.29C341.393 130.21 338.923 136.25 336.713 142.39C335.793 145.17 334.663 151.69 333.973 156.31C333.283 160.93 331.303 164.33 331.303 164.33L330.803 163.93C330.803 163.93 332.723 160.22 333.183 152.04C333.653 143.6 330.233 134.86 327.823 130.79C324.013 124.29 314.183 110.02 313.843 103.65L313.833 103.69ZM330.643 49.49C330.093 48.87 330.323 49.83 330.323 49.83C330.323 49.83 335.183 56.66 334.993 68.62C334.803 80.58 333.093 81.15 332.813 91.7C332.533 102.26 334.123 115.23 334.123 115.23H333.493C333.493 115.23 333.253 108.54 329.733 100.78C325.723 91.95 308.933 78.49 308.933 78.49C308.933 78.49 303.243 72.99 302.693 69.98C302.223 69.24 301.793 69.86 301.793 69.86C301.793 69.86 303.133 78.39 307.903 89.01C312.673 99.63 323.513 110.17 326.693 116.38C329.883 122.59 331.753 123.32 334.133 135.19L334.683 135.27C334.683 135.27 334.763 130.12 338.513 119.16C342.273 108.2 343.073 109.21 345.073 99.12C347.073 89.03 345.613 78.79 344.973 76.71C344.353 74.64 340.683 60.24 330.633 49.48L330.643 49.49ZM328.573 92.55C328.573 92.55 326.523 88.06 322.323 83.66C320.243 81.48 316.733 77.68 312.363 74.16C307.913 70.57 302.853 67.41 299.643 64.45C293.193 58.51 286.173 47.51 286.383 37.66C286.383 37.66 289.503 43.6 293.733 47.76C297.973 51.93 308.323 57.64 312.593 61.58C316.873 65.51 321.403 70.64 323.273 76.92L324.033 76.9C324.033 76.9 319.423 64.82 318.313 60.33C317.203 55.84 316.223 48.38 313.553 41.08C310.993 34.1 307.783 30.66 303.163 27.62C303.013 27.62 303.583 27.24 303.583 27.24C303.583 27.24 321.373 29.93 328.223 53.49C330.203 60.3 328.093 76.04 328.513 82.26C328.923 88.48 329.133 92.56 329.133 92.56H328.583L328.573 92.55ZM268.623 10.83C268.623 10.83 274.113 12.73 280.263 15.04C286.333 17.34 293.343 20.77 298.383 26.3C306.713 35.41 308.813 43.54 310.783 50.41C311.483 52.84 312.953 56.4 313.243 56.32C313.533 56.24 313.053 56.84 313.053 56.84C313.053 56.84 297.373 44.47 292.743 39.2C288.213 34.05 282.613 24.59 278.563 20.58C274.523 16.57 268.623 10.83 268.623 10.83ZM67.8233 268.21C67.8233 268.21 83.0433 285.89 106.043 285.97C124.143 286.04 136.683 276.06 136.683 276.06C136.683 276.06 149.863 266.63 156.673 263.23C162.353 260.39 170.863 262.73 170.863 262.73C170.863 262.73 161.473 266.18 152.293 272.83C142.973 279.59 139.863 281.82 130.803 290.93L138.603 297.48C138.603 297.48 144.213 289.57 154.963 280.3C165.703 271.04 171.863 267.65 178.553 264.94C178.553 264.94 200.293 274.8 218.123 297.3L225.963 290.71C225.963 290.71 208.053 272.32 186.073 262.86C186.073 262.86 188.163 261.59 197.573 262.51C201.713 262.92 205.573 266.21 210.143 269.4C214.703 272.59 223.443 278.62 229.493 281.19C235.543 283.76 243.513 285.34 250.073 285.52C256.643 285.7 275.173 283.11 288.643 267.31C288.643 267.31 288.553 266.81 288.183 266.99C279.843 271.18 275.423 274.4 261.763 274.05C254.373 273.88 245.153 271.73 233.293 266.34C221.423 260.94 213.583 257.35 199.773 257.24C185.973 257.11 179.443 259.51 178.113 260.06C178.113 260.06 171.793 257.14 159.323 257.02C146.853 256.9 135.653 260.61 128.643 263.99C121.633 267.37 108.203 274.86 92.6733 274.81C77.9733 274.76 68.6833 267.81 68.3833 267.72C68.0733 267.64 67.8333 268.19 67.8333 268.19L67.8233 268.21ZM114.233 257.04C113.523 257.12 104.193 255.17 89.9233 253.63C75.6633 252.09 69.3633 252.93 59.0433 250.32C47.6833 247.44 42.1133 241.69 39.1433 238.4C39.1433 238.4 38.3633 238.04 38.5933 238.75C38.8233 239.46 45.8933 252.88 62.3333 261.11C78.7633 269.35 97.1033 266.87 101.363 265.99C105.633 265.1 111.853 263.21 118.233 261.47C124.613 259.74 132.953 258.05 136.893 258.21C136.893 258.21 137.413 257.41 136.033 257.19C133.923 256.87 128.343 256.71 120.773 252.8C108.313 246.4 103.813 240.23 97.8433 234.62C91.8833 229.01 81.7533 219.23 76.0133 216.71C76.0133 216.71 75.5433 216.76 76.0133 217.38C76.4833 218 80.6833 223.61 82.9333 229.21C85.1833 234.8 88.1333 240.4 92.3833 245.15C96.6333 249.9 102.903 254.1 114.243 256.56C114.243 256.56 114.933 256.94 114.243 257.02L114.233 257.04ZM11.6633 195.18C11.7433 195.26 13.8733 212.2 30.1633 226.95C42.4733 238.1 53.8033 242.4 59.6933 243.67C65.3533 244.89 71.5833 245.63 76.8533 246.67C82.1333 247.7 89.4733 249.49 91.0433 250.27C91.0433 250.27 91.5833 250.48 91.2733 249.97C90.9533 249.45 88.9033 248.5 83.1433 240.87C77.3733 233.22 72.1233 215.77 72.1233 215.77C72.1233 215.77 69.8033 208.77 66.8133 202.62C63.8233 196.47 53.3633 181.43 51.5333 180.05C51.5333 180.05 50.6733 179.58 50.7533 180.13C50.8333 180.68 52.9233 184.09 54.1633 190C55.3933 195.91 57.1833 209.9 58.4133 213.78C59.6533 217.65 61.8233 225.16 66.6433 231.12C72.1333 237.9 72.1333 236.97 76.4233 240.93C77.2733 241.48 76.2633 241.32 76.2633 241.32C76.2633 241.32 71.4233 238.6 68.2633 236.17C65.1033 233.74 63.8533 232.16 57.8133 228.51C51.7633 224.85 43.4133 221.97 31.5433 215.01C19.6833 208.05 14.7433 200.41 12.3033 195.2C12.3033 195.2 11.7633 194.14 11.6833 195.2L11.6633 195.18ZM38.7733 144.69C38.7733 144.69 39.6933 150.2 39.1333 154.07C38.5733 157.94 34.7633 173.63 34.9733 182.24C35.1833 190.84 37.4933 198.36 42.8233 206.08L42.4333 206.31C42.4333 206.31 33.3633 193.57 29.0433 187.96C24.7233 182.35 15.3233 174.3 11.1933 169.01C7.07328 163.72 2.32328 157.25 0.713277 147.63H0.413277C0.413277 147.63 -1.66672 161.92 4.34328 175.67C10.3533 189.41 16.8633 194.6 21.1833 198.64C25.5133 202.68 38.5033 211.13 44.8633 214.78C51.2233 218.44 56.0933 222.49 56.0933 222.49C56.0933 222.49 56.5633 222.37 56.5633 222.13C56.5633 221.89 51.5833 212.69 50.2833 207.1C48.9733 201.5 47.8333 192.23 47.4633 185.19C47.0933 178.15 44.2933 152.45 39.5433 144.5L38.7633 144.67L38.7733 144.69ZM40.9133 104.23C41.0733 103.68 41.7733 103.14 41.8533 104.31C41.9333 105.48 41.0433 121.74 38.9833 131C36.9233 140.26 30.7133 159.67 30.0733 162.41C29.4433 165.14 29.0833 177.57 30.1633 181.36C30.1633 181.36 30.0833 182.45 29.5333 181.83C28.9933 181.2 23.1133 172.07 19.8933 168.5C16.6633 164.93 8.71328 155.14 6.54328 150.08C4.37328 145.02 -0.936723 131.17 0.143277 115.5C1.21328 99.83 4.78328 96.04 4.78328 96.04C4.78328 96.04 5.41328 95.65 5.24328 96.2C4.58328 100.3 4.51328 104.48 5.05328 108.6C5.89328 114.35 7.74328 120.26 11.4333 127.03C15.1233 133.81 17.3333 140.97 18.2533 143.75C19.1833 146.53 20.5633 152.4 21.2633 157.02C21.9533 161.63 23.9333 165.04 23.9333 165.04L24.2433 164.89C24.2433 164.89 22.2633 161.21 22.0533 152.76C21.8433 144.31 23.9033 138.19 27.4033 131.51C30.9033 124.84 40.5733 110.6 40.9133 104.23ZM23.1133 50.68C23.6633 50.06 24.0133 50.76 24.0133 50.76C24.0133 50.76 19.1033 56.73 19.2933 68.69C19.4833 80.66 21.5133 82.74 21.7833 93.29C22.0633 103.85 20.5333 116.5 20.5333 116.5H21.1533C21.1533 116.5 21.0233 109.69 25.3133 100.99C29.6033 92.29 46.1133 78.7 46.1133 78.7C46.1133 78.7 51.1733 73.56 51.7333 70.55C52.2033 69.81 52.5133 70.71 52.5133 70.71C52.5133 70.71 51.7033 78.41 46.9433 89.03C42.1733 99.65 32.1633 109.94 28.9733 116.14C25.7833 122.34 23.0833 124.65 20.6933 136.52L20.1433 136.59C20.1433 136.59 19.7733 131 16.0233 120.04C12.2633 109.08 11.3233 110.72 9.33328 100.62C7.33328 90.53 8.85328 79 9.48328 76.93C10.1133 74.86 13.0633 61.42 23.1133 50.66V50.68ZM25.8933 93.62C25.8933 93.62 27.9433 89.13 32.1433 84.73C34.2233 82.55 37.7333 78.76 42.1033 75.23C46.5533 71.64 51.6633 68.03 54.8833 65.08C61.3333 59.14 67.3733 48.19 67.1733 38.35C67.1733 38.35 64.7633 44.2 60.5333 48.37C56.3033 52.54 45.8833 58.56 41.6033 62.49C37.3233 66.42 32.6233 71.77 30.7533 78.06L30.4333 77.98C30.4333 77.98 34.8133 65.64 35.9233 61.15C37.0333 56.66 38.0433 49.15 40.7133 41.85C43.2833 34.87 46.1033 31.7 50.7233 28.67C50.8733 28.67 50.6533 28.2 50.6533 28.2C50.6533 28.2 32.4633 30.87 25.6133 54.42C23.6333 61.23 26.1633 77.25 25.7433 83.47C25.3233 89.68 25.3233 93.63 25.3233 93.63H25.8633L84.4033 11.84C84.4033 11.84 80.1333 13.31 73.9933 15.63C67.9233 17.92 60.5433 21.51 55.5033 27.03C47.1733 36.14 45.0333 44.6 43.0633 51.46C41.9833 55.21 40.9733 57.82 40.9733 57.82C40.9733 57.82 56.6433 45.45 61.2733 40.19C65.8033 35.04 71.2533 25.17 75.2933 21.16C79.3333 17.14 84.4033 11.85 84.4033 11.85L25.8933 93.62ZM751.543 25.87H870.933V81.32H818.483V113.43H865.743V165.22H818.483V249.67H751.543V25.87ZM580.173 25.87H646.533L677.563 113.43V25.87H741.903V249.67H679.353L642.243 153.05V249.67H580.173V25.87ZM410.253 25.87H477.673V178.62C477.673 178.62 477.673 192.6 491.443 192.6C505.213 192.6 505.023 178.64 505.023 178.64V25.87H570.573V192.59C570.573 228.67 530.233 253.18 491.443 253.18C452.653 253.18 410.303 226.64 410.293 192.59L410.253 25.87ZM337.003 452.23C337.003 450.29 336.803 448.35 338.333 446.92C339.973 445.49 343.743 445.7 345.773 445.7C357.103 445.7 361.383 449.16 361.383 460.7C361.383 474.36 355.063 477.02 342.603 477.02H336.993V452.22L337.003 452.23ZM348.223 514.06V508.65H344.963C343.533 508.54 342.003 508.76 340.573 508.33C340.063 508.24 339.543 508.24 339.043 508.13C338.533 507.94 338.073 507.63 337.713 507.21C336.793 506.4 337.003 504.04 337.003 502.92V482.4L347.513 482.59C361.703 482.8 380.783 479.73 380.783 461.58C380.783 454.85 378.843 449.73 373.333 445.66C367.613 441.47 361.593 440.86 354.763 440.55C353.333 440.43 351.903 440.36 350.473 440.34H308.223V445.75C311.083 445.86 314.143 445.55 316.893 446.26C317.393 446.37 317.833 446.67 318.123 447.08C318.533 447.38 318.723 448 318.833 448.51V502.58C318.833 506.05 318.833 508.4 314.543 508.5C312.403 508.61 310.353 508.61 308.223 508.61V514.02H348.223V514.06ZM412.473 515.6C427.273 515.6 440.223 505.59 440.223 490.19C440.223 474.79 427.363 464.58 412.573 464.58C405.133 464.58 398.903 466.62 393.183 471.21C387.613 475.73 384.353 482.51 384.303 489.68C384.303 505.49 397.063 515.6 412.473 515.6ZM411.963 469.67C421.963 469.67 422.673 482.83 422.673 490.08C422.673 496.41 422.063 510.49 413.083 510.49C402.273 510.49 401.863 498.05 401.863 490.19C401.863 483.65 402.573 469.67 411.963 469.67ZM479.073 471.61C487.953 471.61 488.363 483.35 488.363 489.78C488.363 496.21 487.133 508.85 478.053 508.85C468.973 508.85 467.343 498.13 467.343 491.31C467.343 483.64 468.973 471.6 479.073 471.6V471.61ZM443.263 466.62V471.82H445.203C450.913 472.01 451.733 472.44 451.733 478.24V525.3C451.733 526.22 451.843 527.13 451.633 528.05C451.433 528.35 451.323 528.77 451.123 529.07C450.813 529.16 450.613 529.48 450.303 529.58C448.163 529.88 446.023 529.88 443.873 529.88V534.99H476.733V529.88H473.563C467.853 529.88 467.553 530.18 467.553 523.86V509.88C467.553 507.32 467.753 509.47 470.103 511.2C471.633 512.44 473.263 513.56 475.203 514.16C477.343 514.78 479.593 515.6 481.833 515.6C488.363 515.6 494.583 513.15 498.973 508.25C503.363 503.45 505.913 496 505.913 489.57C505.913 483.14 503.873 476.61 500.813 472.94C496.323 467.43 490.713 464.57 483.463 464.57C476.213 464.57 471.223 467.22 467.443 472.94H467.233V465.59L443.253 466.62H443.263ZM551.913 514.06L575.483 513.04V507.83H571.093C569.563 507.83 568.433 507.53 568.033 506.91C566.713 504.56 567.013 501.41 567.013 498.75V465.6L542.733 466.62V471.82H547.123C548.663 471.92 548.963 471.71 550.183 472.74C551.513 475.09 551.203 478.24 551.203 480.9V488.76C551.203 492.33 551.103 496.3 549.883 499.67C548.333 503.75 544.443 506.46 540.083 506.51C537.533 506.51 536.003 505.81 534.363 503.46C532.943 501.42 533.033 498.35 533.033 496.01V465.61L509.563 466.63V471.83H513.543C514.873 471.94 515.183 471.72 516.303 472.75C518.143 474.37 517.223 478.25 517.223 480.91V495.5C517.223 498.06 517.423 500.5 518.553 505.6C521.103 510.71 523.553 515.61 533.753 515.61C541.513 515.61 547.633 511.93 551.713 505.6H551.923V514.06H551.903H551.913ZM576.873 445.08C578.613 444.97 580.443 445.08 582.183 445.18C582.693 445.18 584.023 445.69 584.323 446.2C585.753 447.93 585.243 451.19 585.243 453.44V502.21C585.243 503.84 585.653 507 584.523 508.23C583.093 509.04 581.153 508.83 579.633 508.93H577.483V514.04H609.013V508.93H607.073C605.433 508.82 601.463 509.34 601.263 507.1C601.063 505.47 601.063 503.84 601.063 502.21V438.85L576.873 439.96V445.08ZM661.733 483.25C661.733 477.03 661.733 472.64 656.433 468.76C651.943 465.5 644.383 464.58 638.883 464.58C633.983 464.58 629.383 465.09 624.793 466.82C619.983 468.55 615.503 472.02 615.503 477.43C615.503 482.03 618.973 485.08 623.463 485.08C627.443 485.08 631.833 483.05 631.833 478.45C631.833 477.02 631.423 476.1 630.513 474.88C629.893 474.07 628.573 472.64 629.793 471.72C631.843 470.08 634.793 469.67 637.353 469.67C639.913 469.67 642.253 470.08 644.083 471.82C646.133 473.65 646.133 481.92 646.133 484.78C636.123 487.02 612.753 489.27 612.753 503.36C612.753 512.74 620.103 515.61 628.363 515.61C635.413 515.61 643.063 513.36 648.153 508.56C648.973 511.01 650.813 513.05 653.043 514.17C654.993 515.1 657.033 515.61 659.173 515.61C662.133 515.61 665.593 514.27 667.633 512.14C668.653 511.21 670.803 507.75 669.573 506.32C668.653 505.7 667.953 505.81 667.123 506.43C666.613 506.73 665.503 507.43 664.773 507.43C662.733 507.43 662.023 505.91 661.913 504.06C661.793 502.77 661.733 501.48 661.723 500.18V483.24L661.733 483.25ZM645.913 489.89V494.37C645.913 496.2 645.913 499.58 645.313 501.31C644.593 503.35 644.293 504.78 642.553 506.42C640.723 507.94 638.573 508.96 636.233 508.96C631.733 508.96 629.493 506 629.493 501.83C629.493 492.23 638.673 491.92 645.923 489.89H645.913ZM678.953 491.21C678.953 494.47 678.843 497.84 679.143 501.2C679.353 504.67 679.553 508.65 682.003 511.4C684.963 514.66 689.353 515.59 693.543 515.59C705.673 515.59 710.683 507.31 710.683 496.1V495.27H705.483C705.593 499.05 704.263 507.52 698.853 507.52C696.803 507.52 695.593 506.6 695.083 504.56C694.763 503.13 694.763 501.7 694.763 500.18V471.71H708.233V465.59H694.763V445.18H688.543C686.813 455.68 683.843 464.67 671.713 466.3V471.71H678.953V491.21ZM714.223 514.06H745.553V508.95H742.993C741.653 508.95 739.733 509.27 738.693 508.24C737.983 507.52 737.883 504.67 737.883 503.75V465.59L713.593 466.61V471.81H717.983C719.513 471.91 719.823 471.7 721.043 472.73C722.363 475.08 722.063 478.23 722.063 480.89V503.34C722.063 504.66 722.063 505.99 721.853 507.31C721.443 508.85 719.613 508.94 718.283 508.94H714.213V514.04L714.223 514.06ZM738.513 447.94C738.513 442.74 735.043 438.86 729.733 438.86C724.423 438.86 720.653 442.84 720.653 447.94C720.653 452.74 725.153 456.51 729.733 456.51C734.313 456.51 738.513 452.74 738.513 447.94ZM777.763 515.6C792.563 515.6 805.523 505.59 805.523 490.19C805.523 474.79 792.673 464.58 777.873 464.58C770.423 464.58 764.193 466.62 758.483 471.21C752.913 475.73 749.653 482.51 749.603 489.68C749.603 505.49 762.363 515.6 777.763 515.6ZM777.253 469.67C787.243 469.67 787.973 482.83 787.973 490.08C787.973 496.41 787.353 510.49 778.383 510.49C767.563 510.49 767.153 498.05 767.153 490.19C767.153 483.65 767.873 469.67 777.253 469.67ZM808.753 466.62V471.82H813.143C814.673 471.92 814.973 471.71 816.203 472.74C817.523 475.09 817.223 478.24 817.223 480.9V503.87C817.223 505.49 817.523 507.94 815.483 508.46C813.453 508.87 811.303 508.87 809.163 508.97V514.08H840.183V508.97H835.793C834.573 508.97 833.343 508.35 833.043 507.03V490.3C833.043 486.62 833.253 483.16 834.873 479.78C836.623 476.22 839.983 473.66 843.963 473.66C845.993 473.66 847.933 474.68 849.273 476.01C851.213 477.95 851.213 480.4 851.403 482.95V504.17C851.403 505.19 851.403 506.11 851.103 507.13C850.993 507.43 850.893 507.75 850.693 508.05C848.843 509.37 846.303 508.77 844.263 508.97V514.08H874.873V508.97C874.153 508.97 869.563 509.08 867.933 508.26C867.313 507.75 867.223 507.24 867.223 506.43V486.02C867.223 480.7 867.523 475.5 864.463 470.92C861.303 466.23 855.593 464.6 850.293 464.6C842.543 464.6 836.613 468.78 832.743 474.89H832.533V465.61L808.763 466.62H808.753ZM945.223 508.65L938.803 508.33C932.993 508.13 932.993 506.9 932.993 501.49V478.84H933.993C940.833 478.84 944.413 480.78 947.373 487.1C948.503 489.45 948.913 492.1 949.103 494.55H954.313V459.23H949.103C946.973 469.24 943.903 473.84 932.993 473.42V452.41C932.993 450.78 932.783 448.53 934.213 447.3C936.663 445.57 939.933 445.87 942.783 445.87C957.693 445.87 963.603 453.54 967.073 467.2H972.183L971.463 440.36H904.113V445.77H906.773C908.713 445.88 910.843 445.68 912.693 446.39C914.823 447.01 914.823 449.45 914.823 451.29V501.8C914.823 503.34 914.823 504.96 914.523 506.49C914.313 506.81 914.203 507.21 914.013 507.51C913.803 507.81 913.393 508.02 913.093 508.23C912.073 508.64 911.153 508.64 910.133 508.64H904.003V514.05H945.223V514.07V508.65ZM1014.8 514.06L1038.37 513.04V507.83H1033.99C1032.47 507.83 1031.34 507.53 1030.94 506.91C1029.62 504.56 1029.92 501.41 1029.92 498.75V465.6L1005.63 466.62V471.82H1010.02C1011.56 471.92 1011.85 471.71 1013.08 472.74C1014.4 475.09 1014.1 478.24 1014.1 480.9V488.76C1014.1 492.33 1013.99 496.3 1012.77 499.67C1011.21 503.75 1007.33 506.45 1002.97 506.51C1000.43 506.51 998.903 505.81 997.263 503.46C995.833 501.42 995.943 498.35 995.943 496.01V465.61L972.473 466.63V471.83H976.453C977.773 471.94 978.083 471.72 979.203 472.75C981.043 474.37 980.123 478.25 980.123 480.91V495.5C980.123 498.06 980.333 500.5 981.453 505.6C984.013 510.71 986.443 515.61 996.653 515.61C1004.4 515.61 1010.53 511.93 1014.61 505.6H1014.82V514.06H1014.8ZM1040.17 466.62V471.82H1044.56C1046.1 471.92 1046.39 471.71 1047.63 472.74C1048.95 475.09 1048.63 478.24 1048.63 480.9V503.87C1048.63 505.49 1048.95 507.94 1046.9 508.46C1044.85 508.87 1042.71 508.87 1040.57 508.97V514.08H1071.59V508.97H1067.2C1065.98 508.97 1064.75 508.35 1064.45 507.03V490.3C1064.45 486.62 1064.64 483.16 1066.28 479.78C1068.01 476.22 1071.38 473.66 1075.36 473.66C1077.4 473.66 1079.34 474.68 1080.66 476.01C1082.6 477.95 1082.6 480.4 1082.81 482.95V504.17C1082.81 505.19 1082.81 506.11 1082.49 507.13C1082.41 507.46 1082.27 507.77 1082.08 508.05C1080.25 509.37 1077.7 508.77 1075.66 508.97V514.08H1106.27V508.97C1105.55 508.97 1100.95 509.08 1099.33 508.26C1098.71 507.75 1098.61 507.24 1098.61 506.43V486.02C1098.61 480.7 1098.93 475.5 1095.86 470.92C1092.7 466.23 1086.98 464.6 1081.67 464.6C1073.92 464.6 1067.99 468.78 1064.12 474.89H1063.93V465.61L1040.15 466.62H1040.17ZM1148.4 490.49C1148.4 497.03 1145.85 508.66 1137.48 508.66C1133.71 508.66 1130.55 506.1 1129.22 502.74C1127.9 499.37 1127.28 494.37 1127.28 490.7C1127.28 484.16 1128.62 471.31 1137.39 471.31C1146.98 471.31 1148.4 483.25 1148.4 490.49ZM1149.01 514.06L1172.68 513.04V507.83L1168.18 507.64C1166.86 507.53 1165.73 507.75 1164.71 506.62C1163.9 504.99 1163.9 503.36 1163.9 501.62V438.88L1138.29 439.9V445.1C1145.94 445.1 1148.07 444.48 1148.07 450.71V470.31C1148.07 472.66 1148.18 470.93 1145.21 468.68C1141.44 465.72 1138.07 464.61 1133.28 464.61C1118.79 464.61 1109.71 477.37 1109.71 490.93C1109.71 496.85 1111.74 503.18 1114.08 506.35C1118.78 512.77 1125.62 515.64 1131.53 515.64C1138.98 515.64 1145.11 512.88 1148.78 506.35H1148.99V514.09L1149.01 514.06ZM393.033 331.77C394.363 331.77 399.663 331.77 401.703 332.37C403.233 332.99 403.433 334.01 403.433 335.43V376.95C403.433 385.02 405.373 391.56 412.213 396.34C417.823 400.33 427.413 401.55 434.153 401.55C439.463 401.55 446.403 400.93 451.193 398.59C456.903 395.93 461.293 390.52 463.033 384.51C464.053 381.04 464.353 378.18 464.353 374.6V345.52C464.663 337.26 465.893 332.05 475.583 331.75V326.34H446.493V331.75C448.233 331.84 450.173 331.75 451.803 332.45C457.723 333.99 457.823 339.7 457.823 344.7V371.12C457.823 376.85 457.933 382.45 454.353 387.25C450.983 392.04 444.963 393.88 439.353 393.88C435.883 393.88 433.033 393.37 429.863 392.05C426.193 390.43 424.553 388.99 423.023 385.32C421.493 381.65 421.593 375.94 421.593 371.95V338.09C421.593 336.85 421.383 334.41 422.413 333.39C424.763 331.04 429.043 332.17 432.113 331.77V326.36H393.023V331.79H393.033V331.77ZM476.453 352.59V357.79H480.833C482.373 357.9 482.673 357.68 483.903 358.71C485.233 361.06 484.923 364.22 484.923 366.87V389.83C484.923 391.45 485.233 393.9 483.193 394.42C481.153 394.83 479.003 394.83 476.873 394.93V400.04H507.893V394.93H503.503C502.273 394.93 501.053 394.33 500.743 392.99V376.26C500.743 372.58 500.943 369.11 502.583 365.74C504.323 362.18 507.683 359.62 511.663 359.62C513.713 359.62 515.643 360.64 516.973 361.97C518.913 363.91 518.913 366.36 519.113 368.91V390.13C519.113 391.15 519.113 392.07 518.813 393.09C518.703 393.39 518.613 393.71 518.403 394.01C516.563 395.35 514.013 394.73 511.973 394.93V400.04H542.583V394.93C541.873 394.93 537.283 395.04 535.643 394.23C535.033 393.72 534.933 393.21 534.933 392.4V371.98C534.933 366.69 535.233 361.48 532.173 356.89C529.003 352.19 523.293 350.56 517.983 350.56C510.233 350.56 504.313 354.74 500.433 360.87H500.233V351.58L476.443 352.58L476.453 352.59ZM577.033 400.03V394.92H574.473C573.153 394.92 571.203 395.24 570.183 394.22C569.473 393.5 569.363 390.65 569.363 389.73V351.57L545.073 352.59V357.79H549.453C550.983 357.9 551.283 357.68 552.513 358.71C553.843 361.06 553.533 364.22 553.533 366.87V389.33C553.533 390.65 553.533 391.98 553.333 393.31C552.923 394.83 551.083 394.93 549.753 394.93H545.673V400.03H577.033ZM569.983 333.91C569.983 328.71 566.513 324.83 561.203 324.83C555.893 324.83 552.123 328.82 552.123 333.91C552.123 338.71 556.603 342.48 561.203 342.48C565.803 342.48 569.983 338.71 569.983 333.91ZM587.503 357.68V377.17C587.503 380.43 587.403 383.8 587.703 387.17C587.913 390.65 588.113 394.62 590.553 397.37C593.513 400.65 597.903 401.56 602.083 401.56C614.233 401.56 619.233 393.3 619.233 382.07V381.25H614.033C614.133 385.03 612.793 393.5 607.393 393.5C605.363 393.5 604.133 392.58 603.623 390.54C603.323 389.11 603.323 387.68 603.323 386.15V357.69H616.793V351.57H603.323V331.16H597.103C595.363 341.66 592.403 350.65 580.263 352.27V357.68H587.513H587.503ZM640.223 371.66C640.033 365.65 642.373 355.54 650.133 355.54C657.373 355.54 658.613 362.59 658.613 368.2C658.613 369.64 658.503 371.37 656.673 371.47C655.543 371.56 654.633 371.66 653.503 371.66H640.223ZM674.413 376.87C674.623 361.45 666.363 350.54 649.933 350.54C642.883 350.54 636.663 352.48 631.253 357.07C625.743 361.77 622.583 369.22 622.583 376.37C622.583 383.52 625.033 390.24 630.333 394.73C635.783 399.15 642.593 401.57 649.613 401.57C661.863 401.57 669.613 396.87 674.413 385.65L669.813 383.7C666.873 389.62 662.163 395.24 654.913 395.24C643.893 395.24 639.713 386.57 640.123 376.88H674.413V376.87ZM718.283 376.47C718.283 383 715.723 394.63 707.353 394.63C703.583 394.63 700.413 392.07 699.093 388.71C697.773 385.34 697.153 380.34 697.153 376.67C697.153 370.13 698.493 357.28 707.253 357.28C716.853 357.28 718.283 369.22 718.283 376.48V376.47ZM718.893 400.03L742.573 399.01V393.81L738.073 393.6C736.753 393.5 735.623 393.71 734.603 392.58C733.793 390.94 733.793 389.32 733.793 387.58V324.83L708.183 325.85V331.05C715.833 331.05 717.973 330.45 717.973 336.67V356.25C717.973 358.6 718.073 356.87 715.113 354.61C711.343 351.67 707.973 350.54 703.183 350.54C688.693 350.54 679.603 363.3 679.603 376.87C679.603 382.78 681.653 389.1 683.993 392.28C688.693 398.71 695.533 401.57 701.453 401.57C708.893 401.57 715.023 398.81 718.693 392.28H718.883V400.02L718.893 400.03ZM836.813 400.85H843.143V347.78C843.143 344.84 843.143 341.87 843.763 339.02C844.983 333.29 848.963 332.48 854.053 331.78V326.37H825.183V331.78C833.853 331.87 836.513 335.34 836.513 343.71V373.3L796.823 326.37H771.003V331.78C775.383 331.78 779.373 333.72 781.913 337.39V382.8C781.613 391.68 780.183 394.23 770.683 394.64V400.05H800.083V394.64C790.693 394.43 788.553 390.15 788.553 381.58V343.62L836.823 400.86L836.813 400.85ZM904.613 369.21C904.613 362.99 904.613 358.6 899.303 354.72C894.823 351.46 887.263 350.54 881.763 350.54C876.863 350.54 872.263 351.05 867.683 352.78C862.873 354.53 858.393 357.98 858.393 363.39C858.393 367.99 861.853 371.04 866.343 371.04C870.323 371.04 874.713 369.01 874.713 364.41C874.713 362.98 874.303 362.06 873.393 360.85C872.773 360.03 871.453 358.6 872.673 357.68C874.713 356.04 877.673 355.64 880.233 355.64C882.793 355.64 885.133 356.05 886.963 357.79C889.013 359.62 889.013 367.89 889.013 370.75C879.003 373 855.633 375.24 855.633 389.33C855.633 398.72 862.983 401.58 871.243 401.58C878.293 401.58 885.933 399.33 891.033 394.53C891.853 396.98 893.693 399.02 895.933 400.15C897.873 401.07 899.913 401.58 902.063 401.58C905.023 401.58 908.483 400.24 910.533 398.11C911.553 397.19 913.703 393.72 912.473 392.29C911.553 391.67 910.843 391.78 910.023 392.4C909.513 392.7 908.403 393.4 907.673 393.4C905.623 393.4 904.923 391.86 904.813 390.03C904.683 388.74 904.613 387.45 904.603 386.15V369.21H904.613ZM888.803 380.33C888.803 382.18 888.803 385.54 888.183 387.27C887.483 389.31 887.183 390.74 885.433 392.38C883.603 393.9 881.453 394.92 879.113 394.92C874.623 394.92 872.383 391.96 872.383 387.78C872.383 378.19 881.563 377.87 888.803 375.84V380.33ZM921.843 357.68V377.17C921.843 380.43 921.733 383.8 922.033 387.17C922.243 390.65 922.443 394.62 924.893 397.37C927.853 400.65 932.243 401.56 936.433 401.56C948.583 401.56 953.573 393.3 953.573 382.07V381.25H948.373C948.483 385.03 947.153 393.5 941.743 393.5C939.703 393.5 938.473 392.58 937.963 390.54C937.663 389.11 937.663 387.68 937.663 386.15V357.69H951.133V351.57H937.663V331.16H931.443C929.703 341.66 926.753 350.65 914.613 352.27V357.68H921.853H921.843ZM988.443 400.03V394.92H985.903C984.573 394.92 982.633 395.24 981.603 394.22C980.903 393.5 980.793 390.65 980.793 389.73V351.57L956.503 352.59V357.79H960.883C962.423 357.9 962.713 357.68 963.943 358.71C965.263 361.06 964.963 364.22 964.963 366.87V389.33C964.963 390.65 964.963 391.98 964.753 393.31C964.343 394.83 962.513 394.93 961.183 394.93H957.113V400.03H988.443ZM981.403 333.91C981.403 328.71 977.933 324.83 972.623 324.83C967.313 324.83 963.543 328.82 963.543 333.91C963.543 338.71 968.023 342.48 972.623 342.48C977.223 342.48 981.403 338.71 981.403 333.91ZM1020.65 401.57C1035.45 401.57 1048.41 391.58 1048.41 376.16C1048.41 360.74 1035.55 350.55 1020.76 350.55C1013.31 350.55 1007.09 352.6 1001.37 357.18C995.803 361.7 992.543 368.48 992.493 375.65C992.493 391.46 1005.25 401.57 1020.65 401.57ZM1020.14 355.64C1030.15 355.64 1030.86 368.81 1030.86 376.05C1030.86 382.37 1030.24 396.46 1021.27 396.46C1010.45 396.46 1010.04 384.02 1010.04 376.16C1010.04 369.63 1010.76 355.64 1020.14 355.64ZM1051.65 357.79H1056.03C1057.57 357.9 1057.86 357.68 1059.09 358.71C1060.41 361.06 1060.1 364.22 1060.1 366.87V389.83C1060.1 391.45 1060.42 393.9 1058.37 394.42C1056.33 394.83 1054.19 394.83 1052.05 394.93V400.04H1083.07V394.93H1078.69C1077.47 394.93 1076.24 394.33 1075.94 392.99V376.26C1075.94 372.58 1076.13 369.11 1077.77 365.74C1079.51 362.18 1082.88 359.62 1086.86 359.62C1088.89 359.62 1090.83 360.64 1092.17 361.97C1094.09 363.91 1094.09 366.36 1094.3 368.91V390.13C1094.3 391.15 1094.3 392.07 1094 393.09C1093.9 393.39 1093.79 393.71 1093.59 394.01C1091.75 395.35 1089.19 394.73 1087.16 394.93V400.04H1117.77V394.93C1117.05 394.93 1112.46 395.04 1110.83 394.23C1110.21 393.72 1110.11 393.21 1110.11 392.4V371.98C1110.11 366.69 1110.43 361.48 1107.36 356.89C1104.2 352.19 1098.48 350.56 1093.17 350.56C1085.42 350.56 1079.51 354.74 1075.63 360.87H1075.42V351.58L1051.65 352.58V357.79ZM1121.82 400.03H1125.79L1129.87 398.09C1133.43 400.33 1140.07 401.56 1144.26 401.56C1146.41 401.56 1149.67 401.05 1151.71 400.54C1156 399.31 1158.04 398.39 1161.09 395.13C1163.85 392.17 1164.98 388.08 1164.98 384.31C1164.98 379.11 1162.32 374.62 1157.83 372.17C1154.46 370.34 1150.28 369.42 1146.51 368.5L1141.72 367.26C1138.76 366.56 1133.03 365.94 1133.03 361.85C1133.03 357.05 1137.93 355.63 1142.02 355.63C1149.06 355.63 1154.06 360.74 1157.43 366.35C1157.84 366.67 1157.84 367.18 1158.13 367.48H1162.63L1162.22 351.56H1158.13L1154.27 353.91C1150.5 351.77 1146.25 350.62 1141.92 350.54C1131.92 350.54 1122.02 355.74 1122.02 366.76C1122.02 371.25 1123.24 374.51 1126.51 377.48C1130.18 380.85 1133.35 381.67 1138.04 382.69L1144.47 384.01C1149.47 385.12 1155.19 386.66 1152.52 393.3C1150.58 395.84 1147.22 396.56 1144.15 396.56C1135.07 396.56 1129.47 390.02 1125.78 382.58H1121.29L1121.82 400.03ZM946.103 77.76V122.5C960.343 126.06 973.693 119.54 973.693 99.62C973.693 80.79 963.223 76.26 946.103 77.76ZM973.683 25.87C999.293 25.87 1036.48 46.01 1036.48 102.02C1036.48 148.76 1006.1 176.75 973.683 176.75H946.093V249.68H877.933V25.87H973.683Z" fill="black"/>
<path fill-rule="evenodd" clip-rule="evenodd" d="M1018.65 249.67H951.963L995.013 180.59C1022.66 170.88 1043.98 142.28 1043.98 102.02L1091.44 25.87H1160.76V249.68H1091.44V217.8H1037.04L1018.66 249.68L1018.65 249.67ZM1091.43 123.06L1067.26 165.22H1091.43V123.06Z" fill="black"/>
</svg>
