<svg width="1315" height="316" viewBox="0 0 1315 316" fill="none" xmlns="http://www.w3.org/2000/svg">
<g clip-path="url(#clip0_723_1139)">
<path d="M1114.98 7.81C1108.1 8.92 1101.41 10.64 1094.98 12.9C1096.27 14.31 1097.65 15.64 1099.12 16.9C1104.16 13.51 1109.46 10.47 1114.97 7.81H1114.98ZM1228.77 55.48C1222.91 47.28 1216.04 39.87 1208.33 33.44C1204.54 36.72 1200.49 39.76 1196.2 42.51C1201.99 49.62 1207.04 57.36 1211.24 65.62C1217.34 62.57 1223.19 59.18 1228.76 55.48H1228.77ZM1203.92 29.93C1195.94 23.89 1187.18 18.85 1177.81 15.01C1176.27 16.84 1174.6 18.57 1172.8 20.18C1180 25.5 1186.63 31.57 1192.58 38.26C1196.58 35.73 1200.37 32.94 1203.92 29.93ZM1172.3 12.9C1165.87 10.64 1159.19 8.92 1152.3 7.81C1157.81 10.47 1163.11 13.51 1168.15 16.9C1169.62 15.64 1171.01 14.31 1172.29 12.9H1172.3ZM1133.64 0C1201.87 0 1257.14 55.76 1257.14 124.49C1257.14 193.22 1201.87 248.97 1133.64 248.97C1065.41 248.97 1010.14 193.21 1010.14 124.49C1010.14 55.77 1065.41 0 1133.64 0ZM1154.22 25.3C1157.51 23.97 1160.61 22.34 1163.46 20.44C1156.93 16.2 1149.98 12.56 1142.68 9.61C1146.8 14.62 1150.65 19.86 1154.22 25.3ZM1136.41 29.18C1140.72 28.97 1144.88 28.27 1148.82 27.16C1145 21.44 1140.86 15.95 1136.41 10.74V29.19V29.18ZM1151.93 31.99C1147.03 33.53 1141.81 34.47 1136.41 34.71V54.95C1145.39 54.74 1154.07 53.49 1162.32 51.34C1159.25 44.65 1155.78 38.19 1151.94 31.99H1151.93ZM1168.35 23.78C1164.95 26.25 1161.22 28.35 1157.23 30.04C1161.1 36.37 1164.6 42.97 1167.69 49.79C1174.77 47.55 1181.49 44.64 1187.74 41.14C1181.91 34.69 1175.41 28.87 1168.35 23.78ZM1113.06 25.3C1116.63 19.86 1120.48 14.62 1124.6 9.61C1117.3 12.56 1110.35 16.19 1103.82 20.44C1106.68 22.34 1109.77 23.98 1113.06 25.3ZM1130.87 10.73C1126.43 15.95 1122.28 21.43 1118.46 27.15C1122.4 28.27 1126.56 28.96 1130.87 29.17V10.73ZM1064.36 219.81C1067.08 220.83 1070.96 222 1075.75 221.7C1082.07 221.31 1090.37 218.14 1098.28 215.18C1106.18 212.22 1126.93 207.28 1131.87 206.29C1136.81 205.3 1138 203.13 1139.18 200.95C1140.37 198.78 1139.57 195.62 1138.98 191.86C1138.39 188.11 1137.4 182.18 1137.2 176.65C1137 171.12 1136.81 166.18 1128.11 160.64C1119.42 155.11 1113.88 148.59 1114.48 143.65C1115.07 138.71 1120.8 134.56 1120.8 134.56C1120.8 134.56 1119.42 130.41 1120.01 128.63C1120.6 126.85 1125.94 127.44 1125.94 127.44C1125.94 127.44 1125.15 121.51 1125.54 119.93C1125.94 118.35 1128.7 119.14 1128.7 119.14L1131.27 117.56C1131.27 117.56 1129.29 113.41 1128.5 110.64C1127.71 107.87 1129.29 105.7 1132.45 105.7C1135.61 105.7 1139.56 105.3 1149.05 103.13C1158.53 100.96 1162.68 82.78 1185.01 79.22C1207.34 75.66 1224.73 92.66 1224.73 92.66C1224.73 92.66 1260.3 126.05 1236.98 163.8C1216.74 196.55 1190.94 188.3 1190.94 188.3C1190.94 188.3 1186.39 190.47 1188.57 199.96C1190.74 209.44 1204.38 217.35 1204.38 217.35L1205.48 217.86C1233.1 196.24 1250.87 162.44 1250.87 124.48C1250.87 100.73 1243.86 78.57 1231.9 60.05C1226.1 63.91 1220 67.44 1213.65 70.6C1215.31 74.25 1216.81 77.99 1218.14 81.81C1215.83 80.45 1213.4 79.24 1210.89 78.21C1210.18 76.45 1209.44 74.71 1208.66 72.99C1206.73 73.88 1204.77 74.73 1202.8 75.55C1198.97 74.6 1195.06 74.08 1191.22 74.04C1196.37 72.25 1201.39 70.24 1206.26 68C1202.14 59.91 1197.16 52.33 1191.44 45.4C1184.73 49.24 1177.52 52.43 1169.91 54.88C1172.77 61.76 1175.22 68.85 1177.24 76.13C1175.31 76.71 1173.6 77.38 1172.04 78.1C1170.01 70.68 1167.51 63.45 1164.57 56.46C1155.61 58.87 1146.17 60.26 1136.41 60.48V83.68C1147.26 83.49 1157.84 82.34 1168.05 80.31C1164.81 82.43 1162.42 84.85 1160.26 87.27C1152.48 88.42 1144.52 89.08 1136.41 89.21V97.2C1135.17 97.29 1133.86 97.33 1132.46 97.33C1131.9 97.33 1131.38 97.36 1130.88 97.42V60.47C1126.51 60.37 1122.2 60.04 1117.98 59.48C1116.68 57.3 1115.16 55.19 1113.45 53.18C1119.11 54.19 1124.93 54.79 1130.89 54.93V34.69C1125.48 34.45 1120.27 33.51 1115.37 31.97C1112.38 36.79 1109.62 41.76 1107.1 46.87C1105.67 45.67 1104.17 44.53 1102.62 43.46C1104.92 38.86 1107.41 34.38 1110.08 30.02C1106.09 28.33 1102.36 26.22 1098.96 23.76C1094.05 27.3 1089.4 31.2 1085.07 35.42C1082.89 34.86 1080.69 34.45 1078.47 34.21C1083.42 29.1 1088.78 24.4 1094.51 20.16C1092.71 18.54 1091.04 16.81 1089.5 14.98C1080.13 18.83 1071.36 23.87 1063.39 29.91C1036.04 50.62 1017.93 83.1 1016.54 119.88C1017.26 119.23 1028.34 109.2 1033.5 108.06C1038.84 106.87 1042.99 97.59 1042.99 96.01C1042.99 94.43 1032.91 69.87 1045.16 53.53C1055.83 39.3 1072.23 31.99 1098.12 46.42C1124 60.84 1119.06 81.59 1114.12 88.31C1109.18 95.03 1107.01 97.2 1107.8 100.36C1108.59 103.52 1110.96 105.89 1109.97 107.47C1108.98 109.05 1104.04 109.64 1104.04 109.64C1104.04 109.64 1105.23 113 1105.03 114.18C1104.83 115.37 1102.07 115.17 1102.07 115.17C1102.07 115.17 1102.66 117.15 1102.27 118.53C1101.88 119.91 1097.33 119.12 1097.33 119.12C1097.33 119.12 1098.32 127.62 1087.06 126.23C1075.8 124.85 1073.43 121.29 1070.07 123.86C1066.71 126.43 1067.3 129.79 1069.68 139.67C1072.05 149.55 1073.04 171.88 1073.04 171.88L1079.86 176.72C1079.86 176.72 1090.23 177.21 1092.7 177.41C1095.17 177.61 1097.94 178.3 1099.52 178.4C1101.1 178.5 1107.62 173.36 1111.08 172.57C1114.54 171.78 1115.62 172.77 1115.62 173.66C1115.62 174.55 1114.63 177.02 1114.63 177.02C1114.63 177.02 1120.16 174.94 1122.14 175.44C1124.12 175.93 1125.2 178.01 1123.72 185.12C1122.24 192.23 1119.17 196.78 1112.95 197.47C1106.73 198.16 1102.58 195.2 1098.13 195.3C1093.68 195.4 1080.54 201.52 1069.97 200.63C1059.4 199.74 1056.63 195.3 1056.63 195.3C1056.63 195.3 1052.97 202.02 1052.48 204.69C1052.15 206.49 1052.4 208.61 1052.6 209.79C1056.31 213.38 1060.26 216.72 1064.41 219.79L1064.36 219.81Z" fill="black"/>
<path d="M1074.56 259.25C1068.04 260.44 1051.94 258.46 1042.45 246.9C1034.38 237.06 1029.8 213.41 1031.09 212.42C1032.37 211.43 1044.43 221.02 1056.88 232.38C1069.33 243.74 1081.09 258.07 1074.56 259.25ZM1045.31 261.22C1044.32 262.6 1026.99 267.54 1008.36 256.67C989.39 245.6 980.18 225.02 980.5 224.07C981.09 222.29 993.74 225.26 1017.65 238.69C1041.56 252.13 1046.7 259.83 1045.31 261.22ZM1029.11 237.71C1027.73 238.3 1010.73 230 1005.79 208.86C1000.85 187.72 1007.33 173.1 1008.75 172.5C1011.12 171.51 1018.63 183.96 1024.16 203.13C1029.69 222.3 1031.27 237.12 1029.1 237.71H1029.11ZM1007.77 228.72C1005.7 229.41 987.22 221.71 973.88 205.6C962.51 191.87 957.18 169.14 958.27 168.45C959.36 167.76 974.87 181.19 987.51 195.52C1000.16 209.85 1009.84 228.02 1007.76 228.72H1007.77ZM996.01 197.99C993.24 197.4 985.24 188.28 986.33 165.68C987.02 151.26 998.3 132.81 1000.36 132.88C1003.13 132.98 1004.41 146.36 1003.22 163.9C1002.04 181.49 998.77 198.58 996.01 197.99ZM953.83 113.22C955.9 111.64 965.49 128.04 971.51 141.67C976.62 153.24 983.17 178.13 980.5 179.02C978.81 179.58 965.09 171.02 957.38 150.27C951.17 133.55 952.75 114.04 953.82 113.22H953.83ZM1000.16 96.03C1002.04 96.52 1001.25 111.44 995.62 127.05C989.99 142.66 982.28 156.49 980.6 155.5C978.92 154.51 975.76 136.04 981.09 122.01C986.43 107.98 998.28 95.53 1000.16 96.03ZM980.3 108.38C978.82 106.5 978.08 89.75 989.29 75.48C1000.16 61.65 1009.64 57.3 1011.42 58.19C1013.2 59.08 1007.27 74.89 999.96 86.05C992.59 97.31 981.52 109.93 980.3 108.38ZM977.04 80.52C974.51 79.25 974.71 66.37 981.09 53.15C986.72 41.49 998.87 30.23 1000.95 31.02C1003.02 31.81 998.62 48.54 993.94 59.18C989.89 68.37 979.22 81.61 977.05 80.52H977.04ZM966.87 61.45C968.85 61.05 973.98 75.68 974.97 95.44C975.96 115.2 973.98 130.61 972.6 130.61C971.22 130.61 961.04 122.11 960.45 101.17C959.86 80.22 964.9 61.85 966.87 61.45ZM1172.37 315.56C1169.41 316.55 1168.42 303.7 1143.72 286.91C1139.78 284.23 1136.11 281.99 1132.71 280.12C1129.84 281.77 1126.79 283.67 1123.56 285.86C1098.86 302.66 1097.87 315.5 1094.91 314.51C1091.95 313.52 1087.2 308.19 1087.2 308.19C1087.2 308.19 1104.06 287.45 1124.26 275.9C1112.45 270.65 1105.77 270.51 1105.77 270.51C1105.77 270.51 1097.23 284.73 1070.8 283.16C1044.32 281.58 1030.29 275.65 1025.95 272.69C1024.9 271.98 1020.42 267.35 1054.01 264.19C1085.55 261.22 1110.47 263.13 1132.38 271.88C1154.89 262.24 1180.51 260.06 1213.28 263.14C1246.87 266.3 1242.38 270.92 1241.34 271.64C1236.99 274.6 1222.96 280.53 1196.49 282.11C1170.06 283.69 1161.52 269.46 1161.52 269.46C1161.52 269.46 1154.06 269.61 1140.96 275.8C1162.07 287.06 1180.09 309.24 1180.09 309.24C1180.09 309.24 1175.35 314.58 1172.38 315.56H1172.37ZM1192.72 258.2C1186.2 257.01 1197.96 242.69 1210.4 231.33C1222.85 219.97 1234.9 210.38 1236.19 211.37C1237.47 212.36 1232.9 236.01 1224.83 245.85C1215.34 257.41 1199.24 259.39 1192.72 258.2ZM1221.97 260.17C1220.59 258.79 1225.72 251.08 1249.63 237.64C1273.54 224.2 1286.18 221.24 1286.78 223.02C1287.1 223.98 1277.89 244.56 1258.92 255.62C1240.29 266.49 1222.96 261.55 1221.97 260.16V260.17ZM1238.17 236.66C1236 236.07 1237.58 221.25 1243.11 202.08C1248.64 182.91 1256.15 170.46 1258.52 171.45C1259.95 172.04 1266.42 186.66 1261.48 207.81C1256.54 228.95 1239.55 237.25 1238.16 236.66H1238.17ZM1259.51 227.67C1257.44 226.98 1267.12 208.8 1279.76 194.47C1292.41 180.14 1307.92 166.71 1309 167.4C1310.09 168.09 1304.76 190.82 1293.39 204.55C1280.05 220.65 1261.58 228.36 1259.5 227.67H1259.51ZM1271.26 196.94C1268.49 197.53 1265.23 180.44 1264.05 162.85C1262.87 145.3 1264.15 131.93 1266.91 131.83C1268.97 131.76 1280.25 150.21 1280.94 164.63C1282.02 187.23 1274.02 196.34 1271.26 196.94ZM1313.45 112.18C1314.52 112.99 1316.1 132.51 1309.89 149.23C1302.18 169.98 1288.46 178.54 1286.77 177.98C1284.1 177.09 1290.65 152.2 1295.76 140.63C1301.79 127 1311.37 110.6 1313.44 112.18H1313.45ZM1267.12 94.98C1269 94.49 1280.85 106.93 1286.19 120.96C1291.53 134.99 1288.36 153.46 1286.68 154.45C1285 155.44 1277.29 141.61 1271.66 126C1266.03 110.39 1265.24 95.47 1267.12 94.98ZM1286.97 107.33C1285.75 108.88 1274.68 96.26 1267.31 85C1260 73.84 1254.07 58.03 1255.85 57.14C1257.63 56.25 1267.11 60.6 1277.98 74.43C1289.2 88.7 1288.45 105.45 1286.97 107.33ZM1290.23 79.47C1288.06 80.56 1277.39 67.32 1273.34 58.13C1268.65 47.5 1264.25 30.76 1266.33 29.97C1268.4 29.18 1280.56 40.44 1286.19 52.1C1292.57 65.31 1292.77 78.2 1290.24 79.47H1290.23ZM1300.41 60.41C1302.39 60.8 1307.42 79.18 1306.83 100.13C1306.24 121.07 1296.06 129.57 1294.68 129.57C1293.3 129.57 1291.32 114.16 1292.31 94.4C1293.3 74.64 1298.44 60.02 1300.41 60.41Z" fill="black"/>
<path fill-rule="evenodd" clip-rule="evenodd" d="M127.14 186.68C127.14 191.21 126.76 213.47 119.97 231.2C112.42 250.82 92.43 258.37 77.71 258.37C43.38 258.37 35.83 234.23 35.83 201.4V89.35H0V216.11C0 254.21 22.64 284.4 62.25 284.4C88.66 284.4 112.81 274.59 127.14 250.82H127.89V278.74H162.98V89.35H127.14V186.69V186.68Z" fill="black"/>
<path fill-rule="evenodd" clip-rule="evenodd" d="M231.31 89.35H196.22V278.74H232.06V175.75C232.06 138.77 241.87 130.47 247.15 125.19C262.24 110.1 281.86 111.23 281.86 111.23C312.04 111.23 325.25 128.21 325.25 159.52V278.74H361.09V147.82C361.09 87.08 302.61 83.68 289.41 83.68C270.55 83.68 244.13 93.49 232.06 117.26H231.31V89.34V89.35Z" fill="black"/>
<path fill-rule="evenodd" clip-rule="evenodd" d="M426.67 278.74V89.35H390.83V278.74H426.67ZM387.43 45.2H430.06V6.34H387.43V45.2Z" fill="black"/>
<path fill-rule="evenodd" clip-rule="evenodd" d="M609.28 150.09C607.39 108.97 577.21 83.69 537.22 83.69C477.23 83.69 449.31 130.1 449.31 185.56C449.31 241.02 473.45 284.4 534.2 284.4C576.08 284.4 607.77 258.37 610.78 215.73H574.94C573.06 242.9 558.34 258.36 534.57 258.36C500.24 258.36 487.04 228.56 487.04 184.03C487.04 139.5 500.24 109.71 534.57 109.71C560.22 109.71 571.55 126.31 573.43 150.08H609.27L609.28 150.09Z" fill="black"/>
<path fill-rule="evenodd" clip-rule="evenodd" d="M793.76 190.83V173.1C793.76 120.66 766.97 84.81 710.38 83.69C650.39 83.69 622.47 130.1 622.47 185.56C622.47 241.02 646.62 284.4 707.36 284.4C752.63 284.4 785.83 262.89 791.49 219.88H753.77C749.62 247.43 735.66 258.36 707.74 258.36C671.14 258.36 657.56 224.03 660.21 190.83H793.77H793.76ZM660.2 165.93C660.2 134.99 677.93 109.72 707.73 109.72C742.44 109.72 756.78 134.24 756.02 165.93H660.19H660.2Z" fill="black"/>
<path fill-rule="evenodd" clip-rule="evenodd" d="M866.25 114.24H910.01V89.34H866.25V59.16C865.12 38.41 876.81 33.13 897.19 33.13C903.23 33.13 909.26 33.88 915.3 34.26V4.46C906.62 2.95 898.32 0.69 889.64 0.69C862.85 0.69 831.54 11.63 830.41 53.13V89.35H793.44V114.25H830.41V278.75H866.25V114.24Z" fill="black"/>
</g>
<defs>
<clipPath id="clip0_723_1139">
<rect width="1314.46" height="315.61" fill="white"/>
</clipPath>
</defs>
</svg>
