<svg width="1477" height="251" viewBox="0 0 1477 251" fill="none" xmlns="http://www.w3.org/2000/svg">
<path d="M450.609 12.75V92.51C450.609 109.89 445.979 123.02 436.899 131.52C427.819 140.02 413.919 144.46 395.569 144.46C377.219 144.46 362.929 140.21 353.659 131.52C344.389 122.83 339.949 109.89 339.949 92.51V12.75H366.989V88.26C366.989 98.88 369.309 106.8 373.939 112.21C378.579 117.62 385.529 120.32 394.799 120.13C404.069 120.13 411.219 117.43 416.039 112.02C420.869 106.61 423.189 98.69 423.189 88.27V12.75H450.609Z" fill="black"/>
<path d="M478.999 140.79V12.75H507.389L564.169 87.3C566.289 90 568.03 93.09 569.58 96.18C571.51 100.04 573.64 104.48 575.57 109.7C574.99 105.84 574.409 102.17 574.219 98.5C573.829 94.83 573.83 90 573.83 84.4V12.75H600.099V140.99H573.26L514.94 64.9C512.82 62.2 511.079 59.11 509.529 56.02C507.599 52.16 505.469 47.52 503.349 42.31C503.929 45.98 504.509 49.65 504.699 53.51C504.889 57.37 505.089 62.01 505.089 67.8V140.99H479.019" fill="black"/>
<path d="M691.439 119.93C702.449 120.32 712.879 115.87 720.219 107.76C727.949 99.46 731.999 88.45 731.609 77.25C731.999 65.86 727.939 54.85 720.219 46.54C712.879 38.43 702.449 33.79 691.439 34.18C680.429 33.99 669.809 38.43 662.469 46.54C654.739 54.84 650.689 65.85 650.879 77.25C650.879 89.61 654.739 99.85 662.269 107.96C669.799 115.88 680.419 120.32 691.429 119.93M759.799 77.06C759.799 85.94 758.059 94.83 754.589 103.13C751.309 111.24 746.289 118.58 739.909 124.76C733.339 130.94 725.809 135.96 717.309 139.44C709.009 142.72 700.309 144.46 691.429 144.46C683.509 144.46 675.789 143.11 668.449 140.4C660.919 137.7 653.969 133.83 647.789 129.01C631.949 116.46 622.679 97.34 622.879 77.06C622.879 68.18 624.619 59.29 627.899 50.99C631.379 42.88 636.399 35.54 642.769 29.36C662.469 10.05 691.819 4.25 717.509 14.88C725.809 18.36 733.349 23.18 739.909 29.36C746.279 35.54 751.299 42.88 754.779 50.99C758.059 59.29 759.799 68.18 759.799 77.06Z" fill="black"/>
<path d="M810.399 117.81H825.659C840.139 117.81 850.569 114.53 857.139 107.96C863.709 101.39 866.989 90.96 866.989 76.87C866.989 62.78 863.709 52.34 857.139 45.78C850.569 39.21 840.139 35.93 825.659 35.93H810.399V117.82M782.979 140.79V12.75H817.939C828.949 12.56 839.759 13.52 850.579 15.65C858.109 17.39 865.259 20.67 871.629 25.31C879.359 30.91 885.339 38.44 889.199 47.13C893.259 56.59 895.379 66.83 895.189 77.06C895.379 87.49 893.259 97.72 889.009 107.38C884.949 116.07 878.769 123.6 871.049 129.01C865.259 133.26 858.499 136.35 851.539 138.09C844.389 140.02 833.969 140.79 820.059 140.79H782.979Z" fill="black"/>
<path d="M1021.29 46.16C1016.27 41.52 1010.48 37.86 1004.29 35.34C998.299 33.02 991.929 31.86 985.559 31.86C971.849 31.86 961.029 35.92 952.919 44.22C944.809 52.52 940.749 63.34 940.749 77.05C940.749 90.76 944.609 101.19 952.139 109.11C959.669 117.03 969.909 120.89 983.039 120.89C997.329 121.08 1011.04 115.68 1021.47 106.02L1021.28 134.22C1015.49 137.7 1009.31 140.21 1002.93 141.95C996.359 143.69 989.599 144.46 982.649 144.46C962.179 144.46 945.379 138.09 932.439 125.34C919.309 112.59 912.739 96.56 912.739 77.06C912.739 57.56 919.309 41.52 932.439 28.78C945.569 16.03 962.569 9.66 983.229 9.85C989.989 9.85 996.749 10.62 1003.32 11.97C1009.89 13.52 1016.45 15.83 1022.44 18.73L1021.28 46.15" fill="black"/>
<path d="M242.229 59.87C224.849 23.56 188.149 0.19 147.789 0C131.179 0.19 114.959 4.06 100.089 11.2C74.3995 23.56 53.1595 50.21 46.2095 76.86C34.6195 121.47 50.2695 166.66 88.6995 192.93C116.319 212.63 160.159 216.49 191.059 201.23C218.479 189.84 242.049 161.45 249.189 133.44C256.139 108.91 253.629 82.65 242.239 59.86L242.229 59.87ZM247.249 96.76C247.439 98.5 247.059 100.62 248.019 102.17L232.959 102.56L231.799 102.95L232.189 102.37C231.799 91.17 228.909 79.97 224.079 69.92C223.889 65.48 219.639 62.39 217.709 58.33C214.429 56.01 213.269 51.96 209.599 49.83C208.829 49.06 208.629 47.71 207.479 47.51L209.219 47.12C212.889 43.64 216.369 39.97 219.649 35.92C235.289 53.49 245.339 73.39 247.269 96.75L247.249 96.76ZM204.569 153.34C203.219 151.99 203.219 149.67 200.899 149.67C200.129 149.48 199.739 150.25 199.739 151.02L199.549 151.99L194.719 147.74C197.039 146.58 198.579 143.49 200.319 141.37C204.379 135.19 207.469 128.43 209.589 121.48C210.359 122.06 211.329 122.06 211.909 121.67C212.679 121.09 212.679 120.12 212.299 119.35L210.559 117.42C211.139 114.33 211.329 111.24 211.329 107.96L212.489 108.35C217.319 108.35 222.339 108.54 226.969 108.16L226.199 108.93C225.039 127.86 218.469 144.85 205.149 158.76C206.119 157.02 204.379 155.48 204.569 153.35V153.34ZM192.209 168.41C189.509 165.9 193.949 163.77 194.719 161.46C194.329 158.95 191.439 157.6 189.509 157.02C188.539 156.44 188.739 155.09 188.739 154.32C189.709 153.55 190.669 152.58 191.059 151.42L191.449 152.39L197.819 159.15C197.629 160.5 198.209 161.85 199.559 162.63C200.329 163.02 201.109 162.24 201.679 162.63H201.289C198.389 165.53 195.299 168.04 192.019 170.36L191.249 171.33C191.059 170.36 193.179 169.79 192.219 168.43L192.209 168.41ZM163.049 87.29C162.279 87.68 161.309 88.26 160.349 87.68C159.579 86.52 158.229 85.75 156.869 85.36C155.899 85.55 155.129 86.91 153.969 86.13C155.899 84.01 159.179 83.62 160.539 80.92C160.929 79.57 161.119 78.22 161.119 76.67C160.539 76.09 159.769 75.51 159.189 76.09C158.029 77.83 155.709 78.21 154.549 79.95L150.689 78.6C150.109 75.12 150.879 70.68 149.919 67.78C152.039 68.36 154.169 68.75 156.289 69.13C161.499 70.68 166.529 72.8 171.159 75.89C169.999 76.47 168.839 77.44 168.069 78.4C168.069 79.37 169.039 79.17 169.419 79.75L170.389 79.36C169.039 83.61 163.629 83.03 163.049 87.28V87.29ZM167.489 130.75C167.299 132.68 164.589 132.68 163.429 133.84C162.659 133.45 163.239 132.87 163.429 132.29C164.399 131.32 165.939 130.55 167.489 130.75ZM197.039 80.53C198.779 80.92 199.739 82.85 201.479 83.23C202.829 85.74 203.799 88.44 204.379 91.15C203.029 92.7 202.829 96.17 199.739 95.59C198.969 93.85 201.089 92.89 200.709 91.34C201.289 90.95 202.059 90.76 202.259 89.99C202.259 88.44 200.139 88.64 199.939 87.09C199.359 86.12 198.199 86.32 197.429 85.93C195.499 84.96 193.569 89.99 192.989 85.93C193.569 85.54 193.959 84.77 193.569 84C191.829 83.03 191.639 80.52 189.709 79.75C187.199 79.75 184.689 78.59 182.179 79.17C180.629 78.78 178.699 77.62 177.349 79.36C177.159 80.71 176.579 81.68 176.379 83.03C175.799 82.64 175.219 82.26 174.829 81.48C179.469 76.27 184.679 71.24 189.509 66.03L189.699 65.45C192.399 68.35 194.719 71.44 196.649 74.72C197.419 77.04 193.559 79.16 197.039 80.51V80.53ZM206.109 108.34C205.339 111.24 205.339 114.33 204.559 117.22L204.169 118.77C203.199 117.03 202.619 114.71 200.499 113.56C198.759 112.59 199.919 110.28 198.179 109.12L196.629 107.57C199.329 108.73 202.999 108.34 206.089 108.34H206.109ZM184.289 63.92C181.589 67.01 177.919 69.91 175.599 73.19L175.209 72.03C168.449 66.62 160.339 63.34 151.649 62.37L150.299 62.56L150.489 48.46L149.909 47.3C155.699 47.88 161.299 49.23 166.709 50.78C173.659 53.29 180.039 56.96 185.639 61.79L186.799 62.37L184.289 63.92ZM170.769 122.63L170.579 123.4C171.549 124.37 173.089 124.56 173.479 126.1C173.089 126.68 174.249 127.65 173.089 128.03C171.159 128.22 172.119 125.52 169.999 125.71C169.419 124.94 169.229 124.16 169.229 123.2C169.809 122.62 170.199 122.04 170.769 122.62V122.63ZM183.129 144.46C184.099 144.65 185.249 144.27 186.029 143.49C185.839 141.75 187.959 140.98 187.579 139.24C188.549 137.69 187.769 135.76 189.129 134.41C189.319 132.48 188.939 130.74 187.779 129.2C186.619 128.43 185.659 129.39 184.499 129.59C183.149 130.56 183.729 133.26 181.409 132.68C180.829 133.26 179.859 133.45 179.089 133.26L178.699 132.68C180.249 131.91 182.949 132.49 183.339 129.98C184.499 129.01 186.239 129.4 187.399 128.24C187.979 127.08 188.749 125.73 189.719 124.76L189.909 123.21C190.299 123.98 190.299 124.95 191.259 125.33C192.229 125.72 192.999 124.75 193.579 123.98L194.349 123.4C195.699 124.37 197.439 123.59 198.989 123.59C200.339 123.2 201.689 123.01 203.239 122.82C201.689 128.61 199.179 134.21 195.509 139.04C194.159 140.59 192.999 142.32 191.649 144.06C191.259 142.9 191.259 141.16 190.299 140.2L189.329 140.01C188.559 141.75 186.819 143.1 187.009 145.03C185.659 146.96 182.569 145.42 180.639 146.38C178.319 146.96 177.159 144.83 175.429 144.45C173.499 143.68 171.179 143.48 169.249 142.52L169.829 141.55C174.459 141.74 178.909 142.71 183.159 144.45L183.129 144.46ZM160.149 6.37C181.009 8.88 200.509 18.15 215.769 32.64L214.029 33.41C211.129 36.5 207.849 39.01 206.109 42.49C205.919 41.52 204.369 40.75 203.989 39.79C203.599 36.89 200.899 34.19 198.389 32.84C196.269 32.45 195.879 29.36 193.369 30.33C191.249 28.59 188.729 29.94 186.609 30.72V30.91C176.569 25.12 165.169 21.64 153.589 20.87C153.009 20.87 152.819 21.26 152.039 21.26C152.619 20.87 152.429 19.52 152.229 18.75C152.029 17.98 151.459 17.98 150.689 18.36L150.109 19.52C150.499 14.69 150.499 9.86 149.919 5.04C153.199 6.2 156.869 5.81 160.159 6.39L160.149 6.37ZM156.089 27.42C164.969 28.58 173.469 30.9 181.579 34.76C182.739 36.69 185.059 37.46 185.439 39.78C184.279 42.87 189.689 42.87 187.179 46.15C186.989 47.12 187.949 47.7 188.339 48.47C188.729 49.24 188.149 50.79 189.309 51.17C191.239 51.56 192.009 49.05 193.749 49.82C195.869 51.56 197.029 54.46 196.839 57.35C197.229 59.09 198.579 60.25 200.119 60.83C203.209 59.86 201.669 63.34 203.789 64.31C206.299 64.7 207.459 67.79 210.159 67.4C212.479 69.14 213.829 71.84 215.949 73.77L216.529 74.74C217.879 75.13 218.459 74.16 219.619 74.16C223.479 82.66 225.799 91.93 226.379 101.2L226.769 102.17C221.749 102.17 216.529 102.17 211.509 102.56C211.319 99.66 211.509 96.38 209.959 94.06C210.729 92.32 211.119 90.58 210.929 88.65C210.539 87.88 209.959 88.65 209.579 88.65C207.839 90.2 207.649 92.51 206.879 94.44C205.529 96.76 205.139 99.46 206.109 101.97L206.689 102.55L200.899 102.36C202.249 101.39 199.739 99.85 201.089 98.3L203.789 97.72C204.559 95.79 206.689 94.24 206.689 92.12C208.039 90.77 208.619 88.84 208.039 87.1C206.689 84.2 210.159 81.31 207.649 78.6C207.839 77.83 207.459 77.05 206.679 76.67H206.289C205.519 76.48 204.549 76.67 204.549 75.51C204.939 74.74 206.289 73.96 205.899 72.81C205.319 72.04 204.349 72.81 203.579 72.62C203.389 71.46 205.699 70.11 203.769 68.95C202.419 68.76 201.649 70.5 200.099 69.92C199.329 69.53 199.129 68.57 199.519 67.8L196.429 63.94C196.039 63.55 195.269 64.13 195.079 63.36C195.269 60.27 191.599 58.53 191.219 55.44C190.059 54.47 191.029 52.54 189.479 51.58C188.709 51 187.739 50.23 186.579 50.61C185.229 48.68 183.679 46.75 181.939 45.2L180.779 45.78C180.969 47.33 182.709 48.1 182.709 49.64L182.129 49.83C182.519 51.38 183.289 52.73 184.639 53.69C176.339 47.7 166.679 43.65 156.439 42.3C154.509 42.3 152.379 41.33 150.449 42.11C151.029 37.47 150.639 32.45 150.639 27.43L150.059 26.46C151.799 27.62 153.919 27.04 156.049 27.43L156.089 27.42ZM147.399 87.68L148.369 88.07C147.209 88.07 146.049 87.49 145.089 88.26C144.509 88.65 144.899 89.61 145.089 90.19C147.019 90.96 147.409 94.05 149.919 92.89C150.889 93.08 152.239 93.28 152.619 94.44C154.169 95.02 154.359 97.72 156.479 97.14C156.289 98.11 156.089 99.84 157.249 100.62C156.859 101.59 155.899 101.97 155.899 103.13L155.509 104.29C157.439 104.48 157.249 106.61 158.209 107.96C157.819 109.51 158.399 111.05 159.559 111.82C159.369 113.56 158.589 115.1 157.819 116.65C155.889 117.62 152.409 115.1 151.639 118.77C150.479 119.93 151.449 122.83 149.319 122.83C145.259 123.22 141.019 122.25 137.729 119.74C139.849 118.58 143.519 120.13 144.299 117.04C144.879 116.65 145.069 115.88 144.879 115.11C145.649 114.14 146.429 112.79 146.809 111.63C146.039 110.86 146.419 110.47 146.619 109.51C144.499 107.39 141.599 108.54 138.889 108.54C137.339 109.51 138.889 111.24 137.729 112.4C135.609 112.59 135.609 114.72 134.059 115.88C133.089 115.49 132.709 114.53 132.709 113.56H132.899L133.289 114.53C135.219 114.92 134.639 112.6 135.219 111.63C135.799 110.66 138.499 108.73 136.189 107.77C135.999 107.19 136.579 106.61 135.799 106.22C135.029 106.61 133.869 106.61 133.679 107.57C134.069 108.54 133.679 109.5 132.909 110.08H132.519C132.519 109.5 132.329 108.92 131.749 108.73C130.589 108.73 129.429 109.7 128.269 109.31C126.529 109.7 124.789 109.89 123.059 110.08C122.869 109.11 124.409 109.5 124.799 108.53C124.609 106.98 125.569 106.02 126.349 104.86H128.089C128.479 105.44 129.059 105.63 129.639 105.44L130.219 104.47C131.769 105.44 130.799 109.88 133.889 107.95C134.279 106.02 133.889 103.7 134.859 101.96C134.089 100.22 136.019 99.64 136.409 98.48C137.959 98.67 137.959 96.74 138.529 95.97C141.039 95.2 143.549 94.62 145.099 92.11C144.519 90.76 144.909 88.83 143.749 87.86C144.719 87.28 146.449 86.7 147.419 87.67L147.399 87.68ZM145.659 131.71C145.849 132.48 145.079 132.29 144.889 132.87C145.469 133.84 144.699 135.38 146.239 135.77C146.429 136.16 146.429 136.74 146.049 137.12C145.859 137.12 145.859 137.31 145.659 137.31C144.689 137.12 143.149 136.92 142.569 138.08C141.989 139.24 142.379 140.98 141.989 142.52C135.039 141.36 128.469 138.27 123.059 133.83C126.149 130.35 130.589 127.07 132.719 123.4C133.109 125.14 135.039 125.91 136.389 126.68C139.289 128.03 142.959 130.16 146.239 128.23L145.079 129C146.049 129.97 144.499 130.93 145.659 131.7V131.71ZM144.889 184.82L143.339 183.85C124.029 182.88 107.419 174.77 92.7395 162.22C95.0595 162.03 96.0195 165.12 98.5295 164.34C101.429 163.95 103.549 161.83 106.639 162.22C108.189 162.22 109.919 162.22 110.889 160.87C111.279 159.32 109.729 158.55 109.339 157.2C118.999 164.73 130.779 169.17 143.139 169.75L144.489 169.17V183.08L144.879 184.82H144.889ZM90.0395 109.31L89.2695 108.15C90.8195 109.12 92.5495 109.31 94.2895 108.54C91.7795 109.51 92.7395 112.6 91.7795 114.53C91.5895 115.5 92.9395 115.69 92.9395 116.65C91.5895 117.23 91.5895 118.58 91.0095 119.55C91.5895 116.07 90.2395 112.79 90.0395 109.31ZM74.2095 127.46C72.8595 127.65 73.2395 129.2 72.6595 129.97C72.6595 126.3 71.1095 122.63 70.7295 118.96L69.5695 109.3L68.9895 108.33C73.8195 108.72 78.6495 108.91 83.4695 108.72L84.6295 108.14C84.2395 110.46 84.0495 113.74 85.7895 115.87C85.2095 115.29 84.4395 113.36 83.0895 113.36C80.3895 113.55 80.1895 117.03 77.4895 117.22C75.3695 119.15 74.9795 121.66 74.5895 124.17C75.3595 125.14 73.6195 126.29 74.1995 127.45L74.2095 127.46ZM84.8295 103.32L83.4795 102.74L68.9995 102.93C70.3495 86.9 74.7895 72.22 84.0595 59.48L89.6595 52.33V51.36C93.1395 55.22 96.8095 59.09 100.669 62.37C90.8195 73.19 85.0295 87.09 84.2495 101.77L84.8295 103.32ZM144.309 42.1C141.609 41.52 138.899 42.49 136.009 42.68C124.229 44.8 113.409 50.41 104.529 58.52L104.339 57.55C100.859 54.27 97.5795 50.21 93.7195 47.7C96.9995 45.77 100.089 42.87 103.379 40.55C115.549 32.44 129.649 27.61 144.319 26.84C143.929 32.05 143.929 37.08 144.319 42.1H144.309ZM120.939 121.09L122.289 121.67C122.869 120.9 120.939 119.55 122.479 119.16C123.249 120.13 122.869 121.67 123.449 122.83C123.839 123.41 124.029 123.99 123.839 124.76C122.289 126.31 120.749 128.04 119.399 129.97C118.429 127.65 116.309 125.72 115.339 123.21C113.789 120.51 113.019 117.42 111.669 114.71C113.019 116.26 116.309 114.52 116.309 117.41L117.079 117.6L118.049 117.41C118.439 117.99 119.599 118.18 118.629 118.76C118.629 119.92 119.599 120.88 120.949 121.08L120.939 121.09ZM136.389 161.84L138.899 163C129.819 160.68 119.969 157.59 112.059 151.03C110.709 150.26 109.739 148.52 108.199 148.33C112.059 145.05 115.539 141.57 118.629 137.51C119.979 140.02 122.879 141.37 125.199 143.11C129.639 145.23 134.279 149.1 139.489 146.97C137.369 147.36 135.429 148.52 134.079 150.06C133.499 151.41 133.689 153.54 131.759 154.31C131.759 157.21 134.459 159.91 136.389 161.84ZM102.979 143.49L102.399 140.21C99.4995 137.51 100.279 132.87 99.8895 129.59C97.7695 127.85 99.4995 125.15 97.9595 123.41C97.9595 120.32 93.1295 119.35 94.6795 116.07C94.0995 115.3 93.3295 114.14 94.0995 113.17C94.8695 112.2 97.1895 113.17 97.7695 111.62L98.1595 108.72C99.3195 108.14 100.859 109.49 101.439 107.95C102.409 105.44 97.5795 102.16 101.829 100.8C103.179 100.61 105.109 100.41 105.689 102.15C106.269 104.08 106.459 106.4 105.879 108.33C107.229 108.91 105.879 110.07 105.879 111.03C105.109 111.42 104.329 112.19 103.369 112C102.979 111.42 102.209 110.07 101.249 110.26C100.479 111.42 101.439 112.58 101.439 113.74C101.249 114.51 101.439 115.29 100.859 115.86L99.6995 115.47C98.7295 115.86 99.3095 116.82 99.5095 117.4C100.479 117.98 101.059 118.95 102.209 118.95L102.599 118.37C102.599 116.63 103.369 115.28 103.369 113.73L104.919 114.5C106.469 120.87 109.169 127.05 113.029 132.46L114.959 134.39C110.129 138.64 105.689 143.27 101.439 148.1V148.29C101.439 148.1 101.249 147.13 100.669 147.52C100.279 145.2 103.759 145.78 102.989 143.46L102.979 143.49ZM110.319 81.5C108.969 82.47 107.619 83.62 106.839 85.17C105.489 85.94 103.939 85.94 102.979 87.29C102.979 87.87 103.559 88.64 102.789 89.03C101.629 90.19 99.1195 88.64 98.5395 90.96C98.3495 92.89 96.0295 94.05 96.2195 96.17C94.8695 96.94 95.2495 98.68 95.2495 100.03C96.0195 100.8 94.8595 102.35 96.2195 102.93C94.0995 102.54 91.7795 102.54 89.6495 103.12C90.6195 100.8 90.2295 97.91 90.9995 95.39C93.1195 84.57 97.9495 74.73 105.099 66.42C108.769 70.28 112.629 73.95 116.689 77.24C113.599 77.24 113.409 81.68 110.319 81.49V81.5ZM125.769 122.25C126.739 121.28 127.509 120.13 127.889 118.77L129.629 119.74C128.089 119.93 127.119 121.48 125.769 122.25ZM140.449 79.57C140.059 78.8 141.029 78.02 140.259 77.64C137.939 78.8 138.709 81.5 137.169 83.05C136.979 84.4 135.239 83.82 134.269 84.4C133.689 83.43 132.529 83.24 131.569 84.01C130.219 84.01 130.019 81.5 128.869 82.66C128.479 83.05 128.679 84.01 127.709 83.63L126.939 83.05C126.939 82.28 128.289 82.47 127.709 81.5C126.739 79.76 124.809 80.15 123.459 78.8H122.299C128.479 72.23 136.209 69.34 144.699 68.37C144.699 72.04 144.309 76.29 145.469 79.76C143.729 78.21 141.989 80.34 140.449 79.57ZM144.509 62.57C141.809 61.99 139.299 63.15 136.589 63.54C130.799 65.28 125.389 67.98 120.559 71.84L119.789 73C116.119 69.72 112.639 65.27 108.589 62.57C118.249 54.07 130.609 48.86 143.549 47.7L144.319 47.12C143.929 52.33 143.929 57.55 144.509 62.57ZM87.7295 25.49C104.149 13.52 123.839 6.56 144.119 5.6L143.729 7.15L143.919 19.7L144.309 21.05C124.419 21.82 105.299 29.74 90.8095 43.45L90.6195 44.22C87.1395 40.16 83.2795 36.49 79.0295 33.02H78.6395C81.7295 31.09 84.6295 27.81 87.7195 25.49H87.7295ZM48.7195 93.47C51.4195 72.03 60.8895 52.14 75.5595 36.3L75.9495 37.65C79.4295 41.13 83.0995 44.99 86.5695 48.08C83.6695 50.01 81.9295 53.49 79.6195 56C70.1595 69.13 64.7495 84.78 63.9795 100.81L64.3695 102.93C58.9595 102.54 53.5495 102.54 48.1495 102.93C48.5395 99.84 48.1495 96.56 48.7295 93.47H48.7195ZM74.7895 174.2C69.9595 167.83 64.5495 161.45 60.8795 154.5C53.1495 140.4 48.7095 124.57 48.1295 108.54L62.6095 108.73L63.9595 108.15C63.7695 109.12 63.7695 110.08 63.7695 111.05L63.9595 111.82C64.3495 117.23 65.1195 122.44 66.4695 127.66L67.2395 128.82C66.2695 127.85 65.4995 126.7 64.9195 125.54C63.7595 125.73 62.5995 126.12 61.4395 126.89C62.0195 128.44 60.4695 127.86 59.8895 128.44L58.9195 127.47C57.7595 127.47 56.5995 127.66 56.2195 128.82C56.4095 129.59 55.4495 129.98 55.2495 130.56C54.8595 132.88 54.0895 135.97 55.8295 137.9C55.8295 139.64 56.5995 141.18 57.9495 142.34L59.1095 141.95C60.4595 142.92 61.2295 145.62 63.3595 145.04C63.9395 144.65 63.7495 144.07 63.9395 143.69C65.0995 144.85 65.4895 146.97 67.6095 146.78C67.9995 147.36 68.3795 148.33 69.1595 148.33C71.2795 147.75 70.5095 150.84 72.2495 151.81C73.5995 152.58 74.1795 154.51 76.1095 153.55L76.6895 152.78L77.2695 154.71C78.2395 156.45 79.7795 157.61 81.7095 157.99C83.0595 159.92 84.7995 161.47 86.5395 163.01L85.1895 163.4L74.7595 174.21L74.7895 174.2ZM134.659 204.33C113.609 201.43 95.0695 192.36 78.8495 178.26L89.6695 167.44L89.8595 166.86C104.729 181.15 122.879 188.49 143.359 189.84L144.909 189.26L144.329 190.03V204.13L145.099 205.48C141.819 204.51 138.149 204.9 134.669 204.32L134.659 204.33ZM147.399 145.04C146.429 145.23 145.279 145.04 144.309 144.65L143.919 143.68C145.469 143.68 146.239 141.94 147.779 142.13C148.749 141.36 148.939 139.81 150.099 139.43C149.709 138.08 151.449 139.04 151.649 138.27C152.039 137.88 152.809 137.3 153.389 137.69C154.359 139.24 156.669 138.66 157.639 140.2L158.219 139.43V139.04C159.959 138.85 160.729 141.36 162.469 139.62V138.07L162.279 137.68C163.439 137.1 164.209 139.42 165.759 138.65C167.309 137.88 167.879 136.33 169.429 136.33L169.819 136.72C170.009 139.81 167.499 141.74 164.989 143.09C163.439 143.67 160.739 143.48 160.739 145.99C158.999 147.54 157.459 145.02 155.329 145.6C154.359 145.02 155.329 143.67 153.979 143.28C151.659 144.44 148.959 142.51 147.409 145.02L147.399 145.04ZM151.269 171.5C153.199 172.27 156.479 170.73 157.449 172.85C156.869 174.01 155.899 175.17 156.289 176.52C157.059 178.45 158.219 180.96 160.729 181.16C161.309 181.93 162.079 182.32 163.049 182.51C158.799 183.28 154.359 183.09 150.499 184.25C150.689 180 150.689 175.56 150.499 171.31L149.729 170.15C150.309 170.54 150.699 171.12 151.279 171.5H151.269ZM151.459 205.1L150.489 205.68C150.879 200.27 150.879 194.67 150.489 189.26C152.999 190.23 155.899 189.26 158.599 189.26L166.519 187.91C170.579 188.68 173.279 195.25 177.719 191.19C179.269 189.45 181.969 189.45 182.929 186.94C185.439 185.97 186.209 183.46 187.949 181.73C189.689 176.71 195.289 176.13 198.569 172.65C201.079 170.53 204.359 168.59 205.719 165.7L206.109 166.86L217.119 177.48C198.389 194.48 176.559 203.94 151.459 205.1ZM247.439 109.12C246.469 132.87 237.199 155.47 221.369 173.04L220.979 173.81C217.499 169.75 213.639 165.89 209.389 162.42C211.709 160.49 213.829 158.17 215.569 155.66C225.609 142.14 231.409 125.92 232.179 109.12L231.599 107.77L232.369 108.35L247.239 108.16L248.009 107.77L247.429 109.12H247.439Z" fill="black"/>
<path d="M199.929 31.67C200.699 30.7 199.349 29.74 199.739 28.58C199.349 27.61 198.389 26.84 197.419 26.65C196.259 27.81 195.489 25.68 194.329 26.84L194.719 28.39C196.839 29.16 197.039 32.45 199.929 31.67Z" fill="black"/>
<path d="M154.549 16.8C153.969 16.61 152.619 16.22 152.229 16.99V17.96C154.929 21.44 159.759 19.51 163.239 18.93C165.749 19.7 168.259 18.93 169.999 17.19V16.61C168.259 14.1 164.979 13.71 161.889 13.52L154.549 16.8Z" fill="black"/>
<path d="M259.419 44.81C257.099 35.54 253.819 26.66 246.089 19.9C239.519 14.11 231.219 12.17 223.689 8.89L232.379 17.77C239.909 29.55 249.379 39.79 260.769 47.9L259.419 44.81Z" fill="black"/>
<path d="M69.9595 10.24C59.5295 14.3 47.7495 18.35 41.3795 29.36C36.9395 35.35 36.7395 43.07 33.6495 49.64C39.4395 44.23 46.0095 39.98 51.2195 33.61C56.8195 25.5 62.2295 17 69.9495 10.24H69.9595Z" fill="black"/>
<path d="M273.129 45.19C271.009 35.34 262.119 24.72 252.079 22.79C256.139 25.69 259.229 29.74 260.959 34.38C264.049 44.62 265.589 55.24 270.039 64.89L269.849 65.08C268.109 62.38 267.339 59.09 264.639 56.78C256.909 46.74 243.399 44.03 238.369 31.87C239.719 39.02 241.849 45.97 246.869 51.57C255.559 61.03 268.309 66.63 274.289 78.41V78.22C271.969 66.83 275.639 56.01 273.129 45.2V45.19Z" fill="black"/>
<path d="M33.8495 54.27C30.1795 57.75 27.0895 62 25.1595 66.82L24.9695 66.63C25.9395 62.57 27.6695 58.9 28.8295 55.04C32.1095 44.42 31.3395 31.67 41.7695 24.53C36.3595 26.08 31.3395 29.36 27.8595 33.8C19.3595 42.88 20.1295 56.78 21.2895 68.95C21.4795 72.62 20.7095 76.29 21.0995 79.77C23.9995 74.36 28.0495 69.73 32.6895 65.86C43.8895 57.94 55.4795 46.93 55.6695 33.03C51.9995 43.27 40.9895 47.51 33.8495 54.27Z" fill="black"/>
<path d="M279.689 47.51C288.959 60.06 291.079 80.15 284.319 94.44C281.809 100.62 280.069 107.19 278.909 113.75C278.519 112.59 278.329 111.05 277.939 109.69C274.269 95.59 260.939 85.55 255.339 72.22C253.599 67.78 252.249 63.34 251.279 58.7C257.069 69.52 271.559 75.12 275.609 87.09C277.159 90.18 277.159 93.85 278.119 97.13L278.509 96.74C276.959 84.38 277.159 71.83 278.899 59.47C278.709 52.9 278.129 46.53 274.459 41.32C276.969 42.67 278.129 45.38 279.669 47.5" fill="black"/>
<path d="M19.5495 43.65C11.6295 55.62 18.1995 70.88 17.8095 84.59L16.6495 98.69L17.2295 99.08C17.6195 97.53 17.8095 95.8 18.1995 94.25C20.1295 82.86 29.9795 74.94 38.4795 67.02C40.4095 65.09 41.7595 62.96 42.9195 60.45C42.1495 66.24 40.5995 71.84 38.0895 77.06C31.3295 90.19 18.9695 100.81 16.6495 115.88C15.6795 101.4 5.82948 90.77 6.79948 75.52C6.60948 63.16 11.6295 53.12 18.9695 43.85L19.5495 43.66" fill="black"/>
<path d="M288.379 129.01C282.779 136.74 276.209 144.07 271.189 151.99C271.769 145.81 272.539 137.89 270.029 132.1C265.779 119.16 262.109 106.22 260.949 92.12L261.139 86.71C264.229 101.19 278.519 111.04 277.559 127.07C277.559 130.74 276.979 134.22 276.009 137.69L276.199 137.88L276.779 137.11C278.899 129.19 279.869 120.89 283.149 113.55C287.779 102.93 293.579 92.11 291.069 79.37C298.219 94.63 296.089 114.91 288.369 129" fill="black"/>
<path d="M15.4995 123.99C17.0495 129.2 17.4295 135 19.5595 140.02L20.1395 139.83C14.7295 124.77 22.4595 110.86 30.1795 98.89C31.9195 95.61 33.2695 92.13 34.0395 88.46C34.8095 95.22 33.0695 103.14 32.1095 110.28C30.1795 119.36 27.4695 127.85 24.9595 136.55C23.6095 142.15 23.4095 148.14 24.5695 153.93L23.7995 153.35C18.0095 142.73 6.79948 134.62 3.32948 123.03C0.629477 113.76 -1.11052 103.14 0.819477 93.29C1.39948 89.43 2.55948 85.56 4.09948 81.9C0.819477 98.12 11.8295 109.9 15.4895 124" fill="black"/>
<path d="M266.749 153.73C266.359 160.49 264.239 167.06 260.379 172.66H260.959C265.979 166.09 269.839 158.95 275.829 152.77C284.909 144.08 294.179 135 295.339 122.84C298.429 143.31 287.039 161.08 270.039 172.67C263.089 177.31 255.939 181.55 249.179 186.77V186.19C259.419 169.19 254.389 145.63 260.769 126.9L263.089 120.72C262.119 132.11 267.339 142.16 266.759 153.74" fill="black"/>
<path d="M41.9595 176.9C43.3095 180.57 45.0495 184.43 46.7895 187.91C31.1495 177.29 9.89948 167.25 2.94948 147.74C0.0494769 141.17 -0.340523 132.68 0.239477 124.95C1.58948 142.33 20.1295 151.41 28.8195 165.89C30.7495 168.98 32.8795 171.88 35.3895 174.58C34.9995 172.65 33.2695 171.1 32.6895 169.37C29.5995 163 28.4395 155.85 29.2095 148.9C29.9795 140.02 33.8495 131.9 32.2995 122.44C40.0295 138.66 37.7095 159.13 41.9595 176.9Z" fill="black"/>
<path d="M274.669 177.1C262.499 186.18 247.829 189.27 236.619 200.66C235.459 201.43 234.109 202.59 232.759 202.59C237.009 198.92 240.679 194.67 243.379 189.84C250.329 178.06 247.629 162.42 253.619 150.25C250.339 154.31 247.049 158.55 244.159 163C234.309 178.06 235.079 197.76 220.209 210.32C228.899 207.42 238.559 206.46 247.629 204.14C265.009 198.54 283.549 181.16 285.869 162.62C283.549 168.41 279.689 173.44 274.669 177.1Z" fill="black"/>
<path d="M56.4395 174.2C52.5795 166.28 47.7495 158.75 41.7595 152.18C48.1295 164.93 45.2395 181.73 53.7295 193.51C56.4295 197.37 59.7195 200.85 63.3895 203.94L63.1995 204.13C60.1095 202.58 57.2095 200.65 54.6995 198.34C40.2195 186.17 18.3895 184.63 9.69948 164.93C12.0195 179.41 23.2195 192.55 35.7695 200.27C47.3595 208.38 62.6095 207.22 75.7495 211.47C63.7795 201.62 61.8395 186.94 56.4395 174.2Z" fill="black"/>
<path d="M214.999 214.37C210.359 214.95 206.119 216.49 201.289 216.49C204.569 214.94 208.629 214.56 211.719 212.43C224.659 206.06 225.429 191.77 233.349 181.72C222.729 188.87 214.419 198.33 204.769 207.41C198.399 213.2 190.479 215.71 182.369 217.45V217.64L185.649 218.03C202.649 220.73 220.409 228.85 237.989 222.28C248.229 218.61 259.429 210.11 264.059 199.88C252.089 214.56 232.189 211.85 215.009 214.36L214.999 214.37Z" fill="black"/>
<path d="M62.8095 183.28C70.7295 193.9 72.8495 209.55 87.3395 214.76C89.8495 216.11 92.7495 215.92 95.0695 217.27C92.1695 217.66 89.8595 216.69 87.3395 216.3C68.7995 212.24 46.0095 217.46 32.1095 201.62C37.8995 212.05 47.3695 219.97 58.7595 223.64C74.9795 229.05 91.9795 223.06 107.229 219.2C109.549 218.62 112.059 218.81 114.179 218.04C105.679 216.3 97.5695 213.6 90.9995 207.8C81.3395 198.92 72.8495 189.84 62.7995 183.27L62.8095 183.28Z" fill="black"/>
<path d="M204.369 229.24C215.759 233.49 230.249 232.33 240.099 225.38C235.079 231.37 228.709 236 221.369 238.51C205.729 244.3 189.309 238.32 176.949 228.85C171.929 225.76 167.679 221.12 161.109 221.51C158.989 221.32 156.669 221.51 154.539 222.09C166.899 227.88 178.099 235.61 187.759 245.07C185.829 247 183.899 248.93 181.769 250.48C171.919 239.86 161.109 229.82 149.129 224.02C146.809 224.6 144.489 225.57 142.369 226.92C131.939 233.29 122.859 241.4 115.329 250.87L109.149 245.66C118.809 235.81 130.009 227.89 142.369 221.91C130.399 218.05 122.669 228.09 113.589 233.11C102.969 240.45 87.8995 243.93 74.9595 238.9C67.8095 236.39 61.4395 231.95 56.4195 226.15C66.4595 233.1 81.5295 233.88 92.9195 229.24C108.369 222.67 124.209 214.18 142.749 218.23C145.649 218.23 148.539 221.13 151.249 218.62C165.159 215.34 179.639 217.07 192.389 223.83L204.359 229.24" fill="black"/>
<path d="M350.379 185.59V212.05C350.379 221.9 354.819 226.15 360.619 226.15C367.189 226.15 371.239 221.71 371.239 212.05V185.59H377.029V211.66C377.029 225.37 369.879 230.97 360.419 230.97C350.959 230.97 344.579 225.76 344.579 212.04V185.58H350.369" fill="black"/>
<path d="M386.679 206.64C386.679 203.36 386.679 200.65 386.489 197.95H391.509L391.899 203.16H392.089C394.209 199.49 398.269 197.17 402.519 197.17C406.769 197.17 413.719 199.87 413.719 210.69V229.81H407.929V211.27C407.929 206.06 405.999 201.81 400.589 201.81C396.919 202 393.829 204.32 392.859 207.8C392.669 208.77 392.469 209.54 392.469 210.5V229.81H386.679V206.63" fill="black"/>
<path d="M428.779 198.15H422.989V230.21H428.779V198.15Z" fill="black"/>
<path d="M425.699 192.16C423.579 192.16 422.029 190.42 422.029 188.3C422.029 186.18 423.769 184.63 425.889 184.63C427.819 184.63 429.559 186.18 429.559 188.11V188.3C429.749 190.23 428.209 191.97 426.279 192.16C426.089 192.35 425.889 192.35 425.699 192.16Z" fill="black"/>
<path d="M445.199 190.42V198.15H453.499V202.59H445.199V219.78C445.199 223.64 446.359 225.96 449.449 225.96C450.609 225.96 451.769 225.96 452.729 225.57L452.919 230.01C451.179 230.59 449.639 230.78 447.899 230.78C445.579 230.97 443.269 230.01 441.719 228.27C439.979 225.76 439.209 222.86 439.399 219.77V202.39H434.569V197.95H439.399V192.16L444.999 190.42" fill="black"/>
<path d="M484.989 212.44C484.989 206.65 482.289 197.38 472.049 197.38C462.779 197.38 457.179 204.91 457.179 214.76C457.179 224.61 462.969 230.79 472.629 230.79C476.299 230.79 479.969 230.21 483.249 228.67L482.279 224.61C479.579 225.77 476.489 226.35 473.589 226.16C467.799 226.16 462.969 222.88 462.769 214.96H484.789C484.979 214.38 484.979 213.41 484.979 212.45L484.989 212.44ZM462.779 210.89C463.169 206.83 465.679 201.43 471.659 201.43C478.029 201.43 479.579 207.22 479.579 210.89H462.779Z" fill="black"/>
<path d="M519.359 221.71V183.08H513.569V202.2H513.379C511.259 198.92 507.589 197.18 503.919 197.37C496.189 197.37 489.629 203.94 489.819 214.56C489.819 224.22 495.809 230.78 503.339 230.78C507.779 230.97 512.029 228.46 513.959 224.6H514.149L514.339 230.2H519.549C519.549 227.88 519.359 224.6 519.359 221.7V221.71ZM513.569 216.69C513.569 217.46 513.569 218.43 513.379 219.2C512.609 223.26 509.129 226.15 504.879 226.15C498.699 226.15 495.609 220.74 495.609 214.18C495.609 207.23 499.089 201.82 505.069 201.82C509.129 201.82 512.409 204.52 513.369 208.39C513.559 209.16 513.559 210.13 513.559 210.9V216.69H513.569Z" fill="black"/>
<path d="M542.919 230.01V185.59H549.099L563.199 208.19C566.099 212.83 568.799 217.65 571.119 222.67H571.309C570.729 216.68 570.729 211.28 570.729 204.52V185.79H576.139V230.4H570.349L556.249 207.8C553.159 202.97 550.459 198.14 548.139 192.93H547.949C548.339 198.53 548.339 203.94 548.339 211.28V230.4L542.929 230.01" fill="black"/>
<path d="M602.209 213.79C596.029 213.6 588.879 214.76 588.879 220.94C588.689 223.64 590.619 226.15 593.509 226.54H594.279C597.759 226.54 600.849 224.42 602.009 221.13L602.199 219.2V213.79M607.809 222.29C607.809 224.8 607.999 227.5 608.199 230.02H603.179L602.599 225.96H602.409C600.089 229.05 596.619 230.79 592.749 230.79C587.729 231.18 583.479 227.31 583.089 222.49V221.72C583.089 213.99 589.849 209.75 602.019 209.75V209.17C602.019 206.47 601.249 201.64 594.869 201.83C591.969 201.83 589.079 202.6 586.569 204.15L585.219 200.29C588.309 198.36 591.979 197.39 595.649 197.59C605.309 197.59 607.619 204.35 607.619 210.72L607.809 222.31V222.29Z" fill="black"/>
<path d="M623.839 190.42V198.15H632.139V202.59H623.839V219.78C623.839 223.64 624.999 225.96 628.089 225.96C629.249 225.96 630.409 225.96 631.369 225.57L631.559 230.01C630.019 230.59 628.279 230.78 626.539 230.78C624.219 230.97 621.909 230.01 620.359 228.27C618.819 226.53 618.239 223.63 618.239 219.77V202.39H613.409V197.95H618.239V192.16L623.839 190.42Z" fill="black"/>
<path d="M638.519 198.15H644.309V230.21H638.519V198.15ZM641.219 192.35C639.099 192.35 637.549 190.61 637.549 188.49C637.549 186.37 639.289 184.82 641.409 184.82C643.339 184.82 645.079 186.37 645.079 188.3V188.49C645.269 190.42 643.729 192.16 641.799 192.35H641.219Z" fill="black"/>
<path d="M666.719 226.34C672.319 226.34 676.379 221.13 676.379 213.79C676.379 208.38 673.679 201.62 666.919 201.62C660.159 201.62 657.259 207.99 657.259 213.98C657.259 221.13 661.119 226.34 666.719 226.34ZM666.519 230.78C658.019 230.78 651.259 224.41 651.259 214.36C651.259 203.54 658.209 197.36 666.899 197.36C675.589 197.36 682.159 204.12 682.159 213.78C682.349 225.56 674.239 230.78 666.519 230.78Z" fill="black"/>
<path d="M689.509 206.64C689.509 203.36 689.509 200.65 689.319 197.95H694.339L694.729 203.16H694.919C697.039 199.49 701.099 197.17 705.349 197.17C709.599 197.17 716.549 199.87 716.549 210.69V229.81H710.759V211.27C710.759 206.06 708.829 201.81 703.419 201.81C699.749 202 696.659 204.32 695.689 207.8C695.499 208.77 695.299 209.54 695.299 210.5V229.81H689.509V206.63" fill="black"/>
<path d="M725.039 224.22C727.359 225.57 730.059 226.34 732.769 226.54C736.829 226.54 738.759 224.42 738.759 221.71C738.759 219 737.019 217.46 732.969 215.92C727.179 213.8 724.469 210.71 724.469 206.84C724.469 201.63 728.719 197.38 735.289 197.38C737.989 197.38 740.699 197.96 743.019 199.31L741.669 203.56C739.739 202.4 737.419 201.63 735.299 201.63C731.819 201.63 730.089 203.56 730.089 205.88C730.089 208.58 732.019 209.74 736.079 211.29C741.489 213.41 744.379 216.12 744.379 220.95C744.379 226.74 739.939 230.61 732.599 230.61C729.509 230.61 726.419 229.84 723.719 228.29L725.069 224.23" fill="black"/>
<path d="M783.169 226.15C792.249 226.15 797.269 217.85 797.269 207.61C797.269 198.73 792.639 189.46 783.169 189.46C773.699 189.46 769.069 198.34 769.069 208C769.069 217.66 774.089 226.15 783.169 226.15ZM782.779 230.78C771.189 230.78 763.079 221.7 763.079 208.18C763.079 194.66 771.769 184.81 783.359 184.81C795.529 184.81 803.249 194.08 803.249 207.41C803.249 222.47 793.979 230.78 782.779 230.78Z" fill="black"/>
<path d="M812.139 230.01V202.39H807.699V197.95H812.139V196.4C812.139 191.96 813.109 187.71 815.809 185.2C817.929 183.27 820.639 182.11 823.539 182.3C825.279 182.3 826.819 182.69 828.369 183.27L827.599 187.71C826.439 187.13 825.089 186.94 823.929 186.94C819.099 186.94 817.749 191.19 817.749 196.21V197.95H825.479V202.39H817.949V230.01H812.159" fill="black"/>
<path d="M831.069 230.01V202.39H826.629V197.95H831.069V196.4C831.069 191.96 832.039 187.71 834.739 185.2C836.859 183.27 839.569 182.11 842.469 182.3C844.209 182.3 845.749 182.69 847.299 183.27L846.529 187.71C845.369 187.13 844.019 186.94 842.859 186.94C838.029 186.94 836.679 191.19 836.679 196.21V197.95H844.409V202.39H836.679V230.01H831.079" fill="black"/>
<path d="M849.609 198.15H855.399V230.21H849.609V198.15ZM852.499 192.35C850.379 192.35 848.829 190.61 848.829 188.49C848.829 186.37 850.569 184.82 852.689 184.82C854.619 184.82 856.359 186.37 856.359 188.3V188.49C856.549 190.42 855.009 192.16 853.079 192.35H852.499Z" fill="black"/>
<path d="M887.459 229.05C884.559 230.4 881.469 230.98 878.379 230.98C868.919 230.98 862.739 224.41 862.739 214.56C862.739 204.71 869.309 197.56 879.739 197.56C882.439 197.56 885.149 198.14 887.659 199.3L886.309 203.74C884.189 202.77 881.869 202.19 879.549 202.19C872.209 202.19 868.349 207.6 868.349 214.36C868.349 221.7 872.979 226.33 879.359 226.33C881.869 226.33 884.189 225.75 886.309 224.78L887.469 229.03" fill="black"/>
<path d="M913.919 210.89C913.919 207.22 912.379 201.43 905.999 201.43C900.209 201.43 897.699 206.84 897.119 210.89H913.919ZM897.119 215.14C897.309 223.06 902.139 226.34 907.939 226.34C911.029 226.34 913.929 225.95 916.629 224.79L917.599 228.85C914.319 230.2 910.649 230.97 906.979 230.97C897.319 230.97 891.529 224.4 891.529 214.94C891.529 205.48 897.319 197.56 906.399 197.56C916.829 197.56 919.339 206.83 919.339 212.62C919.339 213.59 919.339 214.55 919.149 215.32H897.129V215.13L897.119 215.14Z" fill="black"/>
<path d="M953.309 226.34C958.719 226.34 962.969 221.13 962.969 213.79C962.969 208.38 960.269 201.62 953.509 201.62C946.749 201.62 943.849 207.99 943.849 213.98C944.039 221.13 947.909 226.34 953.309 226.34ZM953.309 230.78C944.809 230.78 938.249 224.41 938.249 214.36C938.249 203.54 945.199 197.36 953.889 197.36C962.579 197.36 969.149 204.12 969.149 213.78C968.959 225.56 960.849 230.78 953.309 230.78Z" fill="black"/>
<path d="M976.099 206.64C976.099 203.36 976.099 200.65 975.909 197.95H980.929L981.319 203.16H981.509C983.629 199.3 987.689 197.17 991.939 197.17C996.189 197.17 1003.14 199.87 1003.14 210.69V229.81H997.349V211.27C997.349 206.06 995.419 201.81 990.009 201.81C986.339 202 983.249 204.32 982.279 207.8C982.089 208.77 981.889 209.54 981.889 210.5V229.81H976.099V206.63" fill="black"/>
<path d="M1032.11 225.57C1034.04 225.76 1035.97 225.96 1037.9 225.76C1050.07 225.76 1056.63 218.81 1056.63 206.83C1056.63 196.21 1050.84 189.64 1038.86 189.64C1036.54 189.64 1034.42 189.83 1032.1 190.22V225.56M1026.32 186.17C1030.38 185.59 1034.43 185.2 1038.49 185.2C1046.6 185.2 1052.4 187.13 1056.26 190.61C1060.12 194.09 1062.44 199.49 1062.44 206.64C1062.83 213.01 1060.51 219.39 1056.07 224.02C1051.82 228.27 1045.06 230.39 1036.56 230.39C1033.08 230.39 1029.61 230.2 1026.13 229.81V186.16H1026.32V186.17Z" fill="black"/>
<path d="M1069.96 208C1069.96 204.14 1069.96 201.05 1069.77 197.96H1074.79L1074.98 204.14H1075.17C1076.33 200.08 1079.81 197.38 1084.05 197.19L1085.59 197.38V202.79C1085.01 202.79 1084.24 202.6 1083.66 202.6C1079.6 202.6 1076.71 205.69 1075.93 209.94C1075.74 210.91 1075.74 211.87 1075.74 212.64V229.64H1069.95V208.01" fill="black"/>
<path d="M1117.47 221.32C1117.47 224.6 1117.47 227.5 1117.66 230.01H1112.64L1112.25 224.8H1112.06C1109.94 228.47 1105.88 230.79 1101.63 230.79C1096.61 230.79 1090.82 227.89 1090.82 216.88V198.15H1096.61V215.72C1096.61 221.9 1098.54 225.96 1103.56 225.96C1106.84 225.96 1109.93 223.84 1111.09 220.55C1111.48 219.58 1111.67 218.62 1111.67 217.65V198.14H1117.46V221.32" fill="black"/>
<path d="M1148.37 210.7C1148.37 209.73 1148.37 208.96 1147.98 208.19C1147.01 204.52 1143.73 202.01 1139.87 202.01C1134.46 202.01 1130.41 206.65 1130.41 214.18C1130.41 220.36 1133.69 225.77 1139.68 225.77C1143.35 225.77 1146.63 223.26 1147.6 219.78C1147.99 218.81 1147.99 217.66 1147.99 216.69V210.7M1154.16 225.38C1154.16 232.72 1152.62 237.16 1149.72 240.06C1146.44 242.76 1142.38 244.12 1138.13 243.92C1134.46 243.92 1130.79 243.15 1127.51 241.22L1129.05 236.78C1131.75 238.52 1135.04 239.48 1138.32 239.29C1144.11 239.29 1148.56 236.2 1148.56 228.09V224.61H1148.37C1146.25 228.09 1142.38 230.21 1138.33 230.02C1130.41 230.02 1124.81 223.26 1124.81 214.38C1124.81 203.56 1131.76 197.38 1139.1 197.38C1143.16 197.19 1147.02 199.31 1148.95 202.79H1149.14L1149.33 197.96H1154.35C1154.16 200.28 1154.16 202.79 1154.16 206.65V225.38Z" fill="black"/>
<path d="M1162.66 224.22C1164.98 225.57 1167.68 226.34 1170.39 226.54C1174.45 226.54 1176.57 224.42 1176.57 221.71C1176.57 219 1175.03 217.46 1170.78 215.92C1164.99 213.8 1162.28 210.71 1162.28 206.84C1162.28 201.63 1166.53 197.38 1173.29 197.38C1175.99 197.38 1178.7 197.96 1181.02 199.31L1179.67 203.56C1177.74 202.4 1175.42 201.63 1173.3 201.63C1169.82 201.63 1168.09 203.56 1168.09 205.88C1168.09 208.58 1170.02 209.74 1174.08 211.29C1179.49 213.41 1182.38 216.12 1182.38 220.95C1182.38 226.74 1178.13 230.61 1170.6 230.61C1167.51 230.61 1164.42 229.84 1161.72 228.29L1162.69 224.23" fill="black"/>
<path d="M1219.83 213.79C1213.65 213.6 1206.5 214.76 1206.5 220.94C1206.31 223.64 1208.24 226.15 1210.94 226.54H1211.71C1215.19 226.54 1218.28 224.42 1219.44 221.13L1219.63 219.2L1219.82 213.79M1225.43 222.29C1225.43 224.8 1225.62 227.5 1225.82 230.02H1220.61L1220.03 225.96H1219.84C1217.52 229.05 1214.05 230.79 1210.18 230.79C1205.16 231.18 1200.91 227.31 1200.52 222.29V221.52C1200.52 213.79 1207.28 209.55 1219.45 209.55V208.97C1219.45 206.27 1218.68 201.44 1212.3 201.63C1209.4 201.63 1206.51 202.4 1204 203.95L1202.65 200.09C1205.74 198.16 1209.41 197.19 1213.08 197.39C1222.74 197.39 1225.25 204.15 1225.25 210.52L1225.44 222.3L1225.43 222.29Z" fill="black"/>
<path d="M1234.7 206.64C1234.7 203.36 1234.7 200.65 1234.51 197.95H1239.53L1239.92 203.16H1240.11C1242.23 199.3 1246.29 197.17 1250.54 197.17C1254.79 197.17 1261.74 199.87 1261.74 210.69V229.81H1255.95V211.27C1255.95 206.06 1254.02 201.81 1248.61 201.81C1244.94 202 1241.85 204.32 1240.88 207.8C1240.69 208.77 1240.49 209.54 1240.49 210.5V229.81H1234.7V206.63" fill="black"/>
<path d="M1292.44 211.09C1292.44 210.32 1292.44 209.35 1292.25 208.58C1291.48 204.72 1288 201.82 1283.95 202.01C1277.96 202.01 1274.49 207.22 1274.49 214.37C1274.49 220.94 1277.77 226.34 1283.76 226.34C1287.82 226.34 1291.29 223.44 1292.26 219.39C1292.45 218.62 1292.65 217.65 1292.45 216.88V211.09M1298.24 183.08V221.71C1298.24 224.61 1298.24 227.89 1298.43 230.01H1293.22L1293.03 224.41H1292.84C1290.72 228.47 1286.66 230.78 1282.22 230.59C1274.49 230.59 1268.7 224.02 1268.7 214.37C1268.7 203.75 1275.27 197.18 1282.8 197.18C1286.66 196.99 1290.33 198.73 1292.26 202.01H1292.45V183.08H1298.24Z" fill="black"/>
<path d="M1352.5 228.66C1348.83 230.21 1344.97 230.98 1340.91 230.78C1328.55 230.78 1319.28 222.86 1319.28 208.18C1319.28 194.27 1328.55 184.81 1342.26 184.81C1345.93 184.62 1349.41 185.39 1352.69 186.74L1351.34 191.38C1348.64 190.03 1345.55 189.45 1342.46 189.64C1332.22 189.64 1325.27 196.4 1325.27 207.99C1325.27 219.58 1331.45 225.95 1342.07 225.95C1345.35 225.95 1348.44 225.37 1351.34 224.02L1352.5 228.65" fill="black"/>
<path d="M1359.46 208C1359.46 204.14 1359.46 201.05 1359.27 197.96H1364.29L1364.48 204.14H1364.67C1365.83 200.08 1369.31 197.38 1373.55 197.19L1375.09 197.38V202.79C1374.51 202.79 1373.74 202.6 1373.16 202.6C1369.1 202.6 1366.21 205.69 1365.43 209.94C1365.24 210.91 1365.24 211.87 1365.24 212.64V229.64H1359.45V208.01" fill="black"/>
<path d="M1381.09 198.15H1386.88V230.21H1381.09V198.15ZM1383.79 192.35C1381.67 192.35 1380.12 190.61 1380.12 188.49C1380.12 186.37 1381.86 184.82 1383.98 184.82C1385.91 184.82 1387.65 186.37 1387.65 188.3V188.49C1387.84 190.42 1386.3 192.16 1384.37 192.35H1383.79Z" fill="black"/>
<path d="M1396.34 206.64C1396.34 203.36 1396.15 200.65 1396.15 197.95H1401.17L1401.36 203.16H1401.55C1403.48 199.49 1407.34 197.17 1411.59 197.37C1415.65 197.37 1419.12 199.88 1420.47 203.74H1420.66C1421.63 202.19 1422.78 200.65 1424.33 199.49C1426.26 197.94 1428.77 197.17 1431.28 197.17C1435.53 197.17 1441.71 199.87 1441.71 211.08V230.01H1436.11V211.86C1436.11 205.68 1433.79 202.01 1429.35 202.01C1426.26 202.2 1423.36 204.13 1422.4 207.22C1422.21 208.19 1422.01 209.15 1422.01 210.12V230.01H1416.41V210.89C1416.41 205.68 1414.29 202.01 1409.84 202.01C1406.56 202.2 1403.66 204.52 1402.69 207.8C1402.3 208.77 1402.3 209.73 1402.3 210.7V230.01H1396.31V206.64" fill="black"/>
<path d="M1470.7 210.89C1470.7 207.22 1469.16 201.43 1462.78 201.43C1456.99 201.43 1454.48 206.84 1453.9 210.89H1470.7ZM1454.09 215.14C1454.28 223.06 1459.11 226.34 1464.9 226.34C1467.99 226.34 1470.89 225.95 1473.59 224.79L1474.56 228.85C1471.28 230.2 1467.61 230.97 1463.94 230.97C1454.28 230.97 1448.49 224.4 1448.49 214.94C1448.49 205.48 1454.09 197.56 1463.36 197.56C1473.6 197.56 1476.3 206.83 1476.3 212.62C1476.3 213.59 1476.3 214.55 1476.11 215.32H1454.09V215.13V215.14Z" fill="black"/>
</svg>
