<svg width="1062" height="431" viewBox="0 0 1062 431" fill="none" xmlns="http://www.w3.org/2000/svg">
<path d="M344.916 378.542C311.326 403.532 268.826 417.122 223.586 414.022C123.916 407.162 48.7357 321.792 55.6757 223.342C60.4157 156.032 102.316 100.032 160.196 73.5323C90.1357 95.5723 37.2957 157.992 31.8757 234.852C24.7957 335.422 101.586 422.632 203.396 429.642C257.916 433.392 308.546 413.382 344.916 378.542Z" fill="black"/>
<path d="M60.5457 368.262C31.2057 328.802 15.2357 278.882 18.8757 225.742C26.9257 108.652 127.216 20.3423 242.876 28.4923C321.946 34.0623 387.726 83.2823 418.856 151.272C392.966 68.9723 319.636 6.90229 229.346 0.532289C111.196 -7.78771 8.74569 82.4123 0.525686 202.022C-3.87431 266.062 19.6257 325.532 60.5457 368.252" fill="black"/>
<path d="M106.896 223.142H135.886L153.806 297.482H154.256L193.196 223.142H220.406L163.776 329.342H135.446L106.896 223.142Z" fill="black"/>
<path d="M231.026 285.122C230.606 300.552 241.036 309.902 255.596 309.902C268.636 309.902 277.996 303.812 285.596 295.772L302.336 309.902C287.976 324.902 271.686 330.772 255.156 330.772C223.636 330.772 201.686 308.822 206.246 275.992C210.806 243.162 239.076 221.212 270.596 221.212C299.726 221.212 316.686 241.642 311.466 277.942L310.596 285.132H231.026V285.122ZM287.116 265.542C289.066 250.332 280.596 240.772 264.286 240.772C248.856 240.772 237.766 250.552 233.636 265.542H287.116Z" fill="black"/>
<path d="M315.126 245.982L318.166 223.812H339.686L344.026 193.602H370.116L365.766 223.812H397.756V245.982H362.726L356.406 291.642C354.886 302.072 357.066 308.592 368.596 308.592C373.156 308.592 386.336 303.382 390.026 300.982L380.116 327.282C374.246 329.882 364.896 330.762 358.806 330.762C331.196 330.762 326.426 318.372 329.896 293.812L336.636 245.972H315.116L315.126 245.982Z" fill="black"/>
<path d="M620.786 247.812C618.446 242.062 615.116 237.162 610.756 233.102C606.386 229.032 601.066 225.912 594.776 223.742C588.486 221.562 581.376 220.472 573.466 220.472C564.346 220.472 555.986 222.132 548.416 225.452C540.836 228.772 534.276 233.322 528.726 239.112C523.176 244.912 518.866 251.702 515.806 259.482C512.736 267.262 511.186 275.602 511.186 284.522C511.186 291.552 512.356 297.952 514.686 303.692C517.006 309.432 520.386 314.342 524.786 318.402C529.196 322.462 534.576 325.582 540.916 327.752C547.246 329.942 554.436 331.032 562.456 331.032C571.576 331.032 579.926 329.372 587.506 326.042C589.536 325.152 591.496 324.152 593.376 323.082L588.136 356.102H610.686L621.856 285.502C623.456 279.622 624.286 273.452 624.286 266.972C624.286 259.942 623.106 253.562 620.786 247.812ZM596.196 283.702C594.606 288.502 592.326 292.762 589.356 296.472C586.376 300.182 582.736 303.162 578.426 305.392C574.126 307.622 569.246 308.732 563.796 308.732C559.426 308.732 555.606 308.032 552.286 306.652C548.966 305.262 546.166 303.382 543.886 301.002C541.596 298.632 539.876 295.842 538.696 292.612C537.496 289.402 536.906 285.952 536.906 282.292C536.906 277.242 537.726 272.322 539.356 267.582C540.976 262.822 543.316 258.592 546.346 254.882C549.366 251.172 553.026 248.172 557.336 245.892C561.656 243.612 566.476 242.482 571.816 242.482C576.076 242.482 579.886 243.172 583.266 244.552C586.636 245.942 589.436 247.832 591.656 250.212C593.886 252.592 595.606 255.382 596.786 258.602C597.966 261.822 598.566 265.262 598.566 268.922" fill="black"/>
<path d="M495.136 233.072C490.766 229.002 485.446 225.882 479.156 223.702C472.866 221.532 465.756 220.432 457.846 220.432C448.726 220.432 440.376 222.092 432.806 225.402C425.226 228.732 418.666 233.282 413.116 239.072C407.566 244.862 403.266 251.662 400.186 259.432C397.116 267.212 395.576 275.552 395.576 284.472C395.576 291.502 396.736 297.902 399.066 303.642C401.406 309.392 404.766 314.302 409.166 318.362C413.576 322.422 418.956 325.542 425.296 327.712C431.636 329.902 438.816 330.982 446.836 330.982C455.956 330.982 464.306 329.322 471.876 326.002C479.456 322.682 485.966 318.122 491.416 312.332C496.866 306.532 501.106 299.752 504.116 291.972C507.146 284.192 508.656 275.852 508.656 266.932C508.656 259.902 507.476 253.522 505.166 247.762C502.826 242.032 499.486 237.122 495.126 233.062M480.576 283.672C478.996 288.472 476.706 292.732 473.736 296.442C470.776 300.162 467.116 303.122 462.816 305.362C458.506 307.592 453.626 308.692 448.176 308.692C443.816 308.692 439.976 308.012 436.666 306.622C433.336 305.242 430.536 303.362 428.256 300.972C425.986 298.602 424.246 295.802 423.056 292.572C421.876 289.362 421.276 285.912 421.276 282.252C421.276 277.202 422.086 272.302 423.736 267.542C425.356 262.792 427.686 258.552 430.706 254.842C433.726 251.122 437.396 248.132 441.706 245.852C446.016 243.572 450.836 242.432 456.186 242.432C460.446 242.432 464.266 243.122 467.626 244.512C470.996 245.902 473.806 247.782 476.016 250.162C478.246 252.542 479.966 255.332 481.146 258.562C482.336 261.792 482.926 265.232 482.926 268.892C482.926 273.942 482.136 278.872 480.546 283.682" fill="black"/>
<path d="M693.886 287.182C693.396 289.862 692.706 292.512 691.816 295.132C690.916 297.762 689.606 300.142 687.866 302.272C686.146 304.392 683.906 306.132 681.186 307.462C678.466 308.792 675.026 309.472 670.866 309.472C667.696 309.472 664.966 309.022 662.686 308.122C660.416 307.232 658.576 306.022 657.196 304.492C655.806 302.942 654.796 301.192 654.156 299.202C653.506 297.222 653.186 295.152 653.186 292.962C653.186 292.072 653.216 291.082 653.266 289.982C653.316 288.892 653.436 287.852 653.636 286.872L664.936 223.122H640.416L628.816 289.102C628.616 290.592 628.446 292.122 628.296 293.702C628.156 295.282 628.076 296.772 628.076 298.162C628.076 303.212 629.046 307.782 630.976 311.832C632.906 315.902 635.676 319.342 639.296 322.162C642.916 324.972 647.266 327.172 652.376 328.702C657.486 330.242 663.196 331.012 669.546 331.012C676.776 331.012 683.166 330.012 688.716 328.032C694.256 326.052 699.036 323.272 703.056 319.712C707.056 316.152 710.306 311.812 712.786 306.712C715.256 301.602 717.046 295.932 718.136 289.692L729.726 223.122H705.346L693.906 287.162L693.886 287.182Z" fill="black"/>
<path d="M865.236 229.302C861.616 226.482 857.266 224.302 852.156 222.762C847.056 221.222 841.336 220.462 834.996 220.462C827.776 220.462 821.376 221.452 815.836 223.422C810.276 225.412 805.506 228.182 801.496 231.742C797.486 235.312 794.236 239.642 791.766 244.752C789.286 249.852 787.506 255.522 786.416 261.772L774.826 328.332H799.186L810.626 264.292C811.136 261.612 811.826 258.952 812.716 256.342C813.606 253.702 814.916 251.342 816.646 249.202C818.386 247.082 820.616 245.342 823.336 244.012C826.066 242.682 829.506 242.002 833.666 242.002C836.836 242.002 839.566 242.452 841.836 243.342C844.116 244.232 845.946 245.442 847.336 246.982C848.726 248.522 849.746 250.272 850.386 252.262C851.036 254.232 851.356 256.322 851.356 258.492C851.356 259.382 851.336 260.372 851.286 261.472C851.226 262.562 851.116 263.602 850.906 264.592L839.616 328.342H864.126L875.726 262.362C875.916 260.872 876.096 259.342 876.236 257.762C876.396 256.172 876.466 254.682 876.466 253.292C876.466 248.242 875.496 243.682 873.566 239.632C871.636 235.552 868.856 232.122 865.246 229.292" fill="black"/>
<path d="M991.016 247.812C988.686 242.062 985.336 237.162 980.986 233.102C976.626 229.032 971.286 225.912 965.006 223.742C958.716 221.562 951.606 220.472 943.686 220.472C934.566 220.472 926.226 222.132 918.646 225.452C911.076 228.772 904.506 233.322 898.956 239.112C893.416 244.912 889.106 251.702 886.036 259.482C882.956 267.262 881.436 275.602 881.436 284.522C881.436 291.552 882.596 297.952 884.926 303.692C887.256 309.432 890.616 314.342 895.026 318.402C899.446 322.462 904.816 325.582 911.166 327.752C917.506 329.942 924.676 331.032 932.716 331.032C941.816 331.032 950.176 329.372 957.746 326.042C965.326 322.732 971.846 318.172 977.286 312.362C982.736 306.582 986.976 299.792 989.996 292.012C993.016 284.232 994.526 275.882 994.526 266.972C994.526 259.942 993.366 253.562 991.036 247.812M966.416 283.702C964.826 288.502 962.556 292.762 959.586 296.472C956.616 300.182 952.966 303.162 948.666 305.392C944.356 307.622 939.466 308.732 934.026 308.732C929.656 308.732 925.836 308.032 922.506 306.652C919.176 305.262 916.386 303.382 914.106 301.002C911.826 298.632 910.096 295.842 908.906 292.612C907.716 289.402 907.116 285.952 907.116 282.292C907.116 277.242 907.936 272.322 909.576 267.582C911.206 262.822 913.526 258.592 916.556 254.882C919.576 251.172 923.236 248.172 927.546 245.892C931.846 243.612 936.686 242.482 942.036 242.482C946.286 242.482 950.106 243.172 953.466 244.552C956.846 245.942 959.646 247.832 961.866 250.212C964.096 252.592 965.806 255.382 966.996 258.602C968.196 261.822 968.786 265.262 968.786 268.922C968.786 273.982 967.986 278.912 966.406 283.712" fill="black"/>
<path d="M1020.68 306.802L1035.54 223.142H1010.73L992.156 328.352H1058.13L1062 306.802H1020.68Z" fill="black"/>
<path d="M738.186 223.142L734.406 244.692H750.886L736.106 328.352H760.936L779.496 223.142H738.186Z" fill="black"/>
<path d="M770.486 201.402C780.026 201.402 787.746 193.672 787.746 184.142C787.746 174.612 780.026 166.862 770.486 166.862C760.946 166.862 753.206 174.602 753.206 184.142C753.206 193.682 760.946 201.402 770.486 201.402Z" fill="black"/>
<path d="M420.646 415.812L417.996 408.092H402.826L400.176 415.812H393.966L408.066 377.362H412.766L426.866 415.812H420.646ZM410.546 386.052L404.546 403.122H416.376L410.546 386.052Z" fill="black"/>
<path d="M443.666 416.132C439.456 416.132 436.216 414.722 433.726 412.242C430.006 408.462 429.836 404.632 429.836 396.582C429.836 388.532 429.996 384.702 433.726 380.912C436.216 378.432 439.456 377.022 443.666 377.022C450.746 377.022 456.036 381.232 457.386 388.852H451.436C450.576 384.912 447.926 382.202 443.656 382.202C441.336 382.202 439.396 383.072 437.986 384.572C436.046 386.632 435.666 388.952 435.666 396.572C435.666 404.192 436.046 406.502 437.986 408.562C439.396 410.072 441.336 410.942 443.656 410.942C447.926 410.942 450.626 408.242 451.536 404.302H457.376C456.016 411.912 450.676 416.132 443.656 416.132" fill="black"/>
<path d="M486.076 415.802V399.012H470.466V415.802H464.626V377.352H470.466V393.772H486.076V377.352H491.906V415.802H486.076Z" fill="black"/>
<path d="M507.246 377.352H501.416V415.802H507.246V377.352Z" fill="black"/>
<path d="M516.766 415.802V377.352H541.346V382.592H522.596V393.832H538.586V399.012H522.596V410.572H541.346V415.802H516.766Z" fill="black"/>
<path d="M561.216 415.802H556.686L544.046 377.352H550.096L558.956 405.332L567.816 377.352H573.966L561.216 415.802Z" fill="black"/>
<path d="M578.726 415.802V377.352H603.296V382.592H584.566V393.832H600.546V399.012H584.566V410.572H603.296V415.802H578.726Z" fill="black"/>
<path d="M651.276 415.802V390.102L642.416 408.842H638.096L629.026 390.102V415.802H623.186V377.352H629.026L640.256 401.282L651.276 377.352H657.116V415.802H651.276Z" fill="black"/>
<path d="M688.936 412.242C686.456 414.722 683.206 416.132 678.996 416.132C674.786 416.132 671.546 414.722 669.066 412.242C665.276 408.462 665.176 404.622 665.176 396.582C665.176 388.542 665.286 384.702 669.066 380.922C671.546 378.442 674.786 377.032 678.996 377.032C683.206 377.032 686.446 378.442 688.936 380.922C692.706 384.712 692.826 388.532 692.826 396.582C692.826 404.632 692.716 408.462 688.936 412.242ZM684.726 384.582C683.266 383.072 681.316 382.212 678.996 382.212C676.676 382.212 674.726 383.082 673.266 384.582C671.376 386.642 670.996 388.962 670.996 396.582C670.996 404.202 671.376 406.462 673.266 408.522C674.726 410.032 676.676 410.952 678.996 410.952C681.316 410.952 683.256 410.032 684.726 408.522C686.666 406.522 686.986 404.202 686.986 396.582C686.986 388.962 686.666 386.592 684.726 384.582Z" fill="black"/>
<path d="M722.156 415.802L714.046 399.602H706.756V415.802H700.926V377.352H715.836C723.126 377.352 727.766 382.052 727.766 388.582C727.766 394.092 724.416 397.602 720.096 398.792L728.956 415.802H722.146H722.156ZM715.406 382.592H706.756V394.632H715.406C719.296 394.632 721.936 392.422 721.936 388.642C721.936 384.862 719.296 382.592 715.406 382.592Z" fill="black"/>
<path d="M735.776 415.802V377.352H760.356V382.592H741.616V393.832H757.606V399.012H741.616V410.572H760.356V415.802H735.776Z" fill="black"/>
<path d="M793.256 382.592V415.802H787.426V382.592H776.836V377.352H803.836V382.592H793.256Z" fill="black"/>
<path d="M831.236 412.242C828.756 414.722 825.506 416.132 821.296 416.132C817.086 416.132 813.846 414.722 811.356 412.242C807.576 408.462 807.466 404.622 807.466 396.582C807.466 388.542 807.566 384.702 811.356 380.922C813.846 378.442 817.076 377.032 821.296 377.032C825.516 377.032 828.756 378.442 831.236 380.922C835.016 384.712 835.126 388.532 835.126 396.582C835.126 404.632 835.016 408.462 831.236 412.242ZM827.026 384.582C825.566 383.072 823.626 382.212 821.296 382.212C818.966 382.212 817.026 383.082 815.566 384.582C813.686 386.642 813.306 388.962 813.306 396.582C813.306 404.202 813.686 406.462 815.566 408.522C817.026 410.032 818.976 410.952 821.296 410.952C823.616 410.952 825.566 410.032 827.026 408.522C828.966 406.522 829.286 404.202 829.286 396.582C829.286 388.962 828.966 386.592 827.026 384.582Z" fill="black"/>
<path d="M866.246 411.762C863.386 414.782 859.706 416.132 855.656 416.132C851.606 416.132 848.206 414.722 845.716 412.242C841.986 408.462 841.826 404.622 841.826 396.582C841.826 388.542 841.986 384.702 845.716 380.922C848.196 378.442 851.436 377.032 855.656 377.032C863.766 377.032 868.566 382.382 869.596 388.912H863.766C862.796 384.702 859.976 382.212 855.656 382.212C853.336 382.212 851.386 383.082 849.926 384.582C848.036 386.642 847.656 388.962 847.656 396.582C847.656 404.202 848.036 406.512 849.926 408.572C851.386 410.082 853.326 410.952 855.656 410.952C858.196 410.952 860.456 409.982 861.976 408.192C863.376 406.582 863.856 404.632 863.856 402.142V399.992H855.646V395.022H869.686V400.912C869.686 405.932 868.766 409.012 866.236 411.772" fill="black"/>
<path d="M877.756 415.802V377.352H902.326V382.592H883.586V393.832H899.576V399.012H883.586V410.572H902.326V415.802H877.756Z" fill="black"/>
<path d="M922.806 382.592V415.802H916.966V382.592H906.386V377.352H933.386V382.592H922.806Z" fill="black"/>
<path d="M960.946 415.802V399.012H945.336V415.802H939.506V377.352H945.336V393.772H960.946V377.352H966.776V415.802H960.946Z" fill="black"/>
<path d="M976.296 415.802V377.352H1000.87V382.592H982.126V393.832H998.106V399.012H982.126V410.572H1000.87V415.802H976.296Z" fill="black"/>
<path d="M1029.57 415.802L1021.46 399.602H1014.17V415.802H1008.34V377.352H1023.25C1030.54 377.352 1035.19 382.052 1035.19 388.582C1035.19 394.092 1031.84 397.602 1027.52 398.792L1036.38 415.802H1029.57ZM1022.81 382.592H1014.16V394.632H1022.81C1026.7 394.632 1029.34 392.422 1029.34 388.642C1029.34 384.862 1026.7 382.592 1022.81 382.592Z" fill="black"/>
</svg>
