<svg width="1031" height="316" viewBox="0 0 1031 316" fill="none" xmlns="http://www.w3.org/2000/svg">
<path d="M566.67 310.12H621.68V87.59H566.67V310.12Z" fill="black"/>
<path d="M566.67 2.79H621.68V53.15H566.67V2.79Z" fill="black"/>
<path d="M760.25 87.52V128.36H720.01V238.43C720.01 248.75 721.55 255.64 724.65 259.08C727.75 262.51 733.93 264.24 743.22 264.24C746.32 264.24 749.29 264.1 752.12 263.81C754.96 263.53 757.67 263.1 760.25 262.52V309.82C755.61 310.68 750.44 311.26 744.77 311.54C739.1 311.83 733.55 311.97 728.13 311.97C719.61 311.97 711.55 311.33 703.95 310.04C696.33 308.75 689.63 306.25 683.83 302.52C678.02 298.8 673.43 293.49 670.09 286.61C666.74 279.74 665.06 270.71 665.06 259.52V128.38H631.78V87.54H665.06V20.87H720.02V87.51H760.26L760.25 87.52Z" fill="black"/>
<path d="M815.32 224.89C816.87 233.34 819.52 240.95 823.26 247.68C826.99 254.42 831.96 259.8 838.15 263.8C844.34 267.82 852.08 269.82 861.37 269.82C870.66 269.82 878.46 267.82 884.78 263.8C891.1 259.8 896.14 254.42 899.88 247.68C903.62 240.95 906.27 233.35 907.81 224.89C909.36 216.44 910.14 207.77 910.14 198.88C910.14 189.99 909.37 181.25 907.81 172.65C906.27 164.05 903.62 156.46 899.88 149.86C896.14 143.27 891.11 137.89 884.78 133.74C878.47 129.59 870.66 127.5 861.37 127.5C852.08 127.5 844.34 129.59 838.15 133.74C831.96 137.89 826.99 143.27 823.26 149.86C819.52 156.45 816.87 164.05 815.32 172.65C813.77 181.25 812.99 189.99 812.99 198.88C812.99 207.77 813.77 216.44 815.32 224.89ZM765.41 150.51C770.31 136.04 777.27 123.71 786.31 113.53C795.33 103.36 806.17 95.48 818.81 89.89C831.45 84.3 845.64 81.51 861.38 81.51C877.12 81.51 891.37 84.3 904.14 89.89C916.9 95.48 927.81 103.37 936.84 113.53C945.87 123.71 952.83 136.04 957.74 150.51C962.64 164.99 965.09 181.11 965.09 198.88C965.09 216.65 962.64 232.7 957.74 247.04C952.83 261.37 945.88 273.63 936.84 283.8C927.81 293.98 916.91 301.79 904.14 307.24C891.37 312.68 877.11 315.4 861.38 315.4C845.65 315.4 831.45 312.67 818.81 307.24C806.17 301.79 795.33 293.98 786.31 283.8C777.28 273.63 770.31 261.38 765.41 247.04C760.5 232.71 758.05 216.66 758.05 198.88C758.05 181.1 760.5 164.98 765.41 150.51Z" fill="black"/>
<path d="M1030.53 309.56H975.58V2.56H1030.53V309.56Z" fill="black"/>
<path d="M505.43 2.79H569.37L477.37 310.13H408.8L319.21 2.79H380.68L444.62 225.51L505.43 2.79Z" fill="black"/>
<path d="M136.89 249.59C162.53 249.59 180.99 236.74 192.58 221.75C198.57 214 203.36 204.32 205.79 192.89C211.24 167.32 200.19 143.88 188.92 129.07C182.93 121.17 176.2 114.42 169.41 106.71C163.16 99.63 155.71 92.27 150.1 83.95C146.12 78.03 142.11 71.07 138.93 63.62C137.94 61.31 136.63 57.6 135.83 55.99V55.69C135.83 55.69 135.78 55.79 135.76 55.83C135.73 55.79 135.7 55.73 135.68 55.69V55.99C134.88 57.59 133.57 61.3 132.59 63.62C129.41 71.07 125.39 78.03 121.41 83.95C115.81 92.27 108.35 99.63 102.1 106.71C95.31 114.42 88.59 121.18 82.59 129.07C71.34 143.88 60.28 167.33 65.72 192.89C68.15 204.32 72.94 214 78.93 221.75C90.54 236.74 108.98 249.59 134.62 249.59" fill="black"/>
<path d="M134.06 293.61C113.99 293.61 97.56 288.65 83.23 281.82C69.04 275.05 57.08 265.75 47.24 254.57C28.68 233.5 13 200.35 18.78 159.41C21.32 141.35 27.82 126.59 36.06 113.66C44.21 100.85 53.88 88.75 64.12 78.48C74.35 68.21 86.98 59.31 96.05 47.16C105.05 35.11 111.38 20.87 112.08 0H20.5C9.19 0 0 9.18 0 20.49V291.22C0 302.54 9.19 311.71 20.5 311.71H249.93C261.26 311.71 270.43 302.53 270.43 291.22V20.49C270.43 9.17 261.25 0 249.93 0H158.36C159.06 20.87 165.4 35.12 174.4 47.16C183.46 59.31 196.09 68.21 206.32 78.48C216.56 88.75 226.22 100.84 234.38 113.66C242.62 126.59 249.12 141.34 251.67 159.41C257.45 200.34 241.76 233.5 223.2 254.57C213.36 265.75 201.4 275.05 187.21 281.82C172.89 288.65 156.45 293.61 136.38 293.61" fill="black"/>
</svg>
