<svg width="1531" height="119" viewBox="0 0 1531 119" fill="none" xmlns="http://www.w3.org/2000/svg">
<path d="M25.92 19.74L78.6 115.45L139.6 115.49L191.38 19.73L217.34 19.74V2.38H139.27V19.73H161.81L124.11 89.45L85.9 19.74L113.3 19.73L113.29 2.38H0.02L0 19.74H25.92Z" fill="black"/>
<path d="M697.11 2.38L801.55 2.39V19.69H775.54V97.82H799.66C822.01 97.82 836.66 83.06 836.66 63.03H853.89V115.35H697.1V97.85H723.43L723.4 19.7H697.11V2.38Z" fill="black"/>
<path d="M443.84 0C391.39 0 363.53 26.16 363.53 59C363.53 91.84 390.35 118.82 444.14 118.82C497.93 118.82 524.45 92.28 524.45 59C524.45 25.72 496.29 0 443.84 0ZM443.25 100.85C424.1 100.5 415.68 79.34 416.04 58.3C416.42 36.52 426.84 17.52 444.79 17.83C462.73 18.14 472.21 37.5 471.82 59.28C471.46 79.82 462.98 101.21 443.25 100.85Z" fill="black"/>
<path d="M1032.06 19.74L1084.74 115.45L1145.74 115.49L1197.52 19.73L1223.48 19.74V2.38H1145.4V19.73H1167.95L1130.25 89.45L1092.04 19.74L1119.44 19.73L1119.43 2.38H1006.16L1006.14 19.74H1032.06Z" fill="black"/>
<path d="M1450.01 0C1397.56 0 1369.71 26.16 1369.71 59C1369.71 91.84 1396.53 118.82 1450.32 118.82C1504.11 118.82 1530.63 92.28 1530.63 59C1530.63 25.72 1502.47 0 1450.01 0ZM1449.43 100.85C1430.28 100.5 1421.86 79.34 1422.22 58.3C1422.6 36.52 1433.02 17.52 1450.97 17.83C1468.91 18.14 1478.38 37.5 1478 59.28C1477.64 79.82 1469.16 101.21 1449.43 100.85Z" fill="black"/>
</svg>
